<?xml version="1.0" encoding="utf-8"?>
<!-- Generator: Adobe Illustrator 16.0.0, SVG Export Plug-In . SVG Version: 6.00 Build 0)  -->
<!DOCTYPE svg PUBLIC "-//W3C//DTD SVG 1.1//EN" "http://www.w3.org/Graphics/SVG/1.1/DTD/svg11.dtd">
<svg version="1.1" id="Calque_1" xmlns="http://www.w3.org/2000/svg" xmlns:xlink="http://www.w3.org/1999/xlink" x="0px" y="0px"
	 width="356px" height="283px" viewBox="73.5 32.5 356 283" enable-background="new 73.5 32.5 356 283" xml:space="preserve">
<g>
	<polygon fill="#3E8488" points="90.026,290.953 90.026,285.156 88.359,285.312 88.359,291.232 	"/>
	<polygon fill="#3E8488" points="92.212,290.637 92.212,284.836 90.543,284.997 90.543,290.915 	"/>
	<polygon fill="#3E8488" points="99.844,289.086 99.844,283.287 98.17,283.446 98.17,289.365 	"/>
	<polygon fill="#3E8488" points="102.026,288.772 102.026,282.969 100.357,283.126 100.357,289.048 	"/>
	<polygon fill="#3E8488" points="204.364,143.093 204.387,142.845 204.344,142.845 	"/>
	<path fill="#58BFC4" d="M422.995,307.127l-0.079-0.874l-0.159-1.076l-0.036-1.031l-0.038-0.601l-0.398-0.75l-0.042-0.916
		l-0.076-0.557l-0.082-0.718l0.082-0.556l0.194-1.032l-0.556-1.709l-0.196-0.954l-0.636-0.874l-0.316-0.516l-0.441-0.713v-0.521
		l-0.314-0.955l-0.156-0.988l-0.237-0.955l-0.397-1.071l-0.04-0.677l-0.239-0.832l-0.238-0.641l-0.354-0.594l-0.358-0.916
		l-0.196-0.594l-0.2-0.718l-0.358-0.717c0,0-0.393-0.634-0.352-0.75c0.036-0.119-0.519-0.837-0.519-0.837l-0.438-0.837l-0.277-0.795
		l-0.52-0.752l-0.673-0.556l-0.48-1.312l-0.517-0.875l-0.355-0.911l-0.556-1.031l-0.602-0.876l-0.867-1.072l-0.278-0.795
		l-0.359-0.635l-0.637-1.075l-0.438-1.229l-0.313-0.717l-0.521-1.032l-0.158-1.029l-0.04-0.721l-0.118-0.795l-0.32-0.633
		l-0.113-0.876l0.113-0.751l-0.04-0.677l-0.039-0.835l-0.395-0.834l-0.04-0.754l-0.042-0.521l-0.279-0.793l-0.12-0.794l0.086-0.6
		l-0.244-0.91l0.203-0.678l-0.242-0.597l-0.075-0.678l-0.282-0.636l-0.076-0.795l-0.197-0.749l0.077-0.718l-0.233-0.88l-0.123-0.714
		l-0.117-0.988l-0.196-0.838v-0.717l-0.202-1.109v-1.029l-0.037-0.64l-0.118-0.75l-0.16-0.837l-0.2-0.717c0,0-0.12-0.837-0.12-0.951
		c0-0.121,0.162-0.917,0.162-0.917l-0.162-0.753l0.042-0.555l-0.158-0.125H382.6l-10.02,9.219h-4.208l-7.59,3.22h-8.342
		l-6.834,1.229c-9.733-0.792-19.07,1.907-19.07,1.907l-20.618-1.546l-1.11-3.022l-10.412-0.753l-1.108-1.472V244.9v-15.01h0.676
		l-0.082-1.229l-0.52-0.317v-4.053l0.479-0.317v-0.877l-0.713-0.398v-16.048l0.795-0.676v-0.792l-0.759-0.359v-10.211l0.718-0.476
		v-0.953l-0.752-0.557v-15.935l0.555-0.555v-1.114l-0.599-0.396v-9.812l-0.04-0.514h0.398l0.118-0.957l0.207-0.195v-0.677h0.469
		c0.753-0.636-0.198-1.15-0.198-1.15l-0.793-0.202v-2.143h-0.597l-0.159-20.542l0.438-0.04v-1.471v-0.556h0.479v-0.676h0.519v-0.634
		h-1.074V132h0.635v-0.76l1.153-0.078v-1.15h1.193v-0.875h0.829l0.042-0.476v-0.758c-2.428-1.068-2.027-3.301-2.027-3.301
		l-0.637-0.115v-1.864h0.56v-1.312h0.555l-0.196-0.595l-0.396-0.279l-0.521-0.235l0.125-0.601l0.16-0.314l0.396-0.239l0.234-0.479
		l-0.161-0.395v-0.594l0.357-0.363l0.244-0.594l0.194-0.438v-0.596l0.04-0.638l-0.438-0.478l-0.597-0.239l-0.56-0.272l-0.715-0.278
		l-0.078-0.396l0.078-0.396l0.479-0.396h0.593l0.438-0.194l0.154-0.681l0.082-0.556l0.161-0.556l0.079-0.281l0.317-0.159
		l0.396-0.076l0.2-0.357l0.076-0.52l-0.396,0.079l-0.395,0.079l-0.438,0.119l-0.515,0.04l-0.559-0.117l-0.278,0.317v0.515
		l0.241,0.245l-0.317,0.593l-0.32-0.316l-0.278-0.396l0.316-0.438l-0.038-0.56l-0.116-0.354l-0.279-0.359l-0.357-0.196l-0.477,0.242
		l-0.435,0.157c0,0-0.163,0.435-0.163,0.555c0,0.117,0.163,0.357,0.163,0.357v0.282l-0.042,0.554l-0.438,0.038l-0.197-0.438
		l-0.438-0.042l-0.321-0.111l-0.354,0.038l-0.357,0.314l-0.077,0.553l-0.318,0.478l-0.158,0.438l-0.038,0.521v0.476l0.229,0.874
		c0.52,1.589,0.682,3.732,0.682,3.732l-0.041,0.676l-0.199,0.437v0.598v0.476v0.64l-0.198,0.274l-0.196,0.159l-0.318,0.36
		l-7.15-0.602l-0.196-1.747h-0.717v-5.682l0.756-1.389v-0.797h-0.869v-1.033l-0.396-0.037v-1.633h-0.403v-0.873l-0.593-0.599v-1.982
		l-0.479-0.915V96.08l0.317-1.188v-2.265l0.677-0.439v-2.895l-0.753-0.399l-0.44-0.396l-0.196-0.316l-0.755-0.521
		c-1.631-1.069-2.308-5.047-2.308-5.047c0.52-0.396,0.043-1.863,0.043-1.863c0.793-0.314,0.198-1.867,0.198-1.867
		c0.399-0.519-0.597-1.627-0.597-1.627c0.396-0.676-0.078-0.954-0.078-0.954c-0.559-0.479-0.039-4.173-0.039-4.173l0.116-0.517
		l0.396,0.237l0.237,0.478l0.556,0.438c1.192,0.281,0.72-4.767,0.72-4.767c0.991,1.27-0.119-3.38-0.119-3.38
		c1.789,1.075-0.275-4.447-0.275-4.447c0.711,0.277,0.234-1.271,0.234-1.271l-0.438-1.787l0.274-0.319l0.396-0.638l0.122-0.515
		l-0.122-0.681l-0.354-0.516l-0.238-0.598l0.438-0.671l-0.077-0.678l-0.234-0.599l-0.086-0.833l-0.038-0.678l0.076-0.551
		l0.641,0.036l0.553-0.079l0.602-0.317l0.353-0.315l0.282-0.44c0,0-0.158-0.475-0.195-0.638c-0.041-0.159-0.087-0.354-0.087-0.354
		l-0.031-0.476l-0.202-0.279l-0.316-0.318h-0.315l-0.317,0.281l-0.12,0.238v0.396l0.2,0.396l-0.038,0.438l-0.441,0.202l-0.597-0.278
		l-0.591-0.159l-0.082-0.519l0.316-0.12l0.316-0.435l0.238-0.637l0.042-0.599l-0.479-0.594l-0.954-0.357
		c-1.743-0.516-2.5,1.19-2.5,1.19l-0.598-0.119l0.04-0.676l0.163-0.637l0.077-0.36v-0.713l0.116-0.674l-0.116-0.521l-0.227-0.767
		l0.119-0.345c0.688-1.114-0.501-1.061-0.501-1.061c0.075-0.77-0.629-0.293-0.629-0.293c-0.486,0.309-1.03-0.354-1.03-0.354
		c-0.646-0.837-1.16,0.435-1.16,0.435c-0.822-0.594-0.863,0.601-0.863,0.601c-0.598-0.396-0.279,0.354-0.279,0.354l0.678,1.034
		c-0.756,0.561-0.355,2.428-0.355,2.428c-0.362,2.188-1.109,2.38-1.109,2.38c-2.348,1.666-2.188,5.837-2.188,5.837l0.438,0.72
		l0.122,0.438v0.479c-0.202,1.629,0.472,3.338,0.472,3.338c0.603,1.429,0.64,3.299,0.64,3.299c0.196,2.18,0,13.944,0,13.944
		c-0.834,0.116-0.716,0.789-0.716,0.789v1.793c-0.875,0-0.795,1.029-0.795,1.029l-0.08,1.037c-0.676,0.313-0.082,1.312-0.082,1.312
		v0.752l0.121,0.717l0.161,0.516c-0.199,4.688-4.215,6.672-4.215,6.672v1.478v1.509l0.398,0.396v2.185l0.396,1.51v7.745
		l-0.355,0.833v1.511l-0.559,0.52l-0.115,1.189h-0.356v1.707h-0.677v1.394l-0.678,0.042v0.315l0.835,1.706v2.938l-4.329,1.036
		l0.872,1.71l-0.354,0.234l-0.279,0.158h-0.396l-0.277,0.201l-0.515-0.359l-0.397,0.158l-0.244,0.479l-0.153,0.636l0.039,0.354
		l0.114,0.438l-0.396,0.203l-0.678,0.158l-0.556,0.113l-0.312,0.319l-0.32-0.12l-0.516-0.436l-0.479-0.318v-0.476l0.201-0.158
		l0.275-0.196l0.041-0.477l0.277-0.281l-0.396-0.436c-0.956-0.8-0.279-1.473-0.279-1.473c0.956-1.591,0.713-4.604,0.713-4.604
		l-0.354-0.64l-0.275-0.277l-0.279-0.317l-0.518-0.438l-0.598-0.797l0.121,0.6l0.037,0.519l-0.114,0.438l-0.441-0.115l-0.117-0.439
		l-0.079-0.478l0.116-0.396l-0.317-0.438l-0.514-0.198l-0.359,0.039l-0.205,0.274l-0.114,0.272l-0.04,0.441l-0.039,0.357
		l0.355,0.157l-0.162,0.399l-0.312,0.192l-0.477-0.077l-0.2-0.357l0.2-0.358l-0.08-0.396l-0.397-0.079l-0.396,0.115l-0.354-0.194
		l-0.478-0.079l-0.6-0.355l-0.396-0.12l-0.158,0.315l-0.081,0.396l0.398,0.158l0.515,0.28l0.597,0.196l0.278,0.519l0.196,0.438
		v0.396l-0.038,0.478l0.118,0.316l0.477,0.155l0.398,0.159h0.396l0.236,0.479l-0.039,0.478l-0.358,0.2l-0.597,0.158l-0.357,0.315
		l-0.437,0.158l-0.155,0.199l-0.201,0.355v0.522l0.04,0.549l0.119,0.397l0.234,0.355l0.397,0.281l0.084,0.396l-0.084,0.473
		l-0.195,0.28l0.195,0.478l0.277,0.396l0.358,0.396l0.039,0.521l-0.357,0.316l-0.315,0.197l-0.316,0.355l-0.315,0.277l0.273,0.396
		l0.162,0.64l0.317,0.396l0.235,0.36l0.196,0.396v0.521l-0.039,0.479l-0.198,0.396l-0.276,0.354l-0.235,0.358v0.479l-0.042,0.556
		l-0.196,0.476l-0.122,0.595l-1.703,0.838l1.232,1.669h0.832l0.515,1.271h0.756l0.397,0.955l0.396,2.382v0.599h-1.07l0.597,0.833
		l0.477,0.555v1.551h0.478v20.498h-0.633v2.146l-1.314,0.277v0.518l1.033,1.152v0.955l0.558,0.358v10.646l-0.596,0.238v0.956
		l0.554,0.237v6.437l-21.771,4.491l-0.515-0.795h-0.599v-9.697h0.558l0.479-1.667c0.558-0.678,0.116-1.587,0.116-1.587
		c-0.756-0.599,0.084-2.029,0.084-2.029v-1.065l0.949-0.714l-0.512-1.396h-0.64l-0.044-0.872h-0.472l-1.63-5.084h-1.787h-0.242
		c-0.082-9.897-6.622-18.071-15.134-19.521v-0.312c0,0-1.273-0.525-1.823-1.351c0.239-0.089,0.412-0.321,0.412-0.593
		c0-0.209-0.108-0.399-0.269-0.517h0.188c0.186,0,0.337-0.148,0.337-0.341c0-0.185-0.152-0.335-0.337-0.335h-0.295
		c0.086-0.133,0.136-0.288,0.136-0.458v-0.635c0-0.064-0.013-0.13-0.024-0.195c0.313-0.254,0.518-0.644,0.518-1.082
		c0-0.712-0.528-1.301-1.211-1.378v-6.821h2.004v-0.405h-2.004v-2.216h-0.319v2.216h-2.007v0.405h2.007v6.821
		c-0.681,0.077-1.211,0.666-1.211,1.378c0,0.459,0.219,0.867,0.557,1.116c-0.009,0.053-0.013,0.107-0.013,0.161v0.635
		c0,0.17,0.047,0.325,0.133,0.458h-0.293c-0.188,0-0.339,0.149-0.339,0.335c0,0.189,0.151,0.341,0.339,0.341h0.189
		c-0.164,0.114-0.268,0.306-0.268,0.517c0,0.271,0.167,0.503,0.407,0.593c-0.55,0.822-1.818,1.351-1.818,1.351v0.248
		c-8.763,1.264-15.534,9.643-15.534,19.781c0,0.226,0.004,0.456,0.013,0.683l-0.173,0.392h-0.993l-1.63,3.653l-0.354-0.119
		c-0.479-0.719-0.678,0.077-0.678,0.077c-0.161,0.681-0.911,1.473-0.911,1.473c1.146,0.638,1.351,4.052,1.351,4.052
		c-1.19,0.122-0.479,1.312-0.479,1.312c0.641,0.638,0.521,2.228,0.521,2.228h0.437v9.932l-0.396,0.521v2.104h-0.835l0.359,0.714
		h-7.23l-9.732,11.882c-1.947,0.117-2.024,0.438-2.024,0.438c0.314,0.16,0.556,0.951,0.556,0.951l0.751-0.041v0.757l0.914,0.396
		v13.03l-1.546,0.273v1.951l1.627,1.429v12.792l-10.526,2.225v0.799l-2.305,0.276v0.399l0.637,0.351v0.559h1.149v1.867l-4.487,0.912
		v0.995l-0.677,0.039v0.438l0.557,0.274l0.038,3.735l-5.995,0.833c-2.979,0.555-3.259,2.585-3.259,2.585l-0.24,8.778
		c-1.941,0-2.267,1.23-2.267,1.23l-0.196,1.989l-0.439,0.078l-1.027,1.305l-0.638,0.125l-0.079,0.554l-1.353,0.16
		c0.161-1.51-0.793-1.35-0.793-1.35l-3.101,0.511l-0.079-1.031l-0.955-0.476h-1.432l-1.112,1.189v0.875l-8.104,1.594l-0.157-2.706
		l-0.638-1.109l-3.415,0.477l-0.879,0.798v3.418c-4.768,0.715-3.648,3.098-3.648,3.098l-30.354,5.56
		c-3.812,0.955-1.667,4.135-1.667,4.135l-2.066,0.557l0.078,1.116l1.751,0.711l-1.649,25.2h343.771l2.844-0.05L422.995,307.127z
		 M204.364,143.093l-0.021-0.248h0.044L204.364,143.093z"/>
	<path fill="#FFFFFF" d="M203.277,175.036c0-2.155-0.999-3.903-2.222-3.903h-0.323c-1.229,0-2.226,1.748-2.226,3.903v12.251h4.77
		L203.277,175.036L203.277,175.036z"/>
	<path fill="#FFFFFF" d="M259.93,234.592c0-2.154-1.622-3.903-3.609-3.903h-0.525c-1.998,0-3.612,1.749-3.612,3.903v12.251h7.749
		L259.93,234.592L259.93,234.592z"/>
	<path fill="#FFFFFF" d="M283.851,235.568c0-2.152-1.623-3.9-3.61-3.9h-0.523c-1.998,0-3.614,1.748-3.614,3.9v12.251h7.75
		L283.851,235.568L283.851,235.568z"/>
	<path fill="#FFFFFF" d="M215.777,175.036c0-2.155-0.841-3.903-1.881-3.903h-0.268c-1.034,0-1.878,1.748-1.878,3.903v12.251h4.024
		L215.777,175.036L215.777,175.036z"/>
	<path fill="#FFFFFF" d="M274.255,142.399c0-3.088-0.837-5.592-1.875-5.592h-0.27c-1.036,0-1.877,2.503-1.877,5.592v15.081
		l4.021,0.062L274.255,142.399L274.255,142.399z"/>
	<path fill="#FFFFFF" d="M280.775,142.404c0-3-0.845-5.438-1.876-5.438h-0.271c-1.034,0-1.873,2.438-1.873,5.438v15.175l4.021,0.063
		L280.775,142.404L280.775,142.404z"/>
	<path fill="#FFFFFF" d="M287.131,142.565c0-3.007-0.844-5.439-1.877-5.439h-0.27c-1.038,0-1.879,2.435-1.879,5.439v15.109
		l4.021,0.06v-15.169H287.131z"/>
	<path fill="#FFFFFF" d="M262.659,144.151c0-3.441-0.511-6.231-1.136-6.231h-0.166c-0.625,0-1.131,2.79-1.131,6.231v14.195
		l2.433-0.146V144.151L262.659,144.151z"/>
	<path fill="#FFFFFF" d="M258.719,144.156c0-3.349-0.514-6.061-1.143-6.061h-0.164c-0.625,0-1.133,2.711-1.133,6.061v14.427
		l2.438-0.146L258.719,144.156L258.719,144.156z"/>
	<path fill="#FFFFFF" d="M254.871,144.336c0-3.351-0.511-6.069-1.136-6.069h-0.166c-0.625,0-1.131,2.721-1.131,6.069v14.479
		l2.434-0.146L254.871,144.336L254.871,144.336z"/>
	<path fill="#3E8488" d="M279.596,179.93c0-1.407-0.505-2.548-1.129-2.548h-0.16c-0.62,0-1.123,1.142-1.123,2.548v7.996h2.412
		V179.93z"/>
	<path fill="#3E8488" d="M259.285,180.406c0-1.404-0.314-2.549-0.708-2.549h-0.101c-0.392,0-0.702,1.145-0.702,2.549v7.994h1.511
		V180.406L259.285,180.406z"/>
	<path fill="#3E8488" d="M259.122,211.236c0-1.405-0.312-2.549-0.703-2.549h-0.101c-0.39,0-0.708,1.145-0.708,2.549v7.996h1.511
		L259.122,211.236L259.122,211.236z"/>
	<path fill="#3E8488" d="M279.596,210.229c0-1.407-0.505-2.544-1.129-2.544h-0.16c-0.62,0-1.123,1.137-1.123,2.544v7.992h2.412
		V210.229z"/>
	<path fill="#FFFFFF" d="M190.776,175.036c0-2.155-0.51-3.903-1.139-3.903h-0.161c-0.63,0-1.137,1.748-1.137,3.903v12.251h2.437
		V175.036z"/>
	<rect x="241.91" y="207.604" fill="#3E8488" width="0.874" height="3.102"/>
	<rect x="241.91" y="216.581" fill="#3E8488" width="0.874" height="3.098"/>
	<rect x="241.91" y="225.882" fill="#3E8488" width="0.874" height="3.096"/>
	<rect x="241.91" y="234.38" fill="#3E8488" width="0.874" height="3.101"/>
	<polygon fill="#3E8488" points="109.972,287.258 109.972,281.458 108.302,281.62 108.302,287.537 	"/>
	<polygon fill="#3E8488" points="112.155,286.938 112.155,281.141 110.489,281.299 110.489,287.22 	"/>
	<polygon fill="#3E8488" points="120.063,285.429 120.063,279.634 118.392,279.789 118.392,285.71 	"/>
	<polygon fill="#3E8488" points="122.25,285.112 122.25,279.313 120.577,279.475 120.577,285.391 	"/>
	<polygon fill="#3E8488" points="130.192,283.604 130.192,277.807 128.523,277.963 128.523,283.886 	"/>
	<polygon fill="#3E8488" points="132.378,283.287 132.378,277.486 130.712,277.646 130.712,283.566 	"/>
	<path fill="#3E8488" d="M163.687,293.868c0,0,1.054-12.499-5.512-13.244c0,0-5.508-0.105-6.146,13.351L163.687,293.868z"/>
	<rect x="158.81" y="264.943" fill="#3E8488" width="0.743" height="9.324"/>
	<rect x="150.336" y="272.147" fill="#3E8488" width="0.526" height="2.545"/>
	<rect x="167.444" y="269.077" fill="#3E8488" width="0.534" height="2.544"/>
	<rect x="167.444" y="252.342" fill="#3E8488" width="0.534" height="3.281"/>
	<rect x="150.336" y="254.987" fill="#3E8488" width="0.526" height="3.283"/>
	<rect x="155.95" y="254.248" fill="#3E8488" width="0.847" height="2.965"/>
	<rect x="158.914" y="253.717" fill="#3E8488" width="0.854" height="2.967"/>
	<rect x="161.993" y="253.186" fill="#3E8488" width="0.844" height="2.966"/>
	<rect x="193.985" y="251.601" fill="#3E8488" width="0.848" height="2.965"/>
	<rect x="199.229" y="251.914" fill="#3E8488" width="0.848" height="2.968"/>
	<polygon fill="#3E8488" points="222.961,245.768 219.362,245.718 219.409,239.308 222.961,239.308 	"/>
	<rect x="199.334" y="265.474" fill="#3E8488" width="0.851" height="6.093"/>
	<rect x="204.364" y="265.795" fill="#3E8488" width="0.854" height="6.093"/>
	<rect x="209.667" y="266.003" fill="#3E8488" width="0.845" height="6.095"/>
	<rect x="214.854" y="266.268" fill="#3E8488" width="0.847" height="6.093"/>
	<rect x="219.943" y="266.589" fill="#3E8488" width="0.843" height="6.092"/>
	<rect x="225.079" y="266.854" fill="#3E8488" width="0.849" height="6.09"/>
	<rect x="236.412" y="267.539" fill="#3E8488" width="0.853" height="6.095"/>
	<rect x="204.364" y="252.234" fill="#3E8488" width="0.854" height="2.964"/>
	<rect x="209.453" y="252.604" fill="#3E8488" width="0.85" height="2.966"/>
	<rect x="214.589" y="253.029" fill="#3E8488" width="0.852" height="2.967"/>
	<rect x="219.625" y="253.294" fill="#3E8488" width="0.849" height="2.964"/>
	<rect x="224.866" y="253.717" fill="#3E8488" width="0.848" height="2.967"/>
	<rect x="236.096" y="254.353" fill="#3E8488" width="0.851" height="2.965"/>
	<path fill="#3E8488" d="M180.054,210.228c0,1.927-0.818,3.494-1.83,3.494c-1.014,0-1.826-1.567-1.826-3.494
		c0-1.934,0.812-3.499,1.826-3.499C179.236,206.729,180.054,208.294,180.054,210.228z"/>
	<path fill="#3E8488" d="M227.23,222.873c0-0.694-0.646-1.083-1.432-0.866c-0.789,0.215-1.431,0.992-1.431,1.728v7.178l2.86-0.506
		L227.23,222.873L227.23,222.873z"/>
	<path fill="#3E8488" d="M212.743,224.985c0-0.632-0.641-0.979-1.429-0.787c-0.793,0.196-1.431,0.899-1.431,1.57v7.872l2.857-0.455
		L212.743,224.985L212.743,224.985z"/>
	<path fill="#3E8488" d="M177.566,219.544c0-0.919-0.451-1.438-1.004-1.146c-0.559,0.282-1.004,1.312-1.004,2.29v11.472l2.009-0.661
		L177.566,219.544L177.566,219.544z"/>
	<path fill="#3E8488" d="M181.385,218.908c0-0.922-0.455-1.436-1.008-1.146c-0.555,0.286-1.008,1.309-1.008,2.288v11.474
		l2.016-0.662V218.908z"/>
	<path fill="#3E8488" d="M198.415,227.613c0-0.596-0.644-0.932-1.43-0.74c-0.794,0.185-1.432,0.85-1.432,1.48v7.466l2.859-0.43
		L198.415,227.613L198.415,227.613z"/>
	<polygon fill="#3E8488" points="222.59,170.103 214.427,163.508 206.676,169.078 201.417,163.274 194.795,169.77 189.671,164.531 
		183.864,169.295 183.23,168.521 189.746,163.179 194.81,168.354 201.459,161.833 206.815,167.745 214.459,162.251 223.219,169.323 
			"/>
	<path fill="#3E8488" d="M276.363,90.094c-5.131-2.798-15.192-0.149-15.295-0.123l-0.259-0.966
		c0.428-0.115,10.552-2.781,16.032,0.21L276.363,90.094z"/>
	<polygon fill="#3E8488" points="245.836,231.229 245.355,190.294 242.442,190.656 242.442,194.066 224.927,196.569 
		189.596,200.005 177.741,193.089 178.245,192.226 189.821,198.979 224.808,195.578 241.442,193.198 241.442,189.774 
		246.343,189.163 246.836,231.217 	"/>
	<path fill="#3E8488" d="M185.81,232.272l-0.989-0.146c0.016-0.1,1.452-9.854,1.459-24.699c-2.195-4.211-4.556-6.347-7.02-6.348
		c0,0-0.001,0-0.002,0c-3.99,0-7.186,5.587-7.608,6.363l-1.458,23.323l-0.998-0.062l1.519-23.633
		c0.147-0.283,3.667-6.994,8.547-6.994c2.89,0,5.567,2.354,7.966,6.994l0.056,0.108v0.122
		C187.28,222.3,185.825,232.175,185.81,232.272z"/>
	<path fill="none" stroke="#FFFFFF" stroke-miterlimit="10" d="M251.219,246.355"/>
	<path fill="#3E8488" d="M266.385,267.531l-5.887-4.812l-1.099-13.273l7.422-2.938l-1.461-122.188l1-0.012l1.462,122.345
		l3.296,3.769l-0.247,0.215l1.854,2.41l-1.021,9.162L266.385,267.531z M261.462,262.213l4.854,3.973l4.438-4.438l0.937-8.413
		l-4.529-5.891l-6.701,2.653L261.462,262.213z"/>
	<polygon fill="#3E8488" points="186.792,292.259 185.792,292.229 186.783,259.51 253.185,261.478 253.156,262.478 187.752,260.54 	
		"/>
	<polygon fill="#3E8488" points="183.862,288.351 182.862,288.327 183.826,246.894 156.547,248.807 156.478,247.81 184.852,245.818 
			"/>
	
		<rect x="210.207" y="211.956" transform="matrix(-0.0509 -0.9987 0.9987 -0.0509 -15.3536 459.5769)" fill="#3E8488" width="0.998" height="50.257"/>
	<rect x="236.561" y="220.482" fill="#3E8488" width="1" height="28.314"/>
	
		<rect x="252.138" y="283.692" transform="matrix(-0.0169 -0.9999 0.9999 -0.0169 -13.108 555.4937)" fill="#3E8488" width="28.81" height="0.999"/>
	<path fill="#54B4B9" d="M345.602,252.773l2.761,34.103l7.812,12.689l12.203,0.979l5.856,7.319l48.758-0.735
		c0,0-8.5-31.438-10.563-31.703c-2.068-0.269-3.486-9.659-4.73-13.749c-1.243-4.091-1.266-9.919-1.983-11.644
		c-0.724-1.725-1.271-10.928-1.271-10.928h-21.848l-10.02,9.22h-4.208l-7.59,3.22l-17.297,1.159"/>
	<polyline fill="#54B4B9" points="291.249,254.654 291.736,273.692 276.115,270.275 274.161,250.749 	"/>
	
		<rect x="213.864" y="181.038" transform="matrix(-0.1043 -0.9945 0.9945 -0.1043 33.4934 438.8663)" fill="#3E8488" width="1.002" height="46.627"/>
	
		<rect x="115.972" y="241.87" transform="matrix(-0.1875 -0.9823 0.9823 -0.1875 -132.4745 441.7571)" fill="#3E8488" width="1" height="67.599"/>
	<rect x="114.52" y="289.803" fill="#3E8488" width="1" height="13.18"/>
	<polygon fill="#3E8488" points="248.939,131.311 266.514,127.405 286.691,132.611 265.862,122.849 	"/>
	<polygon fill="#3E8488" points="251.542,168.412 266.1,164.772 267.165,164.506 286.04,170.363 266.514,167.76 	"/>
</g>
</svg>
