<?xml version="1.0" encoding="utf-8"?>
<!-- Generator: Adobe Illustrator 16.0.0, SVG Export Plug-In . SVG Version: 6.00 Build 0)  -->
<!DOCTYPE svg PUBLIC "-//W3C//DTD SVG 1.1//EN" "http://www.w3.org/Graphics/SVG/1.1/DTD/svg11.dtd">
<svg version="1.1" id="Calque_1" xmlns="http://www.w3.org/2000/svg" xmlns:xlink="http://www.w3.org/1999/xlink" x="0px" y="0px"
	 width="131px" height="316px" viewBox="30 15.5 131 316" enable-background="new 30 15.5 131 316" xml:space="preserve">
<g>
	<path fill="#465A64" d="M155.922,322.24v-10.73l1.443-1.446v-4.748h-6.189v-4.54h-3.717v-3.097l-2.893-2.479h-9.399
		c-0.039-0.688-0.212-2.215-1.022-1.234l-0.928,0.206l0.098-0.585l0.472-0.346l0.519-0.258l0.77-0.258l0.566-0.259l0.672-0.359
		l0.359-0.62l0.206-0.721l-0.104-0.568c-0.734-0.902-2.562-0.023-3.752,0.702l-0.324-0.646l-0.723-0.414
		c0,0,0.215-2.382-0.412-4.205c1.998-1.132,0.604-4.266-0.09-5.55l0.396-0.259l0.725-2.478h-6.297v-6.193
		c0,0-1.238,0.104-1.443-1.441v-5.473l1.135-2.375v-0.616h-7.846v-6.4l-0.519-1.032c0,0-1.647-0.721-1.753-1.755v-0.826
		l-0.617-0.618v-6.604c0,0,0.928-1.754,1.234-4.335l1.963-10.32v-0.825h-2.27l0.618-0.312l1.031-0.412l0.312-0.723v-0.932
		l-0.619-0.311l-0.312-1.135l-0.104-0.932l0.205-1.136v-1.136l0.31-1.135v-0.619l-0.41-0.826l-0.519-0.723l-0.311-0.621
		l-0.619-0.104h-0.824l-1.031,0.519l-0.932,0.518l-0.517,0.618l-0.312,0.517l-0.724,0.824c0,0,0-2.062-2.479-3.816v-25.599
		l0.824-0.311v-0.932c0,0-0.205-0.724-0.205-1.028c0-0.312-0.104-1.24-0.104-1.24l0.309-0.619l0.828-0.312l1.137-0.518l0.619-0.516
		l0.41-0.62l-0.105-0.928V183l-0.206-0.621l-0.617-0.721v-1.138l-0.206-0.619v-0.929v-0.826l-0.206-0.826l-0.206-0.823l-0.104-1.031
		l0.414-0.722l-0.104-1.139l-0.413-0.723l-0.412,0.104l-0.619-0.312l0.104-0.928l0.723-0.413l0.518-0.826l-0.205-1.03l-0.312-0.519
		l-0.516-0.932l-0.413-0.722l-0.724-0.104l-0.414-0.104l-2.166-63.271c0,0,0.724-0.104,1.236-1.552c0,0,1.756,0.826,2.891-1.754
		l0.727-0.723l0.205-0.619l-0.104-1.031l-0.414-0.725l1.855-0.723l-1.855-2.479l-0.104-3.2L111.428,90l-0.207-1.138l-0.104-1.029
		v-0.619c0,0,2.062-1.857,0.518-4.438c-1.546-2.581-0.105-0.206-0.105-0.206l2.271-2.062l-1.652-1.237c0,0-3.199,1.442-9.186,2.062
		c0,0,4.688-6.6-2.818-8.566c0.828-0.711,1.354-1.764,1.354-2.938c0-0.185-0.015-0.357-0.036-0.531l0.586-0.049l0.243-0.123
		l-0.187-0.551l-0.183-0.793c0,0,0.062-0.671,0.122-0.854c0.061-0.185,0.551,0.061,0.551,0.061l0.607,0.123l0.73,0.062
		c0,0,0.487-0.309,0.67-0.309c0.184,0,0.608-0.307,0.608-0.307c2.075-0.364,3.541-1.157,3.541-1.157l0.244-0.854v-0.854l-0.61-1.158
		l0.61-0.062l0.729-0.914c0.73-2.99-3.172-5.92-3.172-5.92l-0.551-1.709c2.191-1.647-2.137-4.697-2.137-4.697
		c0.854-1.465,0.24-3.661,0.24-3.661h0.611c3.477,0,5.855-2.015,5.855-2.015l0.186-0.67l0.428-0.672l0.184-0.548l0.43-0.673
		l0.244-0.429l0.426-0.429v-0.426l0.731-0.431l-0.365-0.426c1.28-0.429,2.438-1.831,2.438-1.831
		c-1.221,0.487-1.893,0.308-1.893,0.308c2.014-0.553,2.562-1.896,2.562-1.896l-1.344,0.243c1.83-1.098,2.074-2.929,2.074-2.929
		l-0.916,0.551c1.344-2.015,1.1-4.149,1.1-4.149h-0.244c0.916-1.892,0.123-3.109,0.123-3.109c-0.307,1.465-1.402,3.294-1.402,3.294
		c0.916-2.016,0.244-3.479,0.244-3.479c-0.122,2.44-1.895,3.968-1.895,3.968c0.672-1.036,0.854-2.438,0.854-2.438l0.122-0.55v-0.549
		l-0.185-0.245l-0.121,0.486c-1.344,4.147-4.639,5.918-4.639,5.918c-1.71,1.102-3.355,2.623-3.355,2.623
		c-0.916,0.609-2.379,2.197-2.379,2.197l-0.307-0.185l-0.486-0.429c0.186-3.296-0.246-5.062-0.246-5.062l-0.062-0.854l-0.243-0.793
		l-0.184-0.793l-0.188-0.551l-0.185-0.67l0.122-0.245l0.365,0.245l0.365,0.122l0.487-0.122l-0.241-0.549l0.549,0.123l0.123-0.429
		h-0.553l-0.55-0.062l-0.55-0.244h-0.364l-0.306-0.184l-0.309,0.062l-0.428-0.122h-0.427l-0.245-0.486l-0.427,0.243l-0.245,0.486
		l-0.365,0.244l-0.307,0.245l-0.729,0.244l-0.43,0.061l-0.549,0.243l-0.244,0.366v0.488l0.305,0.307l0.672-0.062l0.609-0.242
		l0.307-0.429l0.428-0.185l0.429-0.122l0.244,0.306l0.366,0.488l0.305,0.365l0.185,0.607c0.123,1.16,0.307,3.971,0.307,3.971
		c0.186,2.135-0.73,2.257-0.73,2.257l-0.186-0.428v-0.487l-0.426-0.309l-0.609-0.362l-0.43-0.307l-0.428,0.062l-0.607,0.185
		l-0.795-0.243l0.062,0.429l-0.609-0.186l-0.367,0.488l0.488,0.184l-0.488,0.243l-0.363,0.487l-0.123,0.488l-0.242,0.486v0.731
		l-0.244,0.366L95.083,38l0.183,0.243v0.365l0.121,0.486l0.123,0.367l0.364,0.061l0.431,0.243l-0.552,0.244l-0.366,0.062
		l-0.427,0.185l-0.487,0.122h-0.488l-0.305,0.185l-0.367,0.366l-0.426,0.427l-0.732-0.306h-0.428l-0.428-0.062l-0.55-0.427
		c-0.429-0.607-1.707-1.893-1.707-1.893l0.429-0.121l-0.309-0.611l-0.184-0.487l-0.184-0.486l0.062-0.73l0.062-0.428l-0.185-0.732
		c-0.428-0.485,0.67-1.157,0.67-1.157l-0.547,0.184c0-0.548,0.854-1.523,0.854-1.523l-0.609,0.244
		c0.121-0.917,0.854-1.586,0.854-1.586l-0.184-0.366l0.184-0.55l0.43-0.729l-0.244-0.367l-0.244-0.243V28.18l-0.609,0.244
		l-0.549-0.854v0.671l0.062,0.428l-0.188,0.367c0.431,1.036-0.73,2.257-0.73,2.257v0.487l-0.062,0.43l-0.242,0.123H87.09
		l-0.551-0.366l-0.184,0.67l-0.672,0.062l0.305,0.428l-0.119,0.429l-0.307,0.123l0.307,0.365l0.307,0.427l0.305,0.364l0.307,0.487
		v0.307v0.364v0.488l0.062,0.671l0.062,0.487l0.306,0.793c0.366,1.16,1.1,2.747,1.1,2.747l0.551,0.915
		c0.609,1.1,2.072,1.525,2.072,1.525l0.062,0.487l0.244,0.549l0.187,0.552c-0.611,0.363-0.672,1.646-0.672,1.646
		c-0.55,3.298,0.604,3.604,0.604,3.604l0.552,0.487l0.185,0.671c0.062,2.26,1.402,3.479,1.402,3.479
		c0.674,1.585,2.503,2.867,2.503,2.867c0,0.854,0.308,2.259,0.308,2.259c0.365,1.159,0.486,2.562,0.486,2.562v0.731l-0.365,0.854
		l-0.185,0.487v0.489l-0.308,0.487l-0.487,0.306l-0.485,0.426l-0.308,0.308l-0.243,0.552l0.036,0.18
		c-0.444,0.63-0.709,1.398-0.709,2.23c0,1.146,0.504,2.179,1.301,2.889c-7.801,1.901-3.026,8.619-3.026,8.619
		c-5.985-0.619-9.187-2.062-9.187-2.062l-1.649,1.237l2.271,2.062c0,0,1.444-2.375-0.104,0.206
		c-1.547,2.581,0.516,4.438,0.516,4.438v0.619l-0.102,1.031l-0.207,1.136l0.412,1.031l-0.104,3.198l-1.854,2.479l1.854,0.724
		l-0.403,0.73l-0.104,1.028l0.207,0.62l0.724,0.725c1.136,2.581,2.892,1.754,2.892,1.754c0.516,1.442,1.236,1.549,1.236,1.549
		l-2.167,63.271l-0.413,0.104l-0.723,0.104l-0.412,0.725l-0.518,0.929l-0.312,0.521l-0.206,1.028l0.519,0.826l0.723,0.413
		l0.104,0.928l-0.615,0.312l-0.414-0.104l-0.412,0.726l-0.104,1.136l0.409,0.722l-0.103,1.031l-0.207,0.826l-0.207,0.826v0.824
		v0.931l-0.205,0.618v1.136l-0.619,0.721l-0.206,0.621v1.033l-0.104,0.928l0.412,0.62l0.621,0.516l1.137,0.521l0.822,0.31
		l0.312,0.619c0,0-0.104,0.931-0.104,1.24c0,0.309-0.207,1.031-0.207,1.031v0.929l0.824,0.312v25.601
		c-2.477,1.754-2.477,3.813-2.477,3.813l-0.723-0.822l-0.312-0.519l-0.516-0.618l-0.931-0.518l-1.032-0.517h-0.824l-0.621,0.103
		l-0.31,0.621l-0.52,0.723l-0.412,0.826v0.619l0.311,1.135v1.137l0.207,1.138l-0.105,0.929l-0.311,1.135l-0.619,0.312v0.929
		l0.311,0.724l1.033,0.411l0.617,0.312H76.54v0.825l1.962,10.318c0.311,2.581,1.236,4.335,1.236,4.335v6.605l-0.617,0.619v0.824
		c-0.104,1.033-1.756,1.756-1.756,1.756l-0.518,1.03v6.4h-7.846v0.619l1.137,2.375v5.47c-0.205,1.548-1.443,1.444-1.443,1.444v6.19
		h-6.297l0.723,2.479l1.443,0.93v3.2c-1.959,1.34-1.547,5.882-1.547,5.882l-0.725,0.414l-0.412,0.824l-0.52,1.239l-0.205,0.724
		l0.521,0.517l0.104,0.617l-0.932-0.206c-0.812-0.979-0.982,0.551-1.021,1.238h-8.574l-2.892,2.479v3.099h-3.715v4.54h-6.193v4.747
		l1.445,1.444v10.733l-2.479,1.235v6.812h45.007h30.963h45.004v-6.816L155.922,322.24z"/>
	<g>
		<path fill="#67747D" d="M97.068,169.887c-3.981,0-7.463-0.485-7.703-0.521l0.144-0.987c0.1,0.014,9.869,1.378,15.353-0.451
			l0.316,0.948C102.839,169.653,99.833,169.887,97.068,169.887z"/>
		<path fill="#67747D" d="M97.488,91.426c-6.027,0-11.311-0.438-11.398-0.441l0.084-0.996c0.146,0.015,14.754,1.217,23-0.403
			l0.191,0.979C105.982,91.227,101.564,91.426,97.488,91.426z"/>
		<path fill="#67747D" d="M97.068,96.929c-3.981,0-7.463-0.485-7.703-0.521l0.144-0.987c0.1,0.015,9.869,1.378,15.353-0.451
			l0.316,0.948C102.839,96.695,99.833,96.929,97.068,96.929z"/>
		<path fill="#67747D" d="M97.979,102.596c-4.934,0-9.246-0.484-9.545-0.52l0.113-0.993c0.123,0.015,12.311,1.385,19.174-0.458
			l0.26,0.966C105.098,102.364,101.389,102.596,97.979,102.596z"/>
		<path fill="#67747D" d="M98.464,177.915c-4.577,0-8.573-0.485-8.854-0.521l0.123-0.991c0.113,0.017,11.396,1.385,17.744-0.457
			l0.277,0.961C105.076,177.682,101.632,177.915,98.464,177.915z"/>
		<path fill="#67747D" d="M96.342,192.318c-4.578,0-8.576-0.482-8.855-0.521l0.123-0.992c0.111,0.015,11.396,1.383,17.744-0.457
			l0.276,0.961C102.951,192.085,99.508,192.318,96.342,192.318z"/>
		<path fill="#67747D" d="M96.502,229.611c-7.254,0-13.609-0.497-13.719-0.506l0.08-0.996c0.179,0.018,17.779,1.393,27.729-0.467
			l0.186,0.983C106.713,229.384,101.402,229.611,96.502,229.611z"/>
		<path fill="#67747D" d="M97.447,235.75c-7.254,0-13.61-0.497-13.719-0.505l0.08-0.997c0.176,0.015,17.779,1.39,27.729-0.468
			l0.186,0.982C107.656,235.522,102.348,235.75,97.447,235.75z"/>
		<path fill="#67747D" d="M97.921,252.75c-7.253,0-13.612-0.497-13.72-0.505l0.08-0.997c0.178,0.015,17.78,1.391,27.729-0.468
			l0.184,0.982C108.13,252.522,102.82,252.75,97.921,252.75z"/>
		<path fill="#67747D" d="M97.613,262.667c-9.332,0-17.518-0.497-17.651-0.505l0.062-0.998c0.229,0.014,22.938,1.392,35.787-0.472
			l0.145,0.989C110.732,262.439,103.912,262.667,97.613,262.667z"/>
		<path fill="#67747D" d="M97.744,278.25c-12.391,0-23.264-0.497-23.441-0.505l0.047-0.999c0.305,0.015,30.513,1.394,47.617-0.474
			l0.105,0.994C115.15,278.023,106.102,278.25,97.744,278.25z"/>
	</g>
</g>
</svg>
