<svg xmlns="http://www.w3.org/2000/svg" width="17.742" height="18.245" viewBox="0 0 17.742 18.245"><defs><style>.a{fill:#fff;}</style></defs><g transform="translate(-964 -9138)"><g transform="translate(964 9138)"><g transform="translate(0)"><path class="a" d="M21.715,8.343h0v-4.6a2,2,0,0,0-1.989-2h-.248V1.432a1.413,1.413,0,0,0-2.826,0v.312H11.472V1.432a1.432,1.432,0,0,0-2.865,0v.312H8.393a2,2,0,0,0-1.984,2V14.307a2,2,0,0,0,1.984,2h6.224a5.392,5.392,0,1,0,7.1-7.962Zm-4.278-6.91A.619.619,0,0,1,18.045.8h.016a.625.625,0,0,1,.631.618s0,.008,0,.012V2.961H17.437Zm-8.046,0A.637.637,0,0,1,10.035.8h0a.641.641,0,0,1,.65.63V2.961h-1.3Zm-2.2,2.309a1.212,1.212,0,0,1,1.2-1.212h.214V3.37a.383.383,0,0,0,.4.376H11.07a.387.387,0,0,0,.4-.376V2.529h5.181V3.37a.366.366,0,0,0,.355.376h2.087a.372.372,0,0,0,.384-.359c0-.006,0-.011,0-.017V2.529h.248a1.217,1.217,0,0,1,1.2,1.212V5H7.194Zm1.2,11.779a1.212,1.212,0,0,1-1.2-1.212V5.787H20.93V7.916a5.4,5.4,0,0,0-6.857,7.6ZM18.76,17.453a4.6,4.6,0,1,1,4.6-4.6h0A4.608,4.608,0,0,1,18.76,17.453Z" transform="translate(-6.409)"/></g><g transform="translate(11.695 10.097)"><path class="a" d="M306.913,260.032h-1.719V257.67a.392.392,0,0,0-.785,0v2.754a.4.4,0,0,0,.4.393h2.1a.392.392,0,0,0,0-.785Z" transform="translate(-304.409 -257.278)"/></g></g></g></svg>