<?xml version="1.0" encoding="utf-8"?>
<!-- Generator: Adobe Illustrator 16.0.0, SVG Export Plug-In . SVG Version: 6.00 Build 0)  -->
<!DOCTYPE svg PUBLIC "-//W3C//DTD SVG 1.1//EN" "http://www.w3.org/Graphics/SVG/1.1/DTD/svg11.dtd">
<svg version="1.1" id="OBJECTS" xmlns="http://www.w3.org/2000/svg" xmlns:xlink="http://www.w3.org/1999/xlink" x="0px" y="0px"
	 width="641.333px" height="500px" viewBox="0 0 641.333 500" enable-background="new 0 0 641.333 500" xml:space="preserve">
<path fill="none" stroke="#7B8BD0" stroke-miterlimit="10" d="M234.374,184.723c-42.812,23.104-83.927,47.655-128.731,68.692
	c-10.907,4.313-22.615,1.979-32.586-2.871c-13.098-7.094-21.277-20.776-23.146-36.293c-1.069-8.865,0.429-16.756,3.077-25.269
	c2.914-6.293,6.684-12.264,12.164-17.582c1.444-1.565,2.888-3.133,5.187-4.373c65.818-36.312,128.186-70.764,193.095-104.358"/>
<linearGradient id="SVGID_1_" gradientUnits="userSpaceOnUse" x1="-1396.5664" y1="221.3232" x2="-1289.7363" y2="221.3233" gradientTransform="matrix(-0.9513 -0.3082 0.3082 -0.9513 -1248.7441 152.2509)">
	<stop  offset="0" style="stop-color:#EFC32E"/>
	<stop  offset="1" style="stop-color:#E8A327"/>
</linearGradient>
<line opacity="0.6" fill="none" stroke="url(#SVGID_1_)" stroke-width="10" stroke-linecap="round" stroke-linejoin="round" stroke-miterlimit="10" enable-background="new    " x1="159.489" y1="320.506" x2="34.925" y2="390.822"/>
<path fill="none" stroke="#7B8BD0" stroke-miterlimit="10" d="M472.289,326.302l117.604-52.745c3.428-1.537,5.078-5.854,3.687-9.644
	l0,0c-1.39-3.789-5.295-5.614-8.722-4.077l-119.227,53.475"/>
<path fill="#A475E7" d="M287.995,477.767l309.367-138.748c9.014-4.046,13.36-15.401,9.7-25.367l0,0
	c-3.656-9.966-13.933-14.77-22.948-10.728L270.476,443.591"/>
<g>
	<path fill="#EDCE5B" d="M555.779,478.24h-436.01c-28.614-16.673-46.596-54.364-52.803-89.456
		c-6.208-35.092,2.682-73.079,23.505-100.44c10.093-13.262,23.126-24.73,28.19-41.135c5.406-17.515,0.435-36.886-6.766-53.593
		c-7.2-16.708-16.686-32.434-20.965-50.326c-8.716-36.443,6.966-76.942,34.125-99.735c27.159-22.792,63.729-29.147,97.292-22.492
		c33.561,6.656,64.391,25.26,91.512,48.108c20.136,16.965,38.563,36.371,59.312,52.408c20.747,16.038,44.517,28.82,69.808,30.109
		c29.285,1.494,59.188-12.389,87.35-3.372c17.047,5.457,31.685,19.479,38.995,37.356c7.312,17.877,7.169,39.288-0.385,57.043
		c-10.784,25.351-36.059,45.634-33.494,73.504c1.915,20.838,18.929,35.295,29.358,52.779
		C583.7,400.678,580.611,452.039,555.779,478.24z"/>
	<path fill="#EDCE5B" d="M479.255,122.443c17.765-3.456,36.216-13.735,42.567-32.398c6.483-19.056-2.133-41.286-16.229-54.383
		C491.497,22.563,473.051,16.841,455,12.81c-17.776-3.971-36.597-6.575-53.751-0.067c-21.077,7.996-41.731,37.728-27.526,61.147
		c14.23,23.461,38.599,40.025,63.108,46.715C450.669,124.381,465.201,125.176,479.255,122.443z"/>
</g>
<g>
	<path fill="#6D59D5" d="M629.53,478.717L629.53,478.717c0-1.081-0.878-1.958-1.96-1.958H17.896c-1.082,0-1.958,0.877-1.958,1.958
		l0,0c0,1.082,0.876,1.958,1.958,1.958h79.553c1.081,0,1.958,0.877,1.958,1.958l0,0c0,1.08-0.877,1.96-1.958,1.96H78.921
		c-1.082,0-1.958,0.875-1.958,1.958l0,0c0,1.082,0.877,1.958,1.958,1.958h509.428c1.082,0,1.958-0.876,1.958-1.958l0,0
		c0-1.083-0.876-1.958-1.958-1.958H569.73c-1.08,0-1.956-0.88-1.956-1.96l0,0c0-1.081,0.876-1.958,1.956-1.958h57.84
		C628.652,480.675,629.53,479.799,629.53,478.717z"/>
	<path fill="#6D59D5" d="M61.857,488.509h-30.62c-1.081,0-1.957-0.876-1.957-1.958l0,0c0-1.083,0.876-1.958,1.957-1.958h30.62
		c1.082,0,1.958,0.875,1.958,1.958l0,0C63.815,487.633,62.939,488.509,61.857,488.509z"/>
	<path fill="#6D59D5" d="M614.925,488.509h-7.371c-1.082,0-1.958-0.876-1.958-1.958l0,0c0-1.083,0.876-1.958,1.958-1.958h7.371
		c1.081,0,1.959,0.875,1.959,1.958l0,0C616.884,487.633,616.006,488.509,614.925,488.509z"/>
</g>
</svg>
