<svg id="Calque_1" data-name="Calque 1" xmlns="http://www.w3.org/2000/svg" viewBox="0 0 175.49 155.35"><defs><style>.cls-1{fill:#385a65;}.cls-2{fill:#00a6a0;}.cls-3,.cls-6,.cls-7{fill:none;}.cls-3{stroke:#00a6a0;stroke-linejoin:round;}.cls-3,.cls-7{stroke-linecap:round;stroke-width:1.04px;}.cls-4{opacity:0.2;}.cls-5{fill:#fff;}.cls-7{stroke:#fff;stroke-miterlimit:10;}.cls-8{fill:#efeff0;}.cls-9{fill:#e0e0df;}.cls-10{fill:#e6e6e6;}.cls-11{fill:#fafafa;}.cls-12{opacity:0.15;}.cls-13{opacity:0.3;}.cls-14{opacity:0.05;}.cls-15{fill:#2b454e;}.cls-16{opacity:0.65;}</style></defs><title>initial-5</title><path class="cls-1" d="M48.78,119.22a58.47,58.47,0,0,1-14.06-15.81,8.21,8.21,0,0,1,2.4-4.19,9,9,0,0,0,1.59-2.13,2.53,2.53,0,0,0-.69-3c-.42-.33-1.58-.92-3.22.5s-1.9,4.09-1.48,6.28a42.7,42.7,0,0,1-2.67-6.53,8.21,8.21,0,0,1,2.94-3.93,9.46,9.46,0,0,0,1.84-1.91,2.55,2.55,0,0,0-.31-3.1c-.38-.37-1.45-1.1-3.26.1a6,6,0,0,0-2.26,4.77,39.56,39.56,0,0,1-.75-9A8.32,8.32,0,0,1,33,78.68a8.7,8.7,0,0,0,2.4-1.13,2.52,2.52,0,0,0,.83-3c-.22-.48-1-1.56-3.08-1.08-1.92.44-3.24,2.18-4,4a45.75,45.75,0,0,1,2.29-9.56A.22.22,0,1,0,31,67.8a47,47,0,0,0-2.33,9.76c-.53-3.59-2.23-6.1-3.9-6.85a2,2,0,0,0-2.22.24,2.35,2.35,0,0,0-.88,2.13,3.83,3.83,0,0,0,2.1,2.74c1.78.93,4.48,2.74,4.64,4h0s0,0,0,0v0s0,0,0,0,0,.12,0,.18a6.23,6.23,0,0,0-.06,1.11,39.5,39.5,0,0,0,.53,8.07c-1.54-2.86-3.68-4.53-5.37-4.75a2,2,0,0,0-2.06.87,2.4,2.4,0,0,0-.23,2.29,3.87,3.87,0,0,0,2.81,2c1.79.34,4.52,1.16,5.38,2.16a40.94,40.94,0,0,0,1.95,6.05c.4,1,.85,2,1.34,2.95-2.4-2.52-5.11-3.59-6.86-3.29A2,2,0,0,0,24.18,99a2.38,2.38,0,0,0,.45,2.25,3.9,3.9,0,0,0,3.28,1.11c1.95-.23,5.1-.23,6,.65a57.29,57.29,0,0,0,14.61,16.55.21.21,0,0,0,.11,0,.2.2,0,0,0,.19-.08.21.21,0,0,0,0-.31M32.11,85.84a2.85,2.85,0,0,1,1.76-.58,1.46,1.46,0,0,1,1,.43,2.09,2.09,0,0,1,.24,2.54,8.86,8.86,0,0,1-1.76,1.82,9.52,9.52,0,0,0-2.76,3.32,8.61,8.61,0,0,1,2.87-6.13.21.21,0,0,0,0-.31.21.21,0,0,0-.3,0,9.25,9.25,0,0,0-3,5.6c-.35-2.15-.17-5.23,1.95-6.65m1.12-11.93a3.4,3.4,0,0,1,1.11-.1,1.63,1.63,0,0,1,1.47.93,2.08,2.08,0,0,1-.68,2.46,9,9,0,0,1-2.3,1.07,9.48,9.48,0,0,0-3.77,2.1,8.63,8.63,0,0,1,4.88-4.69.21.21,0,1,0-.12-.41A9.26,9.26,0,0,0,29,79.42c.45-2.14,1.72-5,4.21-5.51M24,75.43A3.41,3.41,0,0,1,22.12,73a1.92,1.92,0,0,1,.74-1.74,1.44,1.44,0,0,1,1.07-.36,2.07,2.07,0,0,1,.68.19c1.53.69,3.16,3.15,3.66,6.62a14.22,14.22,0,0,0-4.09-5.45.22.22,0,0,0-.3.07.21.21,0,0,0,.06.3A13.49,13.49,0,0,1,28,78.28a17.57,17.57,0,0,0-4-2.85M21.67,87.49a1.92,1.92,0,0,1,.2-1.88,1.52,1.52,0,0,1,1.5-.68h.13c1.67.22,3.94,2.1,5.42,5.28a14.09,14.09,0,0,0-5.49-4,.22.22,0,0,0-.28.15.23.23,0,0,0,.16.27,13.52,13.52,0,0,1,5.52,4.21,17.78,17.78,0,0,0-4.67-1.56,3.42,3.42,0,0,1-2.49-1.77m13.42,7.4A2.7,2.7,0,0,1,37,94.1a1.48,1.48,0,0,1,.79.3,2.11,2.11,0,0,1,.56,2.5,9.07,9.07,0,0,1-1.52,2,9.56,9.56,0,0,0-2.32,3.65,8.61,8.61,0,0,1,2.08-6.45.21.21,0,0,0,0-.31.23.23,0,0,0-.31,0A9.28,9.28,0,0,0,34,101.75c-.61-2.1-.83-5.18,1.1-6.86m-7.23,7a3.44,3.44,0,0,1-2.9-1,1.94,1.94,0,0,1-.36-1.85A1.57,1.57,0,0,1,26,98a3.29,3.29,0,0,1,.84,0,9.85,9.85,0,0,1,5.89,3.49,14,14,0,0,0-6.43-2.24.22.22,0,0,0-.22.23.23.23,0,0,0,.23.21,13.56,13.56,0,0,1,6.51,2.4,17.61,17.61,0,0,0-4.92-.12"/><path class="cls-2" d="M37.11,67.56a11.24,11.24,0,0,1-4.79-.7,9.86,9.86,0,0,1-4.89-6.63,2.39,2.39,0,0,1,.05-1.45,1,1,0,0,1,1.18-.64,1.57,1.57,0,0,1,.76.82l1.64,3a7.34,7.34,0,0,1-.2-3.75c.09-.46.33-1,.79-1s.87.6,1,1.13a13.27,13.27,0,0,1,.25,4.26,14.38,14.38,0,0,1,3-3.45,1,1,0,0,1,.84-.32c.52.14.49.88.31,1.38a9.46,9.46,0,0,1-1.91,3.1,10.9,10.9,0,0,1,4.54-1.82.94.94,0,0,1,.74.1c.41.31.13,1-.22,1.33a9,9,0,0,1-3.36,2.23c.88-.1,3.47.07,3.67.77s-1.55,1.55-3.4,1.69"/><path class="cls-2" d="M46.52,97.08c1.57,0,5.7.64,10,6.52,7.52,10.29,4.78,24.34,4.37,26.2L58.28,131c.13-5.55-.61-9-2.53-11.82A50.88,50.88,0,0,0,48,110.72c-1.24-1.15-2.31-2.14-3.08-3-3.52-4-4.08-7-1.69-9.41a4.66,4.66,0,0,1,3.33-1.23m0-.43A5.08,5.08,0,0,0,42.88,98Q39,101.8,44.56,108c2.31,2.61,7.46,6.44,10.82,11.39,2.08,3,2.63,6.88,2.44,12.26l3.45-1.55s3.85-15.48-4.4-26.77c-3.5-4.79-7.38-6.69-10.35-6.69"/><path class="cls-3" d="M44,98.76c1.51.95,16.06,11.59,16.27,26.67"/><line class="cls-3" x1="47.93" y1="98.17" x2="47.27" y2="101.29"/><line class="cls-3" x1="44.3" y1="103.57" x2="48.36" y2="102.43"/><line class="cls-3" x1="51.65" y1="100.31" x2="50.51" y2="104.36"/><line class="cls-3" x1="46.46" y1="107.33" x2="51.64" y2="105.78"/><line class="cls-3" x1="55.07" y1="103.26" x2="53.42" y2="107.69"/><line class="cls-3" x1="49.11" y1="109.63" x2="53.83" y2="108.49"/><line class="cls-3" x1="57.63" y1="107.08" x2="55.7" y2="110.59"/><line class="cls-3" x1="52.16" y1="112.29" x2="56.04" y2="111.89"/><line class="cls-3" x1="59.25" y1="110.74" x2="57.31" y2="113.76"/><line class="cls-3" x1="55.17" y1="115.43" x2="57.96" y2="115.48"/><line class="cls-3" x1="60.59" y1="115.31" x2="58.92" y2="117.58"/><line class="cls-3" x1="57.31" y1="119.4" x2="59.42" y2="119.55"/><path class="cls-2" d="M62.81,146.07a18.84,18.84,0,0,1-13.62,3.59,15.44,15.44,0,0,1-4.35-1.2c-6.5-2.9-4.7-4.9-3.72-5.7s3.62-2.89,4.2-4.63a26.53,26.53,0,0,1-4.88,2.44c-2.48.89-2.92,2.14-5.64-.82s-4-8.33-4-8.33,4.26.17,6.22-1.69c0,0-4.36-.26-5.89-1.09s-1.55-2.4-2.19-5-1.68-5.59-.3-6.07,5.1-1.61,10.69,0c0,0,2.77,4.15,3,7.23a15.15,15.15,0,0,0-1.09-8.36,14.7,14.7,0,0,1,5.58.64c3.06,1,5.11,2,5.79,3s2,5.84,1,10.06a9.46,9.46,0,0,0,1.87-6.38c-.45-3.46.57-2.81,2-2.29,1.31.47,8.69,8.64,8.21,19.22a7,7,0,0,1-2.89,5.35"/><g class="cls-4"><path class="cls-5" d="M62.81,146.07a18.84,18.84,0,0,1-13.62,3.59,15.44,15.44,0,0,1-4.35-1.2c-6.5-2.9-4.7-4.9-3.72-5.7s3.62-2.89,4.2-4.63a26.53,26.53,0,0,1-4.88,2.44c-2.48.89-2.92,2.14-5.64-.82s-4-8.33-4-8.33,4.26.17,6.22-1.69c0,0-4.36-.26-5.89-1.09s-1.55-2.4-2.19-5-1.68-5.59-.3-6.07,5.1-1.61,10.69,0c0,0,2.77,4.15,3,7.23a15.15,15.15,0,0,0-1.09-8.36,14.7,14.7,0,0,1,5.58.64c3.06,1,5.11,2,5.79,3s2,5.84,1,10.06a9.46,9.46,0,0,0,1.87-6.38c-.45-3.46.57-2.81,2-2.29,1.31.47,8.69,8.64,8.21,19.22a7,7,0,0,1-2.89,5.35"/><rect class="cls-6" x="27.95" y="116.4" width="37.78" height="33.42"/></g><path class="cls-7" d="M29.23,118.56s14.6,5.38,31.43,27"/><path class="cls-7" d="M34.91,136.17s6.9-2.12,11.67-5.75"/><path class="cls-7" d="M45.72,145.15a40.77,40.77,0,0,0,9.8-5.68"/><path class="cls-7" d="M30.87,123.51s4.23,1.2,7.15.23"/><path class="cls-7" d="M48.12,119.3a18.87,18.87,0,0,1,1,13.46"/><path class="cls-7" d="M59,128.36a17.54,17.54,0,0,1-1.62,12.77"/><path class="cls-8" d="M175.25,77.23c.84-1.27-.65-2.63-2-2.21a3.15,3.15,0,0,0-1.73,1.46,3,3,0,0,0-.23-2.44c-.86-1.46-2.78-.71-3.18.6a3.47,3.47,0,0,0,.24,2.47,2.42,2.42,0,0,0-2,.17,2.21,2.21,0,0,0-1.1,2.61c.28.77,2.62,1.39,3.71,0,0,0-1.4,2.13.38,3.09s2.36-.73,2.11-3.09c0,0,1,1.87,2.48,1.53s1.43-1.53.52-2.55a5,5,0,0,0-1.86-.71,2.77,2.77,0,0,0,2.65-.93"/><path class="cls-9" d="M169.91,77.62a1.94,1.94,0,0,0-1-.64v-.06a2.09,2.09,0,0,1,1,.66Z"/><path class="cls-10" d="M168.79,77a.16.16,0,0,1,.16-.15.15.15,0,0,1,.15.15.15.15,0,0,1-.15.15.15.15,0,0,1-.16-.15"/><path class="cls-9" d="M168.63,78.59l0,0a2,2,0,0,1,1.13-.4v.06a2.11,2.11,0,0,0-1.11.38"/><path class="cls-10" d="M168.52,78.69a.15.15,0,1,1,.22,0,.16.16,0,0,1-.22,0"/><path class="cls-9" d="M169.45,79.39h0a2,2,0,0,1,.53-1.08l0,0a2.06,2.06,0,0,0-.52,1"/><path class="cls-10" d="M169.44,79.53a.16.16,0,0,1-.17-.13.15.15,0,0,1,.14-.17.16.16,0,0,1,.17.13.15.15,0,0,1-.14.17"/><path class="cls-9" d="M170.3,77.66a2.12,2.12,0,0,1-.18-1.19h.06a2.05,2.05,0,0,0,.17,1.16Z"/><path class="cls-10" d="M170.22,76.34a.15.15,0,0,0-.2.07.14.14,0,0,0,.07.2.15.15,0,0,0,.2-.07.16.16,0,0,0-.07-.2"/><path class="cls-11" d="M170.44,78s.09-1-.73-.86c-.48.72.73,1,.73,1Z"/><path class="cls-11" d="M170.35,78s-.84-.58-1.1.2c.37.77,1.19-.15,1.19-.15Z"/><path class="cls-11" d="M170.35,78.12s-.92.43-.38,1c.86.06.47-1.11.47-1.11Z"/><path class="cls-8" d="M162.44,47.3c.84-1.27-.65-2.63-2-2.21a3.15,3.15,0,0,0-1.73,1.46,3,3,0,0,0-.23-2.45c-.86-1.45-2.78-.7-3.18.61a3.41,3.41,0,0,0,.25,2.46,2.47,2.47,0,0,0-2,.18,2.22,2.22,0,0,0-1.1,2.61c.29.77,2.62,1.39,3.72,0,0,0-1.41,2.13.38,3.1s2.35-.74,2.1-3.1c0,0,1,1.87,2.49,1.53s1.42-1.53.52-2.55a5,5,0,0,0-1.86-.71,2.75,2.75,0,0,0,2.64-.93"/><path class="cls-9" d="M157.1,47.69a1.94,1.94,0,0,0-1-.64l0,0a2,2,0,0,1,1,.66Z"/><path class="cls-10" d="M156,47a.15.15,0,0,1,.15-.15.15.15,0,0,1,.15.15.15.15,0,0,1-.15.15A.14.14,0,0,1,156,47"/><path class="cls-9" d="M155.82,48.66l0,0a2,2,0,0,1,1.13-.4v.06a2.11,2.11,0,0,0-1.11.38"/><path class="cls-10" d="M155.71,48.76a.16.16,0,0,1,0-.21.15.15,0,1,1,.24.18.16.16,0,0,1-.22,0"/><path class="cls-9" d="M156.65,49.45h-.06a2,2,0,0,1,.54-1.08l0,0a2,2,0,0,0-.52,1"/><path class="cls-10" d="M156.64,49.6a.15.15,0,1,1,0-.3.16.16,0,0,1,.17.13.15.15,0,0,1-.13.17"/><path class="cls-9" d="M157.87,49.82a2,2,0,0,1-.15-1.19h.06a2.05,2.05,0,0,0,.14,1.16Z"/><path class="cls-10" d="M158,49.93a.16.16,0,0,1-.21,0,.16.16,0,0,1,0-.22.16.16,0,1,1,.2.24"/><path class="cls-9" d="M159.22,48.81a2.09,2.09,0,0,1-1.11-.45l0,0a2,2,0,0,0,1.08.44Z"/><path class="cls-10" d="M159.37,48.76a.14.14,0,0,1-.12.17.15.15,0,0,1-.18-.11.15.15,0,0,1,.12-.18.14.14,0,0,1,.18.12"/><path class="cls-9" d="M158.36,47.75l0,0a2,2,0,0,0,.8-.85l.05,0a2.13,2.13,0,0,1-.82.88"/><path class="cls-10" d="M159.18,46.72a.14.14,0,0,1,.12.17.15.15,0,0,1-.18.12.14.14,0,0,1-.12-.17.15.15,0,0,1,.18-.12"/><path class="cls-9" d="M158,47.07l-.05,0a2,2,0,0,0,.17-1.15h.06a2.11,2.11,0,0,1-.18,1.19"/><path class="cls-10" d="M158.06,45.75a.14.14,0,0,1,.2.07.15.15,0,0,1-.08.2A.15.15,0,0,1,158,46a.15.15,0,0,1,.08-.2"/><path class="cls-9" d="M157.49,47.73a2.12,2.12,0,0,1-.18-1.19h.06a2,2,0,0,0,.17,1.15Z"/><path class="cls-10" d="M157.41,46.41a.15.15,0,0,0-.2.07.15.15,0,0,0,.27.13.15.15,0,0,0-.07-.2"/><path class="cls-11" d="M157.63,48s.09-1-.73-.86c-.48.71.73,1,.73,1Z"/><path class="cls-11" d="M157.54,48.08s-.84-.58-1.1.2c.37.77,1.19-.15,1.19-.15Z"/><path class="cls-11" d="M157.54,48.19s-.92.43-.37,1.05c.85.06.46-1.11.46-1.11Z"/><path class="cls-11" d="M157.63,48.24s-.09,1,.73.85c.48-.71-.73-1-.73-1Z"/><path class="cls-11" d="M157.72,48.18s.84.59,1.1-.2c-.37-.77-1.19.15-1.19.15Z"/><path class="cls-11" d="M157.72,48.08s.93-.43.38-1c-.86-.07-.47,1.1-.47,1.1Z"/><path class="cls-9" d="M23.93,43a2,2,0,0,0-1-.64l0-.06a2.08,2.08,0,0,1,1,.66Z"/><path class="cls-10" d="M22.81,42.3a.15.15,0,0,1,.15-.15.15.15,0,0,1,.15.15.14.14,0,0,1-.15.15.15.15,0,0,1-.15-.15"/><path class="cls-9" d="M22.65,43.94l0,0a2.2,2.2,0,0,1,1.14-.39v.06a1.88,1.88,0,0,0-1.1.38"/><path class="cls-10" d="M22.54,44a.16.16,0,0,1,0-.22.15.15,0,0,1,.24.19.16.16,0,0,1-.21,0"/><path class="cls-9" d="M23.47,44.73h-.06A2.09,2.09,0,0,1,24,43.65l0,0a2,2,0,0,0-.52,1"/><path class="cls-10" d="M23.46,44.88a.16.16,0,0,1-.17-.13.15.15,0,0,1,.3,0,.16.16,0,0,1-.13.17"/><path class="cls-9" d="M24.69,45.1a2,2,0,0,1-.14-1.19h.05a2,2,0,0,0,.14,1.15Z"/><path class="cls-10" d="M24.81,45.2a.14.14,0,0,1-.21,0,.16.16,0,0,1,0-.22.15.15,0,0,1,.21,0,.14.14,0,0,1,0,.21"/><path class="cls-9" d="M26.05,44.09a2.08,2.08,0,0,1-1.12-.45l0,0a1.91,1.91,0,0,0,1.08.44Z"/><path class="cls-10" d="M26.2,44a.15.15,0,0,1-.12.18.14.14,0,0,1-.18-.12.16.16,0,0,1,.12-.18.16.16,0,0,1,.18.12"/><path class="cls-9" d="M25.18,43l0-.05a2,2,0,0,0,.8-.85l.05,0a2,2,0,0,1-.82.88"/><path class="cls-10" d="M26,42a.15.15,0,0,1,.12.18.14.14,0,0,1-.17.12.16.16,0,0,1-.13-.17A.16.16,0,0,1,26,42"/><path class="cls-9" d="M24.8,42.35l-.06,0a2,2,0,0,0,.18-1.15h0a2.06,2.06,0,0,1-.17,1.19"/><path class="cls-10" d="M24.88,41a.15.15,0,0,1,.2.08.15.15,0,0,1-.07.2.15.15,0,0,1-.2-.08.14.14,0,0,1,.07-.2"/><path class="cls-9" d="M24.32,43a2,2,0,0,1-.18-1.19h.06A2,2,0,0,0,24.37,43Z"/><path class="cls-10" d="M24.23,41.69a.14.14,0,0,0-.2.07.16.16,0,0,0,.07.2.16.16,0,0,0,.21-.07.15.15,0,0,0-.08-.2"/><path class="cls-11" d="M24.45,43.31s.09-1-.72-.86c-.48.71.72,1,.72,1Z"/><path class="cls-11" d="M24.36,43.36s-.83-.58-1.1.2c.38.77,1.19-.15,1.19-.15Z"/><path class="cls-11" d="M24.36,43.47s-.92.43-.37,1.05c.85.06.46-1.11.46-1.11Z"/><path class="cls-11" d="M24.46,43.52s-.09,1,.72.85c.48-.71-.73-1-.73-1Z"/><path class="cls-11" d="M24.55,43.46s.83.58,1.1-.2c-.38-.77-1.2.15-1.2.15Z"/><path class="cls-8" d="M10.09,78.83c.85-1.28-.64-2.63-2-2.22a3.14,3.14,0,0,0-1.72,1.47,3.07,3.07,0,0,0-.23-2.45c-.87-1.45-2.79-.7-3.19.61a3.41,3.41,0,0,0,.25,2.46,2.4,2.4,0,0,0-2,.18A2.22,2.22,0,0,0,.1,81.49c.29.77,2.63,1.39,3.72,0,0,0-1.4,2.12.38,3.09s2.35-.74,2.1-3.09c0,0,1,1.87,2.49,1.53s1.42-1.53.52-2.55a4.78,4.78,0,0,0-1.86-.71,2.75,2.75,0,0,0,2.64-.93"/><path class="cls-9" d="M4.76,79.22a2,2,0,0,0-1-.64v-.06a2.08,2.08,0,0,1,1,.66Z"/><path class="cls-9" d="M3.48,80.19l0,0a2.07,2.07,0,0,1,1.14-.4v.06a2,2,0,0,0-1.1.38"/><path class="cls-9" d="M4.3,81H4.24a2.07,2.07,0,0,1,.54-1.08l0,0a2,2,0,0,0-.52,1"/><path class="cls-9" d="M5.52,81.35a2,2,0,0,1-.14-1.19h0a2.05,2.05,0,0,0,.14,1.16Z"/><path class="cls-10" d="M5.64,81.45a.14.14,0,0,1-.21,0,.17.17,0,0,1,0-.22.15.15,0,0,1,.21,0,.14.14,0,0,1,0,.21"/><path class="cls-9" d="M6.88,80.34a2.08,2.08,0,0,1-1.12-.45l0,0a2,2,0,0,0,1.08.44Z"/><path class="cls-10" d="M7,80.29a.15.15,0,0,1-.12.17.15.15,0,1,1-.06-.29.15.15,0,0,1,.18.12"/><path class="cls-9" d="M6,79.28l0,0a2,2,0,0,0,.8-.85l0,0a2,2,0,0,1-.82.88"/><path class="cls-10" d="M6.83,78.24a.17.17,0,0,1,.13.18.16.16,0,0,1-.31,0,.16.16,0,0,1,.18-.13"/><path class="cls-9" d="M5.63,78.6l-.06,0a2,2,0,0,0,.18-1.15h0a2.06,2.06,0,0,1-.17,1.19"/><path class="cls-10" d="M5.71,77.28a.14.14,0,0,1,.2.07.15.15,0,0,1-.07.2.16.16,0,0,1-.2-.07.14.14,0,0,1,.07-.2"/><path class="cls-9" d="M5.15,79.26A2,2,0,0,1,5,78.07H5a1.92,1.92,0,0,0,.17,1.15Z"/><path class="cls-10" d="M5.06,77.94a.15.15,0,0,0-.2.07.15.15,0,0,0,.07.2.16.16,0,0,0,.21-.07.15.15,0,0,0-.08-.2"/><path class="cls-11" d="M5.28,79.56s.09-1-.72-.86c-.48.71.72,1,.72,1Z"/><path class="cls-11" d="M5.19,79.61s-.83-.58-1.1.2c.38.77,1.19-.15,1.19-.15Z"/><path class="cls-11" d="M5.2,79.72s-.93.43-.38,1c.85.06.47-1.11.47-1.11Z"/><path class="cls-11" d="M5.29,79.77s-.09,1,.72.85c.48-.71-.73-1-.73-1Z"/><path class="cls-11" d="M5.38,79.71s.83.59,1.1-.2c-.38-.77-1.19.15-1.19.15Z"/><path class="cls-11" d="M5.37,79.61s.93-.43.38-1.06c-.85-.06-.47,1.11-.47,1.11Z"/><path class="cls-2" d="M123.27,44.88c-2.28-1-7.4-2.6-9.33-1s.67,4.48.8,5.79-1.28,3.07,0,4.37,6.21.72,10.27-3.3Z"/><g class="cls-12"><path d="M123.27,44.88c-2.28-1-7.4-2.6-9.33-1s.67,4.48.8,5.79-1.28,3.07,0,4.37,6.21.72,10.27-3.3Z"/><rect class="cls-6" x="113.23" y="43.22" width="11.77" height="11.5"/></g><g class="cls-13"><path d="M123,45.06c-6.87-2.46-10.17-1.1-8,.48S125,46,125,46Z"/><rect class="cls-6" x="114.34" y="43.71" width="10.66" height="2.67"/></g><g class="cls-13"><path d="M119.23,47.53a.8.8,0,0,0-.4.14.32.32,0,0,0-.11.38c.08.13.26.15.41.16a37.59,37.59,0,0,0,4.11-.08l-4.95,1.64c-.24.08-.55.3-.43.52s.32.16.5.13a30.31,30.31,0,0,0,5-1.34c-.15.05-.4.35-.53.46s-.37.32-.58.47a14,14,0,0,1-1.38.88c-.14.08-.31.2-.28.37s.25.21.41.2a5,5,0,0,0,3.53-2.38c.29-.42.6-1.11.15-1.55s-.94-.24-1.35-.26a20.58,20.58,0,0,0-4.15.26"/><rect class="cls-6" x="117.83" y="47.26" width="7.12" height="4.2"/></g><path class="cls-2" d="M122.88,49.29c-3.47,1.67-4,6.4-10.54,9.49C105.6,61.94,101,55.33,101,55.33a10.38,10.38,0,0,0,1.08,4.36,7.9,7.9,0,0,1-4.64-1.94,7.79,7.79,0,0,0,3.6,6.17,12.66,12.66,0,0,0,12.67,0c3.68-2.06,5.78-5.8,8.09-9.44s3.65-3.58,3.65-3.58V49.28a2.57,2.57,0,0,0-2.54,0"/><g class="cls-14"><path d="M122.88,49.29c-3.47,1.67-4,6.4-10.54,9.49C105.6,61.94,101,55.33,101,55.33a10.38,10.38,0,0,0,1.08,4.36,7.9,7.9,0,0,1-4.64-1.94,7.79,7.79,0,0,0,3.6,6.17,12.66,12.66,0,0,0,12.67,0c3.68-2.06,5.78-5.8,8.09-9.44s3.65-3.58,3.65-3.58V49.28a2.57,2.57,0,0,0-2.54,0"/><rect class="cls-6" x="97.41" y="48.97" width="28.01" height="16.65"/></g><path class="cls-15" d="M124.34,18.87l-.62.84a49.54,49.54,0,0,1-3.26,13.49c-1.08,2.73-.88,3.73,0,3.68s3.19-2.19,3.89-4.71,1-11.44,0-13.3"/><path class="cls-9" d="M146.69,12.74a1.22,1.22,0,0,0-1-1.12L132.64,9.1a1.32,1.32,0,0,0-.28,0V8a4.67,4.67,0,0,1,1-2.43,6.28,6.28,0,0,0,1.15-3.79A1.75,1.75,0,0,0,133.72.2a2,2,0,0,0-2,.17,5,5,0,0,0-2.34,4,.43.43,0,0,0,.44.44.44.44,0,0,0,.44-.44,4.05,4.05,0,0,1,1.9-3.28A1.21,1.21,0,0,1,133.28,1a1,1,0,0,1,.34.85,5.46,5.46,0,0,1-1,3.32A5.31,5.31,0,0,0,131.48,8V9.44a2.76,2.76,0,0,0-.56.57L117.84,27.64c-.83,1.11-1,2.6-.34,3.32a1.05,1.05,0,0,0,.8.36,1.49,1.49,0,0,0,.75-.22L145.22,16a3.45,3.45,0,0,0,1.47-3.25m-1.91,2.49L118.61,30.34c-.32.19-.42.08-.45,0a2.1,2.1,0,0,1,.38-2.21l13.09-17.63c.33-.44.67-.61.85-.57l13.08,2.52c.14,0,.23.16.27.4a2.63,2.63,0,0,1-1.05,2.35"/><path class="cls-2" d="M56.18,91a1.59,1.59,0,0,0,.43,2.86,2.09,2.09,0,0,0-.8,2,2.11,2.11,0,0,0,1.48,1.6A1.74,1.74,0,0,0,58.41,100a1.8,1.8,0,0,0,0,1.78c.4.77,1.1.78,1.79,1.09a1.59,1.59,0,0,0,.87,1.93,2.11,2.11,0,0,0-.56,1.91c0,.23.61,1.67,1,1.42a1.43,1.43,0,0,0,0,2.36A1.84,1.84,0,0,0,63,113.42a1.72,1.72,0,0,0,2.29,2.24,2,2,0,0,0,2.31,2.65,2.09,2.09,0,0,0,3.74,1.37,1.85,1.85,0,0,0,1,1.44c.49.25,1.12,0,1.55.3s.48.87.91,1.21c.17.14,1.3.61,1.42.15a2,2,0,0,0,2.16,2.27,1.88,1.88,0,0,0,2.23,2.37,2.54,2.54,0,0,0,.94,2.47c.3.3,1.82,1.25,2.2.55a1.49,1.49,0,0,0,.36,1.81,1.5,1.5,0,0,0,1.86,0,1.83,1.83,0,0,0,1.16,1.57,1.86,1.86,0,0,0,1.91-.41,2.17,2.17,0,0,0,1.8,1,2.12,2.12,0,0,0,1.83-1,1.93,1.93,0,0,0,3,.2,1.28,1.28,0,0,0,1.55,1.46,1.79,1.79,0,0,0,2.54,2.3,1.91,1.91,0,0,0,1,1.74,1.88,1.88,0,0,0,2-.14c.48.56.92,1.33,1.63,1.6.23.09,2.34,0,2.21-.23a2.11,2.11,0,0,0,3.52.33,2.15,2.15,0,0,0,3.06-.32,2.1,2.1,0,0,0,3.22-.85,1.8,1.8,0,0,0,1.75.48,1.79,1.79,0,0,0,1.24-1.32,2.61,2.61,0,0,0,1.75,1.49c.23,0,1.89-.27,1.8-.41a2.24,2.24,0,0,0,3.39.25,2.22,2.22,0,0,0,3.9-.07,3,3,0,0,0,2.55,1c.88-.09,1.34-.94,2.12-1a2,2,0,0,1,.68.1,2.26,2.26,0,0,0,1.8-.37c.56-.39.61-1.41,1-1.68.16-.11.81,0,1-.05a2.43,2.43,0,0,0,1-.52,2.32,2.32,0,0,0,.73-2c1.06.32,2.72-.34,2.73-1.6a2.14,2.14,0,0,0,3.4-1.12,2,2,0,0,0,3.08-1.27,1.83,1.83,0,0,0,2.63-1.48,1.71,1.71,0,0,0,1.92-2.48c1.1.78,2.71-1.09,1.78-2.06,1.39-.61,1.27-2.83.11-3.82s-2.8-1.08-4.32-1.1c-10.49-.14-20.95.93-31.44,1s-21.17-.9-30.86-4.91A51.67,51.67,0,0,1,71.9,103.67a53.19,53.19,0,0,1-6.58-8.92,51.38,51.38,0,0,1-2.6-5.06c-.66-1.47-1-3.19-2.14-4.4-.7-.74-2.62-2.42-3.66-1.76a.89.89,0,0,0-.18,1.33,1.66,1.66,0,0,0-.49,2.87,1.81,1.81,0,0,0,.12,3.2l-.19.11"/><g class="cls-16"><path class="cls-5" d="M56.18,91a1.59,1.59,0,0,0,.43,2.86,2.09,2.09,0,0,0-.8,2,2.11,2.11,0,0,0,1.48,1.6A1.74,1.74,0,0,0,58.41,100a1.8,1.8,0,0,0,0,1.78c.4.77,1.1.78,1.79,1.09a1.59,1.59,0,0,0,.87,1.93,2.11,2.11,0,0,0-.56,1.91c0,.23.61,1.67,1,1.42a1.43,1.43,0,0,0,0,2.36A1.84,1.84,0,0,0,63,113.42a1.72,1.72,0,0,0,2.29,2.24,2,2,0,0,0,2.31,2.65,2.09,2.09,0,0,0,3.74,1.37,1.85,1.85,0,0,0,1,1.44c.49.25,1.12,0,1.55.3s.48.87.91,1.21c.17.14,1.3.61,1.42.15a2,2,0,0,0,2.16,2.27,1.88,1.88,0,0,0,2.23,2.37,2.54,2.54,0,0,0,.94,2.47c.3.3,1.82,1.25,2.2.55a1.49,1.49,0,0,0,.36,1.81,1.5,1.5,0,0,0,1.86,0,1.83,1.83,0,0,0,1.16,1.57,1.86,1.86,0,0,0,1.91-.41,2.17,2.17,0,0,0,1.8,1,2.12,2.12,0,0,0,1.83-1,1.93,1.93,0,0,0,3,.2,1.28,1.28,0,0,0,1.55,1.46,1.79,1.79,0,0,0,2.54,2.3,1.91,1.91,0,0,0,1,1.74,1.88,1.88,0,0,0,2-.14c.48.56.92,1.33,1.63,1.6.23.09,2.34,0,2.21-.23a2.11,2.11,0,0,0,3.52.33,2.15,2.15,0,0,0,3.06-.32,2.1,2.1,0,0,0,3.22-.85,1.8,1.8,0,0,0,1.75.48,1.79,1.79,0,0,0,1.24-1.32,2.61,2.61,0,0,0,1.75,1.49c.23,0,1.89-.27,1.8-.41a2.24,2.24,0,0,0,3.39.25,2.22,2.22,0,0,0,3.9-.07,3,3,0,0,0,2.55,1c.88-.09,1.34-.94,2.12-1a2,2,0,0,1,.68.1,2.26,2.26,0,0,0,1.8-.37c.56-.39.61-1.41,1-1.68.16-.11.81,0,1-.05a2.43,2.43,0,0,0,1-.52,2.32,2.32,0,0,0,.73-2c1.06.32,2.72-.34,2.73-1.6a2.14,2.14,0,0,0,3.4-1.12,2,2,0,0,0,3.08-1.27,1.83,1.83,0,0,0,2.63-1.48,1.71,1.71,0,0,0,1.92-2.48c1.1.78,2.71-1.09,1.78-2.06,1.39-.61,1.27-2.83.11-3.82s-2.8-1.08-4.32-1.1c-10.49-.14-20.95.93-31.44,1s-21.17-.9-30.86-4.91A51.67,51.67,0,0,1,71.9,103.67a53.19,53.19,0,0,1-6.58-8.92,51.38,51.38,0,0,1-2.6-5.06c-.66-1.47-1-3.19-2.14-4.4-.7-.74-2.62-2.42-3.66-1.76a.89.89,0,0,0-.18,1.33,1.66,1.66,0,0,0-.49,2.87,1.81,1.81,0,0,0,.12,3.2l-.19.11"/><rect class="cls-6" x="55.33" y="83.39" width="102.3" height="58.09"/></g><path class="cls-1" d="M151.5,84.22c0-26.74-9.45-36.65-11.85-40.95-4.08,1.91-8.23,3.73-12.27,5.74a20.06,20.06,0,0,0-3.56,1.67c-4.11,3.31-6.51,8.55-10,12.55-6.54,7.56-15.8,12.39-25.43,15.06s-19.69,3.35-29.68,3.77a23.37,23.37,0,0,0-1,11.68c1,6.78,4.54,9.71,4.54,9.71a16,16,0,0,0,4.36,11.88,22.65,22.65,0,0,0,10.68,6.17s1.78,5.14,8.91,9.25a14.68,14.68,0,0,0,11.7,1.47s.9,5.65,9.67,6.76,11.61-2.6,11.61-2.6,4.42,4.58,13.32,2.6,8.9-6.36,8.9-6.36,14.12-.73,15.4-12.41c-2.6-6.73-5.34-22.31-5.34-36"/><path class="cls-15" d="M120,67A83.61,83.61,0,0,1,86.24,94.76a54.66,54.66,0,0,1-26.88,4.42,13.19,13.19,0,0,0,2.94,4.27A68,68,0,0,0,88,96.82C101.7,90.33,114.36,78.13,120,67"/><path class="cls-15" d="M127.44,61c-11.24,32.59-32.3,48.15-48.32,55.35a60.15,60.15,0,0,1-7.43,2.85,20.29,20.29,0,0,0,5.65,2.29c33.83-15.43,47.12-49.13,50.1-60.49"/><path class="cls-15" d="M125.66,82.61c-6.9,19.93-20.86,40.91-36.18,49.55a14.26,14.26,0,0,0,8.46.06c9.67-7.64,21.6-26.94,27.72-49.61"/><path class="cls-15" d="M134.57,59.89c.13,21.68-10.24,43.92-14.56,57.66-3.28,10.4-4.45,15.69-5,21.13a8,8,0,0,0,4.23-2.3c1.78-17.09,5.38-25,10.13-41.45,4.33-15,5.35-24.67,5.22-35"/><path class="cls-15" d="M141.45,132.62c-2.67-7.53-1.57-21.7.24-39.22,2.16-20.86,0-30.33,0-30.33,1.23,7.9-.49,24.68-2.34,36.31-1.45,9.15-4.35,27.94-1.06,37.39,3.11-2,3.16-4.15,3.16-4.15"/><path class="cls-2" d="M123.82,47.65v3s3.07,1.74,8.46-1c6-3.09,7.37-6.38,7.37-6.38l-.05-4.73Z"/><path class="cls-1" d="M139.87,18.66a21.52,21.52,0,0,1-.8-8.38l-2.67-.51c.38,2.68-.08,6-1.88,11.05-1,2.8-2.46,6.78-2.81,9.93a17.16,17.16,0,0,0-2.81-6.68A12.87,12.87,0,0,1,127,15.26l-2.69,3.61a35.79,35.79,0,0,1-.34,9.49c-.79,4.52-1.13,7.15-3.2,8.39a.83.83,0,0,1-.57.11c-.23-.06-.55-.28-.5-1a9.09,9.09,0,0,0,1,4.58c1.37,3.1,2.3,3.7,3.12,7.25,3.53,2.45,15.52-6.22,15.78-9.11.82-4.51,1.59-6.14,2.63-10.57a26.75,26.75,0,0,0,.73-4.08,16.8,16.8,0,0,1-3.09-5.23"/><path class="cls-2" d="M22.47,111.24a.24.24,0,0,1-.28-.13l-.08-.2a1.15,1.15,0,0,0-1.35-.68l-.21,0a.22.22,0,0,1-.27-.14.22.22,0,0,1,.13-.28l.2-.09a1.15,1.15,0,0,0,.68-1.34l-.06-.22a.23.23,0,0,1,.15-.27.22.22,0,0,1,.28.13l.09.2a1.14,1.14,0,0,0,1.34.68l.22-.06a.24.24,0,0,1,.27.15.23.23,0,0,1-.13.28l-.21.09a1.16,1.16,0,0,0-.67,1.35l.05.21a.22.22,0,0,1-.15.27m-1.1-1.46a1.53,1.53,0,0,1,.74.37,1.67,1.67,0,0,1,.38-.75,1.52,1.52,0,0,1-.75-.37,1.56,1.56,0,0,1-.37.75"/><path class="cls-2" d="M19.43,125.77a1.46,1.46,0,1,1,.47-2,1.47,1.47,0,0,1-.47,2m-1.29-2.1a1,1,0,1,0,1.38.33,1,1,0,0,0-1.38-.33"/><path class="cls-2" d="M14.74,115a.22.22,0,0,1-.31-.07l-.4-.65a.23.23,0,0,1,.07-.31.24.24,0,0,1,.32.08l.39.64a.22.22,0,0,1-.07.31"/><path class="cls-2" d="M14.59,115.62,14,116a.24.24,0,0,1-.32-.07.23.23,0,0,1,.08-.31l.64-.4a.25.25,0,0,1,.32.07.23.23,0,0,1-.08.31"/><path class="cls-2" d="M15.64,116.45a.23.23,0,0,1-.32-.07l-.39-.64a.22.22,0,1,1,.38-.24l.4.64a.22.22,0,0,1-.07.31"/><path class="cls-2" d="M16.05,114.73l-.65.4a.23.23,0,0,1-.31-.08.22.22,0,0,1,.07-.31l.65-.4a.23.23,0,0,1,.31.08.23.23,0,0,1-.07.31"/><path class="cls-2" d="M166.9,118.91a.25.25,0,0,1,.33,0l.2.14a1.25,1.25,0,0,0,1.63-.19l.17-.18a.25.25,0,0,1,.33,0,.23.23,0,0,1,.05.33l-.13.2a1.26,1.26,0,0,0,.19,1.64l.17.16a.25.25,0,0,1,0,.34.26.26,0,0,1-.34,0l-.19-.14a1.27,1.27,0,0,0-1.64.19l-.16.17a.25.25,0,0,1-.34,0,.26.26,0,0,1,0-.34l.14-.19a1.27,1.27,0,0,0-.19-1.64l-.18-.16a.25.25,0,0,1,0-.34m1.88.68a1.85,1.85,0,0,1-.9.11,1.71,1.71,0,0,1,.1.9,1.85,1.85,0,0,1,.9-.11,1.71,1.71,0,0,1-.1-.9"/><path class="cls-2" d="M161,103.8a1.6,1.6,0,1,1,.77,2.12,1.6,1.6,0,0,1-.77-2.12m2.44,1.14a1.1,1.1,0,0,0-2-.93,1.1,1.1,0,1,0,2,.93"/><path class="cls-2" d="M169.72,110.78a.25.25,0,0,1,.33-.11l.75.35a.25.25,0,1,1-.21.45l-.75-.35a.26.26,0,0,1-.12-.34"/><path class="cls-2" d="M169.48,110.13l.36-.75a.24.24,0,0,1,.33-.12.25.25,0,0,1,.11.33l-.35.75a.25.25,0,0,1-.33.12.26.26,0,0,1-.12-.33"/><path class="cls-2" d="M168,110a.25.25,0,0,1,.33-.12l.75.36a.24.24,0,1,1-.21.44l-.75-.35A.25.25,0,0,1,168,110"/><path class="cls-2" d="M168.69,111.82l.35-.75a.24.24,0,0,1,.33-.12.24.24,0,0,1,.12.33l-.35.75a.25.25,0,0,1-.33.12.24.24,0,0,1-.12-.33"/><path class="cls-2" d="M120.87,150.61a.24.24,0,0,1-.08.31l-.19.13a1.19,1.19,0,0,0-.46,1.5l.09.21a.24.24,0,0,1-.1.31.24.24,0,0,1-.31-.08l-.13-.2a1.2,1.2,0,0,0-1.5-.45l-.21.09a.24.24,0,0,1-.31-.1.24.24,0,0,1,.09-.32l.19-.12a1.2,1.2,0,0,0,.45-1.5l-.09-.22a.23.23,0,0,1,.1-.3.24.24,0,0,1,.31.08l.13.2a1.2,1.2,0,0,0,1.5.45l.21-.09a.24.24,0,0,1,.31.1m-1.31,1.4a1.75,1.75,0,0,1,.25-.83,1.75,1.75,0,0,1-.83-.25,1.64,1.64,0,0,1-.25.83,1.71,1.71,0,0,1,.83.25"/><path class="cls-2" d="M132.31,148.58a1.52,1.52,0,0,1-2.28,2,1.52,1.52,0,1,1,2.28-2m-1.92,1.7a1,1,0,1,0,.09-1.47,1,1,0,0,0-.09,1.47"/><path class="cls-2" d="M126.07,154.32a.25.25,0,0,1,0,.34l-.59.52a.23.23,0,0,1-.33,0,.24.24,0,0,1,0-.34l.59-.52a.26.26,0,0,1,.34,0"/><path class="cls-2" d="M126.73,154.36l.53.6a.25.25,0,0,1,0,.33.24.24,0,0,1-.34,0l-.52-.59a.24.24,0,0,1,0-.34.25.25,0,0,1,.33,0"/><path class="cls-2" d="M127.4,153.14a.24.24,0,0,1,0,.34l-.59.52a.24.24,0,0,1-.34,0,.25.25,0,0,1,0-.34l.6-.52a.23.23,0,0,1,.33,0"/><path class="cls-2" d="M125.55,153l.52.59a.24.24,0,0,1,0,.34.24.24,0,0,1-.33,0l-.53-.59a.25.25,0,0,1,0-.33.24.24,0,0,1,.34,0"/><path class="cls-2" d="M33.93,150.39a.21.21,0,0,1-.29,0l-.14-.16a1.1,1.1,0,0,0-1.42-.17l-.17.12a.22.22,0,0,1-.29,0,.21.21,0,0,1,0-.29l.15-.14a1.09,1.09,0,0,0,.17-1.41l-.11-.18a.21.21,0,0,1,0-.28.23.23,0,0,1,.3,0l.14.15a1.09,1.09,0,0,0,1.41.18l.17-.12a.22.22,0,0,1,.27.34l-.16.14a1.09,1.09,0,0,0-.17,1.41l.11.17a.21.21,0,0,1,0,.29m-1.45-.95a1.5,1.5,0,0,1,.78.1,1.47,1.47,0,0,1,.1-.78,1.58,1.58,0,0,1-.78-.1,1.61,1.61,0,0,1-.1.78"/><path class="cls-2" d="M28,147.64a1.38,1.38,0,1,1-.22-1.94,1.37,1.37,0,0,1,.22,1.94m-1.82-1.45a1,1,0,0,0,.15,1.33A.95.95,0,0,0,27.53,146a1,1,0,0,0-1.34.15"/><path class="cls-2" d="M26.83,140.33a.21.21,0,0,1-.3,0l-.56-.44a.22.22,0,0,1,.27-.34l.56.45a.21.21,0,0,1,0,.3"/><path class="cls-2" d="M26.9,140.93l-.45.56a.21.21,0,0,1-.3,0,.22.22,0,0,1,0-.31l.45-.56a.21.21,0,1,1,.33.27"/><path class="cls-2" d="M28.09,141.34a.21.21,0,0,1-.3,0l-.56-.44a.23.23,0,0,1,0-.31.22.22,0,0,1,.3,0l.56.45a.21.21,0,0,1,0,.3"/><path class="cls-2" d="M27.91,139.67l-.45.56a.21.21,0,0,1-.3,0,.22.22,0,0,1,0-.31l.44-.56a.22.22,0,0,1,.3,0,.21.21,0,0,1,0,.3"/><path class="cls-2" d="M159.35,137.83a.26.26,0,0,1,.09-.33l.21-.13a1.27,1.27,0,0,0,.48-1.59l-.1-.23a.26.26,0,0,1,.11-.32.25.25,0,0,1,.33.09l.13.21a1.28,1.28,0,0,0,1.6.48l.22-.1a.26.26,0,0,1,.32.11.24.24,0,0,1-.08.33l-.21.13a1.28,1.28,0,0,0-.48,1.6l.1.22a.26.26,0,0,1-.11.32.25.25,0,0,1-.33-.08l-.13-.21a1.27,1.27,0,0,0-1.6-.48l-.22.1a.27.27,0,0,1-.33-.12m1.39-1.47a1.75,1.75,0,0,1-.27.88,1.77,1.77,0,0,1,.88.26,1.85,1.85,0,0,1,.27-.88,1.84,1.84,0,0,1-.88-.26"/><path class="cls-2" d="M157.07,145.42a1.61,1.61,0,1,1,2.27.15,1.6,1.6,0,0,1-2.27-.15m2-1.8a1.11,1.11,0,1,0-.1,1.57,1.11,1.11,0,0,0,.1-1.57"/><path class="cls-2" d="M150.65,144.72a.25.25,0,0,1,0-.36l.62-.55a.26.26,0,0,1,.36,0,.25.25,0,0,1,0,.35l-.63.56a.26.26,0,0,1-.36,0"/><path class="cls-2" d="M150,144.67l-.56-.63a.25.25,0,0,1,0-.35.26.26,0,0,1,.36,0l.55.63a.24.24,0,0,1,0,.35.23.23,0,0,1-.35,0"/><path class="cls-2" d="M149.24,146a.26.26,0,0,1,0-.36l.63-.55a.25.25,0,1,1,.33.37l-.63.56a.25.25,0,0,1-.35,0"/><path class="cls-2" d="M151.2,146.09l-.56-.63a.24.24,0,0,1,0-.35.23.23,0,0,1,.35,0l.55.63a.23.23,0,0,1,0,.35.25.25,0,0,1-.35,0"/></svg>