<?xml version="1.0" encoding="utf-8"?>
<!-- Generator: Adobe Illustrator 16.0.0, SVG Export Plug-In . SVG Version: 6.00 Build 0)  -->
<!DOCTYPE svg PUBLIC "-//W3C//DTD SVG 1.1//EN" "http://www.w3.org/Graphics/SVG/1.1/DTD/svg11.dtd">
<svg version="1.1" xmlns="http://www.w3.org/2000/svg" xmlns:xlink="http://www.w3.org/1999/xlink" x="0px" y="0px" width="647px"
	 height="453px" viewBox="0 0 647 453" enable-background="new 0 0 647 453" xml:space="preserve">
<g id="Background_Complete">
	<g>
		<g>
			<g>
				<g>
					<g>
						<g>
							<rect x="38.201" y="50.896" fill="#FAFAFA" width="111.156" height="194.477"/>
						</g>
					</g>
				</g>
				<g>
					<g>
						<path fill="#F5F5F5" d="M72.827,247.238c0,0-12.175-87.496-18.557-97.11c0,0,36.417-27.344,37.533-101.449H36.541v198.559
							H72.827z"/>
					</g>
				</g>
				<g>
					<g>
						<path fill="#F5F5F5" d="M114.716,246.852c0,0,12.175-87.496,18.557-97.111c0,0-36.417-27.343-37.533-101.448h55.261v198.559
							H114.716z"/>
					</g>
				</g>
				<g>
					<g>
						<defs>
							<path id="SVGID_1_" d="M38.201,50.896"/>
						</defs>
						<use xlink:href="#SVGID_1_"  overflow="visible" fill="#EBEBEB"/>
						<clipPath id="SVGID_2_">
							<use xlink:href="#SVGID_1_"  overflow="visible"/>
						</clipPath>
						<g clip-path="url(#SVGID_2_)">
							<g>
								<path fill="#EBEBEB" d="M38.201,50.896L38.201,50.896L38.201,50.896z"/>
							</g>
						</g>
						<g clip-path="url(#SVGID_2_)">
							<g>
								<path fill="#EBEBEB" d="M38.201,50.896L38.201,50.896L38.201,50.896z"/>
							</g>
						</g>
						<g clip-path="url(#SVGID_2_)">
							<g>
								<path fill="#EBEBEB" d="M38.201,50.896L38.201,50.896L38.201,50.896z"/>
							</g>
						</g>
						<g clip-path="url(#SVGID_2_)">
							<g>
								<path fill="#EBEBEB" d="M38.201,50.896L38.201,50.896L38.201,50.896z"/>
							</g>
						</g>
						<g clip-path="url(#SVGID_2_)">
							<g>
								<path fill="#EBEBEB" d="M38.201,50.896L38.201,50.896L38.201,50.896z"/>
							</g>
						</g>
						<g clip-path="url(#SVGID_2_)">
							<g>
								<path fill="#EBEBEB" d="M38.201,50.896L38.201,50.896L38.201,50.896z"/>
							</g>
						</g>
						<g clip-path="url(#SVGID_2_)">
							<g>
								<path fill="#EBEBEB" d="M38.201,50.896L38.201,50.896L38.201,50.896z"/>
							</g>
						</g>
						<g clip-path="url(#SVGID_2_)">
							<g>
								<path fill="#EBEBEB" d="M38.201,50.896L38.201,50.896L38.201,50.896z"/>
							</g>
						</g>
						<g clip-path="url(#SVGID_2_)">
							<g>
								<path fill="#EBEBEB" d="M38.201,50.896L38.201,50.896L38.201,50.896z"/>
							</g>
						</g>
						<g clip-path="url(#SVGID_2_)">
							<g>
								<path fill="#EBEBEB" d="M38.201,50.896L38.201,50.896L38.201,50.896z"/>
							</g>
						</g>
						<g clip-path="url(#SVGID_2_)">
							<g>
								<path fill="#EBEBEB" d="M38.201,50.896L38.201,50.896L38.201,50.896z"/>
							</g>
						</g>
						<g clip-path="url(#SVGID_2_)">
							<g>
								<path fill="#EBEBEB" d="M38.201,50.896L38.201,50.896L38.201,50.896z"/>
							</g>
						</g>
						<g clip-path="url(#SVGID_2_)">
							<g>
								<path fill="#EBEBEB" d="M38.201,50.896L38.201,50.896L38.201,50.896z"/>
							</g>
						</g>
						<g clip-path="url(#SVGID_2_)">
							<g>
								<path fill="#EBEBEB" d="M38.201,50.896L38.201,50.896L38.201,50.896z"/>
							</g>
						</g>
						<g clip-path="url(#SVGID_2_)">
							<g>
								<path fill="#EBEBEB" d="M38.201,50.896L38.201,50.896L38.201,50.896z"/>
							</g>
						</g>
						<g clip-path="url(#SVGID_2_)">
							<g>
								<path fill="#EBEBEB" d="M38.201,50.896L38.201,50.896L38.201,50.896z"/>
							</g>
						</g>
						<g clip-path="url(#SVGID_2_)">
							<g>
								<path fill="#EBEBEB" d="M38.201,50.896L38.201,50.896L38.201,50.896z"/>
							</g>
						</g>
						<g clip-path="url(#SVGID_2_)">
							<g>
								<path fill="#EBEBEB" d="M38.201,50.896L38.201,50.896L38.201,50.896z"/>
							</g>
						</g>
						<g clip-path="url(#SVGID_2_)">
							<g>
								<path fill="#EBEBEB" d="M38.201,50.896L38.201,50.896L38.201,50.896z"/>
							</g>
						</g>
						<g clip-path="url(#SVGID_2_)">
							<g>
								<path fill="#EBEBEB" d="M38.201,50.896L38.201,50.896L38.201,50.896z"/>
							</g>
						</g>
						<g clip-path="url(#SVGID_2_)">
							<g>
								<path fill="#EBEBEB" d="M38.201,50.896L38.201,50.896L38.201,50.896z"/>
							</g>
						</g>
						<g clip-path="url(#SVGID_2_)">
							<g>
								<path fill="#EBEBEB" d="M38.201,50.896L38.201,50.896L38.201,50.896z"/>
							</g>
						</g>
						<g clip-path="url(#SVGID_2_)">
							<g>
								<path fill="#EBEBEB" d="M38.201,50.896L38.201,50.896L38.201,50.896z"/>
							</g>
						</g>
						<g clip-path="url(#SVGID_2_)">
							<g>
								<path fill="#EBEBEB" d="M38.201,50.896L38.201,50.896L38.201,50.896z"/>
							</g>
						</g>
						<g clip-path="url(#SVGID_2_)">
							<g>
								<path fill="#EBEBEB" d="M38.201,50.896L38.201,50.896L38.201,50.896z"/>
							</g>
						</g>
						<g clip-path="url(#SVGID_2_)">
							<g>
								<path fill="#EBEBEB" d="M38.201,50.896L38.201,50.896L38.201,50.896z"/>
							</g>
						</g>
						<g clip-path="url(#SVGID_2_)">
							<g>
								<path fill="#EBEBEB" d="M38.201,50.896L38.201,50.896L38.201,50.896z"/>
							</g>
						</g>
						<g clip-path="url(#SVGID_2_)">
							<g>
								<path fill="#EBEBEB" d="M38.201,50.896L38.201,50.896L38.201,50.896z"/>
							</g>
						</g>
						<g clip-path="url(#SVGID_2_)">
							<g>
								<path fill="#EBEBEB" d="M38.201,50.896L38.201,50.896L38.201,50.896z"/>
							</g>
						</g>
						<g clip-path="url(#SVGID_2_)">
							<g>
								<path fill="#EBEBEB" d="M38.201,50.896L38.201,50.896L38.201,50.896z"/>
							</g>
						</g>
						<g clip-path="url(#SVGID_2_)">
							<g>
								<path fill="#EBEBEB" d="M38.201,50.896L38.201,50.896L38.201,50.896z"/>
							</g>
						</g>
						<g clip-path="url(#SVGID_2_)">
							<g>
								<path fill="#EBEBEB" d="M38.201,50.896L38.201,50.896L38.201,50.896z"/>
							</g>
						</g>
						<g clip-path="url(#SVGID_2_)">
							<g>
								<path fill="#EBEBEB" d="M38.201,50.896L38.201,50.896L38.201,50.896z"/>
							</g>
						</g>
						<g clip-path="url(#SVGID_2_)">
							<g>
								<path fill="#EBEBEB" d="M38.201,50.896L38.201,50.896L38.201,50.896z"/>
							</g>
						</g>
						<g clip-path="url(#SVGID_2_)">
							<g>
								<path fill="#EBEBEB" d="M38.201,50.896L38.201,50.896L38.201,50.896z"/>
							</g>
						</g>
						<g clip-path="url(#SVGID_2_)">
							<g>
								<path fill="#EBEBEB" d="M38.201,50.896L38.201,50.896L38.201,50.896z"/>
							</g>
						</g>
						<g clip-path="url(#SVGID_2_)">
							<g>
								<path fill="#EBEBEB" d="M38.201,50.896L38.201,50.896L38.201,50.896z"/>
							</g>
						</g>
					</g>
				</g>
			</g>
			<g>
				<g>
					<path fill="#EBEBEB" d="M152.284,43.488h-5.152H27.896v3.059v4.35v194.495v3.207v3.206h129.54v-3.206v-3.207V43.488H152.284z
						 M60.543,151.717v49.538H38.201v-49.538H60.543z M38.201,148.135v-51.27h22.342v51.27H38.201z M94.551,148.135v-51.27h27.947
						v51.27H94.551z M122.498,151.717v49.538H94.551v-49.538H122.498z M61.538,148.135v-51.27h29.431v51.27H61.538z M90.969,151.717
						v49.538H61.538v-49.538H90.969z M61.538,95.978V50.896h29.431v45.082H61.538z M90.969,202.142v43.249H61.538v-43.249H90.969z
						 M94.551,202.142h27.947v43.249H94.551V202.142z M94.551,95.978V50.896h27.947v45.082H94.551z M123.492,151.717h23.64v49.538
						h-23.64V151.717z M123.492,148.135v-51.27h23.64v51.27H123.492z M147.131,95.978h-23.64V50.896h23.64V95.978z M60.543,50.896
						v45.082H38.201V50.896H60.543z M38.201,202.142h22.342v43.249H38.201V202.142z M123.492,245.391v-43.249h23.64v43.249H123.492z
						"/>
				</g>
			</g>
		</g>
		<g>
			<g>
				<g>
					<rect x="189.63" y="89.421" fill="#F5F5F5" width="338.208" height="226.52"/>
				</g>
			</g>
			<g>
				<g>
					<rect x="189.63" y="89.421" fill="#EBEBEB" width="338.208" height="22.627"/>
				</g>
			</g>
			<g>
				<g>
					<ellipse fill="#FAFAFA" cx="201.546" cy="100.735" rx="2.734" ry="2.541"/>
				</g>
			</g>
			<g>
				<g>
					<ellipse fill="#FAFAFA" cx="210.367" cy="100.735" rx="2.733" ry="2.541"/>
				</g>
			</g>
			<g>
				<g>
					<ellipse fill="#FAFAFA" cx="219.189" cy="100.735" rx="2.733" ry="2.541"/>
				</g>
			</g>
		</g>
		<g>
			<g>
				<g>
					<polygon fill="#EBEBEB" points="631.384,134.187 563.434,134.187 563.434,222.797 631.384,224.502 					"/>
				</g>
			</g>
			<g>
				<g>
					<polygon fill="#FAFAFA" points="626.913,137.34 567.454,137.34 567.454,217.704 626.913,219.711 					"/>
				</g>
			</g>
			<g>
				<g>
					<polygon fill="#EBEBEB" points="616.501,151.943 577.044,150.44 577.044,206.611 616.501,206.611 					"/>
				</g>
			</g>
			<g>
				<g>
					<polygon fill="#F5F5F5" points="577.044,206.611 616.501,177.753 577.044,150.44 					"/>
				</g>
			</g>
		</g>
		<g>
			<g>
				<g>
					<polygon fill="#EBEBEB" points="623.892,71.835 586.075,70.657 586.075,119.973 623.892,120.922 					"/>
				</g>
			</g>
			<g>
				<g>
					<polygon fill="#FAFAFA" points="621.404,73.982 588.312,72.412 588.312,117.139 621.404,118.255 					"/>
				</g>
			</g>
			<g>
				<g>
					<polygon fill="#EBEBEB" points="615.609,80.539 593.649,79.703 593.649,110.965 615.609,110.965 					"/>
				</g>
			</g>
			<g>
				<g>
					<polygon fill="#F5F5F5" points="593.649,110.965 615.609,94.904 593.649,79.703 					"/>
				</g>
			</g>
		</g>
		<g>
			<g>
				<g>
					<g>
						<g>
							<polygon fill="#EBEBEB" points="363.698,30.065 360.075,63.686 406.493,63.686 410.343,30.065 							"/>
						</g>
					</g>
					<g>
						<g>
							<polygon fill="#FAFAFA" points="365.606,32.277 362.082,61.696 403.974,61.696 407.363,32.277 							"/>
						</g>
					</g>
					<g>
						<g>
							<polygon fill="#EBEBEB" points="372.656,37.429 370.487,56.951 396.924,56.951 398.28,37.429 							"/>
						</g>
					</g>
				</g>
				<g>
					<g>
						<g>
							<polygon fill="#EBEBEB" points="424.257,18.65 419.404,63.686 481.582,63.686 486.738,18.65 							"/>
						</g>
					</g>
					<g>
						<g>
							<polygon fill="#FAFAFA" points="426.813,21.613 422.092,61.021 478.207,61.021 482.747,21.613 							"/>
						</g>
					</g>
					<g>
						<g>
							<polygon fill="#EBEBEB" points="436.257,28.514 433.352,54.665 468.764,54.665 470.58,28.514 							"/>
						</g>
					</g>
				</g>
				<g>
					<g>
						<g>
							<rect x="328.866" y="63.686" fill="#EBEBEB" width="181.076" height="5.184"/>
						</g>
					</g>
					<g>
						<g>
							<g>
								<polygon fill="#EBEBEB" points="359.85,81.465 351.924,68.869 363.698,68.869 363.698,81.465 								"/>
							</g>
						</g>
						<g>
							<g>
								<polygon fill="#E0E0E0" points="355.75,68.869 362.76,81.465 363.698,81.465 363.698,68.869 								"/>
							</g>
						</g>
					</g>
					<g>
						<g>
							<g>
								<polygon fill="#EBEBEB" points="464.331,81.465 456.405,68.869 468.18,68.869 468.18,81.465 								"/>
							</g>
						</g>
						<g>
							<g>
								<polygon fill="#E0E0E0" points="460.231,68.869 467.241,81.465 468.18,81.465 468.18,68.869 								"/>
							</g>
						</g>
					</g>
				</g>
			</g>
		</g>
	</g>
</g>
<g id="Plant">
	<g>
		<g>
			<path fill="#F0C63D" d="M112.263,371.639c16.663-10.907,20.894-31.789,20.708-50.654c-0.031-3.15,0.4-6.459-1.049-9.256
				s-4.941-4.768-7.829-3.51c-2.394,1.043-3.493,3.736-4.873,5.953c-1.835,2.948-4.521,5.361-7.65,6.869
				c-2.056,0.992-4.583,1.567-6.56,0.429c-2.714-1.563-2.946-5.32-2.849-8.45c0.18-5.832,0.359-11.664,0.54-17.495
				c0.096-3.129,0.185-6.324-0.729-9.317c-0.914-2.994-3.025-5.806-6.021-6.711c-2.997-0.906-6.769,0.721-7.481,3.77
				c-0.296,1.268-0.065,2.598-0.185,3.895c-0.12,1.297-0.769,2.72-2.028,3.052c-1.274,0.336-2.521-0.581-3.447-1.52
				c-3.196-3.238-5.317-7.362-7.293-11.46c-1.977-4.097-3.889-8.289-6.774-11.807c-2.885-3.518-6.926-6.347-11.461-6.709
				s-9.441,2.288-10.697,6.661c-1.259,4.384,1.24,8.923,3.99,12.562c4.08,5.398,8.946,10.204,14.396,14.216
				c0.983,0.724,2.048,1.506,2.402,2.675c0.637,2.103-1.417,4.128-3.521,4.763c-2.383,0.721-4.941,0.417-7.421,0.646
				s-5.185,1.24-6.177,3.524c-1.376,3.168,1.252,6.585,3.865,8.845c5.233,4.525,11.247,8.145,17.695,10.652
				c2.312,0.898,4.749,1.696,6.589,3.358c1.841,1.662,2.907,4.502,1.718,6.679c-1.191,2.181-4.125,2.815-6.558,2.31
				c-2.432-0.505-4.588-1.866-6.894-2.789c-4.318-1.729-9.953-1.565-12.835,2.085c-1.894,2.398-2.139,5.798-1.283,8.732
				c0.856,2.934,2.676,5.487,4.618,7.849c6.786,8.254,15.567,14.978,25.591,18.679S102.128,375.023,112.263,371.639"/>
		</g>
	</g>
	<g>
		<g>
			<g>
				<path fill="#263238" d="M51.271,261.194c-0.006,0.008,0.096,0.11,0.301,0.305c0.229,0.212,0.534,0.493,0.921,0.852
					c0.813,0.744,2.011,1.843,3.515,3.298c3.012,2.9,7.237,7.258,11.795,13.19c2.289,2.957,4.66,6.3,7.14,9.934
					c2.474,3.64,5.092,7.546,7.688,11.753c2.597,4.205,5.189,8.708,7.496,13.562c1.164,2.421,2.192,4.951,3.242,7.531
					c1.043,2.577,2.102,5.193,3.174,7.84c4.249,10.603,7.963,20.843,10.562,30.386c2.617,9.536,4.097,18.353,4.656,25.806
					c0.578,7.457,0.273,13.524-0.136,17.683c-0.217,2.079-0.418,3.692-0.594,4.779c-0.075,0.522-0.133,0.934-0.177,1.242
					c-0.037,0.279-0.051,0.424-0.041,0.426s0.043-0.139,0.1-0.416c0.058-0.306,0.136-0.714,0.234-1.232
					c0.214-1.083,0.452-2.693,0.704-4.774c0.479-4.161,0.848-10.248,0.321-17.737c-0.509-7.484-1.952-16.343-4.548-25.916
					c-2.579-9.58-6.287-19.85-10.539-30.461c-1.073-2.648-2.133-5.265-3.178-7.844c-1.049-2.572-2.089-5.123-3.263-7.557
					c-2.326-4.878-4.938-9.391-7.555-13.6c-2.616-4.21-5.253-8.112-7.746-11.743c-2.501-3.626-4.897-6.963-7.213-9.913
					c-4.614-5.918-8.9-10.248-11.965-13.102c-1.53-1.433-2.754-2.506-3.593-3.222c-0.404-0.34-0.722-0.607-0.96-0.809
					C51.393,261.275,51.278,261.187,51.271,261.194z"/>
			</g>
		</g>
	</g>
	<g>
		<g>
			<g>
				<path fill="#263238" d="M90.477,313.815c0.04,0.007,0.16-0.466,0.343-1.327c0.188-0.861,0.417-2.115,0.679-3.668
					c0.525-3.106,1.101-7.418,1.718-12.176c0.617-4.76,1.254-9.052,1.826-12.141c0.281-1.545,0.521-2.793,0.699-3.654
					c0.172-0.861,0.249-1.344,0.21-1.354c-0.039-0.011-0.19,0.453-0.431,1.302c-0.246,0.847-0.549,2.086-0.882,3.626
					c-0.677,3.08-1.382,7.381-2,12.145c-0.596,4.696-1.136,8.944-1.548,12.19c-0.196,1.465-0.362,2.7-0.495,3.69
					C90.482,313.322,90.438,313.809,90.477,313.815z"/>
			</g>
		</g>
	</g>
	<g>
		<g>
			<g>
				<path fill="#263238" d="M49.894,305.322c-0.002,0.04,0.576,0.12,1.621,0.231c1.044,0.116,2.556,0.277,4.416,0.536
					c3.724,0.486,8.845,1.337,14.452,2.519c5.608,1.193,10.636,2.485,14.246,3.523c1.809,0.507,3.262,0.956,4.268,1.26
					c1.005,0.309,1.567,0.462,1.581,0.424s-0.523-0.263-1.508-0.639c-0.986-0.37-2.423-0.88-4.222-1.439
					c-3.59-1.143-8.619-2.503-14.243-3.699c-5.625-1.186-10.775-1.975-14.524-2.358c-1.872-0.206-3.395-0.306-4.447-0.353
					C50.479,305.285,49.896,305.281,49.894,305.322z"/>
			</g>
		</g>
	</g>
	<g>
		<g>
			<g>
				<path fill="#263238" d="M107.14,358.951c0.018,0.009,0.118-0.158,0.292-0.484c0.198-0.389,0.44-0.864,0.733-1.438
					c0.631-1.253,1.496-3.088,2.534-5.37c2.08-4.562,4.752-10.953,7.604-18.046c2.854-7.095,5.461-13.502,7.442-18.101
					c0.97-2.235,1.769-4.074,2.362-5.44c0.253-0.593,0.462-1.083,0.634-1.483c0.139-0.343,0.204-0.526,0.185-0.535
					c-0.018-0.009-0.118,0.158-0.291,0.484c-0.198,0.389-0.44,0.863-0.733,1.438c-0.631,1.253-1.496,3.088-2.534,5.37
					c-2.08,4.562-4.752,10.954-7.605,18.049c-2.853,7.092-5.46,13.498-7.441,18.098c-0.971,2.235-1.769,4.073-2.362,5.44
					c-0.253,0.593-0.462,1.083-0.634,1.483C107.186,358.759,107.122,358.942,107.14,358.951z"/>
			</g>
		</g>
	</g>
	<g>
		<g>
			<g>
				<path fill="#263238" d="M53.388,340.425c-0.006,0.02,0.177,0.099,0.532,0.232c0.419,0.149,0.935,0.334,1.561,0.558
					c1.441,0.499,3.388,1.174,5.756,1.993c4.859,1.685,11.544,4.088,18.927,6.754c7.385,2.666,14.1,5.01,18.996,6.597
					c2.448,0.794,4.436,1.416,5.818,1.818c0.639,0.182,1.166,0.332,1.594,0.453c0.366,0.098,0.562,0.141,0.567,0.121
					c0.006-0.02-0.177-0.099-0.532-0.232c-0.419-0.15-0.935-0.334-1.56-0.558c-1.441-0.499-3.388-1.174-5.755-1.993
					c-4.859-1.686-11.545-4.088-18.931-6.755c-7.383-2.665-14.096-5.009-18.993-6.596c-2.448-0.794-4.436-1.416-5.818-1.818
					c-0.639-0.183-1.166-0.332-1.594-0.454C53.589,340.447,53.394,340.405,53.388,340.425z"/>
			</g>
		</g>
	</g>
</g>
<g id="Device">
	<g>
		<g>
			<g>
				<path fill="#263238" d="M473.86,108.688H133.432c-5.869,0-10.626,4.757-10.626,10.626v240.452
					c0,5.869,4.757,10.627,10.626,10.627h130.656c0,0,8.311,25.7-17.453,38.998h122.17c0,0-29.089-9.973-21.609-38.998h126.666
					c5.868,0,10.626-4.758,10.626-10.626V119.314C484.487,113.445,479.729,108.688,473.86,108.688z"/>
			</g>
		</g>
		<g>
			<g>
				<path fill="#455A64" d="M308.546,345.016c4.631,6.618-2.617,13.866-9.237,9.236c-0.218-0.153-0.417-0.352-0.569-0.57
					c-4.618-6.617,2.621-13.855,9.236-9.235C308.195,344.599,308.394,344.797,308.546,345.016z"/>
			</g>
		</g>
	</g>
	<g>
		<g>
			<g>
				<path fill="#E0E0E0" d="M473.178,325.833H134.115c-1.808,0-3.273-1.466-3.273-3.273V124.104c0-1.808,1.465-3.273,3.273-3.273
					h339.062c1.808,0,3.272,1.465,3.272,3.272v198.457C476.45,324.368,474.985,325.833,473.178,325.833z"/>
			</g>
		</g>
		<g>
			<g>
				<rect x="130.842" y="135.852" fill="#FAFAFA" width="345.608" height="189.981"/>
			</g>
		</g>
		<g>
			<g>
				<circle fill="#E8505B" cx="156.427" cy="128.748" r="2.76"/>
			</g>
		</g>
		<g>
			<g>
				<circle fill="#E8505B" cx="139.699" cy="128.748" r="2.76"/>
			</g>
		</g>
		<g>
			<g>
				<circle fill="#E8505B" cx="147.729" cy="128.748" r="2.76"/>
			</g>
		</g>
	</g>
	<g>
		<g>
			<g>
				<path fill="#455A64" d="M301.134,224.313c0,0.155-12.661,0.281-28.275,0.281c-15.62,0-28.279-0.126-28.279-0.281
					c0-0.156,12.659-0.282,28.279-0.282C288.473,224.031,301.134,224.157,301.134,224.313z"/>
			</g>
		</g>
	</g>
	<g>
		<g>
			<g>
				<path fill="#455A64" d="M301.134,231.881c0,0.156-12.661,0.282-28.275,0.282c-15.62,0-28.279-0.126-28.279-0.282
					c0-0.155,12.659-0.281,28.279-0.281C288.473,231.6,301.134,231.726,301.134,231.881z"/>
			</g>
		</g>
	</g>
	<g>
		<g>
			<g>
				<ellipse fill="#455A64" cx="261.528" cy="239.449" rx="16.948" ry="0.281"/>
			</g>
		</g>
	</g>
	<g>
		<g>
			<rect x="244.58" y="146.979" fill="#455A64" width="26.887" height="3.41"/>
		</g>
	</g>
	<g>
		<g>
			<rect x="244.58" y="157.96" fill="#E0E0E0" width="59.09" height="57.169"/>
		</g>
	</g>
	<g>
		<g>
			<polygon fill="#F0C63D" points="249.162,210.236 265.508,180.817 278.878,199.621 287.002,189.635 299.089,210.236 			"/>
		</g>
	</g>
	<g>
		<g>
			<circle fill="#F0C63D" cx="280.321" cy="175.096" r="4.252"/>
		</g>
	</g>
	<g>
		<g>
			<g>
				<path fill="#455A64" d="M299.089,210.395c-0.004-0.004-0.009-0.083-0.014-0.234c-0.003-0.171-0.008-0.389-0.013-0.667
					c-0.007-0.608-0.016-1.467-0.028-2.573c-0.015-2.267-0.036-5.546-0.062-9.709c-0.03-8.35-0.073-20.241-0.124-34.518l0.242,0.241
					c-14.46,0.012-31.601,0.025-49.922,0.04c-0.067,0.059,0.528-0.529,0.276-0.273v0.013v0.025v0.051v0.102v0.204v0.408v0.814v1.624
					c0,1.081,0,2.156,0,3.228c0,2.142-0.001,4.265-0.002,6.365c-0.002,4.201-0.004,8.314-0.007,12.319
					c-0.009,8.006-0.019,15.576-0.027,22.54l-0.245-0.245c14.901,0.052,27.348,0.095,36.099,0.125
					c4.363,0.027,7.804,0.049,10.182,0.064c1.162,0.012,2.063,0.022,2.701,0.029c0.292,0.006,0.521,0.01,0.7,0.014
					C299.001,210.386,299.084,210.39,299.089,210.395c0.005,0.004-0.069,0.009-0.218,0.014c-0.172,0.003-0.392,0.008-0.673,0.014
					c-0.626,0.006-1.512,0.016-2.653,0.028c-2.365,0.015-5.787,0.037-10.126,0.064c-8.789,0.03-21.29,0.073-36.256,0.125
					l-0.245,0.001v-0.247c-0.008-6.963-0.018-14.533-0.027-22.54c-0.002-4.004-0.005-8.118-0.007-12.319
					c0-2.101-0.001-4.223-0.001-6.365c0-1.071,0-2.147,0-3.228v-1.624l0-0.814v-0.408v-0.204v-0.102v-0.051v-0.025v-0.013
					c-0.251,0.247,0.342-0.353,0.287-0.29c18.321,0.015,35.462,0.028,49.922,0.04l0.243,0l-0.001,0.242
					c-0.051,14.34-0.094,26.284-0.124,34.672c-0.027,4.14-0.048,7.4-0.063,9.654c-0.012,1.086-0.021,1.929-0.028,2.526
					c-0.006,0.267-0.01,0.476-0.014,0.641C299.098,210.33,299.094,210.399,299.089,210.395z"/>
			</g>
		</g>
	</g>
	<g>
		<g>
			<g>
				<ellipse fill="#455A64" cx="344.893" cy="224.313" rx="28.277" ry="0.281"/>
			</g>
		</g>
	</g>
	<g>
		<g>
			<g>
				<ellipse fill="#455A64" cx="344.893" cy="231.881" rx="28.277" ry="0.282"/>
			</g>
		</g>
	</g>
	<g>
		<g>
			<g>
				<ellipse fill="#455A64" cx="333.563" cy="239.449" rx="16.947" ry="0.281"/>
			</g>
		</g>
	</g>
	<g>
		<g>
			<rect x="316.616" y="146.979" fill="#455A64" width="26.886" height="3.41"/>
		</g>
	</g>
	<g>
		<g>
			<rect x="316.616" y="157.96" fill="#E0E0E0" width="59.089" height="57.169"/>
		</g>
	</g>
	<g>
		<g>
			<polygon fill="#F0C63D" points="321.197,210.236 337.543,180.817 350.913,199.621 359.037,189.635 371.124,210.236 			"/>
		</g>
	</g>
	<g>
		<g>
			<circle fill="#F0C63D" cx="352.356" cy="175.096" r="4.252"/>
		</g>
	</g>
	<g>
		<g>
			<g>
				<path fill="#455A64" d="M371.124,210.395c-0.004-0.004-0.009-0.083-0.014-0.234c-0.003-0.171-0.008-0.389-0.013-0.667
					c-0.007-0.608-0.017-1.467-0.028-2.573c-0.015-2.267-0.036-5.546-0.063-9.709c-0.029-8.35-0.072-20.241-0.123-34.518
					l0.241,0.241c-14.46,0.012-31.601,0.025-49.922,0.04c-0.067,0.059,0.528-0.529,0.277-0.273v0.013v0.025v0.051v0.102v0.204v0.408
					v0.814l0,1.624c0,1.081,0,2.156,0,3.228c0,2.142-0.001,4.265-0.001,6.365c-0.002,4.201-0.005,8.314-0.007,12.319
					c-0.009,8.006-0.019,15.576-0.027,22.54l-0.245-0.245c14.9,0.052,27.348,0.095,36.099,0.125
					c4.363,0.027,7.804,0.049,10.182,0.064c1.162,0.012,2.063,0.022,2.701,0.029c0.292,0.006,0.521,0.01,0.699,0.014
					C371.037,210.386,371.119,210.39,371.124,210.395c0.005,0.004-0.068,0.009-0.218,0.014c-0.173,0.003-0.393,0.008-0.674,0.014
					c-0.626,0.006-1.512,0.016-2.653,0.028c-2.365,0.015-5.787,0.037-10.126,0.064c-8.789,0.03-21.29,0.073-36.256,0.125
					l-0.245,0.001l0-0.247c-0.008-6.963-0.017-14.533-0.027-22.54c-0.002-4.004-0.004-8.118-0.007-12.319
					c-0.001-2.101-0.001-4.223-0.002-6.365c0-1.071,0-2.147,0-3.228v-1.624v-0.814v-0.408v-0.204v-0.102v-0.051v-0.025v-0.013
					c-0.251,0.247,0.341-0.353,0.286-0.29c18.322,0.015,35.462,0.028,49.922,0.04l0.243,0l-0.001,0.242
					c-0.052,14.34-0.094,26.284-0.124,34.672c-0.027,4.14-0.048,7.4-0.062,9.654c-0.013,1.086-0.021,1.929-0.028,2.526
					c-0.006,0.267-0.01,0.476-0.014,0.641C371.133,210.33,371.129,210.399,371.124,210.395z"/>
			</g>
		</g>
	</g>
	<g>
		<g>
			<rect x="246.473" y="249.995" fill="#455A64" width="26.887" height="3.41"/>
		</g>
	</g>
	<g>
		<g>
			<rect x="246.473" y="260.976" fill="#E0E0E0" width="59.09" height="57.169"/>
		</g>
	</g>
	<g>
		<g>
			<polygon fill="#F0C63D" points="251.054,313.251 267.4,283.833 280.771,302.636 288.895,292.65 300.981,313.251 			"/>
		</g>
	</g>
	<g>
		<g>
			<circle fill="#F0C63D" cx="282.213" cy="278.111" r="4.252"/>
		</g>
	</g>
	<g>
		<g>
			<g>
				<path fill="#455A64" d="M300.981,313.41c-0.004-0.004-0.009-0.083-0.014-0.234c-0.003-0.171-0.008-0.389-0.013-0.666
					c-0.007-0.608-0.016-1.467-0.028-2.573c-0.015-2.267-0.036-5.546-0.063-9.708c-0.03-8.351-0.072-20.242-0.124-34.519
					l0.242,0.241c-14.46,0.012-31.601,0.025-49.923,0.04c-0.067,0.06,0.529-0.529,0.277-0.273v0.013v0.025v0.051v0.103v0.204v0.407
					v0.814v1.624c0,1.08,0,2.156,0,3.228c0,2.142-0.001,4.265-0.002,6.365c-0.002,4.201-0.004,8.314-0.007,12.318
					c-0.009,8.007-0.019,15.576-0.027,22.54l-0.245-0.245c14.901,0.052,27.348,0.095,36.099,0.125
					c4.363,0.027,7.804,0.049,10.182,0.063c1.162,0.013,2.063,0.022,2.701,0.029c0.292,0.006,0.521,0.01,0.7,0.014
					C300.894,313.401,300.977,313.405,300.981,313.41c0.005,0.005-0.069,0.01-0.218,0.014c-0.172,0.004-0.393,0.009-0.673,0.015
					c-0.626,0.006-1.512,0.016-2.653,0.028c-2.365,0.015-5.787,0.036-10.126,0.064c-8.789,0.03-21.29,0.073-36.256,0.124
					l-0.245,0.001v-0.246c-0.008-6.964-0.018-14.533-0.027-22.54c-0.002-4.004-0.005-8.117-0.007-12.318
					c0-2.101-0.001-4.224-0.001-6.365c0-1.071,0-2.147,0-3.228l0-1.624v-0.814v-0.407v-0.204v-0.103v-0.051v-0.025v-0.013
					c-0.251,0.247,0.342-0.353,0.286-0.29c18.322,0.015,35.463,0.028,49.923,0.04h0.243l-0.001,0.242
					c-0.051,14.34-0.094,26.284-0.124,34.672c-0.027,4.14-0.048,7.4-0.063,9.654c-0.012,1.086-0.021,1.929-0.028,2.526
					c-0.006,0.267-0.01,0.476-0.014,0.641C300.991,313.345,300.986,313.415,300.981,313.41z"/>
			</g>
		</g>
	</g>
	<g>
		<g>
			<rect x="318.559" y="249.995" fill="#455A64" width="26.886" height="3.41"/>
		</g>
	</g>
	<g>
		<g>
			<rect x="318.559" y="260.976" fill="#E0E0E0" width="59.089" height="57.169"/>
		</g>
	</g>
	<g>
		<g>
			<polygon fill="#F0C63D" points="323.14,313.251 339.486,283.833 352.856,302.636 360.98,292.65 373.067,313.251 			"/>
		</g>
	</g>
	<g>
		<g>
			<circle fill="#F0C63D" cx="354.299" cy="278.111" r="4.252"/>
		</g>
	</g>
	<g>
		<g>
			<g>
				<path fill="#455A64" d="M373.067,313.41c-0.004-0.004-0.009-0.083-0.014-0.234c-0.003-0.171-0.008-0.389-0.014-0.666
					c-0.006-0.608-0.016-1.467-0.027-2.573c-0.015-2.267-0.036-5.546-0.063-9.708c-0.029-8.351-0.072-20.242-0.123-34.519
					l0.241,0.241c-14.46,0.012-31.602,0.025-49.922,0.04c-0.067,0.06,0.528-0.529,0.276-0.273v0.013v0.025v0.051v0.103v0.204v0.407
					v0.814v1.624c0,1.08,0,2.156,0,3.228c0,2.142-0.001,4.265-0.002,6.365c-0.002,4.201-0.004,8.314-0.007,12.318
					c-0.009,8.007-0.019,15.576-0.027,22.54l-0.245-0.245c14.901,0.052,27.348,0.095,36.099,0.125
					c4.363,0.027,7.804,0.049,10.182,0.063c1.162,0.013,2.063,0.022,2.701,0.029c0.292,0.006,0.521,0.01,0.699,0.014
					C372.98,313.401,373.062,313.405,373.067,313.41s-0.068,0.01-0.219,0.014c-0.172,0.004-0.392,0.009-0.673,0.015
					c-0.627,0.006-1.512,0.016-2.653,0.028c-2.365,0.015-5.787,0.036-10.127,0.064c-8.788,0.03-21.289,0.073-36.255,0.124
					l-0.245,0.001v-0.246c-0.008-6.964-0.018-14.533-0.027-22.54c-0.002-4.004-0.005-8.117-0.007-12.318
					c-0.001-2.101-0.001-4.224-0.002-6.365c0-1.071,0-2.147,0-3.228v-1.624l0-0.814v-0.407v-0.204v-0.103v-0.051v-0.025v-0.013
					c-0.251,0.247,0.342-0.353,0.287-0.29c18.321,0.015,35.462,0.028,49.922,0.04h0.242l-0.001,0.242
					c-0.051,14.34-0.093,26.284-0.123,34.672c-0.027,4.14-0.048,7.4-0.062,9.654c-0.013,1.086-0.021,1.929-0.028,2.526
					c-0.006,0.267-0.01,0.476-0.014,0.641C373.076,313.345,373.072,313.415,373.067,313.41z"/>
			</g>
		</g>
	</g>
	<g>
		<g>
			<rect x="392.942" y="249.995" fill="#455A64" width="26.887" height="3.41"/>
		</g>
	</g>
	<g>
		<g>
			<rect x="392.942" y="260.976" fill="#E0E0E0" width="59.09" height="57.169"/>
		</g>
	</g>
	<g>
		<g>
			<polygon fill="#F0C63D" points="397.523,313.251 413.87,283.833 427.24,302.636 435.364,292.65 447.451,313.251 			"/>
		</g>
	</g>
	<g>
		<g>
			<circle fill="#F0C63D" cx="428.683" cy="278.111" r="4.252"/>
		</g>
	</g>
	<g>
		<g>
			<g>
				<path fill="#455A64" d="M447.451,313.41c-0.005-0.004-0.009-0.083-0.014-0.234c-0.003-0.171-0.008-0.389-0.014-0.666
					c-0.006-0.608-0.016-1.467-0.027-2.573c-0.015-2.267-0.036-5.546-0.063-9.708c-0.029-8.351-0.072-20.242-0.123-34.519
					l0.241,0.241c-14.46,0.012-31.602,0.025-49.923,0.04c-0.067,0.06,0.528-0.529,0.277-0.273v0.013v0.025v0.051v0.103v0.204v0.407
					l-0.001,0.814v1.624c0,1.08,0,2.156,0,3.228c-0.001,2.142-0.001,4.265-0.002,6.365c-0.002,4.201-0.005,8.314-0.007,12.318
					c-0.01,8.007-0.019,15.576-0.026,22.54l-0.246-0.245c14.901,0.052,27.349,0.095,36.1,0.125
					c4.363,0.027,7.804,0.049,10.182,0.063c1.161,0.013,2.062,0.022,2.701,0.029c0.292,0.006,0.521,0.01,0.699,0.014
					C447.364,313.401,447.446,313.405,447.451,313.41s-0.069,0.01-0.219,0.014c-0.172,0.004-0.392,0.009-0.673,0.015
					c-0.627,0.006-1.512,0.016-2.653,0.028c-2.365,0.015-5.787,0.036-10.127,0.064c-8.788,0.03-21.289,0.073-36.256,0.124
					l-0.244,0.001l-0.001-0.246c-0.008-6.964-0.017-14.533-0.026-22.54c-0.003-4.004-0.005-8.117-0.007-12.318
					c-0.001-2.101-0.002-4.224-0.002-6.365c0-1.071-0.001-2.147-0.001-3.228v-1.624v-0.814v-0.407v-0.204v-0.103v-0.051v-0.025
					v-0.013c-0.251,0.247,0.342-0.353,0.286-0.29c18.321,0.015,35.463,0.028,49.923,0.04h0.242l-0.001,0.242
					c-0.051,14.34-0.094,26.284-0.123,34.672c-0.027,4.14-0.048,7.4-0.063,9.654c-0.012,1.086-0.021,1.929-0.027,2.526
					c-0.006,0.267-0.01,0.476-0.014,0.641C447.46,313.345,447.456,313.415,447.451,313.41z"/>
			</g>
		</g>
	</g>
	<g>
		<g>
			<g>
				<g>
					<g>
						<path fill="#455A64" d="M446.499,215.129c0-0.155,2.904-0.282,6.485-0.282c-0.562,0.562-0.155,0.154-0.281,0.279v-0.002
							l0.001-0.005v-0.01v-0.021v-0.042v-0.083v-0.167l0.001-0.33c0.001-0.217,0.003-0.432,0.004-0.644
							c0.006-0.414,0.012-0.818,0.017-1.217c0.021-0.71,0.041-1.395,0.061-2.062c0.051-1.173,0.121-1.899,0.199-1.899
							c0.077,0,0.147,0.726,0.199,1.899c0.02,0.667,0.039,1.352,0.06,2.062c0.006,0.399,0.011,0.803,0.017,1.217
							c0.002,0.212,0.003,0.427,0.004,0.644l0.002,0.33v0.167v0.083v0.042v0.021v0.01v0.005v0.002
							c-0.126,0.126,0.281-0.279-0.282,0.284C449.403,215.41,446.499,215.284,446.499,215.129z"/>
					</g>
				</g>
			</g>
			<g>
				<g>
					<g>
						<ellipse fill="#455A64" cx="424.399" cy="215.129" rx="7.367" ry="0.282"/>
					</g>
				</g>
			</g>
			<g>
				<g>
					<g>
						<path fill="#455A64" d="M395.812,208.643c0.155,0,0.281,2.904,0.281,6.485c-0.562-0.562-0.154-0.156-0.279-0.281h0.003h0.005
							h0.011h0.021h0.042l0.084,0h0.166l0.33,0.001c0.217,0.001,0.432,0.003,0.644,0.004c0.414,0.006,0.818,0.011,1.218,0.017
							c0.71,0.021,1.395,0.041,2.062,0.06c1.174,0.051,1.899,0.122,1.899,0.199s-0.726,0.148-1.899,0.199
							c-0.667,0.019-1.352,0.039-2.062,0.06c-0.399,0.005-0.804,0.011-1.218,0.017c-0.212,0.001-0.427,0.002-0.644,0.004
							l-0.33,0.001h-0.166h-0.084h-0.042h-0.021h-0.011h-0.005h-0.003c-0.126-0.125,0.279,0.282-0.283-0.282
							C395.531,211.547,395.657,208.643,395.812,208.643z"/>
					</g>
				</g>
			</g>
			<g>
				<g>
					<g>
						<ellipse fill="#455A64" cx="395.812" cy="186.542" rx="0.281" ry="7.367"/>
					</g>
				</g>
			</g>
			<g>
				<g>
					<g>
						<path fill="#455A64" d="M402.298,157.956c0,0.155-2.903,0.282-6.485,0.282c0.562-0.562,0.156-0.155,0.281-0.279v0.002v0.005
							v0.01v0.021v0.042v0.083v0.167l-0.001,0.33c-0.002,0.217-0.003,0.431-0.005,0.644c-0.006,0.414-0.011,0.818-0.017,1.217
							c-0.021,0.71-0.04,1.395-0.06,2.062c-0.052,1.173-0.122,1.899-0.199,1.899c-0.078,0-0.148-0.726-0.199-1.899
							c-0.02-0.667-0.04-1.352-0.061-2.062c-0.005-0.399-0.011-0.803-0.017-1.217c-0.001-0.213-0.002-0.427-0.004-0.644l-0.001-0.33
							v-0.167v-0.083v-0.042v-0.021v-0.01v-0.005v-0.002c0.125-0.126-0.282,0.279,0.281-0.284
							C399.395,157.675,402.298,157.801,402.298,157.956z"/>
					</g>
				</g>
			</g>
			<g>
				<g>
					<g>
						<ellipse fill="#455A64" cx="424.399" cy="157.956" rx="7.367" ry="0.282"/>
					</g>
				</g>
			</g>
			<g>
				<g>
					<g>
						<path fill="#455A64" d="M452.985,164.442c-0.155,0-0.282-2.904-0.282-6.485c0.562,0.562,0.155,0.156,0.279,0.281h-0.002
							h-0.006h-0.01h-0.021l-0.042,0h-0.083h-0.167l-0.329-0.001c-0.217-0.001-0.432-0.003-0.645-0.004
							c-0.414-0.006-0.818-0.011-1.217-0.017c-0.71-0.021-1.395-0.041-2.062-0.06c-1.173-0.051-1.899-0.122-1.899-0.199
							s0.727-0.148,1.899-0.199c0.668-0.019,1.353-0.04,2.062-0.06c0.398-0.005,0.803-0.011,1.217-0.017
							c0.213-0.001,0.428-0.002,0.645-0.004l0.329-0.001h0.167h0.083h0.042h0.021h0.01h0.006h0.002
							c0.127,0.125-0.278-0.282,0.284,0.282C453.267,161.538,453.141,164.442,452.985,164.442z"/>
					</g>
				</g>
			</g>
			<g>
				<g>
					<g>
						<ellipse fill="#455A64" cx="452.985" cy="186.542" rx="0.282" ry="7.367"/>
					</g>
				</g>
			</g>
		</g>
		<g>
			<g>
				<g>
					<g>
						<ellipse fill="#455A64" cx="423.878" cy="224.233" rx="28.277" ry="0.281"/>
					</g>
				</g>
			</g>
			<g>
				<g>
					<g>
						<ellipse fill="#455A64" cx="423.878" cy="231.802" rx="28.277" ry="0.281"/>
					</g>
				</g>
			</g>
			<g>
				<g>
					<rect x="395.601" y="146.899" fill="#455A64" width="26.887" height="3.41"/>
				</g>
			</g>
		</g>
	</g>
	<g>
		<g>
			<g>
				<circle fill="#E0E0E0" cx="188.112" cy="191.383" r="28.975"/>
			</g>
		</g>
		<g>
			<g>
				<g>
					<path fill="#455A64" d="M222.825,254.541c0,0.155-14.882,0.281-33.235,0.281c-18.36,0-33.239-0.126-33.239-0.281
						s14.879-0.281,33.239-0.281C207.943,254.26,222.825,254.386,222.825,254.541z"/>
				</g>
			</g>
		</g>
		<g>
			<g>
				<g>
					<path fill="#455A64" d="M222.825,261.895c0,0.155-14.882,0.281-33.235,0.281c-18.36,0-33.239-0.126-33.239-0.281
						s14.879-0.281,33.239-0.281C207.943,261.613,222.825,261.739,222.825,261.895z"/>
				</g>
			</g>
		</g>
		<g>
			<g>
				<g>
					<path fill="#455A64" d="M222.825,269.248c0,0.155-14.882,0.281-33.235,0.281c-18.36,0-33.239-0.126-33.239-0.281
						c0-0.156,14.879-0.282,33.239-0.282C207.943,268.966,222.825,269.092,222.825,269.248z"/>
				</g>
			</g>
		</g>
		<g>
			<g>
				<g>
					<ellipse fill="#455A64" cx="175.268" cy="276.758" rx="19.273" ry="0.281"/>
				</g>
			</g>
		</g>
		<g>
			<g>
				<rect x="156.351" y="239.54" fill="#455A64" width="45.8" height="3.348"/>
			</g>
		</g>
		<g>
			<g>
				<path fill="#EF7A78" d="M169.954,213.519c4.926,4.258,11.341,6.84,18.363,6.84c7.035,0,13.461-2.591,18.391-6.864
					c-1.534-5.238-5.275-11.463-14.364-12.835c3.951-1.657,6.764-5.734,6.785-10.538c0.027-6.292-4.734-11.416-10.634-11.442
					c-5.9-0.027-10.704,5.051-10.73,11.343c-0.021,4.848,2.812,8.974,6.807,10.638C175.33,202.053,171.519,208.308,169.954,213.519z
					"/>
			</g>
		</g>
		<g>
			<g>
				<rect x="156.351" y="288.234" fill="#E8505B" width="25.676" height="3.125"/>
			</g>
		</g>
	</g>
</g>
<g id="Character">
	<g>
		<g>
			<path fill="#E8505B" d="M540.782,179.607c1.46,4.896,2.92,9.793,4.38,14.689c0.2,0.669,0.401,1.353,0.389,2.051
				c-0.037,2.069-1.996,3.694-4.03,4.077c-2.033,0.383-4.113-0.172-6.107-0.722c-0.541,2.108-3.01,2.997-5.148,3.399
				c-9.501,1.791-19.552,0.54-28.324-3.524c3.773-5.398,6.851-11.282,9.133-17.459c7.447,0.329,14.895,0.658,22.342,0.986
				c1.317,0.059,2.674,0.111,3.916-0.333c1.241-0.443,2.355-1.51,2.442-2.826"/>
		</g>
	</g>
	<g>
		<g>
			<path fill="#FFBE9D" d="M515.181,208.292c0.281-1.642-0.386-8.537-0.386-8.537s-6.295-0.667-6.677-6.909
				c-0.383-6.243,0-20.639,0-20.639l11.466-5.605l12.613,9.555l-1.911,31.213l-13.617,12.177L515.181,208.292z"/>
		</g>
	</g>
	<g>
		<g>
			<g>
				<circle fill="#263238" cx="510.166" cy="182.7" r="0.799"/>
			</g>
		</g>
		<g>
			<g>
				<g>
					<path fill="#263238" d="M508.593,181.829c0.104,0.104,0.693-0.398,1.554-0.444c0.859-0.059,1.506,0.368,1.596,0.252
						c0.044-0.051-0.062-0.242-0.346-0.436c-0.277-0.193-0.746-0.369-1.282-0.336c-0.535,0.033-0.979,0.264-1.231,0.49
						C508.626,181.581,508.543,181.783,508.593,181.829z"/>
				</g>
			</g>
		</g>
	</g>
	<g>
		<g>
			<g>
				<circle fill="#263238" cx="519.425" cy="182.7" r="0.799"/>
			</g>
		</g>
		<g>
			<g>
				<g>
					<path fill="#263238" d="M518.129,181.829c0.104,0.104,0.693-0.398,1.554-0.444c0.859-0.059,1.506,0.368,1.596,0.252
						c0.044-0.051-0.062-0.242-0.346-0.436c-0.277-0.193-0.746-0.369-1.282-0.336c-0.535,0.033-0.979,0.264-1.231,0.49
						C518.162,181.581,518.079,181.783,518.129,181.829z"/>
				</g>
			</g>
		</g>
	</g>
	<g>
		<g>
			<path fill="#FAFAFA" d="M517.867,189.909c-1.07,0.53-2.967,1.294-4.159,1.432c0,0,1.061,1.514,2.852,0.809
				C518.415,191.42,517.867,189.909,517.867,189.909z"/>
		</g>
	</g>
	<g>
		<g>
			<path fill="#EB996E" d="M514.791,199.754c0,0,4.204,0.047,8.271-2.793c0,0-1.875,4.583-8.135,4.325L514.791,199.754z"/>
		</g>
	</g>
	<g>
		<g>
			<path fill="#EF7A78" d="M550.359,194.103c-0.554,0.031-1.378-0.059-2.263-0.512c-0.891-0.436-1.771-1.262-2.467-2.392
				c-0.707-1.12-1.256-2.507-1.845-3.955c-1.166-2.902-2.046-5.595-2.642-7.558c-0.094-0.311-0.179-0.595-0.26-0.866
				c-0.053-0.334-0.106-0.632-0.164-0.851c-3.406-13.019-14.849-15.446-17.112-15.446c-2.428,0-6.675-1.335-12.865,5.098
				c-1.038,1.079-1.788,2.17-2.349,3.242c-1.596,2.002-2.438,4.214-2.759,5.879c-0.377,1.901-0.218,3.104-0.145,3.098
				c0.117,0.005,0.137-1.179,0.622-2.985c0.238-0.906,0.625-1.972,1.197-3.074c-0.903,4.031,0.635,7.19,0.635,7.19l2.221-0.611
				l7.95-2.705c-0.723-2.463,0.341-5.52,0.942-6.945l0.06-0.055c1.82,9.345,12.116,10.316,12.116,10.316l-0.516,17.737
				c10.569-2.259,10.708-13.803,10.641-16.676c0.479,1.62,1.103,3.479,1.886,5.428c0.593,1.453,1.161,2.859,1.934,4.029
				c0.754,1.173,1.755,2.054,2.742,2.474c0.98,0.44,1.885,0.47,2.465,0.365c0.587-0.113,0.865-0.301,0.852-0.328
				C551.22,193.953,550.916,194.064,550.359,194.103z"/>
		</g>
	</g>
	<g>
		<g>
			<g>
				<path fill="#263238" d="M515.026,189.095c0.001-0.048-0.537-0.111-1.408-0.176c-0.219-0.011-0.435-0.043-0.48-0.205
					c-0.06-0.168,0.025-0.422,0.122-0.694c0.187-0.565,0.383-1.16,0.59-1.783c0.409-1.269,0.761-2.422,0.999-3.263
					c0.238-0.841,0.362-1.368,0.316-1.383c-0.045-0.015-0.252,0.486-0.55,1.308c-0.298,0.821-0.687,1.963-1.096,3.231
					c-0.197,0.626-0.386,1.224-0.564,1.792c-0.074,0.266-0.206,0.567-0.085,0.899c0.064,0.165,0.227,0.278,0.366,0.31
					c0.141,0.037,0.265,0.033,0.373,0.034C514.482,189.166,515.024,189.143,515.026,189.095z"/>
			</g>
		</g>
	</g>
	<g>
		<g>
			<path fill="#263238" d="M529.543,184.017c-1.946-0.384-3.583-0.655-4.145-0.693c0.068-0.333,0.117-0.67,0.12-1.016
				c-0.01-1.098-0.364-2.165-0.989-2.992c-0.608-0.837-1.463-1.439-2.355-1.752c-0.894-0.333-1.827-0.352-2.65-0.202
				c-0.829,0.155-1.544,0.527-2.105,0.961c-1.133,0.888-1.608,2.018-1.771,2.775c-0.086,0.384-0.111,0.691-0.106,0.897
				c0.001,0.207,0.007,0.314,0.02,0.314c0.039,0.002,0.02-0.436,0.218-1.178c0.197-0.728,0.691-1.793,1.788-2.613
				c0.544-0.4,1.226-0.739,2.01-0.873c0.778-0.129,1.656-0.101,2.488,0.22c0.833,0.301,1.627,0.869,2.191,1.653
				c0.58,0.774,0.906,1.767,0.916,2.791c-0.01,1.024-0.336,2.018-0.916,2.792c-0.563,0.785-1.358,1.353-2.191,1.654
				c-0.832,0.32-1.71,0.349-2.488,0.219c-0.784-0.134-1.467-0.473-2.01-0.873c-1.097-0.82-1.591-1.885-1.788-2.613
				c-0.106-0.399-0.149-0.702-0.173-0.903c0.156-0.031,0.255-0.074,0.255-0.121c0-0.05-0.115-0.095-0.292-0.126
				c-0.003-0.006-0.005-0.027-0.008-0.027c-0.002,0-0.003,0.021-0.005,0.026c-0.158-0.027-0.362-0.045-0.592-0.045
				c-0.309,0-0.567,0.032-0.729,0.078c0.001-0.02,0.005-0.04,0.005-0.06c-0.009-1.098-0.363-2.165-0.988-2.992
				c-0.609-0.837-1.463-1.439-2.356-1.752c-0.893-0.333-1.826-0.352-2.65-0.202c-0.829,0.155-1.543,0.527-2.104,0.961
				c-1.134,0.888-1.609,2.018-1.771,2.775c-0.086,0.384-0.111,0.691-0.106,0.897c0.001,0.207,0.007,0.314,0.019,0.314
				c0.039,0.002,0.02-0.436,0.219-1.178c0.196-0.728,0.691-1.793,1.788-2.613c0.543-0.4,1.226-0.739,2.01-0.873
				c0.778-0.129,1.655-0.101,2.488,0.22c0.833,0.301,1.627,0.869,2.19,1.653c0.58,0.774,0.906,1.767,0.916,2.791
				c-0.009,1.024-0.335,2.018-0.915,2.792c-0.564,0.785-1.358,1.353-2.191,1.654c-0.833,0.32-1.71,0.349-2.489,0.219
				c-0.784-0.134-1.466-0.473-2.009-0.873c-1.097-0.82-1.592-1.885-1.788-2.613c-0.199-0.742-0.18-1.18-0.219-1.178
				c-0.012,0-0.018,0.107-0.019,0.314c-0.005,0.206,0.021,0.513,0.106,0.897c0.161,0.757,0.637,1.887,1.771,2.775
				c0.561,0.434,1.275,0.806,2.104,0.96c0.824,0.15,1.758,0.131,2.65-0.202c0.894-0.313,1.748-0.915,2.356-1.753
				c0.578-0.764,0.911-1.737,0.968-2.747c0.159,0.048,0.426,0.082,0.744,0.082c0.223,0,0.421-0.017,0.578-0.043
				c0,0.013-0.001,0.017-0.001,0.03c-0.005,0.206,0.021,0.513,0.106,0.897c0.162,0.757,0.638,1.887,1.771,2.775
				c0.562,0.434,1.275,0.806,2.105,0.96c0.823,0.15,1.757,0.131,2.65-0.202c0.893-0.313,1.747-0.915,2.355-1.753
				c0.41-0.541,0.688-1.19,0.845-1.879c0.529,0.177,2.15,0.55,4.102,0.936c2.395,0.473,4.35,0.779,4.367,0.686
				C533.861,184.948,531.937,184.489,529.543,184.017z"/>
		</g>
	</g>
	<g>
		<g>
			<g>
				<path fill="#FFBE9D" d="M532.86,188.834c-0.037-1.041-0.04-2.111,0.335-3.083c0.375-0.971,1.21-1.831,2.245-1.939
					c1.191-0.124,2.345,0.866,2.535,2.049c0.189,1.183-0.5,2.415-1.544,3.002c-1.044,0.588-2.367,0.571-3.468,0.097"/>
			</g>
		</g>
		<g>
			<g>
				<g>
					<path fill="#EB996E" d="M534.681,187.925c0.038-0.069,0.338,0.084,0.778-0.05c0.443-0.107,0.898-0.612,0.936-1.327
						c0.025-0.35-0.051-0.675-0.223-0.832c-0.175-0.167-0.457-0.215-0.681-0.203c-0.468,0.041-0.797,0.166-0.824,0.086
						c-0.02-0.052,0.211-0.291,0.77-0.45c0.278-0.062,0.681-0.079,1.048,0.203c0.367,0.301,0.46,0.8,0.43,1.23
						c-0.028,0.446-0.197,0.867-0.466,1.167c-0.265,0.305-0.627,0.458-0.919,0.487C534.913,188.297,534.63,187.963,534.681,187.925z
						"/>
				</g>
			</g>
		</g>
	</g>
	<g>
		<g>
			<path fill="#F0C63D" d="M558.862,425.576l-7.528-5.109l9.481-14.163l11.093,7.358l-0.531,0.916
				c-2.399,4.054-12.485,20.441-15.026,22.523C553.517,439.424,558.862,425.576,558.862,425.576z"/>
		</g>
	</g>
	<g>
		<g>
			
				<ellipse transform="matrix(-0.5616 0.8274 -0.8274 -0.5616 1231.657 197.7805)" fill="#263238" cx="563.432" cy="425.186" rx="14.238" ry="0.292"/>
		</g>
	</g>
	<g>
		<g>
			<g>
				<path fill="#263238" d="M560.23,426.867c-0.014,0.162-0.473,0.252-1.023,0.287c-0.551,0.031-1.017-0.003-1.05-0.162
					c-0.034-0.155,0.416-0.385,1.015-0.42C559.771,426.535,560.246,426.709,560.23,426.867z"/>
			</g>
		</g>
	</g>
	<g>
		<g>
			<g>
				<path fill="#263238" d="M560.116,428.104c-0.035,0.159-0.548,0.18-1.158,0.143c-0.609-0.04-1.116-0.126-1.131-0.289
					c-0.015-0.158,0.509-0.336,1.168-0.292C559.654,427.706,560.151,427.948,560.116,428.104z"/>
			</g>
		</g>
	</g>
	<g>
		<g>
			<g>
				<path fill="#263238" d="M568.493,417.62c-0.074,0.026-0.265-0.267-0.493-0.779c-0.222-0.512-0.497-1.266-0.531-2.165
					c-0.032-0.905,0.268-1.719,0.64-2.186c0.371-0.477,0.735-0.607,0.772-0.548c0.054,0.07-0.193,0.309-0.426,0.77
					c-0.236,0.455-0.431,1.156-0.403,1.945c0.028,0.794,0.22,1.519,0.34,2.053C568.516,417.245,568.571,417.592,568.493,417.62z"/>
			</g>
		</g>
	</g>
	<g>
		<g>
			<g>
				<path fill="#263238" d="M558.786,425.949c-0.07-0.146,0.206-0.424,0.569-0.694c0.365-0.268,0.711-0.45,0.831-0.34
					c0.118,0.107-0.07,0.504-0.485,0.809C559.288,426.03,558.854,426.094,558.786,425.949z"/>
			</g>
		</g>
	</g>
	<g>
		<g>
			<g>
				<path fill="#263238" d="M558.209,425.234c-0.124-0.103,0.029-0.551,0.344-1.002c0.314-0.45,0.684-0.749,0.822-0.668
					c0.139,0.082-0.015,0.53-0.344,1.002C558.701,425.038,558.334,425.337,558.209,425.234z"/>
			</g>
		</g>
	</g>
	<g>
		<g>
			<path fill="#F0C63D" d="M470.112,437.218v-9.099l17.043-0.109l0.141,13.311l-1.056,0.075c-4.702,0.291-23.925,1.149-27.075,0.216
				C455.652,440.571,470.112,437.218,470.112,437.218z"/>
		</g>
	</g>
	<g>
		<path fill="#FFBE9D" d="M513.111,227.1l-18.447-6.169c0,0-8.152,23.486-10.651,23.714c-13.843,1.263-28.654-3.327-33.848-5.142
			c-0.527-0.592-1.129-1.303-1.8-2.173c-0.574-0.747-1.011-1.591-1.303-2.487c-0.354-1.086-0.765-2.549-0.741-3.42
			c0.029-1.077-1.267-1.63-1.866-0.855s-0.752,3.741,0.614,6.933c1.366,3.19-3.47,0.652-5.249-0.241s-7.413-3.399-8.121-3.07
			c-1.038,0.483-0.712,1.685,1.086,2.535c1.819,0.861,7.008,3.782,6.49,4.699c-0.509,0.903-9.504-3.769-9.504-3.769
			s-1.761-1.31-2.394-0.271c-1.142,1.875,8.786,6.138,9.741,6.52c0.663,0.266,0.137,1.282-0.561,0.959
			c-0.718-0.333-8.863-4.869-10.044-2.971c-0.905,1.456,8.134,3.582,9.301,5.461c1.167,1.88-6.691-2.309-7.499-0.882
			c-0.301,0.531-0.452,0.969,4.408,2.723c2.358,0.852,6.806,1.899,10.832,2.766l-0.018,0.05c0,0,48.548,21.71,59.019,0.782
			C513.668,230.584,513.111,227.1,513.111,227.1z"/>
	</g>
	<g>
		<g>
			<g>
				<path fill="#455A64" d="M501.81,278.695c0,0-11.772,78.216-10.077,81.957c1.695,3.742,62.218,68.016,62.218,68.016l14.164-24.26
					c0,0-47.756-53.3-47.397-54.736c0.359-1.437,16.921-77.463,16.921-77.463L501.81,278.695z"/>
			</g>
		</g>
		<g>
			<g>
				<polygon fill="#263238" points="504.384,375.306 514.331,353.454 524.277,331.603 507.518,360.652 				"/>
			</g>
		</g>
		<g>
			<g>
				<g>
					<path fill="#263238" d="M510.306,355.819c0.021,0,0.043,0.292,0.062,0.855c0.015,0.624,0.034,1.445,0.058,2.479l-0.028-0.078
						c3.791,4.282,12.194,14.012,21.89,25.361c6.562,7.734,12.502,14.732,16.855,19.862c2.101,2.52,3.817,4.577,5.057,6.062
						c0.557,0.687,1.006,1.24,1.353,1.668c0.304,0.385,0.456,0.594,0.441,0.606c-0.016,0.014-0.198-0.17-0.531-0.53
						c-0.368-0.41-0.845-0.939-1.436-1.597c-1.273-1.456-3.037-3.473-5.197-5.942c-4.388-5.102-10.372-12.061-16.985-19.751
						c-9.695-11.351-17.992-21.171-21.629-25.584l-0.03-0.036l0.001-0.042c0.024-1.033,0.044-1.854,0.058-2.479
						C510.264,356.111,510.284,355.819,510.306,355.819z"/>
				</g>
			</g>
		</g>
		<g>
			<g>
				<g>
					
						<ellipse transform="matrix(0.5504 -0.8349 0.8349 0.5504 -93.1638 648.9474)" fill="#263238" cx="555.951" cy="410.974" rx="13.846" ry="0.291"/>
				</g>
			</g>
		</g>
		<g>
			<g>
				<path fill="#263238" d="M497.548,308.072c0.116-0.82,9.517-21.963,9.517-21.963l-4.564-6.438l-0.811-0.175L497.548,308.072z"/>
			</g>
		</g>
	</g>
	<g>
		<g>
			<g>
				<path fill="#455A64" d="M511.027,277.938l-9.338,1.559l5.375,6.613c-8.676,19.617-26.585,61.16-28.737,74.543
					c-2.853,17.745-13.625,73.153-12.548,73.996c1.077,0.842,25.914,0,25.914,0l15.824-73.996l34.973-60.62
					c4.354-7.548,5.627-16.485,3.554-24.95l-0.704-2.873"/>
			</g>
		</g>
		<g>
			<g>
				<g>
					<path fill="#263238" d="M483.052,426.447c-0.01-0.002,0.006-0.143,0.044-0.415c0.047-0.301,0.107-0.7,0.186-1.207
						c0.183-1.093,0.441-2.646,0.771-4.632c0.704-4.051,1.713-9.854,2.957-17.012c1.284-7.187,2.811-15.729,4.505-25.209
						c0.874-4.741,1.791-9.717,2.742-14.874c0.248-1.288,0.499-2.587,0.752-3.897c0.136-0.656,0.248-1.309,0.405-1.976
						c0.081-0.331,0.137-0.669,0.238-0.996l0.37-0.967c1.025-2.533,2.142-5.031,3.26-7.583
						c9.049-20.333,17.471-38.631,23.562-51.878c3.056-6.591,5.533-11.935,7.263-15.664c0.858-1.819,1.531-3.243,2.004-4.245
						c0.225-0.461,0.401-0.824,0.535-1.098c0.123-0.246,0.191-0.369,0.2-0.365s-0.041,0.137-0.146,0.391
						c-0.12,0.279-0.279,0.65-0.482,1.121c-0.449,1.013-1.088,2.452-1.904,4.291c-1.689,3.748-4.109,9.117-7.094,15.741
						c-5.994,13.289-14.357,31.616-23.403,51.942c-1.115,2.542-2.241,5.062-3.25,7.548l-0.356,0.926
						c-0.099,0.315-0.153,0.646-0.231,0.967c-0.152,0.641-0.269,1.309-0.403,1.958c-0.255,1.308-0.507,2.605-0.757,3.892
						c-0.962,5.153-1.891,10.125-2.775,14.863c-1.74,9.472-3.308,18.006-4.627,25.186c-1.32,7.144-2.392,12.937-3.139,16.979
						c-0.377,1.977-0.672,3.524-0.879,4.612c-0.103,0.503-0.183,0.898-0.243,1.197C483.097,426.312,483.062,426.448,483.052,426.447
						z"/>
				</g>
			</g>
		</g>
		<g>
			<g>
				<g>
					
						<ellipse transform="matrix(0.9998 0.018 -0.018 0.9998 7.758 -8.5561)" fill="#263238" cx="479.864" cy="427.306" rx="13.311" ry="0.291"/>
				</g>
			</g>
		</g>
		<g>
			<g>
				<polygon fill="#263238" points="501.689,279.496 502.047,280.346 546.916,276.714 545.34,272.209 				"/>
			</g>
		</g>
	</g>
	<g>
		<g>
			<path fill="#263238" d="M520.224,206.398l-3.016,12.117l-0.104-8.715l0.223-1.939l0.273-1.462l-3.979-1.349l-2.056,3.202
				l-0.6,0.041c0,0-16.158-1.607-21.81,19.736l-5.161,12.645l15.642,7.805l0.022,1.012l0.952,30.183l45.199-7.32
				c0.178-6.775-6.735-19.057-5.212-25.196l5.212-21.015l-6.832-19.576l-4.726,0.147l0,0l-2.666-3.141L520.224,206.398"/>
		</g>
	</g>
	<g>
		<g>
			<g>
				<path fill="#455A64" d="M499.906,248.253c-0.015,0.031-0.384-0.113-0.971-0.512c-0.573-0.408-1.392-1.071-2.09-2.154
					c-0.711-1.062-1.205-2.619-1.064-4.316c0.064-1.684,0.605-3.557,1.756-5.155c0.879-1.246,1.999-2.213,3.205-2.865l-0.138,0.188
					c0.374-2.771,0.713-5.153,0.974-6.84c0.26-1.687,0.441-2.678,0.499-2.67c0.058,0.009-0.019,1.015-0.192,2.713
					c-0.175,1.698-0.449,4.089-0.789,6.866l-0.015,0.12l-0.122,0.068c-1.083,0.604-2.178,1.548-2.998,2.721
					c-1.087,1.513-1.612,3.271-1.701,4.883c-0.157,1.616,0.264,3.052,0.898,4.093c0.624,1.055,1.376,1.74,1.899,2.187
					C499.594,248.018,499.924,248.22,499.906,248.253z"/>
			</g>
		</g>
	</g>
	<g>
		<g>
			<g>
				
					<ellipse transform="matrix(0.4395 0.8982 -0.8982 0.4395 484.0186 -323.0225)" fill="#455A64" cx="500.851" cy="226.338" rx="1.731" ry="0.261"/>
			</g>
		</g>
	</g>
	<g>
		<g>
			<path fill="#EF7A78" d="M455.399,219.363l142.185,27.312c10.139,1.947,16.52,11.213,15.367,21.765
				c-0.016,0.147-0.051,0.292-0.078,0.438c-1.93,10.498-12.204,17.302-22.667,15.191l-139.34-28.101l-30.728-24.588L455.399,219.363
				z"/>
		</g>
	</g>
	<g>
		<g>
			<path fill="#E0E0E0" d="M455.399,219.363c0,0,7.762,2.909,6.162,10.354s-9.106,7.131-9.106,7.131s7.297,1.618,5.272,12.052
				c-1.304,6.718-6.861,7.069-6.861,7.069l-30.728-24.588L455.399,219.363z"/>
		</g>
	</g>
	<g>
		<g>
			<path fill="#455A64" d="M426.822,236.729c2.999-1.499,4.053-5.466,2.967-8.638l-9.65,3.289L426.822,236.729z"/>
		</g>
	</g>
	<g>
		<g>
			<g>
				<path fill="#455A64" d="M595.672,265.861c-0.002,0.009-0.129-0.007-0.376-0.045c-0.271-0.045-0.633-0.105-1.093-0.182
					c-0.987-0.178-2.394-0.429-4.19-0.751c-3.639-0.659-8.896-1.65-15.389-2.901c-12.984-2.498-30.895-6.088-50.651-10.165
					c-19.744-4.107-37.616-7.825-50.586-10.522c-6.448-1.351-11.677-2.445-15.324-3.21c-1.785-0.382-3.182-0.682-4.163-0.892
					c-0.454-0.104-0.812-0.185-1.08-0.245c-0.242-0.058-0.366-0.092-0.364-0.101s0.129,0.008,0.375,0.049
					c0.271,0.048,0.632,0.112,1.091,0.193c0.985,0.188,2.389,0.455,4.182,0.797c3.656,0.726,8.896,1.765,15.358,3.047
					c12.978,2.66,30.86,6.325,50.617,10.374c19.756,4.077,37.652,7.724,50.617,10.313c6.461,1.289,11.7,2.334,15.355,3.063
					c1.789,0.363,3.188,0.647,4.173,0.847c0.455,0.098,0.813,0.175,1.082,0.233C595.55,265.819,595.673,265.853,595.672,265.861z"/>
			</g>
		</g>
	</g>
	<g>
		<g>
			<path fill="#455A64" d="M590.206,284.069c10.463,2.11,20.737-4.693,22.667-15.191c0.027-0.146,0.062-0.291,0.078-0.438
				c1.152-10.552-5.229-19.817-15.367-21.765L590.206,284.069z"/>
		</g>
	</g>
	<g>
		<g>
			<g>
				<path fill="#FFBE9D" d="M533.698,225.055c0,0-8.649,27.295-11.082,27.915c-13.473,3.437-28.829,1.243-34.239,0.272
					c-0.611-0.499-1.323-1.113-2.115-1.86c-0.686-0.646-1.25-1.41-1.68-2.249c-0.521-1.017-1.158-2.396-1.272-3.26
					c-0.142-1.068-1.509-1.409-1.979-0.55s-0.151,3.813,1.702,6.748c0,0-10.847,6.88-13.218,6.825s-9.152-0.229-8.446,0.706
					s8.446,2.232,8.446,2.232l14.011,4.753c0,0,51.36,13.813,58.39-8.506c4.309-13.68,7.281-21.731,7.951-24.999L533.698,225.055z"
					/>
			</g>
		</g>
	</g>
	<g>
		<g>
			<path fill="#263238" d="M539.072,206.572c0,0,11.298,2.034,11.739,20.5c0.441,18.466-7.077,32.545-7.077,32.545l-19.883-10.44
				c4.464-9.04,7.886-18.393,10.027-28.131l5.161-14.479L539.072,206.572z"/>
		</g>
	</g>
	<g>
		<g>
			<g>
				<path fill="#455A64" d="M533.268,222.078c0.036,0.007-0.01,0.409-0.124,1.132c-0.109,0.723-0.307,1.763-0.582,3.041
					c-0.55,2.557-1.468,6.059-2.773,9.833c-1.31,3.774-2.756,7.095-3.906,9.442c-0.573,1.175-1.062,2.114-1.423,2.75
					c-0.358,0.638-0.57,0.982-0.603,0.966s0.12-0.393,0.421-1.057c0.347-0.767,0.771-1.706,1.271-2.814
					c1.061-2.38,2.444-5.703,3.747-9.457c1.299-3.755,2.268-7.222,2.907-9.748c0.292-1.18,0.54-2.181,0.742-2.997
					C533.119,222.461,533.232,222.071,533.268,222.078z"/>
			</g>
		</g>
	</g>
</g>
</svg>
