<svg id="Calque_1" data-name="Calque 1" xmlns="http://www.w3.org/2000/svg" xmlns:xlink="http://www.w3.org/1999/xlink" viewBox="0 0 170.88 244.7"><defs><style>.cls-1{fill:none;}.cls-2{fill:#e95260;}.cls-3{opacity:0.5;}.cls-4{clip-path:url(#clip-path);}.cls-5{fill:#63559f;}.cls-6{fill:#192e35;}.cls-7{fill:#465a64;}.cls-8{fill:#ebebea;}.cls-9{fill:#385a65;}.cls-10{opacity:0.7;}.cls-11{clip-path:url(#clip-path-2);}.cls-12{fill:#fff;}.cls-13{clip-path:url(#clip-path-3);}.cls-14{clip-path:url(#clip-path-4);}.cls-15{fill:#e0e0df;}.cls-16{fill:#57bdc3;}</style><clipPath id="clip-path"><rect class="cls-1" x="122.45" y="20.49" width="5.16" height="8.16"/></clipPath><clipPath id="clip-path-2"><rect class="cls-1" x="117.79" y="64.74" width="27.48" height="27.48"/></clipPath><clipPath id="clip-path-3"><rect class="cls-1" x="117.79" y="108.68" width="27.48" height="27.48"/></clipPath><clipPath id="clip-path-4"><rect class="cls-1" x="117.79" y="152.62" width="27.48" height="27.48"/></clipPath></defs><title>initial-7</title><path class="cls-2" d="M123,20.49a2.93,2.93,0,0,0-.08,2.22,4.32,4.32,0,0,1,.22,2.24c-.14.47-.45.88-.58,1.35a2,2,0,0,0,1.11,2.35l4-1.79a15.35,15.35,0,0,1-1.91-5.73"/><g class="cls-3"><g class="cls-4"><path d="M123,20.49a2.93,2.93,0,0,0-.08,2.22,4.32,4.32,0,0,1,.22,2.24c-.14.47-.45.88-.58,1.35a2,2,0,0,0,1.11,2.35l4-1.79a15.35,15.35,0,0,1-1.91-5.73"/></g></g><path class="cls-5" d="M133.33,19.56c-1.17.28.79,2.27.69,3.47a7.56,7.56,0,0,0,.22,3.58,15,15,0,0,0,6.87-1.56l-1.65-7s-5.08,1.31-6.13,1.56"/><rect class="cls-6" x="70.01" width="36.23" height="52.36"/><rect class="cls-7" x="37.42" width="36.23" height="52.36"/><path class="cls-6" d="M46.08,41.79a3.12,3.12,0,0,1,0-.53c0-.41,0-.94,0-1.62,0-1.47,0-3.54-.07-6.13,0-5.34-.06-12.82-.11-21.56v-.24h.24l16.44,0c-.05,0,.5.5.26.27h0v8.35c0,2.71,0,5.34,0,7.86,0,5,0,9.63-.05,13.61V42h-.2l-12.07-.1-3.26,0-.84,0q-.29,0-.27,0l.31,0,.88,0,3.3,0,12-.1-.2.2c0-4,0-8.58,0-13.61q0-3.8,0-7.87c0-1.35,0-2.73,0-4.12V12h0l.26.26-16.44,0,.24-.24c0,8.67-.09,16.09-.11,21.39,0,2.61-.05,4.7-.07,6.19,0,.69,0,1.24,0,1.66a4.83,4.83,0,0,1,0,.59"/><path class="cls-6" d="M49.37,28.48c0-.07.39-.06.6.42a1,1,0,0,1-.09.88.94.94,0,0,1-1.07.29.92.92,0,0,1-.64-.9.89.89,0,0,1,.47-.73c.47-.25.78,0,.73,0s-.27,0-.52.26a.48.48,0,1,0,.76.27c0-.33-.26-.46-.24-.53"/><path class="cls-6" d="M.12,43.12s0-.23,0-.69,0-1.15,0-2C.05,38.6,0,36,0,32.53v-.11H.12c15.36-.09,47.52-.15,84.64-.15,38.15,0,71.06.06,86,.15h.11v.11c0,3,0,5.28,0,6.86,0,.75,0,1.34,0,1.76s0,.59,0,.59,0-.2,0-.59,0-1,0-1.76c0-1.58,0-3.88-.06-6.86l.11.11c-15,.09-47.86.15-86,.15-37.12,0-69.28-.06-84.64-.14l.12-.12c0,3.43,0,6.07-.06,7.88,0,.87,0,1.54,0,2s0,.69,0,.69"/><path class="cls-6" d="M165.3,42.81a24.85,24.85,0,0,1-.26-5,24.85,24.85,0,0,1,.26-5,24.85,24.85,0,0,1,.26,5,24.85,24.85,0,0,1-.26,5"/><path class="cls-6" d="M158.77,42.81a23.58,23.58,0,0,1-.27-5,23.58,23.58,0,0,1,.27-5,24.85,24.85,0,0,1,.26,5,24.85,24.85,0,0,1-.26,5"/><path class="cls-6" d="M145.69,42.81a4.6,4.6,0,0,1-.05-.64c0-.47,0-1.08,0-1.83,0-1.66,0-4-.08-6.78,0-5.8-.05-13.77-.09-22.71v-.26h.27l3.24,0,3.29,0h.26v.26c0,8.94-.06,16.89-.08,22.68,0,2.83-.07,5.12-.08,6.78,0,.75,0,1.36-.05,1.82a3.2,3.2,0,0,1-.05.64,3.2,3.2,0,0,1,0-.64c0-.46,0-1.07-.05-1.82,0-1.66,0-4-.08-6.78,0-5.79-.05-13.74-.08-22.68l.26.26-3.29,0-3.24,0,.26-.26c0,8.94-.07,16.91-.09,22.71,0,2.83-.06,5.12-.08,6.78,0,.75,0,1.36,0,1.83a2.69,2.69,0,0,1-.06.64"/><path class="cls-6" d="M139.16,42.81a24,24,0,0,1-.26-5,24.85,24.85,0,0,1,.26-5,24.85,24.85,0,0,1,.26,5,24.85,24.85,0,0,1-.26,5"/><path class="cls-6" d="M132.63,42.81a23.58,23.58,0,0,1-.27-5,23.58,23.58,0,0,1,.27-5,24.85,24.85,0,0,1,.26,5,24.85,24.85,0,0,1-.26,5"/><path class="cls-6" d="M126.09,42.81a24,24,0,0,1-.26-5,24,24,0,0,1,.26-5,24.85,24.85,0,0,1,.26,5,24.85,24.85,0,0,1-.26,5"/><path class="cls-6" d="M119.56,42.81a23.58,23.58,0,0,1-.27-5,23.58,23.58,0,0,1,.27-5,24.85,24.85,0,0,1,.26,5,24.85,24.85,0,0,1-.26,5"/><path class="cls-6" d="M113,42.81a24.85,24.85,0,0,1-.26-5,24.85,24.85,0,0,1,.26-5,24,24,0,0,1,.26,5,24.85,24.85,0,0,1-.26,5"/><path class="cls-6" d="M106.49,42.81a23.58,23.58,0,0,1-.27-5,23.58,23.58,0,0,1,.27-5,24.85,24.85,0,0,1,.26,5,24.85,24.85,0,0,1-.26,5"/><path class="cls-6" d="M100,42.81a24,24,0,0,1-.26-5,24,24,0,0,1,.26-5,24.85,24.85,0,0,1,.26,5,24,24,0,0,1-.26,5"/><path class="cls-6" d="M93.42,42.81a23.58,23.58,0,0,1-.27-5,23.58,23.58,0,0,1,.27-5,24.85,24.85,0,0,1,.26,5,24.85,24.85,0,0,1-.26,5"/><path class="cls-6" d="M86.88,42.81a24.85,24.85,0,0,1-.26-5,24.85,24.85,0,0,1,.26-5,24,24,0,0,1,.26,5,24.85,24.85,0,0,1-.26,5"/><path class="cls-6" d="M80.35,42.81a24,24,0,0,1-.26-5,24,24,0,0,1,.26-5,24.85,24.85,0,0,1,.26,5,24.85,24.85,0,0,1-.26,5"/><path class="cls-6" d="M73.81,42.81a24.85,24.85,0,0,1-.26-5,24.85,24.85,0,0,1,.26-5,24,24,0,0,1,.26,5,24,24,0,0,1-.26,5"/><path class="cls-6" d="M67.28,42.81a24,24,0,0,1-.26-5,24,24,0,0,1,.26-5,24.85,24.85,0,0,1,.26,5,24.85,24.85,0,0,1-.26,5"/><path class="cls-6" d="M60.74,42.81a24.85,24.85,0,0,1-.26-5,24.85,24.85,0,0,1,.26-5,24,24,0,0,1,.26,5,24,24,0,0,1-.26,5"/><path class="cls-6" d="M54.21,42.81a24,24,0,0,1-.26-5,24,24,0,0,1,.26-5,24.85,24.85,0,0,1,.26,5,24.85,24.85,0,0,1-.26,5"/><path class="cls-6" d="M47.67,42.81a24.85,24.85,0,0,1-.26-5,24.85,24.85,0,0,1,.26-5,24,24,0,0,1,.26,5,24,24,0,0,1-.26,5"/><path class="cls-6" d="M41.14,42.81a24,24,0,0,1-.26-5,24,24,0,0,1,.26-5,24.85,24.85,0,0,1,.26,5,24.85,24.85,0,0,1-.26,5"/><path class="cls-6" d="M34.6,42.81a24.85,24.85,0,0,1-.26-5,24.85,24.85,0,0,1,.26-5,24,24,0,0,1,.26,5,24,24,0,0,1-.26,5"/><path class="cls-6" d="M28.07,42.81a24,24,0,0,1-.26-5,24,24,0,0,1,.26-5,24.85,24.85,0,0,1,.26,5,24.85,24.85,0,0,1-.26,5"/><path class="cls-6" d="M21.53,42.81a24.85,24.85,0,0,1-.26-5,24.85,24.85,0,0,1,.26-5,24,24,0,0,1,.26,5,24,24,0,0,1-.26,5"/><path class="cls-6" d="M15,42.81a24,24,0,0,1-.26-5,24,24,0,0,1,.26-5,24.85,24.85,0,0,1,.26,5,24.85,24.85,0,0,1-.26,5"/><path class="cls-6" d="M8.47,42.81a23.58,23.58,0,0,1-.27-5,23.58,23.58,0,0,1,.27-5,24.85,24.85,0,0,1,.26,5,24.85,24.85,0,0,1-.26,5"/><path class="cls-6" d="M.12,41.79c0-.14,20.16-.26,45-.26s45,.12,45,.26-20.16.27-45,.27-45-.12-45-.27"/><rect class="cls-7" x="0.12" y="41.79" width="150.24" height="202.49"/><polygon class="cls-6" points="90.19 244.28 170.77 244.38 170.77 41.8 90.19 41.8 90.19 244.28"/><rect class="cls-8" x="11.14" y="151.66" width="27.48" height="27.48"/><path class="cls-9" d="M23.83,181.9c-.15,0-.26-7.11-.26-15.86s.11-15.86.26-15.86.26,7.1.26,15.86S24,181.9,23.83,181.9"/><path class="cls-9" d="M6,160.87c0-.14,8-.26,17.85-.26s17.85.12,17.85.26-8,.26-17.85.26S6,161,6,160.87"/><rect class="cls-8" x="50.33" y="151.66" width="27.48" height="27.48"/><path class="cls-9" d="M63,181.9c-.15,0-.26-7.11-.26-15.86s.11-15.86.26-15.86.26,7.1.26,15.86S63.16,181.9,63,181.9"/><path class="cls-9" d="M45.17,160.87c0-.14,8-.26,17.85-.26s17.85.12,17.85.26-8,.26-17.85.26-17.85-.11-17.85-.26"/><rect class="cls-8" x="11.14" y="108.25" width="27.48" height="27.48"/><path class="cls-9" d="M23.83,138.48c-.15,0-.26-7.1-.26-15.85s.11-15.86.26-15.86.26,7.1.26,15.86-.12,15.85-.26,15.85"/><path class="cls-9" d="M6,117.46c0-.14,8-.26,17.85-.26s17.85.12,17.85.26-8,.26-17.85.26S6,117.61,6,117.46"/><rect class="cls-8" x="50.33" y="108.25" width="27.48" height="27.48"/><path class="cls-9" d="M63,138.48c-.15,0-.26-7.1-.26-15.85s.11-15.86.26-15.86.26,7.1.26,15.86-.12,15.85-.26,15.85"/><path class="cls-9" d="M45.17,117.46c0-.14,8-.26,17.85-.26s17.85.12,17.85.26-8,.26-17.85.26-17.85-.11-17.85-.26"/><rect class="cls-8" x="11.14" y="64.74" width="27.48" height="27.48"/><path class="cls-9" d="M23.83,95c-.15,0-.26-7.1-.26-15.85s.11-15.86.26-15.86.26,7.1.26,15.86S24,95,23.83,95"/><path class="cls-9" d="M6,74c0-.14,8-.26,17.85-.26s17.85.12,17.85.26-8,.26-17.85.26S6,74.1,6,74"/><rect class="cls-8" x="50.33" y="64.74" width="27.48" height="27.48"/><path class="cls-9" d="M63,95c-.15,0-.26-7.1-.26-15.85s.11-15.86.26-15.86.26,7.1.26,15.86S63.16,95,63,95"/><path class="cls-9" d="M45.17,74c0-.14,8-.26,17.85-.26s17.85.12,17.85.26-8,.26-17.85.26S45.17,74.1,45.17,74"/><g class="cls-10"><g class="cls-11"><rect class="cls-12" x="117.79" y="64.74" width="27.48" height="27.48"/></g></g><path class="cls-6" d="M131.53,95c-.14,0-.26-7.1-.26-15.85s.12-15.86.26-15.86.26,7.1.26,15.86S131.68,95,131.53,95"/><path class="cls-6" d="M112.63,74c0-.14,8-.26,17.85-.26s17.85.12,17.85.26-8,.26-17.85.26-17.85-.11-17.85-.26"/><g class="cls-10"><g class="cls-13"><rect class="cls-12" x="117.79" y="108.68" width="27.48" height="27.48"/></g></g><path class="cls-6" d="M131.53,138.91c-.14,0-.26-7.1-.26-15.85s.12-15.86.26-15.86.26,7.1.26,15.86-.11,15.85-.26,15.85"/><path class="cls-6" d="M112.63,117.89c0-.14,8-.26,17.85-.26s17.85.12,17.85.26-8,.26-17.85.26-17.85-.11-17.85-.26"/><g class="cls-10"><g class="cls-14"><rect class="cls-12" x="117.79" y="152.62" width="27.48" height="27.48"/></g></g><path class="cls-6" d="M131.53,182.85c-.14,0-.26-7.1-.26-15.85s.12-15.86.26-15.86.26,7.1.26,15.86-.11,15.85-.26,15.85"/><path class="cls-6" d="M112.63,161.83c0-.14,8-.26,17.85-.26s17.85.12,17.85.26-8,.26-17.85.26-17.85-.12-17.85-.26"/><path class="cls-6" d="M31.62,244.24s0-.09,0-.25,0-.42,0-.72c0-.68,0-1.61,0-2.81,0-2.48-.05-6-.08-10.46,0-8.94-.05-21.41-.09-35.7v-.25H60v.26c0,14.41-.06,27-.09,36,0,4.48-.06,8.06-.07,10.57,0,1.2,0,2.15-.05,2.83,0,.3,0,.54,0,.73a1.15,1.15,0,0,1,0,.25.67.67,0,0,1,0-.25c0-.19,0-.43,0-.73,0-.68,0-1.63,0-2.83,0-2.51,0-6.1-.08-10.57,0-9,0-21.61-.09-36l.26.25H31.63l.25-.25c0,14.29-.07,26.76-.09,35.7,0,4.43-.06,8-.07,10.46,0,1.2,0,2.13,0,2.81,0,.29,0,.53,0,.72a.87.87,0,0,1,0,.25"/><rect class="cls-15" x="46.64" y="197.27" width="9.6" height="22.98"/><path class="cls-6" d="M56.27,220.27H46.62v-23h9.65Zm-9.6-.05h9.55V197.29H46.67Z"/><rect class="cls-15" x="35.17" y="197.27" width="9.6" height="22.98"/><path class="cls-6" d="M44.79,220.27H35.14v-23h9.65Zm-9.6-.05h9.55V197.29H35.19Z"/><path class="cls-6" d="M35,222.62c0,.08-.47.07-.69.62a1.13,1.13,0,0,0,0,.92.93.93,0,0,0,.92.46,1,1,0,0,0,.7-.78.9.9,0,0,0-.33-.83c-.45-.38-.89-.28-.9-.36s.45-.34,1.12.07a1.24,1.24,0,0,1,.58,1.18,1.39,1.39,0,0,1-1.07,1.23,1.34,1.34,0,0,1-1.44-.75,1.4,1.4,0,0,1,.09-1.31,1,1,0,0,1,.71-.51c.21,0,.31,0,.31.06"/><path class="cls-6" d="M5.43,194.3s0-.11,0-.32,0-.59,0-1q0-1.41,0-3.66v-.06h.06l16,0c.05.05-.1-.11.11.1h0v5h-.11L10,194.35l-3.34,0-.89,0h-.3l.32,0h.91l3.37,0,11.44,0-.1.1c0-.79,0-1.59,0-2.42v-2.5h0c.21.21.06.06.1.11l-16,0,.07-.06c0,1.47,0,2.68,0,3.61,0,.38,0,.7,0,1s0,.34,0,.34"/><path class="cls-6" d="M67.81,184.08s0-.11,0-.32,0-.59,0-1c0-.93,0-2.15,0-3.65v-.07h.06l16,0,.1.1h0v5h-.1l-11.51-.05-3.34,0H67.81l.32,0H69l3.36,0,11.44,0-.1.1v-2.42c0-.41,0-.83,0-1.25v-1.25h0l.11.1-16,0,.06-.07c0,1.48,0,2.69,0,3.62,0,.37,0,.69,0,1s0,.35,0,.35"/><path class="cls-6" d="M77.81,143.9s0-.11,0-.32,0-.59,0-1c0-.94,0-2.16,0-3.66v-.07h.07l16,0s-.1-.11.11.1h0v5h-.11L82.34,144l-3.34,0H77.81l.32,0H79l3.37,0,11.43-.05-.1.11V139h0l.1.1-16,0,.07-.07c0,1.48,0,2.69,0,3.62,0,.38,0,.69,0,1s0,.35,0,.35"/><path class="cls-6" d="M20.17,100.65s0-.11,0-.32,0-.59,0-1c0-.94,0-2.16,0-3.66v-.06h.07l16,0,.1.1h0v5h-.1l-11.51,0-3.34,0H20.17l.32,0h.91l3.36,0,11.44,0-.1.1V95.73h0c.21.21,0,.06.1.11l-16,0,.06-.07c0,1.48,0,2.69,0,3.62,0,.38,0,.7,0,1s0,.35,0,.35"/><path class="cls-6" d="M65.8,54.49s0-.11,0-.32,0-.59,0-1c0-.94,0-2.16,0-3.66v-.06h.07l16,0,.1.1h0v5h-.1l-11.51,0-3.34,0-.89,0H65.8l.32,0H67l3.36,0,11.44,0-.1.1V52.07c0-.41,0-.83,0-1.25V49.57h0c.21.21.06.06.11.1l-16,0,.06-.07c0,1.48,0,2.69,0,3.62,0,.37,0,.69,0,1s0,.35,0,.35"/><path class="cls-6" d="M10.45,105.43s0-.1,0-.32,0-.59,0-1q0-1.41,0-3.66v-.06h.06l16,0c.05,0-.1-.11.11.1h0v5h-.11l-11.5,0-3.34,0-.89,0h0l.91,0,3.37,0,11.44,0-.1.1c0-.78,0-1.59,0-2.42v-2.5h0l.11.11-16,0,.07-.06c0,1.48,0,2.68,0,3.61,0,.38,0,.7,0,1s0,.34,0,.34"/><path class="cls-6" d="M84.69,148.73s0-.1,0-.32,0-.59,0-1c0-.94,0-2.16,0-3.66v-.06h.07l16,0,.11.11h0v2.5c0,.82,0,1.63,0,2.42v.1h-.1l-11.51-.05-3.34,0H85a1.64,1.64,0,0,1-.29,0h1.23l3.37,0,11.43-.05-.1.1v-4.92h0c.21.21.06.06.1.11l-16,0,.07-.06c0,1.47,0,2.68,0,3.61,0,.38,0,.7,0,1s0,.34,0,.34"/><path class="cls-6" d="M77.81,59.43s0-.11,0-.32,0-.59,0-1c0-.93,0-2.15,0-3.65v-.07h.07l16,0s-.1-.11.11.1h0v5h-.11l-11.5-.05-3.34,0-.89,0h-.3l.32,0H79l3.37,0,11.43,0-.1.1V54.51h0l.1.1-16,0,.07-.07c0,1.48,0,2.69,0,3.61,0,.38,0,.7,0,1s0,.35,0,.35"/><path class="cls-6" d="M.23,199.24s0-.1,0-.32,0-.59,0-1c0-.94,0-2.16,0-3.65v-.07H.23l16,0,.11.11h0v2.51c0,.82,0,1.63,0,2.41v.11h-.1l-11.51,0-3.34,0H.53l-.3,0H1.46l3.37,0,11.43,0-.1.1v-4.92h0c.21.21.06.06.1.11l-16,0,.07-.06c0,1.47,0,2.68,0,3.61,0,.38,0,.7,0,1s0,.34,0,.34"/><path class="cls-6" d="M93.66,12.13a3.59,3.59,0,0,1,.56.3c.36.2.87.54,1.56.92a54.94,54.94,0,0,0,5.94,3A52.83,52.83,0,0,0,123,20.54a52.81,52.81,0,0,0,21.17-4.85,55,55,0,0,0,5.86-3.14c.67-.39,1.17-.75,1.53-1a2.4,2.4,0,0,1,.55-.31,3.48,3.48,0,0,1-.49.4c-.34.24-.82.62-1.48,1a46.86,46.86,0,0,1-5.81,3.3,51.38,51.38,0,0,1-21.32,5,51.47,51.47,0,0,1-21.46-4.41,47.25,47.25,0,0,1-5.89-3.13c-.68-.4-1.17-.77-1.52-1a2.46,2.46,0,0,1-.5-.39"/><path class="cls-6" d="M95.71,10.6a1.79,1.79,0,0,1,.49.22l1.37.72,1,.52c.37.19.77.36,1.2.56.87.38,1.83.88,3,1.27l1.74.66c.61.23,1.27.4,1.94.61,1.33.45,2.79.76,4.32,1.13a56.71,56.71,0,0,0,10.17,1.09,56.37,56.37,0,0,0,10.18-.95c1.54-.35,3-.64,4.35-1.07.66-.2,1.32-.36,1.94-.58l1.75-.64c1.14-.38,2.1-.86,3-1.23.44-.2.85-.36,1.21-.54l1-.51,1.37-.7a2.05,2.05,0,0,1,.5-.21,2.44,2.44,0,0,1-.45.3l-1.33.79-1,.55c-.36.19-.76.37-1.19.58-.87.4-1.83.91-3,1.31l-1.76.68c-.62.23-1.28.4-1.95.62-1.34.45-2.82.76-4.37,1.12a54.72,54.72,0,0,1-10.28,1,54.85,54.85,0,0,1-10.26-1.14c-1.55-.39-3-.71-4.36-1.18-.67-.23-1.33-.41-1.94-.65l-1.75-.7c-1.13-.42-2.08-.94-2.94-1.35-.43-.22-.83-.4-1.19-.6l-1-.57-1.32-.8a2.32,2.32,0,0,1-.44-.31"/><path class="cls-2" d="M122.89,20.59a4.8,4.8,0,0,1,1.91,3.88,6.84,6.84,0,0,0,.43,2.76,2.93,2.93,0,0,0,2.51,1.31,8.52,8.52,0,0,0,2.89-.59,9.12,9.12,0,0,1-2.1-4.21,14,14,0,0,0-.43-1.94,2.21,2.21,0,0,0-1.3-1.4Z"/><path class="cls-16" d="M115.83,20a2.72,2.72,0,0,1,1.56,2.11,11.87,11.87,0,0,1,0,2.73,4.94,4.94,0,0,0,.46,2.67,8.72,8.72,0,0,1-6.1-1.23,9.29,9.29,0,0,0-.57-7s-.06-.14.24-.16,4.39.84,4.39.84"/></svg>