<svg id="Calque_1" data-name="Calque 1" xmlns="http://www.w3.org/2000/svg" viewBox="0 0 207.64 198.43"><defs><style>.cls-1{fill:#465a64;}.cls-2{fill:#37474f;}.cls-3{fill:#dbdbdb;}.cls-4,.cls-8{opacity:0.1;}.cls-5{fill:#fff;}.cls-6{fill:#263239;}.cls-7{fill:#fdc629;}.cls-8{isolation:isolate;}</style></defs><title>initial-8</title><rect class="cls-1" x="3.17" y="18.59" width="201.29" height="179.85"/><rect class="cls-2" x="3.17" y="18.59" width="201.29" height="66.47"/><rect class="cls-2" x="16.83" y="175.11" width="9.93" height="4.2"/><rect class="cls-2" x="11.29" y="180.4" width="9.93" height="4.2"/><rect class="cls-2" x="22.37" y="180.4" width="9.93" height="4.2"/><rect class="cls-2" x="180.87" y="180.4" width="9.93" height="4.2"/><rect class="cls-2" x="180.87" y="113.47" width="9.93" height="4.2"/><rect class="cls-2" x="186.41" y="118.77" width="9.93" height="4.2"/><rect class="cls-2" x="11.29" y="113.48" width="9.93" height="4.2"/><rect class="cls-2" x="102.85" y="140.76" width="9.93" height="4.2"/><rect class="cls-2" x="108.39" y="135.46" width="9.93" height="4.2"/><rect class="cls-3" x="18.65" y="32.61" width="26.91" height="41.21"/><rect class="cls-1" x="20.85" y="34.81" width="22.53" height="36.82"/><g class="cls-4"><polygon class="cls-5" points="43.37 34.81 43.37 39.25 20.84 61.78 20.84 51.1 37.14 34.81 43.37 34.81"/><polygon class="cls-5" points="43.37 58.09 43.37 68.75 40.5 71.63 29.83 71.63 43.37 58.09"/><polygon class="cls-5" points="43.37 53.41 43.37 55.66 27.4 71.63 25.15 71.63 43.37 53.41"/><polygon class="cls-5" points="34.87 34.81 20.84 48.83 20.84 44.42 30.46 34.81 34.87 34.81"/></g><rect class="cls-3" x="20.85" y="45.36" width="22.53" height="2.19"/><rect class="cls-3" x="56.17" y="32.61" width="26.91" height="41.21"/><rect class="cls-1" x="58.36" y="34.81" width="22.53" height="36.82"/><g class="cls-4"><polygon class="cls-5" points="80.89 34.81 80.89 39.25 58.36 61.78 58.36 51.1 74.66 34.81 80.89 34.81"/><polygon class="cls-5" points="80.89 58.09 80.89 68.75 78.02 71.63 67.35 71.63 80.89 58.09"/><polygon class="cls-5" points="80.89 53.41 80.89 55.66 64.92 71.63 62.67 71.63 80.89 53.41"/><polygon class="cls-5" points="72.39 34.81 58.36 48.83 58.36 44.42 67.97 34.81 72.39 34.81"/></g><rect class="cls-3" x="58.36" y="45.36" width="22.53" height="2.19"/><rect class="cls-3" x="121.34" y="32.61" width="26.91" height="41.21"/><rect class="cls-1" x="123.53" y="34.81" width="22.53" height="36.82"/><g class="cls-4"><polygon class="cls-5" points="146.06 34.81 146.06 39.25 123.53 61.78 123.53 51.1 139.82 34.81 146.06 34.81"/><polygon class="cls-5" points="146.06 58.09 146.06 68.75 143.18 71.63 132.51 71.63 146.06 58.09"/><polygon class="cls-5" points="146.06 53.41 146.06 55.66 130.08 71.63 127.83 71.63 146.06 53.41"/><polygon class="cls-5" points="137.56 34.81 123.53 48.83 123.53 44.42 133.14 34.81 137.56 34.81"/></g><rect class="cls-3" x="123.53" y="45.36" width="22.53" height="2.19"/><rect class="cls-3" x="158.86" y="32.61" width="26.91" height="41.21"/><rect class="cls-1" x="161.05" y="34.81" width="22.53" height="36.82"/><g class="cls-4"><polygon class="cls-5" points="183.58 34.81 183.58 39.25 161.05 61.78 161.05 51.1 177.34 34.81 183.58 34.81"/><polygon class="cls-5" points="183.58 58.09 183.58 68.75 180.7 71.63 170.03 71.63 183.58 58.09"/><polygon class="cls-5" points="183.58 53.41 183.58 55.66 167.6 71.63 165.35 71.63 183.58 53.41"/><polygon class="cls-5" points="175.07 34.81 161.05 48.83 161.05 44.42 170.66 34.81 175.07 34.81"/></g><rect class="cls-3" x="161.05" y="45.36" width="22.53" height="2.19"/><rect class="cls-2" y="194.25" width="207.64" height="4.18"/><rect class="cls-1" y="18.62" width="207.64" height="4.18"/><rect class="cls-6" x="116.75" y="119.83" width="34.23" height="78.6"/><rect class="cls-1" x="122.61" y="125.68" width="22.53" height="36.82"/><g class="cls-4"><polygon class="cls-5" points="145.13 125.68 145.13 130.12 122.61 152.65 122.61 141.98 138.9 125.68 145.13 125.68"/><polygon class="cls-5" points="145.13 148.96 145.13 159.63 142.25 162.5 131.59 162.5 145.13 148.96"/><polygon class="cls-5" points="145.13 144.28 145.13 146.53 129.16 162.5 126.91 162.5 145.13 144.28"/><polygon class="cls-5" points="136.63 125.68 122.61 139.71 122.61 135.29 132.22 125.68 136.63 125.68"/></g><rect class="cls-5" x="146.65" y="166" width="2.07" height="9.07"/><rect class="cls-6" x="151.56" y="119.83" width="34.23" height="78.6"/><rect class="cls-1" x="157.41" y="125.68" width="22.53" height="36.82"/><g class="cls-4"><polygon class="cls-5" points="157.41 125.68 157.41 130.12 179.94 152.65 179.94 141.98 163.64 125.68 157.41 125.68"/><polygon class="cls-5" points="157.41 148.96 157.41 159.63 160.29 162.5 170.96 162.5 157.41 148.96"/><polygon class="cls-5" points="157.41 144.28 157.41 146.53 173.38 162.5 175.63 162.5 157.41 144.28"/><polygon class="cls-5" points="165.91 125.68 179.94 139.71 179.94 135.29 170.33 125.68 165.91 125.68"/></g><rect class="cls-5" x="153.82" y="166" width="2.07" height="9.07"/><rect class="cls-2" x="16.19" width="175.25" height="18.58"/><rect class="cls-1" x="20.8" y="3.33" width="3.23" height="12.14"/><rect class="cls-1" x="29.37" y="3.33" width="3.22" height="12.14"/><rect class="cls-1" x="37.94" y="3.33" width="3.22" height="12.14"/><rect class="cls-1" x="46.51" y="3.33" width="3.22" height="12.14"/><rect class="cls-1" x="55.08" y="3.33" width="3.22" height="12.14"/><rect class="cls-1" x="63.64" y="3.33" width="3.22" height="12.14"/><rect class="cls-1" x="72.22" y="3.33" width="3.22" height="12.14"/><rect class="cls-1" x="80.78" y="3.33" width="3.22" height="12.14"/><rect class="cls-1" x="89.35" y="3.33" width="3.22" height="12.14"/><rect class="cls-1" x="97.92" y="3.33" width="3.22" height="12.14"/><rect class="cls-1" x="106.49" y="3.33" width="3.22" height="12.14"/><rect class="cls-1" x="115.06" y="3.33" width="3.22" height="12.14"/><rect class="cls-1" x="123.63" y="3.33" width="3.23" height="12.14"/><rect class="cls-1" x="132.2" y="3.33" width="3.23" height="12.14"/><rect class="cls-1" x="140.77" y="3.33" width="3.23" height="12.14"/><rect class="cls-1" x="149.34" y="3.33" width="3.22" height="12.14"/><rect class="cls-1" x="157.91" y="3.33" width="3.23" height="12.14"/><rect class="cls-1" x="166.47" y="3.33" width="3.23" height="12.14"/><rect class="cls-1" x="175.04" y="3.33" width="3.23" height="12.14"/><rect class="cls-1" x="183.61" y="3.33" width="3.23" height="12.14"/><path class="cls-3" d="M56.68,138.85v32.48h-38V138.85a19,19,0,1,1,38,0Z"/><path class="cls-1" d="M54.49,138.85v30.29H20.85V138.85a16.82,16.82,0,1,1,33.64,0Z"/><path class="cls-1" d="M54.5,138.85v30.29H20.85V138.85A16.8,16.8,0,0,1,37.67,122c.54,0,1.07,0,1.59.08a16.81,16.81,0,0,1,12.82,8.07,15.9,15.9,0,0,1,1.47,3.12,12.91,12.91,0,0,1,.53,1.84A16.32,16.32,0,0,1,54.5,138.85Z"/><rect class="cls-3" x="20.85" y="138.55" width="33.65" height="2.19"/><rect class="cls-3" x="30.45" y="121.34" width="2.19" height="17.21"/><rect class="cls-3" x="42.7" y="121.34" width="2.19" height="17.21"/><g class="cls-4"><path class="cls-5" d="M52.08,130.17,20.85,161.39V150.21l25.67-25.67A16.73,16.73,0,0,1,52.08,130.17Z"/><path class="cls-5" d="M54.08,135.13,20.85,168.36V166l32.7-32.7A12.91,12.91,0,0,1,54.08,135.13Z"/><path class="cls-5" d="M39.26,122.1,20.85,140.51v-1.66a17,17,0,0,1,.32-3.29l13.22-13.22a16.89,16.89,0,0,1,3.28-.32C38.21,122,38.74,122.05,39.26,122.1Z"/></g><path class="cls-3" d="M103.51,138.85v32.48h-38V138.85a19,19,0,1,1,38,0Z"/><path class="cls-1" d="M101.31,138.85v30.29H67.67V138.85a16.82,16.82,0,1,1,33.64,0Z"/><path class="cls-1" d="M101.32,138.85v30.29H67.67V138.85A16.8,16.8,0,0,1,84.49,122c.54,0,1.07,0,1.59.08a16.81,16.81,0,0,1,12.82,8.07,15.9,15.9,0,0,1,1.47,3.12,12.91,12.91,0,0,1,.53,1.84A16.32,16.32,0,0,1,101.32,138.85Z"/><rect class="cls-3" x="67.67" y="138.55" width="33.65" height="2.19"/><rect class="cls-3" x="77.27" y="121.34" width="2.19" height="17.21"/><rect class="cls-3" x="89.52" y="121.34" width="2.19" height="17.21"/><g class="cls-4"><path class="cls-5" d="M98.9,130.17,67.67,161.39V150.21l25.67-25.67A16.73,16.73,0,0,1,98.9,130.17Z"/><path class="cls-5" d="M100.9,135.13,67.67,168.36V166l32.7-32.7A12.91,12.91,0,0,1,100.9,135.13Z"/><path class="cls-5" d="M86.08,122.1,67.67,140.51v-1.66a17,17,0,0,1,.32-3.29l13.22-13.22a16.89,16.89,0,0,1,3.28-.32C85,122,85.56,122.05,86.08,122.1Z"/></g><rect class="cls-6" x="3.17" y="85.05" width="200.86" height="24.22"/><path class="cls-5" d="M51.16,96.93v0a1.7,1.7,0,0,1,3.39,0v0a1.7,1.7,0,0,1-3.39,0Z"/><path class="cls-5" d="M66.1,99.57a1.73,1.73,0,0,0-.78-1.45,3.17,3.17,0,0,0-1.11-.48l-.07,0H61.81v3.8a.34.34,0,0,1-.34.33.33.33,0,0,1-.33-.33V92.48a.35.35,0,0,1,.3-.33h2.74a2.74,2.74,0,0,1,1.15,5.22.91.91,0,0,0,.14.07,2.41,2.41,0,0,1,1.29,2.13,3.7,3.7,0,0,0,.12,1.11.4.4,0,0,0,.14.23.34.34,0,0,1,.15.66H67a.75.75,0,0,1-.61-.44A3.27,3.27,0,0,1,66.1,99.57Zm-1.92-6.75H61.81V97h2.43a2.07,2.07,0,0,0-.06-4.14Z"/><path class="cls-5" d="M69.76,92.48a.33.33,0,0,1,.32-.33H75a.34.34,0,0,1,0,.67H70.43v3.79h4a.34.34,0,0,1,.33.35.33.33,0,0,1-.33.32h-4v3.78H75a.34.34,0,0,1,0,.67h-5a.32.32,0,0,1-.3-.33Z"/><path class="cls-5" d="M77.3,99.94a.29.29,0,0,1,.43,0,5.29,5.29,0,0,0,3.14,1.23A3.62,3.62,0,0,0,83,100.5a1.77,1.77,0,0,0,.82-1.42A1.54,1.54,0,0,0,83,97.76,6.42,6.42,0,0,0,80.8,97h0a6.08,6.08,0,0,1-2.26-.8,2,2,0,0,1-1-1.67,2.25,2.25,0,0,1,1-1.8,3.94,3.94,0,0,1,2.32-.7,5.31,5.31,0,0,1,3,1.11.31.31,0,0,1,.08.43.29.29,0,0,1-.41.08,4.75,4.75,0,0,0-2.62-1,3.45,3.45,0,0,0-2,.57,1.66,1.66,0,0,0-.76,1.31,1.42,1.42,0,0,0,.72,1.17,5.67,5.67,0,0,0,2.05.72h0a6.45,6.45,0,0,1,2.43.88,2.16,2.16,0,0,1,1.06,1.81A2.41,2.41,0,0,1,83.34,101a4.21,4.21,0,0,1-2.47.76,6,6,0,0,1-3.53-1.39A.32.32,0,0,1,77.3,99.94Z"/><path class="cls-5" d="M89,92.82H86.12a.34.34,0,0,1,0-.67h6.43a.34.34,0,0,1,0,.67H89.66v8.59a.33.33,0,0,1-.65,0Z"/><path class="cls-5" d="M99.21,99.25H94.84L94,101.52a.34.34,0,0,1-.31.21h-.13a.35.35,0,0,1-.19-.44l3.33-8.88a.37.37,0,0,1,.33-.21.36.36,0,0,1,.33.21l3.32,8.88a.34.34,0,0,1-.18.44h-.12a.35.35,0,0,1-.31-.21Zm-4.12-.67H99L97,93.44Z"/><path class="cls-5" d="M102.35,92.48a.33.33,0,0,1,.32-.33.34.34,0,0,1,.35.33v5.38a3.2,3.2,0,1,0,6.4,0V92.48a.33.33,0,0,1,.33-.33.34.34,0,0,1,.35.33v5.38a3.88,3.88,0,0,1-7.75,0V92.48Z"/><path class="cls-5" d="M117.76,99.57a1.7,1.7,0,0,0-.78-1.45,3.09,3.09,0,0,0-1.11-.48l-.06,0h-2.33v3.8a.34.34,0,0,1-.34.33.33.33,0,0,1-.33-.33V92.48a.35.35,0,0,1,.3-.33h2.74A2.74,2.74,0,0,1,117,97.37a.91.91,0,0,0,.14.07,2.4,2.4,0,0,1,1.28,2.13,3.6,3.6,0,0,0,.13,1.11.5.5,0,0,0,.13.23.36.36,0,0,1,.37.22.37.37,0,0,1-.22.44h-.19a.74.74,0,0,1-.61-.44A3.25,3.25,0,0,1,117.76,99.57Zm-1.91-6.75h-2.37V97h2.42a2.07,2.07,0,0,0-.05-4.14Z"/><path class="cls-5" d="M126.66,99.25H122.3l-.85,2.27a.35.35,0,0,1-.31.21H121a.35.35,0,0,1-.19-.44l3.33-8.88a.37.37,0,0,1,.32-.21.35.35,0,0,1,.33.21l3.33,8.88a.35.35,0,0,1-.18.44h-.12a.36.36,0,0,1-.32-.21Zm-4.12-.67h3.88l-1.94-5.14Z"/><path class="cls-5" d="M130.83,93.56v7.84a.33.33,0,0,1-.66,0V92.62a.33.33,0,0,1,.12-.37.35.35,0,0,1,.47.08l5.8,8v-7.8a.33.33,0,0,1,.33-.33.34.34,0,0,1,.35.33v8.82a.34.34,0,0,1-.35.33.32.32,0,0,1-.26-.12s0,0,0-.06Z"/><path class="cls-5" d="M142.89,92.82H140a.34.34,0,0,1,0-.67h6.44a.34.34,0,0,1,0,.67h-2.89v8.59a.33.33,0,0,1-.66,0V92.82Z"/><path class="cls-5" d="M153.22,96.93v0a1.7,1.7,0,0,1,3.39,0v0a1.7,1.7,0,0,1-3.39,0Z"/><rect class="cls-5" x="3.17" y="104.94" width="200.86" height="0.5"/><rect class="cls-5" x="3.17" y="88.89" width="200.86" height="0.5"/><rect class="cls-7" x="61.88" y="180.77" width="9.51" height="17.66"/><rect class="cls-7" x="61.25" y="180.08" width="10.77" height="0.7"/><rect class="cls-7" x="61.25" y="178.93" width="10.77" height="0.69"/><rect class="cls-7" x="61.88" y="179.63" width="9.51" height="0.45"/><rect class="cls-8" x="61.88" y="179.63" width="9.51" height="0.45"/><path class="cls-7" d="M71.38,178.93H61.89a4.75,4.75,0,0,1,9.49,0Z"/><path class="cls-8" d="M71.38,178.93H61.89a3.81,3.81,0,0,1,.07-.59l9.2-.6A4.32,4.32,0,0,1,71.38,178.93Z"/><polygon class="cls-8" points="71.39 180.77 71.39 181.82 61.88 182.26 61.88 180.77 71.39 180.77"/><rect class="cls-8" x="62.94" y="183.13" width="0.82" height="14.22"/><rect class="cls-8" x="64.58" y="183.13" width="0.82" height="14.22"/><rect class="cls-8" x="66.23" y="183.13" width="0.82" height="14.22"/><rect class="cls-8" x="67.87" y="183.13" width="0.82" height="14.22"/><rect class="cls-8" x="69.51" y="183.13" width="0.82" height="14.22"/><rect class="cls-7" x="60.2" y="184.13" width="1.68" height="4.36"/><rect class="cls-7" x="59.56" y="184.5" width="0.64" height="3.73"/><rect class="cls-8" x="59.56" y="184.5" width="0.64" height="3.73"/><path class="cls-7" d="M59.56,185.27v2.08a1,1,0,0,1,0-2.08Z"/><polygon class="cls-8" points="61.88 184.13 61.88 188.49 61.49 188.49 60.8 184.13 61.88 184.13"/><rect class="cls-7" x="71.39" y="184.13" width="1.68" height="4.36"/><rect class="cls-7" x="73.07" y="184.5" width="0.64" height="3.73"/><rect class="cls-8" x="73.07" y="184.5" width="0.64" height="3.73"/><path class="cls-7" d="M73.71,185.27v2.08a1,1,0,0,0,0-2.08Z"/><polygon class="cls-8" points="71.39 184.13 71.39 188.49 71.78 188.49 72.47 184.13 71.39 184.13"/><circle class="cls-7" cx="66.64" cy="186.31" r="3.29"/><circle class="cls-8" cx="66.64" cy="186.31" r="2.25"/><rect class="cls-7" x="64.77" y="174.18" width="3.73" height="0.64"/><rect class="cls-8" x="64.77" y="174.18" width="3.73" height="0.64"/><path class="cls-7" d="M67.73,174.18H65.65a1,1,0,0,1,2.08,0Z"/></svg>