<svg id="Calque_1" data-name="Calque 1" xmlns="http://www.w3.org/2000/svg" viewBox="0 0 141.54 159.91"><defs><style>.cls-1{fill:#fdc629;}.cls-2,.cls-5{opacity:0.1;}.cls-2{isolation:isolate;}.cls-3{fill:#fff;}.cls-4{fill:#263239;}.cls-6{fill:#465a64;}.cls-7{fill:#a6a5a5;}.cls-8{fill:#37474f;}</style></defs><title>initial-9</title><rect class="cls-1" x="3.47" y="2.12" width="134.61" height="157.79"/><rect class="cls-2" x="112.82" y="17.11" width="9.93" height="4.2"/><rect class="cls-2" x="118.36" y="11.82" width="9.93" height="4.2"/><rect class="cls-2" x="107.28" y="11.82" width="9.93" height="4.2"/><rect class="cls-2" x="18.78" y="11.82" width="9.93" height="4.2"/><rect class="cls-2" x="18.78" y="130.99" width="9.93" height="4.2"/><rect class="cls-2" x="13.24" y="125.7" width="9.93" height="4.2"/><rect class="cls-2" x="118.36" y="130.99" width="9.93" height="4.2"/><rect class="cls-2" x="96.81" y="61.47" width="9.93" height="4.2"/><rect class="cls-2" x="91.27" y="66.76" width="9.93" height="4.2"/><rect class="cls-1" y="50.32" width="141.54" height="4.24"/><rect class="cls-2" y="50.32" width="141.54" height="4.24"/><rect class="cls-1" y="28" width="141.54" height="4.24"/><rect class="cls-2" y="28" width="141.54" height="4.24"/><rect class="cls-3" x="3.47" y="32.24" width="134.61" height="18.08"/><rect class="cls-1" width="141.54" height="4.24"/><rect class="cls-2" width="141.54" height="4.24"/><rect class="cls-1" y="155.67" width="141.54" height="4.24"/><rect class="cls-2" y="155.67" width="141.54" height="4.24"/><rect class="cls-4" x="99.51" y="58.25" width="33.62" height="19.03"/><g class="cls-5"><polygon class="cls-3" points="133.13 58.25 133.13 67.3 123.14 77.29 111.96 77.29 130.98 58.25 133.13 58.25"/><polygon class="cls-3" points="120.2 58.25 101.17 77.29 99.51 77.29 99.51 76.58 117.84 58.25 120.2 58.25"/><polygon class="cls-3" points="111.91 58.25 99.51 70.65 99.51 66.02 107.28 58.25 111.91 58.25"/><polygon class="cls-3" points="133.13 70.51 133.13 75.14 130.99 77.28 126.36 77.28 133.13 70.51"/></g><rect class="cls-6" x="99.51" y="81.3" width="33.62" height="78.6"/><rect class="cls-4" x="104.51" y="86.43" width="23.62" height="38.6"/><rect class="cls-3" x="104.51" y="86.43" width="23.62" height="0.87"/><rect class="cls-3" x="104.51" y="87.66" width="23.62" height="0.87"/><rect class="cls-3" x="104.51" y="88.89" width="23.62" height="0.87"/><rect class="cls-3" x="104.51" y="90.12" width="23.62" height="0.87"/><rect class="cls-3" x="104.51" y="91.35" width="23.62" height="0.87"/><rect class="cls-3" x="104.51" y="92.58" width="23.62" height="0.87"/><rect class="cls-3" x="104.51" y="93.81" width="23.62" height="0.87"/><rect class="cls-3" x="104.51" y="95.04" width="23.62" height="0.87"/><rect class="cls-3" x="104.51" y="96.27" width="23.62" height="0.87"/><rect class="cls-3" x="104.51" y="97.49" width="23.62" height="0.87"/><rect class="cls-3" x="104.51" y="98.72" width="23.62" height="0.87"/><rect class="cls-3" x="104.51" y="99.95" width="23.62" height="0.87"/><rect class="cls-3" x="104.51" y="101.18" width="23.62" height="0.87"/><rect class="cls-3" x="104.51" y="102.41" width="23.62" height="0.87"/><rect class="cls-3" x="104.51" y="103.64" width="23.62" height="0.87"/><rect class="cls-3" x="104.51" y="104.87" width="23.62" height="0.87"/><rect class="cls-3" x="104.51" y="106.1" width="23.62" height="0.87"/><rect class="cls-3" x="104.51" y="107.33" width="23.62" height="0.87"/><rect class="cls-3" x="104.51" y="108.56" width="23.62" height="0.87"/><rect class="cls-3" x="104.51" y="109.79" width="23.62" height="0.87"/><rect class="cls-3" x="104.51" y="111.02" width="23.62" height="0.87"/><rect class="cls-3" x="104.51" y="112.25" width="23.62" height="0.87"/><rect class="cls-3" x="104.51" y="113.48" width="23.62" height="0.87"/><g class="cls-5"><polygon class="cls-3" points="128.13 86.43 128.13 91.08 104.51 114.7 104.51 103.51 121.6 86.43 128.13 86.43"/><polygon class="cls-3" points="128.13 110.84 128.13 122.02 125.12 125.03 113.93 125.03 128.13 110.84"/><polygon class="cls-3" points="128.13 105.93 128.13 108.29 111.39 125.03 109.03 125.03 128.13 105.93"/><polygon class="cls-3" points="119.22 86.43 104.51 101.14 104.51 96.5 114.59 86.43 119.22 86.43"/></g><rect class="cls-4" x="106.62" y="129.39" width="17.7" height="4.15"/><rect class="cls-7" x="128.8" y="126.88" width="2.07" height="6.66"/><path class="cls-8" d="M104.51,153.35c-.07-1.14-.11-2.27-.16-3.4s-.08-2.26-.11-3.39q-.09-3.41-.12-6.79v-.4h.39c1.78,0,3.55,0,5.33,0s3.56,0,5.33,0,3.56.06,5.33.12c.89,0,1.78.07,2.67.1l2.66.13c-.89.06-1.77.1-2.66.13l-2.67.11c-1.77.06-3.55.09-5.33.12s-3.55,0-5.33,0-3.55,0-5.33,0l.39-.4c0,2.27-.05,4.53-.11,6.8,0,1.13-.07,2.26-.12,3.39S104.58,152.22,104.51,153.35Z"/><path class="cls-8" d="M128.13,139.76c.07,1.13.11,2.27.16,3.4s.08,2.26.12,3.39c.06,2.27.09,4.53.12,6.8v.39h-.4c-1.79,0-3.59,0-5.38,0s-3.59,0-5.39-.05-3.59-.06-5.38-.12c-.9,0-1.8-.07-2.7-.1l-2.69-.13c.9-.06,1.8-.1,2.69-.13l2.7-.11c1.79-.06,3.59-.09,5.38-.12s3.59-.05,5.39-.05,3.59,0,5.38,0l-.39.4c0-2.27.06-4.53.12-6.8,0-1.13.06-2.26.12-3.39S128.06,140.9,128.13,139.76Z"/><path class="cls-8" d="M107.57,150.79c-.12-1.41-.19-2.82-.25-4.24,0-.7,0-1.41-.07-2.11s0-1.41,0-2.11V142h.38c1.32,0,2.64,0,4,0s2.64,0,4,0,2.63.07,4,.12,2.63.13,4,.25c-1.32.11-2.63.18-4,.24s-2.63.1-4,.12-2.63,0-4,0-2.63,0-4,0l.38-.37c0,.7,0,1.41,0,2.11s0,1.41-.07,2.11C107.77,148,107.69,149.38,107.57,150.79Z"/><path class="cls-8" d="M125.07,142.32c.12,1.41.2,2.82.26,4.23s.1,2.82.12,4.23v.37h-.38c-1.33,0-2.66,0-4,0s-2.66,0-4,0-2.66-.07-4-.12-2.66-.14-4-.25c1.33-.11,2.66-.18,4-.24s2.66-.1,4-.12,2.66,0,4,0,2.66,0,4,0l-.37.37q0-2.11.12-4.23C124.88,145.15,125,143.73,125.07,142.32Z"/><rect class="cls-3" x="9.19" y="56.1" width="83.49" height="75.53"/><rect class="cls-4" x="11.27" y="58.25" width="79.34" height="71.22"/><g class="cls-5"><polygon class="cls-3" points="90.61 106.47 90.61 117.66 78.79 129.48 67.6 129.48 90.61 106.47"/><polygon class="cls-3" points="69.78 58.26 11.27 116.77 11.27 105.58 58.6 58.26 69.78 58.26"/><polygon class="cls-3" points="76.75 58.26 11.27 123.73 11.27 121.37 74.39 58.26 76.75 58.26"/><polygon class="cls-3" points="90.61 88.48 90.61 90.84 51.97 129.48 49.62 129.48 90.61 88.48"/><polygon class="cls-3" points="90.61 121.92 90.61 126.55 87.68 129.48 83.05 129.48 90.61 121.92"/><polygon class="cls-3" points="48.9 58.26 11.27 95.88 11.27 91.25 44.27 58.26 48.9 58.26"/></g><rect class="cls-4" x="6.62" y="72.86" width="0.41" height="29.59" transform="translate(-13.51 2.12) rotate(-8.92)"/><circle class="cls-3" cx="9.12" cy="102.27" r="0.8"/><rect class="cls-4" x="80.17" y="87.46" width="29.59" height="0.41" transform="matrix(0.15, -0.99, 0.99, 0.15, -6.2, 168.09)"/><circle class="cls-3" cx="92.68" cy="102.27" r="0.8"/><path class="cls-6" d="M99.7,72.76H2.18c5.84-10.11,7-18.2,7-18.2h83.5S93.86,62.65,99.7,72.76Z"/><path class="cls-8" d="M99.7,72.76v2.15a1.91,1.91,0,0,1-1.81,2H94a1.91,1.91,0,0,1-1.82-2,1.91,1.91,0,0,1-1.81,2H86.52a1.91,1.91,0,0,1-1.81-2,1.91,1.91,0,0,1-1.82,2H79a1.91,1.91,0,0,1-1.82-2,1.91,1.91,0,0,1-1.81,2H71.52a1.91,1.91,0,0,1-1.82-2,1.91,1.91,0,0,1-1.81,2H64a1.91,1.91,0,0,1-1.81-2,1.91,1.91,0,0,1-1.81,2H56.51a1.91,1.91,0,0,1-1.81-2,1.91,1.91,0,0,1-1.81,2H49a1.91,1.91,0,0,1-1.81-2,1.91,1.91,0,0,1-1.82,2H41.51a1.91,1.91,0,0,1-1.82-2,1.91,1.91,0,0,1-1.81,2H34a1.91,1.91,0,0,1-1.82-2,1.91,1.91,0,0,1-1.81,2H26.5a1.91,1.91,0,0,1-1.81-2,1.91,1.91,0,0,1-1.81,2H19a1.91,1.91,0,0,1-1.81-2,1.91,1.91,0,0,1-1.81,2H11.5a1.91,1.91,0,0,1-1.81-2,1.91,1.91,0,0,1-1.81,2H4a1.91,1.91,0,0,1-1.81-2V72.76Z"/><path class="cls-3" d="M9.68,74.91c0-.71,0-1.43-.08-2.15v0l0,0c.83-1.38,1.58-2.82,2.28-4.28s1.32-3,1.89-4.47a40.62,40.62,0,0,0,1.42-4.63l.28-1.18c.08-.39.13-.79.21-1.19.18-.79.22-1.6.35-2.41a27.4,27.4,0,0,1-.55,4.85,33.17,33.17,0,0,1-1.34,4.7,42.5,42.5,0,0,1-1.94,4.49c-.36.73-.75,1.44-1.17,2.14s-.83,1.4-1.3,2.07v0C9.74,73.48,9.72,74.2,9.68,74.91Z"/><path class="cls-3" d="M17.18,74.91c0-.71-.05-1.43-.08-2.15v0l0,0c.41-.68.79-1.38,1.15-2.09s.68-1.44,1-2.17A38.07,38.07,0,0,0,20.86,64c.12-.38.22-.77.31-1.15s.21-.77.28-1.16c.16-.78.34-1.55.45-2.34a44.37,44.37,0,0,0,.5-4.76,29.62,29.62,0,0,1-.21,4.8,30.38,30.38,0,0,1-1,4.72,30.64,30.64,0,0,1-1.64,4.53,26.15,26.15,0,0,1-2.34,4.2v0C17.24,73.48,17.22,74.2,17.18,74.91Z"/><path class="cls-3" d="M47.19,74.91c0-1.69,0-3.39,0-5.09s0-3.39.06-5.09.08-3.39.15-5.09l.11-2.54c0-.85.09-1.69.15-2.54,0,.85,0,1.69,0,2.55v2.54c0,1.7,0,3.39-.06,5.09s-.09,3.39-.16,5.09S47.31,73.22,47.19,74.91Z"/><path class="cls-3" d="M54.7,74.91c-.13-1.69-.2-3.39-.27-5.08s-.1-3.39-.15-5.09-.06-3.39-.06-5.09V57.11c0-.86,0-1.7.05-2.55.06.85.1,1.69.15,2.54l.11,2.54c.07,1.7.1,3.4.16,5.09s.05,3.4.06,5.09S54.74,73.22,54.7,74.91Z"/><path class="cls-3" d="M39.69,74.91c0-.71-.06-1.43-.09-2.15h0c.2-1.51.31-3,.44-4.53s.18-3,.27-4.55.12-3,.18-4.55l.13-4.56q.08,1.14.12,2.28c0,.76,0,1.52,0,2.28,0,1.52,0,3-.07,4.57s-.18,3-.32,4.55c-.06.76-.15,1.52-.26,2.28s-.21,1.5-.36,2.25h0C39.75,73.48,39.73,74.2,39.69,74.91Z"/><path class="cls-3" d="M32.19,74.91c0-.71-.06-1.43-.09-2.15h0v0a29.21,29.21,0,0,0,1.14-4.44c.14-.75.26-1.51.38-2.27s.2-1.52.29-2.28c.19-1.52.28-3.05.41-4.58l.14-2.3c0-.77.07-1.53.12-2.3,0,.77,0,1.53.06,2.31s0,1.54,0,2.31c0,1.54-.15,3.07-.31,4.61a44.27,44.27,0,0,1-.71,4.57c-.15.76-.34,1.51-.56,2.25a15.25,15.25,0,0,1-.77,2.18v0C32.24,73.48,32.22,74.2,32.19,74.91Z"/><path class="cls-3" d="M24.69,74.91c0-.71-.06-1.43-.09-2.15v0a29.39,29.39,0,0,0,1.68-4.35c.47-1.48.81-3,1.13-4.52s.52-3.07.7-4.62c.11-.77.14-1.55.22-2.33s.08-1.56.14-2.34c0,.78,0,1.56,0,2.35l0,1.17c0,.4,0,.79-.07,1.18l-.09,1.17c0,.39-.1.78-.15,1.17-.08.78-.23,1.55-.36,2.32a37.2,37.2,0,0,1-1.18,4.56c-.24.75-.52,1.49-.83,2.21a17.33,17.33,0,0,1-1,2.12v0C24.74,73.48,24.72,74.2,24.69,74.91Z"/><path class="cls-3" d="M92.2,74.91c0-.71,0-1.43-.08-2.15l0,0c-.48-.67-.9-1.37-1.31-2.07S90,69.33,89.66,68.6a43.42,43.42,0,0,1-1.94-4.49,33.51,33.51,0,0,1-1.33-4.7,26.5,26.5,0,0,1-.55-4.85c.13.81.17,1.61.34,2.41.08.39.14.8.22,1.19l.27,1.18A42,42,0,0,0,88.1,64c.57,1.51,1.17,3,1.88,4.47s1.45,2.89,2.29,4.28v0C92.26,73.48,92.24,74.2,92.2,74.91Z"/><path class="cls-3" d="M84.7,74.91c0-.71,0-1.43-.08-2.15v0a25.82,25.82,0,0,1-2.34-4.21,33,33,0,0,1-1.64-4.52,30.38,30.38,0,0,1-1-4.72,29.62,29.62,0,0,1-.21-4.8,47.09,47.09,0,0,0,.5,4.76c.12.78.3,1.56.45,2.34.08.39.19.77.28,1.16s.2.77.32,1.15a38,38,0,0,0,1.59,4.49c.31.73.64,1.45,1,2.17s.74,1.41,1.16,2.08v.05C84.76,73.48,84.74,74.2,84.7,74.91Z"/><path class="cls-3" d="M62.2,74.91c0-.71-.06-1.43-.09-2.15v0c-.15-.75-.25-1.51-.36-2.26s-.19-1.51-.26-2.27c-.13-1.52-.26-3-.31-4.56s-.11-3-.08-4.57c0-.76,0-1.52,0-2.28s.06-1.52.11-2.28l.13,4.56c.07,1.52.1,3,.18,4.55s.15,3,.28,4.55.23,3,.43,4.53h0C62.25,73.48,62.24,74.2,62.2,74.91Z"/><path class="cls-3" d="M69.7,74.91c0-.71-.06-1.43-.09-2.15v0a15.87,15.87,0,0,1-.78-2.19c-.21-.74-.4-1.49-.55-2.25a43.88,43.88,0,0,1-.72-4.57c-.16-1.53-.27-3.07-.31-4.61,0-.77,0-1.54,0-2.31s0-1.54.06-2.31c0,.77.08,1.54.12,2.3l.13,2.3c.13,1.53.22,3.07.42,4.59.08.76.19,1.52.29,2.28s.23,1.51.38,2.26a29.18,29.18,0,0,0,1.13,4.44v0h0C69.76,73.48,69.74,74.2,69.7,74.91Z"/><path class="cls-3" d="M77.2,74.91c0-.71-.06-1.43-.08-2.15v0a17.2,17.2,0,0,1-1-2.11,21.76,21.76,0,0,1-.83-2.21,37.2,37.2,0,0,1-1.18-4.56c-.13-.77-.28-1.54-.37-2.32,0-.39-.11-.78-.14-1.17l-.1-1.17c0-.4,0-.78-.06-1.18l0-1.17c0-.79,0-1.57,0-2.35.06.78.09,1.56.15,2.34s.11,1.56.22,2.33q.26,2.33.69,4.62c.33,1.52.67,3,1.14,4.52a30.5,30.5,0,0,0,1.67,4.35l0,0v0C77.26,73.48,77.24,74.2,77.2,74.91Z"/><g class="cls-5"><path d="M9.6,149.89c-.07-1.13-.11-2.27-.16-3.4s-.08-2.26-.12-3.39c-.06-2.27-.09-4.53-.12-6.8v-.39h.4c1.77,0,3.55,0,5.33,0s3.55,0,5.33,0,3.55.06,5.33.12c.89,0,1.77.07,2.66.1l2.67.13c-.89.06-1.78.1-2.67.13l-2.66.11c-1.78.06-3.56.09-5.33.12s-3.56.05-5.33.05-3.56,0-5.33,0l.39-.4c0,2.27-.06,4.53-.12,6.8,0,1.13-.06,2.26-.12,3.39S9.67,148.76,9.6,149.89Z"/><path d="M33.22,136.3c.07,1.14.11,2.27.16,3.4s.08,2.26.11,3.39c.06,2.27.09,4.53.12,6.8v.39h-.39c-1.8,0-3.59,0-5.39,0s-3.59,0-5.39,0-3.59-.06-5.38-.12c-.9,0-1.8-.07-2.69-.1l-2.7-.13c.9-.06,1.8-.1,2.7-.13l2.69-.11c1.79-.06,3.59-.09,5.38-.12s3.6-.05,5.39-.05,3.59,0,5.39,0l-.4.4c0-2.27.06-4.53.12-6.79,0-1.14.06-2.27.12-3.4S33.15,137.44,33.22,136.3Z"/></g><g class="cls-5"><path d="M12.66,147.33c-.06-1.41-.1-2.82-.13-4.23l0-2.12c0-.7,0-1.41,0-2.11v-.18h.19l3.95,0,3.95,0c1.31,0,2.63,0,3.94.06s2.64.06,3.95.12c-1.31,0-2.63.09-3.95.11s-2.63.07-3.95.07l-3.94,0-3.95,0,.18-.18c0,.7,0,1.41,0,2.11l0,2.12C12.76,144.51,12.71,145.92,12.66,147.33Z"/><path d="M30.16,138.86c.05,1.41.1,2.83.12,4.23s.06,2.82.06,4.23v.19h-.18l-4,0-4,0c-1.33,0-2.66,0-4-.06s-2.66-.06-4-.11q2-.09,4-.12c1.33,0,2.66-.06,4-.06l4,0,4,0-.19.19c0-1.41,0-2.82.06-4.23S30.1,140.27,30.16,138.86Z"/></g><g class="cls-5"><path d="M42.19,147.33c0-1.41-.1-2.82-.12-4.23L42,141c0-.7,0-1.41,0-2.11v-.18h.18l4,0,4,0c1.31,0,2.63,0,3.95.06s2.63.06,4,.12c-1.32,0-2.64.09-4,.11s-2.64.07-3.95.07l-4,0-4,0,.18-.18c0,.7,0,1.41,0,2.11l0,2.12C42.29,144.51,42.24,145.92,42.19,147.33Z"/><path d="M59.69,138.86c.06,1.41.1,2.83.12,4.23s.06,2.82.06,4.23v.19h-.18l-4,0-4,0c-1.33,0-2.66,0-4-.06s-2.66-.06-4-.11q2-.09,4-.12c1.33,0,2.66-.06,4-.06l4,0,4,0-.18.19c0-1.41,0-2.82.06-4.23S59.64,140.27,59.69,138.86Z"/></g><g class="cls-5"><path d="M39.13,149.89c-.07-1.13-.11-2.27-.16-3.4s-.08-2.26-.11-3.39c-.06-2.27-.1-4.53-.12-6.8v-.39h.39c1.78,0,3.56,0,5.33,0s3.56,0,5.33,0,3.56.06,5.33.12c.89,0,1.78.07,2.67.1l2.67.13c-.89.06-1.78.1-2.67.13l-2.67.11c-1.77.06-3.55.09-5.33.12s-3.55.05-5.33.05-3.55,0-5.33,0l.39-.4c0,2.27-.05,4.53-.11,6.8,0,1.13-.06,2.26-.12,3.39S39.2,148.76,39.13,149.89Z"/><path d="M62.75,136.3c.07,1.14.11,2.27.16,3.4S63,142,63,143.09c.07,2.27.1,4.53.12,6.8v.39h-.4c-1.79,0-3.59,0-5.38,0s-3.59,0-5.39,0-3.59-.06-5.39-.12c-.89,0-1.79-.07-2.69-.1l-2.69-.13c.9-.06,1.79-.1,2.69-.13l2.69-.11c1.8-.06,3.59-.09,5.39-.12s3.59-.05,5.39-.05,3.59,0,5.38,0l-.39.4q0-3.4.12-6.79c0-1.14.06-2.27.11-3.4S62.68,137.44,62.75,136.3Z"/></g><g class="cls-5"><path d="M71.72,147.33c0-1.41-.1-2.82-.12-4.23l0-2.12c0-.7,0-1.41,0-2.11v-.18h.18l4,0,4,0c1.32,0,2.63,0,3.95.06s2.63.06,4,.12c-1.32,0-2.64.09-4,.11s-2.63.07-3.95.07l-4,0-4,0,.19-.18c0,.7,0,1.41,0,2.11l0,2.12C71.83,144.51,71.78,145.92,71.72,147.33Z"/><path d="M89.22,138.86c.06,1.41.11,2.83.13,4.23s.06,2.82.06,4.23v.19h-.19l-4,0-4,0c-1.33,0-2.66,0-4-.06s-2.66-.06-4-.11q2-.09,4-.12c1.33,0,2.66-.06,4-.06l4,0,4,0-.18.19c0-1.41,0-2.82.06-4.23S89.17,140.27,89.22,138.86Z"/></g><g class="cls-5"><path d="M68.67,149.89c-.07-1.13-.11-2.27-.16-3.4s-.08-2.26-.12-3.39c-.06-2.27-.09-4.53-.12-6.8v-.39h.4c1.77,0,3.55,0,5.33,0s3.55,0,5.33,0,3.55.06,5.33.12c.89,0,1.78.07,2.67.1l2.66.13c-.89.06-1.78.1-2.66.13l-2.67.11c-1.78.06-3.55.09-5.33.12s-3.56.05-5.33.05-3.56,0-5.33,0l.39-.4c0,2.27-.06,4.53-.12,6.8,0,1.13-.06,2.26-.11,3.39S68.74,148.76,68.67,149.89Z"/><path d="M92.29,136.3c.07,1.14.11,2.27.16,3.4s.08,2.26.11,3.39c.06,2.27.1,4.53.12,6.8v.39h-.39c-1.8,0-3.59,0-5.39,0s-3.59,0-5.38,0-3.59-.06-5.39-.12c-.9,0-1.8-.07-2.69-.1l-2.69-.13c.89-.06,1.79-.1,2.69-.13l2.69-.11c1.8-.06,3.59-.09,5.39-.12s3.59-.05,5.38-.05,3.59,0,5.39,0l-.39.4q0-3.4.11-6.79c0-1.14.07-2.27.12-3.4S92.22,137.44,92.29,136.3Z"/></g><path class="cls-1" d="M60.39,87a2.77,2.77,0,0,0-4,0l-5.87,6.12L36.22,88.44l-3,3,11.95,7.36-6,6.3-3.88-.63-2.72,2.72,5.7,2,2,5.7,2.72-2.72-.63-3.88,6.3-6,7.36,12,3-3L54.22,96.85,60.34,91A2.76,2.76,0,0,0,60.39,87Z"/></svg>