<svg id="Calque_1" data-name="Calque 1" xmlns="http://www.w3.org/2000/svg" xmlns:xlink="http://www.w3.org/1999/xlink" viewBox="0 0 136 70.08"><defs><style>.cls-1{fill:none;}.cls-2{fill:#57bdc3;}.cls-3{fill:#192e35;}.cls-4{fill:#f4f4f4;}.cls-5{fill:#e95260;}.cls-6{fill:#fafafa;}.cls-7{fill:#e0e0df;}.cls-8{fill:#385a65;}.cls-9{fill:#ebebea;}.cls-10{opacity:0.6;}.cls-11{clip-path:url(#clip-path);}.cls-12{clip-path:url(#clip-path-2);}.cls-13{clip-path:url(#clip-path-3);}.cls-14{opacity:0.2;}.cls-15{clip-path:url(#clip-path-4);}.cls-16{fill:#fff;}.cls-17{fill:#449297;}.cls-18{clip-path:url(#clip-path-7);}.cls-19{clip-path:url(#clip-path-8);}</style><clipPath id="clip-path" transform="translate(0 -2.19)"><rect class="cls-1" x="94.42" y="48.32" width="6.69" height="4.08"/></clipPath><clipPath id="clip-path-2" transform="translate(0 -2.19)"><rect class="cls-1" x="56.46" y="51.71" width="6.69" height="4.08"/></clipPath><clipPath id="clip-path-3" transform="translate(0 -2.19)"><rect class="cls-1" x="63.03" y="39.87" width="0.57" height="2.76"/></clipPath><clipPath id="clip-path-4" transform="translate(0 -2.19)"><rect class="cls-1" x="70.77" y="38.69" width="15.1" height="5.3"/></clipPath><clipPath id="clip-path-7" transform="translate(0 -2.19)"><rect class="cls-1" x="115.22" y="9.6" width="20.77" height="62.66"/></clipPath><clipPath id="clip-path-8" transform="translate(0 -2.19)"><rect class="cls-1" y="2.19" width="136" height="16.9"/></clipPath></defs><title>initial-2</title><polygon class="cls-2" points="115.22 70.08 2.89 69.66 2.89 7.12 115.22 7.12 115.22 70.08"/><rect class="cls-3" x="49.22" y="24.17" width="58.23" height="40.29"/><rect class="cls-4" x="50.68" y="25.33" width="55.81" height="37.97"/><rect class="cls-3" x="54.44" y="28.86" width="17.65" height="1.11"/><path class="cls-3" d="M55.16,32.16v1.16h.3a1.66,1.66,0,0,0-.54.8H56.7s0-.29-.55-.79h.3V32.12Z" transform="translate(0 -2.19)"/><path class="cls-3" d="M58.91,32.16v1.16h.3a1.6,1.6,0,0,0-.54.8h1.77s0-.29-.54-.79h.3V32.12Z" transform="translate(0 -2.19)"/><path class="cls-3" d="M62.65,32.16v1.16H63a1.66,1.66,0,0,0-.55.8h1.78s0-.29-.54-.79h.29V32.12Z" transform="translate(0 -2.19)"/><path class="cls-3" d="M66.4,32.16v1.16h.3a1.6,1.6,0,0,0-.54.8h1.77s0-.29-.54-.79h.3V32.12Z" transform="translate(0 -2.19)"/><path class="cls-3" d="M70.14,32.16v1.16h.31a1.66,1.66,0,0,0-.55.8h1.78s0-.29-.54-.79h.3V32.12Z" transform="translate(0 -2.19)"/><path class="cls-3" d="M55.7,27.48s0,.92,0,2,0,2,0,2,0-.91,0-2,0-2,0-2" transform="translate(0 -2.19)"/><path class="cls-3" d="M70.81,27.48s0,.92,0,2,0,2,0,2,0-.91,0-2,0-2,0-2" transform="translate(0 -2.19)"/><rect class="cls-3" x="83.2" y="28.86" width="17.65" height="1.11"/><path class="cls-3" d="M83.92,32.16v1.16h.3a1.66,1.66,0,0,0-.54.8h1.78s0-.29-.55-.79h.3V32.12Z" transform="translate(0 -2.19)"/><path class="cls-3" d="M87.67,32.16v1.16H88a1.6,1.6,0,0,0-.54.8H89.2s0-.29-.54-.79H89V32.12Z" transform="translate(0 -2.19)"/><path class="cls-3" d="M91.41,32.16v1.16h.3a1.66,1.66,0,0,0-.54.8H93s0-.29-.54-.79h.29V32.12Z" transform="translate(0 -2.19)"/><path class="cls-3" d="M95.16,32.16v1.16h.3a1.6,1.6,0,0,0-.54.8h1.77s0-.29-.54-.79h.3V32.12Z" transform="translate(0 -2.19)"/><path class="cls-3" d="M98.9,32.16v1.16h.31a1.6,1.6,0,0,0-.54.8h1.77s0-.29-.54-.79h.29V32.12Z" transform="translate(0 -2.19)"/><path class="cls-3" d="M84.46,27.48s0,.92,0,2,0,2,0,2,0-.91,0-2,0-2,0-2" transform="translate(0 -2.19)"/><path class="cls-3" d="M99.57,27.48s0,.92,0,2,0,2,0,2,0-.91,0-2,0-2,0-2" transform="translate(0 -2.19)"/><path class="cls-5" d="M78.84,53H73.77a.8.8,0,0,1-.8-.81V49.75a.81.81,0,0,1,.8-.82h5.07a.82.82,0,0,1,.81.82v2.46a.81.81,0,0,1-.81.81" transform="translate(0 -2.19)"/><path class="cls-3" d="M79.11,52.84s0,0,.08-.06a.51.51,0,0,0,.16-.25,3.54,3.54,0,0,0,0-1.07c0-.47,0-1,0-1.62a1.68,1.68,0,0,0,0-.45.23.23,0,0,0-.14-.15.85.85,0,0,0-.23,0l-1,0c-1.4,0-2.68,0-3.6,0a3.14,3.14,0,0,0-.62,0,1,1,0,0,0-.44.14.77.77,0,0,0-.28.27,0,0,0,0,1,0,0l0-.07a.89.89,0,0,1,.22-.2,1,1,0,0,1,.45-.15,4.05,4.05,0,0,1,.62,0c.92,0,2.19,0,3.61,0l1,0a.82.82,0,0,1,.26,0,.34.34,0,0,1,.18.19,1.61,1.61,0,0,1,0,.48c0,.6,0,1.15,0,1.61,0,.23,0,.44,0,.63a1.25,1.25,0,0,1-.06.46.52.52,0,0,1-.18.25l-.09,0" transform="translate(0 -2.19)"/><rect class="cls-3" x="75.5" y="48.57" width="1.75" height="0.31"/><path class="cls-6" d="M73.73,50.25a0,0,0,0,0,0-.09s0,.09,0,.09" transform="translate(0 -2.19)"/><path class="cls-6" d="M74.45,50.2s0,0,0,0,0-.09-.06,0h0s0,.08.06.05" transform="translate(0 -2.19)"/><path class="cls-6" d="M74.14,50.76a0,0,0,0,0,0-.08,0,0,0,0,0,0,.08" transform="translate(0 -2.19)"/><path class="cls-6" d="M75,50.7a0,0,0,1,0,0-.07,0,0,0,1,0,0,.07" transform="translate(0 -2.19)"/><path class="cls-6" d="M73.84,51.82a0,0,0,0,0,0-.09,0,0,0,0,0,0,.09" transform="translate(0 -2.19)"/><path class="cls-6" d="M73.37,50.92a0,0,0,0,0,0-.08,0,0,0,0,0,0,.08" transform="translate(0 -2.19)"/><path class="cls-6" d="M73.26,50.5a0,0,0,0,0,0-.06,0,0,0,0,0,0,.06" transform="translate(0 -2.19)"/><path class="cls-6" d="M73.44,49.8a0,0,0,0,0,0-.06,0,0,0,1,0,0,.06" transform="translate(0 -2.19)"/><path class="cls-6" d="M74,49.58a0,0,0,0,0,0-.08,0,0,0,1,0,0,.08" transform="translate(0 -2.19)"/><path class="cls-6" d="M74.08,49.94a0,0,0,1,0,0-.07s0,.07,0,.07" transform="translate(0 -2.19)"/><path class="cls-6" d="M75.05,49.58a0,0,0,1,0,0-.07s0,.07,0,.07" transform="translate(0 -2.19)"/><path class="cls-6" d="M74.71,50.48a0,0,0,1,0,0-.08,0,0,0,0,0,0,.08" transform="translate(0 -2.19)"/><path class="cls-6" d="M75.19,50.16a0,0,0,0,0,0,0,0,0,0,0,0,0,0" transform="translate(0 -2.19)"/><path class="cls-6" d="M74.53,49.66a0,0,0,1,0,0,0,0,0,0,1,0,0,0" transform="translate(0 -2.19)"/><path class="cls-6" d="M74.54,51.11a0,0,0,0,0,0-.06,0,0,0,0,0,0,.06" transform="translate(0 -2.19)"/><path class="cls-6" d="M73.75,51.22a0,0,0,0,0,0-.06,0,0,0,0,0,0,.06" transform="translate(0 -2.19)"/><path class="cls-6" d="M73.2,51.69a0,0,0,1,0,0-.06,0,0,0,1,0,0,.06" transform="translate(0 -2.19)"/><path class="cls-6" d="M73.71,50.55a0,0,0,1,0,0,0s0,0,0,0" transform="translate(0 -2.19)"/><path class="cls-6" d="M73.09,49.93h0a0,0,0,0,0,0-.06h0a0,0,0,0,0,0,.06" transform="translate(0 -2.19)"/><path class="cls-6" d="M73.46,49.37s0,0,0,0,0,0,0,0" transform="translate(0 -2.19)"/><path class="cls-6" d="M74.72,50.93a0,0,0,0,0,0,0s0,0,0,0" transform="translate(0 -2.19)"/><path class="cls-6" d="M74.34,51.58a0,0,0,0,0,0-.06,0,0,0,1,0,0,.06" transform="translate(0 -2.19)"/><path class="cls-6" d="M74.42,52.3s0-.07,0-.07,0,.07,0,.07" transform="translate(0 -2.19)"/><path class="cls-6" d="M73.65,52.73s0-.07,0-.07,0,.07,0,.07" transform="translate(0 -2.19)"/><path class="cls-6" d="M73.3,52.17a0,0,0,0,0,0-.05,0,0,0,0,0,0,.05" transform="translate(0 -2.19)"/><path class="cls-6" d="M73.82,52.25a.07.07,0,0,0,0-.14.07.07,0,0,0,0,.14" transform="translate(0 -2.19)"/><path class="cls-6" d="M74.29,52.8a0,0,0,0,0,0-.09c-.05,0-.05.09,0,.09" transform="translate(0 -2.19)"/><path class="cls-6" d="M73.21,52.64h0s0-.1,0-.06h0s0,.09,0,.06" transform="translate(0 -2.19)"/><path class="cls-6" d="M73.24,51.21h0a0,0,0,0,0,0-.08h0a0,0,0,0,0,0,.08" transform="translate(0 -2.19)"/><path class="cls-6" d="M74.88,51.62a.06.06,0,1,0,0-.12.06.06,0,0,0,0,.12" transform="translate(0 -2.19)"/><path class="cls-6" d="M75.17,51.2a0,0,0,1,0,0-.07s0,.07,0,.07" transform="translate(0 -2.19)"/><path class="cls-6" d="M75.54,51.86h0s.06,0,0,0v0c0-.05-.1,0,0,0" transform="translate(0 -2.19)"/><path class="cls-6" d="M74.73,52a0,0,0,0,0,0-.06s0,.06,0,.06" transform="translate(0 -2.19)"/><path class="cls-6" d="M75.24,52.42a.08.08,0,0,0,0-.15.08.08,0,1,0,0,.15" transform="translate(0 -2.19)"/><path class="cls-6" d="M74.86,52.78a0,0,0,0,0,0-.09,0,0,0,0,0,0,.09" transform="translate(0 -2.19)"/><path class="cls-6" d="M74.82,52.26a0,0,0,0,0,0-.08,0,0,0,1,0,0,.08" transform="translate(0 -2.19)"/><path class="cls-6" d="M76.17,52.42a0,0,0,1,0,0,0,0,0,0,1,0,0,0" transform="translate(0 -2.19)"/><path class="cls-6" d="M75.54,52.8a0,0,0,0,0,0-.09,0,0,0,0,0,0,.09" transform="translate(0 -2.19)"/><path class="cls-6" d="M75.91,52.08a0,0,0,0,0,0,0,0,0,0,0,0,0,0" transform="translate(0 -2.19)"/><path class="cls-6" d="M76.18,51.23h0a.08.08,0,0,0-.09.11h0s.1,0,.14,0a.09.09,0,0,0,0-.13" transform="translate(0 -2.19)"/><path class="cls-6" d="M75.72,50.27h0c.1-.05,0-.2-.1-.1h0a.07.07,0,0,0,.1.09" transform="translate(0 -2.19)"/><path class="cls-6" d="M77,49.49h0c0-.09-.14-.09-.13,0h0a.07.07,0,1,0,.13,0" transform="translate(0 -2.19)"/><path class="cls-6" d="M77.8,50.31h0a.06.06,0,0,0-.08,0h0a.07.07,0,0,0,0,.13c.07,0,.11-.05.09-.11" transform="translate(0 -2.19)"/><path class="cls-6" d="M78.48,49.79h0c0,.05.1.05.11,0h0c.05-.13-.18-.13-.12,0" transform="translate(0 -2.19)"/><path class="cls-6" d="M79,50.84a.07.07,0,0,0,0-.13.07.07,0,1,0,0,.13" transform="translate(0 -2.19)"/><path class="cls-6" d="M78.3,51.64a.08.08,0,0,0,0-.16.08.08,0,0,0,0,.16" transform="translate(0 -2.19)"/><path class="cls-6" d="M77.36,52.38l0,0c0-.06,0-.11-.09-.07h0c-.07.06,0,.16.09.08" transform="translate(0 -2.19)"/><path class="cls-6" d="M77.36,51.67h0a0,0,0,1,0,0-.08h0s0,.06,0,.06" transform="translate(0 -2.19)"/><path class="cls-6" d="M78.7,52.34a0,0,0,1,0,0-.07s0,.07,0,.07" transform="translate(0 -2.19)"/><path class="cls-6" d="M76.71,50.2a0,0,0,1,0,0-.06,0,0,0,1,0,0,.06" transform="translate(0 -2.19)"/><path class="cls-6" d="M76,49.87a0,0,0,1,0,0-.07s0,.07,0,.07" transform="translate(0 -2.19)"/><path class="cls-6" d="M74.84,50a.09.09,0,0,0,0-.17c-.1,0-.1.17,0,.17" transform="translate(0 -2.19)"/><path class="cls-6" d="M74,51.33h0a.08.08,0,0,0,0-.15h0c-.13,0-.13.2,0,.15" transform="translate(0 -2.19)"/><path class="cls-6" d="M76.43,52s0-.05,0-.05,0,.05,0,.05" transform="translate(0 -2.19)"/><path class="cls-6" d="M75.63,51.44a0,0,0,0,0,0-.06,0,0,0,1,0,0,.06" transform="translate(0 -2.19)"/><path class="cls-6" d="M77,51.35h0s0-.07,0-.08h0c-.07,0-.07.12,0,.09" transform="translate(0 -2.19)"/><path class="cls-6" d="M76.58,51.59s0-.07,0-.07a0,0,0,1,0,0,.07" transform="translate(0 -2.19)"/><path class="cls-6" d="M76.94,51.78s0,0,0,0,0,0,0,0" transform="translate(0 -2.19)"/><path class="cls-6" d="M76.73,52.55a0,0,0,0,0,0-.08,0,0,0,0,0,0,.08" transform="translate(0 -2.19)"/><path class="cls-6" d="M76.19,52.92a0,0,0,1,0,0-.07,0,0,0,1,0,0,.07" transform="translate(0 -2.19)"/><polyline class="cls-6" points="75.66 50.34 75.66 50.34 75.66 50.34"/><path class="cls-6" d="M75.6,52.52s0,0,0,0a0,0,0,1,0,0,0" transform="translate(0 -2.19)"/><path class="cls-6" d="M75.19,51.67h0s0-.05,0-.05h0a0,0,0,0,0,0,.05" transform="translate(0 -2.19)"/><path class="cls-6" d="M76.14,50.49s0-.07,0-.07a0,0,0,1,0,0,.07" transform="translate(0 -2.19)"/><path class="cls-6" d="M75.58,50.6s0-.05,0-.05a0,0,0,0,0,0,.05" transform="translate(0 -2.19)"/><path class="cls-6" d="M76.24,50.18s0-.07,0-.07a0,0,0,1,0,0,.07" transform="translate(0 -2.19)"/><path class="cls-6" d="M75.58,49.71a.07.07,0,1,0,0-.13.07.07,0,0,0,0,.13" transform="translate(0 -2.19)"/><path class="cls-6" d="M76.2,49.42a0,0,0,0,0,0-.06,0,0,0,0,0,0,.06" transform="translate(0 -2.19)"/><path class="cls-6" d="M73.42,50.14c0-.06-.14,0-.12,0s.17,0,.12,0" transform="translate(0 -2.19)"/><path class="cls-6" d="M76.75,49.81a0,0,0,0,0,0-.05,0,0,0,0,0,0,.05" transform="translate(0 -2.19)"/><path class="cls-6" d="M77.84,49.5a0,0,0,0,0,0-.06,0,0,0,0,0,0,.06" transform="translate(0 -2.19)"/><path class="cls-6" d="M77.71,50.23a0,0,0,1,0,0-.06,0,0,0,0,0,0,.06" transform="translate(0 -2.19)"/><path class="cls-6" d="M77,50s0,0,0,0a0,0,0,0,0,0,0" transform="translate(0 -2.19)"/><path class="cls-6" d="M77.41,49.67a0,0,0,1,0,0,0,0,0,0,1,0,0,0" transform="translate(0 -2.19)"/><path class="cls-6" d="M77.37,50.34h0a0,0,0,0,0,0,0h0s-.06,0-.06,0a0,0,0,0,0,.06,0" transform="translate(0 -2.19)"/><path class="cls-6" d="M76.73,50.52s0-.05,0-.05,0,.05,0,.05" transform="translate(0 -2.19)"/><path class="cls-6" d="M77.7,51a.08.08,0,0,0,0-.16.08.08,0,0,0,0,.16" transform="translate(0 -2.19)"/><path class="cls-6" d="M77.65,51.6a.05.05,0,0,0,0-.1.05.05,0,0,0,0,.1" transform="translate(0 -2.19)"/><path class="cls-6" d="M77.63,51.3a0,0,0,0,0,0-.06,0,0,0,1,0,0,.06" transform="translate(0 -2.19)"/><path class="cls-6" d="M78.13,51.23a0,0,0,0,0,0-.08,0,0,0,1,0,0,.08" transform="translate(0 -2.19)"/><path class="cls-6" d="M78.58,50.86a0,0,0,0,0,0-.09s0,.09,0,.09" transform="translate(0 -2.19)"/><path class="cls-6" d="M78.22,50.51s0-.07,0-.07a0,0,0,1,0,0,.07" transform="translate(0 -2.19)"/><path class="cls-6" d="M79,50.37s0-.07,0-.07a0,0,0,1,0,0,.07" transform="translate(0 -2.19)"/><path class="cls-6" d="M78.14,49.77s0-.06,0-.06a0,0,0,0,0,0,.06" transform="translate(0 -2.19)"/><path class="cls-6" d="M78,50h0a0,0,0,0,0,0-.06h0s0,.07,0,.06" transform="translate(0 -2.19)"/><path class="cls-6" d="M78.64,50.18s0-.07,0-.07,0,.07,0,.07" transform="translate(0 -2.19)"/><path class="cls-6" d="M79,49.51a.06.06,0,1,0,0-.12.06.06,0,0,0,0,.12" transform="translate(0 -2.19)"/><path class="cls-6" d="M79.06,51.48a0,0,0,1,0,0-.06,0,0,0,0,0,0,.06" transform="translate(0 -2.19)"/><path class="cls-6" d="M78.7,51.23a0,0,0,1,0,0,0s0,0,0,0" transform="translate(0 -2.19)"/><path class="cls-6" d="M79,51.94s0,0,0,0,0,0,0,0" transform="translate(0 -2.19)"/><path class="cls-6" d="M78.5,51.87a0,0,0,1,0,0-.06s0,.06,0,.06" transform="translate(0 -2.19)"/><path class="cls-6" d="M77.89,52.37a0,0,0,0,0,0,0s0,0,0,0" transform="translate(0 -2.19)"/><path class="cls-6" d="M78.16,52.87a0,0,0,1,0,0-.08,0,0,0,0,0,0,.08" transform="translate(0 -2.19)"/><path class="cls-6" d="M77.07,52.89c.05,0,.05-.06,0-.06a0,0,0,0,0,0,.06" transform="translate(0 -2.19)"/><path class="cls-6" d="M77.42,52.73a0,0,0,1,0,0-.07s0,.07,0,.07" transform="translate(0 -2.19)"/><path class="cls-6" d="M76.47,52.21s0-.06,0-.06a0,0,0,0,0,0,.06" transform="translate(0 -2.19)"/><path class="cls-6" d="M78.05,51.77h0a0,0,0,1,0,0,0h0a0,0,0,0,0,0,0" transform="translate(0 -2.19)"/><path class="cls-6" d="M77.75,52a0,0,0,0,0,0-.06,0,0,0,0,0,0,.06" transform="translate(0 -2.19)"/><path class="cls-6" d="M76.87,52.1s0,0,0,0,0,0,0,0" transform="translate(0 -2.19)"/><path class="cls-6" d="M78.6,52.79a0,0,0,0,0,0-.08,0,0,0,0,0,0,.08" transform="translate(0 -2.19)"/><path class="cls-6" d="M74.27,52.59s0-.06,0-.06a0,0,0,0,0,0,.06" transform="translate(0 -2.19)"/><path class="cls-6" d="M73.93,52.63a0,0,0,1,0,0,0s0,0,0,0" transform="translate(0 -2.19)"/><path class="cls-6" d="M73.34,52.34a0,0,0,0,0,0-.05,0,0,0,0,0,0,.05" transform="translate(0 -2.19)"/><path class="cls-6" d="M73.47,51.78s0-.06,0-.06a0,0,0,0,0,0,.06" transform="translate(0 -2.19)"/><path class="cls-6" d="M74.33,52a0,0,0,1,0,0-.06s0,.06,0,.06" transform="translate(0 -2.19)"/><polygon class="cls-4" points="77.56 50.83 78.11 49.44 80.97 49.44 81.51 50.83 77.56 50.83"/><polygon class="cls-7" points="80.97 49.44 80.54 50.83 81.51 50.83 80.97 49.44"/><path class="cls-3" d="M78.37,52.73a.31.31,0,0,0,.17,0,.18.18,0,0,0,.13-.12.07.07,0,0,0,0-.09.07.07,0,0,0-.07,0h-.09l0-.06a.18.18,0,0,0,.12-.15.11.11,0,0,0,0-.08s0,0,0,0a.4.4,0,0,0-.11,0l0,0s0,0,0,0a.16.16,0,0,1,.13,0,.13.13,0,0,1,.08.07.2.2,0,0,1,0,.11.25.25,0,0,1-.15.19l0-.06.1,0a.14.14,0,0,1,.14.08.16.16,0,0,1,0,.15.23.23,0,0,1-.18.14.22.22,0,0,1-.15,0s0,0,0,0" transform="translate(0 -2.19)"/><path class="cls-3" d="M78.85,52.76a.08.08,0,0,1,0-.07s.05,0,.07,0a.08.08,0,0,1,0,.07s0,.05-.07,0" transform="translate(0 -2.19)"/><path class="cls-3" d="M79.4,52.15s-.07,0-.16.05-.18,0-.18,0,.07,0,.17-.06.17,0,.17,0" transform="translate(0 -2.19)"/><path class="cls-3" d="M79.09,52.67a.54.54,0,0,0,.14,0,.21.21,0,0,0,.11-.08.16.16,0,0,0,0-.15.12.12,0,0,0-.2,0l-.07.08V52.4a.55.55,0,0,1,0-.2s0,.07,0,.2l0,0a.18.18,0,0,1,.15-.08.21.21,0,0,1,.17.1.23.23,0,0,1,0,.23.24.24,0,0,1-.16.09.15.15,0,0,1-.14,0" transform="translate(0 -2.19)"/><path class="cls-3" d="M79.69,52.17s0,0,.06,0h.07a.11.11,0,0,1,.09.07.46.46,0,0,1,0,.26.5.5,0,0,1-.18.26.17.17,0,0,1-.1,0,.15.15,0,0,1-.09-.06.34.34,0,0,1,0-.16.46.46,0,0,1,.06-.25c.07-.14.18-.15.18-.14s-.08,0-.14.16a.75.75,0,0,0,0,.23s0,.09,0,.11a.06.06,0,0,0,.09,0,.47.47,0,0,0,.17-.44.08.08,0,0,0-.11-.05h-.06" transform="translate(0 -2.19)"/><path class="cls-3" d="M80.12,52.67s.08,0,.2,0a.17.17,0,0,0,.16-.1c0-.06,0-.14-.1-.18l-.12-.08a.15.15,0,0,1,0-.27l.1-.05a.32.32,0,0,1,.22,0s-.08,0-.2.05-.13.07-.13.13a.12.12,0,0,0,0,.08l.13.07a.29.29,0,0,1,.1.12.15.15,0,0,1,0,.16.21.21,0,0,1-.22.11.29.29,0,0,1-.2-.06" transform="translate(0 -2.19)"/><path class="cls-3" d="M80.22,52.94a3.65,3.65,0,0,1,.09-.51,2.05,2.05,0,0,1,.16-.5,1.84,1.84,0,0,1-.09.52,1.21,1.21,0,0,1-.16.49" transform="translate(0 -2.19)"/><rect class="cls-3" x="71.31" y="50.83" width="11.29" height="12.56"/><rect class="cls-8" x="71.31" y="50.83" width="9.04" height="12.56"/><rect class="cls-3" x="88.47" y="57.1" width="16.52" height="6.28"/><rect class="cls-8" x="86.67" y="57.1" width="16.52" height="6.28"/><rect class="cls-3" x="91.9" y="56" width="0.47" height="1.11"/><path class="cls-3" d="M91.65,55.44v.24a.72.72,0,0,1-.54.7l-.59.16s-.12,2.32,1.57,2.38,1.73-2.37,1.73-2.37l-.54-.13a.67.67,0,0,1-.5-.68v-.3Z" transform="translate(0 -2.19)"/><rect class="cls-3" x="92.07" y="52.88" width="0.29" height="0.65"/><path class="cls-3" d="M92.53,54.9a.31.31,0,1,1-.61,0,.31.31,0,0,1,.61,0" transform="translate(0 -2.19)"/><path class="cls-4" d="M92.87,56.13a.47.47,0,0,1-.1.28,1,1,0,0,1-.22.25.93.93,0,0,1-.38.16.68.68,0,0,1-.4-.12,1.26,1.26,0,0,1-.23-.24,1.6,1.6,0,0,1-.14-.27s.07.09.18.23a1.22,1.22,0,0,0,.23.22.6.6,0,0,0,.35.1.72.72,0,0,0,.35-.14.9.9,0,0,0,.21-.23,2,2,0,0,0,.15-.24" transform="translate(0 -2.19)"/><path class="cls-5" d="M92.16,56.8a.19.19,0,0,0-.16.27.2.2,0,0,0,.31,0,.2.2,0,0,0-.09-.3" transform="translate(0 -2.19)"/><path class="cls-5" d="M92.16,57.17a.12.12,0,0,0-.1.16.12.12,0,0,0,.19,0,.12.12,0,0,0-.06-.19" transform="translate(0 -2.19)"/><rect class="cls-3" x="96.85" y="56" width="0.47" height="1.11"/><path class="cls-3" d="M96.61,55.44l0,.24a.72.72,0,0,1-.53.7l-.59.16s-.13,2.32,1.57,2.38,1.73-2.37,1.73-2.37l-.54-.13a.66.66,0,0,1-.5-.68v-.3Z" transform="translate(0 -2.19)"/><rect class="cls-3" x="97.03" y="52.88" width="0.29" height="0.65"/><path class="cls-3" d="M97.48,54.9a.31.31,0,1,1-.3-.3.31.31,0,0,1,.3.3" transform="translate(0 -2.19)"/><path class="cls-4" d="M97.83,56.13a.7.7,0,0,1-.11.28,1,1,0,0,1-.22.25.88.88,0,0,1-.38.16.62.62,0,0,1-.39-.12,1,1,0,0,1-.23-.24.73.73,0,0,1-.14-.27s.07.09.18.23a1.22,1.22,0,0,0,.23.22.58.58,0,0,0,.35.1.69.69,0,0,0,.34-.14.79.79,0,0,0,.22-.23c.1-.13.13-.25.15-.24" transform="translate(0 -2.19)"/><path class="cls-4" d="M97.76,55.94a.46.46,0,0,1-.14.15,1,1,0,0,1-.46.16.91.91,0,0,1-.47-.11c-.1-.06-.16-.12-.15-.13s.07,0,.18.08a.91.91,0,0,0,.44.08,1,1,0,0,0,.43-.13c.1-.06.16-.11.17-.1" transform="translate(0 -2.19)"/><path class="cls-4" d="M97.71,55.77a1.23,1.23,0,0,1-.56.11,1.37,1.37,0,0,1-.56-.08s.25,0,.56,0,.56,0,.56,0" transform="translate(0 -2.19)"/><path class="cls-4" d="M98.08,56.39a.56.56,0,0,1,0,.12,1.27,1.27,0,0,1-.12.31,1.21,1.21,0,0,1-.31.4.92.92,0,0,1-.56.26.77.77,0,0,1-.56-.24,1.47,1.47,0,0,1-.31-.39,1.6,1.6,0,0,1-.13-.31.59.59,0,0,1,0-.13,3.18,3.18,0,0,0,.19.41,1.45,1.45,0,0,0,.31.37.8.8,0,0,0,.52.22,1,1,0,0,0,.52-.24,2.43,2.43,0,0,0,.31-.37,2.81,2.81,0,0,0,.18-.41" transform="translate(0 -2.19)"/><path class="cls-4" d="M97.1,57.49a.81.81,0,0,1,0-.35.79.79,0,0,1,0-.34.88.88,0,0,1,0,.34,1,1,0,0,1,0,.35" transform="translate(0 -2.19)"/><path class="cls-4" d="M96.28,57a.66.66,0,0,1,.15-.23c.1-.11.19-.19.2-.18s0,.11-.14.23-.19.2-.21.18" transform="translate(0 -2.19)"/><path class="cls-4" d="M97.84,57s-.09-.07-.18-.18-.14-.22-.12-.23.1.07.18.18.14.22.12.23" transform="translate(0 -2.19)"/><path class="cls-4" d="M96.82,56.7a.92.92,0,0,1,0-.25c0-.14,0-.26.06-.26s0,.12,0,.27-.08.25-.1.24" transform="translate(0 -2.19)"/><path class="cls-4" d="M97.45,56.66s-.11-.08-.15-.23,0-.27,0-.27a1.22,1.22,0,0,1,.07.25,1.8,1.8,0,0,1,.08.25" transform="translate(0 -2.19)"/><path class="cls-4" d="M97.16,56.21s-.06-.08-.07-.2,0-.2,0-.2,0,.09,0,.2,0,.2,0,.2" transform="translate(0 -2.19)"/><path class="cls-4" d="M97.59,56.06s-.06,0-.09-.09,0-.12,0-.12.05,0,.07.09,0,.11,0,.12" transform="translate(0 -2.19)"/><path class="cls-4" d="M96.65,56.09s0-.06,0-.13a.87.87,0,0,1,0-.1h0a0,0,0,0,1,0,0v0l0,0a.18.18,0,0,1,0,.11c0,.08-.06.13-.08.12" transform="translate(0 -2.19)"/><path class="cls-8" d="M97.12,57.46a.22.22,0,0,0-.11,0,.15.15,0,0,0,0,.18.14.14,0,0,0,.17,0,.16.16,0,0,0,0-.17.12.12,0,0,0-.16-.06" transform="translate(0 -2.19)"/><path class="cls-8" d="M97.93,56.88a.3.3,0,0,0-.1,0,.13.13,0,0,0,.15.21A.13.13,0,0,0,98,57a.13.13,0,0,0-.16-.06" transform="translate(0 -2.19)"/><path class="cls-8" d="M96.25,56.88a.22.22,0,0,0-.11,0,.15.15,0,0,0,0,.18.14.14,0,0,0,.17,0,.13.13,0,0,0-.11-.24" transform="translate(0 -2.19)"/><path class="cls-8" d="M96.6,57.29a.09.09,0,0,0-.06,0,.06.06,0,0,0,0,.08.07.07,0,0,0,.08,0,.07.07,0,0,0,0-.08s-.06-.05-.08,0" transform="translate(0 -2.19)"/><path class="cls-8" d="M97.55,57.27l0,0a.06.06,0,1,0,.08.1.07.07,0,0,0,0-.08.07.07,0,0,0-.08,0" transform="translate(0 -2.19)"/><polygon class="cls-9" points="102.39 57.11 102.97 54.52 100.34 54.52 99.58 57.11 102.39 57.11"/><polygon class="cls-7" points="102.97 54.52 103.78 57.11 102.39 57.11 102.97 54.52"/><path class="cls-3" d="M100.57,57.16a5.82,5.82,0,0,1,.94,0,7.38,7.38,0,0,1,.93,0,5.64,5.64,0,0,1-.93,0,5.82,5.82,0,0,1-.94,0" transform="translate(0 -2.19)"/><path class="cls-3" d="M101.11,57.71a2.75,2.75,0,0,1,.64,0,2.62,2.62,0,0,1,.63,0,3,3,0,0,1-.63,0,2.47,2.47,0,0,1-.64,0" transform="translate(0 -2.19)"/><path class="cls-3" d="M100.44,57.63s0,0,.11,0,.11,0,.11,0,0,0-.11,0-.11,0-.11,0" transform="translate(0 -2.19)"/><path class="cls-3" d="M100.94,58.15a2.62,2.62,0,0,1,.63,0,2.75,2.75,0,0,1,.64,0,2.75,2.75,0,0,1-.64,0,2.62,2.62,0,0,1-.63,0" transform="translate(0 -2.19)"/><path class="cls-3" d="M100.26,58.08s.06,0,.12,0,.11,0,.11,0,0,0-.11,0-.12,0-.12,0" transform="translate(0 -2.19)"/><path class="cls-3" d="M100.76,58.59a3.15,3.15,0,0,1,.64,0,3,3,0,0,1,.63,0,2.62,2.62,0,0,1-.63,0,2.75,2.75,0,0,1-.64,0" transform="translate(0 -2.19)"/><path class="cls-3" d="M100.09,58.52s0,0,.11,0,.11,0,.11,0,0,0-.11,0-.11,0-.11,0" transform="translate(0 -2.19)"/><rect class="cls-4" x="89.56" y="58.75" width="11.53" height="2.17"/><rect class="cls-3" x="92.7" y="50.16" width="10.02" height="0.76"/><rect class="cls-5" x="94.42" y="46.14" width="6.69" height="4.08"/><g class="cls-10"><g class="cls-11"><rect x="94.42" y="46.14" width="6.69" height="4.08"/></g></g><rect class="cls-5" x="94.1" y="46.14" width="6.69" height="4.08"/><path class="cls-3" d="M100.79,48.32l-.05.06-.16.15A3.59,3.59,0,0,1,100,49a4.94,4.94,0,0,1-2.49.71,4.68,4.68,0,0,1-2.5-.67,5.49,5.49,0,0,1-.65-.46l-.16-.15-.05,0s.08.06.23.17A4,4,0,0,0,95,49a4.88,4.88,0,0,0,2.48.64A5,5,0,0,0,99.93,49a4.79,4.79,0,0,0,.64-.45l.22-.19" transform="translate(0 -2.19)"/><path class="cls-6" d="M97.71,49.67a.27.27,0,0,0-.07-.17.29.29,0,0,0-.44,0,.27.27,0,0,0,0,.36.28.28,0,0,0,.35.09.3.3,0,0,0,.16-.33" transform="translate(0 -2.19)"/><path class="cls-3" d="M100.9,48.21l0,0,.07.12a3.33,3.33,0,0,1,.27.47,6.33,6.33,0,0,1,.63,1.9c0,.21,0,.44.11.65a.9.9,0,0,0,.17.3.69.69,0,0,0,.3.18,3.19,3.19,0,0,1,.35.14.53.53,0,0,1,.27.3.74.74,0,0,1-.21.78,1.76,1.76,0,0,1-.76.41,5.06,5.06,0,0,1-.87.23,3.09,3.09,0,0,1-1.87-.16A2.94,2.94,0,0,1,98.6,53a4.36,4.36,0,0,0-.71-.59,1.76,1.76,0,0,0-.83-.26,4.86,4.86,0,0,0-.85.06,5.56,5.56,0,0,1-.81.08,1.83,1.83,0,0,1-.77-.15,1.16,1.16,0,0,1-.56-.46,1.25,1.25,0,0,1-.17-.64,5.92,5.92,0,0,1,0-.61c0-.18,0-.37,0-.53,0-.34,0-.63,0-.86s0-.42,0-.55,0-.1,0-.14a.12.12,0,0,1,0,0v.19c0,.13,0,.32,0,.55s0,.52,0,.86c0,.17,0,.35,0,.54s0,.39,0,.6a1.26,1.26,0,0,0,.17.62,1.13,1.13,0,0,0,.53.43,1.86,1.86,0,0,0,.75.14,7.92,7.92,0,0,0,.81-.08,4,4,0,0,1,.86-.06,1.69,1.69,0,0,1,.86.26c.52.33.89.89,1.49,1.14a3.08,3.08,0,0,0,1.82.16,7.74,7.74,0,0,0,.86-.23,1.88,1.88,0,0,0,.74-.39.7.7,0,0,0,.19-.72.49.49,0,0,0-.24-.27,3.65,3.65,0,0,0-.35-.14.88.88,0,0,1-.32-.19.9.9,0,0,1-.17-.32,5.67,5.67,0,0,1-.11-.66,6.86,6.86,0,0,0-.6-1.9,3.48,3.48,0,0,0-.26-.47l-.07-.13a.1.1,0,0,1,0,0" transform="translate(0 -2.19)"/><rect class="cls-3" x="92.48" y="42.7" width="10.02" height="0.75"/><polygon class="cls-3" points="100.47 42.71 95.88 42.71 95.88 39.2 99.84 39.2 100.47 42.71"/><polygon class="cls-8" points="99.43 42.71 94.32 42.71 94.75 39.2 99.72 39.2 99.43 42.71"/><path class="cls-3" d="M99.7,41.35l0,.07a2.05,2.05,0,0,1-.08.2,5.27,5.27,0,0,1-.34.69,3.39,3.39,0,0,1-.75.86,2.27,2.27,0,0,1-1.3.49,2.33,2.33,0,0,1-1.35-.38,2.5,2.5,0,0,1-.77-.84,3.06,3.06,0,0,1-.27-.73c0-.09,0-.15,0-.2v-.07a2,2,0,0,1,.06.27,3.16,3.16,0,0,0,.29.7,2.39,2.39,0,0,0,.76.81,2.23,2.23,0,0,0,1.3.36,2.13,2.13,0,0,0,1.26-.47,3.18,3.18,0,0,0,.75-.84,5.25,5.25,0,0,0,.36-.67c0-.07.06-.14.09-.19s0-.06,0-.06" transform="translate(0 -2.19)"/><path class="cls-3" d="M97.05,44.31A.71.71,0,0,1,97,44a.76.76,0,0,1,0-.33.86.86,0,0,1,0,.33.78.78,0,0,1,0,.34" transform="translate(0 -2.19)"/><path class="cls-3" d="M97.43,44.3a.79.79,0,0,1-.05-.36.67.67,0,0,1,0-.35,1,1,0,0,1,0,.35c0,.2,0,.36,0,.36" transform="translate(0 -2.19)"/><path class="cls-3" d="M97.73,44.19a.71.71,0,0,1,0-.34.77.77,0,0,1,0-.35,1.12,1.12,0,0,1,0,.35,1,1,0,0,1,0,.34" transform="translate(0 -2.19)"/><path class="cls-3" d="M98.08,44.11a1.08,1.08,0,0,1,0-.37,1.41,1.41,0,0,1,0-.37s0,.16,0,.37a1,1,0,0,1,0,.37" transform="translate(0 -2.19)"/><path class="cls-3" d="M98.45,43.94a1.6,1.6,0,0,1,0-.41c0-.23,0-.41.06-.41a1.55,1.55,0,0,1,0,.41,1.17,1.17,0,0,1-.06.41" transform="translate(0 -2.19)"/><path class="cls-3" d="M98.81,43.58a.89.89,0,0,1,0-.4,1,1,0,0,1,.08-.4s0,.18,0,.4a1.66,1.66,0,0,1,0,.4" transform="translate(0 -2.19)"/><path class="cls-3" d="M99.11,43.28a1.69,1.69,0,0,1,0-.49,2.65,2.65,0,0,1,.08-.47,1.28,1.28,0,0,1,0,.48,2,2,0,0,1-.08.48" transform="translate(0 -2.19)"/><path class="cls-3" d="M99.43,42.64a1.16,1.16,0,0,1,0-.4,1.31,1.31,0,0,1,.08-.4,1.12,1.12,0,0,1,0,.4,1.09,1.09,0,0,1-.08.4" transform="translate(0 -2.19)"/><path class="cls-3" d="M96.59,44.15s0-.12,0-.28,0-.29.07-.28,0,.13,0,.28,0,.28,0,.28" transform="translate(0 -2.19)"/><path class="cls-3" d="M96.19,44.16a1,1,0,0,1,0-.36,1,1,0,0,1,.07-.36,1.12,1.12,0,0,1,0,.37.91.91,0,0,1-.07.35" transform="translate(0 -2.19)"/><path class="cls-3" d="M95.84,43.93a1.74,1.74,0,0,1,0-.35,1.39,1.39,0,0,1,0-.35.57.57,0,0,1,.06.35.62.62,0,0,1-.07.35" transform="translate(0 -2.19)"/><path class="cls-3" d="M95.48,43.81a1.53,1.53,0,0,1,0-.44,1.32,1.32,0,0,1,.06-.44,1.27,1.27,0,0,1,0,.45,1.23,1.23,0,0,1-.06.43" transform="translate(0 -2.19)"/><path class="cls-3" d="M95.15,43.41a1,1,0,0,1,0-.42,1.27,1.27,0,0,1,.09-.42,1.26,1.26,0,0,1,0,.42,1.69,1.69,0,0,1-.07.42" transform="translate(0 -2.19)"/><path class="cls-3" d="M94.9,42.86a1.58,1.58,0,0,1,0-.86,1.73,1.73,0,0,1,0,.43,1.61,1.61,0,0,1,0,.43" transform="translate(0 -2.19)"/><rect class="cls-6" x="96.62" y="39.81" width="1.11" height="0.16"/><rect class="cls-3" x="54.57" y="40.43" width="10.03" height="0.75"/><rect class="cls-3" x="54.74" y="53.55" width="10.03" height="0.76"/><rect class="cls-5" x="56.46" y="49.52" width="6.69" height="4.08"/><g class="cls-10"><g class="cls-12"><rect x="56.46" y="49.52" width="6.69" height="4.08"/></g></g><rect class="cls-5" x="56.14" y="49.52" width="6.68" height="4.08"/><path class="cls-3" d="M62.82,51.71s0,0,0,.06l-.15.15a4.56,4.56,0,0,1-.63.48,5,5,0,0,1-2.49.7A4.84,4.84,0,0,1,57,52.44a6.16,6.16,0,0,1-.64-.46l-.16-.15s0,0,0-.06l.23.18a4,4,0,0,0,.65.44,5,5,0,0,0,4.94,0,3.75,3.75,0,0,0,.64-.45l.22-.19" transform="translate(0 -2.19)"/><path class="cls-6" d="M59.75,53.06a.3.3,0,0,0-.08-.17.29.29,0,0,0-.44,0,.3.3,0,0,0,0,.36.31.31,0,0,0,.36.09.3.3,0,0,0,.16-.33" transform="translate(0 -2.19)"/><path class="cls-3" d="M62.94,51.6l0,0,.07.12a3.33,3.33,0,0,1,.27.47,6.33,6.33,0,0,1,.63,1.9c0,.21.05.44.11.65a1,1,0,0,0,.16.3.83.83,0,0,0,.3.18c.12.05.24.08.36.14a.53.53,0,0,1,.27.3.79.79,0,0,1-.21.79,1.92,1.92,0,0,1-.76.4,5.06,5.06,0,0,1-.87.23A3.17,3.17,0,0,1,61.43,57a2.94,2.94,0,0,1-.79-.55,4.36,4.36,0,0,0-.71-.59,1.76,1.76,0,0,0-.83-.26,4,4,0,0,0-.85.06,5.69,5.69,0,0,1-.81.08,1.8,1.8,0,0,1-.77-.15,1.22,1.22,0,0,1-.56-.46,1.37,1.37,0,0,1-.17-.65,5.82,5.82,0,0,1,0-.6c0-.19,0-.37,0-.54,0-.33,0-.62.05-.85s0-.42,0-.55a.76.76,0,0,0,0-.14.12.12,0,0,1,0,0v.19c0,.13,0,.31,0,.55s0,.52,0,.86c0,.16,0,.35,0,.53s0,.4,0,.61a1.25,1.25,0,0,0,.17.61,1.13,1.13,0,0,0,.54.44,1.63,1.63,0,0,0,.74.13,5.56,5.56,0,0,0,.8-.08,6.15,6.15,0,0,1,.87-.06,1.81,1.81,0,0,1,.86.27c.53.32.89.88,1.49,1.13a3.11,3.11,0,0,0,1.83.16,6.38,6.38,0,0,0,.86-.22,1.85,1.85,0,0,0,.73-.4.69.69,0,0,0,.2-.71.49.49,0,0,0-.24-.27,3.65,3.65,0,0,0-.35-.14.83.83,0,0,1-.32-.2.67.67,0,0,1-.17-.32,4,4,0,0,1-.11-.65,7.09,7.09,0,0,0-.6-1.9L63,51.76,63,51.64a.06.06,0,0,1,0,0" transform="translate(0 -2.19)"/><rect class="cls-3" x="54.52" y="46.09" width="10.03" height="0.76"/><polygon class="cls-3" points="62.51 46.1 57.92 46.1 57.92 42.59 61.88 42.59 62.51 46.1"/><polygon class="cls-8" points="61.46 46.1 56.36 46.1 56.79 42.59 61.76 42.59 61.46 46.1"/><path class="cls-3" d="M61.74,44.74l0,.07s0,.11-.08.2a4.72,4.72,0,0,1-.34.69,3.39,3.39,0,0,1-.75.86,2.22,2.22,0,0,1-2.64.11,2.49,2.49,0,0,1-1-1.57,1,1,0,0,1,0-.2.42.42,0,0,1,0-.07s0,.1.07.27a2.64,2.64,0,0,0,.28.7,2.5,2.5,0,0,0,.76.81,2.27,2.27,0,0,0,1.3.36,2.2,2.2,0,0,0,1.26-.47,3.18,3.18,0,0,0,.75-.84,5.58,5.58,0,0,0,.37-.67l.08-.19s0-.06,0-.06" transform="translate(0 -2.19)"/><path class="cls-3" d="M59.09,47.7a.71.71,0,0,1,0-.34c0-.18,0-.33,0-.33a1.17,1.17,0,0,1,0,.33.78.78,0,0,1,0,.34" transform="translate(0 -2.19)"/><path class="cls-3" d="M59.47,47.69a.79.79,0,0,1,0-.36.72.72,0,0,1,0-.36,1,1,0,0,1,0,.36,1,1,0,0,1,0,.36" transform="translate(0 -2.19)"/><path class="cls-3" d="M59.77,47.58a.81.81,0,0,1,0-.35c0-.19,0-.35.06-.34a1,1,0,0,1,0,.34,1.05,1.05,0,0,1,0,.35" transform="translate(0 -2.19)"/><path class="cls-3" d="M60.12,47.5a1.08,1.08,0,0,1,0-.37,1,1,0,0,1,0-.37.91.91,0,0,1,0,.37,1,1,0,0,1,0,.37" transform="translate(0 -2.19)"/><path class="cls-3" d="M60.49,47.33a1.17,1.17,0,0,1,0-.41,1.26,1.26,0,0,1,.05-.41,1.17,1.17,0,0,1,0,.41,1,1,0,0,1,0,.41" transform="translate(0 -2.19)"/><path class="cls-3" d="M60.85,47a.89.89,0,0,1,0-.4,1.29,1.29,0,0,1,.08-.39,1.29,1.29,0,0,1,0,.4,1.53,1.53,0,0,1,0,.39" transform="translate(0 -2.19)"/><path class="cls-3" d="M61.15,46.67a1.64,1.64,0,0,1,0-.48,1.91,1.91,0,0,1,.08-.48,1.61,1.61,0,0,1,0,.48,2,2,0,0,1-.08.48" transform="translate(0 -2.19)"/><path class="cls-3" d="M61.47,46a1.12,1.12,0,0,1,0-.4,1.07,1.07,0,0,1,.08-.39,1.12,1.12,0,0,1,0,.4,1,1,0,0,1-.08.39" transform="translate(0 -2.19)"/><path class="cls-3" d="M58.63,47.54a.48.48,0,0,1,0-.29c0-.15,0-.28.07-.27s0,.12,0,.28,0,.28,0,.28" transform="translate(0 -2.19)"/><path class="cls-3" d="M58.23,47.55a1,1,0,0,1,0-.36,1,1,0,0,1,.07-.36,1,1,0,0,1,0,.36,1,1,0,0,1-.07.36" transform="translate(0 -2.19)"/><path class="cls-3" d="M57.88,47.32a1.74,1.74,0,0,1,0-.35,1.39,1.39,0,0,1,0-.35A.67.67,0,0,1,58,47a.62.62,0,0,1-.07.35" transform="translate(0 -2.19)"/><path class="cls-3" d="M57.52,47.2a1.2,1.2,0,0,1,0-.44,1.32,1.32,0,0,1,.06-.44,1.56,1.56,0,0,1,0,.44,1.26,1.26,0,0,1-.06.44" transform="translate(0 -2.19)"/><path class="cls-3" d="M57.19,46.8a1,1,0,0,1,0-.43,1.33,1.33,0,0,1,.08-.41s0,.19,0,.42a1.82,1.82,0,0,1-.07.42" transform="translate(0 -2.19)"/><path class="cls-3" d="M56.94,46.25a1.58,1.58,0,0,1,0-.86,1.7,1.7,0,0,1,0,.43,2.32,2.32,0,0,1,0,.43" transform="translate(0 -2.19)"/><rect class="cls-6" x="58.66" y="43.2" width="1.11" height="0.16"/><rect class="cls-5" x="56.1" y="37.68" width="7.5" height="2.76"/><rect class="cls-5" x="55.43" y="37.68" width="7.5" height="2.76"/><path class="cls-6" d="M63.6,40.74s-1.82,0-4.07,0-4.06,0-4.06,0,1.82,0,4.06,0,4.07,0,4.07,0" transform="translate(0 -2.19)"/><path class="cls-6" d="M63.59,40.2s-1.84,0-4.1,0-4.1,0-4.1,0,1.83,0,4.1,0,4.1,0,4.1,0" transform="translate(0 -2.19)"/><path class="cls-6" d="M63.6,41.81s-1.82,0-4.07,0-4.06,0-4.06,0,1.82,0,4.06,0,4.07,0,4.07,0" transform="translate(0 -2.19)"/><path class="cls-6" d="M63.57,42.29s-1.82,0-4.07,0-4.06,0-4.06,0,1.82,0,4.06,0,4.07,0,4.07,0" transform="translate(0 -2.19)"/><path class="cls-6" d="M63.59,41.27s-1.84,0-4.1,0-4.1,0-4.1,0,1.83,0,4.1,0,4.1,0,4.1,0" transform="translate(0 -2.19)"/><g class="cls-10"><g class="cls-13"><rect x="63.03" y="37.68" width="0.57" height="2.76"/></g></g><path class="cls-3" d="M62.94,39.86l-.07,0-.21.11-.79.39-2.6,1.26h0l-.06,0L56.53,40.4,55.72,40l-.21-.11-.08,0,.08,0,.23.1.81.36,2.66,1.22.06,0h0l2.61-1.24c.33-.14.6-.27.79-.36l.22-.1.08,0" transform="translate(0 -2.19)"/><path class="cls-3" d="M59.29,41.19a.41.41,0,0,0-.28.75.44.44,0,0,0,.51,0,.43.43,0,0,0,.12-.49.44.44,0,0,0-.44-.26" transform="translate(0 -2.19)"/><path class="cls-3" d="M61.7,39.86s0-.07-.11-.19a3.3,3.3,0,0,0-.36-.51,2,2,0,0,0-.72-.55,2.6,2.6,0,0,0-1.1-.19,3.17,3.17,0,0,0-1.1.21,2,2,0,0,0-.76.49,1.76,1.76,0,0,0-.32.53c0,.13,0,.22-.06.22v-.06a.79.79,0,0,1,0-.17,1.44,1.44,0,0,1,.3-.55,2.1,2.1,0,0,1,.78-.53,3.28,3.28,0,0,1,1.12-.22,2.74,2.74,0,0,1,1.13.2,2.1,2.1,0,0,1,.73.58,2.62,2.62,0,0,1,.34.53l.07.15a.32.32,0,0,0,0,.06" transform="translate(0 -2.19)"/><rect class="cls-5" x="69.95" y="37.87" width="17.26" height="6.91" transform="translate(-2.51 2.99) rotate(-3.72)"/><g class="cls-14"><g class="cls-15"><path class="cls-16" d="M74.06,42.44c.06.75-.44,1.44-1.65,1.54a2.94,2.94,0,0,1-1.64-.33l.33-.78a2,2,0,0,0,1.23.29c.48,0,.77-.27.74-.61s-.26-.53-1-.47L71,42.16l0-2.39,2.58-.2.06.78-1.76.14v.81l.35,0c1.25-.1,1.78.43,1.84,1.17" transform="translate(0 -2.19)"/></g><g class="cls-15"><path class="cls-16" d="M75.6,41.54c-.1-1.4.61-2.25,1.65-2.33s1.86.65,2,2-.6,2.24-1.64,2.32-1.87-.65-2-2m2.64-.21c-.07-1-.44-1.33-.93-1.29s-.79.46-.72,1.42.44,1.33.93,1.29.79-.46.72-1.42" transform="translate(0 -2.19)"/></g><g class="cls-15"><path class="cls-16" d="M80.75,40.14a1.07,1.07,0,0,1,1-1.25,1.17,1.17,0,1,1-1,1.25M82.24,40c0-.45-.22-.65-.49-.63s-.42.26-.39.7.24.65.5.64.42-.25.38-.71m2-1.27.72-.06-2.56,4.44-.71.06Zm-.45,3.16A1.05,1.05,0,1,1,84.91,43a1,1,0,0,1-1.13-1.08m1.48-.12c0-.44-.23-.65-.49-.63s-.42.25-.39.7.23.65.49.63.43-.25.39-.7" transform="translate(0 -2.19)"/></g></g><path class="cls-4" d="M73.42,42.47l.12-.32a1.07,1.07,0,0,0,.6.15c.25,0,.34-.11.33-.22,0-.34-1,0-1.1-.7,0-.31.21-.58.72-.61a1.12,1.12,0,0,1,.64.12l-.11.32a1.07,1.07,0,0,0-.51-.11c-.24,0-.33.12-.32.23,0,.33,1,0,1.09.69,0,.3-.21.57-.72.61a1.27,1.27,0,0,1-.74-.16" transform="translate(0 -2.19)"/><path class="cls-4" d="M77.64,42,76.8,42l-.13.4-.42,0,.67-1.85.41,0,.93,1.74-.44,0Zm-.15-.31L77.15,41l-.23.71Z" transform="translate(0 -2.19)"/><polygon class="cls-4" points="79.6 38.24 80.02 38.21 80.12 39.67 81.01 39.6 81.04 39.94 79.72 40.03 79.6 38.24"/><polygon class="cls-4" points="83.92 39.41 83.94 39.75 82.55 39.84 82.43 38.05 83.78 37.96 83.81 38.29 82.86 38.35 82.89 38.74 83.72 38.69 83.75 39.01 82.91 39.06 82.94 39.48 83.92 39.41"/><path class="cls-3" d="M76.19,40a.3.3,0,0,1,.29-.32.3.3,0,0,1,.33.27.29.29,0,0,1-.28.32.31.31,0,0,1-.34-.27m.49,0a.17.17,0,0,0-.19-.17.19.19,0,1,0,0,.37.18.18,0,0,0,.16-.2" transform="translate(0 -2.19)"/><polygon class="cls-3" points="77.43 37.49 77.44 37.64 77.7 37.62 77.71 37.72 77.45 37.74 77.47 37.95 77.34 37.96 77.29 37.39 77.72 37.36 77.72 37.46 77.43 37.49"/><polygon class="cls-3" points="78.35 37.41 78.36 37.56 78.62 37.54 78.63 37.64 78.37 37.66 78.39 37.87 78.26 37.88 78.21 37.32 78.64 37.28 78.64 37.39 78.35 37.41"/><polygon class="cls-3" points="79.61 37.66 79.61 37.77 79.18 37.81 79.13 37.24 79.56 37.2 79.56 37.31 79.27 37.33 79.28 37.46 79.54 37.43 79.55 37.53 79.29 37.56 79.3 37.69 79.61 37.66"/><path class="cls-3" d="M80.48,39.88l-.12-.14h-.12v.15l-.13,0-.05-.57.25,0c.15,0,.25.06.26.18a.17.17,0,0,1-.1.19l.14.17Zm-.16-.45h-.11l0,.2h.11c.08,0,.11-.05.11-.11s0-.09-.13-.09" transform="translate(0 -2.19)"/><path class="cls-3" d="M60.65,69.67v-.16c0-.11,0-.27,0-.47,0-.4,0-1,0-1.73l0,0H52.08s0,0,0,0h0v2.34l0,0h6.11l1.8,0H58.22l-6.14,0h0V67.33h0c.07-.07,0,0,0,0l8.57,0h0v0c0,.75,0,1.34,0,1.75,0,.19,0,.35,0,.46v.15" transform="translate(0 -2.19)"/><rect class="cls-3" x="15.1" y="24.02" width="18.57" height="45.63"/><rect class="cls-9" x="16.42" y="24.85" width="15.93" height="39.56"/><polygon class="cls-6" points="16.52 44.01 24.69 40.99 24.69 24.85 16.42 24.85 16.52 44.01"/><rect class="cls-3" x="30.43" y="44.01" width="0.91" height="5.67"/><path class="cls-8" d="M15.62,69.81V69.6c0-.14,0-.34,0-.61,0-.55,0-1.36,0-2.4,0-2.09,0-5.15,0-9,0-7.68,0-18.49.08-31v0H33.18v43.3h0l-1.34,1.34h0l-15.4,0h0l-.6-1-.19-.34.2.34.6,1H31.8l1.33-1.33v0c0-10.9,0-25.95,0-42.54v-.74l0,0H15.75l0,0c0,12.56-.09,23.36-.11,31,0,3.84,0,6.89,0,9,0,1,0,1.86,0,2.4,0,.27,0,.48,0,.62v.21" transform="translate(0 -2.19)"/><rect class="cls-5" x="115.22" y="7.41" width="20.77" height="62.66"/><rect id="SVGID" class="cls-17" x="115.22" y="7.41" width="20.77" height="62.66"/><g class="cls-18"><rect class="cls-17" x="115.22" y="7.41" width="20.77" height="62.66"/></g><rect class="cls-5" width="136" height="16.9"/><rect id="SVGID-2" data-name="SVGID" class="cls-17" width="136" height="16.9"/><g class="cls-19"><rect class="cls-17" width="136" height="16.9"/></g><rect class="cls-4" x="22.77" y="5.13" width="56.07" height="8.2"/><path class="cls-3" d="M78.84,15.52a3.64,3.64,0,0,1,0-.56c0-.39,0-.91,0-1.59,0-1.41,0-3.44-.07-6.06l.12.13c-10.68.08-31.8.14-56.06.14h0c-.06,0,.49-.5.25-.26h0v8.19l-.26-.26,39.82.11,11.88.08,3.23,0,.84,0a1.11,1.11,0,0,1,.3,0h-.27l-.81,0-3.17,0-11.82.07-40,.11h-.26V7.33h0l.27-.27h0c24.26,0,45.38.06,56.06.14H79v.12c0,2.65,0,4.71-.06,6.14,0,.66,0,1.17,0,1.56a3.28,3.28,0,0,1,0,.51" transform="translate(0 -2.19)"/><path class="cls-3" d="M115.32,2.19a70,70,0,0,1,.26,8.46,70.05,70.05,0,0,1-.26,8.47,67.68,67.68,0,0,1-.26-8.47,67.57,67.57,0,0,1,.26-8.46" transform="translate(0 -2.19)"/><rect class="cls-16" x="8.4" y="34.43" width="32.58" height="15.64" transform="translate(-1.79 -1.09) rotate(-2.45)"/><path class="cls-3" d="M41.3,49.37a1.54,1.54,0,0,1,0-.29c0-.22,0-.49,0-.83-.05-.76-.11-1.8-.18-3.13-.14-2.73-.35-6.6-.59-11.37l.2.19L8.09,35.4l.25-.27h0v.5l0,.52,0,1c0,.68.06,1.35.08,2,.06,1.34.12,2.67.17,4,.11,2.61.21,5.14.31,7.56l-.25-.23,23.31-.88,6.77-.22,1.83-.05h.65a4,4,0,0,1-.59.06l-1.77.1-6.71.36L8.76,51H8.51v-.25c-.1-2.42-.22-5-.33-7.56-.06-1.31-.12-2.64-.18-4,0-.67,0-1.35-.08-2l0-1,0-.52v-.48h0v0h0c-.05.06.47-.52.25-.27l32.55-1.32h.19v.19c.16,4.81.29,8.73.39,11.49,0,1.31.06,2.35.08,3.1,0,.32,0,.58,0,.79a2.06,2.06,0,0,1,0,.25" transform="translate(0 -2.19)"/><path class="cls-3" d="M14.88,42.47a1.73,1.73,0,0,1,1.74-1.81,1.75,1.75,0,0,1,1.4.54l-.48.47a1.1,1.1,0,0,0-.86-.35,1,1,0,0,0-1,1.11,1,1,0,0,0,1.12,1A1.06,1.06,0,0,0,17.6,43l.52.44a1.7,1.7,0,0,1-1.36.65,1.71,1.71,0,0,1-1.88-1.64" transform="translate(0 -2.19)"/><polygon class="cls-3" points="18.51 38.45 19.29 38.42 19.4 41.13 21.08 41.05 21.11 41.69 18.66 41.79 18.51 38.45"/><path class="cls-3" d="M21.2,42.2a1.83,1.83,0,1,1,1.9,1.65,1.73,1.73,0,0,1-1.9-1.65m2.87-.13a1,1,0,1,0-2.09.09,1,1,0,1,0,2.09-.09" transform="translate(0 -2.19)"/><path class="cls-3" d="M25.23,43.37l.24-.6a2,2,0,0,0,1.11.31c.46,0,.64-.18.63-.39,0-.62-1.95-.11-2-1.35,0-.57.41-1.06,1.36-1.1a2.22,2.22,0,0,1,1.17.24l-.21.6a2.1,2.1,0,0,0-.94-.23c-.45,0-.62.2-.61.41,0,.61,1.95.11,2,1.33,0,.57-.42,1.06-1.37,1.11a2.48,2.48,0,0,1-1.38-.33" transform="translate(0 -2.19)"/><polygon class="cls-3" points="31.11 40.64 31.14 41.26 28.55 41.37 28.41 38.03 30.93 37.92 30.96 38.54 29.2 38.61 29.23 39.34 30.79 39.27 30.81 39.87 29.26 39.94 29.29 40.71 31.11 40.64"/><path class="cls-3" d="M31.61,40.08,33.13,40A1.66,1.66,0,0,1,35,41.61a1.67,1.67,0,0,1-1.77,1.75l-1.52.06Zm1.59,2.64a1,1,0,1,0-.08-2.07l-.71,0,.09,2.07Z" transform="translate(0 -2.19)"/></svg>