<svg id="Calque_1" data-name="Calque 1" xmlns="http://www.w3.org/2000/svg" xmlns:xlink="http://www.w3.org/1999/xlink" viewBox="0 0 116.79 140.03"><defs><style>.cls-1{fill:none;}.cls-2{fill:#385a65;}.cls-3{fill:#e95260;}.cls-4{fill:#192e35;}.cls-5{fill:#fafafa;}.cls-6{opacity:0.4;}.cls-7{clip-path:url(#clip-path);}.cls-8{clip-path:url(#clip-path-2);}.cls-9{fill:#e0e0df;}.cls-10{fill:#fff;}.cls-11{fill:#ebebea;}</style><clipPath id="clip-path" transform="translate(0 0.32)"><rect class="cls-1" x="41.89" y="89.12" width="50.17" height="50.11"/></clipPath><clipPath id="clip-path-2" transform="translate(0 0.32)"><rect class="cls-1" x="12.89" y="89.12" width="22.44" height="50.27"/></clipPath></defs><title>initial-3</title><polygon class="cls-2" points="97.65 139.77 3.55 139.56 3.55 35.38 97.65 35.38 97.65 139.77"/><rect class="cls-3" x="41.89" y="89.44" width="50.11" height="50.11"/><path class="cls-4" d="M92.07,136.55c0,.14-11.19.26-25,.26s-25-.12-25-.26,11.19-.26,25-.26,25,.12,25,.26" transform="translate(0 0.32)"/><path class="cls-4" d="M92.07,133.77c0,.15-11.19.26-25,.26s-25-.11-25-.26,11.19-.26,25-.26,25,.12,25,.26" transform="translate(0 0.32)"/><path class="cls-4" d="M92.07,131c0,.15-11.19.26-25,.26s-25-.11-25-.26,11.19-.26,25-.26,25,.12,25,.26" transform="translate(0 0.32)"/><path class="cls-4" d="M92.07,128.22c0,.14-11.19.26-25,.26s-25-.12-25-.26,11.19-.26,25-.26,25,.11,25,.26" transform="translate(0 0.32)"/><path class="cls-4" d="M92.07,125.44c0,.15-11.19.26-25,.26s-25-.11-25-.26,11.19-.26,25-.26,25,.11,25,.26" transform="translate(0 0.32)"/><path class="cls-4" d="M92.07,122.66c0,.15-11.19.26-25,.26s-25-.11-25-.26,11.19-.26,25-.26,25,.12,25,.26" transform="translate(0 0.32)"/><path class="cls-4" d="M92.07,119.88c0,.15-11.19.27-25,.27s-25-.12-25-.27,11.19-.26,25-.26,25,.12,25,.26" transform="translate(0 0.32)"/><path class="cls-4" d="M92.07,117.11c0,.15-11.19.26-25,.26s-25-.11-25-.26,11.19-.26,25-.26,25,.11,25,.26" transform="translate(0 0.32)"/><path class="cls-4" d="M92.07,114.33c0,.15-11.19.26-25,.26s-25-.11-25-.26,11.19-.26,25-.26,25,.12,25,.26" transform="translate(0 0.32)"/><path class="cls-4" d="M92.07,111.55c0,.15-11.19.27-25,.27s-25-.12-25-.27,11.19-.26,25-.26,25,.12,25,.26" transform="translate(0 0.32)"/><path class="cls-4" d="M92.07,108.78c0,.15-11.19.26-25,.26s-25-.11-25-.26,11.19-.26,25-.26,25,.11,25,.26" transform="translate(0 0.32)"/><path class="cls-4" d="M92.07,106c0,.14-11.19.26-25,.26s-25-.12-25-.26,11.19-.26,25-.26,25,.12,25,.26" transform="translate(0 0.32)"/><path class="cls-5" d="M91.91,103.54c0,.14-11.2.26-25,.26s-25-.12-25-.26,11.19-.26,25-.26,25,.11,25,.26" transform="translate(0 0.32)"/><path class="cls-5" d="M91.91,100.58c0,.15-11.2.27-25,.27s-25-.12-25-.27,11.19-.26,25-.26,25,.12,25,.26" transform="translate(0 0.32)"/><path class="cls-4" d="M92.07,103.22c0,.15-11.19.27-25,.27s-25-.12-25-.27,11.19-.26,25-.26,25,.12,25,.26" transform="translate(0 0.32)"/><path class="cls-4" d="M92.07,100.45c0,.15-11.19.26-25,.26s-25-.11-25-.26,11.19-.26,25-.26,25,.11,25,.26" transform="translate(0 0.32)"/><path class="cls-4" d="M92.07,97.67c0,.15-11.19.26-25,.26s-25-.11-25-.26,11.19-.26,25-.26,25,.12,25,.26" transform="translate(0 0.32)"/><path class="cls-4" d="M92.07,94.89c0,.15-11.19.27-25,.27s-25-.12-25-.27,11.19-.26,25-.26,25,.12,25,.26" transform="translate(0 0.32)"/><path class="cls-4" d="M92.07,92.12c0,.14-11.19.26-25,.26s-25-.12-25-.26,11.19-.26,25-.26,25,.11,25,.26" transform="translate(0 0.32)"/><g class="cls-6"><g class="cls-7"><polygon points="92.07 90.68 44.2 90.68 44.2 139.55 41.89 139.55 41.89 89.44 92 89.44 92.07 90.68"/></g></g><path class="cls-5" d="M80.92,98c0,.14-5.24.26-11.7.26s-11.7-.12-11.7-.26,5.24-.27,11.7-.27,11.7.12,11.7.27" transform="translate(0 0.32)"/><path class="cls-5" d="M71,106.56c0,.15-5.23.26-11.7.26s-11.7-.11-11.7-.26,5.24-.26,11.7-.26,11.7.11,11.7.26" transform="translate(0 0.32)"/><path class="cls-5" d="M85.07,95.27c0,.15-5.23.26-11.7.26s-11.69-.11-11.69-.26S66.91,95,73.37,95s11.7.11,11.7.26" transform="translate(0 0.32)"/><path class="cls-5" d="M87.63,92.55c0,.15-5.24.26-11.7.26s-11.7-.11-11.7-.26,5.24-.26,11.7-.26,11.7.12,11.7.26" transform="translate(0 0.32)"/><path class="cls-5" d="M77.35,109.15a31.61,31.61,0,0,1-5.68.26,31.61,31.61,0,0,1-5.68-.26,30,30,0,0,1,5.68-.27,30,30,0,0,1,5.68.27" transform="translate(0 0.32)"/><path class="cls-5" d="M65.24,112.14a73.65,73.65,0,0,1-8.83.26,73.76,73.76,0,0,1-8.84-.26,76.35,76.35,0,0,1,8.84-.26,73.52,73.52,0,0,1,8.83.26" transform="translate(0 0.32)"/><path class="cls-5" d="M67.05,114.76a33.74,33.74,0,0,1-6,.27,33.81,33.81,0,0,1-6-.27,35.64,35.64,0,0,1,6-.26,35.56,35.56,0,0,1,6,.26" transform="translate(0 0.32)"/><path class="cls-5" d="M76.54,117.63c0,.15-6.46.27-14.42.27s-14.43-.12-14.43-.27,6.46-.26,14.43-.26,14.42.12,14.42.26" transform="translate(0 0.32)"/><rect class="cls-3" x="12.89" y="89.44" width="22.41" height="50.27"/><path class="cls-4" d="M35.33,136.7c0,.15-5,.26-11.17.26S13,136.85,13,136.7s5-.26,11.18-.26,11.17.12,11.17.26" transform="translate(0 0.32)"/><path class="cls-4" d="M35.33,133.91c0,.15-5,.27-11.17.27S13,134.06,13,133.91s5-.26,11.18-.26,11.17.12,11.17.26" transform="translate(0 0.32)"/><path class="cls-4" d="M35.33,131.13c0,.15-5,.26-11.17.26S13,131.28,13,131.13s5-.26,11.18-.26,11.17.12,11.17.26" transform="translate(0 0.32)"/><path class="cls-4" d="M35.33,128.34c0,.15-5,.27-11.17.27S13,128.49,13,128.34s5-.26,11.18-.26,11.17.12,11.17.26" transform="translate(0 0.32)"/><path class="cls-4" d="M35.33,125.56c0,.15-5,.26-11.17.26S13,125.71,13,125.56s5-.26,11.18-.26,11.17.11,11.17.26" transform="translate(0 0.32)"/><path class="cls-4" d="M35.33,122.77c0,.15-5,.27-11.17.27S13,122.92,13,122.77s5-.26,11.18-.26,11.17.12,11.17.26" transform="translate(0 0.32)"/><path class="cls-4" d="M35.33,120c0,.14-5,.26-11.17.26S13,120.13,13,120s5-.26,11.18-.26,11.17.11,11.17.26" transform="translate(0 0.32)"/><path class="cls-4" d="M35.33,117.2c0,.15-5,.26-11.17.26S13,117.35,13,117.2s5-.26,11.18-.26,11.17.12,11.17.26" transform="translate(0 0.32)"/><path class="cls-4" d="M35.33,114.41c0,.15-5,.27-11.17.27S13,114.56,13,114.41s5-.26,11.18-.26,11.17.12,11.17.26" transform="translate(0 0.32)"/><path class="cls-4" d="M35.33,111.63c0,.14-5,.26-11.17.26S13,111.77,13,111.63s5-.26,11.18-.26,11.17.12,11.17.26" transform="translate(0 0.32)"/><path class="cls-4" d="M35.33,108.84c0,.15-5,.26-11.17.26S13,109,13,108.84s5-.26,11.18-.26,11.17.12,11.17.26" transform="translate(0 0.32)"/><path class="cls-4" d="M35.33,106.05c0,.15-5,.27-11.17.27S13,106.2,13,106.05s5-.26,11.18-.26,11.17.12,11.17.26" transform="translate(0 0.32)"/><path class="cls-5" d="M35.25,103.58c0,.15-5,.26-11.17.26s-11.17-.11-11.17-.26,5-.26,11.17-.26,11.17.12,11.17.26" transform="translate(0 0.32)"/><path class="cls-5" d="M35.25,100.62c0,.15-5,.26-11.17.26s-11.17-.11-11.17-.26,5-.26,11.17-.26,11.17.12,11.17.26" transform="translate(0 0.32)"/><path class="cls-4" d="M35.33,103.27c0,.15-5,.26-11.17.26S13,103.42,13,103.27s5-.26,11.18-.26,11.17.11,11.17.26" transform="translate(0 0.32)"/><path class="cls-4" d="M35.33,100.48c0,.15-5,.27-11.17.27S13,100.63,13,100.48s5-.26,11.18-.26,11.17.12,11.17.26" transform="translate(0 0.32)"/><path class="cls-4" d="M35.33,97.7c0,.15-5,.26-11.17.26S13,97.85,13,97.7s5-.26,11.18-.26,11.17.11,11.17.26" transform="translate(0 0.32)"/><path class="cls-4" d="M35.33,94.91c0,.15-5,.26-11.17.26S13,95.06,13,94.91s5-.26,11.18-.26,11.17.12,11.17.26" transform="translate(0 0.32)"/><path class="cls-4" d="M35.33,92.12c0,.15-5,.27-11.17.27S13,92.27,13,92.12s5-.26,11.18-.26,11.17.12,11.17.26" transform="translate(0 0.32)"/><g class="cls-6"><g class="cls-8"><polygon points="35.33 90.69 15.2 90.69 15.2 139.71 12.89 139.71 12.89 89.44 35.27 89.44 35.33 90.69"/></g></g><path class="cls-5" d="M31.19,106.62a38.87,38.87,0,0,1-6.3.26,39,39,0,0,1-6.31-.26,37.72,37.72,0,0,1,6.31-.26,37.55,37.55,0,0,1,6.3.26" transform="translate(0 0.32)"/><path class="cls-5" d="M34.26,112.21a72.85,72.85,0,0,1-8.87.27,72.75,72.75,0,0,1-8.86-.27,76.71,76.71,0,0,1,8.86-.26,76.82,76.82,0,0,1,8.87.26" transform="translate(0 0.32)"/><path class="cls-5" d="M32.08,114.85a35.81,35.81,0,0,1-6,.26,35.88,35.88,0,0,1-6.05-.26,34.67,34.67,0,0,1,6.05-.26,34.59,34.59,0,0,1,6,.26" transform="translate(0 0.32)"/><polygon class="cls-4" points="116.79 140.03 96.5 139.82 96.5 35.38 116.79 35.38 116.79 140.03"/><rect class="cls-4" y="30.18" width="116.63" height="5.2"/><rect class="cls-9" x="17.88" y="0.32" width="66.51" height="22.95"/><path class="cls-4" d="M84.39,23s0-.15,0-.42,0-.68,0-1.18c0-1.06,0-2.58,0-4.54,0-3.95-.06-9.67-.1-16.81l.18.17L17.89.26c-.24.23.31-.32.25-.26h0V11.76c0,3.83,0,7.58,0,11.19l-.25-.26,47.55.12,13.9.07,3.74,0,1,0,.34,0h-.31l-.94,0-3.69,0-13.84.07-47.73.12h-.25V23c0-3.61,0-7.36,0-11.19V0h0c-.06.05.5-.49.26-.26l66.51.08h.17V0c0,7.19-.07,12.94-.09,16.91,0,1.95,0,3.45,0,4.51,0,.48,0,.87,0,1.15a2.12,2.12,0,0,1,0,.38" transform="translate(0 0.32)"/><rect class="cls-4" x="33.45" y="23.27" width="2.7" height="6.91"/><rect class="cls-4" x="67.59" y="23.27" width="2.7" height="6.91"/><path class="cls-4" d="M61.11,87.15a.89.89,0,0,1,0-.22c0-.2,0-.42,0-.65,0-.7,0-1.53,0-2.52v-.07h.07l11,0s-.1-.11.11.1h0v1.72c0,.57,0,1.12,0,1.66v.1h-.1l-7.91,0-2.29,0-.6,0h-.2a.77.77,0,0,1,.22,0l.63,0,2.31,0c2.08,0,4.78,0,7.84,0l-.1.11V83.77h0l.1.1-11,0,.06-.06c0,1,0,1.79,0,2.47,0,.25,0,.47,0,.68s0,.23,0,.24" transform="translate(0 0.32)"/><path class="cls-4" d="M56,83.75s0-.06,0-.21,0-.42,0-.66c0-.69,0-1.52,0-2.52V80.3H56l11,0,.11.1h0V82.1c0,.56,0,1.12,0,1.66v.1H67l-7.91,0-2.29,0H56.2a.8.8,0,0,1-.2,0h.86l2.31,0,7.84,0-.1.1V80.39h0c.21.21.06.06.1.11l-11,0,.07-.06c0,1,0,1.79,0,2.47,0,.25,0,.47,0,.67a1.22,1.22,0,0,1,0,.24" transform="translate(0 0.32)"/><path class="cls-4" d="M8.48,85.45s0-.07,0-.21,0-.42,0-.66c0-.69,0-1.52,0-2.52V82h.07l11,0c.05.05-.1-.11.11.1h0v3.47h-.1l-7.92,0-2.29,0h-.6c-.14,0-.21,0-.2,0h.85q1,0,2.31,0l7.85-.05-.11.1V82.09h0c.21.21.06.06.1.11l-11,0,.06-.07c0,1,0,1.8,0,2.48,0,.25,0,.47,0,.67a2.17,2.17,0,0,1,0,.24" transform="translate(0 0.32)"/><path class="cls-4" d="M6.09,60.61s0-.07,0-.22,0-.42,0-.66c0-.69,0-1.52,0-2.52v-.06h.06l11,0,.11.11h0V59c0,.56,0,1.12,0,1.66v.1h-.1l-7.91-.05-2.29,0-.6,0H6.09l.23,0H7l2.31,0,7.84,0-.1.11V57.24h0c.21.21.06.06.1.11l-11,0,.07-.07c0,1,0,1.8,0,2.48,0,.25,0,.47,0,.67a1.41,1.41,0,0,1,0,.25" transform="translate(0 0.32)"/><path class="cls-4" d="M12.25,64a.94.94,0,0,1,0-.23c0-.22,0-.44,0-.67,0-.75,0-1.58,0-2.5v-.08h.09l5,0,.1.1h0V62.4c0,.56,0,1.1,0,1.63v.1h-.09l-3.62-.05-1,0a2,2,0,0,1-.34,0,1.75,1.75,0,0,1,.38,0c.33,0,.67,0,1,0l3.55,0-.1.1V62.4c0-.28,0-.57,0-.87v-.88h0c-.09-.1.13.12.11.1l-5,0,.08-.08c0,.9,0,1.71,0,2.44,0,.24,0,.47,0,.69s0,.25,0,.26" transform="translate(0 0.32)"/><rect class="cls-10" x="60.01" y="96.67" width="15.15" height="31.56" transform="translate(-54.53 160.75) rotate(-80.44)"/><path class="cls-4" d="M81.89,122.54a1.9,1.9,0,0,1,0-.28c0-.21.06-.47.11-.79.11-.73.26-1.74.46-3,.41-2.62,1-6.33,1.72-10.89l.16.22-31.13-5.17.3-.21h0v.11l0,.12,0,.25-.09.49-.16,1-.33,1.94c-.22,1.29-.43,2.56-.64,3.81-.43,2.49-.84,4.91-1.23,7.23l-.2-.29,22.26,3.87,6.46,1.16,1.74.32.62.13a2.8,2.8,0,0,1-.57-.06l-1.7-.25-6.42-1-22.47-3.66-.24,0,0-.24c.39-2.32.79-4.74,1.21-7.24.21-1.25.42-2.52.63-3.8l.33-2,.17-1,.08-.5,0-.24,0-.13v-.11h0l.3-.21c12,2,23,3.91,31.11,5.31l.19,0,0,.18c-.81,4.6-1.48,8.34-2,11-.23,1.24-.41,2.23-.54,2.94-.06.31-.11.55-.15.75a1,1,0,0,1-.06.24" transform="translate(0 0.32)"/><path class="cls-4" d="M58.24,110.67a1.79,1.79,0,0,1,3.23-.57l-.55.36a1,1,0,0,0-.74-.51,1,1,0,1,0-.34,2,1.07,1.07,0,0,0,.87-.24l.4.52a1.72,1.72,0,0,1-1.42.35,1.67,1.67,0,0,1-1.45-2" transform="translate(0 0.32)"/><polygon class="cls-4" points="62.05 109.99 62.79 110.12 62.36 112.71 63.96 112.98 63.86 113.58 61.52 113.19 62.05 109.99"/><path class="cls-4" d="M64.29,111.69a1.77,1.77,0,1,1,1.47,1.94,1.66,1.66,0,0,1-1.47-1.94m2.74.46a1,1,0,0,0-.82-1.19,1,1,0,0,0-.35,2.05,1,1,0,0,0,1.17-.86" transform="translate(0 0.32)"/><path class="cls-4" d="M67.87,113.61l.35-.51a1.92,1.92,0,0,0,1,.51c.44.07.64,0,.68-.24.1-.6-1.83-.5-1.63-1.69.09-.54.61-.92,1.51-.76a2.06,2.06,0,0,1,1.06.47l-.32.52a1.76,1.76,0,0,0-.84-.4c-.44-.08-.63.06-.67.26-.1.59,1.83.5,1.63,1.67-.09.53-.61.91-1.52.76a2.26,2.26,0,0,1-1.24-.59" transform="translate(0 0.32)"/><polygon class="cls-4" points="73.55 114.6 73.45 115.19 70.98 114.78 71.52 111.59 73.93 111.99 73.83 112.58 72.15 112.3 72.03 113 73.52 113.25 73.42 113.82 71.94 113.57 71.81 114.31 73.55 114.6"/><path class="cls-4" d="M74.58,111.78,76,112a1.62,1.62,0,1,1-.54,3.19L74,115Zm1,2.82a1,1,0,1,0,.33-2l-.68-.12-.33,2Z" transform="translate(0 0.32)"/><rect class="cls-10" x="17.2" y="43.79" width="67.88" height="34.36"/><path class="cls-4" d="M85.07,77.83s0-.22,0-.63,0-1,0-1.8c0-1.59,0-3.9,0-6.87,0-6-.06-14.51-.1-25.06l.19.2-67.87.06h0l.26-.26c0,12.12,0,23.74,0,34.36l-.24-.25,48.72.12L80,77.76l3.77,0h1l.33,0-.31,0h-1l-3.71,0-14,.07-48.89.11H17v-.24c0-10.62,0-22.24,0-34.36l.26-.26h0l67.87.07h.2v.19c0,10.6-.08,19.21-.11,25.18,0,2.95,0,5.24,0,6.83,0,.76,0,1.34,0,1.76s0,.59,0,.59" transform="translate(0 0.32)"/><polygon class="cls-11" points="58.73 43.79 20.92 78.06 17.93 78.06 55.5 43.79 58.73 43.79"/><polygon class="cls-11" points="64.12 43.89 25.78 78.04 36.24 78.06 73.26 43.89 64.12 43.89"/><path class="cls-4" d="M33.67,77.83c-.15,0-.26-7.69-.26-17.18s.11-17.18.26-17.18.26,7.69.26,17.18-.12,17.18-.26,17.18" transform="translate(0 0.32)"/><path class="cls-4" d="M49.86,77.83c-.14,0-.26-7.69-.26-17.18s.12-17.18.26-17.18.26,7.69.26,17.18S50,77.83,49.86,77.83" transform="translate(0 0.32)"/><path class="cls-4" d="M66.06,77.83c-.15,0-.26-7.69-.26-17.18s.11-17.18.26-17.18.26,7.69.26,17.18-.12,17.18-.26,17.18" transform="translate(0 0.32)"/><path class="cls-4" d="M85.07,55.87c0,.14-15.25.26-34,.26S17,56,17,55.87,32.2,55.61,51,55.61s34,.11,34,.26" transform="translate(0 0.32)"/><path class="cls-4" d="M85.07,67.39c0,.14-15.25.26-34,.26S17,67.53,17,67.39,32.2,67.13,51,67.13s34,.11,34,.26" transform="translate(0 0.32)"/><path class="cls-2" d="M96.67,29.46a7.44,7.44,0,0,1,.26,2.77A7.47,7.47,0,0,1,96.67,35a7.73,7.73,0,0,1-.26-2.78,7.7,7.7,0,0,1,.26-2.77" transform="translate(0 0.32)"/><path class="cls-2" d="M116.44,35.06c0,.14-25.27.26-56.44.26s-56.45-.11-56.45-.26S28.82,34.8,60,34.8s56.44.12,56.44.26" transform="translate(0 0.32)"/><path d="M34,14.59l.63-1.39a4.66,4.66,0,0,0,2.62.83c1.09,0,1.53-.36,1.53-.85,0-1.49-4.62-.46-4.62-3.42,0-1.35,1.09-2.47,3.35-2.47a5.39,5.39,0,0,1,2.76.7l-.57,1.4a4.49,4.49,0,0,0-2.2-.62c-1.09,0-1.51.4-1.51.9,0,1.47,4.62.46,4.62,3.38,0,1.32-1.1,2.46-3.37,2.46A5.66,5.66,0,0,1,34,14.59" transform="translate(0 0.32)"/><polygon points="49.14 7.75 49.14 15.69 47.3 15.69 47.3 12.44 43.69 12.44 43.69 15.69 41.85 15.69 41.85 7.75 43.69 7.75 43.69 10.88 47.3 10.88 47.3 7.75 49.14 7.75"/><path d="M50.53,11.4a4.36,4.36,0,1,1,4.35,4.11,4.11,4.11,0,0,1-4.35-4.11m6.83,0a2.49,2.49,0,1,0-5,0,2.49,2.49,0,1,0,5,0" transform="translate(0 0.32)"/><path d="M67.5,10.31c0,1.77-1.32,2.87-3.44,2.87H62.45v2.19H60.61V7.43h3.44c2.13,0,3.45,1.1,3.45,2.88m-1.86,0c0-.88-.56-1.39-1.69-1.39H62.46v2.76H64c1.13,0,1.69-.51,1.69-1.37" transform="translate(0 0.32)"/></svg>