<?xml version="1.0" encoding="utf-8"?>
<!-- Generator: Adobe Illustrator 24.0.2, SVG Export Plug-In . SVG Version: 6.00 Build 0)  -->
<svg version="1.1" id="Calque_1" xmlns="http://www.w3.org/2000/svg" xmlns:xlink="http://www.w3.org/1999/xlink" x="0px" y="0px"
	 viewBox="0 0 122.9 215" style="enable-background:new 0 0 122.9 215;" xml:space="preserve">
<style type="text/css">
	.st0{fill:#4B6FB5;}
	.st1{opacity:0.4;}
	.st2{fill:#465A64;}
	.st3{opacity:0.8;}
	.st4{fill:#EFEFF0;}
	.st5{fill:#37474F;}
	.st6{enable-background:new    ;}
	.st7{opacity:0.7;}
	.st8{fill:#FFFFFF;}
	.st9{fill:#FFCE00;}
</style>
<g>
	<g>
		<g>
			<g>
				<g>
					<polygon class="st0" points="0,10.1 2.6,13.4 120.3,13.4 122.9,10.1 					"/>
				</g>
			</g>
			<g class="st1">
				<g>
					<polygon points="0,10.1 2.6,13.4 120.3,13.4 122.9,10.1 					"/>
				</g>
			</g>
		</g>
		<g>
			<rect x="2.3" y="5.8" class="st0" width="118" height="209.2"/>
		</g>
		<g>
			<rect x="2.3" y="5.8" class="st2" width="118" height="209.2"/>
		</g>
		<g class="st3">
			<g>
				<path class="st4" d="M7.1,11c0.1,1.4-0.8,2.5-2.1,2.5S2.5,12.3,2.4,11C2.2,9.6,3.2,8.5,4.5,8.5C5.8,8.5,7,9.6,7.1,11z"/>
			</g>
			<g>
				<path class="st4" d="M11.5,11c0.1,1.4-0.8,2.5-2.1,2.5c-1.3,0-2.5-1.1-2.6-2.5C6.6,9.6,7.5,8.5,8.8,8.5S11.3,9.6,11.5,11z"/>
			</g>
			<g>
				<path class="st4" d="M15.8,11c0.1,1.4-0.8,2.5-2.2,2.5c-1.3,0-2.5-1.1-2.6-2.5c-0.1-1.4,0.8-2.5,2.2-2.5
					C14.5,8.5,15.7,9.6,15.8,11z"/>
			</g>
			<g>
				<path class="st4" d="M20.1,11c0.1,1.4-0.9,2.5-2.2,2.5c-1.3,0-2.5-1.1-2.6-2.5c-0.1-1.4,0.9-2.5,2.2-2.5S20,9.6,20.1,11z"/>
			</g>
			<g>
				<path class="st4" d="M24.5,11c0.1,1.4-0.9,2.5-2.2,2.5c-1.3,0-2.4-1.1-2.5-2.5c-0.1-1.4,0.9-2.5,2.2-2.5S24.4,9.6,24.5,11z"/>
			</g>
			<g>
				<path class="st4" d="M28.8,11c0.1,1.4-0.9,2.5-2.2,2.5s-2.4-1.1-2.5-2.5C24,9.6,25,8.5,26.3,8.5C27.6,8.5,28.7,9.6,28.8,11z"/>
			</g>
			<g>
				<path class="st4" d="M33.2,11c0.1,1.4-0.9,2.5-2.2,2.5s-2.4-1.1-2.5-2.5c-0.1-1.4,0.9-2.5,2.2-2.5C32,8.5,33.1,9.6,33.2,11z"/>
			</g>
			<g>
				<path class="st4" d="M37.5,11c0.1,1.4-0.9,2.5-2.3,2.5s-2.4-1.1-2.5-2.5c-0.1-1.4,0.9-2.5,2.3-2.5C36.3,8.5,37.5,9.6,37.5,11z"
					/>
			</g>
			<g>
				<path class="st4" d="M41.9,11c0,1.4-1,2.5-2.3,2.5s-2.4-1.1-2.5-2.5c-0.1-1.4,1-2.5,2.3-2.5S41.8,9.6,41.9,11z"/>
			</g>
			<g>
				<path class="st4" d="M46.2,11c0,1.4-1,2.5-2.3,2.5s-2.4-1.1-2.4-2.5c-0.1-1.4,1-2.5,2.3-2.5S46.2,9.6,46.2,11z"/>
			</g>
			<g>
				<path class="st4" d="M50.5,11c0,1.4-1,2.5-2.3,2.5c-1.3,0-2.4-1.1-2.4-2.5c0-1.4,1-2.5,2.3-2.5C49.4,8.5,50.5,9.6,50.5,11z"/>
			</g>
			<g>
				<path class="st4" d="M54.9,11c0,1.4-1,2.5-2.3,2.5c-1.3,0-2.4-1.1-2.4-2.5c0-1.4,1-2.5,2.3-2.5C53.8,8.5,54.9,9.6,54.9,11z"/>
			</g>
			<g>
				<path class="st4" d="M59.2,11c0,1.4-1,2.5-2.4,2.5c-1.3,0-2.4-1.1-2.4-2.5c0-1.4,1-2.5,2.3-2.5S59.2,9.6,59.2,11z"/>
			</g>
			<g>
				<path class="st4" d="M63.6,11c0,1.4-1.1,2.5-2.4,2.5s-2.4-1.1-2.4-2.5c0-1.4,1.1-2.5,2.4-2.5S63.6,9.6,63.6,11z"/>
			</g>
			<g>
				<path class="st4" d="M67.9,11c0,1.4-1.1,2.5-2.4,2.5c-1.3,0-2.4-1.1-2.4-2.5c0-1.4,1.1-2.5,2.4-2.5C66.9,8.5,67.9,9.6,67.9,11z"
					/>
			</g>
			<g>
				<path class="st4" d="M72.3,11c0,1.4-1.1,2.5-2.4,2.5c-1.3,0-2.3-1.1-2.3-2.5c0-1.4,1.1-2.5,2.4-2.5C71.2,8.5,72.3,9.6,72.3,11z"
					/>
			</g>
			<g>
				<path class="st4" d="M76.6,11c0,1.4-1.1,2.5-2.4,2.5c-1.3,0-2.3-1.1-2.3-2.5c0-1.4,1.1-2.5,2.4-2.5C75.6,8.5,76.6,9.6,76.6,11z"
					/>
			</g>
			<g>
				<path class="st4" d="M80.9,11c0,1.4-1.1,2.5-2.4,2.5s-2.3-1.1-2.3-2.5c0-1.4,1.1-2.5,2.4-2.5S81,9.6,80.9,11z"/>
			</g>
			<g>
				<path class="st4" d="M85.3,11c-0.1,1.4-1.2,2.5-2.5,2.5s-2.3-1.1-2.3-2.5c0-1.4,1.1-2.5,2.5-2.5C84.3,8.5,85.3,9.6,85.3,11z"/>
			</g>
			<g>
				<path class="st4" d="M89.6,11c-0.1,1.4-1.2,2.5-2.5,2.5s-2.3-1.1-2.3-2.5c0.1-1.4,1.2-2.5,2.5-2.5C88.7,8.5,89.7,9.6,89.6,11z"
					/>
			</g>
			<g>
				<path class="st4" d="M94,11c-0.1,1.4-1.2,2.5-2.5,2.5s-2.3-1.1-2.2-2.5c0.1-1.4,1.2-2.5,2.5-2.5S94.1,9.6,94,11z"/>
			</g>
			<g>
				<path class="st4" d="M98.3,11c-0.1,1.4-1.2,2.5-2.5,2.5c-1.3,0-2.3-1.1-2.2-2.5c0.1-1.4,1.2-2.5,2.5-2.5
					C97.4,8.5,98.4,9.6,98.3,11z"/>
			</g>
			<g>
				<path class="st4" d="M102.7,11c-0.1,1.4-1.2,2.5-2.5,2.5c-1.3,0-2.3-1.1-2.2-2.5c0.1-1.4,1.2-2.5,2.5-2.5
					C101.8,8.5,102.8,9.6,102.7,11z"/>
			</g>
			<g>
				<path class="st4" d="M107,11c-0.1,1.4-1.3,2.5-2.6,2.5c-1.3,0-2.3-1.1-2.2-2.5c0.1-1.4,1.3-2.5,2.6-2.5S107.1,9.6,107,11z"/>
			</g>
			<g>
				<path class="st4" d="M111.3,11c-0.1,1.4-1.3,2.5-2.6,2.5s-2.3-1.1-2.2-2.5c0.1-1.4,1.3-2.5,2.6-2.5S111.5,9.6,111.3,11z"/>
			</g>
			<g>
				<path class="st4" d="M115.7,11c-0.1,1.4-1.3,2.5-2.6,2.5c-1.3,0-2.3-1.1-2.1-2.5c0.1-1.4,1.3-2.5,2.6-2.5
					C114.9,8.5,115.8,9.6,115.7,11z"/>
			</g>
			<g>
				<path class="st4" d="M120,11c-0.1,1.4-1.3,2.5-2.6,2.5s-2.3-1.1-2.1-2.5c0.1-1.4,1.3-2.5,2.6-2.5S120.2,9.6,120,11z"/>
			</g>
		</g>
		<g>
			<g>
				<polygon class="st5" points="0,6.7 122.9,6.7 122.9,10.1 0,10.1 				"/>
			</g>
		</g>
		<g>
			<g>
				<polygon class="st0" points="0,3.4 2.5,6.7 120.3,6.7 122.9,3.4 				"/>
			</g>
			<g class="st1">
				<polygon points="0,3.4 2.5,6.7 120.3,6.7 122.9,3.4 				"/>
			</g>
		</g>
		<g>
			<g>
				<polygon class="st5" points="0,0 122.9,0 122.9,3.4 0,3.4 				"/>
			</g>
		</g>
		<g class="st6">
			<polygon class="st0" points="2.5,3.4 120.3,3.4 120.3,6.7 2.5,6.7 			"/>
		</g>
		<g>
			<polygon class="st2" points="2.5,3.4 120.3,3.4 120.3,6.7 2.5,6.7 			"/>
		</g>
		<g class="st7">
			<rect x="2.4" y="72.9" class="st8" width="118" height="1.5"/>
		</g>
		<g class="st3">
			<rect x="2.6" y="146.5" class="st8" width="117.7" height="1.5"/>
		</g>
		<g>
			<g>
				<rect x="26.8" y="19.9" class="st9" width="14.6" height="15.8"/>
				<rect x="54.8" y="19.9" class="st9" width="14.6" height="15.8"/>
				<rect x="82.8" y="19.9" class="st9" width="14.6" height="15.8"/>
			</g>
			<g>
				<rect x="26.8" y="43.5" class="st9" width="14.6" height="15.8"/>
				<rect x="54.8" y="43.5" class="st9" width="14.6" height="15.8"/>
				<rect x="82.8" y="43.5" class="st9" width="14.6" height="15.8"/>
			</g>
			<g>
				<g>
					<rect x="26.8" y="157.8" class="st9" width="14.6" height="15.8"/>
					<rect x="54.8" y="157.8" class="st9" width="14.6" height="15.8"/>
					<rect x="82.8" y="157.8" class="st9" width="14.6" height="15.8"/>
				</g>
				<rect x="11.2" y="191" class="st9" width="14.6" height="15.8"/>
				<rect x="96.9" y="191" class="st9" width="14.6" height="15.8"/>
			</g>
			<g>
				<rect x="26.8" y="86.8" class="st9" width="14.6" height="15.8"/>
				<rect x="54.8" y="86.8" class="st9" width="14.6" height="15.8"/>
				<rect x="82.8" y="86.8" class="st9" width="14.6" height="15.8"/>
			</g>
			<g>
				<rect x="26.8" y="110.4" class="st9" width="14.6" height="15.8"/>
				<rect x="54.8" y="110.4" class="st9" width="14.6" height="15.8"/>
				<rect x="82.8" y="110.4" class="st9" width="14.6" height="15.8"/>
			</g>
		</g>
	</g>
</g>
</svg>
