<svg id="Calque_1" data-name="Calque 1" xmlns="http://www.w3.org/2000/svg" viewBox="0 0 150.88 222.02">
  <defs>
    <style>
      .cls-1 {
        fill: #7558db;
      }

      .cls-2, .cls-6, .cls-7 {
        opacity: 0.1;
      }

      .cls-2, .cls-6 {
        isolation: isolate;
      }

      .cls-3 {
        fill: #fff;
      }

      .cls-4 {
        fill: #ebebeb;
      }

      .cls-5, .cls-6 {
        fill: #403666;
      }

      .cls-8 {
        fill: #fdc629;
      }

      .cls-9 {
        fill: #263239;
      }

      .cls-10 {
        fill: #a6a5a5;
      }

      .cls-11 {
        fill: #465a64;
      }

      .cls-12 {
        fill: #37474f;
      }

      .cls-13 {
        fill: #63559f;
      }
    </style>
  </defs>
  <title>initial-13</title>
  <g>
    <rect class="cls-1" x="2.67" y="4.24" width="145.54" height="217.78"/>
    <g>
      <rect class="cls-2" x="124.82" y="93.23" width="9.93" height="4.2"/>
      <rect class="cls-2" x="130.36" y="87.94" width="9.93" height="4.2"/>
      <rect class="cls-2" x="119.28" y="87.94" width="9.93" height="4.2"/>
      <rect class="cls-2" x="98.8" y="37.08" width="9.93" height="4.2"/>
      <rect class="cls-2" x="104.34" y="42.38" width="9.93" height="4.2"/>
      <rect class="cls-2" x="10.77" y="87.94" width="9.93" height="4.2"/>
      <rect class="cls-2" x="10.77" y="193.11" width="9.93" height="4.2"/>
      <rect class="cls-2" x="5.23" y="187.82" width="9.93" height="4.2"/>
      <rect class="cls-2" x="130.36" y="193.11" width="9.93" height="4.2"/>
      <rect class="cls-2" x="98.8" y="131.01" width="9.93" height="4.2"/>
      <rect class="cls-2" x="93.26" y="136.31" width="9.93" height="4.2"/>
      <rect class="cls-2" x="16.31" y="12.99" width="9.93" height="4.2"/>
      <rect class="cls-2" x="10.77" y="18.28" width="9.93" height="4.2"/>
      <rect class="cls-2" x="53.22" y="18.28" width="9.93" height="4.2"/>
    </g>
    <rect class="cls-3" y="122.44" width="150.88" height="4.24"/>
    <rect class="cls-3" y="100.12" width="150.88" height="4.24"/>
    <polyline class="cls-4" points="2.67 122.44 2.67 104.36 148.21 104.36 148.21 122.44"/>
    <g>
      <rect class="cls-5" y="29.79" width="150.88" height="4.24"/>
      <rect class="cls-6" y="29.79" width="150.88" height="4.24"/>
    </g>
    <g class="cls-7">
      <rect class="cls-5" width="150.88" height="4.24"/>
      <rect class="cls-6" width="150.88" height="4.24"/>
    </g>
    <g>
      <rect class="cls-8" y="217.79" width="150.88" height="4.24"/>
      <rect class="cls-2" y="217.79" width="150.88" height="4.24"/>
    </g>
    <g>
      <g>
        <rect class="cls-3" x="17.83" y="43.13" width="26.91" height="41.21"/>
        <rect class="cls-9" x="20.02" y="45.32" width="22.53" height="36.82"/>
        <g class="cls-7">
          <polygon class="cls-3" points="42.55 45.32 42.55 49.76 20.02 72.29 20.02 61.62 36.32 45.32 42.55 45.32"/>
          <polygon class="cls-3" points="42.55 68.6 42.55 79.27 39.67 82.14 29 82.14 42.55 68.6"/>
          <polygon class="cls-3" points="42.55 63.92 42.55 66.17 26.58 82.14 24.33 82.14 42.55 63.92"/>
          <polygon class="cls-3" points="34.05 45.32 20.02 59.35 20.02 54.93 29.63 45.32 34.05 45.32"/>
        </g>
        <rect class="cls-3" x="20.02" y="55.87" width="22.53" height="2.19"/>
      </g>
      <g>
        <rect class="cls-3" x="61.98" y="43.13" width="26.91" height="41.21"/>
        <rect class="cls-9" x="64.17" y="45.32" width="22.53" height="36.82"/>
        <g class="cls-7">
          <polygon class="cls-3" points="86.7 45.32 86.7 49.76 64.17 72.29 64.17 61.62 80.47 45.32 86.7 45.32"/>
          <polygon class="cls-3" points="86.7 68.6 86.7 79.27 83.83 82.14 73.16 82.14 86.7 68.6"/>
          <polygon class="cls-3" points="86.7 63.92 86.7 66.17 70.73 82.14 68.48 82.14 86.7 63.92"/>
          <polygon class="cls-3" points="78.2 45.32 64.17 59.35 64.17 54.93 73.79 45.32 78.2 45.32"/>
        </g>
        <rect class="cls-3" x="64.17" y="55.87" width="22.53" height="2.19"/>
      </g>
      <g>
        <rect class="cls-3" x="106.14" y="43.13" width="26.91" height="41.21"/>
        <rect class="cls-9" x="108.33" y="45.32" width="22.53" height="36.82"/>
        <g class="cls-7">
          <polygon class="cls-3" points="130.86 45.32 130.86 49.76 108.33 72.29 108.33 61.62 124.62 45.32 130.86 45.32"/>
          <polygon class="cls-3" points="130.86 68.6 130.86 79.27 127.98 82.14 117.31 82.14 130.86 68.6"/>
          <polygon class="cls-3" points="130.86 63.92 130.86 66.17 114.88 82.14 112.63 82.14 130.86 63.92"/>
          <polygon class="cls-3" points="122.35 45.32 108.33 59.35 108.33 54.93 117.94 45.32 122.35 45.32"/>
        </g>
        <rect class="cls-3" x="108.33" y="55.87" width="22.53" height="2.19"/>
      </g>
    </g>
    <g>
      <rect class="cls-3" x="17.83" y="9.73" width="26.91" height="14.93"/>
      <rect class="cls-9" x="20.02" y="11.92" width="22.53" height="10.55"/>
      <g class="cls-7">
        <polygon class="cls-3" points="42.55 11.93 42.55 16.37 36.44 22.48 25.76 22.48 36.32 11.93 42.55 11.93"/>
        <polygon class="cls-3" points="34.05 11.93 23.49 22.48 20.02 22.48 20.02 21.54 29.64 11.93 34.05 11.93"/>
      </g>
    </g>
    <g>
      <rect class="cls-3" x="61.99" y="9.73" width="26.91" height="14.93"/>
      <rect class="cls-9" x="64.18" y="11.92" width="22.53" height="10.55"/>
      <g class="cls-7">
        <polygon class="cls-3" points="86.7 11.93 86.7 16.37 80.59 22.48 69.91 22.48 80.47 11.93 86.7 11.93"/>
        <polygon class="cls-3" points="78.2 11.93 67.64 22.48 64.17 22.48 64.17 21.54 73.8 11.93 78.2 11.93"/>
      </g>
    </g>
    <g>
      <rect class="cls-3" x="106.15" y="9.73" width="26.91" height="14.93"/>
      <rect class="cls-9" x="108.33" y="11.92" width="22.53" height="10.55"/>
      <g class="cls-7">
        <polygon class="cls-3" points="130.86 11.93 130.86 16.37 124.75 22.48 114.07 22.48 124.63 11.93 130.86 11.93"/>
        <polygon class="cls-3" points="122.36 11.93 111.8 22.48 108.33 22.48 108.33 21.54 117.95 11.93 122.36 11.93"/>
      </g>
    </g>
    <g>
      <rect class="cls-3" x="105.79" y="143.42" width="33.62" height="78.6"/>
      <g>
        <rect class="cls-9" x="110.79" y="148.55" width="23.62" height="64.79"/>
        <g class="cls-7">
          <polygon class="cls-3" points="134.41 200.91 134.41 212.09 133.16 213.34 121.97 213.34 134.41 200.91"/>
          <polygon class="cls-3" points="134.41 148.55 134.41 152.36 110.79 175.98 110.79 164.8 127.04 148.55 134.41 148.55"/>
          <polygon class="cls-3" points="134.41 156.97 134.41 159.33 110.79 182.95 110.79 180.59 134.41 156.97"/>
          <polygon class="cls-3" points="134.41 182.92 134.41 185.28 110.79 208.9 110.79 206.54 134.41 182.92"/>
          <polygon class="cls-3" points="117.34 148.55 110.79 155.1 110.79 150.47 112.71 148.55 117.34 148.55"/>
        </g>
      </g>
      <rect class="cls-10" x="135.9" y="189" width="2.07" height="6.65"/>
      <rect class="cls-3" x="110.79" y="186.84" width="23.62" height="2.16"/>
    </g>
    <g>
      <rect class="cls-3" x="11.47" y="143.42" width="83.5" height="63.44"/>
      <g>
        <rect class="cls-9" x="13.55" y="145.58" width="79.34" height="59.12"/>
        <g class="cls-7">
          <polygon class="cls-3" points="92.88 181.7 92.88 192.88 81.06 204.7 69.88 204.7 92.88 181.7"/>
          <polygon class="cls-3" points="59.96 145.58 13.55 191.99 13.55 180.8 48.78 145.58 59.96 145.58"/>
          <polygon class="cls-3" points="66.93 145.58 13.55 198.95 13.55 196.59 64.57 145.58 66.93 145.58"/>
          <polygon class="cls-3" points="92.88 163.71 92.88 166.06 54.25 204.7 51.89 204.7 92.88 163.71"/>
          <polygon class="cls-3" points="92.88 197.15 92.88 201.77 89.95 204.7 85.33 204.7 92.88 197.15"/>
          <polygon class="cls-3" points="39.08 145.58 13.55 171.11 13.55 166.48 34.45 145.58 39.08 145.58"/>
        </g>
      </g>
    </g>
    <g>
      <g>
        <g>
          <rect class="cls-9" x="104.05" y="143.46" width="0.28" height="20.19" transform="matrix(0.99, -0.16, 0.16, 0.99, -22.56, 18.02)"/>
          <circle class="cls-3" cx="105.76" cy="163.53" r="0.55"/>
        </g>
        <g>
          <rect class="cls-9" x="130.83" y="153.42" width="20.18" height="0.28" transform="translate(-32.53 269.11) rotate(-81.13)"/>
          <circle class="cls-3" cx="139.35" cy="163.53" r="0.55"/>
        </g>
      </g>
      <g>
        <path class="cls-11" d="M143,143.44H102.09A38.71,38.71,0,0,0,106.87,131h31.38A38.71,38.71,0,0,0,143,143.44Z"/>
        <path class="cls-12" d="M143,143.44v1.47a1.29,1.29,0,0,1-1.24,1.35h-2.64a1.3,1.3,0,0,1-1.24-1.35,1.29,1.29,0,0,1-1.23,1.35H134a1.3,1.3,0,0,1-1.24-1.35,1.29,1.29,0,0,1-1.23,1.35h-2.65a1.29,1.29,0,0,1-1.23-1.35,1.3,1.3,0,0,1-1.24,1.35H123.8a1.29,1.29,0,0,1-1.24-1.35,1.29,1.29,0,0,1-1.24,1.35h-2.64a1.3,1.3,0,0,1-1.24-1.35,1.29,1.29,0,0,1-1.23,1.35h-2.65a1.29,1.29,0,0,1-1.23-1.35,1.3,1.3,0,0,1-1.24,1.35h-2.65a1.28,1.28,0,0,1-1.22-1.35,1.31,1.31,0,0,1-1.24,1.35h-2.65a1.3,1.3,0,0,1-1.24-1.35v-1.47Z"/>
      </g>
    </g>
    <g>
      <path class="cls-13" d="M69.37,170.42l-2.64-2.64,2-2a1,1,0,0,0,0-1.33l-2.67-2.66a.94.94,0,0,0-1.32,0l-2,2-2.65-2.65a1.87,1.87,0,1,0-2.65,2.65l9.28,9.29a1.88,1.88,0,1,0,2.65-2.66Z"/>
      <path class="cls-13" d="M50.42,189.4l-9.29-9.28a1.87,1.87,0,1,0-2.65,2.65l2.65,2.65-2,2a.91.91,0,0,0-.27.66,1,1,0,0,0,.27.67l2.67,2.66a.94.94,0,0,0,1.32,0l2-2,2.64,2.65a1.88,1.88,0,1,0,2.66-2.65Z"/>
      <polygon class="cls-13" points="54.78 171.75 49.09 177.46 53.07 181.44 58.76 175.73 54.78 171.75"/>
      <path class="cls-13" d="M66.72,175.73,54.78,163.79a1.87,1.87,0,0,0-2.65,2.65l11.94,11.94a1.87,1.87,0,1,0,2.65-2.65Z"/>
      <path class="cls-13" d="M55.72,186.75,43.78,174.81a1.87,1.87,0,1,0-2.65,2.65L53.07,189.4a1.87,1.87,0,0,0,2.65-2.65Z"/>
    </g>
  </g>
</svg>
