<svg id="Calque_1" data-name="Calque 1" xmlns="http://www.w3.org/2000/svg" viewBox="0 0 145.21 188.65">
  <defs>
    <style>
      .cls-1 {
        fill: #dbdbdb;
      }

      .cls-2 {
        fill: #a6a5a5;
      }

      .cls-3 {
        fill: #c8c7c7;
      }

      .cls-4 {
        fill: #fff;
      }

      .cls-5 {
        fill: #465a64;
      }

      .cls-6 {
        opacity: 0.1;
      }

      .cls-7 {
        fill: #ebebeb;
      }

      .cls-8 {
        fill: #263239;
      }
    </style>
  </defs>
  <title>initial-12</title>
  <g>
    <g>
      <g>
        <rect class="cls-1" x="2.26" y="47.92" width="140.73" height="140.73"/>
        <rect class="cls-2" y="184.4" width="145.16" height="4.24"/>
        <rect class="cls-2" x="0.04" y="43.74" width="145.16" height="4.24"/>
        <g>
          <rect class="cls-3" x="13.64" y="170.48" width="9.93" height="4.2"/>
          <rect class="cls-3" x="8.1" y="175.77" width="9.93" height="4.2"/>
          <rect class="cls-3" x="19.18" y="175.77" width="9.93" height="4.2"/>
          <rect class="cls-3" x="121.68" y="175.77" width="9.93" height="4.2"/>
          <rect class="cls-3" x="121.68" y="56.6" width="9.93" height="4.2"/>
          <rect class="cls-3" x="127.22" y="61.89" width="9.93" height="4.19"/>
          <rect class="cls-3" x="8.1" y="56.6" width="9.93" height="4.2"/>
          <rect class="cls-3" x="39.65" y="102.13" width="9.93" height="4.2"/>
          <rect class="cls-3" x="45.19" y="96.83" width="9.93" height="4.2"/>
        </g>
      </g>
      <g>
        <rect class="cls-2" x="10.58" width="124.09" height="4.24"/>
        <rect class="cls-3" x="13.72" y="4.15" width="117.82" height="39.59"/>
        <g>
          <rect class="cls-2" x="19.18" y="19.13" width="9.93" height="4.2"/>
          <rect class="cls-2" x="24.72" y="13.84" width="9.93" height="4.2"/>
          <rect class="cls-2" x="19.18" y="19.13" width="9.93" height="4.2"/>
          <rect class="cls-2" x="24.72" y="29.71" width="9.93" height="4.2"/>
          <rect class="cls-2" x="84.02" y="29.71" width="9.93" height="4.2"/>
          <rect class="cls-2" x="110.6" y="14.1" width="9.93" height="4.2"/>
          <rect class="cls-2" x="105.06" y="8.89" width="9.93" height="4.2"/>
        </g>
        <g>
          <rect class="cls-4" x="27.38" y="10.59" width="17.44" height="26.71"/>
          <rect class="cls-5" x="28.8" y="12.01" width="14.6" height="23.87"/>
          <g class="cls-6">
            <polygon class="cls-4" points="42.99 12.01 28.8 26.2 28.8 15.52 32.3 12.01 42.99 12.01"/>
            <polygon class="cls-4" points="43.41 30.43 43.41 35.88 37.95 35.88 43.41 30.43"/>
            <polygon class="cls-4" points="43.41 25.75 43.41 28 35.52 35.88 33.27 35.88 43.41 25.75"/>
            <polygon class="cls-4" points="30.05 12.01 28.8 13.26 28.8 12.01 30.05 12.01"/>
          </g>
          <rect class="cls-4" x="28.8" y="28.25" width="14.6" height="1.42"/>
        </g>
        <g>
          <rect class="cls-4" x="63.9" y="10.59" width="17.45" height="26.71"/>
          <rect class="cls-5" x="65.32" y="12.01" width="14.6" height="23.87"/>
          <g class="cls-6">
            <polygon class="cls-4" points="79.51 12.01 65.32 26.2 65.32 15.52 68.83 12.01 79.51 12.01"/>
            <polygon class="cls-4" points="79.93 30.43 79.93 35.88 74.47 35.88 79.93 30.43"/>
            <polygon class="cls-4" points="79.93 25.75 79.93 28 72.05 35.88 69.8 35.88 79.93 25.75"/>
            <polygon class="cls-4" points="66.57 12.01 65.32 13.26 65.32 12.01 66.57 12.01"/>
          </g>
          <rect class="cls-4" x="65.32" y="28.25" width="14.6" height="1.42"/>
        </g>
        <g>
          <rect class="cls-4" x="100.43" y="10.59" width="17.45" height="26.71"/>
          <rect class="cls-5" x="101.85" y="12.01" width="14.6" height="23.87"/>
          <g class="cls-6">
            <polygon class="cls-4" points="116.04 12.01 101.85 26.2 101.85 15.52 105.36 12.01 116.04 12.01"/>
            <polygon class="cls-4" points="116.46 30.43 116.46 35.88 111 35.88 116.46 30.43"/>
            <polygon class="cls-4" points="116.46 25.75 116.46 28 108.58 35.88 106.33 35.88 116.46 25.75"/>
            <polygon class="cls-4" points="103.1 12.01 101.85 13.26 101.85 12.01 103.1 12.01"/>
          </g>
          <rect class="cls-4" x="101.85" y="28.25" width="14.6" height="1.42"/>
        </g>
      </g>
      <g>
        <rect class="cls-4" x="10.34" y="110.04" width="33.62" height="78.6"/>
        <g>
          <rect class="cls-5" x="15.34" y="115.16" width="23.62" height="53"/>
          <g class="cls-6">
            <polygon class="cls-4" points="38.96 115.16 38.96 119.82 15.34 143.44 15.34 132.25 32.42 115.16 38.96 115.16"/>
            <polygon class="cls-4" points="38.96 139.57 38.96 150.75 21.59 168.16 15.34 168.16 15.34 163.22 38.96 139.57"/>
            <polygon class="cls-4" points="38.96 134.66 38.96 137.02 15.34 160.68 15.34 158.31 38.96 134.66"/>
            <polygon class="cls-4" points="30.05 115.16 15.34 129.87 15.34 125.24 25.42 115.16 30.05 115.16"/>
          </g>
        </g>
        <rect class="cls-2" x="40.46" y="150.82" width="1.63" height="8.84"/>
        <rect class="cls-7" x="15.34" y="153.35" width="23.62" height="3.76"/>
      </g>
      <rect class="cls-4" x="53.07" y="109.99" width="81.79" height="59.57"/>
      <g>
        <rect class="cls-5" x="55.4" y="112.31" width="77.14" height="54.92"/>
        <g class="cls-6">
          <polygon class="cls-4" points="132.54 151.69 132.54 162.87 128.18 167.23 116.99 167.23 132.54 151.69"/>
          <polygon class="cls-4" points="102.87 112.31 55.4 159.78 55.4 148.59 91.69 112.31 102.87 112.31"/>
          <polygon class="cls-4" points="109.84 112.31 55.4 166.75 55.4 164.38 107.48 112.31 109.84 112.31"/>
          <polygon class="cls-4" points="132.54 133.7 132.54 136.05 101.36 167.23 99 167.23 132.54 133.7"/>
          <polygon class="cls-4" points="132.54 167.13 132.54 167.23 132.44 167.23 132.54 167.13"/>
          <polygon class="cls-4" points="81.99 112.31 55.4 138.9 55.4 134.27 77.36 112.31 81.99 112.31"/>
        </g>
      </g>
      <ellipse class="cls-8" cx="72.6" cy="79.3" rx="58.13" ry="20.39"/>
      <path class="cls-4" d="M72.6,96.08c-30,0-54.43-7.53-54.43-16.77S42.59,62.54,72.6,62.54,127,70.06,127,79.31,102.62,96.08,72.6,96.08Zm0-33.3c-29.87,0-54.18,7.42-54.18,16.52S42.73,95.83,72.6,95.83s54.18-7.41,54.18-16.53S102.48,62.78,72.6,62.78Z"/>
    </g>
    <g>
      <path class="cls-1" d="M79.4,89.12a2.05,2.05,0,0,0-2.06-2.05h-8.2a2.05,2.05,0,0,0-2,2.05v.73h12.3v-.73Z"/>
      <path class="cls-1" d="M83.54,72V70.66H75.17a2.11,2.11,0,0,0-1.24-1.24v-2.9H72.56v2.9a2.06,2.06,0,0,0-1.24,1.24H62.94V72h1.71l-3.07,7.52A3.42,3.42,0,0,0,65,83h1.36a3.42,3.42,0,0,0,3.42-3.42L66.69,72h4.63a2,2,0,0,0,1.24,1.24V83a3.45,3.45,0,0,0-2.67,2.66h6.7A3.44,3.44,0,0,0,73.93,83V73.27A2,2,0,0,0,75.17,72h4.61L76.7,79.55A3.42,3.42,0,0,0,80.12,83h1.37a3.42,3.42,0,0,0,3.42-3.42L81.82,72ZM68.07,78.87H63.28l2.4-5.74Zm15.13,0H78.42l2.39-5.74Z"/>
    </g>
  </g>
</svg>
