<?xml version="1.0" encoding="utf-8"?>
<!-- Generator: Adobe Illustrator 24.0.2, SVG Export Plug-In . SVG Version: 6.00 Build 0)  -->
<svg version="1.1" id="Calque_1" xmlns="http://www.w3.org/2000/svg" xmlns:xlink="http://www.w3.org/1999/xlink" x="0px" y="0px"
	 viewBox="0 0 117.2 245.9" style="enable-background:new 0 0 117.2 245.9;" xml:space="preserve">
<style type="text/css">
	.st0{fill:#192E35;}
	.st1{fill:#385A65;}
	.st2{fill:#E0E0DF;}
	.st3{fill:#57BDC3;}
</style>
<g>
	<polygon class="st0" points="40.3,0 55.8,0 111.4,53.7 111.4,246.5 75.1,246.5 	"/>
	<path class="st1" d="M74.1,156.5c0,0,0-0.1,0-0.2c0-0.2,0-0.4,0-0.7c0-0.7,0-1.6,0-2.7c0-2.4,0-5.9-0.1-10.2c0-8.8-0.1-21-0.1-35
		v-0.3h0.3c4.2,0,8.6,0,13.1,0c0.5,0.5,0.1,0.1,0.3,0.3v0v0v0.1v0.1v0.2v0.5v0.9c0,0.6,0,1.2,0,1.9c0,1.2,0,2.5,0,3.7
		c0,2.4,0,4.8,0,7.1c0,4.7,0,9.1,0,13.3c0,8.3-0.1,15.6-0.1,21.1v0.2l-0.2,0c-4.1,0-7.4-0.1-9.7-0.1c-1.1,0-1.9,0-2.5,0
		c-0.3,0-0.5,0-0.6,0C74.2,156.5,74.1,156.5,74.1,156.5s0.1,0,0.2,0c0.2,0,0.4,0,0.7,0c0.6,0,1.5,0,2.6,0c2.3,0,5.5-0.1,9.6-0.1
		l-0.2,0.2c0-5.6,0-12.8-0.1-21.1c0-4.2,0-8.6,0-13.3c0-2.3,0-4.7,0-7.1c0-1.2,0-2.4,0-3.7c0-0.6,0-1.2,0-1.9v-0.9V108v-0.2v-0.1
		v-0.1v0v0c0.1,0.1-0.3-0.3,0.3,0.2c-4.5,0-8.9,0-13.1,0l0.3-0.3c0,13.9-0.1,26.1-0.1,34.9c0,4.4-0.1,7.8-0.1,10.3
		c0,1.2,0,2.1,0,2.8c0,0.3,0,0.5,0,0.7C74.1,156.4,74.1,156.4,74.1,156.5"/>
	<path class="st1" d="M74.4,112.2c0-0.1,2.9-0.3,6.4-0.3c3.5,0,6.4,0.1,6.4,0.3c0,0.1-2.9,0.3-6.4,0.3
		C77.2,112.5,74.4,112.3,74.4,112.2"/>
	<path class="st1" d="M74.4,116.2c0-0.1,2.9-0.3,6.4-0.3c3.5,0,6.4,0.1,6.4,0.3c0,0.1-2.9,0.3-6.4,0.3
		C77.2,116.5,74.4,116.4,74.4,116.2"/>
	<path class="st1" d="M74.4,120.2c0-0.1,2.9-0.3,6.4-0.3c3.5,0,6.4,0.1,6.4,0.3c0,0.1-2.9,0.3-6.4,0.3
		C77.2,120.5,74.4,120.4,74.4,120.2"/>
	<path class="st1" d="M74.4,124.2c0-0.1,2.9-0.3,6.4-0.3c3.5,0,6.4,0.1,6.4,0.3c0,0.1-2.9,0.3-6.4,0.3
		C77.2,124.5,74.4,124.4,74.4,124.2"/>
	<path class="st1" d="M74.4,128.3c0-0.1,2.9-0.3,6.4-0.3c3.5,0,6.4,0.1,6.4,0.3c0,0.1-2.9,0.3-6.4,0.3
		C77.2,128.5,74.4,128.4,74.4,128.3"/>
	<path class="st1" d="M74.4,132.3c0-0.1,2.9-0.3,6.4-0.3c3.5,0,6.4,0.1,6.4,0.3c0,0.1-2.9,0.3-6.4,0.3
		C77.2,132.5,74.4,132.4,74.4,132.3"/>
	<path class="st1" d="M74.4,136.3c0-0.1,2.9-0.3,6.4-0.3c3.5,0,6.4,0.1,6.4,0.3c0,0.1-2.9,0.3-6.4,0.3
		C77.2,136.6,74.4,136.4,74.4,136.3"/>
	<path class="st1" d="M74.4,140.3c0-0.1,2.9-0.3,6.4-0.3c3.5,0,6.4,0.1,6.4,0.3c0,0.1-2.9,0.3-6.4,0.3
		C77.2,140.6,74.4,140.5,74.4,140.3"/>
	<path class="st1" d="M74.4,144.3c0-0.1,2.9-0.3,6.4-0.3c3.5,0,6.4,0.1,6.4,0.3c0,0.1-2.9,0.3-6.4,0.3
		C77.2,144.6,74.4,144.5,74.4,144.3"/>
	<path class="st1" d="M74.4,148.4c0-0.1,2.9-0.3,6.4-0.3c3.5,0,6.4,0.1,6.4,0.3c0,0.1-2.9,0.3-6.4,0.3
		C77.2,148.6,74.4,148.5,74.4,148.4"/>
	<path class="st1" d="M74.4,152.4c0-0.1,2.9-0.3,6.4-0.3c3.5,0,6.4,0.1,6.4,0.3c0,0.1-2.9,0.3-6.4,0.3
		C77.2,152.6,74.4,152.5,74.4,152.4"/>
	<path class="st1" d="M74.7,206.8c0,0,0-0.1,0-0.2c0-0.2,0-0.4,0-0.7c0-0.7,0-1.6,0-2.7c0-2.4,0-5.9-0.1-10.2c0-8.8-0.1-21-0.1-35
		v-0.3h0.3c4.2,0,8.6,0,13.1,0c0.5,0.5,0.1,0.2,0.3,0.3v0v0v0.1v0.1v0.2v0.5v0.9c0,0.6,0,1.2,0,1.9c0,1.2,0,2.5,0,3.7
		c0,2.4,0,4.8,0,7.1c0,4.7,0,9.1,0,13.3c0,8.3-0.1,15.6-0.1,21.1l0,0.2l-0.2,0c-4.1,0-7.4-0.1-9.7-0.1c-1.1,0-1.9,0-2.5,0
		c-0.3,0-0.5,0-0.6,0C74.8,206.9,74.7,206.8,74.7,206.8c0,0,0.1,0,0.2,0c0.2,0,0.4,0,0.7,0c0.6,0,1.5,0,2.6,0c2.3,0,5.5-0.1,9.6-0.1
		l-0.2,0.2c0-5.6,0-12.8-0.1-21.1c0-4.2,0-8.6,0-13.3c0-2.3,0-4.7,0-7.1c0-1.2,0-2.4,0-3.7v-1.9v-0.9v-0.5v-0.2V158V158v0v0
		c0.1,0.1-0.3-0.3,0.3,0.3c-4.5,0-8.9,0-13.1,0l0.3-0.3c0,13.9-0.1,26.1-0.1,34.9c0,4.4-0.1,7.8-0.1,10.3c0,1.2,0,2.1,0,2.8
		c0,0.3,0,0.5,0,0.7C74.7,206.7,74.7,206.8,74.7,206.8"/>
	<path class="st1" d="M75,162.6c0-0.1,2.9-0.3,6.4-0.3c3.5,0,6.4,0.1,6.4,0.3c0,0.1-2.9,0.3-6.4,0.3C77.9,162.8,75,162.7,75,162.6"
		/>
	<path class="st1" d="M75,166.6c0-0.1,2.9-0.3,6.4-0.3c3.5,0,6.4,0.1,6.4,0.3c0,0.1-2.9,0.3-6.4,0.3C77.9,166.9,75,166.7,75,166.6"
		/>
	<path class="st1" d="M75,170.6c0-0.1,2.9-0.3,6.4-0.3c3.5,0,6.4,0.1,6.4,0.3c0,0.1-2.9,0.3-6.4,0.3C77.9,170.9,75,170.8,75,170.6"
		/>
	<path class="st1" d="M75,174.6c0-0.1,2.9-0.3,6.4-0.3c3.5,0,6.4,0.1,6.4,0.3c0,0.1-2.9,0.3-6.4,0.3C77.9,174.9,75,174.8,75,174.6"
		/>
	<path class="st1" d="M75,178.7c0-0.1,2.9-0.3,6.4-0.3c3.5,0,6.4,0.1,6.4,0.3c0,0.1-2.9,0.3-6.4,0.3C77.9,178.9,75,178.8,75,178.7"
		/>
	<path class="st1" d="M75,182.7c0-0.1,2.9-0.3,6.4-0.3c3.5,0,6.4,0.1,6.4,0.3c0,0.1-2.9,0.3-6.4,0.3C77.9,182.9,75,182.8,75,182.7"
		/>
	<path class="st1" d="M75,186.7c0-0.1,2.9-0.3,6.4-0.3c3.5,0,6.4,0.1,6.4,0.3S85,187,81.4,187C77.9,187,75,186.8,75,186.7"/>
	<path class="st1" d="M75,190.7c0-0.1,2.9-0.3,6.4-0.3c3.5,0,6.4,0.1,6.4,0.3c0,0.1-2.9,0.3-6.4,0.3C77.9,191,75,190.9,75,190.7"/>
	<path class="st1" d="M75,194.7c0-0.1,2.9-0.3,6.4-0.3c3.5,0,6.4,0.1,6.4,0.3c0,0.1-2.9,0.3-6.4,0.3C77.9,195,75,194.9,75,194.7"/>
	<path class="st1" d="M75,198.7c0-0.1,2.9-0.3,6.4-0.3c3.5,0,6.4,0.1,6.4,0.3c0,0.1-2.9,0.3-6.4,0.3C77.9,199,75,198.9,75,198.7"/>
	<path class="st1" d="M75,202.8c0-0.1,2.9-0.3,6.4-0.3c3.5,0,6.4,0.1,6.4,0.3c0,0.1-2.9,0.3-6.4,0.3C77.9,203,75,202.9,75,202.8"/>
	<polyline class="st1" points="4.3,246.4 4.3,53.7 40.4,5.9 75.1,53.7 75.1,246.5 4.3,246.5 	"/>
	<path class="st0" d="M25,245.9c0,0,0-0.1,0-0.2c0-0.2,0-0.4,0-0.6c0-0.6,0-1.4,0-2.5c0-2.2,0-5.4-0.1-9.3c0-7.9-0.1-19-0.1-31.6
		l0-0.3H25c4,0,8.1,0,12.4,0c4.3,0,8.4,0,12.4,0H50v0.3c0,12.6-0.1,23.7-0.1,31.6c0,3.9-0.1,7.1-0.1,9.3c0,1.1,0,1.9,0,2.5
		c0,0.3,0,0.5,0,0.6c0,0.1,0,0.2,0,0.2c0,0,0-0.1,0-0.2c0-0.2,0-0.4,0-0.6c0-0.6,0-1.4,0-2.5c0-2.2,0-5.4-0.1-9.3
		c0-7.9-0.1-19-0.1-31.6l0.3,0.3c-4,0-8.1,0-12.4,0c-4.3,0-8.4,0-12.4,0l0.3-0.3c0,12.6-0.1,23.7-0.1,31.6c0,3.9-0.1,7.1-0.1,9.3
		c0,1.1,0,1.9,0,2.5c0,0.3,0,0.5,0,0.6C25.1,245.8,25.1,245.9,25,245.9"/>
	<path class="st0" d="M28.5,224.5c0-0.1,0.4,0.1,0.5,0.6c0,0.3,0,0.6-0.3,0.9c-0.3,0.3-0.8,0.3-1.2,0.1c-0.4-0.2-0.6-0.7-0.5-1.1
		c0.1-0.4,0.4-0.6,0.6-0.7c0.5-0.2,0.8,0.1,0.8,0.1c0,0.1-0.3,0-0.6,0.2c-0.3,0.2-0.5,0.7,0,1c0.5,0.3,0.9-0.1,0.9-0.5
		C28.6,224.8,28.4,224.6,28.5,224.5"/>
	<rect x="31.9" y="194.9" class="st0" width="10.7" height="3.3"/>
	<rect x="41.4" y="129.9" class="st2" width="21.8" height="42.1"/>
	<path class="st1" d="M51.7,176.6c-0.1,0-0.3-11-0.3-24.5c0-13.6,0.1-24.5,0.3-24.5s0.3,11,0.3,24.5C52,165.7,51.9,176.6,51.7,176.6
		"/>
	<path class="st1" d="M39.6,144.5c0-0.1,5.6-0.3,12.5-0.3c6.9,0,12.5,0.1,12.5,0.3c0,0.1-5.6,0.3-12.5,0.3
		C45.2,144.7,39.6,144.6,39.6,144.5"/>
	<path class="st1" d="M39.6,159.5c0-0.1,5.6-0.3,12.5-0.3c6.9,0,12.5,0.1,12.5,0.3c0,0.1-5.6,0.3-12.5,0.3
		C45.2,159.8,39.6,159.7,39.6,159.5"/>
	<rect x="13.2" y="129.9" class="st2" width="21.8" height="42.1"/>
	<path class="st1" d="M23.5,176.6c-0.1,0-0.3-11-0.3-24.5c0-13.6,0.1-24.5,0.3-24.5s0.3,11,0.3,24.5
		C23.7,165.7,23.6,176.6,23.5,176.6"/>
	<path class="st1" d="M11.3,144.5c0-0.1,5.6-0.3,12.5-0.3c6.9,0,12.5,0.1,12.5,0.3c0,0.1-5.6,0.3-12.5,0.3
		C16.9,144.7,11.3,144.6,11.3,144.5"/>
	<path class="st1" d="M11.3,159.5c0-0.1,5.6-0.3,12.5-0.3c6.9,0,12.5,0.1,12.5,0.3c0,0.1-5.6,0.3-12.5,0.3
		C16.9,159.8,11.3,159.7,11.3,159.5"/>
	<rect x="41.4" y="69.9" class="st2" width="21.8" height="42.1"/>
	<path class="st1" d="M51.7,116.7c-0.1,0-0.3-11-0.3-24.5c0-13.6,0.1-24.5,0.3-24.5s0.3,11,0.3,24.5C52,105.7,51.9,116.7,51.7,116.7
		"/>
	<path class="st1" d="M39.6,84.5c0-0.1,5.6-0.3,12.5-0.3c6.9,0,12.5,0.1,12.5,0.3c0,0.1-5.6,0.3-12.5,0.3
		C45.2,84.8,39.6,84.7,39.6,84.5"/>
	<path class="st1" d="M39.6,99.6c0-0.1,5.6-0.3,12.5-0.3c6.9,0,12.5,0.1,12.5,0.3c0,0.1-5.6,0.3-12.5,0.3
		C45.2,99.9,39.6,99.7,39.6,99.6"/>
	<rect x="13.2" y="69.9" class="st2" width="21.8" height="42.1"/>
	<path class="st1" d="M23.5,116.7c-0.1,0-0.3-11-0.3-24.5c0-13.6,0.1-24.5,0.3-24.5s0.3,11,0.3,24.5
		C23.7,105.7,23.6,116.7,23.5,116.7"/>
	<path class="st1" d="M11.3,84.5c0-0.1,5.6-0.3,12.5-0.3c6.9,0,12.5,0.1,12.5,0.3c0,0.1-5.6,0.3-12.5,0.3
		C16.9,84.8,11.3,84.7,11.3,84.5"/>
	<path class="st1" d="M11.3,99.6c0-0.1,5.6-0.3,12.5-0.3c6.9,0,12.5,0.1,12.5,0.3c0,0.1-5.6,0.3-12.5,0.3
		C16.9,99.9,11.3,99.7,11.3,99.6"/>
	<rect x="75.1" y="155.5" class="st1" width="17.2" height="19.1"/>
	<rect x="75.1" y="94.2" class="st1" width="17.2" height="19.1"/>
	<path class="st2" d="M27.4,44.1c0,6.4,5.2,11.5,11.5,11.5s11.5-5.2,11.5-11.5s-5.2-11.5-11.5-11.5C32.5,32.5,27.4,37.7,27.4,44.1"
		/>
	<path class="st1" d="M27.3,44.1c0-0.1,5.5-0.3,12.3-0.3c6.8,0,12.3,0.1,12.3,0.3c0,0.1-5.5,0.3-12.3,0.3
		C32.8,44.3,27.3,44.2,27.3,44.1"/>
	<path class="st1" d="M39,58.4c-0.1,0-0.3-6.2-0.3-14c0-7.7,0.1-14,0.3-14s0.3,6.2,0.3,14C39.3,52.1,39.2,58.4,39,58.4"/>
	<polygon class="st0" points="75.1,53.7 80.6,53.7 40.3,0 0,53.7 4.3,53.7 40.4,5.9 	"/>
	<rect x="92.3" y="94.2" class="st0" width="27.1" height="19.1"/>
	<rect x="92.3" y="155.5" class="st0" width="27.1" height="19.1"/>
	<polygon class="st0" points="92.3,53.7 119.4,53.7 77.6,0 40.3,0 	"/>
	<path class="st0" d="M53.9,189.6c0,0,0-0.1,0-0.3c0-0.3,0-0.6,0-1c0-0.9,0-2.1,0-3.6v-0.1h0.1c3.9,0,9.6,0,15.9,0
		c0,0-0.1-0.1,0.1,0.1v0v0v0v0v0v0v0.1v0.2v0.3v0.6c0,0.4,0,0.8,0,1.2c0,0.8,0,1.6,0,2.4v0.1h-0.1c-4.5,0-8.5,0-11.4,0
		c-1.3,0-2.5,0-3.3,0c-0.3,0-0.6,0-0.9,0C54,189.6,53.9,189.6,53.9,189.6c0,0,0.1,0,0.3,0c0.3,0,0.6,0,0.9,0c0.9,0,2,0,3.3,0
		c2.9,0,6.9,0,11.4,0l-0.1,0.1c0-0.8,0-1.6,0-2.4c0-0.4,0-0.8,0-1.2v-0.6V185v-0.2v-0.1v0v0v0v0v0v0c0.2,0.2,0.1,0.1,0.1,0.1
		c-6.4,0-12.1,0-15.9,0l0.1-0.1c0,1.5,0,2.7,0,3.6c0,0.4,0,0.7,0,1C54,189.5,53.9,189.6,53.9,189.6"/>
	<path class="st0" d="M46.6,184.7c0,0,0-0.1,0-0.3c0-0.3,0-0.6,0-1c0-0.9,0-2.1,0-3.6v-0.1h0.1c3.9,0,9.6,0,15.9,0
		c0,0-0.1-0.1,0.1,0.1v0v0v0v0v0v0v0.1v0.2v0.3v0.6c0,0.4,0,0.8,0,1.2c0,0.8,0,1.6,0,2.4v0.1l-0.1,0c-4.5,0-8.5,0-11.4,0
		c-1.3,0-2.5,0-3.3,0c-0.3,0-0.6,0-0.9,0C46.7,184.7,46.5,184.7,46.6,184.7c0,0,0.1,0,0.3,0c0.3,0,0.6,0,0.9,0c0.9,0,2,0,3.3,0
		c2.9,0,6.9,0,11.4,0l-0.1,0.1c0-0.8,0-1.6,0-2.4c0-0.4,0-0.8,0-1.2v-0.6v-0.3v-0.2v-0.1v0v0v0v0v0v0c0.2,0.2,0.1,0.1,0.1,0.1
		c-6.4,0-12.1,0-15.9,0l0.1-0.1c0,1.5,0,2.7,0,3.6c0,0.4,0,0.7,0,1C46.6,184.5,46.6,184.7,46.6,184.7"/>
	<path class="st0" d="M52.3,129.9c0,0,0-0.1,0-0.3c0-0.3,0-0.6,0-1c0-0.9,0-2.1,0-3.6v-0.1h0.1c3.9,0,9.6,0,15.9,0
		c0,0-0.1-0.1,0.1,0.1v0v0v0v0v0v0v0.1v0.2v0.3v0.6c0,0.4,0,0.8,0,1.2c0,0.8,0,1.6,0,2.4v0.1h-0.1c-4.5,0-8.5,0-11.4,0
		c-1.3,0-2.5,0-3.3,0c-0.3,0-0.6,0-0.9,0C52.4,129.9,52.3,129.9,52.3,129.9c0,0,0.1,0,0.3,0c0.3,0,0.6,0,0.9,0c0.9,0,2,0,3.3,0
		c2.9,0,6.9,0,11.4-0.1l-0.1,0.1c0-0.8,0-1.6,0-2.4c0-0.4,0-0.8,0-1.2v-0.6v-0.3v-0.2V125v0v0v0v0v0v0c0.2,0.2,0.1,0.1,0.1,0.1
		c-6.4,0-12.1,0-15.9,0l0.1-0.1c0,1.5,0,2.7,0,3.6c0,0.4,0,0.7,0,1C52.3,129.7,52.3,129.9,52.3,129.9"/>
	<path class="st0" d="M9.9,60.5c0,0,0-0.1,0-0.3c0-0.3,0-0.6,0-1c0-0.9,0-2.1,0-3.6v-0.1h0.1c3.9,0,9.6,0,15.9,0
		c0,0-0.1-0.1,0.1,0.1v0v0v0v0v0v0v0.1v0.2v0.3v0.6c0,0.4,0,0.8,0,1.2c0,0.8,0,1.6,0,2.4v0.1h-0.1c-4.5,0-8.5,0-11.4,0
		c-1.3,0-2.5,0-3.3,0c-0.3,0-0.6,0-0.9,0C10,60.5,9.9,60.5,9.9,60.5c0,0,0.1,0,0.3,0c0.3,0,0.6,0,0.9,0c0.9,0,2,0,3.3,0
		c2.9,0,6.9,0,11.4,0l-0.1,0.1c0-0.8,0-1.6,0-2.4c0-0.4,0-0.8,0-1.2v-0.6v-0.3v-0.2v-0.1v0v0v0v0v0v0c0.2,0.2,0.1,0.1,0.1,0.1
		c-6.4,0-12.1,0-15.9,0l0.1-0.1c0,1.5,0,2.7,0,3.6c0,0.4,0,0.7,0,1C9.9,60.4,9.9,60.5,9.9,60.5"/>
	<path class="st0" d="M49.2,32.8c0,0,0-0.1,0-0.3c0-0.3,0-0.6,0-1c0-0.9,0-2.1,0-3.6l0-0.1l0.1,0c3.9,0,9.6,0,15.9,0
		c0,0-0.1-0.1,0.1,0.1v0v0v0v0v0v0v0.1v0.2l0,0.3v0.6c0,0.4,0,0.8,0,1.2c0,0.8,0,1.6,0,2.4v0.1l-0.1,0c-4.5,0-8.5,0-11.4,0
		c-1.4,0-2.5,0-3.3,0c-0.3,0-0.6,0-0.9,0C49.3,32.8,49.2,32.8,49.2,32.8c0,0,0.1,0,0.3,0c0.3,0,0.6,0,0.9,0c0.9,0,2,0,3.3,0
		c2.9,0,6.9,0,11.4,0l-0.1,0.1c0-0.8,0-1.6,0-2.4c0-0.4,0-0.8,0-1.2v-0.6v-0.3v-0.2V28v0v0v0v0v0v0c0.2,0.2,0.1,0.1,0.1,0.1
		c-6.4,0-12.1,0-15.9,0l0.1-0.1c0,1.5,0,2.7,0,3.6c0,0.4,0,0.7,0,1C49.2,32.7,49.2,32.8,49.2,32.8"/>
	<path class="st0" d="M63.3,107.6c0,0,0-0.1,0-0.3c0-0.3,0-0.6,0-1c0-0.9,0-2.1,0-3.6v-0.1l0.1,0c3.9,0,9.6,0,15.9,0
		c0,0-0.1-0.1,0.1,0.1v0v0v0v0v0v0v0.1v0.2v0.3l0,0.6c0,0.4,0,0.8,0,1.2c0,0.8,0,1.6,0,2.4v0.1h-0.1c-4.5,0-8.5,0-11.4,0
		c-1.4,0-2.5,0-3.3,0c-0.3,0-0.6,0-0.9,0C63.4,107.6,63.3,107.6,63.3,107.6c0,0,0.1,0,0.3,0c0.3,0,0.6,0,0.9,0c0.9,0,2,0,3.3,0
		c2.9,0,6.9,0,11.4,0l-0.1,0.1c0-0.8,0-1.6,0-2.4c0-0.4,0-0.8,0-1.2v-0.6V103v-0.2v-0.1v0v0v0v0v0v0c0.2,0.2,0.1,0.1,0.1,0.1
		c-6.4,0-12.1,0-15.9,0l0.1-0.1c0,1.5,0,2.7,0,3.6c0,0.4,0,0.7,0,1C63.3,107.5,63.3,107.6,63.3,107.6"/>
	<path class="st0" d="M69.6,102.6c0,0,0-0.1,0-0.3c0-0.3,0-0.6,0-1c0-0.9,0-2.1,0-3.6v-0.1l0.1,0c3.9,0,9.6,0,15.9,0
		c0,0-0.1-0.1,0.1,0.1v0v0v0v0v0v0v0.1V98v0.3v0.6c0,0.4,0,0.8,0,1.2c0,0.8,0,1.6,0,2.4v0.1h-0.1c-4.5,0-8.5,0-11.4,0
		c-1.4,0-2.5,0-3.3,0c-0.3,0-0.6,0-0.9,0C69.7,102.6,69.6,102.6,69.6,102.6c0,0,0.1,0,0.3,0c0.3,0,0.6,0,0.9,0c0.9,0,2,0,3.4,0
		c2.9,0,6.9,0,11.4,0l-0.1,0.1c0-0.8,0-1.6,0-2.4c0-0.4,0-0.8,0-1.2v-0.6V98v-0.2v-0.1v0v0v0v0v0v0c0.2,0.2,0.1,0.1,0.1,0.1
		c-6.4,0-12.1,0-15.9,0l0.1-0.1c0,1.5,0,2.7,0,3.6c0,0.4,0,0.7,0,1C69.6,102.5,69.6,102.6,69.6,102.6"/>
	<path class="st0" d="M4.5,202.4c0,0,0-0.1,0-0.3c0-0.3,0-0.6,0-1c0-0.9,0-2.1,0-3.6v-0.1h0.1c3.9,0,9.6,0,15.9,0
		c0,0-0.1-0.1,0.1,0.1v0v0v0v0v0v0v0.1v0.2v0.3v0.6c0,0.4,0,0.8,0,1.2c0,0.8,0,1.6,0,2.4v0.1h-0.1c-4.5,0-8.5,0-11.4,0
		c-1.3,0-2.5,0-3.3,0c-0.3,0-0.6,0-0.9,0C4.6,202.4,4.5,202.4,4.5,202.4c0,0,0.1,0,0.3,0c0.3,0,0.6,0,0.9,0c0.9,0,2,0,3.3,0
		c2.9,0,6.9,0,11.4,0l-0.1,0.1c0-0.8,0-1.6,0-2.4c0-0.4,0-0.8,0-1.2v-0.6v-0.3v-0.2v-0.1v0v0v0v0v0v0c0.2,0.2,0.1,0.1,0.1,0.1
		c-6.4,0-12.1,0-15.9,0l0.1-0.1c0,1.5,0,2.7,0,3.6c0,0.4,0,0.7,0,1C4.5,202.2,4.5,202.4,4.5,202.4"/>
	<path class="st0" d="M8.1,121.1c0,0,0-0.1,0-0.3c0-0.3,0-0.6,0-1c0-0.9,0-2.1,0-3.6l0-0.1h0.1c3.9,0,9.6,0,15.9,0
		c0,0-0.1-0.1,0.1,0.1v0v0v0v0v0v0v0.1v0.2v0.3v0.6c0,0.4,0,0.8,0,1.2c0,0.8,0,1.6,0,2.4v0.1l-0.1,0c-4.5,0-8.5,0-11.4,0
		c-1.3,0-2.5,0-3.3,0c-0.3,0-0.6,0-0.9,0C8.2,121.1,8.1,121.1,8.1,121.1c0,0,0.1,0,0.3,0c0.3,0,0.6,0,0.9,0c0.9,0,2,0,3.3,0
		c2.9,0,6.9,0,11.4,0l-0.1,0.1c0-0.8,0-1.6,0-2.4c0-0.4,0-0.8,0-1.2v-0.6v-0.3v-0.2v-0.1v0v0v0v0v0v0c0.2,0.2,0.1,0.1,0.1,0.1
		c-6.4,0-12.1,0-15.9,0l0.1-0.1c0,1.5,0,2.7,0,3.6c0,0.4,0,0.7,0,1C8.2,121,8.1,121.1,8.1,121.1"/>
	<path class="st0" d="M4.5,207.2c0,0,0-0.1,0-0.3c0-0.3,0-0.6,0-1c0-1,0-2.2,0-3.6l0-0.1h0.1c1.8,0,3.9,0,6.2,0c0,0,0.2,0.2,0.1,0.1
		v0v0v0v0v0v0v0.1v0.2v0.3c0,0.2,0,0.4,0,0.6c0,0.4,0,0.9,0,1.3c0,0.8,0,1.6,0,2.3v0.1h-0.1c-1.7,0-3.2,0-4.5,0c-0.5,0-0.9,0-1.3,0
		C4.6,207.3,4.5,207.2,4.5,207.2c0,0,0.2,0,0.5,0c0.4,0,0.8,0,1.3,0c1.2,0,2.7,0,4.4,0l-0.1,0.1c0-0.7,0-1.5,0-2.3
		c0-0.4,0-0.8,0-1.3c0-0.2,0-0.4,0-0.6l0-0.3v-0.2v-0.1v0v0v0v0v0v0c-0.1-0.1,0.1,0.1,0.1,0.1c-2.3,0-4.3,0-6.2,0l0.1-0.1
		c0,1.4,0,2.5,0,3.5c0,0.4,0,0.7,0,1C4.5,207.1,4.5,207.2,4.5,207.2"/>
	<path class="st0" d="M4.5,126c0,0,0-0.1,0-0.3c0-0.3,0-0.6,0-1c0-1,0-2.2,0-3.6l0-0.1h0.1c1.8,0,3.9,0,6.2,0c0,0,0.2,0.2,0.1,0.1v0
		v0v0v0v0v0v0.1v0.2v0.3c0,0.2,0,0.4,0,0.6c0,0.4,0,0.9,0,1.3c0,0.8,0,1.6,0,2.3v0.1l-0.1,0c-1.7,0-3.2,0-4.5,0c-0.5,0-0.9,0-1.3,0
		C4.6,126,4.5,126,4.5,126c0,0,0.2,0,0.5,0c0.4,0,0.8,0,1.3,0c1.2,0,2.7,0,4.4,0l-0.1,0.1c0-0.7,0-1.5,0-2.3c0-0.4,0-0.8,0-1.3
		c0-0.2,0-0.4,0-0.6l0-0.3v-0.2v-0.1v0v0v0v0v0v0c-0.1-0.1,0.1,0.1,0.1,0.1c-2.3,0-4.3,0-6.2,0l0.1-0.1c0,1.4,0,2.5,0,3.5
		c0,0.4,0,0.7,0,1C4.5,125.9,4.5,126,4.5,126"/>
	<path class="st1" d="M73.1,53.7c0-0.1,10.3-0.3,23.1-0.4c12.7-0.1,23.1,0,23.1,0.1c0,0.1-10.3,0.3-23.1,0.4
		C83.4,53.9,73.1,53.9,73.1,53.7"/>
</g>
<g>
	<g>
		<g>
			<path class="st3" d="M47.6,34.6c-2.4-2.4-5.7-3.8-9.1-3.8s-6.7,1.3-9.1,3.8c-2.4,2.4-3.8,5.7-3.8,9.1c0,3.4,1.3,6.7,3.8,9.1
				c2.4,2.4,5.7,3.8,9.1,3.8c3.4,0,6.7-1.3,9.1-3.8c2.4-2.4,3.8-5.7,3.8-9.1C51.3,40.3,50,37,47.6,34.6z M46.5,51.7
				c-2.1,2.1-5,3.3-8,3.3c-3,0-5.9-1.2-8-3.3c-2.1-2.1-3.3-5-3.3-8c0-3,1.2-5.9,3.3-8c2.1-2.1,5-3.3,8-3.3c3,0,5.9,1.2,8,3.3
				c2.1,2.1,3.3,5,3.3,8C49.8,46.7,48.6,49.6,46.5,51.7z"/>
		</g>
	</g>
	<g>
		<g>
			<path class="st3" d="M41.6,40.5v-4.4h-6.4v4.4h-4.4v6.4h4.4v4.4h6.4v-4.4h4.4v-6.4H41.6z M44.6,45.4h-4.4v4.4h-3.3v-4.4h-4.4V42
				h4.4v-4.4h3.3V42h4.4V45.4z"/>
		</g>
	</g>
</g>
</svg>
