<svg id="Calque_1" data-name="Calque 1" xmlns="http://www.w3.org/2000/svg" xmlns:xlink="http://www.w3.org/1999/xlink" viewBox="0 0 118.99 233.94"><defs><style>.cls-1{fill:none;}.cls-2{fill:#e95260;}.cls-3{clip-path:url(#clip-path);}.cls-4{fill:#7558db;}.cls-5{opacity:0.4;}.cls-6{clip-path:url(#clip-path-2);}.cls-7{fill:#192e35;}.cls-8{fill:#fafafa;}</style><clipPath id="clip-path"><rect class="cls-1" x="47.97" y="18.9" width="39.77" height="16.06"/></clipPath><clipPath id="clip-path-2"><rect class="cls-1" x="91.6" y="34.2" width="27.4" height="199.54"/></clipPath></defs><title>initial-4</title><rect class="cls-2" x="47.97" y="18.9" width="39.77" height="16.06"/><rect id="SVGID" x="47.97" y="18.9" width="39.77" height="16.06"/><g class="cls-3"><rect x="47.97" y="18.9" width="39.77" height="16.06"/></g><rect class="cls-4" x="33.72" y="18.9" width="39.77" height="16.06"/><rect class="cls-4" x="46.62" y="34.2" width="72.37" height="199.54"/><g class="cls-5"><g class="cls-6"><rect x="91.6" y="34.2" width="27.4" height="199.54"/></g></g><rect class="cls-4" y="34.2" width="72.37" height="199.54"/><path class="cls-7" d="M30.43,34.25c0-.14,12.88-.26,28.76-.26S88,34.11,88,34.25s-12.88.26-28.77.26-28.76-.11-28.76-.26"/><rect class="cls-8" x="54.1" y="48.11" width="24.37" height="56.68"/><path class="cls-7" d="M54.1,104.79a1.21,1.21,0,0,1,0-.26c0-.2,0-.46,0-.8,0-.73,0-1.77,0-3.11,0-2.76,0-6.74-.07-11.74,0-10.1-.06-24.29-.11-40.77v-.25H78.46l.27.27v8.17q0,4,0,7.94c0,5.21,0,10.24,0,15,0,9.58,0,18.23-.06,25.52V105h-.18l-17.9-.11-4.82,0-1.25,0a2.78,2.78,0,0,1-.4,0,3.72,3.72,0,0,1,.44,0l1.28,0,4.87,0,17.78-.1-.19.19c0-7.29,0-15.94,0-25.52,0-4.8,0-9.83,0-15V56.29c0-1.35,0-2.7,0-4.07v-4.1c.12.12-.25-.27.26.25H54.09l.25-.25c-.05,16.41-.09,30.55-.12,40.6,0,5,0,9-.06,11.8,0,1.36,0,2.42,0,3.17,0,.34,0,.61,0,.82s0,.29,0,.29"/><path class="cls-7" d="M53.71,59.71c0-.15,5.62-.26,12.55-.26s12.55.11,12.55.26S73.19,60,66.26,60s-12.55-.12-12.55-.26"/><path class="cls-7" d="M66,104.36c-.14,0-.26-10-.26-22.24s.12-22.25.26-22.25.26,10,.26,22.25-.11,22.24-.26,22.24"/><rect class="cls-8" x="10.13" y="48.11" width="24.37" height="56.68"/><path class="cls-7" d="M10.13,104.79a2.39,2.39,0,0,1,0-.26c0-.2,0-.46,0-.8,0-.73,0-1.77,0-3.11,0-2.76,0-6.74-.07-11.74,0-10.1-.07-24.29-.11-40.77v-.25H34.5l.27.27v8.17c0,2.69,0,5.34,0,7.94,0,5.21,0,10.24,0,15,0,9.58,0,18.23-.06,25.52V105h-.18l-17.9-.11-4.82,0-1.25,0-.41,0,.45,0,1.28,0,4.87,0,17.78-.1-.19.19c0-7.29,0-15.94-.06-25.52,0-4.8,0-9.83,0-15q0-3.9,0-7.94V48.12c.12.12-.25-.27.26.25H10.13l.25-.25c-.05,16.41-.09,30.55-.12,40.6,0,5,0,9-.07,11.8,0,1.36,0,2.42,0,3.17,0,.34,0,.61,0,.82a1.64,1.64,0,0,1,0,.29"/><path class="cls-7" d="M9.74,59.71c0-.15,5.62-.26,12.55-.26s12.55.11,12.55.26S29.23,60,22.29,60s-12.55-.12-12.55-.26"/><path class="cls-7" d="M22.06,104.36c-.14,0-.26-10-.26-22.24s.12-22.25.26-22.25.26,10,.26,22.25-.11,22.24-.26,22.24"/><rect class="cls-8" x="54.1" y="117.12" width="24.37" height="56.68"/><path class="cls-7" d="M54.1,173.8a1.33,1.33,0,0,1,0-.26c0-.2,0-.47,0-.8,0-.73,0-1.78,0-3.11,0-2.76,0-6.75-.07-11.74,0-10.1-.06-24.29-.11-40.77v-.25H78.46l.27.27v8.17q0,4,0,7.94c0,5.21,0,10.24,0,15,0,9.58,0,18.23-.06,25.52V174h-.18l-17.9-.11-4.82,0-1.25,0-.4,0a2.12,2.12,0,0,1,.44,0l1.28,0,4.87,0,17.78-.1-.19.19c0-7.3,0-15.94,0-25.53,0-4.79,0-9.82,0-15v-8c0-1.34,0-2.69,0-4.06v-4.1c.12.11-.25-.27.26.25H54.09l.25-.25c-.05,16.41-.09,30.54-.12,40.6,0,5,0,9-.06,11.8,0,1.35,0,2.42,0,3.16,0,.35,0,.62,0,.83s0,.28,0,.29"/><path class="cls-7" d="M53.71,128.71c0-.14,5.62-.26,12.55-.26s12.55.12,12.55.26-5.62.26-12.55.26-12.55-.11-12.55-.26"/><path class="cls-7" d="M66,173.37c-.14,0-.26-10-.26-22.25s.12-22.24.26-22.24.26,10,.26,22.24-.11,22.25-.26,22.25"/><rect class="cls-8" x="10.13" y="117.12" width="24.37" height="56.68"/><path class="cls-7" d="M10.13,173.8s0-.09,0-.26,0-.47,0-.8c0-.73,0-1.78,0-3.11,0-2.76,0-6.75-.07-11.74,0-10.1-.07-24.29-.11-40.77v-.25H34.5l.27.27v8.17c0,2.69,0,5.34,0,7.94,0,5.21,0,10.24,0,15,0,9.58,0,18.23-.06,25.52V174h-.18l-17.9-.11-4.82,0-1.25,0-.41,0a2.37,2.37,0,0,1,.45,0l1.28,0,4.87,0,17.78-.1-.19.19c0-7.3,0-15.94-.06-25.53,0-4.79,0-9.82,0-15q0-3.92,0-8v-8.16c.12.11-.25-.27.26.25H10.13l.25-.25c-.05,16.41-.09,30.54-.12,40.6,0,5,0,9-.07,11.8,0,1.35,0,2.42,0,3.16,0,.35,0,.62,0,.83a2,2,0,0,1,0,.29"/><path class="cls-7" d="M9.74,128.71c0-.14,5.62-.26,12.55-.26s12.55.12,12.55.26-5.61.26-12.55.26-12.55-.11-12.55-.26"/><path class="cls-7" d="M22.06,173.37c-.14,0-.26-10-.26-22.25s.12-22.24.26-22.24.26,10,.26,22.24-.11,22.25-.26,22.25"/><path class="cls-7" d="M43.64,233.74s0-.06,0-.2,0-.37,0-.63c0-.59,0-1.42,0-2.47,0-2.21,0-5.37-.06-9.34,0-8.06-.07-19.38-.12-32.57v-.24h.25l21.64,0c0-.06.5.5.27.27V195c0,2.13,0,4.23,0,6.3,0,4.14,0,8.14,0,12,0,7.64,0,14.56,0,20.46v.2h-.19l-15.9-.1-4.29-.05-1.1,0a1.27,1.27,0,0,1-.36,0l.4,0,1.14,0,4.33,0,15.77-.1-.18.19c0-5.9,0-12.82-.06-20.46,0-3.82,0-7.82,0-12V188.55h0c-.24-.24.32.3.25.25l-21.64,0,.24-.24c-.05,13.12-.09,24.39-.12,32.4,0,4,0,7.18-.06,9.4q0,1.6,0,2.52c0,.27,0,.48,0,.65a2.17,2.17,0,0,1,0,.24"/><path class="cls-7" d="M22,233.74s0-.06,0-.2,0-.37,0-.63c0-.59,0-1.42,0-2.47,0-2.21,0-5.37-.07-9.34,0-8.06-.07-19.38-.12-32.57v-.24H22l21.65,0,.26.27V195c0,2.13,0,4.23,0,6.3,0,4.14,0,8.14,0,12,0,7.64,0,14.56-.05,20.46v.2h-.19l-15.9-.1-4.28-.05-1.11,0a1.27,1.27,0,0,1-.36,0l.4,0,1.14,0,4.33,0,15.78-.1-.19.19c0-5.9,0-12.82-.05-20.46,0-3.82,0-7.82,0-12V188.55h0c-.24-.24.32.3.25.25l-21.64,0,.24-.24c-.05,13.12-.09,24.39-.11,32.4,0,4-.06,7.18-.07,9.4q0,1.6,0,2.52c0,.27,0,.48,0,.65a2.17,2.17,0,0,1,0,.24"/><path class="cls-7" d="M40.8,210.38c0,.07-.33,0-.66.21a.6.6,0,0,0-.28.52.62.62,0,0,0,.37.55.56.56,0,0,0,.61-.22.48.48,0,0,0,0-.54c-.2-.34-.51-.34-.52-.41s.39-.26.82.2a.86.86,0,0,1,.08,1,1,1,0,0,1-1.18.44,1.07,1.07,0,0,1-.68-1.06.94.94,0,0,1,.58-.82c.56-.22.89.07.84.11"/><path class="cls-7" d="M48.44,210.38c0,.07-.33,0-.66.21a.6.6,0,0,0-.28.52.63.63,0,0,0,.38.55.57.57,0,0,0,.61-.22.47.47,0,0,0,0-.54c-.19-.34-.51-.34-.51-.41s.39-.26.81.2a.85.85,0,0,1,.09,1,1,1,0,0,1-1.19.44,1.08,1.08,0,0,1-.68-1.06.93.93,0,0,1,.59-.82c.56-.22.88.07.83.11"/><path class="cls-7" d="M18.44,0c.14,0,.26,7.86.26,17.55s-.12,17.55-.26,17.55-.26-7.86-.26-17.55S18.29,0,18.44,0"/><path class="cls-7" d="M32.79,5.54c0,.14-6.21,1.75-13.95,3.58s-14,3.21-14.08,3.07,6.22-1.74,14-3.58,14-3.21,14.07-3.07"/><path class="cls-7" d="M32.77,8.56c0,.14-6.21,1.74-14,3.57s-14,3.22-14.07,3.08,6.21-1.75,14-3.58,14-3.21,14.07-3.07"/><path class="cls-7" d="M33.15,12c0,.14-6.22,1.74-13.95,3.58s-14,3.21-14.08,3.07,6.21-1.74,14-3.58,14-3.21,14.07-3.07"/></svg>