<?xml version="1.0" encoding="utf-8"?>
<!-- Generator: Adobe Illustrator 22.0.1, SVG Export Plug-In . SVG Version: 6.00 Build 0)  -->
<svg version="1.1" id="Calque_1" xmlns="http://www.w3.org/2000/svg" xmlns:xlink="http://www.w3.org/1999/xlink" x="0px" y="0px"
	 viewBox="0 0 874.5 291.5" style="enable-background:new 0 0 874.5 291.5;" xml:space="preserve">
<style type="text/css">
	.st0{fill:#010202;}
	.st1{fill:#FED005;}
</style>
<g>
	<path class="st0" d="M371.5,98.8l-32,100h-28l-16-53.4l-16,53.4h-28l-32-100h32l14.4,53.6l15.6-53.6h28l15.6,53.6l14.4-53.6H371.5z
		"/>
	<path class="st0" d="M482.1,98.8v100h-30v-9.4c-6.6,7.6-16.4,12.2-29.8,12.2c-26.2,0-47.8-23-47.8-52.8S396.1,96,422.3,96
		c13.4,0,23.2,4.6,29.8,12.2v-9.4H482.1z M452.1,148.8c0-15-10-24.4-23.8-24.4s-23.8,9.4-23.8,24.4c0,15,10,24.4,23.8,24.4
		S452.1,163.8,452.1,148.8z"/>
	<path class="st0" d="M600.1,137.4v61.4h-30v-57c0-12.4-7.8-18.2-17.4-18.2c-11,0-18.6,6.4-18.6,20.6v54.6h-30v-100h30v9.4
		c5.4-7.4,15.4-12.2,28.6-12.2C582.9,96,600.1,110.4,600.1,137.4z"/>
	<path class="st0" d="M658.7,127.6V163c0,8.6,7.4,9.4,20.6,8.6v27.2c-39.2,4-50.6-7.8-50.6-35.8v-35.4h-16V98.8h16v-19l30-9v28h20.6
		v28.8C679.3,127.6,658.7,127.6,658.7,127.6z"/>
	<path class="st0" d="M693.3,72c0-9.8,8.2-18,18-18c9.8,0,18,8.2,18,18s-8.2,18-18,18C701.5,90,693.3,81.8,693.3,72z M696.3,98.8h30
		v100h-30V98.8z"/>
	<path class="st0" d="M743.4,148.8c0-29.8,22.6-52.8,53-52.8c19.4,0,36.6,10.2,45.2,25.6l-26.2,15.2c-3.4-7-10.6-11.2-19.4-11.2
		c-13,0-22.6,9.4-22.6,23.2S783,172,796,172c8.8,0,16.2-4.2,19.4-11.2l26.2,15c-8.6,15.6-25.6,25.8-45.2,25.8
		C766,201.7,743.4,178.6,743.4,148.8z"/>
</g>
<path class="st1" d="M284.1,232.3c0,10.9-8.1,19.3-18.8,19.3h-15.4V213h15.4C275.9,213,284.1,221.3,284.1,232.3z M275.6,232.3
	c0-6.6-4.2-10.8-10.3-10.8h-6.6v21.6h6.6C271.4,243.1,275.6,238.9,275.6,232.3z M314.4,243.1v8.5h-24.3V213h24v8.5H299v6.4h13.8v8.4
	H299v6.8L314.4,243.1L314.4,243.1z M317.2,213h9.7l8.6,28.4l8.6-28.4h9.7L341,251.6h-11.3L317.2,213z M382.3,243.1v8.5H358V213h24
	v8.5h-15.2v6.4h13.8v8.4h-13.8v6.8L382.3,243.1L382.3,243.1z M418.7,213v38.6h-6.6l-14.9-21v21h-8.8V213h6.6l14.9,21v-21H418.7z
	 M450.7,243.1v8.5h-24.3V213h24v8.5h-15.2v6.4H449v8.4h-13.8v6.8L450.7,243.1L450.7,243.1z M481.8,243.1v8.5h-26.5v-6.8l14.8-23.3
	h-14.5V213h25.9v6.8l-14.8,23.3H481.8z M511.4,213v38.6h-8.8V213H511.4z M549.4,213v38.6h-6.6l-14.9-21v21h-8.8V213h6.6l14.9,21v-21
	H549.4z M555.5,232.3c0-11.4,9-20.1,20.1-20.1s20.1,8.7,20.1,20.1c0,11.4-9,20.1-20.1,20.1S555.5,243.6,555.5,232.3z M586.8,232.3
	c0-6.9-5-11.5-11.3-11.5s-11.3,4.6-11.3,11.5c0,6.9,5,11.5,11.3,11.5S586.8,239.2,586.8,232.3z M601.2,239.1V213h8.8v25.4
	c0,2.9,1.4,5.4,6.1,5.4c4.7,0,6.1-2.5,6.1-5.4V213h8.8v26.2c0,8.3-6.4,13.2-14.9,13.2C607.6,252.3,601.2,247.4,601.2,239.1z
	 M667.1,240.3c0,6.8-5.6,11.3-12.5,11.3h-16.2V213h15.1c6.7,0,12.2,4.4,12.2,11c0,3.2-1.3,5.7-3.4,7.6
	C665.2,233.4,667.1,236.3,667.1,240.3z M647.3,221.2v6.8h6.3c2,0,3.4-1.4,3.4-3.4s-1.3-3.4-3.4-3.4H647.3z M658.3,239.6
	c0-2.2-1.4-3.7-3.6-3.7h-7.4v7.4h7.4C656.9,243.3,658.3,241.8,658.3,239.6z M695.2,243.1v8.5h-22.6V213h8.8v30.1H695.2z M709,213
	v38.6h-8.8V213H709z M739.4,245.5H725l-1.9,6.1h-9.7l13.1-38.6h11.3l13.1,38.6h-9.7L739.4,245.5z M736.7,237.2l-4.5-14.2l-4.5,14.2
	H736.7z M784.1,240.3c0,6.8-5.6,11.3-12.5,11.3h-16.2V213h15.1c6.7,0,12.2,4.4,12.2,11c0,3.2-1.3,5.7-3.4,7.6
	C782.2,233.4,784.1,236.3,784.1,240.3z M764.2,221.2v6.8h6.3c2,0,3.4-1.4,3.4-3.4s-1.3-3.4-3.4-3.4H764.2z M775.2,239.6
	c0-2.2-1.4-3.7-3.6-3.7h-7.4v7.4h7.4C773.8,243.3,775.2,241.8,775.2,239.6z M812.2,243.1v8.5h-22.6V213h8.8v30.1H812.2z
	 M841.5,243.1v8.5h-24.3V213h24v8.5H826v6.4h13.8v8.4H826v6.8L841.5,243.1L841.5,243.1z"/>
<polygon class="st1" points="70.4,209.3 87.9,230.2 105.4,251 70.4,251 35.4,251 52.9,230.2 "/>
<path class="st0" d="M82.7,63.8c0,2.4-1.9,4.3-4.3,4.3c-2.4,0-4.3-1.9-4.3-4.3V38H26.6v160.4L153.6,31.1c0.8-1.1,2.1-1.7,3.4-1.7v0
	h67.6c2.4,0,4.3,1.9,4.3,4.3c0,1.1-0.4,2.1-1.1,2.9L105.8,190.3l59.4,76.8h57.7l-75.3-97.1c-1.4-1.9-1.1-4.6,0.8-6
	c1.9-1.4,4.6-1.1,6,0.8l80.5,103.7c0.7,0.8,1.1,1.8,1.1,2.9c0,2.4-1.9,4.3-4.3,4.3h-68.5v0c-1.3,0-2.5-0.6-3.4-1.7l-62.6-81
	c-1.3-1.5-1.4-3.8-0.1-5.5L215.6,38h-56.6L26,213.4c-0.8,1.2-2.1,2-3.7,2c-2.4,0-4.3-1.9-4.3-4.3V33.7c0-2.4,1.9-4.3,4.3-4.3h56.1
	c2.4,0,4.3,1.9,4.3,4.3L82.7,63.8L82.7,63.8z"/>
</svg>
