<?xml version="1.0" encoding="utf-8"?>
<!-- Generator: Adobe Illustrator 16.0.0, SVG Export Plug-In . SVG Version: 6.00 Build 0)  -->
<!DOCTYPE svg PUBLIC "-//W3C//DTD SVG 1.1//EN" "http://www.w3.org/Graphics/SVG/1.1/DTD/svg11.dtd">
<svg version="1.1" id="Calque_1" xmlns="http://www.w3.org/2000/svg" xmlns:xlink="http://www.w3.org/1999/xlink" x="0px" y="0px"
	 width="874.468px" height="291.489px" viewBox="0 0 874.468 291.489" enable-background="new 0 0 874.468 291.489"
	 xml:space="preserve">
<rect x="0.135" y="-0.085" display="none" fill="#FED005" width="874" height="292"/>
<g>
	<path fill="#010202" d="M371.459,98.829l-32.006,100.021h-28.006l-16.004-53.412l-16.004,53.412h-28.006L219.427,98.829h32.007
		l14.403,53.611l15.604-53.611h28.006l15.603,53.611l14.404-53.611H371.459z"/>
	<path fill="#010202" d="M482.089,98.829v100.021h-30.007v-9.402c-6.602,7.602-16.403,12.203-29.807,12.203
		c-26.205,0-47.81-23.006-47.81-52.812s21.604-52.811,47.81-52.811c13.403,0,23.205,4.602,29.807,12.203v-9.402H482.089z
		 M452.082,148.839c0-15.002-10.002-24.404-23.805-24.404s-23.805,9.402-23.805,24.404c0,15.004,10.002,24.406,23.805,24.406
		S452.082,163.843,452.082,148.839z"/>
	<path fill="#010202" d="M600.115,137.437v61.414h-30.006v-57.012c0-12.404-7.802-18.205-17.404-18.205
		c-11.002,0-18.604,6.402-18.604,20.605v54.611h-30.007V98.829h30.007v9.402c5.401-7.402,15.403-12.203,28.606-12.203
		C582.912,96.028,600.115,110.431,600.115,137.437z"/>
	<path fill="#010202" d="M658.731,127.636v35.406c0,8.602,7.401,9.402,20.604,8.602v27.207c-39.209,4-50.611-7.803-50.611-35.809
		v-35.406h-16.003V98.829h16.003V79.825l30.007-9.002v28.006h20.604v28.807H658.731z"/>
	<path fill="#010202" d="M693.34,72.023c0-9.802,8.201-18.004,18.004-18.004c9.802,0,18.004,8.202,18.004,18.004
		c0,9.802-8.202,18.003-18.004,18.003C701.541,90.026,693.34,81.825,693.34,72.023z M696.34,98.829h30.007v100.021H696.34V98.829z"
		/>
	<path fill="#010202" d="M743.351,148.839c0-29.807,22.605-52.811,53.012-52.811c19.404,0,36.607,10.201,45.21,25.605
		l-26.206,15.203c-3.4-7.002-10.603-11.203-19.404-11.203c-13.003,0-22.604,9.402-22.604,23.205s9.602,23.205,22.604,23.205
		c8.802,0,16.204-4.201,19.404-11.201l26.206,15.002c-8.603,15.604-25.605,25.807-45.21,25.807
		C765.956,201.651,743.351,178.646,743.351,148.839z"/>
</g>
<path fill="#FFFFFF" d="M284.059,232.265c0,10.924-8.11,19.311-18.76,19.311H249.85v-38.623h15.449
	C275.948,212.952,284.059,221.339,284.059,232.265z M275.562,232.265c0-6.621-4.193-10.814-10.264-10.814h-6.621v21.629h6.621
	C271.369,243.079,275.562,238.886,275.562,232.265z M314.402,243.079v8.496h-24.277v-38.623h24.002v8.498h-15.174v6.4h13.794v8.387
	h-13.794v6.842H314.402z M317.158,212.952h9.656l8.553,28.416l8.552-28.416h9.655l-12.58,38.623h-11.256L317.158,212.952z
	 M382.263,243.079v8.496h-24.277v-38.623h24.001v8.498h-15.173v6.4h13.794v8.387h-13.794v6.842H382.263z M418.676,212.952v38.623
	h-6.621l-14.896-20.967v20.967h-8.828v-38.623h6.621l14.896,20.967v-20.967H418.676z M450.676,243.079v8.496h-24.277v-38.623h24.001
	v8.498h-15.173v6.4h13.793v8.387h-13.793v6.842H450.676z M481.848,243.079v8.496h-26.484v-6.842l14.787-23.283h-14.512v-8.498
	h25.933v6.842l-14.787,23.285H481.848z M511.362,212.952v38.623h-8.828v-38.623H511.362z M549.433,212.952v38.623h-6.621
	l-14.897-20.967v20.967h-8.828v-38.623h6.621l14.897,20.967v-20.967H549.433z M555.498,232.265c0-11.367,8.994-20.084,20.084-20.084
	s20.084,8.717,20.084,20.084c0,11.365-8.994,20.084-20.084,20.084S555.498,243.63,555.498,232.265z M586.838,232.265
	c0-6.898-4.966-11.477-11.256-11.477s-11.256,4.578-11.256,11.477c0,6.896,4.966,11.477,11.256,11.477
	S586.838,239.161,586.838,232.265z M601.182,239.106v-26.154h8.828v25.381c0,2.924,1.379,5.408,6.068,5.408
	c4.69,0,6.07-2.484,6.07-5.408v-25.381h8.828v26.154c0,8.275-6.4,13.242-14.898,13.242
	C607.582,252.349,601.182,247.382,601.182,239.106z M667.113,240.265c0,6.842-5.572,11.311-12.47,11.311h-16.222v-38.623h15.118
	c6.731,0,12.194,4.359,12.194,11.035c0,3.201-1.27,5.738-3.366,7.559C665.237,233.368,667.113,236.347,667.113,240.265z
	 M647.25,221.229v6.842h6.29c1.986,0,3.366-1.436,3.366-3.422s-1.324-3.42-3.366-3.42H647.25z M658.285,239.603
	c0-2.152-1.435-3.697-3.642-3.697h-7.394v7.395h7.394C656.851,243.3,658.285,241.755,658.285,239.603z M695.249,243.079v8.496
	h-22.622v-38.623h8.828v30.127H695.249z M709.041,212.952v38.623h-8.828v-38.623H709.041z M739.387,245.507h-14.346l-1.932,6.068
	h-9.655l13.132-38.623h11.256l13.132,38.623h-9.655L739.387,245.507z M736.738,237.229l-4.524-14.18l-4.524,14.18H736.738z
	 M784.075,240.265c0,6.842-5.573,11.311-12.47,11.311h-16.222v-38.623h15.118c6.731,0,12.193,4.359,12.193,11.035
	c0,3.201-1.269,5.738-3.365,7.559C782.199,233.368,784.075,236.347,784.075,240.265z M764.212,221.229v6.842h6.29
	c1.986,0,3.365-1.436,3.365-3.422s-1.324-3.42-3.365-3.42H764.212z M775.247,239.603c0-2.152-1.435-3.697-3.642-3.697h-7.394v7.395
	h7.394C773.812,243.3,775.247,241.755,775.247,239.603z M812.212,243.079v8.496H789.59v-38.623h8.828v30.127H812.212z
	 M841.453,243.079v8.496h-24.277v-38.623h24.002v8.498h-15.174v6.4h13.794v8.387h-13.794v6.842H841.453z"/>
<polygon fill-rule="evenodd" clip-rule="evenodd" fill="#FFFFFF" points="70.426,209.315 87.926,230.153 105.426,250.993 
	70.426,250.993 35.426,250.993 52.926,230.153 70.426,209.315 "/>
<path fill="#010202" d="M82.733,63.764c0,2.373-1.925,4.299-4.298,4.299c-2.375,0-4.299-1.926-4.299-4.299V37.976H26.645v160.398
	L153.561,31.092c0.842-1.109,2.117-1.692,3.41-1.694v-0.02h67.562c2.373,0,4.299,1.926,4.299,4.3c0,1.103-0.416,2.107-1.099,2.869
	L105.812,190.343l59.354,76.824h57.66l-75.336-97.092c-1.446-1.873-1.101-4.564,0.772-6.01c1.873-1.447,4.563-1.104,6.011,0.771
	l80.494,103.738c0.694,0.762,1.117,1.775,1.117,2.891c0,2.373-1.924,4.299-4.299,4.299h-68.515v-0.014
	c-1.281-0.002-2.548-0.574-3.392-1.666l-62.572-80.986c-1.313-1.529-1.401-3.826-0.1-5.463L215.65,37.976h-56.571L26.007,213.374
	c-0.758,1.227-2.114,2.043-3.661,2.043c-2.373,0-4.299-1.924-4.299-4.297V33.678c0-2.374,1.926-4.3,4.299-4.3h56.09
	c2.373,0,4.298,1.926,4.298,4.3V63.764L82.733,63.764z"/>
</svg>
