<?xml version="1.0" encoding="utf-8"?>
<!-- Generator: Adobe Illustrator 16.0.0, SVG Export Plug-In . SVG Version: 6.00 Build 0)  -->
<!DOCTYPE svg PUBLIC "-//W3C//DTD SVG 1.1//EN" "http://www.w3.org/Graphics/SVG/1.1/DTD/svg11.dtd">
<svg version="1.1" id="Calque_1" xmlns="http://www.w3.org/2000/svg" xmlns:xlink="http://www.w3.org/1999/xlink" x="0px" y="0px"
	 width="300px" height="316px" viewBox="106.5 19.5 300 316" enable-background="new 106.5 19.5 300 316" xml:space="preserve">
<g>
	<path fill="#6456A1" d="M399.098,184.452c0,0-0.099-6.229,1.132-8.375l-0.656-1.021l-1.519,0.229l-0.567-1.589l-1.42,0.229
		l-0.66-1.593h-1.799l-0.758-2.261l-1.132,1.472l-1.853-0.109c0,0,1.09,1.184,0.619,3.17l-1.75,0.111c0,0-0.191-2.602,0.611-3.172
		c0,0-2.175-0.396-2.175-1.646c0,0-0.282,1.646-1.847,1.594c0,0,0.854,2.033,0.287,3l-1.75-0.06c0,0-0.619-2.715,0.379-3.284
		c0,0-1.062-0.312-1.709-0.957l-0.873-15.348c1.354-0.302,2.232-0.792,2.232-1.342c0-0.575-0.947-1.084-2.385-1.377l-1.734-30.333
		c0.307-0.188,0.516-0.555,0.516-0.976c0-0.481-0.266-0.891-0.635-1.06l-0.043-0.685h-0.012l-0.732-6.532
		c0.635-0.167,1.131-0.726,1.275-1.442l5.887,0.842v-2.543l-5.887,0.85c-0.146-0.722-0.646-1.286-1.275-1.445l0.744-6.657h-2.25
		l0.746,6.657c-0.635,0.16-1.131,0.726-1.277,1.445l-5.885-0.85v2.543l5.885-0.842c0.146,0.719,0.645,1.275,1.277,1.442
		l-0.734,6.532h-0.016l-0.037,0.685c-0.375,0.169-0.637,0.575-0.637,1.06c0,0.421,0.211,0.787,0.516,0.976l-1.729,30.333
		c-1.443,0.292-2.393,0.802-2.393,1.377c0,0.55,0.885,1.041,2.232,1.342l-0.877,15.358c-0.641,0.638-1.689,0.944-1.689,0.944
		c0.992,0.568,0.375,3.284,0.375,3.284l-1.744,0.06c-0.564-0.967,0.277-3,0.277-3c-1.555,0.054-1.838-1.594-1.838-1.594
		c0,1.25-2.183,1.646-2.183,1.646c0.806,0.57,0.616,3.172,0.616,3.172l-1.746-0.111c-0.477-1.988,0.611-3.17,0.611-3.17
		l-1.842,0.109l-1.141-1.472l-0.754,2.261h-1.799l-0.662,1.593l-1.42-0.229l-0.562,1.587l-1.518-0.227l-0.662,1.021
		c1.23,2.146,1.137,8.375,1.137,8.375l0.758,2.034v1.479l-0.287,0.792v2.147l1.236,3.74v4.194l0.562,1.015v9.629v3.164l0.943,2.158
		v31.479l-0.662,4.421l-1.703,2.938l0.945,4.192l1.041,1.241v4.074l17.766-0.052l17.76,0.052v-4.074l1.041-1.241l0.943-4.192
		l-1.705-2.938l-0.654-4.422v-31.478l0.939-2.158v-3.164v-9.629l0.574-1.015v-4.194l1.229-3.74v-2.147l-0.287-0.792v-1.479
		L399.098,184.452z"/>
	<g>
		<polygon fill="#6456A1" points="237.496,107.816 237.594,107.736 237.496,107.474 		"/>
		<path fill="#6456A1" d="M366.859,222.217l-5.207,2.265h-3.406l1.002-3.168v-5.667l-6.402-6.339h-2.012v3.623h-2.198v-2.942h-1
			v3.396h-2.004v-3.396h-1.401v3.172h-1.998v-3.396h-1.408v6.563l-2.604-1.812v-6.34l2.206-3.396v-6.34l-7.812-6.569l-1.203-0.226
			v4.298l-2.199,0.456v-8.946h0.746v-4.069l1.179-1.247l1.067-4.195l-1.928-2.938l-0.748-4.418v-31.479l1.068-2.155v-3.168v-9.63
			l0.645-1.014v-4.193l1.392-3.735v-2.152l-0.315-0.79v-1.472l0.854-2.042c0,0-0.107-6.229,1.285-8.376l-0.75-1.021l-1.709,0.227
			l-0.647-1.588l-1.604,0.228l-0.746-1.588h-2.039l-0.855-2.262l-1.281,1.472l-2.092-0.115c0,0,1.232,1.188,0.698,3.174
			l-1.983,0.113c0,0-0.213-2.605,0.696-3.172c0,0-2.461-0.399-2.461-1.646c0,0-0.321,1.646-2.09,1.598c0,0,0.963,2.032,0.321,2.998
			l-1.983-0.06c0,0-0.694-2.713,0.431-3.288c0,0-1.42-0.365-2.101-1.123l-0.444-10.024l0.855-0.457v-1.128l-2.569-2.152v-6.913
			l1.069-1.015l-2.842-37.311l-0.035-1.797c0.021-0.004,0.035-0.012,0.041-0.012c0.287-0.14,0.562-0.297,0.824-0.475
			c0.285-0.199,0.553-0.43,0.787-0.691c0.207-0.234,0.428-0.527,0.434-0.856c0.007-0.393-0.289-0.697-0.537-0.947
			c-0.15-0.158-0.303-0.137-0.479-0.021c-0.078,0.047-0.131,0.128-0.144,0.229c-0.007,0.065,0.013,0.132,0.028,0.198
			c0.017,0.062,0.097,0.17,0.097,0.234c0,0.005-0.017,1.438-1.257,1.048l-0.023-0.368l-0.107,0.135v-4.786
			c0.713-0.055,1.293-0.615,1.404-1.349h2.201v-0.377h-2.188c-0.055-0.805-0.66-1.442-1.418-1.494v-2.206h-0.213v2.206
			c-0.765,0.052-1.367,0.688-1.422,1.494h-2.181v0.377h2.198c0.113,0.73,0.689,1.294,1.402,1.349v4.786l-0.111-0.135l-0.026,0.368
			c-1.235,0.391-1.247-1.043-1.247-1.048c0-0.062,0.075-0.172,0.096-0.234c0.019-0.066,0.029-0.133,0.024-0.198
			c-0.017-0.101-0.062-0.182-0.144-0.229c-0.176-0.112-0.321-0.137-0.475,0.021c-0.246,0.25-0.549,0.557-0.541,0.947
			c0.008,0.329,0.225,0.622,0.43,0.856c0.238,0.264,0.504,0.492,0.795,0.691c0.258,0.178,0.537,0.334,0.82,0.475
			c0.004,0,0.018,0.008,0.039,0.012l-0.035,1.797l-2.84,37.311l1.066,1.015v6.913l-2.568,2.152v1.128l0.855,0.457l-0.438,10.024
			c-0.688,0.757-2.104,1.123-2.104,1.123c1.125,0.575,0.43,3.288,0.43,3.288l-1.982,0.06c-0.639-0.966,0.324-2.998,0.324-2.998
			c-1.77,0.053-2.092-1.598-2.092-1.598c0,1.247-2.459,1.646-2.459,1.646c0.906,0.563,0.688,3.172,0.688,3.172l-1.979-0.113
			c-0.532-1.986,0.698-3.174,0.698-3.174l-2.092,0.115l-1.281-1.472l-0.859,2.262h-2.035l-0.75,1.588l-1.603-0.228l-0.644,1.588
			l-1.719-0.227l-0.744,1.021c1.393,2.146,1.283,8.376,1.283,8.376l0.855,2.042v1.472l-0.322,0.79v2.152l1.396,3.735v4.193
			l0.641,1.014v9.629v3.168l1.068,2.155v30.391l-3.613,0.187l-1.801,1.812l-1.602-1.354l-1.605,1.354V165.6l-0.93-1.203v-0.909
			h-1.338l-0.135-1.51l-2-0.151l-0.402-1.354h-1.062c-0.152-0.095-0.344-0.183-0.545-0.266l-0.525-0.493l-0.734-0.052l-1.715-30.14
			c0.303-0.193,0.512-0.562,0.512-0.993c0-0.473-0.262-0.881-0.629-1.044l-0.041-0.688h-0.018l-0.738-6.53
			c0.635-0.166,1.139-0.728,1.277-1.446l5.893,0.851v-2.55l-5.893,0.851c-0.141-0.726-0.645-1.286-1.277-1.445l0.752-6.661h-2.252
			l0.746,6.661c-0.636,0.16-1.132,0.722-1.275,1.445l-5.889-0.851v2.55l5.889-0.851c0.146,0.722,0.642,1.28,1.275,1.446l-0.729,6.53
			h-0.021l-0.041,0.688c-0.371,0.163-0.634,0.571-0.634,1.044c0,0.435,0.216,0.8,0.521,0.993l-1.65,28.866l-0.407-0.185
			l-1.329-0.153l-0.664-0.453l-1.207,0.151l-16.951-12.531c0,0-0.269-1.965,0.799-4.228l-0.932-0.304l-0.934-1.06l-0.938,0.456
			l-1.47-1.057l-0.937,0.601l-0.936-0.752l-1.531,0.625v-1.414h-0.504v-6.904l0.198-0.229l0.205-1.133l0.396-0.457l0.201-0.682
			l0.396-0.562l0.4-0.563l0.602-0.568l0.502-0.339l0.602-1.136l-1.104,0.229l-1.002,0.451l-0.598,0.68l-0.803,0.083v-4.952h-0.298
			v-2.375l0.101-1.248l0.096-0.79l0.506-0.456l0.201-0.681v-1.133l-0.604-1.136l-0.602-0.449v-1.247l0.602,0.11l0.803-1.015
			l0.199-1.357l0.102-1.138l0.602-0.905l1-1.355c1.002-1.812,0.9-6.117,0.9-6.117l-0.7,1.93l-0.8,0.905l-0.9,2.146l-1.203,2.267
			l-0.697,0.678l-0.604-0.563v-0.787l0.302-0.8l0.104-0.792l-0.705-0.453l-0.7,0.114l-0.196,0.183v-5.216l1.303-0.625l-0.602-0.34
			h-0.904l0.039,0.34h-0.039v6.024l-0.099,0.091v0.904l0.099,0.259v1.013l-0.099,0.085l-0.7-0.681l-0.201-1.473l-0.297-0.564
			l-0.604-1.019l-0.9-2.268v1.136l0.2,1.021l0.101,1.242l0.305,0.907v0.906l0.297,1.019l0.199,0.565l0.496,0.793l0.303,0.568v1.357
			l-0.1,1.131l0.399,1.13l-0.101,1.251v1.132v0.903l0.297,1.021l0.304,0.789l0.2,0.562l0.297,0.566l0.505,0.562l0.196,0.682
			l0.302,0.684v4.208l-0.399-0.135l-0.604,0.568l-0.695,0.111l-0.604,0.111l0.402,1.136l0.199,1.132l0.197,1.016l0.6,0.565
			l0.502,0.683l0.398,0.076v6.608h-0.496v1.347l-1.369-0.558l-0.936,0.753l-0.938-0.601l-1.463,1.056l-0.936-0.455l-0.936,1.06
			l-0.938,0.304c1.068,2.263,0.801,4.228,0.801,4.228l-16.955,12.53l-1.199-0.15l-0.668,0.453l-1.334,0.151l-0.965,0.437v-7.231
			l1-2.146v-3.17v-9.634l0.604-1.015v-4.188l1.297-3.739v-2.148l-0.299-0.793v-1.477l0.803-2.034c0,0-0.1-6.23,1.203-8.385
			l-0.705-1.021l-1.604,0.229l-0.604-1.585l-1.498,0.226l-0.697-1.585h-1.898l-0.805-2.266l-1.203,1.477l-1.955-0.118
			c0,0,1.152,1.189,0.654,3.176l-1.854,0.113c0,0-0.199-2.604,0.648-3.171c0,0-2.301-0.397-2.301-1.645c0,0-0.299,1.645-1.957,1.583
			c0,0,0.906,2.042,0.309,3l-1.854-0.06c0,0-0.65-2.711,0.396-3.278c0,0-1.322-0.365-1.959-1.128l-0.414-10.025l0.799-0.452V95.01
			l-2.404-2.156v-6.904l1.006-1.017l-2.656-37.312l-0.029-1.791c0.014-0.006,0.029-0.018,0.035-0.018
			c0.266-0.138,0.521-0.295,0.771-0.47c0.27-0.2,0.518-0.432,0.73-0.692c0.193-0.234,0.402-0.528,0.41-0.857
			c0.006-0.395-0.273-0.703-0.504-0.953c-0.145-0.155-0.281-0.131-0.443-0.021c-0.078,0.054-0.127,0.127-0.135,0.227
			c-0.008,0.064,0.004,0.138,0.023,0.199c0.02,0.067,0.084,0.172,0.084,0.238c0,0.005-0.012,1.44-1.168,1.047l-0.021-0.365
			l-0.104,0.131v-4.792c0.666-0.054,1.203-0.609,1.314-1.344h2.059v-0.376h-2.049c-0.049-0.803-0.615-1.439-1.324-1.499v-2.196
			h-0.201v2.196c-0.707,0.059-1.271,0.695-1.324,1.499h-2.043v0.376h2.055c0.107,0.731,0.65,1.29,1.312,1.344v4.792l-0.102-0.131
			l-0.023,0.365c-1.158,0.396-1.172-1.042-1.172-1.047c0-0.066,0.07-0.171,0.092-0.238c0.018-0.062,0.029-0.134,0.023-0.199
			c-0.008-0.1-0.059-0.173-0.133-0.227c-0.164-0.108-0.307-0.135-0.445,0.021c-0.23,0.25-0.514,0.561-0.504,0.953
			c0.006,0.329,0.211,0.623,0.406,0.857c0.223,0.264,0.471,0.492,0.734,0.692c0.242,0.174,0.506,0.332,0.771,0.47
			c0.006,0,0.02,0.012,0.031,0.018l-0.025,1.791l-2.658,37.312l0.998,1.017v6.904l-2.4,2.156v1.132l0.803,0.452l-0.416,10.025
			c-0.637,0.763-1.961,1.128-1.961,1.128c1.051,0.567,0.4,3.278,0.4,3.278l-1.854,0.06c-0.602-0.958,0.301-3,0.301-3
			c-1.65,0.062-1.947-1.583-1.947-1.583c0,1.244-2.307,1.645-2.307,1.645c0.854,0.563,0.646,3.171,0.646,3.171l-1.852-0.113
			c-0.5-1.984,0.646-3.176,0.646-3.176l-1.949,0.118l-1.203-1.477l-0.799,2.266h-1.9l-0.705,1.585l-1.504-0.226l-0.594,1.585
			l-1.602-0.229l-0.705,1.021c1.303,2.152,1.203,8.385,1.203,8.385l0.799,2.034v1.477l-0.299,0.793v2.148l1.301,3.739v4.188
			l0.6,1.016v9.633v3.17l1.004,2.146v31.482l-0.703,4.416l-1.801,2.948l1,4.188l0.412,0.466v5.424
			c-3.74-14.419-9.076-17.967-9.076-17.967l1.404-1.438v-5.133c-0.537-0.828-2.674-0.905-2.674-0.905v-7.628l-0.402-0.752
			l-0.332-1.131v-0.98l0.066-0.909l0.531-0.829l0.408-0.903l0.336-0.831l0.064-1.057l0.135-1.134l-0.135-1.281v-0.755l0.336-0.902
			l0.062-0.759l0.069-0.679l-0.203-0.832l0.134-0.681l0.47-0.684l-0.197-1.202l-0.535-1.209l-0.465-0.68l-0.473-0.909l-0.27-1.202
			l-0.799-0.605l-0.602-0.756l-0.33-0.832l-0.205-0.902l-0.199-0.979l-0.535-0.755l-0.73-0.229l-0.604,0.148l-0.266,0.227
			l-0.136,0.834l0.136,0.602l0.133,0.761l0.203,0.75l0.062,0.835l-0.465,0.604l-0.604,0.752l-0.33,0.683l-0.47,0.756l-0.539,0.753
			l-0.603,0.681l-0.268,0.681l-0.461,0.906c0,0-0.473,0.378-0.669,0.378c-0.202,0-0.737,0.446-0.737,0.446l-0.332,0.608l0.135,0.6
			l0.938-0.223l0.73-0.606l0.396-0.527l0.336-0.525l0.196,0.676l-0.062,1.208l-0.135,0.756l0.196,1.361l-0.134,1.581l-0.135,0.908
			l0.269,1.285l0.47,0.979l0.602,0.456l0.271,0.825l0.193,0.913l0.335,1.057l0.271,0.828l-0.14,1.51l-0.528,0.604v4.829v3.323
			c-2.271,0-2.938,0.906-2.938,0.906v4.53l1.468,1.811c-7.075,2.868-10.679,24.61-10.679,24.61
			c-1.334,6.341-2.803,9.056-2.803,9.056l1.604,1.97v14.795l-3.343,0.752v8.612l-1.467,0.602l1.203,3.625v22.798l-1.604,9.968v3.622
			l-13.612,3.021v-1.962l-4.811-10.122l-4.273,10.721v6.796l-3.468,3.628v34.727h60.871h227.485V256.2L366.859,222.217z
			 M237.496,107.816v-0.343l0.099,0.264L237.496,107.816z"/>
	</g>
	<path fill="#FFFFFF" d="M236.865,213.103c0-2.754-1.979-4.981-4.41-4.981c-2.431,0-4.406,2.229-4.406,4.981V266.4h8.816V213.103
		L236.865,213.103z"/>
	<path fill="#263239" d="M154.885,218.892c0-0.564-0.593-1.036-1.321-1.036c-0.736,0-1.328,0.471-1.328,1.036v11.048h2.649V218.892z
		"/>
	<path fill="#263239" d="M158.557,218.892c0-0.564-0.595-1.036-1.327-1.036c-0.73,0-1.328,0.471-1.328,1.036v11.048h2.655V218.892z"
		/>
	<path fill="#263239" d="M152.631,248.996c0-0.601-0.633-1.093-1.405-1.093c-0.776,0-1.411,0.493-1.411,1.093v11.747h2.816V248.996z
		"/>
	<path fill="#263239" d="M143.783,293.933c0-0.821-2.379-1.487-5.31-1.487c-2.935,0-5.313,0.666-5.313,1.487v15.875h10.623V293.933z
		"/>
	<path fill="#263239" d="M156.57,248.996c0-0.601-0.631-1.093-1.414-1.093c-0.775,0-1.404,0.493-1.404,1.093v11.747h2.816v-11.747
		H156.57L156.57,248.996z"/>
	<path fill="#263239" d="M160.506,248.996c0-0.601-0.629-1.093-1.407-1.093c-0.776,0-1.407,0.493-1.407,1.093v11.747h2.814V248.996
		L160.506,248.996z"/>
	<g>
		<path fill="#263239" d="M235.641,284.051c0-0.598-0.864-1.091-1.933-1.091c-1.062,0-1.936,0.493-1.936,1.091v11.747h3.866
			L235.641,284.051L235.641,284.051z"/>
		<path fill="#263239" d="M241.045,284.051c0-0.598-0.866-1.091-1.938-1.091c-1.062,0-1.925,0.493-1.925,1.091v11.747h3.862V284.051
			z"/>
		<path fill="#263239" d="M246.443,284.051c0-0.598-0.863-1.091-1.935-1.091c-1.062,0-1.931,0.493-1.931,1.091v11.747h3.863
			L246.443,284.051L246.443,284.051z"/>
		<path fill="#263239" d="M252.111,284.051c0-0.598-0.863-1.091-1.933-1.091c-1.063,0-1.933,0.493-1.933,1.091v11.747h3.863
			L252.111,284.051L252.111,284.051z"/>
	</g>
	<path fill="#263239" d="M165.832,218.892c0-0.564-0.598-1.036-1.326-1.036c-0.73,0-1.323,0.471-1.323,1.036v11.048h2.649V218.892z"
		/>
	<path fill="#263239" d="M169.502,218.892c0-0.564-0.594-1.036-1.325-1.036c-0.729,0-1.321,0.471-1.321,1.036v11.048h2.646V218.892z
		"/>
	<path fill="#263239" d="M216.619,280.499c0-0.604-0.41-1.104-0.91-1.104s-0.907,0.5-0.907,1.104v11.761h1.815v-11.761H216.619z"/>
	<path fill="#263239" d="M219.129,280.499c0-0.604-0.405-1.104-0.907-1.104c-0.498,0-0.905,0.5-0.905,1.104v11.761h1.812V280.499
		L219.129,280.499z"/>
	<path fill="#263239" d="M221.711,280.694c0-0.603-0.403-1.103-0.907-1.103c-0.498,0-0.903,0.5-0.903,1.103v11.762h1.812
		L221.711,280.694L221.711,280.694z"/>
	<path fill="#263239" d="M270.177,282.058c0-0.604,0.409-1.103,0.907-1.103c0.502,0,0.906,0.5,0.906,1.103v11.76h-1.813V282.058z"/>
	<path fill="#263239" d="M267.664,282.058c0-0.604,0.406-1.103,0.908-1.103c0.5,0,0.907,0.5,0.907,1.103v11.76h-1.813v-11.76
		H267.664z"/>
	<path fill="#263239" d="M265.082,282.252c0-0.604,0.406-1.104,0.908-1.104c0.498,0,0.905,0.5,0.905,1.104v11.76h-1.813V282.252z"/>
	<path fill="#FFFFFF" d="M254.75,213.103c0-2.754-1.969-4.981-4.405-4.981c-2.431,0-4.403,2.229-4.403,4.981V266.4h8.811
		L254.75,213.103L254.75,213.103z"/>
	<path fill="#FFFFFF" d="M213.9,219.317c0-2.688,1.016-4.854,2.27-4.854c1.252,0,2.271,2.168,2.271,4.854v49.549l-4.539,1.713
		L213.9,219.317L213.9,219.317z"/>
	<path fill="#263239" d="M147.225,219.906c0-0.544,0.267-0.996,0.597-0.996c0.317,0,0.588,0.452,0.588,0.996v10.159l-1.185,0.348
		V219.906z"/>
	<path fill="#263239" d="M145.561,220.137c0-0.55,0.259-0.989,0.591-0.989c0.325,0,0.584,0.439,0.584,0.989v10.159l-1.177,0.344
		v-10.503H145.561z"/>
	<g>
		<path fill="#FFFFFF" d="M307.111,121.906c0-2.003-1.086-3.626-2.429-3.626c-1.347,0-2.438,1.623-2.438,3.626v38.807h4.863v-38.807
			H307.111z"/>
		<path fill="#FFFFFF" d="M317.793,121.906c0-2.003-1.092-3.626-2.432-3.626c-1.347,0-2.431,1.623-2.431,3.626v38.807h4.86
			L317.793,121.906L317.793,121.906z"/>
		<path fill="#FFFFFF" d="M292.3,124.038c0-2.015,0.761-3.643,1.702-3.643c0.939,0,1.699,1.628,1.699,3.643v37.147l-3.401,1.283
			V124.038z"/>
		<path fill="#FFFFFF" d="M327.742,124.038c0-2.015-0.762-3.643-1.703-3.643c-0.938,0-1.705,1.628-1.705,3.643v37.147l3.408,1.283
			V124.038L327.742,124.038z"/>
	</g>
	<g>
		<path fill="#FFFFFF" d="M376.01,186.232c0-2.003-0.976-3.627-2.173-3.627s-2.168,1.624-2.168,3.627v38.797h4.341V186.232z"/>
		<path fill="#FFFFFF" d="M385.543,186.232c0-2.003-0.975-3.627-2.174-3.627c-1.189,0-2.168,1.624-2.168,3.627v38.797h4.342V186.232
			z"/>
		<path fill="#FFFFFF" d="M362.787,188.353c0-2.007,0.678-3.636,1.52-3.636s1.518,1.629,1.518,3.636v37.157l-3.035,1.281
			L362.787,188.353L362.787,188.353z"/>
		<path fill="#FFFFFF" d="M394.425,188.353c0-2.007-0.683-3.636-1.517-3.636c-0.84,0-1.521,1.629-1.521,3.636v37.157l3.036,1.281
			L394.425,188.353L394.425,188.353z"/>
	</g>
	<path fill="#FFFFFF" d="M190.429,134.139c0-1.999-0.991-3.627-2.213-3.627c-1.22,0-2.207,1.629-2.207,3.627v38.803h4.42V134.139z"
		/>
	<path fill="#FFFFFF" d="M200.15,162.37l0.521-0.647v-27.584c0-1.999-0.982-3.627-2.207-3.627c-1.223,0-2.215,1.629-2.215,3.627
		v29.626l1.629-1.698L200.15,162.37z"/>
	<path fill="#FFFFFF" d="M176.955,136.266c0-2.013,0.697-3.64,1.551-3.64s1.546,1.627,1.546,3.64v37.152l-3.097,1.279V136.266z"/>
	<path fill="#FFFFFF" d="M208.297,156.786l0.896,0.506v-21.026c0-2.013-0.691-3.64-1.545-3.64c-0.859,0-1.548,1.627-1.548,3.64
		v22.222l0.992,0.259L208.297,156.786z"/>
	<path fill="#263239" d="M190.672,200.573c0,1.915-1.373,3.475-3.069,3.475c-1.692,0-3.069-1.56-3.069-3.475
		c0-1.923,1.375-3.474,3.069-3.474C189.299,197.099,190.672,198.65,190.672,200.573z"/>
	<path fill="#263239" d="M156.828,208.344c0,0.957-0.685,1.737-1.531,1.737c-0.85,0-1.538-0.78-1.538-1.737
		c0-0.958,0.688-1.732,1.538-1.732C156.143,206.611,156.828,207.387,156.828,208.344z"/>
	<path fill="#263239" d="M168.844,208.344c0,0.957-0.685,1.737-1.535,1.737c-0.849,0-1.532-0.78-1.532-1.737
		c0-0.958,0.688-1.732,1.532-1.732C168.16,206.611,168.844,207.387,168.844,208.344z"/>
	<ellipse fill="#263239" cx="146.049" cy="209.402" rx="0.804" ry="1.736"/>
	<path fill="#263239" d="M190.672,238.922c0,1.917-1.373,3.473-3.069,3.473c-1.692,0-3.069-1.556-3.069-3.473
		c0-1.916,1.375-3.469,3.069-3.469C189.299,235.453,190.672,237.006,190.672,238.922z"/>
	<path fill="#263239" d="M190.672,277.572c0,1.923-1.373,3.476-3.069,3.476c-1.692,0-3.069-1.553-3.069-3.476
		c0-1.917,1.375-3.474,3.069-3.474C189.299,274.099,190.672,275.655,190.672,277.572z"/>
	<path fill="#263239" d="M309.803,188.791c0,1.922-1.378,3.478-3.072,3.478c-1.695,0-3.068-1.556-3.068-3.478
		c0-1.916,1.373-3.471,3.068-3.471C308.427,185.323,309.803,186.875,309.803,188.791z"/>
	<path fill="#263239" d="M309.803,227.144c0,1.921-1.378,3.479-3.072,3.479c-1.695,0-3.068-1.559-3.068-3.479
		c0-1.917,1.373-3.472,3.068-3.472C308.427,223.673,309.803,225.228,309.803,227.144z"/>
	<path fill="#263239" d="M309.803,265.799c0,1.916-1.378,3.476-3.072,3.476c-1.695,0-3.068-1.561-3.068-3.476
		c0-1.923,1.373-3.471,3.068-3.471S309.803,263.876,309.803,265.799z"/>
	<path fill="#263239" d="M378.105,254.173c0,1.501-1.072,2.715-2.402,2.715s-2.406-1.214-2.406-2.715
		c0-1.502,1.076-2.718,2.406-2.718C377.031,251.455,378.105,252.671,378.105,254.173z"/>
	<path fill="#263239" d="M327.509,192.418c0,1.916-0.532,3.471-1.2,3.471c-0.664,0-1.203-1.556-1.203-3.471
		c0-1.92,0.539-3.476,1.203-3.476C326.973,188.944,327.509,190.497,327.509,192.418z"/>
	<ellipse fill="#263239" cx="326.705" cy="230.765" rx="1.203" ry="3.472"/>
	<path fill="#263239" d="M327.906,269.422c0,1.925-0.537,3.472-1.199,3.472c-0.666,0-1.207-1.547-1.207-3.472
		c0-1.915,0.541-3.472,1.207-3.472C327.369,265.95,327.906,267.507,327.906,269.422z"/>
	<rect x="115.043" y="300.448" fill="#263239" width="4.207" height="4.984"/>
	<rect x="118.848" y="284.14" fill="#263239" width="1" height="2.72"/>
	<path fill="#7672B4" d="M213.973,294.351l-1.019-0.362c-18.235-6.491-39.43-0.441-39.641-0.38l-0.646,0.188l0.693-89.089l1,0.008
		l-0.685,87.759c3.651-0.943,22.11-5.209,38.599,0.227c-0.447-1.162-0.854-2.198-1.227-3.149c-2.477-6.321-3.502-8.938-4.969-19.724
		l0.992-0.137c1.451,10.666,2.463,13.25,4.908,19.494c0.477,1.218,1.008,2.574,1.605,4.155L213.973,294.351z"/>
	<path fill="none" stroke="#E3A800" stroke-width="0.25" stroke-miterlimit="10" d="M231.719,318.056"/>
	<path fill="#7672B4" d="M170.611,216.061c-1.072-10.008-4.05-12.991-5.129-13.76c-5.535,12.12-6.341,12.034-6.729,11.989
		c-0.207-0.021-0.457-0.168-0.532-0.515c-1.229-5.585-2.735-10.24-3.496-10.865c-0.015,0.021-0.028,0.046-0.045,0.077
		c-0.507,1.002-1.179,3.275-1.826,5.476c-1.413,4.788-1.778,5.812-2.543,5.731c-0.603-0.061-0.67-0.842-0.707-1.262
		c-0.329-3.731-2.659-7.532-2.685-7.57l0.854-0.524c0.096,0.157,2.311,3.771,2.782,7.587c0.396-1.05,0.922-2.832,1.34-4.244
		c0.662-2.241,1.347-4.56,1.896-5.643c0.328-0.65,0.771-0.7,1.004-0.667c1.482,0.188,3.103,5.913,4.248,10.979
		c1.078-1.611,3.601-6.713,5.761-11.463l0.188-0.414l0.432,0.149c0.195,0.066,4.791,1.812,6.188,14.831L170.611,216.061z"/>
	<path fill="#7672B4" d="M170.23,314.192l-0.998-0.062c1.926-31.234,2.967-76.931,3.086-82.404l-29.043,1.562l-0.056-0.999
		l30.12-1.619l-0.012,0.539C173.32,231.702,172.273,281.068,170.23,314.192z"/>
	<path fill="#54517E" d="M171.677,121.414l-0.449-0.895c0.169-0.085,4.194-2.093,11.125-3.164c6.38-0.984,16.505-1.311,28.521,2.748
		l-0.319,0.947C187.939,113.417,171.838,121.333,171.677,121.414z"/>
	<path fill="#54517E" d="M172.982,124.56l-0.306-0.952c0.207-0.064,21.021-6.603,36.17,0.02l-0.399,0.916
		C193.643,118.074,173.186,124.494,172.982,124.56z"/>
	<path fill="#7672B4" d="M213.275,167.017l-0.304-0.954c0.063-0.021,6.603-2.073,17.53-3.137c10.076-0.98,26.07-1.303,45.061,2.734
		l-0.207,0.979c-18.85-4.008-34.725-3.692-44.72-2.723C219.799,164.971,213.34,166.995,213.275,167.017z"/>
	<path fill="#7672B4" d="M287.244,254.249l-0.385-0.923c0.203-0.084,5.057-2.083,13.418-3.15c7.699-0.981,19.924-1.306,34.434,2.741
		l-0.27,0.963C306.996,246.228,287.439,254.169,287.244,254.249z"/>
	<path fill="#7672B4" d="M286.324,213.742l-0.385-0.925c0.202-0.084,5.057-2.083,13.418-3.149c7.7-0.981,19.926-1.308,34.434,2.741
		l-0.268,0.963c-14.33-3.997-26.398-3.685-33.998-2.719C291.287,211.702,286.373,213.722,286.324,213.742z"/>
	<path fill="#7672B4" d="M212.242,277.245l-0.303-0.953c0.062-0.021,6.602-2.073,17.53-3.139
		c10.073-0.979,26.067-1.303,45.058,2.734l-0.207,0.979C238.232,269.194,212.498,277.164,212.242,277.245z"/>
	<path fill="#7672B4" d="M215.41,170.145l-0.199-0.979c0.33-0.065,33.201-6.569,57.102,0.008l-0.27,0.965
		C248.377,163.625,215.736,170.079,215.41,170.145z"/>
	<path fill="#54517E" d="M289.802,109.339l-0.448-0.895c0.168-0.085,4.193-2.093,11.125-3.164c6.379-0.981,16.504-1.31,28.52,2.748
		l-0.319,0.947c-11.804-3.984-21.739-3.676-28-2.713C293.889,107.307,289.843,109.319,289.802,109.339z"/>
	<path fill="#54517E" d="M291.107,112.485l-0.309-0.952c0.21-0.063,21.021-6.602,36.171,0.021l-0.399,0.916
		C311.762,105.995,291.312,112.42,291.107,112.485z"/>
	<path fill="#7672B4" d="M360.055,180.619l-0.45-0.895c0.168-0.085,4.193-2.093,11.125-3.164c6.379-0.982,16.504-1.31,28.52,2.747
		l-0.318,0.946c-11.805-3.984-21.742-3.675-28-2.712C364.144,178.586,360.096,180.599,360.055,180.619z"/>
	<path fill="#7672B4" d="M361.361,183.765l-0.306-0.952c0.207-0.065,21.019-6.603,36.168,0.02l-0.399,0.916
		C382.023,177.279,361.566,183.698,361.361,183.765z"/>
	<path fill="#7672B4" d="M173.686,187.852l-0.336-0.94c0.136-0.051,13.806-4.791,32.894-0.243l-0.231,0.974
		C187.211,183.16,173.82,187.805,173.686,187.852z"/>
	<path fill="#7672B4" d="M172.998,193.305l-0.336-0.942c0.135-0.048,13.808-4.79,32.894-0.241l-0.229,0.974
		C186.521,188.612,173.131,193.256,172.998,193.305z"/>
	<path fill="#7672B4" d="M363.443,233.812l-0.336-0.94c0.135-0.051,13.803-4.789,32.893-0.243l-0.229,0.974
		C376.965,229.12,363.576,233.765,363.443,233.812z"/>
	<path fill="#7672B4" d="M291.795,173.248l-0.305-0.952c0.207-0.066,21.019-6.604,36.168,0.019l-0.399,0.916
		C312.447,166.758,292,173.183,291.795,173.248z"/>
	<polygon fill="#263239" points="228.469,327.015 226.389,326.485 227.389,279.063 	"/>
	<polygon fill="#263239" points="258.695,327.675 256.609,327.256 257.088,279.794 	"/>
	<path fill="#FFFFFF" d="M269.17,219.317c0-2.688-1.02-4.854-2.271-4.854s-2.267,2.168-2.267,4.854v49.549l4.536,1.713
		L269.17,219.317L269.17,219.317z"/>
	<polygon fill="#263239" points="269.259,145.117 269.259,140.443 271.324,140.443 272.357,145.508 	"/>
	<g>
		<path fill="#514580" d="M208.355,260.884c0.008,0.011,0.018,0.019,0.03,0.021C208.373,260.887,208.363,260.881,208.355,260.884z"
			/>
		<path fill="#514580" d="M208.59,251.612l0.018,0.106C208.602,251.649,208.596,251.622,208.59,251.612z"/>
		<path fill="#514580" d="M208.254,266.441c-0.002-0.007-0.004-0.007-0.008-0.014c0,0.087-0.002,0.202-0.004,0.392L208.254,266.441z
			"/>
		<path fill="#514580" d="M208.908,231.835v0.125C208.908,231.903,208.912,231.867,208.908,231.835z"/>
		<path fill="#514580" d="M208.689,243.556c-0.016-0.035-0.021-0.098-0.023-0.156C208.664,243.474,208.668,243.535,208.689,243.556z
			"/>
		<path fill="#514580" d="M207.561,269.385l0.048-0.157C207.588,269.229,207.568,269.286,207.561,269.385z"/>
		<path fill="#514580" d="M207.779,275.018c0.004-0.005,0.008-0.006,0.012-0.016C207.787,274.994,207.783,275.003,207.779,275.018z"
			/>
		<path fill="#514580" d="M207.961,272.816c-0.006-0.044-0.014-0.102-0.02-0.156C207.941,272.726,207.943,272.811,207.961,272.816z"
			/>
		<path fill="#514580" d="M207.927,272.583l0.015,0.075C207.939,272.615,207.936,272.581,207.927,272.583z"/>
		<path fill="#514580" d="M209.055,159.973c0.004-0.162-0.032-0.301-0.062-0.446L209.055,159.973z"/>
		<path fill="#514580" d="M209.043,213.924l0.021,0.036C209.055,213.926,209.049,213.92,209.043,213.924z"/>
		<path fill="#514580" d="M208.643,159.773l0.011-0.115C208.646,159.701,208.641,159.738,208.643,159.773z"/>
		<path fill="#514580" d="M207.422,266.404c-0.047-0.16,0.007-0.494-0.038-0.491C207.389,266.083,207.357,266.328,207.422,266.404z"
			/>
		<path fill="#514580" d="M207.302,210.128l-0.002-0.107C207.302,210.071,207.302,210.103,207.302,210.128z"/>
		<path fill="#514580" d="M208.643,159.773l-0.015,0.133c0.011-0.011,0.02-0.024,0.023-0.04
			C208.648,159.837,208.643,159.807,208.643,159.773z"/>
		<path fill="#514580" d="M209.174,195.273v0.006c0.003,0.016,0.005,0.023,0.009,0.038L209.174,195.273z"/>
		<path fill="#514580" d="M209.256,194.285c0.005,0.067,0.011,0.136,0.015,0.211C209.275,194.385,209.266,194.325,209.256,194.285z"
			/>
		<path fill="#514580" d="M208.994,159.526l-0.035-0.255C208.963,159.363,208.977,159.446,208.994,159.526z"/>
		<path fill="#514580" d="M209.252,183.619l0.004,0.099C209.256,183.676,209.256,183.644,209.252,183.619z"/>
		<path fill="#514580" d="M208.66,244.308c-0.002,0.027-0.006,0.061-0.01,0.087C208.66,244.404,208.668,244.398,208.66,244.308z"/>
		<polygon fill="#514580" points="207.449,236.936 207.449,236.933 207.449,236.933 		"/>
		<path fill="#514580" d="M207.506,237.328c0.013-0.123-0.021-0.301-0.057-0.395C207.449,237.06,207.459,237.176,207.506,237.328z"
			/>
		<path fill="#514580" d="M207.477,236.091c-0.002,0.017-0.004,0.028-0.006,0.046C207.475,236.118,207.475,236.105,207.477,236.091z
			"/>
		<polygon fill="#514580" points="207.348,244.009 207.355,244.009 207.35,244.005 		"/>
		<path fill="#514580" d="M207.345,242.44c0.011-0.026,0.019-0.064,0.021-0.106C207.359,242.359,207.35,242.395,207.345,242.44z"/>
		<polygon fill="#514580" points="207.371,232.187 207.373,232.188 207.371,232.181 		"/>
		<path fill="#514580" d="M207.113,217.406c0.021,1.483,0.102,3.406,0.065,4.878c0.095,0.318,0.097,0.785,0.112,1.255l-0.129,0.049
			l0.039,0.392c-0.039,0.158-0.021-0.302-0.072-0.021l0.08,0.146c-0.047,0.03-0.037,1.004-0.125,0.35l-0.01,1.52
			c-0.006,0.336,0.104,0.196,0.072,0.567c-0.037,0.076-0.025-0.133-0.07-0.104c-0.103,1.114,0.24,1.289,0.176,2.328l-0.018-0.089
			c0.032,0.178,0.024,0.515,0.045,0.519c0.129-0.133-0.068-0.188,0.008-0.504c0.109,0.028,0.058,0.396,0.14,0.375
			c-0.041,0.243,0.021,0.389,0.024,0.601c-0.07,0.359-0.024,0.88-0.111,1.151c0.033,0.179,0.141,0.375,0.143,0.758
			c-0.087,0.271-0.08-0.065-0.115,0.307l0.063,0.061c-0.015,0.306-0.028,0.257-0.062,0.245c-0.004,0.326,0.084,0.271,0.043,0.682
			l-0.062-0.229c0.021,0.302,0.013,0.425,0.005,0.846c-0.037-0.009-0.033-0.178-0.021-0.302c-0.096,0.229,0.037,0.394,0.027,0.517
			c0.026-0.035,0.041-0.327,0.102-0.186c-0.012,0.208,0.084,0.444,0.009,0.594l-0.06-0.229c0.045,0.437,0.076,0.231,0.049,0.731
			c-0.004-0.025-0.02-0.014-0.032-0.023c0.077,0.315,0.004,0.729-0.007,1.197l-0.016-0.09c0.021,0.188,0.076,0.292,0.069,0.396
			c0.039-0.266,0.058-0.192,0.117-0.217c-0.104,0.353,0.116,0.539,0.054,1.111c-0.037-0.009-0.08-0.146-0.041-0.306
			c-0.105-0.197-0.195-0.223-0.242-0.573c0.022,0.22,0.037,0.477-0.008,0.42l0.098,0.068c-0.002,0.132-0.004,0.236-0.006,0.336
			c0.062,0.057,0.104-0.268,0.146,0.04c0.028,0.345-0.104,0.183-0.06,0.236c0.037,0.476,0.104,0.195,0.07,0.652
			c-0.009-0.045-0.025-0.135-0.018-0.174c-0.043,0.327,0.015,0.807-0.105,0.899c-0.025-0.049-0.062-0.06-0.052-0.184l0.019,0.007
			c-0.084-0.36,0.022,0.301-0.084,0.188c0.063-0.025,0.047,0.438,0.033,0.644l0.073-0.065c0.215,0.692-0.146-0.037-0.121,0.646
			c0.048,0.436,0.021-0.164,0.069,0.104c-0.014,0.293-0.08,0.402-0.051,0.831c-0.029,0.119-0.067,0.363-0.149,0.383
			c0.03,0.262-0.039,0.793,0.041,0.94c0.069-0.445-0.084-0.445,0.022-0.967l0.078,0.146c-0.004,0.36,0.035,0.822,0.004,1.071
			c0.016-0.052,0.037-0.073,0.055-0.041c0.027,0.515,0.107,0.662,0.082,1.162c-0.071,0.063-0.061-0.229-0.062-0.44
			c-0.062,0.322-0.007,0.338-0.031,0.838c-0.063,0.025,0.004-0.338-0.06-0.396l0.021,0.554c-0.004-0.002-0.008,0-0.014,0
			c0.104,0.08-0.014,0.422,0.02,0.762c-0.002,0.802,0.142,0.925,0.228,1.369c-0.028,0.119-0.06,0.154-0.084,0.104
			c0.05-0.196,0.013-0.161-0.019-0.229c0.011,0.271-0.104,0.593-0.147,0.44c0.028,0.43,0.058-0.155,0.091,0.106l-0.011,0.589
			c0.056-0.068,0.065-0.275,0.106,0.028c0.017,0.257,0.004,0.381-0.002,0.717c-0.024-0.049-0.082,0.105-0.078-0.146
			c-0.021,0.162-0.022,0.416,0.027,0.514c0.051-0.367,0.045,0.604,0.131,0.329l-0.051,0.367c0.002-0.083-0.035-0.095-0.023-0.217
			c-0.084,0.104,0.023,0.301,0.029,0.43c-0.017,0.129-0.023,0.466-0.058,0.494c0.021,0.114,0.004,0.398-0.039,0.454
			c0.017,0.173,0.056,0.014,0.082,0.062l-0.011,0.588c-0.047,0.031-0.174,0.081-0.19-0.007c0.043,0.222,0.136,0.079,0.132,0.415
			c-0.089-0.193-0.07,0.444-0.177,0.166c-0.065,0.19-0.063,0.741-0.041,1.044c0.067,0.188,0.041-0.328,0.11-0.309
			c0.023,0.851,0.226,0.899,0.188,1.522l0.02-0.162c0.041,0.391,0.031,0.348,0.093,0.572c-0.091-0.106-0.242,0.442-0.226,1.083
			c0.045,0.054,0.086-0.358,0.158-0.255l0.012,0.425c-0.008,0.03-0.021-0.017-0.032-0.07c0.03,0.381-0.119,0.709-0.015,0.818
			l-0.133,0.388l0.057-0.151c0.045,0.054,0.058,0.479,0.074,0.565c0.047,0.438,0.008,0.595-0.049,0.833
			c0.036-0.075,0.12-0.267,0.135,0.077c-0.146-0.002-0.058,0.719-0.131,0.71c0,0.14-0.045,0.384,0.016,0.399l-0.09-0.021
			c0.125,0.031,0.119,0.536,0.142,0.922c-0.172-0.085,0.013,0.425-0.146,0.6c0.117,0.069,0.045,0.687,0.146,0.752
			c0.004,0.298-0.104,0.27-0.144,0.346l0.043,0.138c-0.055,0.151-0.063,0.709-0.104,1.042l0.103,0.31l-0.047,0.114
			c0.026,0.05,0.041,0.307,0.08,0.146l-0.007,0.168c0.111,0.013,0.029,0.233,0.076,0.568c-0.019,0.076-0.045,0.058-0.062-0.017
			c0,0.167-0.06,0.098-0.097,0.188c0.029-0.118,0.199,0.599,0.25,0.146c0.048-0.03,0.08,0.229,0.06,0.396l-0.103,0.102l0.104,0.194
			c0.015,0.258-0.051,0.367-0.062,0.575c-0.006-0.212-0.192-0.471-0.19,0.08c-0.012-0.289-0.067-0.432-0.09-0.579
			c-0.004,0.113-0.015,0.171-0.056-0.005c0.029,0.429,0.062,0.144,0.072,0.564c-0.091-0.021-0.119,0.099-0.15,0.47l0.063-0.277
			c0.013,0.014,0.021,0.031,0.025,0.054c0.01-0.104,0.022-0.136,0.06-0.158c-0.003,0.084,0.11,0.491,0.057,0.562
			c0.14-0.43,0.113,0.743,0.197,0.47c0.024,0.048,0.03,0.345-0.015,0.376c-0.067-0.354-0.103,0.27-0.164,0.212
			c0.026,0.131,0.065-0.279,0.103-0.103c0.006,0.211-0.049,0.366-0.076,0.483l-0.018-0.088l-0.039,0.327
			c0.045,0.053,0.073-0.316,0.1-0.018c-0.018,0.079,0.007,0.38-0.028,0.371c-0.062-0.144-0.146-0.037-0.162-0.294
			c0.009,0.213,0.021,0.89,0.104,0.614l-0.002,0.254c0.037-0.159,0.104-0.604,0.119-0.097l-0.021-0.004l0.069,0.354l-0.045,0.154
			c0.021-0.005,0.043,0.052,0.043,0.183c-0.026,0.034-0.039,0.157-0.073,0.148c0.006,0.38,0.051,0.35,0.077,0.398
			c0.009,0.213-0.01,0.293-0.063,0.191c-0.012,0.292,0.005,0.802-0.045,1c0.043,0.392,0.021-0.081,0.082,0.146
			c-0.155,0.338-0.058,1.29-0.032,1.928c0.137-0.174,0.016,0.174,0.143,0.291c-0.045-0.138-0.104,0.604-0.146,0.046l0.019,0.34
			c-0.075,0.231-0.062-0.562-0.161-0.211c0.006,0.382,0.157,0.633,0.108,1.081c-0.101-0.15,0.032,0.347-0.074,0.232
			c-0.036-0.095-0.024-0.219-0.034-0.347l-0.021,0.078c-0.022,0.836,0.116,0.242,0.187,0.683c0.016,0.51-0.074,0.399-0.121,0.43
			c-0.019,0.079-0.002,0.337,0.024,0.471c-0.062-0.312,0.06-0.573,0.121-0.43c-0.111,0.223-0.009,0.756,0.037,0.896
			c0.114-0.728,0.004-0.504,0.127-1.188c-0.035-0.094-0.136-0.078-0.097-0.488c0.051,0.259,0.058-0.018,0.071-0.09
			c-0.057,0.078-0.024-0.285-0.049-0.41c0.045-0.113,0.133,0.247,0.153-0.169l-0.137-0.079c0.021-0.162,0.103,0.068,0.065-0.275
			c0.069,0.188,0.108-0.058,0.133,0.413c0.113-0.56-0.065-0.858-0.116-1.293c0.01,0.045,0.026,0.05,0.037,0.094
			c-0.037-0.094-0.035-0.263-0.043-0.391c0.028-0.287,0.062,0.228,0.098,0.151l-0.004-0.464c0.004-0.01,0.006-0.012,0.008-0.012
			c-0.018-0.122-0.03-0.239,0.003-0.281c0.045,0.139,0.09,0.191,0.125,0.286l-0.097-0.488c0.045,0.056,0.076-0.4,0.108-0.055
			l-0.021-0.723l0.09-0.062c-0.016-0.173-0.032-0.178-0.045,0.028c0.021-0.246-0.164-1.095,0.019-0.964
			c-0.078-0.566-0.049-0.771-0.099-1.457c0.087,0.526,0.104-0.605,0.146-0.047c0.039-0.328-0.061-0.396-0.075-0.652
			c0.037-0.243,0.127-0.137,0.162,0.126l-0.044-0.308l0.019,0.005l-0.053-0.268c0.047-0.283,0.092-0.062,0.104-0.354l-0.08-0.062
			l0.045-0.198c-0.037,0.075-0.055-0.098-0.062-0.312l0.019,0.005l-0.017-0.259c0.052,0.254,0.017-0.235,0.074-0.118
			c0.004-0.223,0.002-0.228-0.015-0.625l-0.058,0.07c-0.045-0.52,0.082-0.021,0.091-0.442l-0.063,0.025
			c0.108-0.604-0.058-1.024,0.014-1.475c0.015,0.257,0.089,0.189,0.07,0.188c-0.021-0.386-0.004-1.015-0.08-1.412
			c0.094-0.146,0.121-0.182,0.164-0.593c-0.006-0.297-0.015-0.341-0.065-0.438c0.036-0.289-0.017-0.83,0.053-0.846
			c-0.055-0.065,0.013-0.261-0.032-0.418l0.026-0.033l-0.063,0.024c0.146-0.514-0.078-0.861,0.047-1.381l0.019,0.089l-0.022-0.217
			c0.026-0.035,0.043,0.053,0.08,0.062l0.017-1.011l-0.05,0.199c-0.006-0.213-0.065-0.354-0.024-0.6
			c0.094,0.401,0.004-0.335,0.078-0.4l0.022,0.216c-0.004-0.296-0.004-0.296-0.067-0.271c-0.021-0.385,0.12-0.266,0.055-0.618
			l-0.002,0.252c-0.039,0.075-0.09-0.104-0.088-0.272c0.01-0.04,0.039-0.16,0.047-0.03c-0.022-0.303,0.011-0.757-0.017-0.891
			c0.021-0.163,0.065-0.108,0.082-0.021c-0.053-0.646,0.015-0.292-0.039-0.939l0.035,0.011l-0.041-0.223l0.076-0.317l-0.048,0.113
			c-0.006-0.212-0.03-0.346-0.008-0.594l0.054,0.102c-0.027-0.6,0.092-0.693,0.019-1.264c0.012-0.039,0.026,0.051,0.034,0.096
			c-0.082-0.527,0.099-0.398-0.004-0.932c0.019,0.032,0.041-0.024,0.058-0.005l-0.033-0.241l0.07,0.02l-0.104-0.197l0.075-0.147
			l-0.035-0.095c0.14-0.259,0.035-0.624,0.142-0.978l-0.092,0.062c-0.188-0.892,0.11-2.038,0.026-3.113l0.072,0.021l-0.084-0.444
			c0.059-0.237,0.062,0.146,0.1,0.068c-0.039-0.477-0.104-0.197-0.125-0.751c0.05-0.283,0.054,0.1,0.078,0.23
			c-0.033-0.519-0.071-1.282-0.028-1.648c-0.011-0.009-0.022-0.031-0.026-0.013c-0.031-0.347,0.002-0.802,0-1.183
			c0.032,0.009,0.036,0.104,0.043,0.197c0.006-0.138,0.028-0.322-0.005-0.44l0.062,0.146c0.013-0.292-0.043-0.854,0.031-0.92
			c-0.027,0.034-0.084,0.021-0.078-0.231c0.111-0.14-0.045-0.688,0.017-1.093c0.026,0.048,0.03,0.346,0.032,0.263
			c0.029-0.202-0.021-0.386-0.057-0.562l0.045,0.055l-0.058-0.943c0.11-0.141-0.011-0.893,0.069-0.826
			c0.007-0.337-0.051,0.282-0.062-0.146c0.047-0.111-0.021-0.385,0.053-0.366l0.008,0.046l-0.002-0.298l0.068,0.188
			c-0.015-0.258-0.084-0.445-0.138-0.459c0.041-0.242,0.011-0.588,0.075-0.698l0.017,0.091c-0.021-0.684,0.203-1.13,0.087-1.667
			c0.01-0.04,0.026-0.035,0.024,0.048l0.008-0.421l0.054,0.102l-0.078-0.697l0.035,0.009c0.02-0.46,0.004-1.182-0.005-1.773
			l0.019,0.089c-0.053-0.646,0.039-0.625,0.002-1.099c0.009,0.018,0.013,0.032,0.015,0.051l0.002-0.427l0.035,0.095
			c-0.076-0.315,0.104-0.9,0.039-0.707c-0.033-0.18-0.072-0.485-0.117-0.54c0-0.464,0.047-0.112,0.08-0.4
			c0.006-0.336-0.056-0.396-0.021-0.852l0.037,0.011c-0.007-0.214-0.029-0.347-0.033-0.644l0.017,0.088
			c-0.071-0.483,0.11-0.604-0.045-0.983c0.03-0.203,0.01-0.588,0.084-0.568c-0.043-0.604-0.062-1.071-0.089-1.671
			c0.119-0.095-0.008-0.129,0.062-0.489l-0.064,0.024c-0.002-0.848,0.16-1.815,0.142-2.751l0.063-0.024l-0.069-0.188
			c0.036-1.006,0.069-2.306,0.075-3.105c-0.032-0.264-0.105-0.661-0.082-1.078l0.009,0.044c-0.03-0.728-0.054-1.493-0.013-2.285
			c0.025,0.05,0.045-0.028,0.062,0.061c-0.067-0.188,0-0.464,0.003-0.634l-0.05,0.197c-0.06-0.227,0.002-0.548,0.05-0.662
			l-0.066-0.355c0.008-0.022,0.019-0.062,0.027-0.063l-0.033-0.062l0.086-0.188c-0.019-0.088-0.035-0.56-0.115-0.707
			c0.027-0.034,0.054-0.366,0.064-0.108l0.032-1.301l-0.03,0.203c-0.062,0.025-0.103-0.365-0.07-0.567
			c0.05,0.268,0.091,0.021,0.14-0.09c-0.032-0.178-0.058,0.152-0.093,0.062c-0.04-0.224-0.061-0.692-0.03-0.812l0.022,0.133
			c-0.021-0.302,0.09-0.438,0.086-0.736c-0.051-0.269,0-0.464-0.11-0.41c-0.021-0.386,0.076-0.147,0.088-0.272
			c-0.051-0.183-0.017-0.722,0.041-0.79c-0.157-0.212,0.063-1.039-0.069-1.117l0.078-0.316c-0.035-0.011-0.115-0.073-0.129-0.331
			c0.041-0.242,0.104-0.184,0.141-0.257l-0.133-0.164c0.151-1.396,0.065-3.234,0.194-4.764c-0.022-0.685-0.082-1.542-0.058-2.341
			l0.017,0.09l0.043-0.792l-0.063,0.573c-0.016-0.173-0.041-0.309-0.037-0.477c0.062-0.867,0.136-2.026,0.074-3.099
			c-0.149-0.694,0.142-0.46,0.031-1.124c0.014,0.057,0.034,0.076,0.049,0.129c-0.047-0.717-0.07-1.104-0.156-1.819
			c0.152,0.083,0-0.467,0.08-0.401l-0.062-0.061c0.039-0.158,0.056-0.532,0.101-0.479l-0.076-0.314l0.064-0.026
			c0.008-0.418-0.041-1.316,0.09-1.537c-0.09-1.038-0.052-2.675-0.019-3.977c-0.052-0.185-0.054-0.562-0.058-0.859l0.076-0.314
			c-0.021-0.304-0.113-0.624-0.063-0.904c0.01,0.003,0.017,0.014,0.021,0.033c-0.015-0.309,0.028-0.601-0.039-0.888
			c0.006-0.336,0.049-0.661,0.119-0.56c-0.127-0.034,0.021-0.713,0.021-0.713s0.375-17.278-0.295-21.489
			c-0.062-0.142-0.102-0.533-0.176-0.382c-0.021-0.303,0.088-0.442,0.024-0.5c-0.043,0.411-0.159-0.126-0.239,0.275l-0.015-0.26
			c-0.043-0.053,0.049,0.353-0.03,0.288l0.116,0.072c-0.021,0.209-0.043,0.323-0.084,0.397c0.045,0.194,0.202,0.318,0.131,0.79
			l-0.006-0.131c0.004,0.384-0.076,0.234-0.097,0.314l0.002-0.084l-0.061,0.321c0.039-0.244-0.054-0.646-0.048-0.438
			c-0.034,0.456,0.028-0.118,0.041,0.226c0.007,0.212-0.058,0.151-0.092,0.145l0.002,0.381c-0.054-0.013,0.004-0.252-0.054-0.097
			l0.058,0.479c-0.14,0.092,0.063,0.522-0.065,0.742c-0.031-0.345-0.047,0.031-0.09-0.021l0.004,0.847
			c-0.021,0.079-0.041-0.223-0.035-0.095c-0.039,0.16,0.031,0.263,0.031,0.348c-0.039,0.073,0,0.631-0.093,0.608
			c-0.062,0.572,0.114,0.239,0.062,0.773c-0.057,0.071-0.014-0.424-0.069-0.188l0.019,0.556c-0.025-0.051-0.088-0.106-0.076-0.313
			c-0.078,1.497-0.373,2.31-0.305,3.678c-0.064,0.191-0.043-0.141-0.087-0.275c0.085,0.992-0.147,1.396-0.146,2.241l0.056,0.015
			c-0.175,1.18-0.078,2.597-0.153,3.928l0.039-0.159c0.053,0.185,0.057,0.479,0.079,0.696c-0.026,0.034-0.114-0.156-0.094,0.229
			c0.021-0.08,0.04-0.243,0.065-0.194c-0.146,1.145-0.119,3.558-0.195,5.436c0.031,2.541-0.096,5.299-0.075,7.795
			c-0.002-0.38,0.131-0.218,0.099,0.067c-0.23,0.783,0.028,1.361-0.129,2.161c0.062,1.455-0.143,2.752,0.023,4.105l-0.062,0.025
			c-0.029,0.201,0.014,0.258,0.02,0.47l-0.02-0.005c-0.025,0.501,0.034,1.106,0.002,1.396l0.071,0.021
			c0.005,0.298-0.058,0.152-0.017,0.46l-0.037-0.011l0.066,0.356c-0.127-0.035-0.017,0.84-0.074,1.078
			c0.021,0.386,0.07,1.117,0.043,1.702c-0.065,0.106-0.069,0.824-0.104,1.28c0.013,0.892,0.024,2.161-0.006,3.295l0.084-0.021
			l0.002,0.296c-0.019-0.004-0.026,0.035-0.034-0.01c-0.097,0.229,0.021,0.684-0.035,0.92c0.073-0.148,0.014-0.207,0.016-0.375
			c0.041-0.242,0.119-0.01,0.076,0.317l-0.021-0.008l0.043,0.226c-0.063,0.022-0.097,0.229-0.159,0.253
			c0.01,0.975,0.114,1.638,0.08,2.642c-0.07-0.104,0.014,0.724-0.109,0.521c0.043,0.604,0.103-0.101,0.188,0.177
			c-0.004,0.168,0.028,0.347-0.017,0.375c-0.028-0.079-0.075,0.138-0.086,0l0.006,0.403c-0.01,0.038-0.023-0.052-0.032-0.097
			c0.065,0.821-0.091,1.455-0.021,2.191c0.043,0.056,0.014-0.292,0.06-0.237c0.086,0.741-0.084,0.653-0.024,1.348l-0.062-0.145
			c0.044,0.225,0.095,0.32,0.044,0.688c-0.074,0.062-0.06-0.312-0.093-0.489c-0.004,0.252,0.013,0.891,0.078,0.696
			c0.021,0.303-0.043,0.412-0.063,0.573c0.021,0.007,0.052-0.28,0.084-0.104c-0.045,0.411-0.047,1.046-0.058,1.548
			c-0.018-0.005-0.045,0.03-0.055-0.014C207.259,216.896,207.095,216.853,207.113,217.406z"/>
		<path fill="#514580" d="M207.338,244.212l0.015-0.203c-0.019,0-0.034-0.009-0.053-0.104L207.338,244.212z"/>
		<path fill="#514580" d="M207.429,234.588c-0.007-0.022-0.013-0.045-0.021-0.073C207.414,234.565,207.422,234.581,207.429,234.588z
			"/>
		<path fill="#514580" d="M207.316,232.25c0.016,0.167,0.034,0.019,0.055-0.062C207.355,232.183,207.338,232.187,207.316,232.25z"/>
		<path fill="#514580" d="M207.516,249.665c-0.008-0.036-0.019-0.059-0.032-0.053C207.498,249.662,207.509,249.672,207.516,249.665z
			"/>
		<path fill="#514580" d="M207.422,264.737c0.005-0.021,0.007-0.033,0.013-0.062C207.427,264.688,207.427,264.709,207.422,264.737z"
			/>
		<path fill="#514580" d="M207.539,263.901c0-0.041,0-0.094-0.01-0.17C207.525,263.806,207.531,263.858,207.539,263.901z"/>
		<path fill="#514580" d="M207.5,246.012c-0.002-0.056-0.008-0.11-0.021-0.157C207.477,245.94,207.488,245.983,207.5,246.012z"/>
		<polygon fill="#514580" points="207.513,263.558 207.523,263.347 207.509,263.344 		"/>
		<path fill="#514580" d="M207.414,265.002c0.002-0.082,0.006-0.188,0.01-0.267C207.402,264.842,207.402,264.925,207.414,265.002z"
			/>
		<path fill="#514580" d="M207.594,255.197l-0.002-0.021C207.561,255.011,207.574,255.113,207.594,255.197z"/>
		<polygon fill="#514580" points="207.391,262.64 207.393,262.611 207.375,262.55 		"/>
		<path fill="#514580" d="M207.384,265.911c-0.003-0.04-0.005-0.076-0.015-0.105c-0.002,0.033-0.004,0.071-0.008,0.12
			C207.371,265.914,207.377,265.911,207.384,265.911z"/>
		<path fill="#514580" d="M207.473,258.353c0.024,0.061,0.045,0.082,0.06,0.083C207.531,258.367,207.518,258.322,207.473,258.353z"
			/>
	</g>
	<g>
		<path fill="#514580" d="M281.232,307.912c0.008,0.015,0.018,0.022,0.032,0.027C281.252,307.916,281.24,307.909,281.232,307.912z"
			/>
		<path fill="#514580" d="M281.478,295.528l0.016,0.146C281.492,295.577,281.486,295.541,281.478,295.528z"/>
		<path fill="#514580" d="M281.125,315.336c-0.002-0.011-0.006-0.011-0.008-0.02c-0.002,0.114-0.002,0.271-0.004,0.521
			L281.125,315.336z"/>
		<path fill="#514580" d="M281.822,269.108v0.166C281.824,269.198,281.828,269.15,281.822,269.108z"/>
		<path fill="#514580" d="M281.59,284.765c-0.014-0.048-0.018-0.13-0.021-0.209C281.564,284.656,281.568,284.737,281.59,284.765z"/>
		<path fill="#514580" d="M280.428,319.263l0.047-0.211C280.455,319.056,280.432,319.13,280.428,319.263z"/>
		<path fill="#514580" d="M280.639,326.788c0.003-0.006,0.007-0.009,0.011-0.021C280.646,326.758,280.642,326.77,280.639,326.788z"
			/>
		<path fill="#514580" d="M280.824,323.849c-0.006-0.062-0.014-0.137-0.021-0.212C280.803,323.727,280.803,323.84,280.824,323.849z"
			/>
		<path fill="#514580" d="M280.789,323.535l0.013,0.102C280.802,323.579,280.797,323.534,280.789,323.535z"/>
		<path fill="#514580" d="M282.066,173.124c0.002-0.219-0.033-0.401-0.062-0.599L282.066,173.124z"/>
		<path fill="#514580" d="M281.98,245.183l0.02,0.048C281.994,245.187,281.986,245.178,281.98,245.183z"/>
		<path fill="#514580" d="M281.652,172.856l0.01-0.151C281.654,172.76,281.652,172.81,281.652,172.856z"/>
		<path fill="#514580" d="M280.291,315.278c-0.047-0.217,0.008-0.663-0.039-0.658C280.26,314.849,280.226,315.176,280.291,315.278z"
			/>
		<path fill="#514580" d="M280.246,240.117v-0.146C280.246,240.041,280.246,240.084,280.246,240.117z"/>
		<path fill="#514580" d="M281.652,172.856l-0.013,0.18l0.022-0.056C281.656,172.941,281.652,172.9,281.652,172.856z"/>
		<path fill="#514580" d="M282.135,220.27v0.008c0.005,0.02,0.007,0.031,0.011,0.052L282.135,220.27z"/>
		<path fill="#514580" d="M282.219,218.95c0.004,0.093,0.01,0.182,0.014,0.28C282.238,219.082,282.23,219.004,282.219,218.95z"/>
		<path fill="#514580" d="M282.004,172.528l-0.033-0.34C281.971,172.311,281.986,172.42,282.004,172.528z"/>
		<path fill="#514580" d="M282.228,204.704l0.004,0.13C282.234,204.778,282.232,204.735,282.228,204.704z"/>
		<path fill="#514580" d="M281.56,285.77c-0.005,0.034-0.009,0.076-0.014,0.114C281.56,285.897,281.568,285.89,281.56,285.77z"/>
		<polygon fill="#514580" points="280.359,275.923 280.359,275.919 280.357,275.919 		"/>
		<path fill="#514580" d="M280.414,276.448c0.011-0.162-0.021-0.397-0.055-0.522C280.357,276.088,280.367,276.244,280.414,276.448z"
			/>
		<path fill="#514580" d="M280.389,274.794c-0.002,0.021-0.005,0.038-0.007,0.062C280.385,274.832,280.387,274.814,280.389,274.794z
			"/>
		<polygon fill="#514580" points="280.25,285.37 280.254,285.37 280.25,285.364 		"/>
		<path fill="#514580" d="M280.248,283.275c0.008-0.037,0.02-0.088,0.021-0.145C280.26,283.166,280.252,283.214,280.248,283.275z"/>
		<polygon fill="#514580" points="280.285,269.58 280.287,269.582 280.287,269.572 		"/>
		<path fill="#514580" d="M280.047,249.84c0.02,1.98,0.1,4.55,0.062,6.514c0.094,0.428,0.094,1.051,0.111,1.677l-0.128,0.064
			l0.038,0.522c-0.04,0.212-0.021-0.401-0.07-0.026l0.078,0.198c-0.049,0.041-0.037,1.341-0.125,0.465L280,261.281
			c-0.006,0.448,0.105,0.265,0.072,0.76c-0.039,0.102-0.025-0.181-0.072-0.14c-0.102,1.489,0.238,1.724,0.172,3.109l-0.016-0.117
			c0.033,0.236,0.027,0.688,0.045,0.691c0.129-0.18-0.067-0.25,0.01-0.673c0.107,0.038,0.059,0.526,0.141,0.501
			c-0.041,0.322,0.02,0.516,0.021,0.799c-0.068,0.48-0.023,1.176-0.111,1.54c0.031,0.235,0.139,0.501,0.141,1.011
			c-0.088,0.363-0.082-0.087-0.115,0.409l0.062,0.08c-0.016,0.407-0.029,0.343-0.062,0.328c-0.004,0.435,0.084,0.36,0.041,0.906
			l-0.059-0.304c0.021,0.402,0.01,0.567,0,1.129c-0.035-0.014-0.031-0.236-0.021-0.401c-0.094,0.305,0.039,0.521,0.027,0.688
			c0.026-0.048,0.041-0.437,0.102-0.245c-0.012,0.277,0.082,0.594,0.01,0.792l-0.061-0.306c0.045,0.582,0.076,0.312,0.049,0.979
			c-0.004-0.034-0.02-0.02-0.031-0.031c0.076,0.423,0.002,0.975-0.01,1.599l-0.016-0.118c0.02,0.252,0.076,0.393,0.07,0.525
			c0.038-0.354,0.057-0.258,0.115-0.291c-0.104,0.471,0.115,0.719,0.053,1.485c-0.037-0.013-0.08-0.196-0.039-0.407
			c-0.105-0.265-0.195-0.296-0.244-0.766c0.021,0.291,0.037,0.634-0.008,0.562l0.1,0.092c-0.002,0.177-0.004,0.315-0.006,0.449
			c0.061,0.076,0.104-0.355,0.143,0.053c0.029,0.462-0.104,0.244-0.059,0.316c0.035,0.634,0.104,0.263,0.067,0.874
			c-0.009-0.062-0.022-0.182-0.017-0.233c-0.041,0.438,0.013,1.075-0.105,1.203c-0.025-0.064-0.062-0.076-0.053-0.242l0.02,0.007
			c-0.082-0.479,0.021,0.401-0.084,0.25c0.062-0.033,0.045,0.583,0.033,0.858l0.07-0.088c0.214,0.924-0.145-0.052-0.12,0.86
			c0.047,0.58,0.021-0.219,0.069,0.139c-0.014,0.392-0.08,0.537-0.051,1.108c-0.029,0.159-0.068,0.484-0.15,0.514
			c0.031,0.348-0.041,1.057,0.039,1.255c0.07-0.597-0.084-0.596,0.025-1.289l0.078,0.193c-0.004,0.481,0.033,1.101,0.004,1.433
			c0.016-0.066,0.035-0.099,0.053-0.057c0.027,0.688,0.107,0.886,0.08,1.553c-0.072,0.088-0.059-0.305-0.063-0.587
			c-0.062,0.43-0.007,0.448-0.03,1.116c-0.064,0.035,0.004-0.448-0.061-0.525l0.021,0.74c-0.004-0.005-0.009,0-0.015,0
			c0.104,0.105-0.013,0.562,0.021,1.016c-0.004,1.071,0.139,1.235,0.223,1.828c-0.025,0.159-0.057,0.207-0.082,0.14
			c0.048-0.264,0.012-0.217-0.018-0.309c0.01,0.359-0.107,0.791-0.15,0.589c0.029,0.574,0.061-0.207,0.091,0.145l-0.011,0.787
			c0.057-0.094,0.068-0.37,0.107,0.038c0.014,0.343,0.002,0.509-0.002,0.958c-0.027-0.063-0.082,0.144-0.078-0.195
			c-0.021,0.219-0.025,0.558,0.026,0.688c0.052-0.49,0.043,0.807,0.131,0.438l-0.054,0.489c0.002-0.11-0.034-0.124-0.021-0.289
			c-0.084,0.141,0.021,0.4,0.026,0.573c-0.017,0.173-0.022,0.621-0.058,0.658c0.021,0.155,0.002,0.535-0.039,0.604
			c0.017,0.23,0.053,0.021,0.08,0.086l-0.01,0.785c-0.045,0.042-0.172,0.107-0.189-0.01c0.041,0.297,0.136,0.105,0.129,0.555
			c-0.088-0.257-0.068,0.596-0.176,0.223c-0.062,0.257-0.062,0.989-0.043,1.396c0.07,0.25,0.041-0.438,0.113-0.411
			c0.021,1.136,0.221,1.204,0.184,2.037l0.021-0.217c0.041,0.521,0.031,0.461,0.092,0.765c-0.09-0.145-0.244,0.592-0.229,1.444
			c0.047,0.072,0.088-0.479,0.156-0.339l0.016,0.565c-0.01,0.041-0.023-0.021-0.033-0.094c0.029,0.508-0.121,0.945-0.018,1.093
			l-0.133,0.519l0.059-0.204c0.045,0.07,0.055,0.641,0.07,0.759c0.049,0.582,0.01,0.793-0.051,1.111
			c0.039-0.103,0.123-0.354,0.135,0.104c-0.145-0.004-0.057,0.96-0.131,0.946c0,0.187-0.045,0.514,0.018,0.535l-0.094-0.031
			c0.128,0.043,0.119,0.717,0.143,1.232c-0.172-0.116,0.01,0.565-0.146,0.797c0.115,0.096,0.043,0.916,0.145,1.006
			c0.004,0.397-0.105,0.358-0.145,0.46l0.043,0.186c-0.055,0.201-0.062,0.947-0.104,1.393l0.1,0.411l-0.047,0.152
			c0.027,0.064,0.041,0.409,0.08,0.195l-0.008,0.224c0.113,0.02,0.031,0.312,0.076,0.761c-0.02,0.104-0.045,0.076-0.062-0.021
			c-0.002,0.224-0.059,0.128-0.096,0.25c0.028-0.158,0.198,0.8,0.25,0.198c0.047-0.042,0.078,0.31,0.057,0.527l-0.1,0.135
			l0.104,0.261c0.018,0.344-0.051,0.49-0.062,0.77c-0.004-0.282-0.191-0.631-0.191,0.104c-0.012-0.386-0.067-0.575-0.088-0.773
			c-0.004,0.151-0.016,0.229-0.057-0.009c0.027,0.573,0.061,0.19,0.071,0.759c-0.093-0.029-0.12,0.129-0.151,0.625l0.066-0.371
			c0.012,0.018,0.02,0.042,0.023,0.07c0.01-0.142,0.022-0.182,0.059-0.211c-0.002,0.111,0.111,0.656,0.059,0.751
			c0.139-0.571,0.109,0.993,0.194,0.629c0.024,0.064,0.032,0.461-0.013,0.502c-0.066-0.474-0.102,0.356-0.166,0.281
			c0.025,0.176,0.066-0.374,0.104-0.136c0.006,0.283-0.05,0.489-0.078,0.646l-0.02-0.117l-0.039,0.438
			c0.046,0.07,0.074-0.424,0.102-0.021c-0.021,0.105,0.006,0.509-0.029,0.496c-0.062-0.19-0.145-0.053-0.162-0.395
			c0.009,0.283,0.021,1.188,0.104,0.822l-0.002,0.339c0.038-0.213,0.104-0.812,0.118-0.129l-0.019-0.007l0.068,0.475l-0.045,0.206
			c0.021-0.006,0.043,0.067,0.043,0.244c-0.027,0.046-0.039,0.211-0.074,0.197c0.004,0.51,0.051,0.468,0.078,0.533
			c0.006,0.284-0.013,0.393-0.066,0.259c-0.01,0.391,0.002,1.069-0.045,1.336c0.043,0.521,0.021-0.105,0.082,0.197
			c-0.158,0.451-0.057,1.724-0.035,2.574c0.138-0.229,0.017,0.231,0.144,0.39c-0.045-0.185-0.104,0.809-0.146,0.062l0.017,0.454
			c-0.075,0.311-0.06-0.752-0.161-0.282c0.006,0.509,0.156,0.844,0.105,1.443c-0.098-0.202,0.035,0.462-0.074,0.312
			c-0.033-0.125-0.021-0.291-0.029-0.461l-0.021,0.104c-0.023,1.115,0.115,0.321,0.188,0.908c0.014,0.682-0.076,0.535-0.123,0.575
			c-0.021,0.104-0.002,0.448,0.021,0.627c-0.061-0.416,0.062-0.768,0.121-0.575c-0.107,0.299-0.006,1.011,0.039,1.195
			c0.115-0.972,0.004-0.673,0.127-1.586c-0.035-0.126-0.135-0.104-0.094-0.652c0.049,0.345,0.055-0.022,0.069-0.12
			c-0.058,0.104-0.024-0.381-0.05-0.548c0.048-0.151,0.134,0.328,0.154-0.227l-0.135-0.104c0.02-0.218,0.1,0.093,0.064-0.37
			c0.07,0.25,0.109-0.074,0.135,0.553c0.111-0.745-0.066-1.146-0.117-1.729c0.01,0.062,0.025,0.066,0.037,0.125
			c-0.037-0.125-0.035-0.349-0.043-0.521c0.027-0.383,0.062,0.304,0.1,0.204l-0.006-0.62c0.004-0.014,0.006-0.018,0.01-0.018
			c-0.02-0.163-0.031-0.316,0.002-0.375c0.043,0.186,0.088,0.258,0.125,0.383l-0.096-0.651c0.045,0.07,0.076-0.538,0.109-0.074
			l-0.021-0.964l0.09-0.082c-0.016-0.23-0.035-0.236-0.045,0.039c0.021-0.33-0.162-1.462,0.019-1.289
			c-0.075-0.757-0.048-1.029-0.097-1.945c0.086,0.704,0.105-0.81,0.146-0.062c0.039-0.438-0.062-0.528-0.076-0.873
			c0.037-0.323,0.127-0.181,0.162,0.169l-0.043-0.41l0.018,0.007l-0.051-0.354c0.047-0.378,0.09-0.081,0.104-0.472l-0.082-0.084
			l0.047-0.266c-0.036,0.101-0.056-0.131-0.062-0.415l0.021,0.006l-0.02-0.344c0.051,0.34,0.02-0.314,0.076-0.159
			c0.004-0.294,0-0.301-0.015-0.833l-0.058,0.095c-0.045-0.692,0.084-0.029,0.09-0.593l-0.062,0.036
			c0.108-0.81-0.058-1.372,0.014-1.969c0.018,0.342,0.088,0.255,0.07,0.248c-0.021-0.516-0.002-1.354-0.078-1.886
			c0.094-0.194,0.121-0.241,0.164-0.791c-0.004-0.396-0.012-0.455-0.064-0.586c0.035-0.386-0.016-1.106,0.055-1.127
			c-0.055-0.089,0.012-0.348-0.033-0.56l0.027-0.045l-0.065,0.039c0.146-0.685-0.076-1.153,0.051-1.845l0.02,0.119l-0.025-0.291
			c0.029-0.046,0.045,0.07,0.082,0.085l0.017-1.351l-0.05,0.268c-0.006-0.284-0.062-0.477-0.023-0.8
			c0.094,0.538,0.006-0.448,0.08-0.535l0.021,0.289c-0.004-0.396-0.004-0.396-0.067-0.363c-0.021-0.514,0.123-0.354,0.058-0.825
			l-0.004,0.337c-0.037,0.103-0.09-0.143-0.086-0.366c0.01-0.055,0.039-0.214,0.045-0.042c-0.023-0.402,0.012-1.011-0.013-1.188
			c0.021-0.219,0.063-0.146,0.082-0.028c-0.056-0.864,0.015-0.392-0.038-1.257l0.033,0.015l-0.04-0.296l0.075-0.425l-0.047,0.152
			c-0.004-0.284-0.028-0.461-0.008-0.792l0.053,0.133c-0.023-0.801,0.095-0.927,0.021-1.688c0.01-0.053,0.023,0.065,0.035,0.128
			c-0.082-0.705,0.096-0.532-0.004-1.242c0.018,0.044,0.041-0.034,0.055-0.007l-0.033-0.322l0.072,0.023l-0.105-0.264l0.074-0.199
			l-0.035-0.125c0.142-0.345,0.037-0.832,0.146-1.304l-0.096,0.081c-0.184-1.19,0.115-2.724,0.033-4.161l0.072,0.026l-0.084-0.596
			c0.059-0.316,0.061,0.19,0.1,0.093c-0.039-0.636-0.104-0.267-0.125-1.003c0.052-0.379,0.056,0.133,0.078,0.311
			c-0.033-0.69-0.067-1.713-0.026-2.204c-0.011-0.011-0.021-0.042-0.026-0.016c-0.031-0.463,0.004-1.07,0.002-1.579
			c0.033,0.013,0.037,0.139,0.043,0.266c0.006-0.184,0.029-0.433-0.004-0.59l0.061,0.19c0.018-0.391-0.041-1.144,0.033-1.229
			c-0.027,0.048-0.082,0.027-0.078-0.31c0.111-0.188-0.043-0.918,0.021-1.458c0.023,0.062,0.027,0.461,0.029,0.35
			c0.029-0.271-0.021-0.515-0.055-0.753l0.043,0.073l-0.053-1.264c0.11-0.187-0.01-1.188,0.069-1.104
			c0.007-0.45-0.054,0.377-0.062-0.191c0.047-0.149-0.021-0.516,0.053-0.49l0.01,0.062l-0.002-0.396l0.066,0.251
			c-0.014-0.344-0.084-0.595-0.137-0.611c0.041-0.324,0.012-0.786,0.076-0.936l0.018,0.121c-0.021-0.913,0.203-1.51,0.086-2.229
			c0.012-0.054,0.029-0.047,0.027,0.063l0.008-0.562l0.053,0.135l-0.076-0.933l0.035,0.013c0.02-0.615,0.006-1.579-0.002-2.371
			l0.02,0.117c-0.053-0.863,0.039-0.834,0.002-1.467c0.01,0.021,0.014,0.043,0.016,0.065v-0.567l0.035,0.126
			c-0.076-0.422,0.109-1.204,0.041-0.944c-0.033-0.238-0.072-0.647-0.115-0.72c0-0.621,0.047-0.151,0.08-0.536
			c0.006-0.448-0.057-0.527-0.02-1.136l0.033,0.013c-0.012-0.281-0.018-0.467-0.031-0.857l0.018,0.118
			c-0.072-0.646,0.111-0.807-0.045-1.312c0.031-0.271,0.012-0.786,0.084-0.763c-0.031-0.813-0.055-1.437-0.086-2.229
			c0.121-0.128-0.006-0.172,0.064-0.655l-0.062,0.035c-0.002-1.131,0.162-2.428,0.145-3.675l0.062-0.035l-0.068-0.25
			c0.025-1.346,0.061-3.081,0.078-4.148c-0.028-0.352-0.104-0.883-0.078-1.438l0.011,0.06c-0.032-0.971-0.056-1.993-0.013-3.052
			c0.027,0.065,0.047-0.039,0.062,0.079c-0.07-0.251,0-0.62,0.002-0.847l-0.049,0.265c-0.061-0.301,0.002-0.73,0.049-0.885
			l-0.066-0.479c0.008-0.029,0.02-0.08,0.027-0.086l-0.033-0.084l0.086-0.252c-0.018-0.118-0.035-0.747-0.112-0.942
			c0.026-0.046,0.052-0.489,0.063-0.146l0.035-1.735l-0.031,0.271c-0.062,0.034-0.102-0.488-0.07-0.758
			c0.051,0.354,0.091,0.028,0.139-0.122c-0.033-0.235-0.061,0.205-0.093,0.081c-0.041-0.297-0.062-0.925-0.028-1.083l0.021,0.178
			c-0.021-0.402,0.091-0.589,0.089-0.984c-0.052-0.355,0-0.619-0.11-0.547c-0.021-0.517,0.076-0.197,0.088-0.363
			c-0.051-0.243-0.014-0.965,0.043-1.057c-0.16-0.283,0.063-1.389-0.07-1.494l0.08-0.423c-0.037-0.015-0.117-0.099-0.129-0.44
			c0.041-0.323,0.104-0.246,0.143-0.346l-0.135-0.218c0.154-1.863,0.072-4.322,0.201-6.364c-0.021-0.909-0.078-2.061-0.053-3.124
			l0.016,0.118l0.043-1.058l-0.062,0.769c-0.018-0.229-0.041-0.411-0.037-0.636c0.062-1.159,0.139-2.708,0.08-4.14
			c-0.15-0.929,0.139-0.614,0.031-1.501c0.014,0.074,0.033,0.104,0.051,0.172c-0.045-0.956-0.07-1.476-0.156-2.433
			c0.154,0.11,0-0.622,0.08-0.534l-0.062-0.08c0.039-0.212,0.059-0.714,0.104-0.643l-0.076-0.422l0.063-0.036
			c0.009-0.56-0.039-1.762,0.093-2.054c-0.088-1.387-0.047-3.572-0.016-5.312c-0.051-0.244-0.053-0.754-0.055-1.148l0.078-0.423
			c-0.02-0.402-0.115-0.833-0.062-1.208c0.009,0.002,0.015,0.019,0.021,0.044c-0.015-0.41,0.029-0.799-0.039-1.185
			c0.006-0.447,0.049-0.885,0.119-0.746c-0.127-0.046,0.021-0.951,0.021-0.951s0.398-23.07-0.266-28.697
			c-0.061-0.188-0.1-0.713-0.174-0.512c-0.023-0.403,0.088-0.592,0.025-0.668c-0.043,0.549-0.16-0.171-0.24,0.366l-0.016-0.345
			c-0.045-0.07,0.051,0.469-0.029,0.385l0.113,0.098c-0.02,0.278-0.043,0.434-0.084,0.529c0.045,0.264,0.203,0.431,0.131,1.058
			l-0.006-0.173c0.002,0.511-0.075,0.312-0.096,0.419v-0.112l-0.062,0.43c0.04-0.326-0.054-0.862-0.046-0.582
			c-0.034,0.608,0.027-0.156,0.041,0.299c0.007,0.282-0.057,0.203-0.094,0.19l0.002,0.509c-0.053-0.017,0.004-0.337-0.051-0.13
			l0.055,0.643c-0.139,0.118,0.062,0.695-0.064,0.989c-0.031-0.461-0.048,0.042-0.091-0.03l0.002,1.13
			c-0.021,0.105-0.041-0.297-0.034-0.125c-0.039,0.213,0.032,0.35,0.03,0.464c-0.037,0.099-0.003,0.844-0.095,0.812
			c-0.062,0.769,0.115,0.322,0.062,1.037c-0.057,0.094-0.011-0.565-0.068-0.25l0.02,0.741c-0.025-0.067-0.09-0.145-0.076-0.421
			c-0.08,2.002-0.375,3.083-0.311,4.912c-0.064,0.259-0.043-0.188-0.086-0.368c0.082,1.325-0.148,1.863-0.146,2.993l0.055,0.021
			c-0.174,1.573-0.082,3.469-0.16,5.245l0.039-0.212c0.051,0.245,0.058,0.64,0.078,0.932c-0.027,0.047-0.115-0.211-0.094,0.306
			c0.02-0.105,0.041-0.323,0.064-0.259c-0.146,1.525-0.125,4.751-0.199,7.261c0.023,3.395-0.104,7.078-0.088,10.413
			c-0.002-0.51,0.133-0.292,0.1,0.091c-0.232,1.046,0.028,1.818-0.133,2.887c0.062,1.943-0.146,3.677,0.021,5.485l-0.062,0.035
			c-0.031,0.271,0.014,0.343,0.018,0.626l-0.018-0.007c-0.027,0.669,0.031,1.479,0,1.862l0.07,0.024
			c0.004,0.396-0.057,0.206-0.018,0.614l-0.037-0.014l0.065,0.478c-0.125-0.047-0.017,1.122-0.073,1.438
			c0.02,0.517,0.066,1.492,0.039,2.271c-0.066,0.146-0.07,1.104-0.105,1.712c0.011,1.188,0.021,2.888-0.01,4.398l0.082-0.025
			l0.002,0.396c-0.019-0.005-0.027,0.047-0.035-0.013c-0.096,0.306,0.023,0.912-0.037,1.229c0.076-0.198,0.016-0.275,0.02-0.502
			c0.041-0.322,0.119-0.014,0.076,0.425l-0.021-0.011l0.043,0.301c-0.062,0.031-0.096,0.304-0.16,0.338
			c0.008,1.301,0.113,2.188,0.076,3.526c-0.07-0.139,0.014,0.965-0.109,0.693c0.044,0.807,0.104-0.132,0.188,0.236
			c-0.002,0.226,0.031,0.461-0.016,0.502c-0.029-0.105-0.078,0.184-0.09,0l0.01,0.539c-0.014,0.051-0.027-0.066-0.035-0.127
			c0.062,1.097-0.092,1.942-0.025,2.927c0.045,0.074,0.017-0.392,0.062-0.317c0.087,0.99-0.084,0.874-0.024,1.798l-0.062-0.189
			c0.041,0.298,0.093,0.43,0.041,0.918c-0.073,0.085-0.06-0.417-0.093-0.652c-0.004,0.337,0.011,1.188,0.078,0.931
			c0.021,0.403-0.045,0.551-0.062,0.769c0.018,0.007,0.051-0.376,0.081-0.14c-0.043,0.549-0.047,1.396-0.06,2.066
			c-0.018-0.006-0.045,0.041-0.053-0.019C280.193,249.156,280.031,249.099,280.047,249.84z"/>
		<path fill="#514580" d="M280.236,285.642l0.012-0.271c-0.016,0-0.035-0.015-0.051-0.14L280.236,285.642z"/>
		<path fill="#514580" d="M280.343,272.788c-0.007-0.032-0.013-0.062-0.021-0.099C280.324,272.756,280.334,272.778,280.343,272.788z
			"/>
		<path fill="#514580" d="M280.23,269.665c0.014,0.223,0.034,0.022,0.055-0.084C280.271,269.575,280.252,269.58,280.23,269.665z"/>
		<path fill="#514580" d="M280.408,292.924c-0.008-0.047-0.016-0.075-0.031-0.067C280.389,292.919,280.4,292.933,280.408,292.924z"
			/>
		<path fill="#514580" d="M280.295,313.052c0.005-0.025,0.01-0.047,0.014-0.08C280.302,312.986,280.297,313.015,280.295,313.052z"/>
		<path fill="#514580" d="M280.412,311.936c0-0.056-0.002-0.125-0.01-0.229C280.398,311.808,280.404,311.879,280.412,311.936z"/>
		<path fill="#514580" d="M280.396,288.045c-0.002-0.075-0.007-0.147-0.021-0.211C280.375,287.948,280.385,288.007,280.396,288.045z
			"/>
		<polygon fill="#514580" points="280.387,311.478 280.396,311.196 280.381,311.191 		"/>
		<path fill="#514580" d="M280.285,313.405c0.004-0.107,0.008-0.255,0.01-0.354C280.275,313.192,280.275,313.302,280.285,313.405z"
			/>
		<path fill="#514580" d="M280.48,300.312l-0.002-0.03C280.447,300.063,280.459,300.2,280.48,300.312z"/>
		<polygon fill="#514580" points="280.267,310.25 280.269,310.212 280.25,310.13 		"/>
		<path fill="#514580" d="M280.254,314.618c-0.002-0.054-0.004-0.103-0.014-0.141c-0.002,0.044-0.004,0.095-0.008,0.158
			C280.24,314.622,280.248,314.618,280.254,314.618z"/>
		<path fill="#514580" d="M280.355,304.526c0.023,0.079,0.045,0.108,0.059,0.11C280.412,304.544,280.4,304.485,280.355,304.526z"/>
	</g>
	<path fill="#7672B4" d="M240.218,202.968c-3.11-6.927-6.276-10.379-9.44-10.262c-5.224,0.193-8.882,10.126-8.916,10.227
		l-0.941-0.341c0.158-0.438,3.935-10.665,9.82-10.886c3.588-0.151,7.096,3.518,10.391,10.852L240.218,202.968z"/>
	<path fill="#7672B4" d="M260.881,202.968c-3.11-6.927-6.273-10.379-9.439-10.262c-5.224,0.193-8.882,10.126-8.916,10.227
		l-0.941-0.341c0.158-0.438,3.935-10.665,9.82-10.886c3.592-0.151,7.096,3.518,10.393,10.852L260.881,202.968z"/>
	<path fill="#7672B4" d="M273.55,204.494c-2.438-6.604-4.521-7.909-5.826-7.896c-2.666,0.085-4.92,5.706-5.562,7.863l-0.959-0.285
		c0.104-0.345,2.562-8.451,6.488-8.578c2.398-0.08,4.645,2.718,6.797,8.548L273.55,204.494z"/>
	<path fill="#7672B4" d="M221.203,203.326c-2.438-6.604-4.506-7.946-5.828-7.896c-2.664,0.085-4.918,5.705-5.561,7.863l-0.96-0.285
		c0.104-0.345,2.562-8.452,6.488-8.578c2.413-0.102,4.646,2.718,6.797,8.548L221.203,203.326z"/>
	
		<rect x="187.611" y="238.707" transform="matrix(-0.01 -0.9999 0.9999 -0.01 -14.893 463.6688)" fill="#7672B4" width="68.94" height="1"/>
	
		<rect x="207.583" y="236.76" transform="matrix(-0.01 -0.9999 0.9999 -0.01 7.2264 481.6755)" fill="#7672B4" width="68.944" height="1"/>
	
		<rect x="227.587" y="237.891" transform="matrix(-0.01 -0.9999 0.9999 -0.01 26.2969 502.8179)" fill="#7672B4" width="68.936" height="1"/>
	
		<rect x="239.607" y="238.316" transform="matrix(-0.01 -0.9999 0.9999 -0.01 38.016 515.269)" fill="#7672B4" width="68.943" height="1"/>
	<path fill="#7672B4" d="M231.291,150.219l-0.52-0.854c0.092-0.056,9.331-5.567,16.411,0.035l-0.621,0.784
		C240.031,145.014,231.377,150.164,231.291,150.219z"/>
	<polyline fill="#5E5197" points="237.689,330 400.232,330 400.232,263.525 	"/>
	<g>
		<rect x="303.527" y="294.109" fill="#263239" width="2.803" height="10.645"/>
		<rect x="307.137" y="294.109" fill="#263239" width="2.797" height="10.645"/>
	</g>
	<g>
		<path fill="#514580" d="M362.521,308.315c0.008,0.008,0.018,0.015,0.03,0.018C362.541,308.316,362.529,308.312,362.521,308.315z"
			/>
		<path fill="#514580" d="M362.754,301.038l0.02,0.084C362.767,301.067,362.762,301.046,362.754,301.038z"/>
		<path fill="#514580" d="M362.42,312.676c-0.004-0.006-0.006-0.006-0.008-0.01c-0.002,0.065-0.004,0.158-0.006,0.308
			L362.42,312.676z"/>
		<path fill="#514580" d="M363.053,285.518v0.097C363.055,285.571,363.057,285.542,363.053,285.518z"/>
		<path fill="#514580" d="M362.853,294.716c-0.016-0.027-0.021-0.076-0.023-0.124C362.828,294.652,362.83,294.698,362.853,294.716z"
			/>
		<path fill="#514580" d="M361.715,314.983l0.049-0.125C361.742,314.861,361.721,314.905,361.715,314.983z"/>
		<path fill="#514580" d="M361.914,319.404c0.004-0.003,0.006-0.004,0.013-0.011C361.92,319.386,361.918,319.394,361.914,319.404z"
			/>
		<path fill="#514580" d="M362.103,317.677c-0.005-0.033-0.016-0.078-0.021-0.124C362.084,317.605,362.084,317.672,362.103,317.677z
			"/>
		<path fill="#514580" d="M362.07,317.493l0.012,0.06C362.08,317.52,362.078,317.492,362.07,317.493z"/>
		<path fill="#514580" d="M363.086,229.125c0.002-0.127-0.031-0.235-0.062-0.353L363.086,229.125z"/>
		<path fill="#514580" d="M363.152,271.461l0.02,0.026C363.166,271.463,363.16,271.459,363.152,271.461z"/>
		<path fill="#514580" d="M362.672,228.967l0.014-0.09C362.675,228.91,362.672,228.939,362.672,228.967z"/>
		<path fill="#514580" d="M361.586,312.643c-0.045-0.128,0.012-0.391-0.036-0.388C361.555,312.39,361.523,312.582,361.586,312.643z"
			/>
		<path fill="#514580" d="M361.406,268.482l-0.002-0.084C361.404,268.437,361.406,268.462,361.406,268.482z"/>
		<path fill="#514580" d="M362.672,228.967l-0.012,0.104c0.01-0.009,0.017-0.021,0.023-0.03
			C362.678,229.018,362.672,228.993,362.672,228.967z"/>
		<path fill="#514580" d="M363.246,256.825v0.005c0.004,0.011,0.006,0.019,0.008,0.027L363.246,256.825z"/>
		<path fill="#514580" d="M363.326,256.05c0.004,0.055,0.01,0.104,0.014,0.165C363.346,256.127,363.338,256.081,363.326,256.05z"/>
		<path fill="#514580" d="M363.023,228.774l-0.035-0.2C362.992,228.646,363.006,228.711,363.023,228.774z"/>
		<path fill="#514580" d="M363.302,247.681l0.007,0.076C363.305,247.724,363.305,247.698,363.302,247.681z"/>
		<path fill="#514580" d="M362.824,295.306l-0.012,0.068C362.824,295.381,362.832,295.376,362.824,295.306z"/>
		<polygon fill="#514580" points="361.605,289.52 361.605,289.518 361.605,289.518 		"/>
		<path fill="#514580" d="M361.662,289.827c0.01-0.098-0.021-0.234-0.057-0.31C361.605,289.617,361.615,289.707,361.662,289.827z"/>
		<path fill="#514580" d="M361.634,288.856c-0.003,0.014-0.005,0.021-0.007,0.036L361.634,288.856z"/>
		<polygon fill="#514580" points="361.514,295.07 361.519,295.07 361.514,295.066 		"/>
		<path fill="#514580" d="M361.51,293.839c0.011-0.021,0.017-0.052,0.021-0.084C361.521,293.775,361.514,293.803,361.51,293.839z"/>
		<polygon fill="#514580" points="361.517,285.792 361.519,285.794 361.517,285.787 		"/>
		<path fill="#514580" d="M361.23,274.194c0.021,1.165,0.105,2.675,0.075,3.827c0.095,0.251,0.097,0.618,0.114,0.984l-0.129,0.039
			l0.039,0.308c-0.039,0.125-0.021-0.235-0.071-0.017l0.079,0.116c-0.047,0.022-0.032,0.786-0.125,0.271l-0.006,1.191
			c-0.004,0.264,0.105,0.153,0.074,0.444c-0.039,0.061-0.025-0.104-0.072-0.081c-0.098,0.875,0.244,1.014,0.183,1.827l-0.019-0.067
			c0.033,0.139,0.027,0.401,0.045,0.405c0.129-0.104-0.066-0.146,0.009-0.396c0.108,0.021,0.06,0.312,0.142,0.296
			c-0.041,0.189,0.02,0.303,0.024,0.47c-0.067,0.283-0.022,0.69-0.108,0.903c0.032,0.14,0.139,0.296,0.143,0.595
			c-0.086,0.213-0.082-0.052-0.113,0.239l0.062,0.048c-0.01,0.238-0.027,0.2-0.058,0.191c-0.006,0.256,0.085,0.213,0.044,0.532
			l-0.062-0.18c0.021,0.236,0.011,0.333,0.004,0.664c-0.036-0.008-0.032-0.141-0.021-0.237c-0.097,0.181,0.039,0.309,0.026,0.404
			c0.026-0.028,0.04-0.257,0.104-0.145c-0.012,0.164,0.082,0.349,0.008,0.466l-0.059-0.179c0.047,0.342,0.077,0.183,0.051,0.573
			c-0.006-0.021-0.021-0.011-0.035-0.021c0.08,0.249,0.004,0.573-0.002,0.938l-0.019-0.068c0.021,0.146,0.075,0.229,0.071,0.311
			c0.037-0.209,0.056-0.15,0.115-0.17c-0.104,0.275,0.119,0.422,0.055,0.874c-0.036-0.008-0.079-0.117-0.041-0.24
			c-0.104-0.153-0.193-0.174-0.241-0.449c0.021,0.172,0.034,0.372-0.009,0.329l0.102,0.056c-0.002,0.104-0.004,0.187-0.004,0.264
			c0.061,0.045,0.104-0.209,0.143,0.031c0.031,0.271-0.102,0.145-0.059,0.187c0.039,0.373,0.104,0.155,0.068,0.515
			c-0.008-0.036-0.021-0.105-0.014-0.139c-0.043,0.258,0.014,0.633-0.104,0.707c-0.024-0.038-0.062-0.045-0.052-0.144l0.02,0.004
			c-0.084-0.282,0.021,0.236-0.084,0.146c0.062-0.02,0.047,0.344,0.034,0.507l0.071-0.054c0.216,0.543-0.145-0.028-0.118,0.506
			c0.05,0.343,0.021-0.128,0.069,0.081c-0.014,0.229-0.08,0.315-0.049,0.652c-0.029,0.093-0.068,0.284-0.15,0.3
			c0.033,0.205-0.039,0.621,0.041,0.736c0.07-0.349-0.084-0.349,0.023-0.757l0.08,0.114c-0.006,0.282,0.033,0.646,0.004,0.842
			c0.016-0.04,0.035-0.059,0.053-0.032c0.029,0.403,0.107,0.521,0.082,0.912c-0.072,0.052-0.059-0.178-0.063-0.345
			c-0.062,0.252-0.006,0.264-0.03,0.654c-0.064,0.021,0.006-0.265-0.06-0.311l0.021,0.436c-0.002-0.002-0.008,0-0.012,0
			c0.104,0.062-0.014,0.331,0.02,0.599c-0.002,0.629,0.143,0.726,0.227,1.072c-0.029,0.095-0.059,0.121-0.084,0.082
			c0.049-0.152,0.012-0.127-0.018-0.181c0.01,0.212-0.104,0.465-0.146,0.346c0.027,0.337,0.057-0.122,0.088,0.085l-0.011,0.462
			c0.058-0.055,0.067-0.217,0.108,0.021c0.015,0.202,0.002,0.3-0.002,0.562c-0.027-0.036-0.082,0.083-0.08-0.113
			c-0.021,0.127-0.021,0.324,0.029,0.401c0.051-0.289,0.045,0.475,0.131,0.26l-0.051,0.286c0.002-0.064-0.035-0.071-0.023-0.17
			c-0.084,0.082,0.023,0.236,0.029,0.336c-0.017,0.104-0.025,0.365-0.058,0.389c0.021,0.091,0.004,0.312-0.039,0.354
			c0.017,0.138,0.056,0.013,0.08,0.05l-0.009,0.463c-0.047,0.022-0.174,0.062-0.188-0.008c0.041,0.177,0.135,0.062,0.129,0.326
			c-0.088-0.149-0.07,0.351-0.175,0.13c-0.065,0.15-0.065,0.582-0.043,0.819c0.069,0.146,0.041-0.258,0.112-0.242
			c0.023,0.667,0.225,0.708,0.188,1.196l0.02-0.127c0.041,0.306,0.031,0.271,0.094,0.449c-0.092-0.084-0.242,0.348-0.227,0.849
			c0.045,0.043,0.086-0.28,0.158-0.198l0.012,0.333c-0.008,0.023-0.021-0.013-0.035-0.056c0.031,0.298-0.115,0.557-0.014,0.643
			l-0.131,0.305l0.057-0.12c0.043,0.042,0.059,0.376,0.072,0.444c0.049,0.344,0.01,0.468-0.049,0.653
			c0.039-0.061,0.123-0.208,0.135,0.062c-0.146-0.003-0.055,0.562-0.131,0.557c0.002,0.108-0.045,0.303,0.016,0.312l-0.09-0.018
			c0.125,0.023,0.119,0.421,0.141,0.724c-0.172-0.066,0.014,0.333-0.146,0.469c0.117,0.058,0.045,0.538,0.143,0.592
			c0.007,0.231-0.104,0.21-0.141,0.271l0.045,0.111c-0.055,0.117-0.062,0.557-0.102,0.815l0.102,0.241l-0.047,0.091
			c0.025,0.038,0.041,0.239,0.078,0.114l-0.006,0.131c0.109,0.012,0.027,0.186,0.078,0.446c-0.021,0.062-0.049,0.045-0.062-0.013
			c-0.002,0.132-0.059,0.074-0.098,0.146c0.027-0.093,0.2,0.472,0.252,0.117c0.047-0.023,0.08,0.181,0.059,0.311l-0.102,0.078
			l0.104,0.154c0.018,0.201-0.051,0.288-0.062,0.451c-0.004-0.166-0.193-0.37-0.191,0.062c-0.012-0.227-0.064-0.337-0.088-0.454
			c-0.004,0.089-0.014,0.135-0.057-0.006c0.027,0.338,0.061,0.112,0.07,0.445c-0.09-0.019-0.118,0.076-0.148,0.367l0.064-0.22
			c0.014,0.012,0.021,0.024,0.023,0.043c0.01-0.084,0.025-0.105,0.059-0.125c0,0.065,0.111,0.388,0.061,0.44
			c0.141-0.336,0.105,0.584,0.191,0.37c0.025,0.038,0.031,0.271-0.014,0.295c-0.068-0.277-0.104,0.21-0.166,0.165
			c0.025,0.104,0.066-0.219,0.103-0.079c0.007,0.166-0.052,0.288-0.077,0.38l-0.02-0.067l-0.039,0.257
			c0.045,0.042,0.076-0.249,0.102-0.015c-0.021,0.062,0.004,0.301-0.031,0.292c-0.062-0.11-0.146-0.028-0.16-0.229
			c0.006,0.167,0.021,0.697,0.104,0.482l-0.002,0.197c0.035-0.125,0.104-0.475,0.115-0.075l-0.018-0.003l0.067,0.277l-0.048,0.121
			c0.023-0.003,0.045,0.041,0.043,0.144c-0.025,0.026-0.036,0.125-0.072,0.116c0.006,0.3,0.051,0.274,0.077,0.313
			c0.007,0.167-0.015,0.229-0.065,0.15c-0.012,0.229,0,0.628-0.047,0.784c0.041,0.309,0.018-0.062,0.08,0.116
			c-0.158,0.265-0.062,1.012-0.039,1.512c0.137-0.135,0.016,0.14,0.141,0.229c-0.043-0.108-0.104,0.474-0.145,0.035l0.014,0.268
			c-0.076,0.183-0.057-0.44-0.16-0.166c0.004,0.299,0.156,0.496,0.105,0.849c-0.102-0.118,0.032,0.271-0.076,0.185
			c-0.035-0.073-0.025-0.171-0.033-0.271l-0.018,0.062c-0.027,0.656,0.111,0.188,0.182,0.534c0.014,0.397-0.076,0.312-0.123,0.338
			c-0.018,0.062-0.002,0.264,0.023,0.368c-0.062-0.243,0.061-0.45,0.122-0.339c-0.11,0.177-0.011,0.595,0.034,0.702
			c0.117-0.567,0.007-0.396,0.132-0.932c-0.034-0.074-0.136-0.062-0.095-0.383c0.05,0.201,0.059-0.016,0.072-0.071
			c-0.059,0.062-0.022-0.224-0.049-0.322c0.047-0.089,0.133,0.194,0.156-0.132l-0.137-0.062c0.021-0.128,0.102,0.054,0.066-0.219
			c0.072,0.146,0.108-0.044,0.131,0.323c0.115-0.438-0.062-0.674-0.109-1.015c0.008,0.035,0.023,0.039,0.033,0.073
			c-0.033-0.073-0.031-0.205-0.041-0.309c0.029-0.225,0.062,0.179,0.1,0.12l-0.004-0.364c0.004-0.008,0.008-0.01,0.01-0.01
			c-0.021-0.096-0.031-0.188,0.002-0.221c0.045,0.106,0.09,0.149,0.125,0.225l-0.094-0.384c0.043,0.042,0.076-0.314,0.105-0.043
			l-0.02-0.566l0.092-0.048c-0.017-0.136-0.035-0.14-0.045,0.022c0.02-0.194-0.162-0.859,0.02-0.758
			c-0.072-0.444-0.047-0.604-0.092-1.146c0.084,0.414,0.105-0.475,0.146-0.036c0.038-0.257-0.062-0.311-0.076-0.513
			c0.039-0.189,0.129-0.105,0.162,0.101l-0.041-0.24l0.018,0.005l-0.051-0.209c0.047-0.225,0.09-0.048,0.104-0.277l-0.078-0.049
			l0.047-0.156c-0.037,0.06-0.057-0.077-0.062-0.244l0.02,0.003l-0.018-0.201c0.049,0.199,0.02-0.186,0.074-0.094
			c0.004-0.173,0.002-0.177-0.012-0.488l-0.059,0.057c-0.045-0.407,0.082-0.02,0.091-0.35l-0.063,0.021
			c0.109-0.478-0.057-0.806,0.014-1.157c0.016,0.201,0.089,0.15,0.07,0.146c-0.021-0.304-0.004-0.796-0.08-1.108
			c0.094-0.114,0.121-0.142,0.164-0.464c-0.004-0.233-0.014-0.27-0.064-0.346c0.035-0.228-0.018-0.65,0.053-0.661
			c-0.057-0.054,0.01-0.204-0.033-0.329l0.027-0.026l-0.064,0.021c0.146-0.402-0.078-0.68,0.047-1.084l0.02,0.068l-0.023-0.17
			c0.027-0.026,0.043,0.042,0.08,0.051l0.016-0.792l-0.049,0.154c-0.006-0.167-0.064-0.277-0.023-0.47
			c0.094,0.317,0.004-0.263,0.075-0.313l0.024,0.172c-0.006-0.232-0.006-0.232-0.07-0.215c-0.02-0.302,0.123-0.207,0.057-0.483
			l-0.002,0.198c-0.037,0.058-0.091-0.084-0.089-0.218c0.011-0.03,0.039-0.125,0.048-0.022c-0.023-0.237,0.01-0.594-0.018-0.698
			c0.021-0.128,0.064-0.086,0.082-0.017c-0.055-0.51,0.016-0.229-0.041-0.738l0.035,0.009l-0.041-0.174l0.076-0.25l-0.047,0.089
			c-0.007-0.167-0.031-0.271-0.009-0.465l0.054,0.078c-0.027-0.472,0.092-0.544,0.018-0.991c0.014-0.031,0.027,0.039,0.035,0.074
			c-0.082-0.415,0.1-0.313-0.004-0.73c0.021,0.025,0.041-0.02,0.055-0.003l-0.031-0.188l0.07,0.015l-0.104-0.154l0.074-0.116
			l-0.035-0.073c0.141-0.203,0.037-0.489,0.141-0.768l-0.092,0.048c-0.188-0.699,0.113-1.602,0.029-2.443l0.068,0.016l-0.084-0.349
			c0.061-0.188,0.062,0.111,0.102,0.054c-0.039-0.373-0.105-0.155-0.125-0.589c0.051-0.222,0.053,0.077,0.08,0.183
			c-0.035-0.404-0.072-1.007-0.031-1.294c-0.01-0.007-0.023-0.022-0.027-0.01c-0.031-0.271,0.002-0.629,0-0.928
			c0.033,0.007,0.037,0.082,0.043,0.155c0.006-0.106,0.029-0.254-0.004-0.348l0.062,0.112c0.014-0.229-0.043-0.671,0.029-0.722
			c-0.025,0.024-0.082,0.016-0.077-0.185c0.11-0.106-0.046-0.54,0.017-0.854c0.026,0.037,0.031,0.271,0.033,0.205
			c0.027-0.159-0.021-0.304-0.059-0.442l0.045,0.043l-0.057-0.741c0.11-0.107-0.015-0.697,0.065-0.646
			c0.007-0.267-0.052,0.222-0.062-0.113c0.045-0.089-0.021-0.302,0.051-0.288l0.009,0.036l-0.005-0.232l0.07,0.146
			c-0.014-0.202-0.084-0.351-0.139-0.36c0.041-0.188,0.01-0.461,0.074-0.548l0.018,0.071c-0.025-0.536,0.199-0.888,0.08-1.311
			c0.01-0.029,0.029-0.025,0.027,0.037l0.006-0.33l0.053,0.078l-0.078-0.548l0.035,0.007c0.018-0.359,0.002-0.927-0.008-1.393
			l0.018,0.068c-0.053-0.51,0.037-0.489-0.002-0.861c0.01,0.013,0.014,0.024,0.017,0.04v-0.334l0.034,0.073
			c-0.075-0.248,0.105-0.708,0.039-0.557c-0.032-0.14-0.073-0.381-0.117-0.423c-0.004-0.364,0.048-0.089,0.078-0.312
			c0.007-0.266-0.057-0.312-0.021-0.667l0.036,0.008c-0.006-0.167-0.03-0.271-0.034-0.504l0.016,0.066
			c-0.071-0.38,0.109-0.473-0.047-0.771c0.031-0.159,0.01-0.463,0.082-0.447c-0.043-0.473-0.062-0.841-0.09-1.312
			c0.119-0.074-0.008-0.103,0.061-0.387l-0.062,0.021c-0.004-0.665,0.156-1.427,0.135-2.159l0.064-0.021l-0.07-0.146
			c0.035-0.789,0.063-1.81,0.07-2.438c-0.033-0.205-0.107-0.52-0.084-0.847l0.01,0.035c-0.035-0.57-0.061-1.172-0.02-1.793
			c0.025,0.039,0.046-0.022,0.062,0.047c-0.068-0.146,0-0.364,0.002-0.498l-0.049,0.156c-0.062-0.177,0-0.431,0.047-0.521
			l-0.066-0.278c0.007-0.021,0.017-0.047,0.027-0.053l-0.035-0.05l0.086-0.146c-0.018-0.07-0.037-0.439-0.115-0.557
			c0.027-0.025,0.052-0.287,0.064-0.086l0.029-1.021l-0.031,0.159c-0.062,0.02-0.104-0.287-0.072-0.446
			c0.051,0.208,0.09,0.019,0.14-0.071c-0.032-0.139-0.058,0.12-0.093,0.048c-0.043-0.176-0.062-0.544-0.032-0.637l0.024,0.104
			c-0.021-0.237,0.088-0.349,0.084-0.579c-0.051-0.21-0.002-0.364-0.11-0.322c-0.021-0.303,0.073-0.116,0.086-0.214
			c-0.052-0.145-0.017-0.566,0.041-0.62c-0.16-0.167,0.062-0.814-0.071-0.878l0.075-0.248c-0.034-0.008-0.116-0.059-0.129-0.26
			c0.039-0.19,0.103-0.146,0.14-0.202l-0.134-0.128c0.147-1.094,0.062-2.539,0.187-3.738c-0.023-0.536-0.084-1.21-0.062-1.836
			l0.018,0.07l0.039-0.622l-0.062,0.45c-0.017-0.138-0.041-0.241-0.039-0.372c0.062-0.685,0.134-1.593,0.067-2.435
			c-0.151-0.544,0.14-0.357,0.029-0.882c0.014,0.044,0.035,0.062,0.051,0.104c-0.049-0.562-0.074-0.866-0.162-1.432
			c0.152,0.065-0.002-0.365,0.078-0.312l-0.061-0.047c0.039-0.125,0.053-0.42,0.098-0.377l-0.076-0.247l0.064-0.021
			c0.006-0.328-0.043-1.035,0.088-1.207c-0.092-0.812-0.058-2.099-0.027-3.12c-0.051-0.144-0.053-0.439-0.059-0.675l0.078-0.248
			c-0.021-0.236-0.117-0.49-0.066-0.71c0.008,0.001,0.017,0.011,0.021,0.026c-0.017-0.241,0.026-0.473-0.041-0.695
			c0.004-0.264,0.047-0.521,0.114-0.438c-0.125-0.026,0.021-0.562,0.021-0.562s0.362-13.556-0.312-16.862
			c-0.061-0.108-0.1-0.418-0.174-0.301c-0.021-0.235,0.088-0.347,0.025-0.392c-0.043,0.322-0.16-0.103-0.24,0.216l-0.014-0.203
			c-0.043-0.041,0.049,0.275-0.031,0.229l0.117,0.057c-0.021,0.165-0.043,0.254-0.082,0.312c0.045,0.154,0.203,0.253,0.131,0.621
			l-0.006-0.102c0.002,0.3-0.076,0.184-0.098,0.247l0.003-0.066l-0.062,0.253c0.039-0.189-0.056-0.507-0.047-0.342
			c-0.035,0.357,0.028-0.093,0.041,0.175c0.006,0.167-0.058,0.12-0.093,0.112l0.002,0.299c-0.054-0.01,0.005-0.198-0.054-0.077
			l0.059,0.377c-0.14,0.07,0.062,0.41-0.066,0.582c-0.028-0.271-0.045,0.024-0.09-0.019l0.004,0.664
			c-0.021,0.062-0.041-0.174-0.033-0.074c-0.038,0.125,0.031,0.205,0.029,0.272c-0.037,0.058,0,0.493-0.09,0.477
			c-0.062,0.45,0.114,0.188,0.062,0.609c-0.057,0.056-0.014-0.333-0.069-0.146l0.019,0.438c-0.024-0.041-0.088-0.084-0.076-0.248
			c-0.075,1.177-0.37,1.811-0.301,2.886c-0.065,0.149-0.043-0.109-0.086-0.217c0.084,0.776-0.147,1.095-0.146,1.758l0.056,0.012
			c-0.172,0.924-0.076,2.037-0.15,3.082l0.039-0.125c0.054,0.146,0.059,0.376,0.08,0.548c-0.026,0.026-0.114-0.125-0.094,0.182
			c0.02-0.062,0.041-0.19,0.065-0.152c-0.146,0.896-0.117,2.791-0.19,4.265c0.032,1.994-0.086,4.158-0.062,6.117
			c-0.005-0.299,0.129-0.171,0.099,0.054c-0.23,0.614,0.03,1.068-0.125,1.696c0.064,1.144-0.136,2.16,0.032,3.225l-0.063,0.021
			c-0.029,0.158,0.017,0.202,0.021,0.368l-0.021-0.004c-0.024,0.393,0.037,0.869,0.006,1.095l0.072,0.015
			c0.004,0.234-0.058,0.121-0.019,0.361l-0.034-0.007l0.064,0.278c-0.127-0.026-0.014,0.658-0.071,0.847
			c0.021,0.303,0.071,0.877,0.046,1.335c-0.064,0.085-0.068,0.646-0.104,1.006c0.015,0.699,0.029,1.696,0.002,2.585l0.082-0.016
			l0.004,0.229c-0.018-0.003-0.023,0.028-0.034-0.007c-0.095,0.179,0.024,0.536-0.032,0.722c0.075-0.114,0.014-0.161,0.016-0.295
			c0.039-0.188,0.117-0.008,0.076,0.249l-0.02-0.005l0.041,0.176c-0.062,0.021-0.096,0.181-0.157,0.198
			c0.013,0.766,0.118,1.285,0.085,2.073c-0.07-0.082,0.016,0.563-0.107,0.407c0.043,0.475,0.103-0.077,0.188,0.14
			c-0.002,0.132,0.03,0.271-0.017,0.294c-0.028-0.062-0.076,0.107-0.086,0l0.008,0.316c-0.01,0.027-0.026-0.04-0.034-0.075
			c0.067,0.645-0.089,1.142-0.019,1.72c0.043,0.043,0.014-0.229,0.059-0.188c0.089,0.582-0.081,0.514-0.021,1.057l-0.062-0.112
			c0.041,0.177,0.095,0.252,0.044,0.54c-0.074,0.052-0.062-0.245-0.095-0.384c-0.004,0.198,0.015,0.698,0.08,0.546
			c0.021,0.237-0.043,0.323-0.062,0.451c0.019,0.004,0.05-0.221,0.082-0.082c-0.043,0.322-0.043,0.821-0.052,1.215
			c-0.02-0.003-0.047,0.024-0.055-0.01C361.375,273.793,361.213,273.759,361.23,274.194z"/>
		<path fill="#514580" d="M361.502,295.229l0.014-0.159c-0.018,0-0.035-0.007-0.055-0.081L361.502,295.229z"/>
		<path fill="#514580" d="M361.582,287.677c-0.006-0.021-0.012-0.04-0.02-0.057C361.564,287.659,361.572,287.671,361.582,287.677z"
			/>
		<path fill="#514580" d="M361.463,285.842c0.018,0.132,0.035,0.016,0.057-0.05C361.502,285.789,361.484,285.792,361.463,285.842z"
			/>
		<path fill="#514580" d="M361.68,299.508c-0.009-0.027-0.019-0.045-0.032-0.04C361.662,299.505,361.672,299.515,361.68,299.508z"/>
		<path fill="#514580" d="M361.59,311.334c0.003-0.017,0.008-0.026,0.014-0.048C361.596,311.296,361.593,311.312,361.59,311.334z"/>
		<path fill="#514580" d="M361.707,310.678c0-0.031-0.002-0.073-0.01-0.133C361.693,310.603,361.697,310.645,361.707,310.678z"/>
		<path fill="#514580" d="M361.664,296.642c-0.002-0.045-0.008-0.088-0.021-0.124C361.642,296.585,361.652,296.619,361.664,296.642z
			"/>
		<polygon fill="#514580" points="361.68,310.408 361.689,310.243 361.675,310.24 		"/>
		<path fill="#514580" d="M361.58,311.541c0.004-0.062,0.008-0.146,0.01-0.207C361.57,311.416,361.568,311.481,361.58,311.541z"/>
		<path fill="#514580" d="M361.76,303.849l-0.002-0.018C361.728,303.702,361.74,303.782,361.76,303.849z"/>
		<polygon fill="#514580" points="361.557,309.688 361.562,309.666 361.541,309.617 		"/>
		<path fill="#514580" d="M361.55,312.255c0-0.031-0.005-0.062-0.013-0.083c-0.002,0.024-0.006,0.057-0.01,0.095
			C361.537,312.257,361.543,312.255,361.55,312.255z"/>
		<path fill="#514580" d="M361.639,306.325c0.024,0.046,0.046,0.062,0.06,0.062C361.697,306.336,361.685,306.301,361.639,306.325z"
			/>
	</g>
	<g>
		<path fill="#514580" d="M336.973,297.084c0.009,0.008,0.019,0.015,0.03,0.018C336.992,297.086,336.982,297.082,336.973,297.084z"
			/>
		<path fill="#514580" d="M337.207,289.808l0.018,0.085C337.221,289.837,337.215,289.816,337.207,289.808z"/>
		<path fill="#514580" d="M336.873,301.445c-0.004-0.006-0.006-0.006-0.008-0.01c-0.002,0.067-0.004,0.158-0.006,0.309
			L336.873,301.445z"/>
		<path fill="#514580" d="M337.506,274.287v0.098C337.506,274.341,337.51,274.312,337.506,274.287z"/>
		<path fill="#514580" d="M337.305,283.486c-0.017-0.027-0.021-0.075-0.022-0.124C337.281,283.421,337.283,283.469,337.305,283.486z
			"/>
		<path fill="#514580" d="M336.168,303.753l0.05-0.125C336.195,303.631,336.175,303.675,336.168,303.753z"/>
		<path fill="#514580" d="M336.367,308.174c0.002-0.003,0.006-0.004,0.01-0.013C336.373,308.156,336.369,308.162,336.367,308.174z"
			/>
		<path fill="#514580" d="M336.555,306.447c-0.009-0.033-0.015-0.077-0.021-0.124C336.537,306.375,336.537,306.442,336.555,306.447z
			"/>
		<path fill="#514580" d="M336.523,306.265l0.012,0.059C336.533,306.289,336.531,306.263,336.523,306.265z"/>
		<path fill="#514580" d="M337.539,217.895c0.002-0.128-0.033-0.234-0.062-0.352L337.539,217.895z"/>
		<path fill="#514580" d="M337.605,260.231l0.02,0.027C337.619,260.233,337.611,260.228,337.605,260.231z"/>
		<path fill="#514580" d="M337.125,217.736l0.012-0.09C337.127,217.679,337.125,217.708,337.125,217.736z"/>
		<path fill="#514580" d="M336.039,301.412c-0.045-0.128,0.011-0.392-0.037-0.389C336.01,301.16,335.976,301.353,336.039,301.412z"
			/>
		<path fill="#514580" d="M335.859,257.251l-0.002-0.084C335.859,257.207,335.859,257.231,335.859,257.251z"/>
		<path fill="#514580" d="M337.125,217.736l-0.012,0.104c0.01-0.009,0.016-0.021,0.022-0.032
			C337.131,217.786,337.127,217.762,337.125,217.736z"/>
		<path fill="#514580" d="M337.701,245.595v0.006c0.002,0.01,0.004,0.02,0.008,0.028L337.701,245.595z"/>
		<path fill="#514580" d="M337.781,244.819c0.004,0.056,0.008,0.106,0.014,0.166C337.8,244.897,337.793,244.852,337.781,244.819z"/>
		<path fill="#514580" d="M337.476,217.543l-0.035-0.2C337.445,217.415,337.461,217.48,337.476,217.543z"/>
		<path fill="#514580" d="M337.756,236.448l0.005,0.077C337.76,236.493,337.76,236.468,337.756,236.448z"/>
		<path fill="#514580" d="M337.277,284.076l-0.011,0.066C337.277,284.151,337.285,284.146,337.277,284.076z"/>
		<polygon fill="#514580" points="336.057,278.289 336.057,278.286 336.055,278.286 		"/>
		<path fill="#514580" d="M336.113,278.597c0.012-0.096-0.021-0.233-0.056-0.308C336.057,278.386,336.066,278.478,336.113,278.597z"
			/>
		<path fill="#514580" d="M336.086,277.626c-0.002,0.012-0.004,0.021-0.006,0.036L336.086,277.626z"/>
		<polygon fill="#514580" points="335.965,283.839 335.971,283.839 335.968,283.836 		"/>
		<path fill="#514580" d="M335.963,282.608c0.01-0.021,0.018-0.053,0.021-0.084C335.973,282.544,335.965,282.573,335.963,282.608z"
			/>
		<polygon fill="#514580" points="335.969,274.562 335.971,274.563 335.971,274.558 		"/>
		<path fill="#514580" d="M335.682,262.964c0.021,1.165,0.106,2.673,0.073,3.827c0.098,0.251,0.1,0.616,0.117,0.983l-0.129,0.039
			l0.041,0.309c-0.041,0.125-0.022-0.236-0.072-0.018l0.078,0.115c-0.045,0.024-0.032,0.788-0.123,0.273l-0.006,1.19
			c-0.006,0.266,0.105,0.154,0.072,0.445c-0.037,0.06-0.025-0.104-0.07-0.081c-0.1,0.874,0.242,1.013,0.181,1.827l-0.019-0.068
			c0.033,0.139,0.027,0.402,0.047,0.406c0.129-0.104-0.067-0.146,0.008-0.396c0.107,0.021,0.059,0.312,0.141,0.295
			c-0.039,0.189,0.021,0.305,0.023,0.472c-0.066,0.283-0.021,0.689-0.105,0.902c0.032,0.141,0.139,0.296,0.141,0.596
			c-0.086,0.213-0.08-0.053-0.112,0.238l0.062,0.049c-0.01,0.237-0.027,0.199-0.06,0.19c-0.005,0.256,0.086,0.213,0.045,0.533
			l-0.062-0.179c0.023,0.235,0.012,0.333,0.004,0.664c-0.035-0.009-0.033-0.142-0.021-0.237c-0.096,0.18,0.039,0.308,0.025,0.404
			c0.027-0.028,0.041-0.257,0.104-0.146c-0.014,0.164,0.084,0.351,0.008,0.466l-0.059-0.179c0.047,0.342,0.074,0.184,0.051,0.574
			c-0.006-0.021-0.021-0.011-0.035-0.021c0.08,0.249,0.004,0.573-0.002,0.938l-0.018-0.069c0.021,0.147,0.074,0.229,0.07,0.312
			c0.037-0.209,0.057-0.152,0.115-0.17c-0.105,0.274,0.119,0.422,0.055,0.874c-0.037-0.009-0.08-0.116-0.041-0.24
			c-0.104-0.154-0.193-0.174-0.243-0.45c0.022,0.172,0.036,0.373-0.009,0.33l0.102,0.055c-0.002,0.104-0.002,0.188-0.004,0.266
			c0.061,0.045,0.104-0.209,0.143,0.029c0.031,0.271-0.102,0.146-0.057,0.188c0.037,0.373,0.104,0.154,0.068,0.514
			c-0.008-0.036-0.023-0.104-0.016-0.138c-0.041,0.257,0.016,0.632-0.105,0.707c-0.023-0.038-0.061-0.045-0.051-0.145l0.021,0.004
			c-0.086-0.281,0.021,0.236-0.086,0.146c0.062-0.021,0.049,0.343,0.034,0.506l0.071-0.053c0.217,0.543-0.143-0.029-0.119,0.507
			c0.051,0.341,0.021-0.129,0.072,0.08c-0.014,0.229-0.08,0.313-0.049,0.652c-0.029,0.093-0.07,0.283-0.152,0.3
			c0.033,0.205-0.039,0.621,0.041,0.736c0.07-0.35-0.084-0.349,0.023-0.757l0.08,0.115c-0.005,0.282,0.034,0.646,0.004,0.84
			c0.016-0.04,0.036-0.058,0.053-0.032c0.029,0.403,0.109,0.521,0.084,0.912c-0.074,0.053-0.062-0.179-0.062-0.345
			c-0.062,0.252-0.008,0.264-0.031,0.655c-0.064,0.021,0.004-0.266-0.061-0.312l0.021,0.437c-0.004-0.001-0.008,0-0.014,0
			c0.104,0.062-0.012,0.331,0.021,0.598c-0.004,0.629,0.139,0.727,0.225,1.073c-0.027,0.095-0.057,0.121-0.084,0.082
			c0.051-0.153,0.014-0.127-0.016-0.183c0.01,0.214-0.106,0.466-0.15,0.348c0.031,0.338,0.061-0.121,0.092,0.085l-0.012,0.462
			c0.059-0.055,0.068-0.217,0.109,0.021c0.014,0.202,0.002,0.301-0.002,0.562c-0.025-0.038-0.082,0.082-0.078-0.115
			c-0.021,0.127-0.024,0.327,0.027,0.402c0.051-0.289,0.045,0.475,0.131,0.259l-0.05,0.288c0-0.065-0.034-0.073-0.024-0.171
			c-0.082,0.082,0.022,0.235,0.031,0.337c-0.02,0.102-0.025,0.365-0.061,0.388c0.023,0.091,0.007,0.313-0.036,0.354
			c0.017,0.137,0.054,0.012,0.08,0.051l-0.011,0.461c-0.045,0.023-0.174,0.062-0.188-0.007c0.041,0.176,0.136,0.062,0.13,0.326
			c-0.089-0.15-0.07,0.35-0.175,0.129c-0.065,0.149-0.065,0.583-0.043,0.817c0.069,0.146,0.041-0.257,0.112-0.24
			c0.023,0.667,0.224,0.708,0.188,1.195l0.02-0.127c0.041,0.307,0.031,0.271,0.093,0.449c-0.091-0.084-0.241,0.347-0.226,0.849
			c0.045,0.042,0.086-0.279,0.158-0.197l0.012,0.333c-0.008,0.022-0.021-0.015-0.033-0.058c0.029,0.3-0.118,0.558-0.014,0.644
			l-0.133,0.305l0.057-0.12c0.045,0.042,0.059,0.376,0.074,0.444c0.047,0.343,0.008,0.467-0.049,0.652
			c0.036-0.06,0.123-0.208,0.135,0.062c-0.146-0.003-0.055,0.562-0.131,0.557c0.002,0.107-0.043,0.303,0.016,0.313l-0.09-0.02
			c0.127,0.025,0.119,0.422,0.142,0.726c-0.173-0.067,0.013,0.333-0.146,0.469c0.117,0.056,0.043,0.537,0.144,0.591
			c0.007,0.233-0.104,0.211-0.142,0.271l0.043,0.106c-0.055,0.118-0.062,0.559-0.104,0.816l0.103,0.242l-0.047,0.09
			c0.026,0.039,0.041,0.24,0.08,0.115l-0.007,0.131c0.11,0.011,0.028,0.185,0.076,0.445c-0.019,0.062-0.046,0.046-0.062-0.013
			c0,0.131-0.059,0.075-0.096,0.146c0.027-0.094,0.198,0.471,0.252,0.116c0.045-0.022,0.078,0.182,0.057,0.312l-0.1,0.078
			l0.104,0.153c0.016,0.2-0.051,0.287-0.062,0.45c-0.006-0.167-0.193-0.369-0.191,0.062c-0.012-0.229-0.067-0.337-0.09-0.454
			c-0.004,0.089-0.014,0.134-0.057-0.006c0.029,0.338,0.062,0.111,0.072,0.444c-0.092-0.019-0.12,0.075-0.15,0.366l0.066-0.218
			c0.012,0.01,0.02,0.024,0.023,0.042c0.01-0.083,0.022-0.105,0.059-0.124c-0.002,0.065,0.111,0.386,0.059,0.44
			c0.141-0.336,0.107,0.584,0.193,0.368c0.025,0.037,0.031,0.271-0.014,0.296c-0.068-0.277-0.104,0.21-0.166,0.164
			c0.024,0.104,0.065-0.22,0.103-0.078c0.007,0.166-0.052,0.287-0.077,0.38l-0.02-0.068l-0.041,0.257
			c0.047,0.042,0.076-0.249,0.104-0.013c-0.021,0.062,0.004,0.299-0.031,0.292c-0.062-0.112-0.146-0.03-0.16-0.23
			c0.006,0.167,0.019,0.697,0.103,0.482l-0.002,0.199c0.036-0.125,0.104-0.479,0.116-0.076l-0.018-0.003l0.067,0.277l-0.046,0.12
			c0.021-0.004,0.043,0.041,0.041,0.145c-0.025,0.026-0.036,0.125-0.072,0.116c0.006,0.3,0.051,0.272,0.076,0.312
			c0.008,0.167-0.014,0.23-0.064,0.152c-0.012,0.229,0,0.628-0.047,0.784c0.041,0.307,0.018-0.062,0.08,0.115
			c-0.158,0.267-0.062,1.013-0.039,1.513c0.137-0.136,0.016,0.138,0.141,0.229c-0.043-0.107-0.104,0.475-0.146,0.036l0.017,0.268
			c-0.076,0.184-0.058-0.439-0.162-0.167c0.004,0.299,0.156,0.497,0.104,0.851c-0.099-0.119,0.032,0.271-0.073,0.183
			c-0.035-0.072-0.025-0.171-0.033-0.271l-0.019,0.062c-0.028,0.656,0.112,0.19,0.183,0.535c0.014,0.398-0.076,0.314-0.123,0.338
			c-0.019,0.062-0.002,0.264,0.022,0.369c-0.062-0.244,0.062-0.451,0.123-0.338c-0.11,0.175-0.011,0.593,0.032,0.703
			c0.117-0.57,0.007-0.396,0.134-0.934c-0.035-0.074-0.138-0.062-0.097-0.385c0.051,0.203,0.058-0.013,0.072-0.069
			c-0.058,0.062-0.023-0.225-0.047-0.32c0.045-0.091,0.133,0.192,0.155-0.134l-0.138-0.062c0.021-0.128,0.102,0.055,0.066-0.217
			c0.071,0.146,0.107-0.044,0.131,0.323c0.115-0.438-0.062-0.675-0.111-1.017c0.009,0.035,0.025,0.039,0.035,0.073
			c-0.035-0.073-0.033-0.205-0.043-0.307c0.031-0.227,0.062,0.179,0.102,0.119l-0.005-0.363c0.005-0.008,0.009-0.01,0.011-0.01
			c-0.021-0.098-0.031-0.188,0.002-0.223c0.043,0.108,0.088,0.151,0.125,0.227l-0.095-0.385c0.044,0.042,0.075-0.313,0.106-0.043
			l-0.021-0.565l0.093-0.048c-0.018-0.138-0.035-0.142-0.045,0.021c0.02-0.192-0.16-0.856,0.02-0.757
			c-0.074-0.444-0.045-0.604-0.092-1.145c0.084,0.414,0.104-0.477,0.146-0.036c0.039-0.257-0.061-0.312-0.072-0.514
			c0.038-0.188,0.127-0.104,0.161,0.101l-0.043-0.241l0.019,0.004l-0.051-0.209c0.049-0.222,0.09-0.047,0.104-0.276l-0.08-0.05
			l0.048-0.154c-0.036,0.06-0.056-0.076-0.062-0.243l0.019,0.003l-0.017-0.202c0.049,0.2,0.019-0.187,0.074-0.094
			c0.004-0.175,0.002-0.179-0.013-0.489l-0.058,0.055c-0.045-0.406,0.082-0.017,0.09-0.347l-0.062,0.021
			c0.107-0.476-0.059-0.807,0.014-1.156c0.015,0.2,0.088,0.148,0.07,0.146c-0.021-0.302-0.004-0.795-0.08-1.106
			c0.094-0.114,0.121-0.144,0.164-0.465c-0.004-0.231-0.015-0.269-0.066-0.345c0.037-0.227-0.016-0.649,0.055-0.663
			c-0.057-0.052,0.012-0.203-0.033-0.327l0.025-0.024l-0.062,0.02c0.145-0.4-0.078-0.678,0.047-1.084l0.019,0.07l-0.022-0.17
			c0.026-0.027,0.045,0.042,0.08,0.05l0.016-0.792l-0.049,0.156c-0.006-0.167-0.065-0.278-0.024-0.47
			c0.095,0.314,0.004-0.266,0.075-0.314l0.025,0.17c-0.007-0.23-0.007-0.23-0.07-0.213c-0.021-0.301,0.123-0.207,0.058-0.485
			l-0.004,0.198c-0.036,0.061-0.091-0.083-0.089-0.216c0.012-0.031,0.039-0.125,0.048-0.024c-0.022-0.235,0.011-0.594-0.017-0.696
			c0.021-0.128,0.063-0.086,0.082-0.019c-0.055-0.507,0.012-0.229-0.041-0.737l0.035,0.009l-0.041-0.175l0.078-0.248l-0.048,0.089
			c-0.006-0.167-0.03-0.271-0.011-0.466l0.055,0.077c-0.027-0.47,0.092-0.544,0.02-0.989c0.01-0.029,0.027,0.039,0.035,0.073
			c-0.084-0.414,0.096-0.312-0.006-0.729c0.02,0.023,0.041-0.021,0.057-0.005l-0.032-0.189l0.069,0.017l-0.104-0.154l0.073-0.117
			l-0.034-0.074c0.142-0.201,0.037-0.487,0.142-0.766l-0.092,0.048c-0.188-0.7,0.112-1.601,0.025-2.443l0.072,0.016l-0.084-0.351
			c0.06-0.187,0.062,0.113,0.101,0.058c-0.039-0.375-0.106-0.156-0.125-0.591c0.049-0.224,0.054,0.077,0.077,0.183
			c-0.034-0.406-0.071-1.008-0.03-1.294c-0.011-0.007-0.021-0.024-0.026-0.011c-0.031-0.271,0.002-0.628,0-0.929
			c0.033,0.009,0.037,0.082,0.045,0.156c0.004-0.105,0.027-0.254-0.006-0.346l0.062,0.112c0.016-0.229-0.04-0.672,0.031-0.724
			c-0.026,0.028-0.082,0.018-0.078-0.182c0.111-0.109-0.045-0.54,0.017-0.857c0.024,0.038,0.03,0.271,0.033,0.206
			c0.028-0.159-0.021-0.302-0.058-0.441l0.045,0.043l-0.057-0.741c0.109-0.109-0.016-0.699,0.064-0.648
			c0.007-0.265-0.051,0.224-0.061-0.111c0.045-0.09-0.021-0.305,0.051-0.288l0.008,0.036l-0.004-0.233l0.068,0.146
			c-0.015-0.2-0.084-0.35-0.138-0.358c0.041-0.189,0.011-0.462,0.073-0.548l0.018,0.069c-0.025-0.534,0.2-0.886,0.081-1.309
			c0.011-0.031,0.026-0.027,0.026,0.039l0.007-0.331l0.054,0.079l-0.08-0.549l0.037,0.008c0.016-0.361,0-0.929-0.009-1.396
			l0.019,0.07c-0.053-0.508,0.037-0.49,0-0.862c0.008,0.016,0.014,0.025,0.016,0.039v-0.334l0.033,0.074
			c-0.076-0.248,0.104-0.707,0.039-0.555c-0.033-0.144-0.072-0.383-0.117-0.424c-0.002-0.364,0.047-0.09,0.078-0.314
			c0.006-0.264-0.057-0.311-0.021-0.667l0.036,0.008c-0.007-0.167-0.03-0.271-0.034-0.504l0.016,0.069
			c-0.072-0.381,0.109-0.476-0.047-0.772c0.031-0.157,0.01-0.461,0.082-0.445c-0.043-0.475-0.062-0.843-0.09-1.312
			c0.119-0.075-0.008-0.102,0.061-0.385l-0.062,0.021c-0.005-0.664,0.154-1.426,0.135-2.157l0.063-0.021l-0.067-0.146
			c0.032-0.789,0.062-1.811,0.067-2.438c-0.032-0.207-0.106-0.521-0.085-0.846l0.012,0.033c-0.035-0.569-0.061-1.174-0.02-1.794
			c0.025,0.038,0.045-0.021,0.062,0.048c-0.07-0.147-0.002-0.363,0-0.498l-0.049,0.154c-0.062-0.177,0-0.43,0.047-0.52l-0.066-0.28
			c0.006-0.019,0.016-0.047,0.025-0.051l-0.033-0.049l0.084-0.148c-0.016-0.067-0.035-0.438-0.115-0.555
			c0.027-0.027,0.051-0.288,0.064-0.085l0.029-1.021l-0.029,0.159c-0.062,0.021-0.104-0.287-0.072-0.444
			c0.049,0.208,0.09,0.019,0.139-0.07c-0.034-0.141-0.059,0.119-0.094,0.047c-0.041-0.176-0.061-0.543-0.031-0.637l0.025,0.104
			c-0.021-0.235,0.088-0.346,0.084-0.579c-0.051-0.21-0.002-0.363-0.111-0.32c-0.021-0.305,0.074-0.117,0.086-0.216
			c-0.051-0.143-0.016-0.563,0.041-0.618c-0.159-0.167,0.062-0.814-0.071-0.879l0.078-0.247c-0.037-0.01-0.116-0.06-0.132-0.262
			c0.039-0.188,0.104-0.144,0.141-0.202l-0.134-0.128c0.147-1.094,0.062-2.539,0.187-3.736c-0.023-0.535-0.084-1.211-0.062-1.836
			l0.017,0.067l0.041-0.621l-0.064,0.451c-0.016-0.136-0.039-0.242-0.037-0.373c0.061-0.682,0.133-1.591,0.066-2.432
			c-0.15-0.545,0.141-0.361,0.029-0.883c0.014,0.046,0.036,0.062,0.051,0.103c-0.047-0.562-0.074-0.866-0.16-1.429
			c0.152,0.062-0.002-0.365,0.078-0.314l-0.062-0.047c0.038-0.125,0.054-0.418,0.099-0.376l-0.078-0.249l0.063-0.021
			c0.009-0.327-0.041-1.034,0.088-1.205c-0.093-0.815-0.058-2.102-0.024-3.12c-0.053-0.146-0.055-0.442-0.06-0.675l0.075-0.25
			c-0.021-0.236-0.116-0.488-0.064-0.709c0.01,0.002,0.016,0.011,0.021,0.024c-0.016-0.241,0.025-0.47-0.043-0.693
			c0.007-0.266,0.047-0.521,0.117-0.438c-0.127-0.027,0.021-0.56,0.021-0.56s0.359-13.558-0.312-16.861
			c-0.062-0.111-0.102-0.418-0.176-0.301c-0.021-0.237,0.088-0.35,0.024-0.395c-0.044,0.323-0.159-0.1-0.239,0.217l-0.016-0.201
			c-0.043-0.041,0.051,0.272-0.029,0.226l0.115,0.057c-0.02,0.165-0.043,0.256-0.082,0.312c0.047,0.153,0.203,0.252,0.133,0.621
			l-0.008-0.104c0.004,0.303-0.074,0.187-0.096,0.247l0.002-0.063l-0.061,0.253c0.039-0.191-0.055-0.507-0.048-0.343
			c-0.034,0.355,0.028-0.095,0.041,0.176c0.007,0.167-0.058,0.119-0.093,0.109l0.002,0.301c-0.053-0.012,0.005-0.197-0.053-0.076
			l0.058,0.377c-0.138,0.068,0.062,0.41-0.065,0.582c-0.029-0.271-0.045,0.021-0.09-0.021l0.006,0.664
			c-0.021,0.063-0.043-0.174-0.035-0.073c-0.039,0.125,0.031,0.204,0.031,0.271c-0.039,0.058,0,0.496-0.093,0.479
			c-0.062,0.449,0.114,0.188,0.062,0.607c-0.055,0.056-0.012-0.333-0.067-0.146l0.021,0.435c-0.027-0.04-0.09-0.084-0.078-0.248
			c-0.076,1.176-0.369,1.812-0.301,2.886c-0.064,0.152-0.043-0.106-0.086-0.217c0.084,0.779-0.148,1.095-0.145,1.758l0.055,0.014
			c-0.172,0.925-0.076,2.036-0.15,3.081l0.039-0.125c0.053,0.145,0.057,0.376,0.08,0.548c-0.025,0.023-0.115-0.125-0.094,0.179
			c0.02-0.062,0.041-0.19,0.064-0.152c-0.145,0.897-0.117,2.791-0.189,4.268c0.033,1.993-0.084,4.157-0.062,6.117
			c-0.002-0.301,0.131-0.173,0.101,0.055c-0.229,0.613,0.032,1.065-0.125,1.695c0.065,1.143-0.136,2.157,0.032,3.224l-0.062,0.02
			c-0.029,0.158,0.014,0.202,0.021,0.368l-0.02-0.004c-0.025,0.396,0.037,0.87,0.006,1.096l0.072,0.018
			c0.004,0.231-0.059,0.121-0.02,0.358l-0.035-0.007l0.066,0.28c-0.127-0.028-0.014,0.66-0.072,0.846
			c0.021,0.305,0.072,0.877,0.045,1.335c-0.062,0.085-0.066,0.647-0.104,1.008c0.014,0.696,0.028,1.694,0.002,2.585l0.082-0.018
			l0.004,0.232c-0.019-0.004-0.027,0.025-0.037-0.008c-0.094,0.18,0.025,0.534-0.031,0.723c0.074-0.117,0.014-0.162,0.016-0.294
			c0.041-0.19,0.119-0.009,0.078,0.249l-0.021-0.006l0.043,0.176c-0.062,0.02-0.096,0.179-0.158,0.199
			c0.014,0.764,0.119,1.282,0.084,2.07c-0.068-0.082,0.018,0.566-0.105,0.407c0.043,0.476,0.1-0.077,0.188,0.141
			c-0.004,0.132,0.031,0.271-0.016,0.296c-0.029-0.062-0.076,0.104-0.086,0l0.008,0.313c-0.01,0.03-0.026-0.04-0.035-0.075
			c0.068,0.646-0.088,1.145-0.018,1.723c0.043,0.043,0.014-0.229,0.059-0.188c0.088,0.582-0.084,0.513-0.021,1.058l-0.062-0.112
			c0.043,0.176,0.098,0.252,0.043,0.54c-0.07,0.05-0.057-0.245-0.092-0.385c-0.004,0.196,0.014,0.696,0.08,0.546
			c0.022,0.235-0.043,0.321-0.062,0.449c0.019,0.006,0.052-0.221,0.084-0.08c-0.043,0.32-0.046,0.819-0.054,1.215
			c-0.018-0.003-0.045,0.022-0.055-0.012C335.828,262.563,335.666,262.529,335.682,262.964z"/>
		<path fill="#514580" d="M335.955,283.999l0.013-0.16c-0.019,0-0.034-0.007-0.054-0.081L335.955,283.999z"/>
		<path fill="#514580" d="M336.033,276.447c-0.004-0.021-0.01-0.04-0.019-0.058C336.017,276.428,336.025,276.441,336.033,276.447z"
			/>
		<path fill="#514580" d="M335.914,274.612c0.018,0.133,0.035,0.017,0.056-0.05C335.955,274.56,335.937,274.562,335.914,274.612z"/>
		<path fill="#514580" d="M336.134,288.278c-0.009-0.026-0.017-0.045-0.03-0.041C336.115,288.275,336.125,288.282,336.134,288.278z"
			/>
		<path fill="#514580" d="M336.043,300.104c0.004-0.016,0.007-0.024,0.014-0.047C336.05,300.066,336.045,300.082,336.043,300.104z"
			/>
		<path fill="#514580" d="M336.158,299.448c0-0.03,0-0.072-0.01-0.133C336.146,299.373,336.15,299.415,336.158,299.448z"/>
		<path fill="#514580" d="M336.115,285.411c-0.002-0.044-0.008-0.089-0.022-0.125C336.094,285.355,336.105,285.39,336.115,285.411z"
			/>
		<polygon fill="#514580" points="336.134,299.179 336.142,299.015 336.127,299.011 		"/>
		<path fill="#514580" d="M336.033,300.312c0.004-0.062,0.008-0.146,0.01-0.208C336.023,300.187,336.023,300.251,336.033,300.312z"
			/>
		<path fill="#514580" d="M336.213,292.619l-0.002-0.02C336.18,292.474,336.193,292.553,336.213,292.619z"/>
		<polygon fill="#514580" points="336.012,298.458 336.014,298.437 335.994,298.388 		"/>
		<path fill="#514580" d="M336.002,301.025c0-0.029-0.004-0.061-0.012-0.083c-0.002,0.025-0.006,0.058-0.01,0.096
			C335.99,301.027,335.996,301.025,336.002,301.025z"/>
		<path fill="#514580" d="M336.093,295.095c0.026,0.048,0.046,0.064,0.06,0.066C336.15,295.105,336.139,295.071,336.093,295.095z"/>
	</g>
</g>
</svg>
