<?xml version="1.0" encoding="utf-8"?>
<!-- Generator: Adobe Illustrator 21.1.0, SVG Export Plug-In . SVG Version: 6.00 Build 0)  -->
<svg version="1.1" id="Calque_1" xmlns="http://www.w3.org/2000/svg" xmlns:xlink="http://www.w3.org/1999/xlink" x="0px" y="0px"
	 viewBox="0 0 693.1 787.3" style="enable-background:new 0 0 693.1 787.3;" xml:space="preserve">
<style type="text/css">
	.st0{fill:none;}
	.st1{enable-background:new    ;}
	.st2{fill:#FFFFFF;stroke:#FFFFFF;stroke-width:2;}
	.st3{fill:none;stroke:#000000;stroke-width:2;stroke-miterlimit:10;}
	.st4{fill:none;stroke:#FFFFFF;stroke-width:5;stroke-miterlimit:10;}
	.st5{fill:#FFFFFF;stroke:#FFFFFF;}
	.st6{fill:none;stroke:#FFFFFF;stroke-width:4;stroke-miterlimit:10;}
	.st7{fill:#FFFFFF;}
	.st8{stroke:#000000;}
</style>
<rect x="-256.5" y="-67.2" class="st0" width="1924" height="918"/>
<g>
	<g class="st1">
		<path class="st2" d="M250.9,237.2v193.9c0,1.5-0.8,2.2-2.5,2.2h-32.7c-1.7,0-2.5-0.7-2.5-2.2V277.4c-3.3,1.2-7.9,2.9-13.8,5.1
			c-5.9,2.2-9.7,3.7-11.5,4.3c-1.7,0.3-2.7-0.2-3.2-1.5l-10.9-23.1c-0.5-1.3-0.1-2.3,1.2-3l44.9-24.3h28.5
			C250.1,235,250.9,235.7,250.9,237.2z"/>
		<path class="st2" d="M286.1,375.3c0-1.5,0.9-2.2,2.7-2.2h31.7c1.8,0,2.7,0.7,2.7,2.2c0,7.1,2,12.5,6.1,16.2
			c4,3.7,9.1,5.6,15.3,5.6c7.6,0,13.6-2.6,17.9-7.8c4.3-5.2,6.4-11.4,6.4-18.5c0-8.9-2.1-16.3-6.2-22.2c-4.1-5.9-10.2-8.8-18.1-8.8
			h-54.3c-1.8,0-2.7-0.7-2.7-2.2V237.2c0-1.5,0.9-2.2,2.7-2.2h102.9c2,0,3,0.7,3,2.2v29.8c0,1.5-1,2.2-3,2.2H325v37.9h19.6
			c20.7,0,36.1,5.8,46.2,17.4c10.2,11.6,15.3,27.7,15.3,48.4c0,18.4-6,33-18,44c-12,11-26.5,16.5-43.5,16.5c-17,0-31-5.1-42-15.3
			C291.6,407.9,286.1,393.7,286.1,375.3z"/>
	</g>
	<g>
		<path class="st3" d="M23.1,653.1h-0.1v19.1H7.3v-48h15.6v17.7H23l12.8-17.7h19l-18,22l18.9,26H35.9L23.1,653.1z"/>
		<path class="st3" d="M83.9,672.2H67.6l-13.1-48h17.1l5.1,27H77l5.6-27h16.9l6,27h0.3l5.2-27h16.5l-13.3,48H97.9l-6.8-27.1h-0.3
			L83.9,672.2z"/>
		<path class="st3" d="M145.3,624.2h17.1l18.7,48h-17.5l-2.5-7h-15.2l-2.4,7h-17.1L145.3,624.2z M153.6,640.9l-3.9,11.9h7.8
			L153.6,640.9z"/>
		<path class="st3" d="M184.5,624.2h16.1l13.7,24.3h0.3l-0.7-24.3h15.3v48h-16.5l-13.3-22.9h-0.3l0.7,22.9h-15.3L184.5,624.2
			L184.5,624.2z"/>
		<path class="st3" d="M262.1,672.2h-16.1v-34.4h-11.8v-13.6h39.7v13.6h-11.8V672.2z"/>
		<path class="st3" d="M278.8,624.2h16.3v48h-16.3V624.2z"/>
		<path class="st3" d="M301.8,648.2c0-3.8,0.7-7.3,2-10.4c1.4-3.1,3.2-5.8,5.6-8c2.3-2.2,5.1-3.9,8.3-5.1c3.2-1.2,6.6-1.8,10.2-1.8
			c3.7,0,7.2,0.6,10.5,1.8c3.3,1.2,6.1,2.8,8.3,4.8l-9.9,11.9c-0.9-1.2-2-2.1-3.4-2.7c-1.4-0.6-2.9-0.9-4.5-0.9
			c-1.4,0-2.6,0.2-3.8,0.7c-1.2,0.5-2.2,1.2-3.1,2.1c-0.9,0.9-1.6,2-2.1,3.3c-0.5,1.3-0.7,2.7-0.7,4.3s0.3,3,0.8,4.2
			c0.5,1.2,1.2,2.3,2.1,3.2c0.9,0.9,1.9,1.6,3.1,2.1c1.2,0.5,2.4,0.7,3.7,0.7c1.9,0,3.4-0.4,4.8-1.2c1.3-0.8,2.4-1.7,3.2-2.7
			l9.9,11.9c-2.2,2.2-4.8,3.9-8,5.2c-3.2,1.3-6.8,1.9-10.8,1.9c-3.6,0-7-0.6-10.2-1.8c-3.2-1.2-6-2.9-8.3-5.2
			c-2.4-2.2-4.2-4.9-5.6-8C302.5,655.4,301.8,652,301.8,648.2z"/>
	</g>
	<g>
		<path class="st4" d="M5.2,505.2v44.3C5.2,558,134,565,292.7,565c158.8,0,287.5-7,287.5-15.6v-44.3"/>
		<path class="st4" d="M499.2,491c51.2,3.1,82.8,7.2,82.8,11.9c0,9.4-129.7,17-289.8,17c-160,0-289.8-7.6-289.8-17
			c0-4.6,31.1-8.7,81.6-11.8"/>
		<path class="st4" d="M501.4,489.9v-32.1H84v32.1"/>
		<path class="st4" d="M501.4,489.9"/>
		<path class="st4" d="M84,489.9c0,6.2,93.4,11.3,208.7,11.3c109.3,0,198.9-4.6,207.9-10.3"/>
		<ellipse class="st5" cx="292.5" cy="455.5" rx="211.4" ry="12.3"/>
	</g>
	<g>
		<g>
			<path class="st6" d="M221.7,211.5h-24.8v-52.8h-18.1v-20.9h61v20.9h-18.1L221.7,211.5L221.7,211.5z"/>
			<path class="st6" d="M244.1,174.2c0-5.9,1-11.2,3.1-16c2.1-4.8,4.9-8.8,8.6-12.1c3.6-3.3,8-5.9,13-7.7c5-1.8,10.4-2.7,16.3-2.7
				s11.3,0.9,16.3,2.7c5,1.8,9.3,4.4,13,7.7c3.7,3.3,6.6,7.4,8.6,12.1c2.1,4.8,3.1,10.1,3.1,16c0,5.9-1,11.3-3.1,16.1
				c-2.1,4.9-5,9-8.6,12.4c-3.7,3.4-8,6.1-13,8c-5,1.9-10.4,2.8-16.3,2.8s-11.3-0.9-16.3-2.8c-5-1.9-9.3-4.5-13-8
				c-3.6-3.4-6.5-7.6-8.6-12.4C245.1,185.5,244.1,180.1,244.1,174.2z M270.4,174.2c0,2.4,0.4,4.7,1.1,6.7c0.7,2,1.7,3.8,3,5.2
				c1.3,1.5,2.8,2.6,4.6,3.4c1.8,0.8,3.8,1.2,5.8,1.2s4-0.4,5.8-1.2c1.8-0.8,3.3-1.9,4.6-3.4c1.3-1.5,2.3-3.2,3.1-5.2
				c0.7-2,1.1-4.2,1.1-6.7c0-2.4-0.4-4.5-1.1-6.5c-0.7-2-1.8-3.6-3.1-5c-1.3-1.4-2.9-2.4-4.6-3.2c-1.8-0.8-3.7-1.1-5.8-1.1
				s-4,0.4-5.8,1.1c-1.8,0.8-3.4,1.8-4.6,3.2c-1.3,1.4-2.3,3-3,5C270.8,169.7,270.4,171.9,270.4,174.2z"/>
			<path class="st6" d="M361.2,187.8v23.8h-24.7v-73.8h31.7c3.8,0,7.4,0.4,11,1.2c3.6,0.8,6.8,2.2,9.7,4.1c2.8,1.9,5.1,4.4,6.9,7.6
				c1.7,3.2,2.6,7.1,2.6,11.9c0,4.6-0.9,8.5-2.6,11.7c-1.7,3.2-4,5.8-6.8,7.8c-2.8,2-6,3.5-9.7,4.4c-3.6,0.9-7.4,1.4-11.2,1.4
				L361.2,187.8L361.2,187.8z M361.2,157v11.9h5.2c1.9,0,3.6-0.5,5.2-1.4c1.6-0.9,2.3-2.5,2.3-4.7c0-1.2-0.2-2.1-0.6-2.9
				s-1-1.3-1.7-1.7c-0.7-0.4-1.5-0.7-2.4-0.9c-0.9-0.2-1.8-0.3-2.7-0.3L361.2,157L361.2,157L361.2,157z"/>
		</g>
		<polygon class="st7" points="276.8,92.1 291.1,87.2 303.2,96.3 303,81.1 315.4,72.4 300.9,67.9 296.4,53.5 287.7,65.8 272.6,65.6 
			281.6,77.8 		"/>
		<polygon class="st7" points="332.9,101.5 342.5,98.2 350.7,104.3 350.6,94.1 358.9,88.2 349.2,85.2 346.1,75.5 340.2,83.8 
			330.1,83.7 336.2,91.8 		"/>
		<polygon class="st7" points="231.9,106.5 241.5,103.2 249.7,109.3 249.6,99.1 257.9,93.2 248.1,90.2 245.1,80.5 239.2,88.8 
			229.1,88.7 235.2,96.8 		"/>
	</g>
	<g>
		<path class="st8" d="M8.5,738.1v-28.2H19c2.2,0,4.4,0.2,6.4,0.7s3.8,1.2,5.4,2.3c1.6,1.1,2.8,2.5,3.7,4.3c0.9,1.8,1.4,4,1.4,6.7
			c0,2.5-0.4,4.6-1.3,6.4c-0.9,1.8-2.1,3.3-3.6,4.4c-1.5,1.2-3.2,2-5.1,2.6c-1.9,0.6-4,0.8-6.1,0.8L8.5,738.1L8.5,738.1z M17.6,718
			v12h1.8c2.2,0,3.9-0.5,5.1-1.4c1.2-1,1.8-2.5,1.8-4.7c0-1.8-0.6-3.3-1.8-4.3c-1.2-1-2.8-1.5-4.8-1.5H17.6z"/>
		<path class="st8" d="M46.8,709.9h10.1l11,28.2H57.5l-1.5-4.1h-9l-1.4,4.1h-10L46.8,709.9z M51.7,719.8l-2.3,7H54L51.7,719.8z"/>
		<path class="st8" d="M69.9,709.9h9.4l8,14.3h0.2l-0.4-14.3h9v28.2h-9.7l-7.8-13.5h-0.2l0.4,13.5h-9L69.9,709.9L69.9,709.9z"/>
		<path class="st8" d="M110.6,738.9c-1.1,0-2.3-0.1-3.4-0.3c-1.1-0.2-2.2-0.5-3.2-0.9c-1-0.4-2-0.8-2.9-1.3
			c-0.9-0.5-1.7-1.1-2.4-1.7l5.8-6.3c0.7,0.7,1.5,1.4,2.6,1.9s2.2,0.8,3.4,0.8c0.5,0,1-0.1,1.5-0.3c0.4-0.2,0.7-0.5,0.7-1
			c0-0.3-0.1-0.5-0.2-0.7c-0.1-0.2-0.4-0.4-0.8-0.6c-0.4-0.2-0.9-0.4-1.5-0.7c-0.7-0.2-1.5-0.5-2.5-0.8c-1-0.3-1.9-0.7-2.8-1.1
			c-0.9-0.4-1.7-1-2.3-1.6c-0.7-0.6-1.2-1.4-1.6-2.3c-0.4-0.9-0.6-2-0.6-3.2c0-1.8,0.4-3.2,1.1-4.5c0.7-1.2,1.6-2.2,2.8-3
			c1.1-0.8,2.4-1.4,3.8-1.7c1.4-0.3,2.8-0.5,4.2-0.5c1.9,0,3.8,0.4,5.7,1.1c1.9,0.7,3.6,1.8,5.1,3.1l-5.9,6
			c-0.6-0.8-1.4-1.4-2.4-1.8s-1.8-0.6-2.5-0.6c-0.7,0-1.2,0.1-1.7,0.3c-0.4,0.2-0.6,0.5-0.6,1c0,0.4,0.2,0.7,0.7,1
			c0.4,0.2,1.1,0.5,2.1,0.8c1,0.3,2.1,0.7,3.2,1.1c1.1,0.4,2.1,1,3.1,1.7c0.9,0.7,1.7,1.5,2.3,2.5s0.9,2.2,0.9,3.7
			c0,1.7-0.3,3.2-1,4.4c-0.7,1.3-1.6,2.3-2.7,3.1c-1.1,0.8-2.3,1.5-3.7,1.9C113.5,738.7,112,738.9,110.6,738.9z"/>
		<path class="st8" d="M135.9,709.9h9.6v20h9.4v8.2h-18.9L135.9,709.9L135.9,709.9z"/>
		<path class="st8" d="M157.8,709.9h19.4v7.9h-10.5v2.4h9.8v7.4h-9.8v2.6h11.2v7.9h-20.1V709.9z"/>
		<path class="st8" d="M204.9,738.1h-9.5v-20.2h-6.9v-8h23.4v8h-6.9L204.9,738.1L204.9,738.1z"/>
		<path class="st8" d="M212.3,723.9c0-2.3,0.4-4.3,1.2-6.1c0.8-1.8,1.9-3.4,3.3-4.6c1.4-1.3,3-2.3,5-2.9c1.9-0.7,4-1,6.2-1
			s4.3,0.3,6.2,1c1.9,0.7,3.6,1.7,5,2.9c1.4,1.3,2.5,2.8,3.3,4.6c0.8,1.8,1.2,3.9,1.2,6.1s-0.4,4.3-1.2,6.2
			c-0.8,1.9-1.9,3.4-3.3,4.8c-1.4,1.3-3.1,2.3-5,3c-1.9,0.7-4,1.1-6.2,1.1c-2.2,0-4.3-0.4-6.2-1.1c-1.9-0.7-3.6-1.7-5-3
			c-1.4-1.3-2.5-2.9-3.3-4.8C212.7,728.2,212.3,726.1,212.3,723.9z M222.3,723.9c0,0.9,0.1,1.8,0.4,2.5c0.3,0.8,0.7,1.4,1.2,2
			c0.5,0.6,1.1,1,1.8,1.3c0.7,0.3,1.4,0.5,2.2,0.5c0.8,0,1.5-0.2,2.2-0.5c0.7-0.3,1.3-0.7,1.8-1.3c0.5-0.6,0.9-1.2,1.2-2
			c0.3-0.8,0.4-1.6,0.4-2.5c0-0.9-0.1-1.7-0.4-2.5c-0.3-0.8-0.7-1.4-1.2-1.9c-0.5-0.5-1.1-0.9-1.8-1.2c-0.7-0.3-1.4-0.4-2.2-0.4
			c-0.8,0-1.5,0.1-2.2,0.4c-0.7,0.3-1.3,0.7-1.8,1.2c-0.5,0.5-0.9,1.2-1.2,1.9C222.5,722.1,222.3,723,222.3,723.9z"/>
		<path class="st8" d="M257.1,729v9.1h-9.4v-28.2h12.1c1.4,0,2.8,0.2,4.2,0.5c1.4,0.3,2.6,0.8,3.7,1.6c1.1,0.7,2,1.7,2.6,2.9
			c0.7,1.2,1,2.7,1,4.6c0,1.8-0.3,3.2-1,4.5c-0.7,1.2-1.5,2.2-2.6,3c-1.1,0.8-2.3,1.3-3.7,1.7c-1.4,0.3-2.8,0.5-4.3,0.5L257.1,729
			L257.1,729z M257.1,717.3v4.5h2c0.7,0,1.4-0.2,2-0.5c0.6-0.4,0.9-1,0.9-1.8c0-0.5-0.1-0.8-0.2-1.1s-0.4-0.5-0.7-0.7
			c-0.3-0.2-0.6-0.3-0.9-0.3c-0.3-0.1-0.7-0.1-1-0.1L257.1,717.3L257.1,717.3z"/>
		<path class="st8" d="M293.7,720l-4.7,3.3l-4.5-6.9l10-6.4h8.8v28.2h-9.6L293.7,720L293.7,720z"/>
		<path class="st8" d="M336,728.6c0,2-0.4,3.6-1.1,4.9s-1.6,2.4-2.8,3.2s-2.4,1.4-3.8,1.7c-1.4,0.3-2.8,0.5-4.1,0.5
			c-1.4,0-2.8-0.2-4.2-0.6c-1.4-0.4-2.6-1-3.8-1.7c-1.1-0.7-2.1-1.7-2.9-2.7s-1.3-2.3-1.6-3.7l8.8-2.2c0.2,0.8,0.6,1.4,1.2,2
			c0.6,0.6,1.4,0.9,2.3,0.9c0.7,0,1.3-0.2,1.8-0.5s0.8-0.9,0.8-1.7c0-0.5-0.2-0.9-0.5-1.2c-0.3-0.3-0.7-0.6-1.2-0.7
			c-0.5-0.2-1-0.3-1.6-0.4c-0.6-0.1-1.2-0.1-1.8-0.1c-0.4,0-0.9,0-1.5,0.1c-0.6,0-1.2,0.1-1.9,0.2c-0.7,0.1-1.3,0.2-2,0.3
			c-0.7,0.1-1.3,0.2-1.9,0.3l1-17.3h19.2v7.9h-11.2l-0.2,2c0.4-0.1,0.7-0.1,1.1-0.1c0.4,0,0.7-0.1,1-0.1c1.5,0,2.8,0.2,4.2,0.5
			c1.3,0.3,2.5,0.9,3.5,1.6c1,0.7,1.8,1.7,2.4,2.8C335.7,725.7,336,727.1,336,728.6z"/>
		<path class="st8" d="M350.6,738.1v-28.2h10.5c2.2,0,4.4,0.2,6.4,0.7c2,0.4,3.8,1.2,5.4,2.3c1.6,1.1,2.8,2.5,3.7,4.3
			c0.9,1.8,1.4,4,1.4,6.7c0,2.5-0.4,4.6-1.3,6.4c-0.9,1.8-2.1,3.3-3.6,4.4c-1.5,1.2-3.2,2-5.1,2.6c-1.9,0.6-4,0.8-6.1,0.8
			L350.6,738.1L350.6,738.1z M359.7,718v12h1.8c2.2,0,3.9-0.5,5.1-1.4c1.2-1,1.8-2.5,1.8-4.7c0-1.8-0.6-3.3-1.8-4.3
			c-1.2-1-2.8-1.5-4.8-1.5H359.7z"/>
		<path class="st8" d="M382,709.9h19.4v7.9h-10.5v2.4h9.8v7.4h-9.8v2.6h11.2v7.9H382V709.9z"/>
		<path class="st8" d="M415.3,738.9c-1.1,0-2.3-0.1-3.4-0.3c-1.1-0.2-2.2-0.5-3.2-0.9c-1-0.4-2-0.8-2.9-1.3
			c-0.9-0.5-1.7-1.1-2.4-1.7l5.8-6.3c0.7,0.7,1.5,1.4,2.6,1.9c1.1,0.6,2.2,0.8,3.4,0.8c0.5,0,1-0.1,1.5-0.3c0.4-0.2,0.7-0.5,0.7-1
			c0-0.3-0.1-0.5-0.2-0.7c-0.1-0.2-0.4-0.4-0.8-0.6c-0.4-0.2-0.9-0.4-1.5-0.7c-0.7-0.2-1.5-0.5-2.4-0.8c-1-0.3-1.9-0.7-2.8-1.1
			c-0.9-0.4-1.7-1-2.3-1.6c-0.7-0.6-1.2-1.4-1.6-2.3c-0.4-0.9-0.6-2-0.6-3.2c0-1.8,0.4-3.2,1.1-4.5c0.7-1.2,1.6-2.2,2.8-3
			c1.1-0.8,2.4-1.4,3.8-1.7c1.4-0.3,2.8-0.5,4.2-0.5c1.9,0,3.8,0.4,5.7,1.1c1.9,0.7,3.6,1.8,5.1,3.1l-5.9,6
			c-0.6-0.8-1.4-1.4-2.4-1.8s-1.8-0.6-2.5-0.6c-0.7,0-1.2,0.1-1.7,0.3c-0.4,0.2-0.6,0.5-0.6,1c0,0.4,0.2,0.7,0.7,1
			c0.4,0.2,1.1,0.5,2.1,0.8c1,0.3,2.1,0.7,3.2,1.1c1.1,0.4,2.1,1,3.1,1.7s1.7,1.5,2.3,2.5s0.9,2.2,0.9,3.7c0,1.7-0.3,3.2-1,4.4
			c-0.7,1.3-1.6,2.3-2.7,3.1c-1.1,0.8-2.3,1.5-3.7,1.9C418.1,738.7,416.7,738.9,415.3,738.9z"/>
		<path class="st8" d="M449,722.2l0.4,15.9h-8.8v-28.2H453l5.1,15.2h0.2l4.4-15.2h12.8v28.2h-9.2l0.3-15.9l-0.2,0l-5.3,15.9h-6.7
			l-5.2-15.9H449z"/>
		<path class="st8" d="M480.7,709.9h19.4v7.9h-10.5v2.4h9.8v7.4h-9.8v2.6h11.2v7.9h-20.1V709.9z"/>
		<path class="st8" d="M504.7,709.9h9.6v28.2h-9.6V709.9z"/>
		<path class="st8" d="M519.6,709.9h9.6v20h9.4v8.2h-18.9L519.6,709.9L519.6,709.9z"/>
		<path class="st8" d="M541.4,709.9h9.6v20h9.4v8.2h-18.9L541.4,709.9L541.4,709.9z"/>
		<path class="st8" d="M563.3,709.9h19.4v7.9h-10.5v2.4h9.8v7.4h-9.8v2.6h11.2v7.9h-20.1V709.9z"/>
		<path class="st8" d="M600,738.9c-2.2,0-4.1-0.3-5.8-0.9c-1.6-0.6-3-1.4-4.1-2.5c-1.1-1.1-1.9-2.3-2.4-3.8c-0.5-1.4-0.8-3-0.8-4.7
			v-17.1h9.5V726c0,1.4,0.3,2.4,1,3.2c0.7,0.8,1.6,1.1,2.8,1.1s2.1-0.4,2.8-1.1c0.6-0.8,1-1.8,1-3.2v-16.1h9.4v17.1
			c0,1.7-0.3,3.2-0.9,4.7c-0.6,1.4-1.4,2.7-2.5,3.8c-1.1,1.1-2.5,1.9-4.2,2.5C604.2,738.6,602.2,738.9,600,738.9z"/>
		<path class="st8" d="M618.2,709.9h12.2c1.4,0,2.8,0.1,4.1,0.4c1.4,0.3,2.6,0.8,3.7,1.5c1.1,0.7,1.9,1.6,2.6,2.8
			c0.7,1.2,1,2.7,1,4.4c0,1.7-0.4,3.2-1.3,4.6c-0.8,1.3-2.1,2.3-3.7,3l7.2,11.4h-10.9l-5.4-10.1h-0.3v10.1h-9.2V709.9z M627.4,721.8
			h1.9c0.3,0,0.7,0,1-0.1c0.4-0.1,0.7-0.2,1.1-0.3c0.3-0.2,0.6-0.4,0.8-0.7c0.2-0.3,0.3-0.7,0.3-1.2c0-0.5-0.1-0.9-0.3-1.2
			s-0.4-0.5-0.7-0.7c-0.3-0.1-0.6-0.2-0.9-0.3c-0.3,0-0.7-0.1-0.9-0.1h-2.3L627.4,721.8L627.4,721.8z"/>
		<path class="st8" d="M646.7,709.9h19.4v7.9h-10.5v2.4h9.8v7.4h-9.8v2.6h11.2v7.9h-20.1V709.9z"/>
		<path class="st8" d="M680,738.9c-1.1,0-2.3-0.1-3.4-0.3c-1.1-0.2-2.2-0.5-3.2-0.9c-1-0.4-2-0.8-2.9-1.3c-0.9-0.5-1.7-1.1-2.4-1.7
			l5.8-6.3c0.7,0.7,1.5,1.4,2.6,1.9s2.2,0.8,3.4,0.8c0.5,0,1-0.1,1.5-0.3c0.4-0.2,0.7-0.5,0.7-1c0-0.3-0.1-0.5-0.2-0.7
			c-0.1-0.2-0.4-0.4-0.8-0.6c-0.4-0.2-0.9-0.4-1.5-0.7c-0.6-0.2-1.5-0.5-2.4-0.8c-1-0.3-1.9-0.7-2.8-1.1c-0.9-0.4-1.7-1-2.3-1.6
			c-0.7-0.6-1.2-1.4-1.6-2.3c-0.4-0.9-0.6-2-0.6-3.2c0-1.8,0.4-3.2,1.1-4.5c0.7-1.2,1.6-2.2,2.8-3c1.1-0.8,2.4-1.4,3.8-1.7
			c1.4-0.3,2.8-0.5,4.2-0.5c1.9,0,3.8,0.4,5.7,1.1c1.9,0.7,3.6,1.8,5.1,3.1l-5.9,6c-0.6-0.8-1.4-1.4-2.4-1.8
			c-0.9-0.4-1.8-0.6-2.5-0.6c-0.7,0-1.2,0.1-1.7,0.3c-0.4,0.2-0.6,0.5-0.6,1c0,0.4,0.2,0.7,0.7,1c0.4,0.2,1.1,0.5,2.1,0.8
			c1,0.3,2.1,0.7,3.2,1.1c1.1,0.4,2.1,1,3.1,1.7c0.9,0.7,1.7,1.5,2.3,2.5c0.6,1,0.9,2.2,0.9,3.7c0,1.7-0.3,3.2-1,4.4
			c-0.7,1.3-1.6,2.3-2.7,3.1c-1.1,0.8-2.3,1.5-3.7,1.9C682.8,738.7,681.4,738.9,680,738.9z"/>
		<path class="st8" d="M16.3,757.7h10.1l11,28.2H27.1l-1.5-4.1h-9l-1.4,4.1h-10L16.3,757.7z M21.2,767.6l-2.3,7h4.6L21.2,767.6z"/>
		<path class="st8" d="M53,786.7c-2.2,0-4.3-0.3-6.2-1c-1.9-0.7-3.5-1.7-4.9-3c-1.4-1.3-2.5-2.8-3.3-4.7c-0.8-1.8-1.2-3.9-1.2-6.1
			c0-2.3,0.4-4.3,1.2-6.1c0.8-1.8,1.9-3.4,3.3-4.7c1.4-1.3,3-2.3,4.9-3c1.9-0.7,3.9-1.1,6-1.1c2.2,0,4.3,0.4,6.3,1.1
			c2,0.7,3.6,1.7,4.8,2.9l-5.5,6.7c-0.6-0.7-1.3-1.2-2.1-1.7c-0.8-0.4-1.8-0.6-2.9-0.6c-0.8,0-1.5,0.2-2.3,0.5
			c-0.7,0.3-1.4,0.7-1.9,1.3c-0.6,0.6-1,1.3-1.4,2.1c-0.3,0.8-0.5,1.7-0.5,2.7c0,2,0.5,3.6,1.5,4.8c1,1.2,2.7,1.9,4.9,1.9
			c0.4,0,0.8,0,1.2-0.1c0.4-0.1,0.8-0.2,1-0.3v-2.2h-4.5v-7.5h13v15.4c-0.7,0.4-1.4,0.8-2.3,1.1c-0.9,0.3-1.8,0.6-2.8,0.9
			c-1,0.2-2,0.4-3,0.6C55.2,786.6,54.1,786.7,53,786.7z"/>
		<path class="st8" d="M69.1,757.7h19.4v7.9H78v2.4h9.8v7.4H78v2.6h11.2v7.9H69.1V757.7z"/>
		<path class="st8" d="M93.1,757.7h9.4l8,14.3h0.2l-0.4-14.3h9V786h-9.7l-7.8-13.5h-0.2l0.4,13.5h-9L93.1,757.7L93.1,757.7z"/>
		<path class="st8" d="M123.3,771.8c0-2.3,0.4-4.3,1.2-6.1c0.8-1.8,1.9-3.4,3.3-4.7c1.4-1.3,3-2.3,4.9-3c1.9-0.7,3.9-1.1,6-1.1
			c2.2,0,4.2,0.4,6.2,1.1c1.9,0.7,3.6,1.7,4.9,2.9l-5.8,7c-0.5-0.7-1.2-1.2-2-1.6c-0.8-0.4-1.7-0.5-2.7-0.5c-0.8,0-1.5,0.1-2.2,0.4
			c-0.7,0.3-1.3,0.7-1.8,1.2c-0.5,0.5-0.9,1.2-1.2,1.9c-0.3,0.8-0.4,1.6-0.4,2.5c0,0.9,0.2,1.8,0.5,2.5c0.3,0.7,0.7,1.4,1.2,1.9
			c0.5,0.5,1.1,0.9,1.8,1.2s1.4,0.4,2.2,0.4c1.1,0,2-0.2,2.8-0.7c0.8-0.5,1.4-1,1.9-1.6l5.8,7c-1.3,1.3-2.8,2.3-4.7,3
			c-1.9,0.8-4,1.1-6.3,1.1c-2.1,0-4.1-0.4-6-1.1c-1.9-0.7-3.5-1.7-4.9-3c-1.4-1.3-2.5-2.9-3.3-4.7
			C123.7,776.1,123.3,774.1,123.3,771.8z"/>
		<path class="st8" d="M152.3,757.7h19.4v7.9h-10.5v2.4h9.8v7.4h-9.8v2.6h11.2v7.9h-20.1V757.7z"/>
		<path class="st8" d="M185.6,786.7c-1.1,0-2.3-0.1-3.4-0.3c-1.1-0.2-2.2-0.5-3.2-0.9s-2-0.8-2.9-1.3c-0.9-0.5-1.7-1.1-2.4-1.7
			l5.8-6.3c0.7,0.7,1.5,1.4,2.6,1.9c1.1,0.6,2.2,0.8,3.4,0.8c0.5,0,1-0.1,1.5-0.3c0.4-0.2,0.7-0.5,0.7-1c0-0.3-0.1-0.5-0.2-0.7
			c-0.1-0.2-0.4-0.4-0.8-0.6c-0.4-0.2-0.9-0.4-1.5-0.7c-0.7-0.2-1.5-0.5-2.4-0.8c-1-0.3-1.9-0.7-2.8-1.1s-1.7-1-2.3-1.6
			c-0.7-0.6-1.2-1.4-1.6-2.3c-0.4-0.9-0.6-2-0.6-3.2c0-1.8,0.4-3.2,1.1-4.5c0.7-1.2,1.6-2.2,2.8-3c1.1-0.8,2.4-1.4,3.8-1.7
			c1.4-0.3,2.8-0.5,4.2-0.5c1.9,0,3.8,0.4,5.7,1.1c1.9,0.7,3.6,1.8,5.1,3.1l-5.9,6c-0.6-0.8-1.4-1.4-2.4-1.8
			c-0.9-0.4-1.8-0.6-2.5-0.6c-0.7,0-1.2,0.1-1.7,0.3c-0.4,0.2-0.6,0.5-0.6,1c0,0.4,0.2,0.7,0.7,1s1.1,0.5,2.1,0.8
			c1,0.3,2.1,0.7,3.2,1.1c1.1,0.4,2.1,1,3.1,1.7c0.9,0.7,1.7,1.5,2.3,2.5c0.6,1,0.9,2.2,0.9,3.7c0,1.7-0.3,3.2-1,4.4
			c-0.7,1.3-1.6,2.3-2.7,3.1c-1.1,0.8-2.3,1.5-3.7,1.9C188.4,786.5,187,786.7,185.6,786.7z"/>
		<path class="st8" d="M225.1,786h-9.6l-7.7-28.2h10l3,15.9h0.2l3.3-15.9h9.9l3.5,15.9h0.2l3.1-15.9h9.7l-7.8,28.2h-9.6l-4-15.9
			h-0.2L225.1,786z"/>
		<path class="st8" d="M253.3,757.7h19.4v7.9h-10.5v2.4h9.8v7.4h-9.8v2.6h11.2v7.9h-20.1V757.7z"/>
		<path class="st8" d="M295.8,771.3c0.7,0.2,1.3,0.4,2,0.8c0.6,0.4,1.2,0.8,1.7,1.4c0.5,0.5,0.9,1.2,1.2,1.9
			c0.3,0.7,0.4,1.5,0.4,2.4c0,1.5-0.3,2.8-0.9,3.9c-0.6,1.1-1.4,1.9-2.5,2.6c-1,0.6-2.2,1.1-3.5,1.4c-1.3,0.3-2.7,0.4-4,0.4h-12.8
			v-28.2H289c1.1,0,2.4,0.1,3.6,0.3c1.3,0.2,2.5,0.5,3.6,1c1.1,0.5,2,1.3,2.7,2.3c0.7,1,1.1,2.3,1.1,3.9c0,1.5-0.4,2.8-1.1,3.7
			c-0.8,1-1.8,1.7-3,2.2L295.8,771.3L295.8,771.3z M286.2,765.1v3.5h2.6c0.7,0,1.2-0.2,1.6-0.5c0.4-0.3,0.6-0.8,0.6-1.4
			c0-0.5-0.2-0.9-0.7-1.2c-0.5-0.3-1-0.4-1.8-0.4L286.2,765.1L286.2,765.1z M286.2,774.7v3.8h2.8c0.7,0,1.3-0.2,1.8-0.5
			c0.5-0.3,0.7-0.8,0.7-1.5c0-0.4-0.1-0.7-0.3-0.9c-0.2-0.2-0.4-0.4-0.7-0.6c-0.3-0.1-0.6-0.2-0.9-0.3c-0.3-0.1-0.6-0.1-0.9-0.1
			L286.2,774.7L286.2,774.7L286.2,774.7z"/>
		<path class="st8" d="M315,786v-28.2h10.5c2.2,0,4.4,0.2,6.4,0.7c2,0.4,3.8,1.2,5.4,2.3c1.6,1.1,2.8,2.5,3.7,4.3
			c0.9,1.8,1.4,4,1.4,6.7c0,2.5-0.4,4.6-1.3,6.4c-0.9,1.8-2.1,3.3-3.6,4.4c-1.5,1.2-3.2,2-5.1,2.6c-1.9,0.6-4,0.8-6.1,0.8H315
			L315,786z M324.1,765.8v12h1.8c2.2,0,3.9-0.5,5.1-1.4s1.8-2.5,1.8-4.7c0-1.8-0.6-3.3-1.8-4.3c-1.2-1-2.8-1.5-4.8-1.5L324.1,765.8
			L324.1,765.8z"/>
		<path class="st8" d="M346.4,757.7h19.4v7.9h-10.5v2.4h9.8v7.4h-9.8v2.6h11.2v7.9h-20.1V757.7z"/>
		<path class="st8" d="M389.6,768.6h8.6v7.8h-8.6v9.6h-9.3v-28.2h19v7.9h-9.8V768.6z"/>
		<path class="st8" d="M403.5,757.7h12.2c1.4,0,2.8,0.1,4.1,0.4c1.4,0.3,2.6,0.8,3.7,1.5c1.1,0.7,1.9,1.6,2.6,2.8
			c0.7,1.2,1,2.7,1,4.4c0,1.7-0.4,3.2-1.3,4.6c-0.8,1.3-2.1,2.3-3.7,3l7.2,11.4h-10.9l-5.4-10.1h-0.3V786h-9.2V757.7z M412.6,769.7
			h1.9c0.3,0,0.7,0,1-0.1c0.4-0.1,0.7-0.2,1.1-0.3c0.3-0.2,0.6-0.4,0.8-0.7c0.2-0.3,0.3-0.7,0.3-1.2c0-0.5-0.1-0.9-0.3-1.2
			s-0.4-0.5-0.7-0.7c-0.3-0.1-0.6-0.2-0.9-0.3c-0.3,0-0.7-0.1-0.9-0.1h-2.3L412.6,769.7L412.6,769.7z"/>
		<path class="st8" d="M439.8,757.7h10.1l11,28.2h-10.3l-1.5-4.1h-9l-1.4,4.1h-10L439.8,757.7z M444.7,767.6l-2.3,7h4.6L444.7,767.6
			z"/>
		<path class="st8" d="M462.9,757.7h9.4l8.1,14.3h0.2l-0.4-14.3h9V786h-9.7l-7.8-13.5h-0.2l0.4,13.5h-9L462.9,757.7L462.9,757.7z"/>
		<path class="st8" d="M493.1,771.8c0-2.3,0.4-4.3,1.2-6.1c0.8-1.8,1.9-3.4,3.3-4.7c1.4-1.3,3-2.3,4.9-3c1.9-0.7,3.9-1.1,6-1.1
			c2.2,0,4.2,0.4,6.2,1.1c1.9,0.7,3.6,1.7,4.9,2.9l-5.8,7c-0.5-0.7-1.2-1.2-2-1.6c-0.8-0.4-1.7-0.5-2.7-0.5c-0.8,0-1.5,0.1-2.2,0.4
			c-0.7,0.3-1.3,0.7-1.8,1.2c-0.5,0.5-0.9,1.2-1.2,1.9c-0.3,0.8-0.4,1.6-0.4,2.5c0,0.9,0.2,1.8,0.5,2.5c0.3,0.7,0.7,1.4,1.2,1.9
			c0.5,0.5,1.1,0.9,1.8,1.2c0.7,0.3,1.4,0.4,2.2,0.4c1.1,0,2-0.2,2.8-0.7c0.8-0.5,1.4-1,1.9-1.6l5.8,7c-1.3,1.3-2.8,2.3-4.7,3
			c-1.9,0.8-4,1.1-6.3,1.1c-2.1,0-4.1-0.4-6-1.1c-1.9-0.7-3.5-1.7-4.9-3c-1.4-1.3-2.5-2.9-3.3-4.7
			C493.5,776.1,493.1,774.1,493.1,771.8z"/>
		<path class="st8" d="M522.1,757.7h19.4v7.9H531v2.4h9.8v7.4H531v2.6h11.2v7.9h-20.1V757.7z"/>
		<path class="st8" d="M567.3,769.7c0.5-0.3,0.8-0.7,1.1-1.2c0.3-0.4,0.4-0.9,0.4-1.3c0-0.5-0.2-1-0.5-1.4c-0.3-0.4-0.9-0.6-1.6-0.6
			c-0.8,0-1.4,0.3-1.9,0.9c-0.5,0.6-0.8,1.4-0.8,2.5l-9-1c0.2-1.8,0.7-3.4,1.4-4.7c0.8-1.3,1.7-2.4,2.9-3.3c1.2-0.9,2.4-1.5,3.9-1.9
			c1.4-0.4,2.9-0.6,4.4-0.6c1.4,0,2.8,0.2,4.1,0.5c1.4,0.3,2.6,0.9,3.6,1.6c1.1,0.7,1.9,1.7,2.6,2.8s1,2.6,1,4.2
			c0,1.2-0.2,2.2-0.5,3.1c-0.3,0.9-0.7,1.7-1.2,2.4c-0.5,0.7-1.1,1.3-1.8,1.9c-0.7,0.6-1.3,1.1-2.1,1.6l-4.1,2.9h9.7v7.9h-22.9v-7.4
			L567.3,769.7z"/>
		<path class="st8" d="M595.3,786.7c-1.7,0-3.2-0.2-4.5-0.7c-1.3-0.5-2.4-1.1-3.3-1.8s-1.7-1.7-2.3-2.7c-0.6-1-1.1-2.1-1.5-3.2
			c-0.4-1.1-0.6-2.2-0.8-3.4c-0.1-1.1-0.2-2.2-0.2-3.3c0-1,0.1-2.1,0.2-3.3c0.1-1.1,0.4-2.3,0.8-3.3c0.4-1.1,0.9-2.1,1.5-3.1
			c0.6-1,1.4-1.8,2.3-2.6c0.9-0.7,2-1.3,3.3-1.8c1.3-0.4,2.8-0.7,4.5-0.7c2.6,0,4.7,0.5,6.4,1.4c1.6,0.9,2.9,2.1,3.9,3.6
			c0.9,1.4,1.6,3,1.9,4.8c0.3,1.7,0.5,3.4,0.5,5c0,1-0.1,2.1-0.2,3.3c-0.1,1.2-0.4,2.3-0.8,3.4c-0.4,1.1-0.8,2.2-1.5,3.2
			c-0.6,1-1.4,1.9-2.3,2.7c-0.9,0.8-2.1,1.4-3.4,1.8C598.6,786.5,597,786.7,595.3,786.7z M595.3,765.1c-0.6,0-1.1,0.2-1.4,0.6
			c-0.4,0.4-0.7,0.9-0.9,1.6c-0.2,0.6-0.4,1.3-0.4,2.1c-0.1,0.8-0.1,1.5-0.1,2.3c0,0.8,0,1.6,0.1,2.4s0.2,1.5,0.4,2.2
			c0.2,0.7,0.5,1.2,0.9,1.6c0.4,0.4,0.9,0.6,1.4,0.6s1.1-0.2,1.5-0.6c0.4-0.4,0.7-0.9,0.9-1.6c0.2-0.7,0.3-1.4,0.4-2.2
			c0.1-0.8,0.1-1.6,0.1-2.4c0-0.7,0-1.5-0.1-2.3c-0.1-0.8-0.2-1.5-0.4-2.1c-0.2-0.6-0.5-1.2-0.9-1.6
			C596.4,765.3,595.9,765.1,595.3,765.1z"/>
		<path class="st8" d="M623.1,769.7c0.5-0.3,0.8-0.7,1.1-1.2c0.3-0.4,0.4-0.9,0.4-1.3c0-0.5-0.2-1-0.5-1.4c-0.3-0.4-0.9-0.6-1.6-0.6
			c-0.8,0-1.4,0.3-1.9,0.9c-0.5,0.6-0.8,1.4-0.8,2.5l-9-1c0.2-1.8,0.7-3.4,1.4-4.7c0.8-1.3,1.7-2.4,2.9-3.3c1.2-0.9,2.4-1.5,3.9-1.9
			c1.4-0.4,2.9-0.6,4.4-0.6c1.4,0,2.8,0.2,4.1,0.5c1.4,0.3,2.6,0.9,3.6,1.6c1.1,0.7,1.9,1.7,2.6,2.8s1,2.6,1,4.2
			c0,1.2-0.2,2.2-0.5,3.1c-0.3,0.9-0.7,1.7-1.2,2.4s-1.1,1.3-1.8,1.9c-0.7,0.6-1.3,1.1-2.1,1.6L625,778h9.7v7.9h-22.9v-7.4
			L623.1,769.7z"/>
		<path class="st8" d="M648.6,767.8l-4.7,3.3l-4.5-6.9l10-6.4h8.8V786h-9.6L648.6,767.8L648.6,767.8z"/>
	</g>
	<g>
		<g>
			<g>
				<path class="st2" d="M151.2,408.3c-6.2-2.2-10.4-8.9-10.9-17c-0.4-5.4,0.7-11.2,1.8-16.8c1.1-5.6,2.1-11.2,1.7-15.9
					c5.8,3.7,11,9.6,12.3,18.2C157.5,385.4,154.4,397.1,151.2,408.3z"/>
				<path class="st2" d="M149.6,411.6c-5.3-4.5-12.4-5.8-20-4c-5,1.2-10.1,3.9-15.2,6.1c-5.1,2.3-10.4,4.2-15.5,3.9
					c6.1,7.2,15.3,12.8,24.8,11.8C133.2,428.6,142.3,420.5,149.6,411.6z"/>
			</g>
			<g>
				<path class="st2" d="M122.4,386.7c-5.6-3.6-8.9-10.9-8.4-18.9c0.3-5.3,2-10.7,3.7-16c1.7-5.3,3.3-10.5,3.6-15.2
					c5.1,4.7,9.3,11.5,9.7,20.3C131.4,365.7,127.1,376.6,122.4,386.7z"/>
				<path class="st2" d="M120.3,389.5c-4.3-5.5-11-8.2-18.5-7.9c-4.9,0.2-10.2,1.8-15.2,3c-5.1,1.2-10.5,2.1-15.3,0.7
					c4.9,8.4,13,15.5,22.1,16.3C102.5,402.5,112,396.4,120.3,389.5z"/>
			</g>
			<g>
				<path class="st2" d="M97.5,359.8c-5-4.6-7.1-12.4-5.6-20.2c0.9-5.1,3.3-10.1,5.6-14.9c2.3-4.8,4.5-9.5,5.5-14
					c2,2.9,3.9,6.1,5,9.8c0.5,1.9,1.1,3.7,1.3,5.7c0.3,2,0.2,4.1,0.1,6.3C108.6,341.1,103.1,350.9,97.5,359.8z"/>
				<path class="st2" d="M95.1,362.1c-3.5-6.1-9.5-10.2-16.6-11.5c-4.8-0.8-9.8-0.4-14.8-0.4c-5,0.1-10.2-0.3-14.5-2.7
					c1.7,4.7,4.4,9.2,7.5,13c1.6,1.9,3.4,3.5,5.3,4.9c1.9,1.3,3.9,2.5,6,3.1C76.5,371.2,86.4,367.2,95.1,362.1z"/>
			</g>
			<g>
				<path class="st2" d="M77.3,328.3c-2-2.8-3.3-6.2-3.6-9.9c-0.4-3.6,0-7.5,1.3-11.1c1.7-4.9,4.5-9.1,7.5-13.2
					c2.9-4.2,5.8-8.2,7.3-12.4c0.7,1.6,1.4,3.3,2,5.1c0.6,1.8,0.8,3.7,1.2,5.6c0.7,3.8,0.4,7.9-0.5,12
					C90.4,312.4,83.9,320.8,77.3,328.3z"/>
				<path class="st2" d="M74.8,330c-1.2-3.4-3.1-6.4-5.4-9c-2.4-2.5-5.3-4.6-8.5-6.1c-4.2-2-9.2-2.7-13.7-3.9
					c-4.6-1.2-9.3-2.8-13-6.2c0.4,2.5,1.1,5.1,1.9,7.5c0.8,2.5,1.7,5,3,7.1c2.5,4.4,5.5,8.3,9.4,10.6
					C56.1,334.8,65.9,333.1,74.8,330z"/>
			</g>
			<g>
				<path class="st2" d="M63.3,292.6c-1.3-3.3-1.9-7-1.7-10.7c0.3-3.7,1.4-7.4,3.1-10.7c2.2-4.3,5.9-7.9,9.2-11.3
					c3.3-3.4,6.6-6.7,8.8-10.6c0.4,1.8,0.5,3.7,0.8,5.6c0.2,1.9,0.3,3.9,0.2,5.8c-0.3,4-0.8,7.9-2.5,11.7c-1.8,3.8-4.2,7.3-7.4,10.7
					C70.7,286.6,67,289.7,63.3,292.6z"/>
				<path class="st2" d="M60.7,293.7c-0.4-3.7-1.7-7.1-3.5-10.2c-1.6-3.1-3.9-5.9-6.7-8.1c-3.7-2.9-7.7-5-11.8-7.2
					c-4.1-2.3-8.1-5-10.7-9.3c-0.1,2.6-0.1,5.3,0.3,7.9c0.4,2.6,0.9,5.3,1.5,7.8c1.2,5,3.8,9.5,6.7,12.8c2.9,3.3,7,5.1,11.2,6
					C51.9,294.1,56.4,294.1,60.7,293.7z"/>
			</g>
			<g>
				<path class="st2" d="M56.7,253.9c-0.6-3.6-0.7-7.3,0.3-11c0.9-3.6,2.5-7.1,4.7-9.9c2.9-3.8,6.8-6.5,10.4-9.2
					c3.6-2.7,7.2-5.3,9.9-8.8c0,1.9-0.2,4-0.3,5.9c-0.1,2-0.4,4-0.8,6c-0.4,2-1.1,4-1.7,5.8c-0.7,1.9-1.5,3.7-2.6,5.4
					C72,245.1,64.5,249.9,56.7,253.9z"/>
				<path class="st2" d="M54.1,254.3c0.3-3.8-0.5-7.4-1.4-11c-1-3.5-2.6-6.8-4.7-9.6c-2.7-3.8-6.1-6.7-9.4-9.8
					c-3.3-3.1-6.5-6.7-8.2-11.4c-0.5,2.5-1,5.1-1.1,7.8c-0.1,2.6-0.1,5.3,0,7.9c0.2,2.6,0.4,5.1,1.2,7.5c0.7,2.4,1.6,4.6,2.7,6.5
					C37.4,250.2,46.1,253.1,54.1,254.3z"/>
			</g>
			<g>
				<path class="st2" d="M57.4,213.8c0.1-3.7,0.7-7.5,2.1-10.9c1.5-3.4,3.6-6.5,6-9c3.2-3.3,7.2-5.3,11-7.3c3.8-2,7.6-4.1,10.4-7.2
					c-0.5,4-1.4,8.2-3,12.1c-0.8,2-1.5,3.9-2.5,5.7c-1,1.8-2.1,3.5-3.4,5C72.9,208.3,65.2,211.6,57.4,213.8z"/>
				<path class="st2" d="M55,213.7c0.9-3.7,0.9-7.5,0.6-11.2c-0.3-3.7-1.1-7.3-2.6-10.5c-2-4.3-4.6-7.8-7.1-11.5
					c-2.5-3.7-4.8-7.7-5.7-12.6c-1.6,4.7-2.8,10-3.4,15.1c-0.3,2.5-0.2,5.1,0,7.6c0.2,2.4,0.6,4.8,1.3,6.9
					C40.5,206,47.9,210.7,55,213.7z"/>
			</g>
			<g>
				<path class="st2" d="M64.7,174c0.6-3.7,2-7.3,3.8-10.5c1.8-3.2,4.1-6,6.9-8c3.6-2.7,7.5-4.1,11.2-5.5c3.6-1.4,7.5-2.8,10.8-5.2
					c-0.6,1.9-1.4,3.7-2.1,5.6c-0.7,1.9-1.5,3.8-2.5,5.6c-1.8,3.7-4.4,6.8-7.1,9.7C80.1,171.2,72.1,173.1,64.7,174z"/>
				<path class="st2" d="M62.5,173.4c1.4-3.5,2.2-7.3,2.4-11c0.2-3.7-0.2-7.5-0.8-10.8c-1-4.5-2.9-8.5-4.7-12.6
					c-1.8-4.1-3.1-8.5-2.9-13.6c-1.2,2.2-2.5,4.6-3.5,7.1c-0.9,2.5-1.7,5-2.3,7.6c-1.2,5.1-2,10.1-1.2,14.5
					C50.8,163.4,56.4,169.2,62.5,173.4z"/>
			</g>
			<g>
				<path class="st2" d="M77.9,135.5c1.2-3.5,2.9-7,5.2-9.7c2.4-2.7,5.1-5,7.9-6.5c3.6-2,7.6-2.5,11.3-3c3.8-0.5,7.4-1.1,10.8-2.9
					c-1.8,3.5-3.9,6.9-6.5,9.9c-1.3,1.5-2.5,3.1-3.8,4.4c-1.4,1.4-2.8,2.6-4.4,3.6c-3.2,2-6.5,3.1-9.9,3.8
					C85,135.7,81.3,135.7,77.9,135.5z"/>
				<path class="st2" d="M75.9,134.6c1.9-3.3,3.1-6.9,4.1-10.6c1-3.6,1.6-7.3,1.5-10.8c-0.1-4.8-1-9-1.5-13.3
					c-0.6-4.3-0.9-9,0.3-14.1c-3.2,3.9-6.2,8.5-8.6,13.2c-1.3,2.3-2,4.9-2.8,7.2c-0.7,2.4-1.2,4.8-1.4,7.1
					c-0.5,4.5,0.5,8.6,2.1,12.1C71.3,129,73.5,132,75.9,134.6z"/>
			</g>
			<g>
				<path class="st2" d="M97.5,100.3c2-3.1,4.5-5.9,7.1-8.2c2.6-2.4,5.8-3.7,8.7-4.6c3.9-1,7.4-0.9,11-0.5c3.6,0.3,7.2,0.6,10.7-0.5
					c-1.3,1.5-2.6,3-4,4.3c-1.4,1.4-3,2.6-4.5,3.9c-2.9,2.6-6.1,4.7-9.5,5.9C110.7,103.4,103.8,102.2,97.5,100.3z"/>
				<path class="st2" d="M95.9,99c2.5-2.7,4.6-5.9,6.3-9.3c1.6-3.5,3.1-6.7,3.9-10.1c1.1-4.5,1.1-9,1.7-13.1
					c0.5-4.2,1.3-8.7,3.6-13.2c-1.9,1.5-3.8,3.2-5.7,5c-1.8,1.8-3.7,3.6-5.3,5.7c-3.1,4.1-5.7,8.5-7.2,12.7
					C90.6,85.4,92.8,92.9,95.9,99z"/>
			</g>
			<g>
				<path class="st2" d="M123.8,70.6c2.5-2.7,5.5-4.7,8.5-6.4c3-1.7,6.2-2.5,9.1-2.6c3.9-0.2,7.2,0.5,10.5,1.5
					c3.3,0.9,6.7,1.8,10.4,1.3c-1.6,1.2-3.2,2.4-4.9,3.5c-1.7,1.1-3.5,2-5.2,3c-3.4,2-7,3.3-10.4,3.9
					C135.3,76.4,129,73.7,123.8,70.6z"/>
				<path class="st2" d="M122.7,69.1c2.9-2.2,5.6-4.6,7.9-7.5c2.3-2.9,4.4-5.8,5.9-8.8c2-4,3-8.2,4.4-12c1.3-3.9,3-7.9,6-11.6
					c-2,1.1-4.1,2.2-6.2,3.5c-2,1.3-4.1,2.6-6,4.3c-3.7,3.2-7.1,6.7-9.4,10.4C120.9,55,121.1,62.5,122.7,69.1z"/>
			</g>
			<g>
				<path class="st2" d="M154.9,47.6c2.9-2.1,6.2-3.5,9.3-4.6c3.2-1.1,6.4-1.3,9.2-1.1c3.8,0.4,6.8,1.5,10,2.8
					c3.1,1.3,6.3,2.4,10,2.4c-1.8,1-3.6,1.9-5.5,2.7c-1.9,0.9-3.8,1.5-5.7,2.3c-3.7,1.4-7.5,2.3-10.9,2.4
					C164.7,55,159.3,51.4,154.9,47.6z"/>
				<path class="st2" d="M154.2,46c3.1-1.6,6.2-3.4,9-5.7c2.7-2.3,5.2-4.7,7.2-7.3c2.6-3.4,4.3-7.2,6.2-10.5c1.9-3.4,4-6.9,7.3-9.9
					c-2.1,0.7-4.2,1.5-6.3,2.4c-2.1,0.9-4.2,1.8-6.2,3.1c-4,2.4-7.7,5.1-10.5,8.2C155.4,32.5,154.1,39.5,154.2,46z"/>
			</g>
			<g>
				<path class="st2" d="M188.9,30.6c6.3-3.1,13.3-4.4,18.9-3.4c3.7,0.6,6.6,2,9.5,3.4c2.9,1.4,6,2.6,9.8,2.8
					c-7.5,3.1-16.2,5.7-23,5.3C197.3,38.5,192.6,34.7,188.9,30.6z"/>
				<path class="st2" d="M188.5,29c6.6-2,13-6,17.4-10.4c3-2.9,5-6.1,7.2-9.1c2.2-3,4.5-6,8-8.5c-8.2,1.8-17.5,5.3-23.5,10.4
					C191.5,16.6,189.4,23,188.5,29z"/>
			</g>
		</g>
		<g>
			<g>
				<path class="st2" d="M436.9,408.3c6.2-2.2,10.4-8.9,10.9-17c0.4-5.4-0.7-11.2-1.8-16.8c-1.1-5.6-2.1-11.2-1.7-15.9
					c-5.8,3.7-11,9.6-12.3,18.2C430.6,385.4,433.7,397.1,436.9,408.3z"/>
				<path class="st2" d="M438.6,411.6c5.3-4.5,12.4-5.8,20-4c5,1.2,10.1,3.9,15.2,6.1c5.1,2.3,10.4,4.2,15.5,3.9
					c-6.1,7.2-15.3,12.8-24.8,11.8C455,428.6,445.8,420.5,438.6,411.6z"/>
			</g>
			<g>
				<path class="st2" d="M465.7,386.7c5.6-3.6,8.9-10.9,8.4-18.9c-0.3-5.3-2-10.7-3.7-16c-1.7-5.3-3.3-10.5-3.6-15.2
					c-5.1,4.7-9.3,11.5-9.7,20.3C456.8,365.7,461,376.6,465.7,386.7z"/>
				<path class="st2" d="M467.8,389.5c4.3-5.5,11-8.2,18.5-7.9c4.9,0.2,10.2,1.8,15.2,3c5.1,1.2,10.5,2.1,15.3,0.7
					c-4.9,8.4-13,15.5-22.1,16.3C485.6,402.5,476.1,396.4,467.8,389.5z"/>
			</g>
			<g>
				<path class="st2" d="M490.7,359.8c5-4.6,7.1-12.4,5.6-20.2c-0.9-5.1-3.3-10.1-5.6-14.9c-2.3-4.8-4.5-9.5-5.5-14
					c-2,2.9-3.9,6.1-5,9.8c-0.5,1.9-1.1,3.7-1.3,5.7c-0.3,2-0.2,4.1-0.1,6.3C479.6,341.1,485,350.9,490.7,359.8z"/>
				<path class="st2" d="M493,362.1c3.5-6.1,9.5-10.2,16.6-11.5c4.8-0.8,9.8-0.4,14.8-0.4c5,0.1,10.2-0.3,14.5-2.7
					c-1.7,4.7-4.4,9.2-7.5,13c-1.6,1.9-3.4,3.5-5.3,4.9c-1.9,1.3-3.9,2.5-6,3.1C511.6,371.2,501.7,367.2,493,362.1z"/>
			</g>
			<g>
				<path class="st2" d="M510.8,328.3c2-2.8,3.3-6.2,3.6-9.9c0.4-3.6,0-7.5-1.3-11.1c-1.7-4.9-4.5-9.1-7.5-13.2
					c-2.9-4.2-5.8-8.2-7.3-12.4c-0.7,1.6-1.4,3.3-2,5.1c-0.6,1.8-0.8,3.7-1.2,5.6c-0.7,3.8-0.4,7.9,0.5,12
					C497.8,312.4,504.2,320.8,510.8,328.3z"/>
				<path class="st2" d="M513.3,330c1.2-3.4,3.1-6.4,5.4-9c2.4-2.5,5.3-4.6,8.5-6.1c4.2-2,9.2-2.7,13.7-3.9c4.6-1.2,9.3-2.8,13-6.2
					c-0.4,2.5-1.1,5.1-1.9,7.5c-0.8,2.5-1.7,5-3,7.1c-2.5,4.4-5.5,8.3-9.4,10.6C532,334.8,522.2,333.1,513.3,330z"/>
			</g>
			<g>
				<path class="st2" d="M524.8,292.6c1.3-3.3,1.9-7,1.7-10.7c-0.3-3.7-1.4-7.4-3.1-10.7c-2.2-4.3-5.9-7.9-9.2-11.3
					c-3.3-3.4-6.6-6.7-8.8-10.6c-0.4,1.8-0.5,3.7-0.8,5.6c-0.2,1.9-0.3,3.9-0.2,5.8c0.3,4,0.8,7.9,2.5,11.7
					c1.8,3.8,4.2,7.3,7.4,10.7C517.4,286.6,521.1,289.7,524.8,292.6z"/>
				<path class="st2" d="M527.4,293.7c0.4-3.7,1.7-7.1,3.5-10.2c1.7-3.1,3.9-5.9,6.7-8.1c3.7-2.9,7.7-5,11.8-7.2
					c4.1-2.3,8.1-5,10.7-9.3c0.1,2.6,0.1,5.3-0.3,7.9c-0.3,2.6-0.9,5.3-1.5,7.8c-1.2,5-3.8,9.5-6.7,12.8c-2.9,3.3-7,5.1-11.2,6
					C536.2,294.1,531.7,294.1,527.4,293.7z"/>
			</g>
			<g>
				<path class="st2" d="M531.5,253.9c0.6-3.6,0.7-7.3-0.3-11c-0.9-3.6-2.5-7.1-4.7-9.9c-2.9-3.8-6.8-6.5-10.4-9.2
					c-3.6-2.7-7.2-5.3-9.9-8.8c0,1.9,0.2,4,0.3,5.9c0.1,2,0.4,4,0.8,6c0.4,2,1.1,4,1.7,5.8c0.7,1.9,1.5,3.7,2.6,5.4
					C516.1,245.1,523.6,249.9,531.5,253.9z"/>
				<path class="st2" d="M534,254.3c-0.3-3.8,0.5-7.4,1.4-11c1-3.5,2.6-6.8,4.7-9.6c2.7-3.8,6.1-6.7,9.4-9.8
					c3.3-3.1,6.5-6.7,8.2-11.4c0.5,2.5,1,5.1,1.1,7.8c0.1,2.6,0.1,5.3,0,7.9c-0.2,2.6-0.4,5.1-1.2,7.5c-0.7,2.4-1.6,4.6-2.7,6.5
					C550.7,250.2,542,253.1,534,254.3z"/>
			</g>
			<g>
				<path class="st2" d="M530.8,213.8c-0.1-3.7-0.7-7.5-2.2-10.9c-1.5-3.4-3.6-6.5-6-9c-3.2-3.3-7.2-5.3-11-7.3
					c-3.8-2-7.6-4.1-10.4-7.2c0.5,4,1.4,8.2,3,12.1c0.8,2,1.5,3.9,2.5,5.7c1,1.8,2.1,3.5,3.4,5C515.2,208.3,522.9,211.6,530.8,213.8
					z"/>
				<path class="st2" d="M533.2,213.7c-0.9-3.7-0.9-7.5-0.6-11.2c0.3-3.7,1.1-7.3,2.6-10.5c2-4.3,4.6-7.8,7.1-11.5
					c2.5-3.7,4.8-7.7,5.7-12.6c1.6,4.7,2.8,10,3.4,15.1c0.3,2.5,0.2,5.1,0,7.6c-0.2,2.4-0.6,4.8-1.3,6.9
					C547.6,206,540.2,210.7,533.2,213.7z"/>
			</g>
			<g>
				<path class="st2" d="M523.5,174c-0.6-3.7-2-7.3-3.8-10.5c-1.8-3.2-4.1-6-6.8-8c-3.6-2.7-7.5-4.1-11.2-5.5
					c-3.6-1.4-7.5-2.8-10.8-5.2c0.6,1.9,1.4,3.7,2.1,5.6c0.7,1.9,1.5,3.8,2.5,5.6c1.8,3.7,4.4,6.8,7.1,9.7
					C508,171.2,516,173.1,523.5,174z"/>
				<path class="st2" d="M525.7,173.4c-1.4-3.5-2.2-7.3-2.4-11c-0.2-3.7,0.2-7.5,0.8-10.8c1-4.5,2.9-8.5,4.7-12.6
					c1.8-4.1,3.1-8.5,2.9-13.6c1.2,2.2,2.5,4.6,3.5,7.1c0.9,2.5,1.7,5,2.3,7.6c1.2,5.1,2,10.1,1.2,14.5
					C537.4,163.4,531.7,169.2,525.7,173.4z"/>
			</g>
			<g>
				<path class="st2" d="M510.3,135.5c-1.2-3.5-2.9-7-5.2-9.7c-2.4-2.7-5.1-5-7.9-6.5c-3.6-2-7.6-2.5-11.3-3
					c-3.8-0.5-7.4-1.1-10.8-2.9c1.8,3.5,3.9,6.9,6.5,9.9c1.3,1.5,2.5,3.1,3.8,4.4c1.4,1.4,2.8,2.6,4.4,3.6c3.2,2,6.5,3.1,9.9,3.8
					C503.2,135.7,506.8,135.7,510.3,135.5z"/>
				<path class="st2" d="M512.2,134.6c-1.9-3.3-3.1-6.9-4.1-10.6c-1-3.6-1.6-7.3-1.5-10.8c0.1-4.8,1-9,1.5-13.3
					c0.6-4.3,0.9-9-0.3-14.1c3.2,3.9,6.2,8.5,8.6,13.2c1.3,2.3,2,4.9,2.8,7.2c0.7,2.4,1.2,4.8,1.4,7.1c0.5,4.5-0.5,8.6-2.1,12.1
					C516.8,129,514.6,132,512.2,134.6z"/>
			</g>
			<g>
				<path class="st2" d="M490.7,100.3c-2-3.1-4.5-5.9-7.1-8.2c-2.6-2.4-5.8-3.7-8.7-4.6c-3.9-1-7.4-0.9-11-0.5
					c-3.6,0.3-7.2,0.6-10.7-0.5c1.3,1.5,2.6,3,4,4.3c1.4,1.4,3,2.6,4.5,3.9c2.9,2.6,6.1,4.7,9.5,5.9
					C477.4,103.4,484.4,102.2,490.7,100.3z"/>
				<path class="st2" d="M492.2,99c-2.5-2.7-4.6-5.9-6.3-9.3c-1.6-3.5-3.1-6.7-3.9-10.1c-1.1-4.5-1.2-9-1.7-13.1
					c-0.5-4.2-1.3-8.7-3.6-13.2c1.9,1.5,3.8,3.2,5.7,5c1.8,1.8,3.7,3.6,5.3,5.7c3.1,4.1,5.7,8.5,7.2,12.7
					C497.5,85.4,495.3,92.9,492.2,99z"/>
			</g>
			<g>
				<path class="st2" d="M464.4,70.6c-2.5-2.7-5.5-4.7-8.5-6.4c-3-1.7-6.2-2.5-9.1-2.6c-3.9-0.2-7.2,0.5-10.5,1.5
					c-3.3,0.9-6.7,1.8-10.4,1.3c1.6,1.2,3.2,2.4,4.9,3.5c1.7,1.1,3.5,2,5.2,3c3.4,2,7,3.3,10.4,3.9
					C452.8,76.4,459.1,73.7,464.4,70.6z"/>
				<path class="st2" d="M465.5,69.1c-2.9-2.2-5.6-4.6-7.9-7.5c-2.3-2.9-4.4-5.8-5.9-8.8c-2-4-3-8.2-4.4-12c-1.3-3.9-3-7.9-6-11.6
					c2,1.1,4.1,2.2,6.2,3.5c2,1.3,4.1,2.6,6,4.3c3.7,3.2,7.1,6.7,9.4,10.4C467.2,55,467,62.5,465.5,69.1z"/>
			</g>
			<g>
				<path class="st2" d="M433.2,47.6c-2.9-2.1-6.2-3.5-9.3-4.6c-3.2-1.1-6.4-1.3-9.2-1.1c-3.8,0.4-6.8,1.5-10,2.8
					c-3.1,1.3-6.3,2.4-10,2.4c1.8,1,3.6,1.9,5.5,2.7c1.9,0.9,3.8,1.5,5.7,2.3c3.7,1.4,7.5,2.3,10.9,2.4
					C423.5,55,428.8,51.4,433.2,47.6z"/>
				<path class="st2" d="M433.9,46c-3.1-1.6-6.2-3.4-9-5.7c-2.7-2.3-5.2-4.7-7.2-7.3c-2.6-3.4-4.3-7.2-6.2-10.5
					c-1.9-3.4-4-6.9-7.3-9.9c2.1,0.7,4.2,1.5,6.3,2.4c2.1,0.9,4.2,1.8,6.2,3.1c4,2.4,7.7,5.1,10.5,8.2C432.8,32.5,434,39.5,433.9,46
					z"/>
			</g>
			<g>
				<path class="st2" d="M399.2,30.6c-6.3-3.1-13.3-4.4-18.9-3.4c-3.7,0.6-6.6,2-9.5,3.4c-2.9,1.4-6,2.6-9.8,2.8
					c7.5,3.1,16.2,5.7,23,5.3C390.8,38.5,395.6,34.7,399.2,30.6z"/>
				<path class="st2" d="M399.7,29c-6.6-2-13-6-17.4-10.4c-3-2.9-5-6.1-7.2-9.1c-2.2-3-4.5-6-8-8.5c8.2,1.8,17.5,5.3,23.5,10.4
					C396.6,16.6,398.8,23,399.7,29z"/>
			</g>
		</g>
	</g>
</g>
</svg>
