<?xml version="1.0" encoding="utf-8"?>
<!-- Generator: Adobe Illustrator 21.1.0, SVG Export Plug-In . SVG Version: 6.00 Build 0)  -->
<svg version="1.1" id="Calque_1" xmlns="http://www.w3.org/2000/svg" xmlns:xlink="http://www.w3.org/1999/xlink" x="0px" y="0px"
	 viewBox="0 0 602.1 820" style="enable-background:new 0 0 602.1 820;" xml:space="preserve">
<style type="text/css">
	.st0{fill:none;}
	.st1{enable-background:new    ;}
	.st2{fill:#010202;stroke:#010202;stroke-width:0.7;}
	.st3{fill:none;stroke:#020304;}
	.st4{fill:none;stroke:#FFFFFF;stroke-width:5;}
	.st5{fill:#FFFFFF;stroke:#FFFFFF;}
	.st6{fill:#FFFFFF;stroke:#FFFFFF;stroke-width:0.2;}
	.st7{fill:none;stroke:#FFFFFF;stroke-width:2;}
</style>
<rect x="-272.7" y="-141.1" class="st0" width="1924" height="918"/>
<g>
	<g class="st1">
		<path class="st2" d="M110.5,741.4h8.2v17.3h8.1v7h-16.3L110.5,741.4L110.5,741.4z"/>
		<path class="st2" d="M147.1,756.8c0,0.3,0,0.6,0,0.9c0,0.3,0,0.6-0.1,0.8h-12.2c0,0.3,0.1,0.6,0.3,0.9c0.2,0.3,0.4,0.5,0.7,0.7
			c0.3,0.2,0.6,0.3,1,0.4c0.4,0.1,0.7,0.1,1.1,0.1c0.7,0,1.3-0.1,1.8-0.4c0.5-0.3,0.9-0.6,1.1-0.9l5.6,2.9c-0.8,1.3-2,2.3-3.5,3.1
			c-1.5,0.8-3.3,1.1-5.3,1.1c-1.3,0-2.6-0.2-3.8-0.6c-1.2-0.4-2.3-1-3.3-1.8c-0.9-0.8-1.7-1.8-2.3-3c-0.6-1.2-0.9-2.6-0.9-4.2
			c0-1.5,0.3-2.8,0.8-4c0.5-1.2,1.2-2.2,2.1-3.1c0.9-0.8,2-1.5,3.2-1.9c1.2-0.5,2.5-0.7,3.9-0.7c1.4,0,2.7,0.2,3.9,0.7
			s2.2,1.2,3,2.1c0.8,0.9,1.5,1.9,1.9,3.1C146.9,754.1,147.1,755.4,147.1,756.8z M140.3,754.3c0-0.6-0.2-1.2-0.7-1.6
			c-0.5-0.4-1.1-0.6-1.9-0.6c-0.9,0-1.5,0.2-2,0.7s-0.8,1-0.8,1.5L140.3,754.3L140.3,754.3z"/>
		<path class="st2" d="M168.3,766.4c-1.5,0-2.9-0.2-4.2-0.7s-2.4-1.1-3.3-2c-0.9-0.8-1.7-1.9-2.2-3.1c-0.5-1.2-0.8-2.5-0.8-4
			c0-1.5,0.3-2.8,0.8-4c0.5-1.2,1.3-2.2,2.2-3.1c1-0.8,2.1-1.5,3.4-2c1.3-0.5,2.7-0.7,4.2-0.7c0.6,0,1.2,0.1,1.9,0.2
			c0.6,0.1,1.2,0.2,1.8,0.4c0.6,0.2,1.1,0.4,1.6,0.6c0.5,0.2,0.9,0.5,1.3,0.8l-3.9,5.7c-0.3-0.3-0.6-0.5-1.1-0.7
			c-0.4-0.2-0.9-0.2-1.3-0.2c-0.4,0-0.8,0.1-1.1,0.2c-0.4,0.1-0.7,0.3-1,0.6c-0.3,0.3-0.5,0.6-0.7,1c-0.2,0.4-0.3,0.8-0.3,1.3
			c0,0.5,0.1,0.9,0.3,1.3c0.2,0.4,0.4,0.7,0.7,0.9c0.3,0.2,0.6,0.4,1,0.5c0.4,0.1,0.7,0.2,1.1,0.2c0.5,0,0.9-0.1,1.3-0.3
			c0.4-0.2,0.8-0.4,1.1-0.7l4,5.5c-0.8,0.6-1.7,1.1-2.9,1.5C170.9,766.2,169.6,766.4,168.3,766.4z"/>
		<path class="st2" d="M196.4,756.6c0,1.6-0.3,2.9-0.8,4.2c-0.6,1.2-1.3,2.2-2.3,3.1c-0.9,0.8-2,1.5-3.3,1.9
			c-1.2,0.4-2.6,0.7-3.9,0.7c-1.3,0-2.6-0.2-3.9-0.7s-2.3-1.1-3.3-1.9c-0.9-0.8-1.7-1.9-2.2-3.1c-0.6-1.2-0.8-2.6-0.8-4.2
			c0-1.5,0.3-2.9,0.8-4.1c0.6-1.2,1.3-2.2,2.2-3c0.9-0.8,2-1.4,3.3-1.9c1.2-0.4,2.5-0.6,3.9-0.6c1.4,0,2.7,0.2,3.9,0.6
			c1.2,0.4,2.3,1,3.3,1.9c0.9,0.8,1.7,1.8,2.3,3C196.1,753.7,196.4,755.1,196.4,756.6z M186.1,753.6c-0.9,0-1.6,0.3-2.1,0.9
			c-0.5,0.6-0.8,1.3-0.8,2.1c0,0.8,0.3,1.6,0.8,2.2c0.6,0.6,1.3,0.9,2.1,0.9c0.9,0,1.6-0.3,2.1-0.9c0.6-0.6,0.8-1.3,0.8-2.2
			c0-0.8-0.3-1.5-0.8-2.1C187.7,753.9,186.9,753.6,186.1,753.6z"/>
		<path class="st2" d="M214.1,760c0,1.2-0.3,2.2-0.8,3.1c-0.5,0.8-1.2,1.5-1.9,2c-0.8,0.5-1.6,0.8-2.6,1.1c-0.9,0.2-1.8,0.3-2.7,0.3
			c-1.6,0-3.1-0.2-4.6-0.7c-1.5-0.4-2.8-1.1-3.9-1.9l3.9-4.5c0.5,0.5,1.2,0.9,1.9,1.2c0.7,0.3,1.5,0.5,2.1,0.5
			c0.3,0,0.5-0.1,0.8-0.2c0.2-0.1,0.4-0.3,0.4-0.6c0-0.3-0.2-0.5-0.6-0.7s-1.2-0.4-2.2-0.6c-0.6-0.1-1.2-0.3-1.8-0.6
			c-0.6-0.3-1.1-0.6-1.6-1c-0.5-0.4-0.9-1-1.2-1.6c-0.3-0.6-0.5-1.4-0.5-2.2c0-1.2,0.3-2.2,0.8-3c0.5-0.8,1.2-1.5,2-2
			c0.8-0.5,1.6-0.9,2.6-1.1c0.9-0.2,1.8-0.4,2.6-0.4c1.4,0,2.8,0.2,4.2,0.6c1.4,0.4,2.6,1,3.7,1.7l-3.7,4.4
			c-0.6-0.4-1.2-0.7-1.8-0.9c-0.6-0.2-1.2-0.3-1.8-0.3c-0.4,0-0.7,0.1-1,0.2c-0.3,0.1-0.4,0.3-0.4,0.6c0,0.2,0.1,0.4,0.4,0.5
			c0.3,0.1,0.9,0.3,2,0.5c0.7,0.1,1.4,0.4,2.1,0.6c0.7,0.3,1.3,0.7,1.8,1.1c0.5,0.4,1,1,1.3,1.6S214.1,759.1,214.1,760z"/>
		<path class="st2" d="M228,765.7v-9.5c0-0.9-0.1-1.6-0.3-2s-0.6-0.6-1.1-0.6c-0.4,0-0.8,0.2-1.1,0.5c-0.4,0.4-0.5,1-0.5,2v9.6h-7.9
			v-18.1h7.7v2h0.1c0.2-0.3,0.5-0.6,0.8-0.9c0.3-0.3,0.7-0.5,1.1-0.8c0.4-0.2,0.9-0.4,1.4-0.6c0.5-0.1,1.1-0.2,1.7-0.2
			c1.2,0,2.2,0.2,3.1,0.6c0.9,0.4,1.6,1.1,2.1,2c0.6-0.7,1.3-1.4,2.2-1.9s2-0.8,3.3-0.8c1.3,0,2.3,0.3,3.2,0.8
			c0.8,0.5,1.5,1.1,2,1.9c0.5,0.8,0.8,1.6,1,2.5c0.2,0.9,0.3,1.7,0.3,2.5v11H239v-9.6c0-1-0.1-1.6-0.4-2c-0.2-0.3-0.6-0.5-1.1-0.5
			c-0.5,0-0.8,0.2-1.2,0.6c-0.3,0.4-0.5,1-0.5,1.9v9.6H228z"/>
		<path class="st2" d="M258.9,741.4l-3.4,9.7h-5.6l2.5-9.7H258.9z"/>
		<path class="st2" d="M279,756.8c0,0.3,0,0.6,0,0.9c0,0.3,0,0.6-0.1,0.8h-12.2c0,0.3,0.1,0.6,0.3,0.9c0.2,0.3,0.4,0.5,0.7,0.7
			c0.3,0.2,0.6,0.3,1,0.4c0.4,0.1,0.7,0.1,1.1,0.1c0.7,0,1.3-0.1,1.8-0.4c0.5-0.3,0.9-0.6,1.1-0.9l5.6,2.9c-0.8,1.3-2,2.3-3.5,3.1
			c-1.5,0.8-3.3,1.1-5.3,1.1c-1.3,0-2.6-0.2-3.8-0.6c-1.2-0.4-2.3-1-3.3-1.8c-0.9-0.8-1.7-1.8-2.3-3c-0.6-1.2-0.9-2.6-0.9-4.2
			c0-1.5,0.3-2.8,0.8-4c0.5-1.2,1.2-2.2,2.1-3.1c0.9-0.8,2-1.5,3.2-1.9c1.2-0.5,2.5-0.7,3.9-0.7c1.4,0,2.7,0.2,3.9,0.7
			s2.2,1.2,3,2.1c0.8,0.9,1.5,1.9,1.9,3.1C278.7,754.1,279,755.4,279,756.8z M265.8,745.6l3.8-4.9h7.3l-5.3,4.9H265.8z M272.1,754.3
			c0-0.6-0.2-1.2-0.7-1.6c-0.5-0.4-1.1-0.6-1.9-0.6c-0.9,0-1.5,0.2-2,0.7s-0.8,1-0.8,1.5L272.1,754.3L272.1,754.3z"/>
		<path class="st2" d="M289.6,766.2c-2.4,0-4.2-0.5-5.4-1.6c-1.2-1-1.8-2.7-1.8-4.9v-6.5h-2.5v-5.7h2.5v-4h7.7v4h3.9v5.7h-3.9v4.8
			c0,0.9,0.2,1.5,0.6,1.8c0.4,0.3,0.9,0.5,1.6,0.5c0.3,0,0.5,0,0.8-0.1c0.3,0,0.5-0.1,0.7-0.1v5.4c-0.4,0.2-1,0.3-1.7,0.4
			C291.2,766.1,290.4,766.2,289.6,766.2z"/>
		<path class="st2" d="M309.1,747.2c1.3,0,2.3,0.2,3.1,0.7c0.8,0.5,1.5,1,2,1.8c0.5,0.7,0.8,1.5,1,2.4c0.2,0.9,0.3,1.8,0.3,2.7v11
			h-7.9v-9.6c0-0.9-0.1-1.6-0.4-1.9c-0.3-0.4-0.7-0.5-1.3-0.5c-0.5,0-0.9,0.2-1.2,0.6c-0.4,0.4-0.6,1-0.6,1.9v9.6h-7.9v-26h7.9v9.9
			h0.1c0.5-0.7,1.1-1.2,1.9-1.7S308,747.2,309.1,747.2z"/>
		<path class="st2" d="M318.9,742.4c0-0.5,0.1-1.1,0.3-1.6c0.2-0.5,0.5-0.9,0.9-1.3c0.4-0.4,0.8-0.7,1.3-0.9c0.5-0.2,1-0.3,1.6-0.3
			c0.5,0,1.1,0.1,1.5,0.3c0.5,0.2,0.9,0.5,1.3,0.9c0.4,0.4,0.7,0.8,0.9,1.3c0.2,0.5,0.3,1,0.3,1.6c0,0.6-0.1,1.1-0.3,1.6
			c-0.2,0.5-0.5,0.9-0.9,1.3c-0.4,0.4-0.8,0.6-1.3,0.8c-0.5,0.2-1,0.3-1.5,0.3c-0.6,0-1.1-0.1-1.6-0.3c-0.5-0.2-0.9-0.5-1.3-0.8
			c-0.4-0.4-0.7-0.8-0.9-1.3C319,743.5,318.9,743,318.9,742.4z M319.1,747.6h7.9v18.1h-7.9V747.6z"/>
		<path class="st2" d="M338.2,766.2c-1.4,0-2.5-0.3-3.6-0.8c-1-0.5-1.9-1.3-2.6-2.2c-0.7-0.9-1.2-1.9-1.6-3.1
			c-0.4-1.1-0.5-2.3-0.5-3.5c0-1.2,0.2-2.3,0.5-3.4c0.4-1.1,0.9-2.1,1.6-3c0.7-0.9,1.5-1.6,2.6-2.2c1-0.5,2.2-0.8,3.6-0.8
			c0.9,0,1.8,0.2,2.7,0.6c0.9,0.4,1.7,1,2.4,1.7h0.1v-1.8h7.4v26.3H343v-9.6h-0.1c-0.5,0.6-1.3,1.1-2.1,1.4
			C339.9,766,339.1,766.2,338.2,766.2z M337.3,756.6c0,0.9,0.3,1.6,0.8,2.2c0.5,0.6,1.2,0.9,2.2,0.9c0.9,0,1.7-0.3,2.2-0.9
			c0.6-0.6,0.8-1.3,0.8-2.2c0-0.8-0.3-1.5-0.8-2.1c-0.6-0.6-1.3-0.9-2.2-0.9c-1,0-1.7,0.3-2.2,0.9
			C337.6,755.1,337.3,755.8,337.3,756.6z"/>
		<path class="st2" d="M373.6,765.7h-7.7v-2h-0.1c-0.5,0.7-1.1,1.2-2,1.7c-0.9,0.5-1.9,0.7-3.1,0.7c-1.3,0-2.3-0.2-3.2-0.7
			c-0.8-0.4-1.5-1-2-1.8s-0.8-1.5-1-2.4c-0.2-0.9-0.3-1.8-0.3-2.7v-11h7.9v9.5c0,0.9,0.1,1.6,0.4,1.9c0.3,0.4,0.7,0.5,1.3,0.5
			c0.5,0,1-0.2,1.3-0.6c0.3-0.4,0.5-1,0.5-1.8v-9.5h7.9L373.6,765.7L373.6,765.7z"/>
		<path class="st2" d="M396.1,756.8c0,0.3,0,0.6,0,0.9c0,0.3,0,0.6-0.1,0.8h-12.2c0,0.3,0.1,0.6,0.3,0.9c0.2,0.3,0.4,0.5,0.7,0.7
			c0.3,0.2,0.6,0.3,1,0.4c0.4,0.1,0.7,0.1,1.1,0.1c0.7,0,1.3-0.1,1.8-0.4c0.5-0.3,0.9-0.6,1.1-0.9l5.6,2.9c-0.8,1.3-2,2.3-3.5,3.1
			c-1.5,0.8-3.3,1.1-5.3,1.1c-1.3,0-2.6-0.2-3.8-0.6c-1.2-0.4-2.3-1-3.3-1.8s-1.7-1.8-2.3-3c-0.6-1.2-0.9-2.6-0.9-4.2
			c0-1.5,0.3-2.8,0.8-4c0.5-1.2,1.2-2.2,2.1-3.1c0.9-0.8,2-1.5,3.2-1.9c1.2-0.5,2.5-0.7,3.9-0.7c1.4,0,2.7,0.2,3.9,0.7
			s2.2,1.2,3,2.1c0.8,0.9,1.5,1.9,1.9,3.1C395.9,754.1,396.1,755.4,396.1,756.8z M389.3,754.3c0-0.6-0.2-1.2-0.7-1.6
			c-0.5-0.4-1.1-0.6-1.9-0.6c-0.9,0-1.5,0.2-2,0.7s-0.8,1-0.8,1.5L389.3,754.3L389.3,754.3z"/>
		<path class="st2" d="M417.3,766.4c-1.5,0-2.9-0.2-4.2-0.7c-1.3-0.5-2.4-1.1-3.3-2c-0.9-0.8-1.7-1.9-2.2-3.1
			c-0.5-1.2-0.8-2.5-0.8-4c0-1.5,0.3-2.8,0.8-4c0.5-1.2,1.3-2.2,2.2-3.1c1-0.8,2.1-1.5,3.4-2c1.3-0.5,2.7-0.7,4.2-0.7
			c0.6,0,1.2,0.1,1.9,0.2c0.6,0.1,1.2,0.2,1.8,0.4c0.6,0.2,1.1,0.4,1.6,0.6c0.5,0.2,0.9,0.5,1.3,0.8l-3.9,5.7
			c-0.3-0.3-0.6-0.5-1.1-0.7c-0.4-0.2-0.9-0.2-1.3-0.2c-0.4,0-0.8,0.1-1.1,0.2c-0.4,0.1-0.7,0.3-1,0.6c-0.3,0.3-0.5,0.6-0.7,1
			c-0.2,0.4-0.3,0.8-0.3,1.3c0,0.5,0.1,0.9,0.3,1.3c0.2,0.4,0.4,0.7,0.7,0.9s0.6,0.4,1,0.5c0.4,0.1,0.7,0.2,1.1,0.2
			c0.5,0,0.9-0.1,1.3-0.3s0.8-0.4,1.1-0.7l4,5.5c-0.8,0.6-1.7,1.1-2.9,1.5C419.9,766.2,418.6,766.4,417.3,766.4z"/>
		<path class="st2" d="M438.4,747.2c1.3,0,2.3,0.2,3.1,0.7c0.8,0.5,1.5,1,2,1.8c0.5,0.7,0.8,1.5,1,2.4c0.2,0.9,0.3,1.8,0.3,2.7v11
			H437v-9.6c0-0.9-0.1-1.6-0.4-1.9c-0.3-0.4-0.7-0.5-1.3-0.5c-0.5,0-0.9,0.2-1.2,0.6c-0.4,0.4-0.5,1-0.5,1.9v9.6h-7.9v-26h7.9v9.9
			h0.1c0.5-0.7,1.1-1.2,2-1.7C436.3,747.4,437.3,747.2,438.4,747.2z"/>
		<path class="st2" d="M467.2,756.8c0,0.3,0,0.6,0,0.9c0,0.3,0,0.6-0.1,0.8H455c0,0.3,0.1,0.6,0.3,0.9c0.2,0.3,0.4,0.5,0.7,0.7
			c0.3,0.2,0.6,0.3,1,0.4c0.4,0.1,0.7,0.1,1.1,0.1c0.7,0,1.3-0.1,1.8-0.4c0.5-0.3,0.9-0.6,1.1-0.9l5.6,2.9c-0.8,1.3-2,2.3-3.5,3.1
			c-1.5,0.8-3.3,1.1-5.3,1.1c-1.3,0-2.6-0.2-3.8-0.6c-1.2-0.4-2.3-1-3.3-1.8c-0.9-0.8-1.7-1.8-2.3-3c-0.6-1.2-0.9-2.6-0.9-4.2
			c0-1.5,0.3-2.8,0.8-4c0.5-1.2,1.2-2.2,2.1-3.1c0.9-0.8,2-1.5,3.2-1.9c1.2-0.5,2.5-0.7,3.9-0.7c1.4,0,2.7,0.2,3.9,0.7
			c1.2,0.5,2.2,1.2,3,2.1c0.8,0.9,1.5,1.9,1.9,3.1C467,754.1,467.2,755.4,467.2,756.8z M460.4,754.3c0-0.6-0.2-1.2-0.7-1.6
			c-0.5-0.4-1.1-0.6-1.9-0.6c-0.9,0-1.5,0.2-2,0.7s-0.8,1-0.8,1.5L460.4,754.3L460.4,754.3z"/>
		<path class="st2" d="M467.9,747.6h8.8l2.6,9.7h0.1l2.5-9.7h8.5l-7,18.1h-8.6L467.9,747.6z"/>
		<path class="st2" d="M510.7,756.8c0,0.3,0,0.6,0,0.9c0,0.3,0,0.6-0.1,0.8h-12.2c0,0.3,0.1,0.6,0.3,0.9c0.2,0.3,0.4,0.5,0.7,0.7
			c0.3,0.2,0.6,0.3,1,0.4c0.4,0.1,0.7,0.1,1.1,0.1c0.7,0,1.3-0.1,1.8-0.4c0.5-0.3,0.9-0.6,1.1-0.9l5.6,2.9c-0.8,1.3-2,2.3-3.5,3.1
			c-1.5,0.8-3.3,1.1-5.3,1.1c-1.3,0-2.6-0.2-3.8-0.6c-1.2-0.4-2.3-1-3.3-1.8s-1.7-1.8-2.3-3c-0.6-1.2-0.9-2.6-0.9-4.2
			c0-1.5,0.3-2.8,0.8-4c0.5-1.2,1.2-2.2,2.1-3.1c0.9-0.8,2-1.5,3.2-1.9c1.2-0.5,2.5-0.7,3.9-0.7c1.4,0,2.7,0.2,3.9,0.7
			c1.2,0.5,2.2,1.2,3,2.1c0.8,0.9,1.5,1.9,1.9,3.1C510.5,754.1,510.7,755.4,510.7,756.8z M503.9,754.3c0-0.6-0.2-1.2-0.7-1.6
			c-0.5-0.4-1.1-0.6-1.9-0.6c-0.9,0-1.5,0.2-2,0.7s-0.8,1-0.8,1.5L503.9,754.3L503.9,754.3z"/>
		<path class="st2" d="M532.6,765.7h-7.7v-2h-0.1c-0.5,0.7-1.1,1.2-2,1.7c-0.9,0.5-1.9,0.7-3.1,0.7c-1.3,0-2.3-0.2-3.2-0.7
			c-0.8-0.4-1.5-1-2-1.8s-0.8-1.5-1-2.4c-0.2-0.9-0.3-1.8-0.3-2.7v-11h7.9v9.5c0,0.9,0.1,1.6,0.4,1.9c0.3,0.4,0.7,0.5,1.3,0.5
			c0.5,0,1-0.2,1.3-0.6c0.3-0.4,0.5-1,0.5-1.8v-9.5h7.9L532.6,765.7L532.6,765.7z"/>
		<path class="st2" d="M546.1,761.6l-3,4.1h-8.9l7-9.3l-6.5-8.8h9l2.6,3.8l2.6-3.8h8.7l-6.5,8.8l6.8,9.3h-9.1L546.1,761.6z"/>
	</g>
	<g class="st1">
		<path class="st2" d="M122.7,811.9c-0.9,0-1.8-0.2-2.6-0.5c-0.9-0.3-1.6-0.8-2.1-1.4h-0.1v9.6H110v-26.3h7.4v1.8h0.1
			c0.7-0.8,1.5-1.3,2.4-1.7c0.9-0.4,1.9-0.6,2.7-0.6c1.4,0,2.5,0.3,3.6,0.8c1,0.5,1.9,1.3,2.6,2.2c0.7,0.9,1.2,1.9,1.6,3
			c0.4,1.1,0.5,2.3,0.5,3.4c0,1.2-0.2,2.4-0.5,3.5s-0.9,2.2-1.6,3.1c-0.7,0.9-1.5,1.6-2.6,2.2C125.3,811.7,124.1,811.9,122.7,811.9z
			 M123.6,802.4c0-0.8-0.3-1.5-0.8-2.1c-0.5-0.6-1.2-0.9-2.2-0.9c-0.9,0-1.7,0.3-2.2,0.9c-0.6,0.6-0.8,1.3-0.8,2.1
			c0,0.8,0.3,1.6,0.8,2.2c0.6,0.6,1.3,0.9,2.2,0.9c1,0,1.7-0.3,2.2-0.9C123.3,804,123.6,803.2,123.6,802.4z"/>
		<path class="st2" d="M143.4,800c0-0.5-0.2-1-0.6-1.2c-0.4-0.3-0.9-0.4-1.5-0.4c-0.7,0-1.4,0.2-2.1,0.5c-0.7,0.3-1.2,0.7-1.7,1.1
			l-3.9-3.9c1.1-1.1,2.4-1.9,3.9-2.4c1.5-0.6,3.1-0.9,4.7-0.9c1.7,0,3.1,0.2,4.3,0.7s2,1.1,2.7,2s1.1,1.8,1.4,3
			c0.3,1.1,0.4,2.3,0.4,3.6v9.5h-7.2V810h-0.1c-0.5,0.7-1.1,1.2-2,1.5c-0.8,0.3-1.7,0.4-2.5,0.4c-0.7,0-1.4-0.1-2.2-0.3
			c-0.7-0.2-1.4-0.5-2-1c-0.6-0.5-1.1-1.1-1.5-1.8c-0.4-0.7-0.6-1.6-0.6-2.7c0-1.3,0.3-2.3,1-3.1c0.7-0.8,1.5-1.4,2.5-1.9
			c1-0.4,2.1-0.7,3.4-0.9C141,800.1,142.2,800.1,143.4,800L143.4,800L143.4,800z M143.5,804c-1.2,0-2.1,0.1-2.8,0.4
			c-0.7,0.3-1.1,0.7-1.1,1.4c0,0.3,0.1,0.5,0.2,0.6c0.1,0.2,0.3,0.3,0.4,0.4s0.4,0.2,0.6,0.3c0.2,0.1,0.4,0.1,0.6,0.1
			c0.8,0,1.4-0.2,1.8-0.7c0.5-0.5,0.7-1.1,0.7-1.9V804H143.5L143.5,804z"/>
		<path class="st2" d="M154.1,793.4h7.6v2.1h0.1c0.4-0.7,1-1.3,1.7-1.8c0.8-0.5,1.7-0.7,2.7-0.7c0.6,0,1.1,0.1,1.5,0.2l-0.6,6.7
			c-0.3-0.1-0.5-0.1-0.8-0.2s-0.6-0.1-0.8-0.1c-1,0-1.9,0.3-2.5,0.9c-0.6,0.6-0.9,1.3-0.9,2.2v8.8h-7.9L154.1,793.4L154.1,793.4z"/>
		<path class="st2" d="M196.8,802.6c0,0.3,0,0.6,0,0.9c0,0.3,0,0.6-0.1,0.8h-12.2c0,0.3,0.1,0.6,0.3,0.9c0.2,0.3,0.4,0.5,0.7,0.7
			c0.3,0.2,0.6,0.3,1,0.4c0.4,0.1,0.7,0.1,1.1,0.1c0.7,0,1.3-0.1,1.8-0.4c0.5-0.3,0.9-0.6,1.1-0.9l5.6,2.9c-0.8,1.3-2,2.3-3.5,3.1
			c-1.5,0.8-3.3,1.1-5.3,1.1c-1.3,0-2.6-0.2-3.8-0.6c-1.2-0.4-2.3-1-3.3-1.8s-1.7-1.8-2.3-3c-0.6-1.2-0.9-2.6-0.9-4.2
			c0-1.5,0.3-2.8,0.8-4c0.5-1.2,1.2-2.2,2.1-3.1c0.9-0.8,2-1.5,3.2-1.9c1.2-0.5,2.5-0.7,3.9-0.7c1.4,0,2.7,0.2,3.9,0.7
			c1.2,0.5,2.2,1.2,3,2.1c0.8,0.9,1.5,1.9,1.9,3.1C196.6,799.9,196.8,801.2,196.8,802.6z M190,800c0-0.6-0.2-1.2-0.7-1.6
			c-0.5-0.4-1.1-0.6-1.9-0.6c-0.9,0-1.5,0.2-2,0.7s-0.8,1-0.8,1.5L190,800L190,800z"/>
		<path class="st2" d="M208.4,807.4l-3,4.1h-8.9l7-9.3l-6.5-8.8h9l2.6,3.8l2.6-3.8h8.7l-6.5,8.8l6.8,9.3h-9.1L208.4,807.4z"/>
		<path class="st2" d="M230.6,812.1c-1.5,0-2.9-0.2-4.2-0.7c-1.3-0.5-2.4-1.1-3.3-2c-0.9-0.8-1.7-1.9-2.2-3.1
			c-0.5-1.2-0.8-2.5-0.8-4c0-1.5,0.3-2.8,0.8-4c0.5-1.2,1.3-2.2,2.2-3.1c1-0.8,2.1-1.5,3.4-2c1.3-0.5,2.7-0.7,4.2-0.7
			c0.6,0,1.2,0.1,1.9,0.2c0.6,0.1,1.2,0.2,1.8,0.4c0.6,0.2,1.1,0.4,1.6,0.6c0.5,0.2,0.9,0.5,1.3,0.8l-3.9,5.7
			c-0.3-0.3-0.6-0.5-1.1-0.7c-0.4-0.2-0.9-0.2-1.3-0.2c-0.4,0-0.8,0.1-1.1,0.2c-0.4,0.1-0.7,0.3-1,0.6c-0.3,0.3-0.5,0.6-0.7,1
			c-0.2,0.4-0.3,0.8-0.3,1.3c0,0.5,0.1,0.9,0.3,1.3c0.2,0.4,0.4,0.7,0.7,0.9s0.6,0.4,1,0.5c0.4,0.1,0.7,0.2,1.1,0.2
			c0.5,0,0.9-0.1,1.3-0.3c0.4-0.2,0.8-0.4,1.1-0.7l4,5.5c-0.8,0.6-1.7,1.1-2.9,1.5C233.1,811.9,231.9,812.1,230.6,812.1z"/>
		<path class="st2" d="M257.6,802.6c0,0.3,0,0.6,0,0.9c0,0.3,0,0.6-0.1,0.8h-12.2c0,0.3,0.1,0.6,0.3,0.9c0.2,0.3,0.4,0.5,0.7,0.7
			c0.3,0.2,0.6,0.3,1,0.4c0.4,0.1,0.7,0.1,1.1,0.1c0.7,0,1.3-0.1,1.8-0.4c0.5-0.3,0.9-0.6,1.1-0.9l5.6,2.9c-0.8,1.3-2,2.3-3.5,3.1
			c-1.5,0.8-3.3,1.1-5.3,1.1c-1.3,0-2.6-0.2-3.8-0.6c-1.2-0.4-2.3-1-3.3-1.8c-0.9-0.8-1.7-1.8-2.3-3c-0.6-1.2-0.9-2.6-0.9-4.2
			c0-1.5,0.3-2.8,0.8-4c0.5-1.2,1.2-2.2,2.1-3.1c0.9-0.8,2-1.5,3.2-1.9c1.2-0.5,2.5-0.7,3.9-0.7c1.4,0,2.7,0.2,3.9,0.7
			c1.2,0.5,2.2,1.2,3,2.1c0.8,0.9,1.5,1.9,1.9,3.1C257.4,799.9,257.6,801.2,257.6,802.6z M250.8,800c0-0.6-0.2-1.2-0.7-1.6
			c-0.5-0.4-1.1-0.6-1.9-0.6c-0.9,0-1.5,0.2-2,0.7s-0.8,1-0.8,1.5L250.8,800L250.8,800z"/>
		<path class="st2" d="M260.4,785.5h8.1v26h-8.1V785.5z"/>
		<path class="st2" d="M272.2,785.5h8.1v26h-8.1V785.5z"/>
		<path class="st2" d="M302.7,802.6c0,0.3,0,0.6,0,0.9c0,0.3,0,0.6-0.1,0.8h-12.2c0,0.3,0.1,0.6,0.3,0.9c0.2,0.3,0.4,0.5,0.7,0.7
			c0.3,0.2,0.6,0.3,1,0.4c0.4,0.1,0.7,0.1,1.1,0.1c0.7,0,1.3-0.1,1.8-0.4c0.5-0.3,0.9-0.6,1.1-0.9l5.6,2.9c-0.8,1.3-2,2.3-3.5,3.1
			c-1.5,0.8-3.3,1.1-5.3,1.1c-1.3,0-2.6-0.2-3.8-0.6c-1.2-0.4-2.3-1-3.3-1.8s-1.7-1.8-2.3-3c-0.6-1.2-0.9-2.6-0.9-4.2
			c0-1.5,0.3-2.8,0.8-4c0.5-1.2,1.2-2.2,2.1-3.1c0.9-0.8,2-1.5,3.2-1.9c1.2-0.5,2.5-0.7,3.9-0.7c1.4,0,2.7,0.2,3.9,0.7
			s2.2,1.2,3,2.1c0.8,0.9,1.5,1.9,1.9,3.1C302.5,799.9,302.7,801.2,302.7,802.6z M295.9,800c0-0.6-0.2-1.2-0.7-1.6
			c-0.5-0.4-1.1-0.6-1.9-0.6c-0.9,0-1.5,0.2-2,0.7s-0.8,1-0.8,1.5L295.9,800L295.9,800z"/>
		<path class="st2" d="M305.5,793.4h7.7v2h0.1c0.5-0.7,1.1-1.2,2-1.7c0.9-0.5,1.9-0.7,3.1-0.7c1.3,0,2.3,0.2,3.1,0.7
			c0.8,0.5,1.5,1,2,1.8c0.5,0.7,0.8,1.5,1,2.4c0.2,0.9,0.3,1.8,0.3,2.7v11h-7.9v-9.6c0-0.9-0.1-1.6-0.4-1.9
			c-0.3-0.4-0.7-0.5-1.3-0.5c-0.5,0-1,0.2-1.3,0.6c-0.3,0.4-0.5,1-0.5,1.8v9.6h-7.9L305.5,793.4L305.5,793.4z"/>
		<path class="st2" d="M338.2,812.1c-1.5,0-2.9-0.2-4.2-0.7c-1.3-0.5-2.4-1.1-3.3-2c-0.9-0.8-1.7-1.9-2.2-3.1
			c-0.5-1.2-0.8-2.5-0.8-4c0-1.5,0.3-2.8,0.8-4c0.5-1.2,1.3-2.2,2.2-3.1c1-0.8,2.1-1.5,3.4-2c1.3-0.5,2.7-0.7,4.2-0.7
			c0.6,0,1.2,0.1,1.9,0.2c0.6,0.1,1.2,0.2,1.8,0.4c0.6,0.2,1.1,0.4,1.6,0.6c0.5,0.2,0.9,0.5,1.3,0.8l-3.9,5.7
			c-0.3-0.3-0.6-0.5-1.1-0.7c-0.4-0.2-0.9-0.2-1.3-0.2c-0.4,0-0.8,0.1-1.1,0.2c-0.4,0.1-0.7,0.3-1,0.6c-0.3,0.3-0.5,0.6-0.7,1
			c-0.2,0.4-0.3,0.8-0.3,1.3c0,0.5,0.1,0.9,0.3,1.3c0.2,0.4,0.4,0.7,0.7,0.9c0.3,0.2,0.6,0.4,1,0.5c0.4,0.1,0.7,0.2,1.1,0.2
			c0.5,0,0.9-0.1,1.3-0.3c0.4-0.2,0.8-0.4,1.1-0.7l4,5.5c-0.8,0.6-1.7,1.1-2.9,1.5C340.8,811.9,339.5,812.1,338.2,812.1z"/>
		<path class="st2" d="M365.3,802.6c0,0.3,0,0.6,0,0.9c0,0.3,0,0.6-0.1,0.8h-12.2c0,0.3,0.1,0.6,0.3,0.9c0.2,0.3,0.4,0.5,0.7,0.7
			c0.3,0.2,0.6,0.3,1,0.4c0.4,0.1,0.7,0.1,1.1,0.1c0.7,0,1.3-0.1,1.8-0.4c0.5-0.3,0.9-0.6,1.1-0.9l5.6,2.9c-0.8,1.3-2,2.3-3.5,3.1
			c-1.5,0.8-3.3,1.1-5.3,1.1c-1.3,0-2.6-0.2-3.8-0.6c-1.2-0.4-2.3-1-3.3-1.8s-1.7-1.8-2.3-3c-0.6-1.2-0.9-2.6-0.9-4.2
			c0-1.5,0.3-2.8,0.8-4c0.5-1.2,1.2-2.2,2.1-3.1c0.9-0.8,2-1.5,3.2-1.9c1.2-0.5,2.5-0.7,3.9-0.7c1.4,0,2.7,0.2,3.9,0.7
			c1.2,0.5,2.2,1.2,3,2.1c0.8,0.9,1.5,1.9,1.9,3.1C365,799.9,365.3,801.2,365.3,802.6z M358.4,800c0-0.6-0.2-1.2-0.7-1.6
			c-0.5-0.4-1.1-0.6-1.9-0.6c-0.9,0-1.5,0.2-2,0.7s-0.8,1-0.8,1.5L358.4,800L358.4,800z"/>
		<path class="st2" d="M367.9,807.6c0-0.6,0.1-1.2,0.4-1.7c0.2-0.5,0.6-1,1-1.4s0.9-0.7,1.5-1s1.2-0.4,1.8-0.4
			c0.6,0,1.2,0.1,1.7,0.4s1,0.6,1.4,1c0.4,0.4,0.7,0.9,1,1.4c0.2,0.5,0.4,1.1,0.4,1.7c0,0.6-0.1,1.2-0.4,1.8c-0.2,0.5-0.6,1-1,1.4
			c-0.4,0.4-0.9,0.7-1.4,0.9s-1.1,0.3-1.7,0.3c-0.6,0-1.2-0.1-1.8-0.3c-0.6-0.2-1.1-0.5-1.5-0.9c-0.4-0.4-0.8-0.9-1-1.4
			C368,808.8,367.9,808.2,367.9,807.6z"/>
	</g>
	<g class="st1">
		<path class="st3" d="M121.4,660.4c-1.9,0-3.6-0.3-5-0.8c-1.4-0.5-2.6-1.2-3.5-2.2c-0.9-0.9-1.6-2-2.1-3.2c-0.5-1.2-0.7-2.6-0.7-4
			v-14.8h8.2v13.9c0,1.2,0.3,2.1,0.8,2.7c0.6,0.7,1.4,1,2.4,1s1.8-0.3,2.4-1c0.6-0.7,0.8-1.6,0.8-2.7v-13.9h8.1v14.8
			c0,1.4-0.2,2.8-0.7,4c-0.5,1.2-1.2,2.3-2.2,3.2c-1,0.9-2.2,1.6-3.6,2.2C125,660.1,123.3,660.4,121.4,660.4z"/>
		<path class="st3" d="M136.6,641.6h7.7v2h0.1c0.5-0.7,1.1-1.2,2-1.7s1.9-0.7,3.1-0.7c1.3,0,2.3,0.2,3.1,0.7c0.8,0.5,1.5,1,2,1.8
			c0.5,0.7,0.8,1.5,1,2.4c0.2,0.9,0.3,1.8,0.3,2.7v11h-7.9v-9.6c0-0.9-0.1-1.6-0.4-1.9c-0.3-0.4-0.7-0.6-1.3-0.6
			c-0.5,0-1,0.2-1.3,0.6c-0.3,0.4-0.5,1-0.5,1.8v9.6h-7.9L136.6,641.6L136.6,641.6z"/>
		<path class="st3" d="M178.3,650.8c0,0.3,0,0.6,0,0.9c0,0.3,0,0.6-0.1,0.8h-12.2c0,0.3,0.1,0.6,0.3,0.9c0.2,0.3,0.4,0.5,0.7,0.7
			c0.3,0.2,0.6,0.3,1,0.4c0.4,0.1,0.7,0.1,1.1,0.1c0.7,0,1.3-0.1,1.8-0.4c0.5-0.3,0.9-0.6,1.1-0.9l5.6,2.9c-0.8,1.3-2,2.3-3.5,3.1
			c-1.5,0.8-3.3,1.1-5.3,1.1c-1.3,0-2.6-0.2-3.8-0.6c-1.2-0.4-2.3-1-3.3-1.8c-0.9-0.8-1.7-1.8-2.3-3c-0.6-1.2-0.9-2.6-0.9-4.2
			c0-1.5,0.3-2.8,0.8-4c0.5-1.2,1.2-2.2,2.1-3.1c0.9-0.8,2-1.5,3.2-1.9c1.2-0.5,2.5-0.7,3.9-0.7c1.4,0,2.7,0.2,3.9,0.7
			c1.2,0.5,2.2,1.2,3,2.1c0.8,0.9,1.5,1.9,1.9,3.1C178.1,648.1,178.3,649.4,178.3,650.8z M171.5,648.3c0-0.6-0.2-1.2-0.7-1.6
			s-1.1-0.6-1.9-0.6c-0.9,0-1.5,0.2-2,0.7c-0.5,0.5-0.8,1-0.8,1.5L171.5,648.3L171.5,648.3z"/>
		<path class="st3" d="M210.6,650.6c0,1.2-0.2,2.4-0.5,3.5c-0.4,1.1-0.9,2.2-1.6,3.1c-0.7,0.9-1.5,1.6-2.6,2.2
			c-1,0.5-2.2,0.8-3.6,0.8c-1.1,0-2.2-0.2-3.2-0.6c-1-0.4-1.8-1-2.3-1.7h-0.1v1.9h-7.1v-26h7.9v9.3h0.1c0.5-0.6,1.2-1.1,2.1-1.4
			c0.9-0.3,1.7-0.5,2.6-0.5c1.3,0,2.5,0.3,3.6,0.8c1,0.5,1.9,1.3,2.6,2.2c0.7,0.9,1.2,1.9,1.6,3
			C210.4,648.3,210.6,649.4,210.6,650.6z M203.3,650.6c0-0.8-0.3-1.5-0.8-2.1c-0.5-0.6-1.2-0.9-2.2-0.9c-0.9,0-1.7,0.3-2.2,0.9
			c-0.6,0.6-0.8,1.3-0.8,2.1c0,0.8,0.3,1.6,0.8,2.2c0.6,0.6,1.3,0.9,2.2,0.9c1,0,1.7-0.3,2.2-0.9C203,652.2,203.3,651.5,203.3,650.6
			z"/>
		<path class="st3" d="M232.4,650.8c0,0.3,0,0.6,0,0.9c0,0.3,0,0.6-0.1,0.8h-12.2c0,0.3,0.1,0.6,0.3,0.9c0.2,0.3,0.4,0.5,0.7,0.7
			c0.3,0.2,0.6,0.3,1,0.4c0.4,0.1,0.7,0.1,1.1,0.1c0.7,0,1.3-0.1,1.8-0.4c0.5-0.3,0.9-0.6,1.1-0.9l5.6,2.9c-0.8,1.3-2,2.3-3.5,3.1
			c-1.5,0.8-3.3,1.1-5.3,1.1c-1.3,0-2.6-0.2-3.8-0.6c-1.2-0.4-2.3-1-3.3-1.8c-0.9-0.8-1.7-1.8-2.3-3c-0.6-1.2-0.9-2.6-0.9-4.2
			c0-1.5,0.3-2.8,0.8-4c0.5-1.2,1.2-2.2,2.1-3.1c0.9-0.8,2-1.5,3.2-1.9c1.2-0.5,2.5-0.7,3.9-0.7c1.4,0,2.7,0.2,3.9,0.7
			s2.2,1.2,3,2.1c0.8,0.9,1.5,1.9,1.9,3.1C232.1,648.1,232.4,649.4,232.4,650.8z M225.5,648.3c0-0.6-0.2-1.2-0.7-1.6
			c-0.5-0.4-1.1-0.6-1.9-0.6c-0.9,0-1.5,0.2-2,0.7c-0.5,0.5-0.8,1-0.8,1.5L225.5,648.3L225.5,648.3z"/>
		<path class="st3" d="M235.2,633.7h8.1v26h-8.1V633.7z"/>
		<path class="st3" d="M246.9,633.7h8.1v26h-8.1V633.7z"/>
		<path class="st3" d="M277.5,650.8c0,0.3,0,0.6,0,0.9c0,0.3,0,0.6-0.1,0.8h-12.2c0,0.3,0.1,0.6,0.3,0.9c0.2,0.3,0.4,0.5,0.7,0.7
			c0.3,0.2,0.6,0.3,1,0.4c0.4,0.1,0.7,0.1,1.1,0.1c0.7,0,1.3-0.1,1.8-0.4c0.5-0.3,0.9-0.6,1.1-0.9l5.6,2.9c-0.8,1.3-2,2.3-3.5,3.1
			c-1.5,0.8-3.3,1.1-5.3,1.1c-1.3,0-2.6-0.2-3.8-0.6c-1.2-0.4-2.3-1-3.3-1.8c-0.9-0.8-1.7-1.8-2.3-3c-0.6-1.2-0.9-2.6-0.9-4.2
			c0-1.5,0.3-2.8,0.8-4c0.5-1.2,1.2-2.2,2.1-3.1c0.9-0.8,2-1.5,3.2-1.9c1.2-0.5,2.5-0.7,3.9-0.7c1.4,0,2.7,0.2,3.9,0.7
			s2.2,1.2,3,2.1c0.8,0.9,1.5,1.9,1.9,3.1C277.2,648.1,277.5,649.4,277.5,650.8z M270.6,648.3c0-0.6-0.2-1.2-0.7-1.6
			c-0.5-0.4-1.1-0.6-1.9-0.6c-0.9,0-1.5,0.2-2,0.7c-0.5,0.5-0.8,1-0.8,1.5L270.6,648.3L270.6,648.3z"/>
		<path class="st3" d="M298.7,660.4c-1.5,0-2.9-0.2-4.2-0.7c-1.3-0.5-2.4-1.1-3.3-2c-0.9-0.8-1.7-1.9-2.2-3.1
			c-0.5-1.2-0.8-2.5-0.8-4c0-1.5,0.3-2.8,0.8-4c0.5-1.2,1.3-2.2,2.2-3.1c1-0.8,2.1-1.5,3.4-2c1.3-0.5,2.7-0.7,4.2-0.7
			c0.6,0,1.2,0.1,1.9,0.2c0.6,0.1,1.2,0.2,1.8,0.4c0.6,0.2,1.1,0.4,1.6,0.6c0.5,0.2,0.9,0.5,1.3,0.8l-3.9,5.7
			c-0.3-0.3-0.6-0.5-1.1-0.7c-0.4-0.2-0.9-0.2-1.3-0.2c-0.4,0-0.8,0.1-1.1,0.2c-0.4,0.1-0.7,0.3-1,0.6c-0.3,0.3-0.5,0.6-0.7,1
			c-0.2,0.4-0.3,0.8-0.3,1.3c0,0.5,0.1,0.9,0.3,1.3c0.2,0.4,0.4,0.7,0.7,0.9s0.6,0.4,1,0.5c0.4,0.1,0.7,0.2,1.1,0.2
			c0.5,0,0.9-0.1,1.3-0.3c0.4-0.2,0.8-0.4,1.1-0.7l4,5.5c-0.8,0.6-1.7,1.1-2.9,1.5C301.2,660.2,300,660.4,298.7,660.4z"/>
		<path class="st3" d="M326.8,650.6c0,1.6-0.3,2.9-0.8,4.2c-0.6,1.2-1.3,2.2-2.3,3.1c-0.9,0.8-2,1.5-3.3,1.9
			c-1.2,0.4-2.6,0.7-3.9,0.7c-1.3,0-2.6-0.2-3.9-0.7s-2.3-1.1-3.3-1.9c-0.9-0.8-1.7-1.9-2.2-3.1c-0.6-1.2-0.8-2.6-0.8-4.2
			c0-1.5,0.3-2.9,0.8-4.1s1.3-2.2,2.2-3c0.9-0.8,2-1.4,3.3-1.9c1.2-0.4,2.5-0.6,3.9-0.6c1.4,0,2.7,0.2,3.9,0.6
			c1.2,0.4,2.3,1,3.3,1.9c0.9,0.8,1.7,1.8,2.3,3C326.5,647.7,326.8,649.1,326.8,650.6z M316.4,647.6c-0.9,0-1.6,0.3-2.1,0.9
			c-0.5,0.6-0.8,1.3-0.8,2.1c0,0.8,0.3,1.6,0.8,2.2c0.6,0.6,1.3,0.9,2.1,0.9c0.9,0,1.6-0.3,2.1-0.9c0.6-0.6,0.8-1.3,0.8-2.2
			c0-0.8-0.3-1.5-0.8-2.1C318,647.9,317.3,647.6,316.4,647.6z"/>
		<path class="st3" d="M329.7,633.7h8.1v26h-8.1V633.7z"/>
		<path class="st3" d="M341.4,633.7h8.1v26h-8.1V633.7z"/>
		<path class="st3" d="M362.7,648.2c0-0.5-0.2-1-0.6-1.2c-0.4-0.3-0.9-0.4-1.5-0.4c-0.7,0-1.4,0.2-2.1,0.5c-0.7,0.3-1.2,0.7-1.7,1.1
			l-3.9-3.9c1.1-1.1,2.4-1.9,3.9-2.4c1.5-0.6,3.1-0.9,4.7-0.9c1.7,0,3.1,0.2,4.3,0.7c1.1,0.5,2,1.1,2.7,2s1.1,1.8,1.4,3
			c0.3,1.1,0.4,2.3,0.4,3.6v9.5H363v-1.4h-0.1c-0.5,0.7-1.1,1.2-2,1.5c-0.8,0.3-1.7,0.4-2.5,0.4c-0.7,0-1.4-0.1-2.2-0.3
			c-0.7-0.2-1.4-0.5-2-1c-0.6-0.5-1.1-1.1-1.5-1.8s-0.6-1.6-0.6-2.7c0-1.3,0.3-2.3,1-3.1c0.7-0.8,1.5-1.4,2.5-1.9
			c1-0.4,2.1-0.7,3.4-0.9C360.3,648.4,361.6,648.3,362.7,648.2L362.7,648.2L362.7,648.2z M362.8,652.2c-1.2,0-2.1,0.1-2.8,0.4
			c-0.7,0.3-1.1,0.7-1.1,1.4c0,0.3,0.1,0.5,0.2,0.6c0.1,0.2,0.3,0.3,0.4,0.4c0.2,0.1,0.4,0.2,0.6,0.3c0.2,0.1,0.4,0.1,0.6,0.1
			c0.8,0,1.4-0.2,1.8-0.7s0.7-1.1,0.7-1.9v-0.6H362.8z"/>
		<path class="st3" d="M394.4,650.6c0,1.2-0.2,2.4-0.5,3.5c-0.4,1.1-0.9,2.2-1.6,3.1c-0.7,0.9-1.5,1.6-2.6,2.2
			c-1,0.5-2.2,0.8-3.6,0.8c-1.1,0-2.2-0.2-3.2-0.6c-1-0.4-1.8-1-2.3-1.7h-0.1v1.9h-7.1v-26h7.9v9.3h0.1c0.5-0.6,1.2-1.1,2.1-1.4
			c0.9-0.3,1.7-0.5,2.6-0.5c1.3,0,2.5,0.3,3.6,0.8c1,0.5,1.9,1.3,2.6,2.2c0.7,0.9,1.2,1.9,1.6,3
			C394.2,648.3,394.4,649.4,394.4,650.6z M387,650.6c0-0.8-0.3-1.5-0.8-2.1c-0.5-0.6-1.2-0.9-2.2-0.9c-0.9,0-1.7,0.3-2.2,0.9
			c-0.6,0.6-0.8,1.3-0.8,2.1c0,0.8,0.3,1.6,0.8,2.2c0.6,0.6,1.3,0.9,2.2,0.9c1,0,1.7-0.3,2.2-0.9C386.8,652.2,387,651.5,387,650.6z"
			/>
		<path class="st3" d="M417.1,650.6c0,1.6-0.3,2.9-0.8,4.2c-0.6,1.2-1.3,2.2-2.3,3.1c-0.9,0.8-2,1.5-3.3,1.9
			c-1.2,0.4-2.6,0.7-3.9,0.7c-1.4,0-2.6-0.2-3.9-0.7c-1.2-0.4-2.3-1.1-3.3-1.9c-0.9-0.8-1.7-1.9-2.2-3.1c-0.6-1.2-0.8-2.6-0.8-4.2
			c0-1.5,0.3-2.9,0.8-4.1c0.6-1.2,1.3-2.2,2.2-3c0.9-0.8,2-1.4,3.3-1.9c1.2-0.4,2.5-0.6,3.9-0.6c1.4,0,2.7,0.2,3.9,0.6
			c1.2,0.4,2.3,1,3.3,1.9c0.9,0.8,1.7,1.8,2.3,3S417.1,649.1,417.1,650.6z M406.8,647.6c-0.9,0-1.6,0.3-2.1,0.9
			c-0.5,0.6-0.8,1.3-0.8,2.1c0,0.8,0.3,1.6,0.8,2.2c0.5,0.6,1.3,0.9,2.1,0.9c0.9,0,1.6-0.3,2.1-0.9c0.5-0.6,0.8-1.3,0.8-2.2
			c0-0.8-0.3-1.5-0.8-2.1C408.4,647.9,407.7,647.6,406.8,647.6z"/>
		<path class="st3" d="M420.1,641.6h7.6v2.1h0.1c0.4-0.7,1-1.3,1.7-1.8c0.8-0.5,1.7-0.7,2.7-0.7c0.6,0,1.1,0.1,1.5,0.2l-0.6,6.7
			c-0.3-0.1-0.5-0.1-0.8-0.2c-0.3,0-0.6-0.1-0.8-0.1c-1,0-1.9,0.3-2.5,0.9c-0.6,0.6-0.9,1.3-0.9,2.2v8.8h-7.9L420.1,641.6
			L420.1,641.6z"/>
		<path class="st3" d="M444.3,648.2c0-0.5-0.2-1-0.6-1.2c-0.4-0.3-0.9-0.4-1.5-0.4c-0.7,0-1.4,0.2-2.1,0.5c-0.7,0.3-1.2,0.7-1.7,1.1
			l-3.9-3.9c1.1-1.1,2.4-1.9,3.9-2.4c1.5-0.6,3.1-0.9,4.7-0.9c1.7,0,3.1,0.2,4.3,0.7c1.1,0.5,2,1.1,2.7,2s1.1,1.8,1.4,3
			c0.3,1.1,0.4,2.3,0.4,3.6v9.5h-7.2v-1.4h-0.1c-0.5,0.7-1.1,1.2-2,1.5c-0.8,0.3-1.7,0.4-2.5,0.4c-0.7,0-1.4-0.1-2.2-0.3
			c-0.7-0.2-1.4-0.5-2-1c-0.6-0.5-1.1-1.1-1.5-1.8s-0.6-1.6-0.6-2.7c0-1.3,0.3-2.3,1-3.1c0.7-0.8,1.5-1.4,2.5-1.9
			c1-0.4,2.1-0.7,3.4-0.9C441.9,648.4,443.1,648.3,444.3,648.2L444.3,648.2L444.3,648.2z M444.4,652.2c-1.2,0-2.1,0.1-2.8,0.4
			c-0.7,0.3-1.1,0.7-1.1,1.4c0,0.3,0.1,0.5,0.2,0.6c0.1,0.2,0.3,0.3,0.4,0.4c0.2,0.1,0.4,0.2,0.6,0.3c0.2,0.1,0.4,0.1,0.6,0.1
			c0.8,0,1.4-0.2,1.8-0.7s0.7-1.1,0.7-1.9v-0.6H444.4z"/>
		<path class="st3" d="M462.5,660.2c-2.4,0-4.2-0.5-5.4-1.6c-1.2-1-1.8-2.7-1.8-4.9v-6.5h-2.5v-5.7h2.5v-4h7.7v4h3.9v5.7H463v4.8
			c0,0.9,0.2,1.5,0.6,1.8c0.4,0.3,0.9,0.5,1.6,0.5c0.3,0,0.5,0,0.8-0.1c0.3,0,0.5-0.1,0.7-0.1v5.4c-0.4,0.2-1,0.3-1.7,0.4
			S463.3,660.2,462.5,660.2z"/>
		<path class="st3" d="M469,636.4c0-0.5,0.1-1.1,0.3-1.6c0.2-0.5,0.5-0.9,0.9-1.3c0.4-0.4,0.8-0.7,1.3-0.9c0.5-0.2,1-0.3,1.6-0.3
			c0.6,0,1.1,0.1,1.5,0.3s0.9,0.5,1.3,0.9c0.4,0.4,0.7,0.8,0.9,1.3c0.2,0.5,0.3,1,0.3,1.6c0,0.6-0.1,1.1-0.3,1.6
			c-0.2,0.5-0.5,0.9-0.9,1.3c-0.4,0.4-0.8,0.6-1.3,0.8s-1,0.3-1.5,0.3c-0.6,0-1.1-0.1-1.6-0.3c-0.5-0.2-0.9-0.5-1.3-0.8
			c-0.4-0.4-0.7-0.8-0.9-1.3C469.1,637.5,469,637,469,636.4z M469.1,641.6h7.9v18.1h-7.9V641.6z"/>
		<path class="st3" d="M500.6,650.6c0,1.6-0.3,2.9-0.8,4.2c-0.6,1.2-1.3,2.2-2.3,3.1c-0.9,0.8-2,1.5-3.3,1.9
			c-1.2,0.4-2.6,0.7-3.9,0.7c-1.4,0-2.6-0.2-3.9-0.7c-1.2-0.4-2.3-1.1-3.3-1.9c-0.9-0.8-1.7-1.9-2.2-3.1c-0.6-1.2-0.8-2.6-0.8-4.2
			c0-1.5,0.3-2.9,0.8-4.1c0.6-1.2,1.3-2.2,2.2-3c0.9-0.8,2-1.4,3.3-1.9c1.2-0.4,2.5-0.6,3.9-0.6c1.4,0,2.7,0.2,3.9,0.6
			c1.2,0.4,2.3,1,3.3,1.9c0.9,0.8,1.7,1.8,2.3,3C500.3,647.7,500.6,649.1,500.6,650.6z M490.3,647.6c-0.9,0-1.6,0.3-2.1,0.9
			c-0.5,0.6-0.8,1.3-0.8,2.1c0,0.8,0.3,1.6,0.8,2.2c0.5,0.6,1.3,0.9,2.1,0.9s1.6-0.3,2.1-0.9c0.6-0.6,0.8-1.3,0.8-2.2
			c0-0.8-0.3-1.5-0.8-2.1C491.9,647.9,491.2,647.6,490.3,647.6z"/>
		<path class="st3" d="M503.5,641.6h7.7v2h0.1c0.5-0.7,1.1-1.2,2-1.7s1.9-0.7,3.1-0.7c1.3,0,2.3,0.2,3.1,0.7c0.8,0.5,1.5,1,2,1.8
			c0.5,0.7,0.8,1.5,1,2.4c0.2,0.9,0.3,1.8,0.3,2.7v11H515v-9.6c0-0.9-0.1-1.6-0.4-1.9c-0.3-0.4-0.7-0.6-1.3-0.6
			c-0.5,0-1,0.2-1.3,0.6c-0.3,0.4-0.5,1-0.5,1.8v9.6h-7.9L503.5,641.6L503.5,641.6z"/>
	</g>
	<g class="st1">
		<path class="st3" d="M119.6,694c0-0.5-0.2-1-0.6-1.2c-0.4-0.3-0.9-0.4-1.5-0.4c-0.7,0-1.4,0.2-2.1,0.5c-0.7,0.3-1.2,0.7-1.7,1.1
			l-3.9-3.9c1.1-1.1,2.4-1.9,3.9-2.4c1.5-0.6,3.1-0.9,4.7-0.9c1.7,0,3.1,0.2,4.3,0.7c1.1,0.5,2,1.1,2.7,2s1.1,1.8,1.4,3
			c0.3,1.1,0.4,2.3,0.4,3.6v9.5h-7.2V704h-0.1c-0.5,0.7-1.1,1.2-2,1.5c-0.8,0.3-1.7,0.4-2.5,0.4c-0.7,0-1.4-0.1-2.2-0.3
			s-1.4-0.5-2-1c-0.6-0.5-1.1-1.1-1.5-1.8c-0.4-0.7-0.6-1.6-0.6-2.7c0-1.3,0.3-2.3,1-3.1c0.7-0.8,1.5-1.4,2.5-1.9
			c1-0.4,2.1-0.7,3.4-0.9C117.2,694.1,118.4,694.1,119.6,694L119.6,694L119.6,694z M119.7,698c-1.2,0-2.1,0.1-2.8,0.4
			c-0.7,0.3-1.1,0.7-1.1,1.4c0,0.3,0.1,0.5,0.2,0.6c0.1,0.2,0.3,0.3,0.4,0.4c0.2,0.1,0.4,0.2,0.6,0.3c0.2,0.1,0.4,0.1,0.6,0.1
			c0.8,0,1.4-0.2,1.8-0.7c0.5-0.5,0.7-1.1,0.7-1.9V698H119.7L119.7,698z"/>
		<path class="st3" d="M128.2,687.4h8.8l2.6,9.7h0.1l2.5-9.7h8.5l-7,18.1h-8.6L128.2,687.4z"/>
		<path class="st3" d="M171.1,696.6c0,0.3,0,0.6,0,0.9c0,0.3,0,0.6-0.1,0.8h-12.2c0,0.3,0.1,0.6,0.3,0.9c0.2,0.3,0.4,0.5,0.7,0.7
			c0.3,0.2,0.6,0.3,1,0.4c0.4,0.1,0.7,0.1,1.1,0.1c0.7,0,1.3-0.1,1.8-0.4c0.5-0.3,0.9-0.6,1.1-0.9l5.6,2.9c-0.8,1.3-2,2.3-3.5,3.1
			c-1.5,0.8-3.3,1.1-5.3,1.1c-1.3,0-2.6-0.2-3.8-0.6c-1.2-0.4-2.3-1-3.3-1.8c-0.9-0.8-1.7-1.8-2.3-3c-0.6-1.2-0.9-2.6-0.9-4.2
			c0-1.5,0.3-2.8,0.8-4c0.5-1.2,1.2-2.2,2.1-3.1c0.9-0.8,2-1.5,3.2-1.9c1.2-0.5,2.5-0.7,3.9-0.7c1.4,0,2.7,0.2,3.9,0.7
			c1.2,0.5,2.2,1.2,3,2.1c0.8,0.9,1.5,1.9,1.9,3.1C170.8,693.9,171.1,695.2,171.1,696.6z M164.2,694c0-0.6-0.2-1.2-0.7-1.6
			c-0.5-0.4-1.1-0.6-1.9-0.6c-0.9,0-1.5,0.2-2,0.7s-0.8,1-0.8,1.5L164.2,694L164.2,694z"/>
		<path class="st3" d="M183.7,706.1c-1.5,0-2.9-0.2-4.2-0.7s-2.4-1.1-3.3-2c-0.9-0.8-1.7-1.9-2.2-3.1c-0.5-1.2-0.8-2.5-0.8-4
			c0-1.5,0.3-2.8,0.8-4c0.5-1.2,1.3-2.2,2.2-3.1c1-0.8,2.1-1.5,3.4-2c1.3-0.5,2.7-0.7,4.2-0.7c0.6,0,1.2,0.1,1.9,0.2
			c0.6,0.1,1.2,0.2,1.8,0.4c0.6,0.2,1.1,0.4,1.6,0.6c0.5,0.2,0.9,0.5,1.3,0.8l-3.9,5.7c-0.3-0.3-0.6-0.5-1.1-0.7
			c-0.4-0.2-0.9-0.2-1.3-0.2c-0.4,0-0.8,0.1-1.1,0.2c-0.4,0.1-0.7,0.3-1,0.6c-0.3,0.3-0.5,0.6-0.7,1c-0.2,0.4-0.3,0.8-0.3,1.3
			c0,0.5,0.1,0.9,0.3,1.3c0.2,0.4,0.4,0.7,0.7,0.9c0.3,0.2,0.6,0.4,1,0.5c0.4,0.1,0.7,0.2,1.1,0.2c0.5,0,0.9-0.1,1.3-0.3
			c0.4-0.2,0.8-0.4,1.1-0.7l4,5.5c-0.8,0.6-1.7,1.1-2.9,1.5C186.3,705.9,185,706.1,183.7,706.1z"/>
		<path class="st3" d="M208.9,695.8L208.9,695.8l-0.1,9.7h-7.9v-24.3h7.9v9h0.1l6.5-9h9.6l-9.1,11.1l9.6,13.2h-10L208.9,695.8z"/>
		<path class="st3" d="M244.5,696.6c0,0.3,0,0.6,0,0.9c0,0.3,0,0.6-0.1,0.8h-12.2c0,0.3,0.1,0.6,0.3,0.9c0.2,0.3,0.4,0.5,0.7,0.7
			c0.3,0.2,0.6,0.3,1,0.4c0.4,0.1,0.7,0.1,1.1,0.1c0.7,0,1.3-0.1,1.8-0.4c0.5-0.3,0.9-0.6,1.1-0.9l5.6,2.9c-0.8,1.3-2,2.3-3.5,3.1
			c-1.5,0.8-3.3,1.1-5.3,1.1c-1.3,0-2.6-0.2-3.8-0.6c-1.2-0.4-2.3-1-3.3-1.8s-1.7-1.8-2.3-3c-0.6-1.2-0.9-2.6-0.9-4.2
			c0-1.5,0.3-2.8,0.8-4c0.5-1.2,1.2-2.2,2.1-3.1c0.9-0.8,2-1.5,3.2-1.9c1.2-0.5,2.5-0.7,3.9-0.7c1.4,0,2.7,0.2,3.9,0.7
			s2.2,1.2,3,2.1c0.8,0.9,1.5,1.9,1.9,3.1C244.3,693.9,244.5,695.2,244.5,696.6z M237.7,694c0-0.6-0.2-1.2-0.7-1.6
			c-0.5-0.4-1.1-0.6-1.9-0.6c-0.9,0-1.5,0.2-2,0.7s-0.8,1-0.8,1.5L237.7,694L237.7,694z"/>
		<path class="st3" d="M245.2,687.4h8.8l2.6,9.7h0.1l2.5-9.7h8.5l-7,18.1H252L245.2,687.4z"/>
		<path class="st3" d="M269.1,682.2c0-0.5,0.1-1.1,0.3-1.6c0.2-0.5,0.5-0.9,0.9-1.3c0.4-0.4,0.8-0.7,1.3-0.9c0.5-0.2,1-0.3,1.6-0.3
			c0.6,0,1.1,0.1,1.5,0.3c0.5,0.2,0.9,0.5,1.3,0.9c0.4,0.4,0.7,0.8,0.9,1.3c0.2,0.5,0.3,1,0.3,1.6c0,0.6-0.1,1.1-0.3,1.6
			s-0.5,0.9-0.9,1.3c-0.4,0.4-0.8,0.6-1.3,0.8c-0.5,0.2-1,0.3-1.5,0.3c-0.6,0-1.1-0.1-1.6-0.3s-0.9-0.5-1.3-0.8
			c-0.4-0.4-0.7-0.8-0.9-1.3C269.2,683.3,269.1,682.8,269.1,682.2z M269.2,687.4h7.9v18.1h-7.9V687.4z"/>
		<path class="st3" d="M280.8,687.4h7.7v2h0.1c0.5-0.7,1.1-1.2,2-1.7c0.9-0.5,1.9-0.7,3.1-0.7c1.3,0,2.3,0.2,3.1,0.7
			c0.8,0.5,1.5,1,2,1.8c0.5,0.7,0.8,1.5,1,2.4c0.2,0.9,0.3,1.8,0.3,2.7v11h-7.9v-9.6c0-0.9-0.1-1.6-0.4-1.9
			c-0.3-0.4-0.7-0.5-1.3-0.5c-0.5,0-1,0.2-1.3,0.6c-0.3,0.4-0.5,1-0.5,1.8v9.6h-7.9L280.8,687.4L280.8,687.4z"/>
		<path class="st3" d="M319.9,691.7l0.4,13.7h-7.6v-24.3h10.7l4.4,13.1h0.2l3.8-13.1h11v24.3h-8l0.2-13.7l-0.2,0l-4.5,13.7h-5.8
			l-4.5-13.7L319.9,691.7L319.9,691.7z"/>
		<path class="st3" d="M366,705.5h-7.7v-2h-0.1c-0.5,0.7-1.1,1.2-2,1.7c-0.9,0.5-1.9,0.7-3.1,0.7c-1.3,0-2.3-0.2-3.2-0.7
			c-0.8-0.4-1.5-1-2-1.8s-0.8-1.5-1-2.4c-0.2-0.9-0.3-1.8-0.3-2.7v-11h7.9v9.5c0,0.9,0.1,1.6,0.4,1.9c0.3,0.4,0.7,0.5,1.3,0.5
			c0.5,0,1-0.2,1.3-0.6c0.3-0.4,0.5-1,0.5-1.8v-9.5h7.9L366,705.5L366,705.5z"/>
		<path class="st3" d="M369.6,687.4h7.6v2.1h0.1c0.4-0.7,1-1.3,1.7-1.8c0.8-0.5,1.7-0.7,2.7-0.7c0.6,0,1.1,0.1,1.5,0.2l-0.6,6.7
			c-0.3-0.1-0.5-0.1-0.8-0.2c-0.3,0-0.6-0.1-0.8-0.1c-1,0-1.9,0.3-2.5,0.9c-0.6,0.6-0.9,1.3-0.9,2.2v8.8h-7.9L369.6,687.4
			L369.6,687.4z"/>
		<path class="st3" d="M397.6,705.9c-0.9,0-1.8-0.2-2.6-0.5c-0.9-0.3-1.6-0.8-2.1-1.4h-0.1v9.6h-7.9v-26.3h7.4v1.8h0.1
			c0.7-0.8,1.5-1.3,2.4-1.7c0.9-0.4,1.9-0.6,2.7-0.6c1.3,0,2.5,0.3,3.6,0.8c1,0.5,1.9,1.3,2.6,2.2c0.7,0.9,1.2,1.9,1.6,3
			c0.4,1.1,0.5,2.3,0.5,3.4c0,1.2-0.2,2.4-0.5,3.5c-0.4,1.1-0.9,2.2-1.6,3.1c-0.7,0.9-1.5,1.6-2.6,2.2
			C400.1,705.7,398.9,705.9,397.6,705.9z M398.4,696.4c0-0.8-0.3-1.5-0.8-2.1c-0.5-0.6-1.2-0.9-2.2-0.9c-0.9,0-1.7,0.3-2.2,0.9
			c-0.6,0.6-0.8,1.3-0.8,2.1c0,0.8,0.3,1.6,0.8,2.2c0.6,0.6,1.3,0.9,2.2,0.9c1,0,1.7-0.3,2.2-0.9C398.2,698,398.4,697.2,398.4,696.4
			z"/>
		<path class="st3" d="M421.6,686.9c1.3,0,2.3,0.2,3.1,0.7c0.8,0.5,1.5,1,2,1.8c0.5,0.7,0.8,1.5,1,2.4c0.2,0.9,0.3,1.8,0.3,2.7v11
			h-7.9v-9.6c0-0.9-0.1-1.6-0.4-1.9c-0.3-0.4-0.7-0.5-1.3-0.5c-0.5,0-0.9,0.2-1.2,0.6c-0.4,0.4-0.5,1-0.5,1.9v9.6h-7.9v-26h7.9v9.9
			h0.1c0.5-0.7,1.1-1.2,2-1.7S420.5,686.9,421.6,686.9z"/>
		<path class="st3" d="M436.8,704.7l-7.3-17.3h8.8l2.7,9.5h0.1l2.4-9.5h8.5l-7.4,19.2c-0.4,1.1-0.9,2.1-1.5,3s-1.2,1.6-1.9,2.2
			c-0.7,0.6-1.6,1.1-2.6,1.4c-1,0.3-2.2,0.5-3.5,0.5c-0.4,0-0.8,0-1.3-0.1c-0.4,0-0.9-0.1-1.3-0.1c-0.4-0.1-0.8-0.1-1.1-0.2
			c-0.3-0.1-0.6-0.1-0.9-0.2l1-6.6c0.3,0.1,0.7,0.2,1.1,0.3c0.4,0.1,0.8,0.1,1.2,0.1c0.9,0,1.5-0.2,1.9-0.5c0.4-0.4,0.7-0.8,0.9-1.4
			L436.8,704.7z"/>
	</g>
	<g>
		<path class="st4" d="M169.3,440.6h-38.2c-4.8-5.8-9.6,0-9.6,0l-20.6-0.5L99.1,571h4.3h11.5c0,0,0.4,6.2,5.2,6.2s4.8-6.7,4.8-6.7
			l42.7,0.3c1.3,0,2.4-1.1,2.5-2.4l1.8-125.4C171.8,441.8,170.7,440.6,169.3,440.6z"/>
		<g>
			<path class="st4" d="M260.6,31.3h-52c-2.6,0-4.7,2.1-4.7,4.7l0.5,206.7c0,0-3.9,28.6,12.5,47c9.1,10.2,29.9,15,47.9,15.3
				c1.3-1.7,0.5-8.1,0.5-17.2c0,0,1.7-212.1-0.5-253.2C264.5,30.1,260.9,31.3,260.6,31.3z"/>
		</g>
		<polygon class="st4" points="343.4,113.2 401,113.2 325.2,200.5 401,287.2 342.5,287.2 266,201.7 		"/>
		<path class="st4" d="M448.9,2.5h-93.5c0,0-147.6,0-162,0c-14.4,0-17.3,14.4-17.3,14.4v433.3h-3.8l-1.9,110.2h4.8v3.8
			c0.9,17.7,14.9,19.8,17,20.1c0.3,1,0.8,1.9,1.5,2.7c2.2,2.2,5.8,2.2,8.1,0c0.8-0.8,1.2-1.7,1.5-2.7h0.5l0,0h2.4h228.5
			c0.3,1,0.8,1.9,1.4,2.7c2.2,2.2,5.8,2.2,8.1,0c0.8-0.8,1.2-1.7,1.4-2.7c2.6,0,4.4,0,5.5,0c13.4,0,14.4-11.5,14.4-11.5V172.8V14
			C464.7,1.6,448.9,2.5,448.9,2.5z"/>
	</g>
	<g>
		<g>
			<g>
				<g>
					<path class="st5" d="M178.1,336.4c-22.6-18-50-29.7-78.2-35.1c-2.5-0.5-3.6,3.3-1.1,3.8c27.5,5.3,54.5,16.5,76.5,34
						C177.3,340.7,180.1,338,178.1,336.4L178.1,336.4z"/>
				</g>
			</g>
			<g>
				<g>
					<path class="st5" d="M163,325.7c-9-9.8-16-21.4-21.3-33.6c-5.3-12.2-8.7-25.7-7.7-39.1c0.2-2.6-3.8-2.5-4,0
						c-1,13.6,2.5,27.3,7.7,39.9c5.4,13,12.9,25.2,22.4,35.6C161.9,330.4,164.7,327.6,163,325.7L163,325.7z"/>
				</g>
			</g>
			<g>
				<g>
					<path class="st5" d="M160.6,323c-21-19.1-44.7-35.4-69.8-48.6c-2.3-1.2-4.3,2.2-2,3.4c24.8,13.1,48.2,29.2,69,48
						C159.7,327.5,162.5,324.7,160.6,323L160.6,323z"/>
				</g>
			</g>
			<g>
				<g>
					<path class="st5" d="M134.7,301.7c-16-13.9-28.6-32.1-36.1-52c-0.9-2.4-4.7-1.3-3.8,1.1c7.7,20.5,20.6,39.4,37.1,53.7
						C133.8,306.2,136.6,303.4,134.7,301.7L134.7,301.7z"/>
				</g>
			</g>
			<g>
				<g>
					<path class="st5" d="M133.7,252.1c-8.4-14.9-13.3-32-9.6-49c3.3-15.1,13.6-27.4,17.6-42.3c-1.2,0.2-2.4,0.3-3.6,0.5
						c4.6,6.7,9.2,13.5,12.1,21.1c3.2,8.4,3,17,0.8,25.6c-4.2,16.7-12.9,32.2-20.7,47.5c-1.2,2.3,2.3,4.3,3.4,2
						c8.2-15.9,17-31.9,21.3-49.4c2.2-8.7,2.2-17.5-0.7-26c-2.8-8.3-7.9-15.6-12.8-22.8c-0.9-1.4-3.2-1.3-3.6,0.5
						c-4.2,15.8-15.2,28.8-18.1,45.1c-3.1,17.1,2.2,34.5,10.5,49.3C131.5,256.3,135,254.3,133.7,252.1L133.7,252.1z"/>
				</g>
			</g>
			<g>
				<g>
					<path class="st5" d="M100.2,301.4c-6.8-6.1-14.5-11.1-23.4-13.5c-8.5-2.2-17.3-1.2-25.1,2.9c-16.1,8.3-23.2,26.4-27.7,42.9
						c-0.5,1.8,2,3.5,3.3,1.9c5.2-6,12.5-7.9,20.1-6.1c7.4,1.8,14.2,5.6,22.1,4.7c15.8-1.9,23.5-17.9,31.6-29.4c1.5-2.1-2-4.1-3.4-2
						c-8.1,11.6-17,30-34,27.4c-7.3-1.1-13.9-5-21.4-5.4c-6.7-0.3-13.4,3-17.7,8c1.1,0.6,2.2,1.3,3.3,1.9
						c4.2-15.3,10.3-31.2,24.5-39.8c15.4-9.3,32.8-1.7,45,9.2C99.2,305.9,102.1,303.1,100.2,301.4L100.2,301.4z"/>
				</g>
			</g>
			<g>
				<g>
					<path class="st6" d="M90.9,274.4c-6.9-4.7-11-12.2-15.1-19.2c-4.4-7.5-9.5-14.1-16.6-19.3c-7.3-5.3-15.9-8-24.7-8.9
						c-10.6-1.1-21.4,0.3-31.9-1.9c-2.2-0.5-3.4,2.4-1.5,3.6c15.6,10.6,17.9,32.3,32.7,43.8c16.2,12.6,38,9,56.5,5.5
						c2.5-0.5,1.4-4.3-1.1-3.8c-18.5,3.5-40.7,7.1-55.8-7.1c-6.4-6.1-10.2-14.5-14.4-22.1c-4.1-7.5-8.9-14.8-16.1-19.7
						c-0.5,1.2-1,2.4-1.5,3.6c10,2.2,20.1,1.3,30.2,1.9c9.5,0.5,18.4,3.4,26.1,9c7.2,5.2,11.7,12.5,16.1,20c4,6.8,8.3,13.6,15,18.1
						C91,279.2,93,275.8,90.9,274.4L90.9,274.4z"/>
				</g>
			</g>
			<g>
				<g>
					<path class="st6" d="M99.4,250.8c0.2-8.9,2-17.6,5.2-25.9c2.9-7.6,7.7-14.8,8.7-23c1-8.3-2.7-15.5-7.2-22.2
						c-4.7-7-10.6-14.8-8.5-23.7c0.4-1.9-1.9-3.4-3.3-1.9c-13.8,14.8-21.2,34.9-23.3,54.8c-1.1,10.1,0.1,20.8,5.5,29.6
						c4.6,7.4,12.1,12.8,20.9,13.9c2.5,0.3,2.5-3.7,0-4c-8.2-1-14.7-6.8-18.6-13.8c-4.6-8.3-4.8-18.3-3.7-27.5
						c2.2-18.2,9.4-36.7,22-50.2c-1.1-0.6-2.2-1.3-3.3-1.9c-4.2,18.1,17.1,28.7,15.7,46.1c-0.7,8.3-6,16-8.9,23.6
						c-3.2,8.3-4.8,17.2-5,26.1C95.4,253.4,99.4,253.4,99.4,250.8L99.4,250.8z"/>
				</g>
			</g>
			<g>
				<g>
					<path class="st6" d="M141.6,314.4c-6.2-1.5-12.2-1.4-18.3,0.5c-2.4,0.8-1.4,4.6,1.1,3.8c5.4-1.7,10.6-1.8,16.2-0.5
						C143,318.8,144.1,315,141.6,314.4L141.6,314.4z"/>
				</g>
			</g>
			<g>
				<g>
					<path class="st6" d="M122.6,316.4c-2.6,11-10,20.2-20.1,25.2c-5.6,2.8-12,3.4-17.7,6.1c-5.1,2.4-8.9,7.1-10.8,12.4
						c1.3,0.2,2.6,0.4,3.9,0.5c-0.4-12.5,1.7-27.1,10-37c8.8-10.7,23.3-10.6,35.1-5.3c2.3,1,4.3-2.4,2-3.4
						c-13-5.8-28.3-6.1-38.8,4.8c-10.1,10.4-12.6,27.2-12.2,41c0.1,2.3,3.2,2.6,3.9,0.5c2.2-6.2,7.1-9.7,13.2-11.6
						c5.8-1.8,11.4-3.1,16.7-6.2c9.4-5.6,16.3-15.2,18.8-25.8C127,315,123.2,313.9,122.6,316.4L122.6,316.4z"/>
				</g>
			</g>
		</g>
		<g>
			<g>
				<g>
					<path class="st6" d="M78.1,358.6c2.6-11.4,5.4-23.4,14-32c8.3-8.3,20.9-9.4,31.8-7.4c2.5,0.5,3.6-3.4,1.1-3.8
						c-11.8-2.2-24.4-1-34,6.8c-10.5,8.5-13.9,22.8-16.8,35.3C73.7,360,77.5,361,78.1,358.6L78.1,358.6z"/>
				</g>
			</g>
			<g>
				<g>
					<path class="st6" d="M124.6,315.3c-12.2,0.3-18,11.9-25.7,19.5c-4.2,4.1-9.8,5.5-14.4,9c-4.1,3.2-6.6,7.8-8.9,12.3
						c-1.2,2.3,2.3,4.3,3.4,2c2.3-4.4,4.6-9,8.8-11.9c4.1-2.8,8.8-4.2,12.6-7.5c7.6-6.5,12.6-19.2,24.1-19.5
						C127.1,319.2,127.1,315.2,124.6,315.3L124.6,315.3z"/>
				</g>
			</g>
			<g>
				<g>
					<path class="st6" d="M28.8,333c5.4-13.2,12.5-26.6,25.5-33.6c14.5-7.8,30.5-0.9,43.7,6.1c2.3,1.2,4.3-2.2,2-3.4
						c-14.6-7.8-31-14.2-47-6.5c-14.5,7-22.3,22.2-28.1,36.4C24,334.3,27.8,335.3,28.8,333L28.8,333z"/>
				</g>
			</g>
			<g>
				<g>
					<path class="st6" d="M98.5,301.6c-6,1.9-10.5,6.2-15,10.4c-2.3,2.1-4.8,4.2-7.6,5.7c-3.7,2-8,2.1-12,1.5
						c-7.8-1.2-15.2-4.3-23.2-2.8c-7.3,1.4-11.6,8-14.8,14.1c-1.2,2.3,2.2,4.3,3.4,2c1.6-3.1,3.4-6.1,5.8-8.6
						c2.7-2.8,6.4-3.9,10.2-4c8-0.2,15.5,3.7,23.6,3.6c6.3,0,11.4-3.3,16-7.3c4.6-4,8.8-8.8,14.7-10.7
						C102,304.7,101,300.8,98.5,301.6L98.5,301.6z"/>
				</g>
			</g>
			<g>
				<g>
					<path class="st5" d="M133.6,254.4c6.2-14.6,12.3-29.4,13.8-45.4c0.7-7.6-0.1-15.2-1.6-22.6c-1.6-8-3.8-15.9-4.1-24.1
						c-0.1-2.5-4.1-2.6-4,0c0.3,7.3,1.9,14.4,3.5,21.5c1.7,7.8,2.9,15.4,2.4,23.4c-0.9,15.8-7.3,30.8-13.4,45.2
						C129.2,254.7,132.6,256.7,133.6,254.4L133.6,254.4z"/>
				</g>
			</g>
			<g>
				<g>
					<path class="st6" d="M137.6,162.1c-1.2,15.1-9.7,28.4-12.4,43.3c-2.8,16,3.7,31.3,5.3,47.1c0.2,2.5,4.2,2.5,4,0
						c-1.6-16-8.2-31.5-5.1-47.7c2.8-14.6,11-27.6,12.2-42.7C141.7,159.6,137.7,159.6,137.6,162.1L137.6,162.1z"/>
				</g>
			</g>
			<g>
				<g>
					<path class="st6" d="M97.9,247.9c-14.3-7.9-20.5-24-20.1-39.7c0.5-17.7,9-34.9,18.3-49.6c-1.1-0.7-2.3-1.3-3.4-2
						c-3.2,7.4-6.2,15.3-5.4,23.6c0.7,8.2,6.6,14.6,9,22.2c2.9,9.1,0.6,17.6-2,26.4c-2.1,7.3-3.3,15.4,0.9,22.2
						c1.3,2.2,4.8,0.2,3.4-2c-4.3-7.1-1.6-15.4,0.6-22.7c2.3-7.7,3.2-15.3,1.4-23.2c-1.8-7.5-7.1-13.5-9-20.9
						c-2-7.8,1.5-16.5,4.6-23.5c1-2.3-2-4.2-3.4-2C82.6,172.5,74,191,73.8,210.1c-0.2,16.4,7.4,33.2,22.1,41.3
						C98.1,252.6,100.1,249.2,97.9,247.9L97.9,247.9z"/>
				</g>
			</g>
			<g>
				<g>
					<path class="st6" d="M3.9,230.3c16,7,20.6,26.4,33.5,36.9c13.9,11.4,33.7,7.6,50.3,10.1c2.5,0.4,3.6-3.4,1.1-3.8
						c-8.3-1.3-16.8-1.4-25.2-1.9c-9.2-0.5-18.1-2.5-25.1-8.8c-12.2-10.9-16.7-29.1-32.5-36C3.6,225.9,1.6,229.3,3.9,230.3
						L3.9,230.3z"/>
				</g>
			</g>
			<g>
				<g>
					<path class="st6" d="M88.3,273c-17.4-1.2-25.6-20.5-36.4-31.5c-5.7-5.8-13-9.8-20.9-11.8c-8.4-2.1-17.1-1-25.6-3
						c-2.5-0.6-3.5,3.2-1.1,3.8c8.2,2,16.6,1.2,24.8,2.9c8.8,1.8,16.3,6.8,22.3,13.4c10.7,11.8,19,29,36.9,30.2
						C90.9,277.1,90.9,273.2,88.3,273L88.3,273z"/>
				</g>
			</g>
		</g>
	</g>
	<g>
		<g>
			<g>
				<g>
					<path class="st5" d="M453.4,477.1c-13.2-5.6-26.7-11.4-36.7-22.1c-4.6-4.9-8-10.7-9.8-17.1c-2.1-7.7-0.8-15.8,1-23.3
						c3.8-15.2,10.2-29.7,13.3-45.1c2.8-13.8,2.7-28.4-3.4-41.3c-1,0.8-2.1,1.6-3.1,2.4c9.1,9.7,21.8,15.3,29.9,26
						c8,10.6,10.7,24.3,10.5,37.4c-0.2,15.7-4.9,30.8-8.5,46c-1.7,6.9-3.1,14.2-2.4,21.4c0.7,6.5,3,12.8,6.3,18.5
						c1.3,2.2,4.7,0.2,3.4-2c-3.5-6.1-5.8-12.8-5.9-19.8c-0.2-7.6,2-15.3,3.9-22.6c3.8-15.1,7.7-30.3,7.2-46
						c-0.4-12.6-3.9-25.4-11.5-35.5c-8.1-10.8-20.9-16.5-30-26.2c-1.6-1.7-4,0.5-3.1,2.4c13.9,29.5-6.1,60-11.6,88.9
						c-1.4,7.1-1.5,14.4,0.6,21.4c1.8,6.1,5.2,11.5,9.3,16.2c9.2,10.8,22.5,17,35.3,22.5c1.1,0.5,2.2,0.9,3.2,1.4
						C453.8,481.5,455.8,478.1,453.4,477.1L453.4,477.1z"/>
				</g>
			</g>
			<g>
				<g>
					<path class="st6" d="M503.5,511.5c11.5-6.4,25-6.7,37.4-10.4c12-3.6,21.1-11.3,27.8-21.7c14.9-23.3,13.4-54.4,32.7-75.2
						c1.5-1.7-0.4-4.2-2.4-3.1c-22.6,12.3-54,11.8-68.8,35.9c-6.7,10.9-7.6,24.2-10.9,36.2c-1.8,6.6-4.6,12.5-8.2,18.2
						c-3.6,5.7-7.5,11.2-10.2,17.4c-1,2.3,2.4,4.3,3.4,2c2.6-6,6.3-11.3,9.8-16.7c3.4-5.3,6.2-10.8,8.2-16.8
						c3.9-12,4.4-25,10.3-36.3c5.9-11.6,17.7-18.1,29.5-22.4c13-4.8,26.8-7.4,39.1-14.1c-0.8-1-1.6-2.1-2.4-3.1
						c-19.1,20.6-18.5,50.5-32.1,74c-3,5.2-6.8,10-11.4,13.9c-4.8,4.2-10.7,6.7-16.8,8.4c-12.3,3.5-25.4,4-36.7,10.3
						C499.3,509.3,501.3,512.7,503.5,511.5L503.5,511.5z"/>
				</g>
			</g>
			<g>
				<g>
					<path class="st6" d="M489.7,452.9c10.6-7.4,10.5-21.3,7.9-32.6c-1.7-7.3-4.1-14.3-4.7-21.8c-0.6-7.5,0.4-15,2.6-22.1
						c4.2-13.8,14.3-24.6,21.9-36.6c7-11.1,12-25.3,7.1-38.3c-0.7-1.9-3.1-1.9-3.8,0c-4.8,13-19.9,17.3-31.4,22.3
						c-6.2,2.6-12.1,5.8-16.9,10.5c-4.2,4.2-7.2,9.4-9.3,14.9c-10.4,27.1,5.4,53.8,19.8,75.9c4.6,7.1,9.4,16.6,4.2,24.7
						c-1.4,2.2,2.1,4.2,3.4,2c8.1-12.7-2.8-26.4-9.5-36.9c-7.8-12.3-15-25.8-16.8-40.5c-1.5-12.2,1.1-25.5,9.1-35.2
						c8.9-10.8,23.5-13.2,35.2-19.6c7.1-3.9,13.2-9.4,16.1-17.1c-1.3,0-2.6,0-3.8,0c4.9,13-1,26.5-8.1,37.4
						c-7.4,11.3-16.2,21.5-20.6,34.5c-4.4,13.1-3.5,26.5,0,39.7c2.9,11.1,7.2,27.3-4.3,35.3C485.6,450.9,487.6,454.3,489.7,452.9
						L489.7,452.9z"/>
				</g>
			</g>
			<g>
				<g>
					<path class="st5" d="M508.1,435.9c7.4-8.5,17.7-13.2,27.5-18.3c10.1-5.3,19.1-11.5,25.6-21.1c13.7-20.6,12.8-48.2,29.8-66.9
						c1.3-1.4,0.1-4-1.9-3.3c-12.6,4.3-25.9,5.4-38.6,9.5c-11.9,3.9-21.6,11.2-29,21.3c-16.2,22.1-16.6,51.1-16.8,77.4
						c0,2.6,3.9,2.6,4,0c0.2-25.6,0.7-53,15.8-74.8c7-10.1,17-16.9,28.6-20.6c12.1-3.8,24.9-4.9,37-9c-0.6-1.1-1.3-2.2-1.9-3.3
						c-16.9,18.6-16.9,45.5-29.6,66.4c-6.2,10.3-15.9,16.3-26.3,21.7c-9.7,5-19.7,9.9-27,18.2C503.6,435,506.4,437.9,508.1,435.9
						L508.1,435.9z"/>
				</g>
			</g>
			<g>
				<g>
					<path class="st6" d="M451.2,480.1c10.6,11.4,28,20,28.8,37.5c0.4,8.9-4.1,17.3-8.1,25c-4.3,8.3-8.4,16.9-8.3,26.5
						c0,2.6,4,2.6,4,0c-0.2-19.5,18.3-33.9,16.2-53.8c-1.8-17.6-18.9-26.3-29.8-38C452.2,475.4,449.4,478.2,451.2,480.1L451.2,480.1
						z"/>
				</g>
			</g>
			<g>
				<g>
					<path class="st6" d="M487.6,449.5c-8,7-14.5,16.9-14.6,27.8c-0.1,12.5,9.3,23.9,6.7,36.5c-0.5,2.5,3.3,3.6,3.8,1.1
						c2.3-11.4-3.9-21.8-6.1-32.7c-2.4-11.7,4.5-22.5,13-29.9C492.4,450.6,489.6,447.8,487.6,449.5L487.6,449.5z"/>
				</g>
			</g>
			<g>
				<g>
					<path class="st6" d="M501.5,507.6c-1.9,2.3-4.3,3.4-7.1,4.7c-2.7,1.2-5.2,3-7.5,4.9c-4.5,3.7-7.9,8.6-9.7,14.1
						c-0.8,2.4,3,3.5,3.8,1.1c1.8-5.5,5.6-10,10.2-13.5c4.2-3.2,9.6-4.3,13.1-8.4C505.9,508.5,503.1,505.6,501.5,507.6L501.5,507.6z
						"/>
				</g>
			</g>
			<g>
				<g>
					<path class="st6" d="M505.1,433c-2,10.6-7.7,19.8-15.2,27.4c-7.1,7.1-16.6,14.5-15.5,25.8c0.3,2.5,4.2,2.5,4,0
						c-1.1-11.2,10-18.2,16.6-25.4c6.9-7.5,12-16.7,13.9-26.7C509.4,431.6,505.6,430.5,505.1,433L505.1,433z"/>
				</g>
			</g>
		</g>
		<g>
			<g>
				<g>
					<path class="st6" d="M416,332.8c6.6,9.5,15.8,16.7,23.2,25.7c3.8,4.6,6.7,9.9,8.1,15.7c1.8,7.4,0.9,15.4-0.6,22.8
						c-1.5,7.2-3.7,14.2-5.4,21.3c-1.7,7.2-2.9,14.6-3.1,22c-0.4,13.4,3.1,27,11.7,37.5c1.6,2,4.4-0.8,2.8-2.8
						c-8.8-10.8-11.2-24.9-10.3-38.5c1-15.1,7-29.1,9.2-44c1-6.7,1-13.6-0.6-20.2c-1.4-5.7-4.4-10.9-8-15.5
						c-7.2-9.2-16.7-16.4-23.4-26C418,328.7,414.5,330.7,416,332.8L416,332.8z"/>
				</g>
			</g>
			<g>
				<g>
					<path class="st6" d="M415.7,334.3c7.7,11.7,15.8,24.3,15.9,38.7c0.1,13.4-7,25.8-11.2,38.2c-2,5.9-3.4,12-3.4,18.2
						c-0.1,6.8,1.9,13.5,4.8,19.7c6,12.7,17.4,22.4,28.6,30.4c2.1,1.5,4.1-2,2-3.4c-11.3-8-22.1-17.7-27.9-30.5
						c-2.9-6.3-3.9-13.2-3.4-20c0.6-6.6,2.9-13.1,5.3-19.3c4.5-11.8,10-23.6,9.1-36.6c-1-13.9-8.9-26.1-16.3-37.4
						C417.7,330.1,414.3,332.1,415.7,334.3L415.7,334.3z"/>
				</g>
			</g>
			<g>
				<g>
					<path class="st6" d="M520,304.2c1.1,8.2-8.5,12.4-14.4,15.4c-6.6,3.4-13.1,6.9-19.1,11.3c-10.7,7.8-18.8,19-19,32.7
						c-0.3,14.9,8.3,28.1,15.3,40.5c6.9,12.3,13.4,26.9,8.1,41c-0.4,1.1-1,2.2-1.6,3.2c-1.3,2.2,2.2,4.2,3.4,2
						c6.9-12.2,3.9-26.6-1.6-38.8c-6.2-13.7-15.9-25.6-19-40.6c-1.5-7.3-0.6-14.7,2.8-21.4c3.1-6.1,8.1-11.1,13.6-15.2
						c5.9-4.5,12.5-7.9,19.1-11.3c5.9-3,12.6-6.2,15.3-12.7c1-2.4,1.3-4.7,0.9-7.3C523.5,300.6,519.7,301.7,520,304.2L520,304.2z"/>
				</g>
			</g>
			<g>
				<g>
					<path class="st6" d="M520.1,303.9c2.3,12.7-5.4,24-14.6,31.8c-4.8,4.1-9.9,7.8-13.9,12.7c-3.7,4.5-6.2,9.8-7.7,15.3
						c-2.9,10.3-1.7,20.4,1.1,30.5c2.9,10.8,6.8,21.4,9.8,32.1c0.7,2.5,4.5,1.4,3.8-1.1c-3.1-10.8-6.9-21.3-9.8-32.1
						c-1.2-4.4-2.4-8.9-2.6-13.5c-0.4-6.1,0.6-12.2,2.6-18c2.1-6,5.8-11.1,10.4-15.4c4.6-4.3,9.8-7.8,14.1-12.4
						c7.9-8.2,12.8-19.7,10.7-31.1C523.5,300.3,519.6,301.4,520.1,303.9L520.1,303.9z"/>
				</g>
			</g>
			<g>
				<g>
					<path class="st6" d="M509.7,432.4c4.3-12.9,3.6-26.8,6.5-40c2.4-10.9,7.5-21.1,14.6-29.7c7.1-8.6,16.4-15.2,26.9-18.8
						c10.7-3.7,22.3-5.2,31-13.1c1.9-1.7-0.9-4.5-2.8-2.8c-8.9,8.2-21.9,9-32.8,13.4c-10.3,4.1-19.1,11.1-26.1,19.6
						c-7,8.6-11.9,18.8-14.5,29.6c-3.2,13.4-2.3,27.5-6.7,40.7C505.1,433.8,508.9,434.9,509.7,432.4L509.7,432.4z"/>
				</g>
			</g>
			<g>
				<g>
					<path class="st6" d="M587.3,328.1c-9.4,7.1-17.9,15.5-23.5,26c-5.9,11.3-6.1,24.6-13.5,35.2c-5.9,8.3-14.8,14.1-22.8,20.1
						c-8.1,6-16.1,12.6-20.9,21.7c-1.2,2.3,2.2,4.3,3.4,2c9.5-18,30.9-24.8,42.9-40.7c3.4-4.5,5.6-9.4,7.3-14.8
						c1.9-6.2,3.1-12.6,5.7-18.6c4.8-11.2,13.8-20.2,23.4-27.5C591.3,330,589.3,326.6,587.3,328.1L587.3,328.1z"/>
				</g>
			</g>
			<g>
				<g>
					<path class="st6" d="M504.6,510.1c7.8-8.3,19.2-11.1,29.5-14.8c10.7-3.8,20.6-8.8,26.4-19c6.8-11.9,6.5-26.3,10.4-39.1
						c4-13,14.7-24.9,27.3-30.1c2.3-1,1.3-4.8-1.1-3.8c-12.2,5-22.8,15.4-28.1,27.5c-5.7,12.9-4.9,27.7-10.6,40.7
						c-10.3,23.3-40.8,18.9-56.7,35.8C500.1,509.2,502.9,512,504.6,510.1L504.6,510.1z"/>
				</g>
			</g>
			<g>
				<g>
					<path class="st6" d="M504.4,509.5c7.6-9.3,17.2-16.6,24.8-25.9c3.5-4.3,6.4-8.9,8.5-14c2.2-5.6,2.5-11.6,3.6-17.4
						c1-6,3.5-10.8,7.8-15c4.1-3.9,9.1-6.7,13.9-9.5c11.9-7.1,23.8-14.1,35.7-21.2c2.2-1.3,0.2-4.7-2-3.4
						c-11.9,7.1-23.8,14.1-35.7,21.2c-9.2,5.5-18.7,11.2-22.4,21.9c-1.9,5.7-1.9,11.9-3.3,17.7c-1.3,5.7-4.3,10.8-7.7,15.4
						c-7.5,10.1-18.1,17.6-26.1,27.4C500,508.7,502.8,511.5,504.4,509.5L504.4,509.5z"/>
				</g>
			</g>
		</g>
	</g>
	<g>
		<g>
			<g>
				<g>
					<path class="st7" d="M520.5,186.4c0,0,26.3-9,20-36.2C540.5,150.1,510.8,164,520.5,186.4z"/>
				</g>
			</g>
			<path class="st7" d="M539.6,150.6c0.9,10.3-20,25.5-19.1,35.8"/>
		</g>
		<g>
			<g>
				<g>
					<path class="st7" d="M115.1,387c0,0,5.3,25.1,30.9,22.5C146.1,409.5,136.7,380.7,115.1,387z"/>
				</g>
			</g>
			<path class="st7" d="M145.7,408.6c-9.5-0.4-21.1-21.2-30.6-21.6"/>
		</g>
		<g>
			<g>
				<g>
					<path class="st7" d="M516.6,225.9c0,0-4.9-20.6-26-17.9C490.6,208.1,499,231.6,516.6,225.9z"/>
				</g>
			</g>
			<path class="st7" d="M490.9,208.8c7.9,0.1,17.8,17,25.7,17.1"/>
		</g>
		<g>
			<g>
				<g>
					<path class="st7" d="M301.4,433.7c0,0-4.9-20.6-26-17.9C275.4,415.8,283.8,439.4,301.4,433.7z"/>
				</g>
			</g>
			<path class="st7" d="M275.7,416.6c7.9,0.1,17.8,17,25.7,17.2"/>
		</g>
		<g>
			<g>
				<g>
					<path class="st7" d="M125.9,113.6c0,0,14.9-15.1,1.4-31.5C127.3,82.1,111.7,101.7,125.9,113.6z"/>
				</g>
			</g>
			<path class="st7" d="M126.8,82.8c4.1,6.7-5,24.1-0.9,30.9"/>
		</g>
		<g>
			<g>
				<g>
					<path class="st7" d="M237.1,415.3c0,0,14.9-15.1,1.4-31.5C238.5,383.8,222.9,403.3,237.1,415.3z"/>
				</g>
			</g>
			<path class="st7" d="M238,384.4c4.1,6.7-5,24.1-0.9,30.9"/>
		</g>
		<g>
			<g>
				<g>
					<path class="st7" d="M155.3,60c0,0-1.6-18.6-20.4-18.9C134.9,41,139.2,62.6,155.3,60z"/>
				</g>
			</g>
			<path class="st7" d="M135.1,41.7c6.8,1.1,13.4,17.1,20.2,18.2"/>
		</g>
		<g>
			<g>
				<g>
					<path class="st7" d="M159.2,384.8c0,0-1.6-18.6-20.4-18.9C138.8,365.9,143,387.5,159.2,384.8z"/>
				</g>
			</g>
			<path class="st7" d="M139,366.6c6.8,1.1,13.4,17.1,20.2,18.2"/>
		</g>
	</g>
</g>
</svg>
