<?xml version="1.0" encoding="utf-8"?>
<!-- Generator: Adobe Illustrator 21.1.0, SVG Export Plug-In . SVG Version: 6.00 Build 0)  -->
<svg version="1.1" id="Calque_1" xmlns="http://www.w3.org/2000/svg" xmlns:xlink="http://www.w3.org/1999/xlink" x="0px" y="0px"
	 viewBox="0 0 637.3 623.1" style="enable-background:new 0 0 637.3 623.1;" xml:space="preserve">
<style type="text/css">
	.st0{fill:none;}
	.st1{stroke:#FFFFFF;stroke-width:3;}
	.st2{fill:none;stroke:#FFFFFF;stroke-width:4;stroke-miterlimit:10;}
	.st3{fill:none;stroke:#FFFFFF;stroke-width:4;stroke-linejoin:round;stroke-miterlimit:10;}
	.st4{enable-background:new    ;}
	.st5{fill:#010202;stroke:#010202;stroke-width:0.5;}
	.st6{fill:none;stroke:#020304;stroke-miterlimit:10;}
	.st7{fill:#FFFFFF;stroke:#FFFFFF;stroke-width:0.5;}
	.st8{opacity:0.5;}
</style>
<rect x="-126.9" y="-168.5" class="st0" width="1924" height="918"/>
<g>
	<path class="st1" d="M617.7,352.1c-11.7-9.3-33.5-13.7-64.8-13.1c-3.1,0.1-5.4-0.5-5.6-1.4c-0.1-0.3,0.2-0.6,0.7-1.2
		c0.4-0.5,0.9-1.1,1.4-1.9c0.2,0.9,0.5,1.6,1.2,2.2c1.4,1.2,3.8,1,5-0.3c1-1.2,0.6-2.9,0.2-5.2c-0.2-0.9-0.4-1.9-0.5-3
		c-0.5-4,0.2-6.4,1.1-9.6c0.8-2.8,1.7-6,2-11.3c0.2-3,0-4.2-0.2-5.3c-0.1-1-0.3-1.8-0.1-3.9c0.3-3.3,1.1-6,2-8.4
		c1.1,1.2,2.1,2.4,3,3.5c2.2,2.6,3.5,4.1,4.3,3.3c0.7-0.6,0.4-2.6-0.2-6.5c-0.1-0.8-0.3-1.7-0.4-2.6c-0.3-2.2-0.2-4.7-0.1-7.6
		c0.1-3.6,0.3-7.6-0.2-12.3c0-0.3-0.1-0.7-0.1-1c-0.3-2.3-0.6-4.9,0.3-8.1c0.4-1.4,0.8-2.3,1-2.9l0-0.1c0.4-0.8,0.8-2,1.3-3.4
		c0.1,0.7,0.3,1.2,0.3,1.3l0,0c0.1,0.4,0.5,1.8,1,2.9c1.2,2.6,3.2,3.8,4.5,4.1c0.4,0.1,0.9,0.1,1.2-0.2c0,0,0.2-0.2,0.2-0.4
		c0-0.2-0.1-0.3-0.2-0.5c-0.2-0.2-0.7-0.8-1.1-2.9c-0.2-1.3-0.2-2.4-0.2-3.4c0.1,0.5,0.3,1,0.4,1.4c0.9,2.3,1.4,3.5,2.1,4.8
		c1.2,2.2,2.5,3.8,6.4,7.7c2.1,2.1,3.4,3.4,4.4,4.4c1.8,1.7,2.1,2.1,2.6,3.1c1,2.3,1.1,4.8,1.2,6.5c0.1,1.5,0.1,2.3,0.7,2.4
		c0.6,0.1,1-0.8,1.3-1.8c0,0.2,0,0.4-0.1,0.5c-0.3,2-0.4,3.3,0.3,3.6c0.2,0.1,0.5,0.1,0.7-0.1c0.8-0.4,1.9-1.9,2.2-3.6
		c0.1-0.6,0.5-2.3-1.3-6.5c-0.9-2.1-1.8-3.5-2.7-4.8l-0.3-0.5c-1.8-2.8-2.7-4.6-3.5-6.3c-0.9-1.8-1.7-3.5-3.7-6.3
		c-1.3-1.9-1.9-2.5-2.3-3c-0.4-0.4-0.6-0.6-1-1.5c-1.2-2.3-1.7-4.2-2.3-6.3c-0.6-2.3-1.2-4.7-2.9-7.6c-2-3.5-2.6-3.2-2.8-3.1
		c-0.5,0.3-0.3,0.9,0.1,2.2c0.4,1.2,0.9,3.1,1,5.3c0.1,2.3-0.2,3.9-0.5,5.4c-0.4-3.3-0.8-7.6-1.1-11.8c-0.3-3.7-0.6-7.6-1-10.8
		c-0.4-3.7-1.5-12.5-6.5-14.9c-2.6-1.3-5.9-0.8-8.1,1.2c-3.3,3-3,9.8-2.9,13.4l0,0.1c0,1.2,0.2,3.1,0.6,5.2c-3,3.2-6.2,9.7-6.7,11.5
		c-0.3,1.2-0.4,2.2-0.4,3.2c-0.6-1.1-1-2.3-0.9-3.9c0.1-0.9,0.3-1.7,0.6-2.4c0.4-1.1,0.7-2.1,0.3-3.5c-0.2-0.6-0.7-1.1-1.4-1.5
		c1.1,0.1,2-0.1,2.9-0.6c1.3-0.8,2.4-2.5,2.8-4.3c0.3-1.2,0.2-2.2-0.1-2.9c-0.6-1.2-1.8-1.2-3.6-1.2c-1.6,0-3.8-0.1-6.7-0.9
		c-2.5-0.7-4-1.2-4.8-2.9c-2.6-5.4-5-9.4-7.2-11.8c-2-2.2-3.9-0.7-5.2,0.3c-0.9,0.7-1.2,2.2-1.2,3.2c0,1,0.3,1.8,0.7,2.2
		c0.6,0.5,1.4,0.1,2.1-0.3c0,0,0,0,0.1,0c0,0,0,0,0,0c-0.3,1.2-0.6,2.8-1.4,4.2c-0.5,1-1,1.9-1.6,3.1c-0.5,1.1-1.2,2.6-2.1,4.4
		c0,0-1.1,2.2-3.2,5.3c-0.4,0.6-1.4,2.1-1.6,2c-0.4-0.1-0.7-0.4-0.9-0.8c-0.4-0.9-0.2-2.4,0.4-4.3c0.3-0.8,1-1.8,1.8-3
		c0.6-0.8,1.1-1.6,1.7-2.5c0,0,2.3-4.1,1.6-4.9c-0.1-0.2-0.4-0.3-0.8,0c-1.2,1-3.6,1-4.7,0.1c-0.4-0.3-0.5-0.7-0.4-1.2
		c0.2-0.8,0.1-1.6-0.3-2.1c-1-1.5-3.6-1.5-6-1.5c-0.5,0-1.1,0-1.5,0c-1.8-0.1-3,1.3-3.4,4.1c-0.6,3.5,0.3,8.7,1.2,9.1
		c0.2,0.1,0.5,0,0.7-0.4c0.2-0.5,0.3-1,0.4-1.5c0.2-1.1,0.3-2.3,1.8-3.6c0.9-0.8,2.5-1.2,3.7-0.4c1.4,0.8,2.1,2.8,2.1,5.8
		c0,2.1-0.9,5.4-2.5,5.6c-2.9,0.3-4.6-1.5-6-2.9c-1.1-1.1-2.1-2.1-3.1-1.1c-0.5,0.5-1,1.2-1.3,2c0-0.8-0.1-1.7-0.1-2.6
		c-0.1-1,0-2.4,0-3.7c0-2.2,0.1-4.4-0.2-5.9c-0.2-1.3-0.4-1.7-0.6-2.4c-0.1-0.5-0.3-1-0.6-2.1c0.1-0.5,0.2-1.1,0.3-1.6
		c0.3-2.1,0.6-3.8,0.7-5c0.8,0.2,1.7,0.2,2.4-0.2c0.7-0.5,1.6-1.7,1.2-4.6c-0.3-2.1-1.7-4.6-3.2-4.5c-0.4,0-0.9,0.2-1.5,0.6
		c-0.1-0.1-0.2-0.1-0.3-0.1c-0.4-0.1-0.9,0-1.4,0.4c-0.8,0.6-1.6,1.9-1.8,3.3c-0.1,1,0.4,2.1,0.9,3.2c0.1,0.3,0.3,0.6,0.4,1
		c0.3,0.8,0.3,1,0.5,1.8c0.1,0.6,0.2,1.5,0.6,3.3c0.2,1.1,0.4,1.9,0.6,2.5c-0.3,1.7-0.5,3.6-0.6,5.1c0,0.2,0,0.5,0,0.7
		c-0.1,2.2-0.2,4.2-1.3,6.1c-0.4,0.7-1.7,2.4-3.2,2c-0.7-0.2-1.3-0.9-1.6-1.5c-0.8-1.6-1.2-4-0.8-5.9c0.2-0.8,0.4-1.2,0.8-1.9
		c0.3-0.5,0.7-1.2,1.3-2.4c1.3-2.7,2.1-4.8,1.9-5.4c0-0.1-0.1-0.2-0.2-0.3c-0.1,0-0.2,0-0.3,0c-0.2,0.1-0.2,0.3-0.4,0.8
		c-0.4,1.5-1.5,5.5-5.1,8.4c-0.6,0.5-1.3,1-2,1.4c-3,1.7-6.4,2.3-9.5,2.9c-2.3,0.4-4.4,0.8-5.9,1.6c-2.7,1.5-2.9,1.1-3.3,0.4
		c-0.1-0.1-0.1-0.2-0.2-0.3c-0.6-0.8-0.3-4.8-0.2-5.4c0.8-0.9,0.7-2.6,0.5-3.5c-0.1-0.5-0.3-0.8-0.6-0.9c-0.3-0.1-0.6,0.2-0.8,0.6
		c0-0.6,0-1.3,0-2c0-0.8-0.1-1.5-0.3-2.4c-0.5-2.3-1.5-5.1-3.9-6c-1.4-0.5-3.8-0.2-5.2,0.7c-0.8,0.5-1.2,1.1-1.4,1.7
		c-0.2,0.8-0.5,0.9-1,1c-0.9,0.3-1.7,0.7-2,3.3c-0.1,0.9-0.1,1.6,0.1,2.9l0,0.1c0.1,0.5,0.1,1,0.2,1.5c0,0-0.1,0-0.1,0.1
		c-0.3,0.2-0.6,0.7-0.6,1.4c-0.1,1.2,0.2,2.8,1.2,3.6c0.2,0.2,0.9,0.7,1.4,0.4c0.5-0.4,0.2-1.1-0.2-2.2c-0.2-0.5-0.4-1-0.6-1.7
		c0.3,0.3,0.7,0.5,1.1,0.3c0.5-0.2,0.6-1,0.7-2.1c0.1-0.8,0.1-1.9,0.4-3.2c0.2-1,0.5-2.5,1-2.6c0.1,0,0.3,0.1,0.5,0.5
		c0.3,0.4,0.6,0.9,1.3,1.1c1,0.4,1.9-0.1,2.8-0.6c0.7-0.4,1.3-0.8,2-0.5c0.7,0.4,1.1,1.4,1.4,2.4c0.3,0.9,0.4,1.7,0.4,2.3
		c0.1,0.6,0.1,1,0.3,1.3c0,5-0.2,7.8-1.7,9.4c-1,1.1-2,1.5-3,1.2c-1.5-0.4-2.8-1.5-3.6-2.3c-0.8-0.7-1.2-1.1-1.6-0.8
		c-0.3,0.3-0.2,0.7-0.1,1.2c0.1,0.5,0.3,1.2,0.2,1.9c-0.2,1-2.3,2.4-4.3,3.7c-2.6,1.7-5.5,3.7-6.8,6c-2.5,4.3-3.6,7.1-4.5,9.6
		c-1.3,3.4-2.3,6.1-6.6,11.2c-1.5,1.8-7.6,12.6-9.4,17.3c-1.5,3.9-1.9,7.5-1.1,10.7c0.4,1.6,1.1,3.1,1.5,3.4
		c0.2,0.1,0.3,0.1,0.4,0.1c0.4-0.2,0.4-0.8,0.2-2c-0.1-1.3-0.4-3.6,0.3-4.1c0.3-0.2,0.7-0.1,1,0c0.6,0.3,0.8,1.2,0.9,1.9
		c0.1,0.6,0.2,1,0.6,1.1c0.2,0,0.4-0.1,0.5-0.3c0.6-0.8,1.5-4,0.8-7.5c-0.2-0.8-0.3-1.3-0.4-1.6c-0.1-0.3-0.2-0.5-0.2-0.8
		c0-2.1,2.1-3.8,5.1-6.2c0.9-0.7,1.8-1.4,2.7-2.2c0.9-0.8,5.7-4.9,9.8-11.9c1.1-1.9,1.8-3.5,2.4-4.6c0.7-1.5,1.1-2.4,1.7-2.6
		c0.3-0.1,0.5,0,0.8,0.2c1.3,1,2.9,4.9,3.9,10.3c0.9,4.3,0.4,8.1,0,11.1c-0.4,3-0.7,5.4,0.7,6.9c2.8,2.9,7.1,2.4,7.2,2.4
		c2.2-0.3,3.4-1.4,4.8-2.7c0.9-0.8,1.8-1.7,3.1-2.4c2.3-1.3,4.3-1.5,6-1.4c-1.5,1.3-4.1,3.3-8.5,6.3c-3.5,2.4-5.8,3.8-8.4,3.3
		c-1.3-0.3-2.3-0.9-3-1.4c-0.8-0.5-1.5-0.9-2-0.4c-0.7,0.7-0.3,2,0.5,4.4c0.5,1.7,1.3,4,1.9,6.9c1.5,7.2,3.5,16.2,4.4,18.5
		c0.6,1.6,1.4,2,2.1,2.4c0.2,0.1,0.3,0.2,0.5,0.3c-0.9,2.2-0.8,7.1,1.2,13.6c1.1,3.3,1.8,5.5,2.4,7.2c0.9,2.6,1.4,3.8,1.7,6.2
		c1,7.4-3,10.2-4.6,11.3c-0.5,0.4-0.8,0.5-0.8,0.8c0,0.3,0.1,0.5,0.3,0.8c0,0,0.1,0.1,0.1,0.1c-1.6,0.3-3.5,0.8-5.8,1.3
		c-1.4,0.3-2.6,0.6-3.4,0.8c-3.2,0.7-32.3,6.3-56.8-11.2c-0.2-0.1-0.4-0.1-0.5,0.1c-0.1,0.2,0,0.4,0.1,0.5
		c9.4,6.7,20.5,10.8,33,12.2c3.4,0.4,6.5,0.5,9.4,0.5c7.5,0,13-1,14.9-1.4c0.9-0.2,2.1-0.5,3.4-0.8c1.8-0.4,4.3-1,6.6-1.5
		c1.1,0.5,2.8,0.8,4.3,0.4c0.7-0.2,1.9-0.7,2.2-1.2c0.1-0.2,0.1-0.3,0.1-0.4c-0.1-0.6-0.9-0.7-6.5,0.4c-0.4-0.2-0.7-0.4-0.8-0.5
		c0.1-0.1,0.3-0.2,0.4-0.3c1-0.7,3.2-2.2,4.3-5.2c-0.1,0.7-0.1,1.3,0.4,1.9c0.3,0.4,1.7,1.6,4.5,1.6c3,0,3.3-0.8,3.4-2.6
		c0.1-1.4-0.4-2.4-0.8-3.2c-0.1-0.2-0.2-0.3-0.2-0.5c-1.1-2.5-0.5-4.9,0.6-9.3c0.4-1.5,0.8-3.1,1.2-5.1c0.1-0.5,0.3-1.1,0.6-1.9
		c0.8-2.4,1.9-5.9,1.7-10.1c-0.1-2.5-0.6-3.9-1.1-5.2c-0.4-1.1-0.7-2.2-0.9-3.8c-0.1-1-0.1-2-0.1-2.9c0.7,0.2,1.3,0.3,1.8-0.1
		c1.1-0.7,1.2-2.2,1.2-3.3c0-0.3,0-0.5,0-0.6c1-8.4,2.2-19.6,1.8-25.7c0-0.1,0-0.2,0-0.3c0,0,0,0,0-0.1c-0.1-0.8-0.2-1.5-0.3-2.3
		c0.5-0.2,1-0.5,1.4-1c1.4-1.8,0.6-4.3-0.6-8.5c-0.9-3.2-2.1-7.1-2.9-12.4c-0.8-5-1.4-10.7-0.5-15.2c0.8-0.4,1.7-0.9,2.8-1.5
		c4.3-2.4,6.6-3.2,7.9-3.7c0.9-0.3,1.4-0.5,1.3-1.1c-0.1-0.6-1.1-1.2-1.9-1.6c-1.1-0.4-4.9-1.6-8,1.8c-1.3,1.4-2.1,3.3-2.6,5.5
		c-0.1,0-0.2,0.1-0.3,0.1c-1.4,0.7-2,1-2.3,1.4c-2.6,3.2-1.3,8.2,0.8,16.4c1.3,5.1,3,11.3,4.2,19.1c-0.3,0-0.5,0-0.8,0
		c-0.4-0.9-0.8-1.5-1.4-1.8c-0.8-0.4-1.2-0.1-2.6,1.1c-2-0.3-4.4-0.2-7.2,1.4c-1.4,0.8-2.4,1.7-3.2,2.5c-1.3,1.2-2.4,2.2-4.4,2.5
		c-1,0.1-4.5,0-6.7-2.2c-1.1-1.1-0.8-3.2-0.5-6.2c0.4-3.1,0.9-7,0-11.4c-0.5-2.7-2.1-9.2-4.2-10.8c-0.4-0.3-0.9-0.4-1.3-0.3
		c-0.9,0.3-1.4,1.3-2.1,2.9c-0.5,1.1-1.2,2.7-2.3,4.5c-4,6.9-8.7,11-9.6,11.7c-1,0.8-1.9,1.5-2.7,2.2c-3.2,2.5-5.5,4.3-5.4,6.8
		c0,0.5,0.1,0.8,0.2,1.1c0.1,0.3,0.3,0.7,0.4,1.4c0.6,3.2-0.1,5.9-0.6,6.7c0-0.1,0-0.2-0.1-0.3c-0.1-0.8-0.4-1.9-1.2-2.4
		c-0.5-0.3-1.2-0.4-1.7,0c-1.1,0.8-0.8,3.1-0.7,4.8c0,0.2,0.1,0.5,0.1,0.7c-0.3-0.5-0.6-1.3-0.9-2.5c-0.7-3-0.4-6.4,1.1-10.2
		c1.9-4.8,7.9-15.5,9.2-17c4.4-5.3,5.4-8,6.8-11.5c0.9-2.4,2-5.2,4.5-9.5c1.3-2.2,4.1-4.1,6.6-5.8c2.4-1.6,4.3-2.9,4.6-4.2
		c0.2-0.9,0-1.7-0.2-2.3c0,0,0-0.1,0-0.2c0.2,0.1,0.4,0.4,0.7,0.6c0.9,0.8,2.2,2,3.9,2.5c0.9,0.2,2.2,0.1,3.6-1.4
		c1.7-1.8,1.9-4.7,1.9-10c0.2-0.2,0.3-0.4,0.5-0.7c0-0.1,0.1-0.2,0.2-0.3c0.1,0.2,0.2,0.6,0.2,1.2c0,0.8-0.2,1.4-0.5,1.8
		c-0.4,0.4-0.7,5.3,0.1,6.4c0.1,0.1,0.1,0.2,0.2,0.2c0.7,1.1,1.3,1.4,4.2-0.2c1.4-0.8,3.4-1.1,5.7-1.5c3.8-0.7,8.1-1.4,11.7-4.4
		c0.5-0.4,0.9-0.8,1.3-1.2c-0.1,0.3-0.2,0.6-0.3,1.1c-0.4,2.1-0.1,4.7,0.9,6.5c0.5,1,1.2,1.6,2,1.8c1.4,0.3,2.8-0.5,3.9-2.3
		c1.2-2,1.3-4.3,1.4-6.5c0-0.2,0-0.5,0-0.7c0.1-1.1,0.2-2.3,0.4-3.6c0.1,0.3,0.2,0.5,0.2,0.7c0.2,0.6,0.3,1,0.5,2.3
		c0.2,1.4,0.2,3.6,0.2,5.7c0,1.4,0,2.7,0,3.8c0.1,1.6,0.1,3,0.2,4.3c-0.4,1.2-0.7,2.7-1.1,4.3c-0.7,3.1-1.6,6.9-3.3,11
		c0,0.1-0.1,0.2-0.2,0.4c-0.4,0.8-1,2.1-0.6,3.2c0.2,0.6,0.7,1.1,1.4,1.5c-0.2,1.5-0.2,3.4,0.1,6.1c0.5,4.1,1.9,6.3,3.1,7.5
		c0,0.4,0.1,0.8,0.1,1.2c0.3,1.5,0.7,2.4,1.1,3.4c0.3,0.7,0.7,1.5,1.1,2.6c0,0.1,0.1,0.2,0.1,0.3c0.2,0.6,0.7,1.9,1.2,4.8l0.1,0.5
		c0.5,2.6,0.7,3.6,1.5,4.1c0.6,0.3,1.2,0.1,1.7-0.1c0.4-0.2,0.7-0.2,0.9-0.1c0.2,0.2,0.2,0.7,0.2,1.2c0,0.6-0.1,1.3,0.4,1.6
		c0.3,0.3,0.8,0.3,1.4,0.2c0.8-0.3,1.6-1,2.1-2.1c0.6-1.4,0.3-2.4,0-3.4c-0.3-0.9-0.5-1.8-0.4-3c0.2-1.2,2.2-4.2,5.1-8.4l0.5-0.7
		c0.3-0.5,2-3.1,1.5-5.9c-0.8-3.9-2.6-5.7-4.2-6.9c1.1-0.1,1.9-0.4,2.2-0.8c0.2-0.3,0.2-0.7,0.1-1.1c-1.7-4.1-2.6-7.2-2.9-9.5
		c0.3-0.6,0.5-1.2,0.8-1.7c0.5-1.2,0.7-1.7,0.7-2c-0.1-0.9-0.4-1.5-0.9-1.7c-0.3-0.1-0.7,0-0.9,0.4c-0.5,0.7-0.8,2.3-0.4,4.9
		c-1.3,3.3-2.7,7.8-0.5,10.8c-3.8,0-9.6-0.9-12-1.6c-1.2-0.4-2.2-0.7-3-1.1c0.2-1.2,0.6-2.2,1-3.5c0.3-0.8,0.6-1.7,0.9-2.8l0-0.1
		c1.1-3.7,1.9-6.6,1.8-13.5c0.5-1.4,1-2.5,1.7-3.3c0.5-0.5,1-0.1,2.3,1.1c1.4,1.4,3.3,3.4,6.5,3.1c2.1-0.2,3.1-3.8,3.2-6.3
		c0.1-4.1-1.3-5.8-2.4-6.5c-1.5-0.9-3.4-0.4-4.5,0.5c-1.7,1.5-1.9,3-2.1,4.1c-0.1,0.4-0.1,0.8-0.2,1.1c-0.5-1-1.4-5.9-0.5-9.1
		c0.5-1.6,1.3-2.5,2.5-2.4c0.5,0,1,0,1.5,0c2.1,0,4.7,0,5.5,1.2c0.2,0.4,0.3,0.8,0.2,1.5c-0.2,0.8,0.1,1.5,0.7,2c1.3,1,3.8,1,5.3,0
		c-0.2,0.8-1,2.7-1.6,3.6c-0.5,0.8-1.1,1.6-1.7,2.4c-0.9,1.2-1.6,2.3-1.9,3.2c-0.4,1.2-1,3.5-0.4,4.9c0.3,0.6,0.7,1,1.3,1.2
		c0.6,0.2,1.1-0.4,2.3-2.3c2.1-3.2,3.2-5.4,3.2-5.4c0.9-1.8,1.6-3.3,2.2-4.4c0.6-1.2,1-2.2,1.5-3.1c0.9-1.6,1.2-3.2,1.5-4.5
		c0-0.2,0.1-0.4,0.1-0.6c0.4-0.1,0.7-0.2,1,0c0.7,0.4,1.9,4.2,2.3,6c1.4,5.9,4,7.7,4.9,8.3c0.1,0,0.1,0.1,0.2,0.1
		c1.1,0.9,2.1,1.3,3.2,1.8c0.6,0.3,1.3,0.6,2.1,1c0.8,0.6,1.6,1.1,2.3,1.4c0.2,0.2,0.5,0.3,0.7,0.5c0.2,0.2,0.6,0.4,1.1,0.6
		c0.9,0.4,2.3,1,2.5,1.8c0.4,1.1,0.1,1.9-0.3,2.9c-0.2,0.7-0.5,1.6-0.6,2.6c-0.2,2.3,0.7,3.8,1.6,5.4c0,0.6,0.1,1.1,0.1,1.7
		c0.1,1.5,0.2,3,0,4.9c-0.4,2.7-1.4,4-2.7,5.6c-0.9,1.1-1.9,2.3-2.8,4.2c-0.6,1.3-1.2,2.6-1.6,4c-1,1-1.9,2.2-2.8,3.7
		c-1.5,2.7-4.7,9.3-1.9,11.8c0.5,0.5,1.9,0.7,3.6,0.7c0,0.3,0.1,0.6,0.1,0.9c0.8,5.9,2.2,9.3,3.4,12c1.3,3.2,2.3,5.5,1.8,9.9
		c-0.2,2.3-0.4,5.9,0.6,10.8c0.5,2.7,0.6,2.9,1.2,5.4l0.3,1.1c0.8,3.1,0.9,5.5,1,7.3c0,0.5,0.1,1,0.1,1.4c-0.5,1.2-1.2,2-1.7,2.6
		c-0.6,0.7-1,1.2-0.9,1.9c0.4,1.8,4.1,2,6.3,2c31.1-0.6,52.8,3.7,64.4,12.9c0.2,0.1,0.4,0.1,0.5-0.1
		C617.9,352.5,617.9,352.2,617.7,352.1z M575.4,250.3c0.4-1.8,0.8-3.7,0.7-6.6c-0.1-2.3-0.6-4.3-1-5.6c-0.1-0.4-0.2-0.8-0.3-1
		c0.4,0.4,1.2,1.5,1.8,2.6c1.6,2.8,2.2,5.1,2.8,7.4c0.5,2,1,4.1,2.3,6.5c0.5,1,0.8,1.2,1.1,1.6c0.4,0.4,1,1,2.2,2.9
		c1.9,2.7,2.7,4.4,3.6,6.2c0.9,1.7,1.7,3.5,3.6,6.4l0.3,0.5c0.8,1.3,1.7,2.6,2.6,4.7c1.1,2.6,1.6,4.6,1.3,6c-0.4,1.9-1.7,3.2-2,3.2
		c-0.2-0.3,0-2,0.1-2.8c0.2-1.5,0.3-2.2-0.2-2.3c-0.4-0.1-0.6,0.4-1,1.3c-0.2,0.4-0.5,1.1-0.7,1.4c-0.1-0.3-0.1-1-0.2-1.6
		c-0.1-1.7-0.2-4.3-1.2-6.8c-0.5-1.2-0.9-1.6-2.8-3.4c-1-1-2.4-2.3-4.4-4.4c-3.8-3.9-5.1-5.4-6.3-7.6c-0.7-1.3-1.1-2.4-2-4.7
		c-0.3-0.7-0.5-1.7-0.7-3C575.3,250.9,575.4,250.6,575.4,250.3z M455.8,222.7c-0.1,0-0.2-0.1-0.6-0.3c-0.7-0.6-1-1.9-0.9-2.8
		c0-0.5,0.2-0.8,0.2-0.8c0,0,0,0,0,0c0.3,1.1,0.6,2.1,0.8,2.8C455.6,222,455.8,222.5,455.8,222.7z M467.3,214.6
		c-0.3-1.1-0.8-2.4-1.8-2.9c-0.9-0.4-1.7,0-2.5,0.5c-0.8,0.4-1.5,0.9-2.2,0.5c-0.5-0.2-0.7-0.6-1-0.9c-0.3-0.4-0.6-0.8-1.1-0.7
		c-0.9,0.2-1.2,1.8-1.5,3.2c-0.3,1.4-0.4,2.5-0.4,3.3c-0.1,0.7-0.1,1.4-0.3,1.4c-0.1,0.1-0.5-0.3-0.7-0.5c-0.1-0.1-0.3-0.3-0.5-0.4
		c-0.1-0.6-0.2-1.2-0.3-1.8l0-0.1c-0.1-1.3-0.2-1.9-0.1-2.7c0.3-2.3,0.9-2.5,1.5-2.6c0.5-0.1,1.2-0.3,1.5-1.6
		c0.1-0.5,0.5-0.9,1.1-1.3c1.3-0.8,3.5-1.1,4.7-0.7c2.1,0.8,3,3.4,3.5,5.5c0.2,0.8,0.3,1.5,0.3,2.1
		C467.3,214.9,467.3,214.8,467.3,214.6z M473,354.6c-0.3,0.2-0.8,0.4-1.3,0.6c-0.9,0.3-1.8,0.2-2.6,0.1
		C470.7,354.8,472.2,354.6,473,354.6z M485.2,232.8c1.6-1.7,3.3-2.1,4.7-2.1c0.7,0,1.2,0.1,1.7,0.2c1.3,0.3,2.1,0.9,2.3,1.2
		c-0.2,0.1-0.5,0.2-0.8,0.3c-1.3,0.5-3.6,1.3-8,3.7c-0.8,0.5-1.6,0.9-2.2,1.2C483.4,235.5,484.1,233.9,485.2,232.8z M481.3,314.5
		c0.4,1.3,0.9,2.6,1,5c0.2,4-0.9,7.5-1.7,9.8c-0.2,0.8-0.5,1.4-0.6,1.9c-0.4,1.9-0.8,3.6-1.2,5.1c-1.1,4.4-1.8,7.1-0.6,9.8
		c0.1,0.2,0.2,0.3,0.2,0.5c0.4,0.7,0.8,1.6,0.7,2.7c-0.1,1.4-0.1,1.9-2.8,1.9c-2.6,0-3.8-1-4-1.3c-0.5-0.7-0.3-1.4,0.3-2.9
		c0.4-1.3,1-2.9,1.1-5.1c0-0.4,0.1-0.7,0.1-1.1c0.2-2,0.5-4.8-0.5-16.7c-0.5-5.9-0.8-9.7-1-12.2c-0.2-2-0.3-3.2-0.3-4
		c-0.1-1.2-0.2-2.4-0.4-3.6c0,0,0,0,0,0c0.8,0,1.8,0.1,3.3,0.5c1.7,0.5,3,1.2,4,1.8c0.4,0.2,0.8,0.4,1.2,0.6c0,1,0,2,0.1,3.2
		C480.5,312.2,480.9,313.4,481.3,314.5z M481.1,255.3c-2.1-7.9-3.3-12.7-1-15.6c0.2-0.2,1-0.6,1.9-1.1c-0.8,4.5-0.1,10.1,0.6,14.9
		c0.8,5.4,2.1,9.5,2.9,12.5c1.2,3.9,1.8,6.3,0.7,7.7c-0.3,0.4-0.6,0.6-1,0.7C484,266.6,482.4,260.4,481.1,255.3z M484.7,275.4
		c0.1,0.7,0.2,1.5,0.3,2.3c0,0.1,0,0.2,0,0.3c0.4,6-0.7,17.2-1.8,25.5c0,0.2,0,0.5,0,0.7c0,1,0,2.1-0.8,2.6c-0.4,0.2-0.9,0.2-1.5,0
		c0.2-2.3,0.7-4.2,1.3-6.4c0.4-1.5,0.9-3.2,1.3-5.3c1.1-5.5,1.9-15,0.5-19.7C484.3,275.4,484.5,275.4,484.7,275.4z M482.1,273.5
		c0.3,0.2,0.6,0.5,0.9,1c-0.3-0.1-0.7-0.1-1.1-0.2c-0.4-0.1-0.8-0.2-1.2-0.2C481.6,273.3,481.7,273.3,482.1,273.5z M479.9,274.7
		c0.7,0.1,1.3,0.2,1.9,0.4c0.5,0.1,1.1,0.2,1.5,0.3c1.4,4.1,0.9,13.4-0.4,19.6c-0.4,2-0.9,3.7-1.3,5.2c-0.6,2.2-1.1,4.1-1.3,6.4
		c-0.3-0.1-0.6-0.3-1-0.5c-1.1-0.6-2.4-1.3-4.1-1.8c-1.6-0.5-2.6-0.5-3.4-0.5c-0.1,0-0.1,0-0.2,0c-0.4-2-0.8-3.8-1.3-5.4
		c0-0.3,0.1-0.6,0.2-0.9c1.6-9,1-9.3,0.6-9.4c-0.2-0.1-0.4,0-0.6,0.1c-0.7,0.5-1.7,2.1-2,3.9c-0.2,1.7,0.4,3.8,1,6.2
		c-0.1,0.4-0.1,0.7-0.2,1c-0.4,2.2-0.6,3.1,0,4c0.5,0.8,1,1,1.6,1c0.2,1.2,0.3,2.4,0.4,3.7c0,0.9,0.1,2.1,0.3,4.1
		c0.2,2.5,0.6,6.3,1,12.2c0.9,11.8,0.6,14.7,0.5,16.6c0,0.4-0.1,0.8-0.1,1.2c-0.1,2-0.6,3.5-1,4.8c0.3-1.4,0.4-3.1,0.1-5.1
		c-0.3-2.5-0.8-3.7-1.7-6.4c-0.6-1.6-1.3-3.8-2.4-7.1c-2.2-6.9-1.9-11.2-1.3-12.9c0.5,0.3,1.2,0.4,1.9,0.2c0.9-0.3,2.1-1.1,2.5-2.5
		c0.1-0.3,0-0.6-0.3-0.7c-0.7-0.4-3.2,0.3-4.3,1.9c-0.2-0.1-0.3-0.2-0.5-0.3c-0.6-0.3-1.2-0.7-1.8-2c-0.9-2.2-2.9-11.2-4.3-18.3
		c-0.6-3-1.4-5.3-1.9-7c-0.6-1.8-1-3.2-0.7-3.5c0.2-0.2,0.7,0.1,1.3,0.5c0.8,0.5,1.8,1.2,3.2,1.4c2.9,0.6,5.3-0.9,8.9-3.4
		C475.9,278.1,478.5,275.9,479.9,274.7z M470,299.8c0.3,1.2,0.6,2.4,0.9,3.8c-0.4-0.1-0.7-0.2-1-0.7
		C469.6,302.3,469.6,301.7,470,299.8z M469.2,292.1c0.2-1.7,1.2-3,1.6-3.4c0.1,0.6,0,2.8-0.9,7.9
		C469.4,294.9,469.1,293.4,469.2,292.1z M467.1,314.6c0.9-1.3,2.8-1.8,3.4-1.7c-0.3,0.8-1.1,1.5-1.9,1.8
		C468,314.8,467.5,314.8,467.1,314.6z M499.9,200.1c0.5,0.4,1,1.1,1,1.4c0,0.1-0.2,0.2-0.3,0.2c-1.8,0.4-2,0-2,0c0,0,0-0.1,0.1-0.3
		C498.9,201,499.4,200.5,499.9,200.1z M499.7,212.8L499.7,212.8c-0.1-0.3-0.1-0.6-0.2-1c-0.4-1.8-0.5-2.7-0.6-3.3
		c-0.1-0.8-0.2-1.1-0.5-1.9c-0.1-0.3-0.3-0.7-0.4-1c-0.5-1.1-0.9-2-0.8-2.8c0.1-1.1,0.8-2.2,1.5-2.7c0.2-0.1,0.3-0.2,0.5-0.3
		c-0.5,0.4-0.9,0.9-1,1.3c-0.2,0.5-0.1,0.8,0,1c0.3,0.5,1.2,0.6,2.7,0.3c0.7-0.1,0.9-0.6,0.9-0.9c0-0.6-0.5-1.3-1-1.9
		c0.3-0.2,0.6-0.3,0.8-0.3c0,0,0,0,0,0c1,0,2.3,2,2.5,3.9c0.2,1.6,0.1,3.6-1.3,4c-0.5,0.1-1.1,0-1.5-0.1c0-0.6-0.1-1-0.3-1.3
		c-0.2-0.2-0.4-0.3-0.6-0.3c-0.5,0-0.8,0.2-0.9,0.5c-0.1,0.2-0.1,0.6,0.4,1c0.2,0.2,0.5,0.4,0.8,0.6
		C500.3,209,499.9,211,499.7,212.8z M500.3,206.8c-0.2-0.2-0.4-0.3-0.5-0.4c0.1,0,0.1,0,0.3,0c0.1,0,0.1,0,0.1,0
		C500.2,206.5,500.3,206.6,500.3,206.8z M507.6,276.8c-0.2-0.5-0.5-1-0.7-1.5c-0.9-2.4-0.9-2.8-0.8-4.2c0-0.8,0.2-1.4,0.2-1.9
		c0.1-0.6,0.2-1.1,0-1.3c-0.1-0.1-0.3-0.2-0.4-0.2c-0.1,0-0.2,0-0.4,0.1c-0.5,0.2-2.3,0.6-4.2-0.9c-0.1-0.1-0.2-0.1-0.3-0.2
		c0-0.6,0.2-0.7,0.3-0.7c0.1,0,0.2,0.1,0.4,0.3c0.2,0.2,0.6,0.5,1,0.8c1.2,0.8,2.7,0.2,3.4-0.2c0.1-0.1,0.3-0.2,0.4-0.3
		c0.8-0.5,0.9-0.6,2.1-1c1-0.3,1.8-0.1,2.3,0.6c0.6,0.7,0.7,2,0.3,3.2c-0.9,2.8-2.5,5.9-2.9,6.4C508,275.9,507.8,276.3,507.6,276.8z
		 M508.5,280.9C508.5,281,508.5,281,508.5,280.9c-0.1-0.1-0.4-0.7-0.5-1.7c0-0.1,0-0.2,0-0.2C508.7,280.1,508.9,280.5,508.5,280.9z
		 M514.2,240.4c0.1-0.1,0.1-0.1,0.2-0.1c0,0,0,0,0,0c0.1,0,0.3,0.3,0.4,1c0,0.2-0.3,0.9-0.6,1.5c-0.1,0.2-0.2,0.5-0.3,0.8
		C513.7,241.8,513.9,240.8,514.2,240.4z M513.6,246.1c0.5,2.3,1.4,5.1,2.8,8.6c0.1,0.2,0,0.2,0,0.3c-0.3,0.4-1.2,0.6-2.5,0.6
		C511.5,253.2,512.4,249.2,513.6,246.1z M500.7,254.8c1.5,0.4,8.5,1.7,12.8,1.6c0.2,0.2,0.4,0.3,0.6,0.5c1.6,1.1,3.3,2.8,4.1,6.5
		c0.4,1.9-0.5,4-1.3,5.2l-0.5,0.7c-3.1,4.6-5,7.3-5.2,8.7c-0.2,1.5,0.1,2.5,0.4,3.4c0.3,1,0.5,1.7,0.1,2.8c-0.5,1.2-1.3,1.6-1.6,1.7
		c-0.4,0.1-0.7,0-0.8-0.1c-0.1-0.1-0.1-0.6-0.1-0.9c0-0.6,0.1-1.4-0.4-1.9c-0.2-0.2-0.4-0.3-0.7-0.3c-0.3,0-0.6,0.1-0.9,0.2
		c-0.4,0.2-0.8,0.3-1.2,0.1c-0.5-0.3-0.7-1.2-1.1-3.5l-0.1-0.5c-0.5-2.9-1-4.3-1.3-4.9c0-0.1-0.1-0.2-0.1-0.3
		c-0.4-1.2-0.8-2-1.1-2.7c-0.5-1-0.8-1.7-1.1-3.2c0-0.1,0-0.3-0.1-0.4c1.4,1,3.1,1.3,4.6,0.9c0,0,0.1,0,0.1,0c0,0.1-0.1,0.4-0.1,0.5
		c-0.1,0.5-0.2,1.2-0.3,2.1c0,1.6,0,2.1,0.9,4.5c0.3,0.9,0.7,1.7,1.1,2.3c-0.1,0.7,0,1.5,0.1,2.1c0.1,0.6,0.3,1.6,0.9,1.8
		c0.1,0,0.4,0.1,0.7-0.3c0.7-0.9,0.2-1.9-0.6-3.2c-0.1-0.2-0.2-0.4-0.3-0.6c0.1-0.6,0.3-1.1,0.6-1.4c0.6-0.6,2.3-4,3.2-6.7
		c0.5-1.6,0.3-3.1-0.4-4c-0.7-0.9-1.7-1.2-2.9-0.8c-1.3,0.4-1.5,0.5-2.3,1c-0.1,0.1-0.2,0.2-0.4,0.3c-0.5,0.3-1.8,0.8-2.7,0.2
		c-0.4-0.3-0.7-0.5-0.9-0.7c-0.3-0.3-0.6-0.5-1-0.4c-0.4,0.1-0.6,0.4-0.7,0.9c-1.3-1.5-2.2-3.7-2.5-6.6c-0.3-2.5-0.3-4.2-0.2-5.6
		C498.6,254.1,499.5,254.4,500.7,254.8z M499.2,246.3L499.2,246.3c-0.3,1.1-0.6,2.1-0.9,2.9c-0.4,1.2-0.8,2.2-1,3.4
		c-0.5-0.3-0.8-0.6-0.9-1c-0.3-0.8,0.2-1.9,0.6-2.5c0.1-0.2,0.2-0.3,0.2-0.4c1.7-4.2,2.6-8.1,3.3-11.1c0.2-0.7,0.3-1.3,0.4-1.9
		C500.8,240.6,500.1,243.2,499.2,246.3z M536.7,229.1c0,0-0.1-0.1-0.2-0.1c-0.8-0.6-3.3-2.2-4.6-7.8c0-0.1-1.4-5.8-2.7-6.5
		c-0.2-0.1-0.5-0.2-0.7-0.2c-0.1,0-0.2,0-0.3,0c0.2-0.5,0.4-0.8,0.7-0.8c1.2-0.2,2.1,3,2.9,5.6c0.5,1.7,1,3.3,1.5,4.1
		c1.9,2.9,4,5.3,6.1,7.3C538.4,230.2,537.6,229.8,536.7,229.1z M544.2,233.2c-0.8-0.6-1.5-1-2.1-1.4c-2.7-2-5.7-5.1-8.3-9
		c-0.5-0.7-0.9-2.2-1.4-3.9c-0.9-3.1-1.9-6.3-3.6-6.1c-0.8,0.1-1.1,0.8-1.4,1.9c-0.2,0.1-0.4,0.2-0.6,0.3c-0.6,0.3-1.1,0.6-1.4,0.4
		c-0.3-0.2-0.4-0.8-0.4-1.5c0-0.9,0.3-2.1,0.9-2.6c1.6-1.2,2.9-2,4.4-0.4c2.2,2.3,4.5,6.3,7.1,11.6c0.9,1.9,2.6,2.5,5.2,3.3
		c3,0.9,5.2,0.9,6.9,1c1.8,0,2.7,0.1,3,0.8c0.3,0.5,0.3,1.4,0.1,2.3c-0.4,1.6-1.4,3.2-2.5,3.8C548.5,234.7,546.5,234.4,544.2,233.2z
		 M557.4,298.2c-0.2,2.1-0.1,3,0.1,4.1c0.2,1.1,0.3,2.2,0.2,5.1c-0.3,5.1-1.2,8.3-2,11.1c-0.9,3.1-1.7,5.8-1.1,9.9
		c0.1,1.1,0.4,2.1,0.6,3c0.4,2.1,0.7,3.6,0,4.4c-0.9,1.1-2.9,1.2-4.1,0.2c-0.7-0.6-0.9-1.4-1.1-2.6c0.4-1.1,0.6-2.2,0.7-7.7
		c0-1.9,0-3,0-4c0-0.6,0-1.1,0-1.7c0-3.5,0.3-5.9,0.4-7.9c0.3-2.8,0.4-4.8,0-7.9c-0.2-1.3-0.3-1.9-0.5-2.4c-0.1-0.5-0.3-1-0.5-2.1
		c-0.3-1.9-1.3-9.8,1.3-15.8c3,0.6,5.7,2.9,8.1,5.3C558.6,291.8,557.7,294.7,557.4,298.2z M559.9,288.6c-2.3-2.4-5.1-4.6-8.1-5.3
		c0.6-1.3,1.5-2.5,2.5-3.4c2.7-2.5,6.6-3.5,8.8-3c0.8,0.2,1.4,0.5,1.7,1c0.6,1-0.4,2.7-1.8,5C562.1,284.3,560.9,286.3,559.9,288.6z
		 M569.5,246.1c0-2,0.1-4-0.2-5.9c-0.3-2.3-1.1-3.9-1.6-5.1c-0.4-1-0.7-1.6-0.5-1.9c0.1-0.2,0.4-0.3,0.8-0.3c0.6,0,1.5,0.3,2.1,0.9
		c2.3,2.4,1.2,9.4-0.6,15.3C569.5,248.1,569.5,247.2,569.5,246.1z M544,264.5c0.9-1.8,1.9-3,2.7-4.1c1.3-1.7,2.5-3.1,2.9-6
		c0.3-2,0.2-3.5,0-5.1c0-0.1,0-0.2,0-0.2c0.5,1.1,1,2.3,1.2,4c0.2,2.5-0.5,4.4-1.2,6.1c-1.3,3.3-3.3,4.9-5.4,6.7
		c-0.5,0.4-1,0.8-1.4,1.2C543.2,266.3,543.6,265.4,544,264.5z M540.6,283.6c-1.5,0-2.7-0.2-3.1-0.5c-1.9-1.7-0.2-6.7,2.1-10.8
		c0.5-1,1.1-1.8,1.8-2.6C540.3,273.8,540.1,278.5,540.6,283.6z M542.4,268.6c0.8-0.7,1.5-1.4,2.3-2c2.1-1.7,4.2-3.5,5.6-7
		c0.7-1.7,1.5-3.8,1.2-6.5c-0.2-2.5-1.1-4.1-1.9-5.5c0-1.3,0-2.6,0.4-4.2c0.4-1.9,3.5-7.8,6.2-10.9c0.4,1.9,1,3.8,2,5.1
		c0.7,0.9,1.5,1.4,2.4,1.4c1.6,0,2.9-1.5,3.1-1.8c0.3-0.4,0-0.8-0.6-1.7c-0.4-0.6-1-1.4-1.7-2.6c-0.3-0.6-0.7-1.2-1-1.8
		c0.1,0.1,0.2,0.1,0.3,0.2c0.5,0.4,1.1,0.9,2.2,0.9c1.8,0,3.4-1.5,4.3-4.1c0.5-1.5,1-3.1,0.6-5.1c-0.5-2.9-1.2-6.6-3.8-7.5
		c-2.3-0.9-5.4,0.8-6.5,3.5c-0.9,2.1-0.9,4-0.2,7c0.1,0.5,0.7,1.9,1.6,3.7c-0.7,0-1.4,0.5-2.2,1.3c-0.3-2-0.4-3.8-0.5-4.6l0-0.1
		c-0.1-3.5-0.4-10,2.6-12.8c2-1.8,5-2.3,7.4-1.1c4.7,2.3,5.7,10.7,6.1,14.3c0.4,3.1,0.7,7,1,10.7c0.4,5.2,0.8,10.3,1.4,13.7
		c-0.3,1.7-0.5,3.4-0.1,5.6c0.3,1.8,0.7,2.6,1,3c-0.8,0-3-0.8-4.4-3.7c-0.6-1.3-1-2.7-1-2.7c0,0-0.2-0.9-0.4-1.9
		c0-0.2-0.1-0.4-0.1-0.5c2-6,3.8-14.6,0.9-17.6c-1.2-1.2-3.1-1.5-3.8-0.6c-0.5,0.7-0.2,1.6,0.4,2.8c0.5,1.2,1.2,2.7,1.5,4.9
		c0.3,1.9,0.3,3.9,0.2,5.8c0,1.7,0,3.2,0.1,4.7c-0.6,1.7-1.2,3.2-1.7,4.4l0,0.1c-0.2,0.5-0.7,1.6-1.1,3c-0.9,3.4-0.6,6.2-0.3,8.4
		c0,0.4,0.1,0.7,0.1,1c0.5,4.7,0.3,8.7,0.2,12.2c-0.1,3-0.2,5.5,0.1,7.8c0.1,0.9,0.3,1.8,0.4,2.6c0.4,2.4,0.8,5.4,0.4,5.8
		c-0.4,0.4-2.1-1.7-3.4-3.3c-0.9-1.1-2-2.4-3.2-3.7c1-2.3,2.2-4.3,3.2-5.9c1.5-2.5,2.6-4.4,1.8-5.8c-0.4-0.7-1.1-1.2-2.2-1.4
		c-2.3-0.5-6.4,0.5-9.3,3.2c-1.2,1.1-2.1,2.5-2.8,3.9c-0.8-0.1-1.5-0.1-2.3,0c-1.4,0.2-4.8,0.5-7.5,0.4
		C540.7,278,541.1,273,542.4,268.6z M559.2,230.5c0.4,0.8,0.9,1.8,1.5,2.7c0.7,1.2,1.3,2,1.7,2.6c0.2,0.3,0.5,0.6,0.5,0.8
		c-0.3,0.4-1.4,1.4-2.5,1.4c-0.7,0-1.3-0.4-1.9-1.1c-0.9-1.3-1.5-3.3-1.9-5.2c0.9-0.9,1.7-1.4,2.3-1.3
		C559.1,230.5,559.1,230.5,559.2,230.5z M557.8,225.8c-0.7-2.8-0.7-4.6,0.1-6.5c1-2.4,3.7-3.9,5.7-3.1c2.2,0.8,2.9,4.2,3.4,7
		c0.3,1.7,0,3-0.6,4.6c-0.5,1.3-1.6,3.5-3.7,3.6c0,0,0,0,0,0c-0.8,0-1.2-0.3-1.7-0.7c-0.4-0.3-0.7-0.6-1.3-0.8
		C558.6,227.8,557.9,226.2,557.8,225.8z M548.8,324.3l-0.3-1.1c-0.6-2.4-0.7-2.7-1.2-5.4c-1-4.8-0.8-8.3-0.6-10.6
		c0.5-4.7-0.6-7.2-1.9-10.3c-1.1-2.7-2.5-6-3.3-11.8c0-0.3-0.1-0.5-0.1-0.8c3.1,0,6.8-0.3,7.5-0.4c0.6-0.1,1.3-0.1,1.9,0
		c-2.6,6.2-1.6,14.2-1.3,16c0.2,1.2,0.3,1.7,0.5,2.2c0.2,0.5,0.3,1,0.5,2.3c0.4,3.1,0.2,5,0,7.7c-0.2,2-0.4,4.4-0.4,8
		c0,0.6,0,1.2,0,1.7c0,1,0,2.1,0,3.9c0,2.6-0.1,4.2-0.2,5.2C549.7,329.3,549.5,327.1,548.8,324.3z"/>
	<g>
		<polygon class="st2" points="450.5,137 455.3,168.5 438,168.9 423.2,143.3 420.6,138.8 		"/>
		<g>
			<polyline class="st2" points="324.8,250.9 322.6,182.8 376.5,180.6 380.2,265.9 			"/>
			<polygon class="st2" points="372.8,184.4 352.8,185.4 353.8,216.8 374.1,216.8 			"/>
			<polygon class="st2" points="346.4,184.7 326.4,185.7 327.4,217.1 347.7,217.1 			"/>
			<line class="st2" x1="350.4" y1="181.4" x2="352.1" y2="253.3"/>
			<polygon class="st2" points="369.2,91.2 318.6,99.1 319.4,137.6 370.9,132.6 			"/>
			<polyline class="st2" points="369.2,94.5 346.2,97.9 348.3,135 			"/>
			<line class="st2" x1="344.1" y1="95" x2="346.2" y2="135.3"/>
			<polyline class="st2" points="344.6,134.8 343.1,98.3 321.5,101.5 322.5,136.8 			"/>
			<g>
				<polygon class="st2" points="74.8,167.3 74.8,158.8 105.2,95.6 140.3,149.6 140.5,159.4 151.3,159.2 151.6,154.2 105.4,83 
					64.7,168.9 				"/>
				<polyline class="st2" points="86.2,194.8 85.7,240 152.5,245.6 152.3,163.5 205.9,170.6 281.8,162.7 274.6,160.4 206,167.3 
					151.7,159.2 151.6,154.6 205.9,162.3 262,157.2 274.6,160.4 				"/>
				<polyline class="st3" points="87.3,185.3 87.6,172.8 64.7,168.9 74.8,167.3 87.8,170.3 87.8,161 74.8,159.6 87.8,161 115.2,111 
					112.8,240 122.7,240.3 124.2,125.2 				"/>
				<polyline class="st2" points="274.1,153.1 274.2,140.8 333.8,53.5 420.1,122.9 420.6,138.8 450.5,137 450.3,127.9 333.8,35.7 
					255.8,151 255.8,155.8 274.2,153 282.4,156.2 				"/>
				<polyline class="st2" points="333.7,54 340.2,63 282.7,145.9 273.5,141.5 				"/>
				<polygon class="st2" points="274.8,252.5 344.6,257.5 352.3,254.1 352.6,258.7 345.7,262.6 274.6,256.9 				"/>
				<path class="st2" d="M361.9,260.9l0.2,6l-9.3,4l-79.1-6.6c0,0-2.9-5.7-5.4-5.7l3.4-0.8l81,7.5L361.9,260.9z"/>
				<polyline class="st2" points="429.4,269.2 423.2,143.3 438,168.9 442.2,237.7 442.5,243.8 430,269.4 362.2,265.6 361.7,259.9 
					352.6,258.7 352.1,253.3 284.8,248.6 282,145.5 				"/>
				<polyline class="st2" points="301.8,80.9 212.2,99.1 197.1,112.4 105.4,83 				"/>
				<line class="st2" x1="197.1" y1="112.4" x2="205.9" y2="161.9"/>
				<line class="st2" x1="255.8" y1="155.8" x2="262" y2="157.2"/>
				<line class="st2" x1="273.7" y1="256.9" x2="268.3" y2="258.7"/>
				<line class="st2" x1="206.1" y1="161.9" x2="206" y2="167.3"/>
				<polyline class="st2" points="137.9,146.3 136.8,244.2 97.5,241.2 100.5,137.7 				"/>
				<line class="st2" x1="97.8" y1="226" x2="136.9" y2="226.2"/>
				<line class="st2" x1="99.8" y1="211.7" x2="136.7" y2="211.3"/>
				<line class="st2" x1="98.9" y1="197.2" x2="137.6" y2="195.1"/>
				<line class="st2" x1="137.2" y1="162.8" x2="99.7" y2="166.6"/>
				<line class="st2" x1="100.3" y1="152.2" x2="137.9" y2="147.7"/>
				<line class="st2" x1="100.5" y1="138.1" x2="130.6" y2="134.6"/>
				<path class="st2" d="M123.3,182"/>
				<line class="st2" x1="98.9" y1="184" x2="137.2" y2="180.9"/>
				<line class="st2" x1="97.6" y1="238.7" x2="112.8" y2="240"/>
				<line class="st2" x1="122.7" y1="240.3" x2="136.5" y2="240.8"/>
				<line class="st2" x1="140.5" y1="159.4" x2="152.3" y2="163.5"/>
				<polyline class="st2" points="221.5,168.6 222.6,235.5 152.1,245.5 				"/>
				<path class="st2" d="M192.9,239.6c0.4-1.8,0.1-56.4,0.1-56.4"/>
				<path class="st2" d="M201.3,196.2c-0.4-0.2-18.6-0.8-18.6-0.8"/>
				<line class="st2" x1="201.6" y1="209.8" x2="182.4" y2="210.4"/>
				<line class="st2" x1="201.5" y1="223.1" x2="183.1" y2="224.2"/>
				<polyline class="st2" points="200.3,183.9 200.3,236.9 183.3,238.8 				"/>
				<polyline class="st2" points="200.3,236.9 201.5,238.5 201.6,184.4 193.4,183.6 182.3,182.5 183.2,241 				"/>
				<path class="st2" d="M231,239.4l33.4,2.7l-57.7,13.6c0,0,16.3,3.2,10.6,9.7c-11.2,12.7-70.4,14.8-70.4,14.8s-20.8,3.7-33.9,4.5
					c-51.8,3.3-101-1.5-104.9-6.3c-3.9-4.8,3.1-30.9,148.4-27.8L231,239.4z"/>
				<line class="st2" x1="156.2" y1="279.4" x2="155.7" y2="250.6"/>
				<path class="st2" d="M6.5,306.6c0,0,14.6,2.7,32,3.6c19.6,1,42.5,0.1,49.2,0.2c12.7,0.3,154.7-12.1,180.3-32.1
					c0,0,5.2-1.8,4.7-10.9"/>
				<path class="st2" d="M282.6,248.4l-21.4,6.9c0,0,8.4,3.6,9.8,9.1c1.9,7.7-10.1,19-78.9,29.1C74.2,310.7,4.8,300,4.8,300"/>
				<line class="st2" x1="205.5" y1="271.3" x2="206" y2="256.2"/>
				<path class="st2" d="M231,239.4c0,0,0.6-14.3-0.3-18.9c-0.1-0.7-1-3.5-2-3.3c-0.6,0.1-1.5,1-1.8,3.5c-0.6,4.8-0.1,19.5-0.1,19.5
					"/>
				<path class="st2" d="M223.4,240.4c0,0,0.6-14.3-0.3-18.9c-0.1-0.7-1-3.5-2-3.3c-0.6,0.1-1.5,1-1.8,3.5
					c-0.6,4.8-0.1,19.5-0.1,19.5"/>
				<line class="st2" x1="264" y1="242.3" x2="284.4" y2="243.5"/>
				<polygon class="st2" points="284.3,237.5 266.9,237.5 246.7,237.6 246.2,182.4 266.3,181 282.5,179.9 				"/>
				<polygon class="st2" points="267.6,235.8 248.3,235.6 247.8,196.6 247.6,184.2 265.8,183.4 				"/>
				<line class="st2" x1="266.1" y1="195.6" x2="247.8" y2="196.6"/>
				<line class="st2" x1="248.1" y1="209.3" x2="266.5" y2="208.4"/>
				<line class="st2" x1="267" y1="222.3" x2="248.1" y2="222.4"/>
				<polyline class="st2" points="267.5,183.4 269.2,235.6 284.3,235.5 				"/>
				<line class="st2" x1="283.9" y1="222.2" x2="268.8" y2="222.3"/>
				<path class="st2" d="M269.6,209.2"/>
				<line class="st2" x1="283.6" y1="208.3" x2="268.4" y2="208.4"/>
				<line class="st2" x1="267.9" y1="195.6" x2="283.1" y2="195.3"/>
				<line class="st2" x1="267.3" y1="183.3" x2="282.8" y2="182.4"/>
				<path class="st2" d="M4.7,188.5c0.5,0.8,88.6,0.3,88.6,0.3c-42.6-16.8-88.4-0.2-88.4-0.2s4.5,2.4,6.4,3.4"/>
				<path class="st2" d="M7.8,190.1c0,0,73.4,3.6,86-1.2"/>
				<polygon class="st2" points="52.2,194.8 50.6,253.1 48.8,253.5 50.6,195 				"/>
				<line class="st2" x1="9.2" y1="191.1" x2="50.1" y2="206"/>
				<polyline class="st2" points="25.9,188.9 49.8,204.4 39.9,189.1 				"/>
				<line class="st2" x1="59.1" y1="188.9" x2="52" y2="203.8"/>
				<polyline class="st2" points="93.1,189.7 53.3,204.8 75,188.9 				"/>
				<path class="st2" d="M264.1,310.9l7.3,1.2c0,0-1.7-6.4-0.3-6.9c1.2-0.5,2.9,5.1,2.9,5.1s2-5.2,3.1-4.5c1,0.6-1.3,5.1-1.3,5.1
					s6.4-3.8,7-1.8c0.5,1.7-5.4,3-5.4,3l7.5,2.1"/>
				<path class="st2" d="M331.2,308.2l7.3,1.2c0,0-1.7-6.4-0.3-6.9c1.2-0.5,2.9,5.1,2.9,5.1s2-5.2,3.1-4.5c1,0.6-1.3,5.1-1.3,5.1
					s6.4-3.8,7-1.8c0.5,1.7-5.4,3-5.4,3l7.5,2.1"/>
				<path class="st2" d="M286.1,284.5l4.2,0.7c0,0-1-3.7-0.1-4c0.7-0.3,1.7,3,1.7,3s1.1-3,1.8-2.6c0.6,0.3-0.7,3-0.7,3s3.7-2.2,4-1
					c0.3,0.9-3.1,1.8-3.1,1.8l4.3,1.2"/>
				<path class="st2" d="M379.9,283.6l4.2,0.7c0,0-1-3.7-0.1-4c0.7-0.3,1.7,3,1.7,3s1.1-3,1.8-2.6c0.6,0.3-0.7,3-0.7,3s3.7-2.2,4-1
					c0.3,0.9-3.1,1.8-3.1,1.8l4.3,1.2"/>
				<path class="st2" d="M384.8,320.5l4.2,0.7c0,0-1-3.7-0.1-4c0.7-0.3,1.7,3,1.7,3s1.1-3,1.8-2.6c0.6,0.3-0.7,3-0.7,3s3.7-2.2,4-1
					c0.3,0.9-3.1,1.8-3.1,1.8l4.3,1.2"/>
			</g>
		</g>
	</g>
	<g class="st4">
		<path class="st5" d="M30.7,508H39v17.3H47v7H30.7L30.7,508L30.7,508z"/>
		<path class="st5" d="M67.3,523.4c0,0.3,0,0.6,0,0.9c0,0.3,0,0.6-0.1,0.8H55.1c0,0.3,0.1,0.6,0.3,0.9c0.2,0.3,0.4,0.5,0.7,0.7
			c0.3,0.2,0.6,0.3,1,0.4c0.4,0.1,0.7,0.1,1.1,0.1c0.7,0,1.3-0.1,1.8-0.4c0.5-0.3,0.9-0.6,1.1-0.9l5.6,2.8c-0.8,1.3-2,2.3-3.5,3.1
			c-1.5,0.8-3.3,1.1-5.3,1.1c-1.3,0-2.6-0.2-3.8-0.6c-1.2-0.4-2.3-1-3.3-1.8c-0.9-0.8-1.7-1.8-2.3-3c-0.6-1.2-0.9-2.6-0.9-4.2
			c0-1.5,0.3-2.8,0.8-4c0.5-1.2,1.2-2.2,2.1-3.1c0.9-0.8,2-1.5,3.2-1.9c1.2-0.5,2.5-0.7,3.9-0.7c1.4,0,2.7,0.2,3.9,0.7
			s2.2,1.2,3,2.1c0.8,0.9,1.5,1.9,1.9,3.1C67.1,520.7,67.3,522,67.3,523.4z M60.5,520.8c0-0.6-0.2-1.2-0.7-1.6
			c-0.5-0.4-1.1-0.6-1.9-0.6c-0.9,0-1.5,0.2-2,0.7s-0.8,1-0.8,1.5L60.5,520.8L60.5,520.8z"/>
		<path class="st5" d="M78.7,506.3h8.1v25.9h-8.1V506.3z"/>
		<path class="st5" d="M109.3,523.4c0,0.3,0,0.6,0,0.9c0,0.3,0,0.6-0.1,0.8H97.1c0,0.3,0.1,0.6,0.3,0.9c0.2,0.3,0.4,0.5,0.7,0.7
			c0.3,0.2,0.6,0.3,1,0.4c0.4,0.1,0.7,0.1,1.1,0.1c0.7,0,1.3-0.1,1.8-0.4c0.5-0.3,0.9-0.6,1.1-0.9l5.6,2.8c-0.8,1.3-2,2.3-3.5,3.1
			c-1.5,0.8-3.3,1.1-5.3,1.1c-1.3,0-2.6-0.2-3.8-0.6c-1.2-0.4-2.3-1-3.3-1.8s-1.7-1.8-2.3-3c-0.6-1.2-0.9-2.6-0.9-4.2
			c0-1.5,0.3-2.8,0.8-4c0.5-1.2,1.2-2.2,2.1-3.1c0.9-0.8,2-1.5,3.2-1.9c1.2-0.5,2.5-0.7,3.9-0.7c1.4,0,2.7,0.2,3.9,0.7
			c1.2,0.5,2.2,1.2,3,2.1c0.8,0.9,1.5,1.9,1.9,3.1C109.1,520.7,109.3,522,109.3,523.4z M102.5,520.8c0-0.6-0.2-1.2-0.7-1.6
			c-0.5-0.4-1.1-0.6-1.9-0.6c-0.9,0-1.5,0.2-2,0.7s-0.8,1-0.8,1.5L102.5,520.8L102.5,520.8z"/>
		<path class="st5" d="M121.4,520.8c0-0.5-0.2-1-0.6-1.2c-0.4-0.3-0.9-0.4-1.5-0.4c-0.7,0-1.4,0.2-2.1,0.5c-0.7,0.3-1.2,0.7-1.7,1.1
			l-3.9-3.9c1.1-1.1,2.4-1.9,3.9-2.4c1.5-0.6,3.1-0.9,4.7-0.9c1.7,0,3.1,0.2,4.3,0.7c1.1,0.5,2,1.1,2.7,2s1.1,1.8,1.4,3
			c0.3,1.1,0.4,2.3,0.4,3.6v9.5h-7.2v-1.4h-0.1c-0.5,0.7-1.1,1.2-2,1.5c-0.8,0.3-1.7,0.4-2.5,0.4c-0.7,0-1.4-0.1-2.2-0.3
			s-1.4-0.5-2-1c-0.6-0.5-1.1-1.1-1.5-1.8c-0.4-0.7-0.6-1.6-0.6-2.7c0-1.3,0.3-2.3,1-3.1c0.7-0.8,1.5-1.4,2.5-1.9
			c1-0.4,2.1-0.7,3.4-0.9C119,520.9,120.3,520.9,121.4,520.8L121.4,520.8L121.4,520.8z M121.5,524.8c-1.2,0-2.1,0.1-2.8,0.4
			c-0.7,0.3-1.1,0.7-1.1,1.4c0,0.3,0.1,0.5,0.2,0.6c0.1,0.2,0.3,0.3,0.4,0.4c0.2,0.1,0.4,0.2,0.6,0.3c0.2,0.1,0.4,0.1,0.6,0.1
			c0.8,0,1.4-0.2,1.8-0.7c0.5-0.5,0.7-1.1,0.7-1.9v-0.6L121.5,524.8L121.5,524.8z"/>
		<path class="st5" d="M131.4,523.2c0-1.2,0.2-2.3,0.5-3.4c0.4-1.1,0.9-2.1,1.6-3s1.5-1.6,2.6-2.2c1-0.5,2.2-0.8,3.6-0.8
			c0.9,0,1.7,0.2,2.6,0.5c0.9,0.3,1.6,0.8,2.1,1.4h0.1v-9.3h7.9v26h-7.1v-1.9h-0.1c-0.5,0.7-1.3,1.3-2.3,1.7c-1,0.4-2.1,0.6-3.2,0.6
			c-1.4,0-2.5-0.3-3.6-0.8c-1-0.5-1.9-1.3-2.6-2.2c-0.7-0.9-1.2-1.9-1.6-3.1C131.6,525.5,131.4,524.4,131.4,523.2z M138.8,523.2
			c0,0.9,0.3,1.6,0.8,2.2c0.5,0.6,1.2,0.9,2.2,0.9c0.9,0,1.7-0.3,2.2-0.9c0.6-0.6,0.8-1.3,0.8-2.2c0-0.8-0.3-1.5-0.8-2.1
			c-0.6-0.6-1.3-0.9-2.2-0.9c-1,0-1.7,0.3-2.2,0.9C139,521.7,138.8,522.4,138.8,523.2z"/>
		<path class="st5" d="M174.8,523.4c0,0.3,0,0.6,0,0.9c0,0.3,0,0.6-0.1,0.8h-12.2c0,0.3,0.1,0.6,0.3,0.9c0.2,0.3,0.4,0.5,0.7,0.7
			c0.3,0.2,0.6,0.3,1,0.4c0.4,0.1,0.7,0.1,1.1,0.1c0.7,0,1.3-0.1,1.8-0.4c0.5-0.3,0.9-0.6,1.1-0.9l5.6,2.8c-0.8,1.3-2,2.3-3.5,3.1
			c-1.5,0.8-3.3,1.1-5.3,1.1c-1.3,0-2.6-0.2-3.8-0.6c-1.2-0.4-2.3-1-3.3-1.8c-0.9-0.8-1.7-1.8-2.3-3c-0.6-1.2-0.9-2.6-0.9-4.2
			c0-1.5,0.3-2.8,0.8-4c0.5-1.2,1.2-2.2,2.1-3.1c0.9-0.8,2-1.5,3.2-1.9c1.2-0.5,2.5-0.7,3.9-0.7c1.4,0,2.7,0.2,3.9,0.7
			s2.2,1.2,3,2.1c0.8,0.9,1.5,1.9,1.9,3.1C174.6,520.7,174.8,522,174.8,523.4z M168,520.8c0-0.6-0.2-1.2-0.7-1.6
			c-0.5-0.4-1.1-0.6-1.9-0.6c-0.9,0-1.5,0.2-2,0.7s-0.8,1-0.8,1.5L168,520.8L168,520.8z"/>
		<path class="st5" d="M177.6,514.2h7.6v2.1h0.1c0.4-0.7,1-1.3,1.7-1.8c0.8-0.5,1.7-0.7,2.7-0.7c0.6,0,1.1,0.1,1.5,0.2l-0.6,6.7
			c-0.3-0.1-0.5-0.1-0.8-0.2s-0.6-0.1-0.8-0.1c-1,0-1.9,0.3-2.5,0.9c-0.6,0.6-0.9,1.3-0.9,2.2v8.8h-7.9L177.6,514.2L177.6,514.2z"/>
		<path class="st5" d="M213.6,511.5c-0.3-0.1-0.5-0.1-0.8-0.1c-0.8,0-1.3,0.2-1.6,0.7c-0.3,0.5-0.5,1.1-0.5,1.8v0.2h3.8v5.7h-3.8
			v12.4h-7.9v-12.4h-3.1v-5.7h3.1v-0.4c0-1.1,0.1-2.2,0.4-3.2c0.3-1,0.7-1.9,1.4-2.7s1.5-1.4,2.6-1.9c1.1-0.5,2.5-0.7,4.1-0.7
			c0.5,0,1.1,0,1.8,0.1c0.7,0.1,1.3,0.2,1.8,0.4l-0.5,5.9C214.1,511.6,213.8,511.6,213.6,511.5z"/>
		<path class="st5" d="M216,514.2h7.6v2.1h0.1c0.4-0.7,1-1.3,1.7-1.8c0.8-0.5,1.7-0.7,2.7-0.7c0.6,0,1.1,0.1,1.5,0.2l-0.6,6.7
			c-0.3-0.1-0.5-0.1-0.8-0.2s-0.6-0.1-0.8-0.1c-1,0-1.9,0.3-2.5,0.9c-0.6,0.6-0.9,1.3-0.9,2.2v8.8H216L216,514.2L216,514.2z"/>
		<path class="st5" d="M240.2,520.8c0-0.5-0.2-1-0.6-1.2c-0.4-0.3-0.9-0.4-1.5-0.4c-0.7,0-1.4,0.2-2.1,0.5c-0.7,0.3-1.2,0.7-1.7,1.1
			l-3.9-3.9c1.1-1.1,2.4-1.9,3.9-2.4c1.5-0.6,3.1-0.9,4.7-0.9c1.7,0,3.1,0.2,4.3,0.7s2,1.1,2.7,2s1.1,1.8,1.4,3
			c0.3,1.1,0.4,2.3,0.4,3.6v9.5h-7.2v-1.4h-0.1c-0.5,0.7-1.1,1.2-2,1.5c-0.8,0.3-1.7,0.4-2.5,0.4c-0.7,0-1.4-0.1-2.2-0.3
			c-0.7-0.2-1.4-0.5-2-1c-0.6-0.5-1.1-1.1-1.5-1.8s-0.6-1.6-0.6-2.7c0-1.3,0.3-2.3,1-3.1c0.7-0.8,1.5-1.4,2.5-1.9
			c1-0.4,2.1-0.7,3.4-0.9C237.8,520.9,239.1,520.9,240.2,520.8L240.2,520.8L240.2,520.8z M240.3,524.8c-1.2,0-2.1,0.1-2.8,0.4
			c-0.7,0.3-1.1,0.7-1.1,1.4c0,0.3,0.1,0.5,0.2,0.6c0.1,0.2,0.3,0.3,0.4,0.4c0.2,0.1,0.4,0.2,0.6,0.3c0.2,0.1,0.4,0.1,0.6,0.1
			c0.8,0,1.4-0.2,1.8-0.7s0.7-1.1,0.7-1.9v-0.6L240.3,524.8L240.3,524.8z"/>
		<path class="st5" d="M251,514.2h7.7v2h0.1c0.5-0.7,1.1-1.2,2-1.7c0.9-0.5,1.9-0.7,3.1-0.7c1.3,0,2.3,0.2,3.1,0.7
			c0.8,0.5,1.5,1,2,1.8c0.5,0.7,0.8,1.5,1,2.4c0.2,0.9,0.3,1.8,0.3,2.7v11h-7.9v-9.6c0-0.9-0.1-1.6-0.4-1.9
			c-0.3-0.4-0.7-0.5-1.3-0.5c-0.5,0-1,0.2-1.3,0.6c-0.3,0.4-0.5,1-0.5,1.8v9.6H251L251,514.2L251,514.2z"/>
		<path class="st5" d="M281.7,540.5c-0.4,0-0.8,0-1.1-0.1c-0.4,0-0.8-0.1-1.2-0.2s-0.8-0.2-1.2-0.3c-0.4-0.1-0.7-0.2-1-0.3l1.2-2.7
			c0.4,0.2,0.9,0.3,1.4,0.4c0.6,0.1,1.1,0.1,1.5,0.1c0.3,0,0.7-0.1,0.9-0.2c0.3-0.1,0.4-0.3,0.4-0.6c0-0.3-0.1-0.4-0.4-0.5
			c-0.3-0.1-0.6-0.1-0.9-0.1c-0.5,0-1,0.1-1.4,0.2l-1.5-1.2l2.3-2.7c-1.1-0.3-2.2-0.7-3.1-1.2c-0.9-0.5-1.7-1.2-2.4-2
			c-0.7-0.8-1.2-1.7-1.5-2.7c-0.4-1-0.5-2.2-0.5-3.4c0-1.5,0.3-2.8,0.8-4c0.5-1.2,1.3-2.2,2.2-3.1c1-0.8,2.1-1.5,3.4-2
			c1.3-0.5,2.7-0.7,4.2-0.7c0.6,0,1.2,0.1,1.9,0.2c0.6,0.1,1.2,0.2,1.8,0.4c0.6,0.2,1.1,0.4,1.6,0.6c0.5,0.2,0.9,0.5,1.3,0.8
			l-3.9,5.7c-0.3-0.3-0.6-0.5-1.1-0.7c-0.4-0.2-0.9-0.2-1.3-0.2c-0.4,0-0.8,0.1-1.1,0.2c-0.4,0.1-0.7,0.3-1,0.6s-0.5,0.6-0.7,1
			c-0.2,0.4-0.3,0.8-0.3,1.3c0,0.5,0.1,0.9,0.3,1.3c0.2,0.4,0.4,0.7,0.7,0.9c0.3,0.2,0.6,0.4,1,0.5c0.4,0.1,0.7,0.2,1.1,0.2
			c0.5,0,0.9-0.1,1.3-0.3c0.4-0.2,0.8-0.4,1.1-0.7l4,5.5c-0.7,0.5-1.6,1-2.6,1.4c-1.1,0.4-2.2,0.6-3.4,0.7l-1.1,1.2
			c0.1,0,0.3,0,0.5,0c0.4,0,0.8,0,1.2,0.1c0.4,0.1,0.8,0.2,1.1,0.5c0.3,0.2,0.6,0.5,0.8,0.9c0.2,0.4,0.3,0.9,0.3,1.4
			c0,0.7-0.2,1.3-0.6,1.8c-0.4,0.5-0.8,0.8-1.4,1.1s-1.2,0.4-1.8,0.5C282.9,540.4,282.3,540.5,281.7,540.5z"/>
		<path class="st5" d="M301.4,520.8c0-0.5-0.2-1-0.6-1.2c-0.4-0.3-0.9-0.4-1.5-0.4c-0.7,0-1.4,0.2-2.1,0.5c-0.7,0.3-1.2,0.7-1.7,1.1
			l-3.9-3.9c1.1-1.1,2.4-1.9,3.9-2.4c1.5-0.6,3.1-0.9,4.7-0.9c1.7,0,3.1,0.2,4.3,0.7s2,1.1,2.7,2s1.1,1.8,1.4,3
			c0.3,1.1,0.4,2.3,0.4,3.6v9.5h-7.2v-1.4h-0.1c-0.5,0.7-1.1,1.2-2,1.5c-0.8,0.3-1.7,0.4-2.5,0.4c-0.7,0-1.4-0.1-2.2-0.3
			c-0.7-0.2-1.4-0.5-2-1c-0.6-0.5-1.1-1.1-1.5-1.8c-0.4-0.7-0.6-1.6-0.6-2.7c0-1.3,0.3-2.3,1-3.1c0.7-0.8,1.5-1.4,2.5-1.9
			c1-0.4,2.1-0.7,3.4-0.9C299,520.9,300.3,520.9,301.4,520.8L301.4,520.8L301.4,520.8z M301.5,524.8c-1.2,0-2.1,0.1-2.8,0.4
			c-0.7,0.3-1.1,0.7-1.1,1.4c0,0.3,0.1,0.5,0.2,0.6c0.1,0.2,0.3,0.3,0.4,0.4s0.4,0.2,0.6,0.3c0.2,0.1,0.4,0.1,0.6,0.1
			c0.8,0,1.4-0.2,1.8-0.7c0.5-0.5,0.7-1.1,0.7-1.9v-0.6L301.5,524.8L301.5,524.8z"/>
		<path class="st5" d="M312.1,509c0-0.5,0.1-1.1,0.3-1.6c0.2-0.5,0.5-0.9,0.9-1.3c0.4-0.4,0.8-0.7,1.3-0.9s1-0.3,1.6-0.3
			c0.6,0,1.1,0.1,1.5,0.3c0.5,0.2,0.9,0.5,1.3,0.9c0.4,0.4,0.7,0.8,0.9,1.3c0.2,0.5,0.3,1,0.3,1.6c0,0.6-0.1,1.1-0.3,1.6
			s-0.5,0.9-0.9,1.3c-0.4,0.4-0.8,0.6-1.3,0.8c-0.5,0.2-1,0.3-1.5,0.3c-0.6,0-1.1-0.1-1.6-0.3s-0.9-0.5-1.3-0.8
			c-0.4-0.4-0.7-0.8-0.9-1.3C312.2,510.1,312.1,509.6,312.1,509z M312.2,514.2h7.9v18.1h-7.9V514.2z"/>
		<path class="st5" d="M338.6,526.5c0,1.2-0.3,2.2-0.8,3.1c-0.5,0.8-1.2,1.5-1.9,2c-0.8,0.5-1.6,0.8-2.6,1.1
			c-0.9,0.2-1.8,0.3-2.7,0.3c-1.6,0-3.1-0.2-4.6-0.7c-1.5-0.4-2.8-1.1-3.9-1.9l3.9-4.5c0.6,0.5,1.2,0.9,1.9,1.2
			c0.7,0.3,1.5,0.5,2.1,0.5c0.3,0,0.5-0.1,0.8-0.2c0.2-0.1,0.4-0.3,0.4-0.6c0-0.3-0.2-0.5-0.6-0.7c-0.4-0.2-1.2-0.4-2.2-0.6
			c-0.6-0.1-1.2-0.3-1.8-0.6c-0.6-0.3-1.1-0.6-1.6-1c-0.5-0.4-0.9-1-1.2-1.6c-0.3-0.6-0.5-1.4-0.5-2.2c0-1.2,0.3-2.2,0.8-3
			c0.5-0.8,1.2-1.5,2-2c0.8-0.5,1.6-0.9,2.6-1.1c0.9-0.2,1.8-0.4,2.6-0.4c1.4,0,2.8,0.2,4.2,0.6c1.4,0.4,2.6,1,3.7,1.7l-3.7,4.4
			c-0.6-0.4-1.2-0.7-1.8-0.9c-0.6-0.2-1.2-0.3-1.8-0.3c-0.4,0-0.7,0.1-1,0.2c-0.3,0.1-0.4,0.3-0.4,0.6c0,0.2,0.1,0.4,0.4,0.5
			c0.3,0.1,0.9,0.3,2,0.5c0.7,0.1,1.4,0.3,2.1,0.6s1.3,0.7,1.8,1.1c0.5,0.4,1,1,1.3,1.6C338.4,524.9,338.6,525.7,338.6,526.5z"/>
		<path class="st5" d="M349.3,523.2c0-1.2,0.2-2.3,0.5-3.4c0.4-1.1,0.9-2.1,1.6-3c0.7-0.9,1.5-1.6,2.6-2.2c1-0.5,2.2-0.8,3.6-0.8
			c0.9,0,1.7,0.2,2.6,0.5c0.9,0.3,1.6,0.8,2.1,1.4h0.1v-9.3h7.9v26h-7.1v-1.9H363c-0.5,0.7-1.3,1.3-2.3,1.7c-1,0.4-2.1,0.6-3.2,0.6
			c-1.4,0-2.5-0.3-3.6-0.8c-1-0.5-1.9-1.3-2.6-2.2c-0.7-0.9-1.2-1.9-1.6-3.1C349.4,525.5,349.3,524.4,349.3,523.2z M356.6,523.2
			c0,0.9,0.3,1.6,0.8,2.2c0.5,0.6,1.2,0.9,2.2,0.9c0.9,0,1.7-0.3,2.2-0.9c0.6-0.6,0.8-1.3,0.8-2.2c0-0.8-0.3-1.5-0.8-2.1
			c-0.6-0.6-1.3-0.9-2.2-0.9c-1,0-1.7,0.3-2.2,0.9C356.9,521.7,356.6,522.4,356.6,523.2z"/>
		<path class="st5" d="M392.9,532.3h-7.7v-2h-0.1c-0.5,0.7-1.1,1.2-2,1.7c-0.9,0.5-1.9,0.7-3.1,0.7c-1.3,0-2.3-0.2-3.2-0.7
			c-0.8-0.4-1.5-1-2-1.8s-0.8-1.5-1-2.4c-0.2-0.9-0.3-1.8-0.3-2.7v-11h7.9v9.5c0,0.9,0.1,1.6,0.4,1.9c0.3,0.4,0.7,0.5,1.3,0.5
			c0.5,0,1-0.2,1.3-0.6c0.3-0.4,0.5-1,0.5-1.8v-9.5h7.9L392.9,532.3L392.9,532.3z"/>
		<path class="st5" d="M413,532.7c-2.4,0-4.2-0.5-5.4-1.6s-1.8-2.7-1.8-4.9v-6.5h-2.5v-5.7h2.5v-4h7.7v4h3.9v5.7h-3.9v4.8
			c0,0.9,0.2,1.5,0.6,1.8c0.4,0.3,0.9,0.5,1.6,0.5c0.3,0,0.5,0,0.8-0.1c0.3,0,0.5-0.1,0.7-0.1v5.4c-0.4,0.2-1,0.3-1.7,0.4
			C414.6,532.7,413.8,532.7,413,532.7z"/>
		<path class="st5" d="M439.5,523.2c0,1.6-0.3,2.9-0.8,4.2c-0.6,1.2-1.3,2.2-2.3,3.1c-0.9,0.8-2,1.5-3.3,1.9
			c-1.2,0.4-2.6,0.7-3.9,0.7c-1.4,0-2.6-0.2-3.9-0.7c-1.2-0.4-2.3-1.1-3.3-1.9c-0.9-0.8-1.7-1.9-2.2-3.1c-0.6-1.2-0.8-2.6-0.8-4.2
			c0-1.5,0.3-2.9,0.8-4.1c0.6-1.2,1.3-2.2,2.2-3c0.9-0.8,2-1.4,3.3-1.9c1.2-0.4,2.5-0.6,3.9-0.6c1.4,0,2.7,0.2,3.9,0.6
			c1.2,0.4,2.3,1,3.3,1.9c0.9,0.8,1.7,1.8,2.3,3S439.5,521.6,439.5,523.2z M429.1,520.2c-0.9,0-1.6,0.3-2.1,0.9
			c-0.5,0.6-0.8,1.3-0.8,2.1c0,0.8,0.3,1.6,0.8,2.2c0.5,0.6,1.3,0.9,2.1,0.9c0.9,0,1.6-0.3,2.1-0.9c0.5-0.6,0.8-1.3,0.8-2.2
			c0-0.8-0.3-1.5-0.8-2.1C430.7,520.5,430,520.2,429.1,520.2z"/>
		<path class="st5" d="M461.5,532.3h-7.7v-2h-0.1c-0.5,0.7-1.1,1.2-2,1.7c-0.9,0.5-1.9,0.7-3.1,0.7c-1.3,0-2.3-0.2-3.2-0.7
			c-0.8-0.4-1.5-1-2-1.8s-0.8-1.5-1-2.4c-0.2-0.9-0.3-1.8-0.3-2.7v-11h7.9v9.5c0,0.9,0.1,1.6,0.4,1.9c0.3,0.4,0.7,0.5,1.3,0.5
			c0.5,0,1-0.2,1.3-0.6c0.3-0.4,0.5-1,0.5-1.8v-9.5h7.9L461.5,532.3L461.5,532.3z"/>
		<path class="st5" d="M465.1,514.2h7.6v2.1h0.1c0.4-0.7,1-1.3,1.7-1.8c0.8-0.5,1.7-0.7,2.7-0.7c0.6,0,1.1,0.1,1.5,0.2l-0.6,6.7
			c-0.3-0.1-0.5-0.1-0.8-0.2c-0.3,0-0.6-0.1-0.8-0.1c-1,0-1.9,0.3-2.5,0.9c-0.6,0.6-0.9,1.3-0.9,2.2v8.8h-7.9L465.1,514.2
			L465.1,514.2z"/>
		<path class="st5" d="M480.3,509c0-0.5,0.1-1.1,0.3-1.6c0.2-0.5,0.5-0.9,0.9-1.3c0.4-0.4,0.8-0.7,1.3-0.9c0.5-0.2,1-0.3,1.6-0.3
			c0.5,0,1.1,0.1,1.5,0.3c0.5,0.2,0.9,0.5,1.3,0.9c0.4,0.4,0.7,0.8,0.9,1.3c0.2,0.5,0.3,1,0.3,1.6c0,0.6-0.1,1.1-0.3,1.6
			c-0.2,0.5-0.5,0.9-0.9,1.3c-0.4,0.4-0.8,0.6-1.3,0.8c-0.5,0.2-1,0.3-1.5,0.3c-0.6,0-1.1-0.1-1.6-0.3c-0.5-0.2-0.9-0.5-1.3-0.8
			c-0.4-0.4-0.7-0.8-0.9-1.3C480.4,510.1,480.3,509.6,480.3,509z M480.5,514.2h7.9v18.1h-7.9V514.2z"/>
		<path class="st5" d="M506.8,526.5c0,1.2-0.3,2.2-0.8,3.1c-0.5,0.8-1.2,1.5-1.9,2c-0.8,0.5-1.6,0.8-2.6,1.1
			c-0.9,0.2-1.8,0.3-2.7,0.3c-1.6,0-3.1-0.2-4.6-0.7c-1.5-0.4-2.8-1.1-3.9-1.9l3.9-4.5c0.6,0.5,1.2,0.9,1.9,1.2
			c0.7,0.3,1.5,0.5,2.1,0.5c0.3,0,0.5-0.1,0.8-0.2c0.2-0.1,0.4-0.3,0.4-0.6c0-0.3-0.2-0.5-0.6-0.7c-0.4-0.2-1.2-0.4-2.2-0.6
			c-0.6-0.1-1.2-0.3-1.8-0.6c-0.6-0.3-1.1-0.6-1.6-1c-0.5-0.4-0.9-1-1.2-1.6c-0.3-0.6-0.5-1.4-0.5-2.2c0-1.2,0.3-2.2,0.8-3
			c0.5-0.8,1.2-1.5,2-2c0.8-0.5,1.6-0.9,2.6-1.1s1.8-0.4,2.6-0.4c1.4,0,2.8,0.2,4.2,0.6c1.4,0.4,2.6,1,3.7,1.7l-3.7,4.4
			c-0.6-0.4-1.2-0.7-1.8-0.9s-1.2-0.3-1.8-0.3c-0.4,0-0.7,0.1-1,0.2c-0.3,0.1-0.4,0.3-0.4,0.6c0,0.2,0.1,0.4,0.4,0.5
			c0.3,0.1,0.9,0.3,2,0.5c0.7,0.1,1.4,0.3,2.1,0.6c0.7,0.3,1.3,0.7,1.8,1.1c0.5,0.4,1,1,1.3,1.6
			C506.7,524.9,506.8,525.7,506.8,526.5z"/>
		<path class="st5" d="M520.7,532.3v-9.5c0-0.9-0.1-1.6-0.3-2s-0.6-0.6-1.1-0.6c-0.4,0-0.8,0.2-1.1,0.5c-0.4,0.4-0.5,1-0.5,2v9.6
			h-7.9v-18.1h7.7v2h0.1c0.2-0.3,0.5-0.6,0.8-0.9s0.7-0.5,1.1-0.8c0.4-0.2,0.9-0.4,1.4-0.6s1.1-0.2,1.7-0.2c1.2,0,2.2,0.2,3.1,0.6
			c0.9,0.4,1.6,1.1,2.1,2c0.6-0.7,1.3-1.4,2.2-1.9c0.9-0.5,2-0.8,3.3-0.8c1.3,0,2.3,0.3,3.2,0.8c0.8,0.5,1.5,1.1,2,1.9
			c0.5,0.8,0.8,1.6,1,2.5c0.2,0.9,0.3,1.7,0.3,2.5v11h-7.9v-9.6c0-1-0.1-1.6-0.4-2c-0.2-0.3-0.6-0.5-1.1-0.5c-0.5,0-0.8,0.2-1.2,0.6
			c-0.3,0.4-0.5,1-0.5,1.9v9.6H520.7z"/>
		<path class="st5" d="M562,523.4c0,0.3,0,0.6,0,0.9c0,0.3,0,0.6-0.1,0.8h-12.2c0,0.3,0.1,0.6,0.3,0.9c0.2,0.3,0.4,0.5,0.7,0.7
			c0.3,0.2,0.6,0.3,1,0.4c0.4,0.1,0.7,0.1,1.1,0.1c0.7,0,1.3-0.1,1.8-0.4c0.5-0.3,0.9-0.6,1.1-0.9l5.6,2.8c-0.8,1.3-2,2.3-3.5,3.1
			c-1.5,0.8-3.3,1.1-5.3,1.1c-1.3,0-2.6-0.2-3.8-0.6c-1.2-0.4-2.3-1-3.3-1.8s-1.7-1.8-2.3-3c-0.6-1.2-0.9-2.6-0.9-4.2
			c0-1.5,0.3-2.8,0.8-4c0.5-1.2,1.2-2.2,2.1-3.1c0.9-0.8,2-1.5,3.2-1.9c1.2-0.5,2.5-0.7,3.9-0.7c1.4,0,2.7,0.2,3.9,0.7
			s2.2,1.2,3,2.1c0.8,0.9,1.5,1.9,1.9,3.1C561.8,520.7,562,522,562,523.4z M555.2,520.8c0-0.6-0.2-1.2-0.7-1.6
			c-0.5-0.4-1.1-0.6-1.9-0.6c-0.9,0-1.5,0.2-2,0.7s-0.8,1-0.8,1.5L555.2,520.8L555.2,520.8z"/>
		<path class="st5" d="M40.1,574.1c-1.5,0-2.9-0.2-4.2-0.7s-2.4-1.1-3.3-2c-0.9-0.8-1.7-1.9-2.2-3.1c-0.5-1.2-0.8-2.5-0.8-4
			c0-1.5,0.3-2.8,0.8-4c0.5-1.2,1.3-2.2,2.2-3.1c1-0.8,2.1-1.5,3.4-2c1.3-0.5,2.7-0.7,4.2-0.7c0.6,0,1.2,0.1,1.9,0.2
			c0.6,0.1,1.2,0.2,1.8,0.4c0.6,0.2,1.1,0.4,1.6,0.6c0.5,0.2,0.9,0.5,1.3,0.8l-3.9,5.7c-0.3-0.3-0.6-0.5-1.1-0.7
			c-0.4-0.2-0.9-0.2-1.3-0.2c-0.4,0-0.8,0.1-1.1,0.2c-0.4,0.1-0.7,0.3-1,0.6c-0.3,0.3-0.5,0.6-0.7,1c-0.2,0.4-0.3,0.8-0.3,1.3
			c0,0.5,0.1,0.9,0.3,1.3c0.2,0.4,0.4,0.7,0.7,0.9c0.3,0.2,0.6,0.4,1,0.5c0.4,0.1,0.7,0.2,1.1,0.2c0.5,0,0.9-0.1,1.3-0.3
			c0.4-0.2,0.8-0.4,1.1-0.7l4,5.5c-0.8,0.6-1.7,1.1-2.9,1.5C42.7,573.9,41.4,574.1,40.1,574.1z"/>
		<path class="st5" d="M61.3,554.9c1.3,0,2.3,0.2,3.1,0.7c0.8,0.5,1.5,1,2,1.8c0.5,0.7,0.8,1.5,1,2.4c0.2,0.9,0.3,1.8,0.3,2.7v11
			h-7.9v-9.6c0-0.9-0.1-1.6-0.4-1.9c-0.3-0.4-0.7-0.5-1.3-0.5c-0.5,0-0.9,0.2-1.2,0.6c-0.4,0.4-0.6,1-0.6,1.9v9.6h-7.9v-26h7.9v9.9
			h0.1c0.5-0.7,1.1-1.2,1.9-1.7S60.1,554.9,61.3,554.9z"/>
		<path class="st5" d="M90,564.6c0,0.3,0,0.6,0,0.9c0,0.3,0,0.6-0.1,0.8H77.8c0,0.3,0.1,0.6,0.3,0.9c0.2,0.3,0.4,0.5,0.7,0.7
			c0.3,0.2,0.6,0.3,1,0.4c0.4,0.1,0.7,0.1,1.1,0.1c0.7,0,1.3-0.1,1.8-0.4c0.5-0.3,0.9-0.6,1.1-0.9l5.6,2.9c-0.8,1.3-2,2.3-3.5,3.1
			c-1.5,0.8-3.3,1.1-5.3,1.1c-1.3,0-2.6-0.2-3.8-0.6c-1.2-0.4-2.3-1-3.3-1.8s-1.7-1.8-2.3-3c-0.6-1.2-0.9-2.6-0.9-4.2
			c0-1.5,0.3-2.8,0.8-4c0.5-1.2,1.2-2.2,2.1-3.1c0.9-0.8,2-1.5,3.2-1.9c1.2-0.5,2.5-0.7,3.9-0.7c1.4,0,2.7,0.2,3.9,0.7
			s2.2,1.2,3,2.1c0.8,0.9,1.5,1.9,1.9,3.1C89.8,561.9,90,563.2,90,564.6z M83.2,562c0-0.6-0.2-1.2-0.7-1.6c-0.5-0.4-1.1-0.6-1.9-0.6
			c-0.9,0-1.5,0.2-2,0.7s-0.8,1-0.8,1.5L83.2,562L83.2,562z"/>
		<path class="st5" d="M92.1,567.9l6.8-6.7h-6.6v-5.9h16.4v5.1l-7.3,7h7.5v5.9H92.1L92.1,567.9L92.1,567.9z"/>
		<path class="st5" d="M120.5,547.5h8.1v26h-8.1V547.5z"/>
		<path class="st5" d="M140.7,549.1l-3.4,9.7h-5.6l2.5-9.7H140.7z"/>
		<path class="st5" d="M156.9,554.9c1.3,0,2.3,0.2,3.1,0.7s1.5,1,2,1.8c0.5,0.7,0.8,1.5,1,2.4c0.2,0.9,0.3,1.8,0.3,2.7v11h-7.9v-9.6
			c0-0.9-0.1-1.6-0.4-1.9c-0.3-0.4-0.7-0.5-1.3-0.5c-0.5,0-0.9,0.2-1.2,0.6c-0.4,0.4-0.6,1-0.6,1.9v9.6H144v-26h7.9v9.9h0.1
			c0.5-0.7,1.1-1.2,1.9-1.7C154.8,555.2,155.8,554.9,156.9,554.9z"/>
		<path class="st5" d="M176.4,562c0-0.5-0.2-1-0.6-1.2c-0.4-0.3-0.9-0.4-1.5-0.4c-0.7,0-1.4,0.2-2.1,0.5c-0.7,0.3-1.2,0.7-1.7,1.1
			l-3.9-3.9c1.1-1.1,2.4-1.9,3.9-2.4c1.5-0.6,3.1-0.9,4.7-0.9c1.7,0,3.1,0.2,4.3,0.7c1.1,0.5,2,1.1,2.7,2s1.1,1.8,1.4,3
			c0.3,1.1,0.4,2.3,0.4,3.6v9.5h-7.2V572h-0.1c-0.5,0.7-1.1,1.2-2,1.5c-0.8,0.3-1.7,0.4-2.5,0.4c-0.7,0-1.4-0.1-2.2-0.3
			s-1.4-0.5-2-1c-0.6-0.5-1.1-1.1-1.5-1.8c-0.4-0.7-0.6-1.6-0.6-2.7c0-1.3,0.3-2.3,1-3.1c0.7-0.8,1.5-1.4,2.5-1.9
			c1-0.4,2.1-0.7,3.4-0.9C174,562.1,175.2,562.1,176.4,562L176.4,562L176.4,562z M176.5,566c-1.2,0-2.1,0.1-2.8,0.4
			c-0.7,0.3-1.1,0.7-1.1,1.4c0,0.3,0.1,0.5,0.2,0.6c0.1,0.2,0.3,0.3,0.4,0.4c0.2,0.1,0.4,0.2,0.6,0.3c0.2,0.1,0.4,0.1,0.6,0.1
			c0.8,0,1.4-0.2,1.8-0.7c0.5-0.5,0.7-1.1,0.7-1.9V566L176.5,566L176.5,566z"/>
		<path class="st5" d="M208,564.4c0,1.2-0.2,2.4-0.5,3.5c-0.4,1.1-0.9,2.2-1.6,3.1c-0.7,0.9-1.5,1.6-2.6,2.2c-1,0.5-2.2,0.8-3.6,0.8
			c-1.1,0-2.2-0.2-3.2-0.6c-1-0.4-1.8-1-2.3-1.7h-0.1v1.9h-7.1v-26h7.9v9.3h0.1c0.5-0.6,1.2-1.1,2.1-1.4c0.9-0.3,1.7-0.5,2.6-0.5
			c1.3,0,2.5,0.3,3.6,0.8c1,0.5,1.9,1.3,2.6,2.2c0.7,0.9,1.2,1.9,1.6,3C207.9,562,208,563.2,208,564.4z M200.7,564.4
			c0-0.8-0.3-1.5-0.8-2.1c-0.5-0.6-1.2-0.9-2.2-0.9c-0.9,0-1.7,0.3-2.2,0.9c-0.6,0.6-0.8,1.3-0.8,2.1c0,0.8,0.3,1.6,0.8,2.2
			c0.6,0.6,1.3,0.9,2.2,0.9c1,0,1.7-0.3,2.2-0.9C200.4,566,200.7,565.2,200.7,564.4z"/>
		<path class="st5" d="M210.9,550.2c0-0.5,0.1-1.1,0.3-1.6c0.2-0.5,0.5-0.9,0.9-1.3c0.4-0.4,0.8-0.7,1.3-0.9c0.5-0.2,1-0.3,1.6-0.3
			c0.6,0,1.1,0.1,1.5,0.3c0.5,0.2,0.9,0.5,1.3,0.9c0.4,0.4,0.7,0.8,0.9,1.3c0.2,0.5,0.3,1,0.3,1.6c0,0.6-0.1,1.1-0.3,1.6
			c-0.2,0.5-0.5,0.9-0.9,1.3c-0.4,0.4-0.8,0.6-1.3,0.8s-1,0.3-1.5,0.3c-0.6,0-1.1-0.1-1.6-0.3c-0.5-0.2-0.9-0.5-1.3-0.8
			c-0.4-0.4-0.7-0.8-0.9-1.3C211,551.3,210.9,550.8,210.9,550.2z M211,555.4h7.9v18.1H211V555.4z"/>
		<path class="st5" d="M230.5,573.9c-2.4,0-4.2-0.5-5.4-1.6s-1.8-2.7-1.8-4.9v-6.5h-2.5v-5.7h2.5v-4h7.7v4h3.9v5.7H231v4.8
			c0,0.9,0.2,1.5,0.6,1.8c0.4,0.3,0.9,0.5,1.6,0.5c0.3,0,0.5,0,0.8-0.1c0.3,0,0.5-0.1,0.7-0.1v5.4c-0.4,0.2-1,0.3-1.7,0.4
			C232.1,573.9,231.3,573.9,230.5,573.9z"/>
		<path class="st5" d="M246.6,562c0-0.5-0.2-1-0.6-1.2c-0.4-0.3-0.9-0.4-1.5-0.4c-0.7,0-1.4,0.2-2.1,0.5c-0.7,0.3-1.2,0.7-1.7,1.1
			l-3.9-3.9c1.1-1.1,2.4-1.9,3.9-2.4c1.5-0.6,3.1-0.9,4.7-0.9c1.7,0,3.1,0.2,4.3,0.7c1.1,0.5,2,1.1,2.7,2s1.1,1.8,1.4,3
			c0.3,1.1,0.4,2.3,0.4,3.6v9.5h-7.2V572h-0.1c-0.5,0.7-1.1,1.2-2,1.5c-0.8,0.3-1.7,0.4-2.5,0.4c-0.7,0-1.4-0.1-2.2-0.3
			c-0.7-0.2-1.4-0.5-2-1c-0.6-0.5-1.1-1.1-1.5-1.8s-0.6-1.6-0.6-2.7c0-1.3,0.3-2.3,1-3.1c0.7-0.8,1.5-1.4,2.5-1.9
			c1-0.4,2.1-0.7,3.4-0.9C244.2,562.1,245.4,562.1,246.6,562L246.6,562L246.6,562z M246.7,566c-1.2,0-2.1,0.1-2.8,0.4
			c-0.7,0.3-1.1,0.7-1.1,1.4c0,0.3,0.1,0.5,0.2,0.6c0.1,0.2,0.3,0.3,0.4,0.4c0.2,0.1,0.4,0.2,0.6,0.3c0.2,0.1,0.4,0.1,0.6,0.1
			c0.8,0,1.4-0.2,1.8-0.7s0.7-1.1,0.7-1.9V566L246.7,566L246.7,566z"/>
		<path class="st5" d="M257.3,555.4h7.7v2h0.1c0.5-0.7,1.1-1.2,2-1.7c0.9-0.5,1.9-0.7,3.1-0.7c1.3,0,2.3,0.2,3.1,0.7
			c0.8,0.5,1.5,1,2,1.8c0.5,0.7,0.8,1.5,1,2.4c0.2,0.9,0.3,1.8,0.3,2.7v11h-7.9v-9.6c0-0.9-0.1-1.6-0.4-1.9
			c-0.3-0.4-0.7-0.5-1.3-0.5c-0.5,0-1,0.2-1.3,0.6c-0.3,0.4-0.5,1-0.5,1.8v9.6h-7.9L257.3,555.4L257.3,555.4z"/>
		<path class="st5" d="M288.1,573.9c-2.4,0-4.2-0.5-5.4-1.6c-1.2-1-1.8-2.7-1.8-4.9v-6.5h-2.5v-5.7h2.5v-4h7.7v4h3.9v5.7h-3.9v4.8
			c0,0.9,0.2,1.5,0.6,1.8c0.4,0.3,0.9,0.5,1.6,0.5c0.3,0,0.5,0,0.8-0.1c0.3,0,0.5-0.1,0.7-0.1v5.4c-0.4,0.2-1,0.3-1.7,0.4
			C289.7,573.9,288.9,573.9,288.1,573.9z"/>
		<path class="st5" d="M303.2,555.4h7.7v2h0.1c0.5-0.7,1.1-1.2,2-1.7s1.9-0.7,3.1-0.7c1.3,0,2.3,0.2,3.1,0.7c0.8,0.5,1.5,1,2,1.8
			c0.5,0.7,0.8,1.5,1,2.4c0.2,0.9,0.3,1.8,0.3,2.7v11h-7.9v-9.6c0-0.9-0.1-1.6-0.4-1.9c-0.3-0.4-0.7-0.5-1.3-0.5
			c-0.5,0-1,0.2-1.3,0.6c-0.3,0.4-0.5,1-0.5,1.8v9.6h-7.9L303.2,555.4L303.2,555.4z"/>
		<path class="st5" d="M346,564.4c0,1.6-0.3,2.9-0.8,4.2c-0.6,1.2-1.3,2.2-2.3,3.1c-0.9,0.8-2,1.5-3.3,1.9c-1.2,0.4-2.6,0.7-3.9,0.7
			c-1.4,0-2.6-0.2-3.9-0.7c-1.2-0.4-2.3-1.1-3.3-1.9c-0.9-0.8-1.7-1.9-2.2-3.1c-0.6-1.2-0.8-2.6-0.8-4.2c0-1.5,0.3-2.9,0.8-4.1
			c0.6-1.2,1.3-2.2,2.2-3c0.9-0.8,2-1.4,3.3-1.9c1.2-0.4,2.5-0.6,3.9-0.6c1.4,0,2.7,0.2,3.9,0.6c1.2,0.4,2.3,1,3.3,1.9
			c0.9,0.8,1.7,1.8,2.3,3C345.7,561.5,346,562.8,346,564.4z M335.6,561.4c-0.9,0-1.6,0.3-2.1,0.9c-0.5,0.6-0.8,1.3-0.8,2.1
			c0,0.8,0.3,1.6,0.8,2.2c0.5,0.6,1.3,0.9,2.1,0.9s1.6-0.3,2.1-0.9c0.6-0.6,0.8-1.3,0.8-2.2c0-0.8-0.3-1.5-0.8-2.1
			C337.2,561.7,336.5,561.4,335.6,561.4z"/>
		<path class="st5" d="M368,573.5h-7.7v-2h-0.1c-0.5,0.7-1.1,1.2-2,1.7c-0.9,0.5-1.9,0.7-3.1,0.7c-1.3,0-2.3-0.2-3.2-0.7
			c-0.8-0.4-1.5-1-2-1.8c-0.5-0.7-0.8-1.5-1-2.4c-0.2-0.9-0.3-1.8-0.3-2.7v-11h7.9v9.5c0,0.9,0.1,1.6,0.4,1.9
			c0.3,0.4,0.7,0.5,1.3,0.5c0.5,0,1-0.2,1.3-0.6c0.3-0.4,0.5-1,0.5-1.8v-9.5h7.9L368,573.5L368,573.5z"/>
		<path class="st5" d="M386.4,567.7c0,1.2-0.3,2.2-0.8,3.1c-0.5,0.8-1.2,1.5-1.9,2c-0.8,0.5-1.6,0.8-2.6,1.1
			c-0.9,0.2-1.8,0.3-2.7,0.3c-1.6,0-3.1-0.2-4.6-0.7c-1.5-0.4-2.8-1.1-3.9-1.9l3.9-4.5c0.6,0.5,1.2,0.9,1.9,1.2
			c0.7,0.3,1.5,0.5,2.1,0.5c0.3,0,0.5-0.1,0.8-0.2c0.2-0.1,0.4-0.3,0.4-0.6c0-0.3-0.2-0.5-0.6-0.7c-0.4-0.2-1.2-0.4-2.2-0.6
			c-0.6-0.1-1.2-0.3-1.8-0.6c-0.6-0.3-1.1-0.6-1.6-1c-0.5-0.4-0.9-1-1.2-1.6c-0.3-0.6-0.5-1.4-0.5-2.2c0-1.2,0.3-2.2,0.8-3
			c0.5-0.8,1.2-1.5,2-2c0.8-0.5,1.6-0.9,2.6-1.1s1.8-0.4,2.6-0.4c1.4,0,2.8,0.2,4.2,0.6c1.4,0.4,2.6,1,3.7,1.7l-3.7,4.4
			c-0.6-0.4-1.2-0.7-1.8-0.9s-1.2-0.3-1.8-0.3c-0.4,0-0.7,0.1-1,0.2c-0.3,0.1-0.4,0.3-0.4,0.6c0,0.2,0.1,0.4,0.4,0.5
			c0.3,0.1,0.9,0.3,2,0.5c0.7,0.1,1.4,0.3,2.1,0.6c0.7,0.3,1.3,0.7,1.8,1.1c0.5,0.4,1,1,1.3,1.6
			C386.2,566.1,386.4,566.8,386.4,567.7z"/>
		<path class="st5" d="M409.9,552.7c-0.3-0.1-0.5-0.1-0.8-0.1c-0.8,0-1.3,0.2-1.6,0.7c-0.3,0.5-0.5,1.1-0.5,1.8v0.2h3.8v5.7H407
			v12.4h-7.9v-12.4H396v-5.7h3.1V555c0-1.1,0.1-2.2,0.4-3.2c0.3-1,0.7-1.9,1.4-2.7c0.6-0.8,1.5-1.4,2.6-1.9c1.1-0.5,2.5-0.7,4.1-0.7
			c0.5,0,1.1,0,1.8,0.1c0.7,0.1,1.3,0.2,1.8,0.4l-0.5,5.9C410.5,552.8,410.2,552.8,409.9,552.7z"/>
		<path class="st5" d="M422,562c0-0.5-0.2-1-0.6-1.2c-0.4-0.3-0.9-0.4-1.5-0.4c-0.7,0-1.4,0.2-2.1,0.5c-0.7,0.3-1.2,0.7-1.7,1.1
			l-3.9-3.9c1.1-1.1,2.4-1.9,3.9-2.4c1.5-0.6,3.1-0.9,4.7-0.9c1.7,0,3.1,0.2,4.3,0.7c1.1,0.5,2,1.1,2.7,2s1.1,1.8,1.4,3
			c0.3,1.1,0.4,2.3,0.4,3.6v9.5h-7.2V572h-0.1c-0.5,0.7-1.1,1.2-2,1.5c-0.8,0.3-1.7,0.4-2.5,0.4c-0.7,0-1.4-0.1-2.2-0.3
			s-1.4-0.5-2-1c-0.6-0.5-1.1-1.1-1.5-1.8c-0.4-0.7-0.6-1.6-0.6-2.7c0-1.3,0.3-2.3,1-3.1c0.7-0.8,1.5-1.4,2.5-1.9
			c1-0.4,2.1-0.7,3.4-0.9C419.6,562.1,420.8,562.1,422,562L422,562L422,562z M422,566c-1.2,0-2.1,0.1-2.8,0.4
			c-0.7,0.3-1.1,0.7-1.1,1.4c0,0.3,0.1,0.5,0.2,0.6c0.1,0.2,0.3,0.3,0.4,0.4c0.2,0.1,0.4,0.2,0.6,0.3c0.2,0.1,0.4,0.1,0.6,0.1
			c0.8,0,1.4-0.2,1.8-0.7c0.5-0.5,0.7-1.1,0.7-1.9V566L422,566L422,566z"/>
		<path class="st5" d="M432.6,550.2c0-0.5,0.1-1.1,0.3-1.6c0.2-0.5,0.5-0.9,0.9-1.3c0.4-0.4,0.8-0.7,1.3-0.9c0.5-0.2,1-0.3,1.6-0.3
			c0.5,0,1.1,0.1,1.5,0.3c0.5,0.2,0.9,0.5,1.3,0.9c0.4,0.4,0.7,0.8,0.9,1.3c0.2,0.5,0.3,1,0.3,1.6c0,0.6-0.1,1.1-0.3,1.6
			c-0.2,0.5-0.5,0.9-0.9,1.3c-0.4,0.4-0.8,0.6-1.3,0.8c-0.5,0.2-1,0.3-1.5,0.3c-0.6,0-1.1-0.1-1.6-0.3c-0.5-0.2-0.9-0.5-1.3-0.8
			c-0.4-0.4-0.7-0.8-0.9-1.3C432.7,551.3,432.6,550.8,432.6,550.2z M432.7,555.4h7.9v18.1h-7.9V555.4z"/>
		<path class="st5" d="M452.2,573.9c-2.4,0-4.2-0.5-5.4-1.6c-1.2-1-1.8-2.7-1.8-4.9v-6.5h-2.5v-5.7h2.5v-4h7.7v4h3.9v5.7h-3.9v4.8
			c0,0.9,0.2,1.5,0.6,1.8c0.4,0.3,0.9,0.5,1.6,0.5c0.3,0,0.5,0,0.8-0.1c0.3,0,0.5-0.1,0.7-0.1v5.4c-0.4,0.2-1,0.3-1.7,0.4
			S453,573.9,452.2,573.9z"/>
		<path class="st5" d="M477.2,574.1c-1.5,0-2.9-0.2-4.2-0.7c-1.3-0.5-2.4-1.1-3.3-2c-0.9-0.8-1.7-1.9-2.2-3.1
			c-0.5-1.2-0.8-2.5-0.8-4c0-1.5,0.3-2.8,0.8-4c0.5-1.2,1.3-2.2,2.2-3.1c1-0.8,2.1-1.5,3.4-2c1.3-0.5,2.7-0.7,4.2-0.7
			c0.6,0,1.2,0.1,1.9,0.2c0.6,0.1,1.2,0.2,1.8,0.4c0.6,0.2,1.1,0.4,1.6,0.6c0.5,0.2,0.9,0.5,1.3,0.8l-3.9,5.7
			c-0.3-0.3-0.6-0.5-1.1-0.7c-0.4-0.2-0.9-0.2-1.3-0.2c-0.4,0-0.8,0.1-1.1,0.2c-0.4,0.1-0.7,0.3-1,0.6c-0.3,0.3-0.5,0.6-0.7,1
			c-0.2,0.4-0.3,0.8-0.3,1.3c0,0.5,0.1,0.9,0.3,1.3c0.2,0.4,0.4,0.7,0.7,0.9s0.6,0.4,1,0.5c0.4,0.1,0.7,0.2,1.1,0.2
			c0.5,0,0.9-0.1,1.3-0.3c0.4-0.2,0.8-0.4,1.1-0.7l4,5.5c-0.8,0.6-1.7,1.1-2.9,1.5C479.7,573.9,478.5,574.1,477.2,574.1z"/>
		<path class="st5" d="M505.3,564.4c0,1.6-0.3,2.9-0.8,4.2c-0.6,1.2-1.3,2.2-2.3,3.1c-0.9,0.8-2,1.5-3.3,1.9
			c-1.2,0.4-2.6,0.7-3.9,0.7c-1.3,0-2.6-0.2-3.9-0.7s-2.3-1.1-3.3-1.9c-0.9-0.8-1.7-1.9-2.2-3.1c-0.6-1.2-0.8-2.6-0.8-4.2
			c0-1.5,0.3-2.9,0.8-4.1c0.6-1.2,1.3-2.2,2.2-3c0.9-0.8,2-1.4,3.3-1.9c1.2-0.4,2.5-0.6,3.9-0.6c1.4,0,2.7,0.2,3.9,0.6
			c1.2,0.4,2.3,1,3.3,1.9c0.9,0.8,1.7,1.8,2.3,3C505,561.5,505.3,562.8,505.3,564.4z M494.9,561.4c-0.9,0-1.6,0.3-2.1,0.9
			c-0.5,0.6-0.8,1.3-0.8,2.1c0,0.8,0.3,1.6,0.8,2.2c0.6,0.6,1.3,0.9,2.1,0.9c0.9,0,1.6-0.3,2.1-0.9c0.6-0.6,0.8-1.3,0.8-2.2
			c0-0.8-0.3-1.5-0.8-2.1C496.5,561.7,495.8,561.4,494.9,561.4z"/>
		<path class="st5" d="M508.2,555.4h7.7v2h0.1c0.5-0.7,1.1-1.2,2-1.7s1.9-0.7,3.1-0.7c1.3,0,2.3,0.2,3.1,0.7c0.8,0.5,1.5,1,2,1.8
			c0.5,0.7,0.8,1.5,1,2.4c0.2,0.9,0.3,1.8,0.3,2.7v11h-7.9v-9.6c0-0.9-0.1-1.6-0.4-1.9c-0.3-0.4-0.7-0.5-1.3-0.5
			c-0.5,0-1,0.2-1.3,0.6c-0.3,0.4-0.5,1-0.5,1.8v9.6h-7.9L508.2,555.4L508.2,555.4z"/>
		<path class="st5" d="M543.8,552.9c-0.2-0.1-0.4-0.2-0.7-0.2c-0.3-0.1-0.5-0.1-0.8-0.1c-0.8,0-1.3,0.2-1.6,0.7s-0.5,1.1-0.5,1.8
			v0.2h3.8v5.7h-3.8v12.4h-7.9v-12.4h-3.1v-5.7h3.1V555c0-1.1,0.1-2.2,0.4-3.2c0.3-1,0.7-1.9,1.4-2.7c0.6-0.8,1.5-1.4,2.6-1.9
			c1.1-0.5,2.5-0.7,4.1-0.7c0.5,0,1.1,0,1.8,0.1c0.7,0.1,1.3,0.2,1.8,0.4L543.8,552.9z M545.3,550.2c0-0.5,0.1-1.1,0.3-1.6
			c0.2-0.5,0.5-0.9,0.9-1.3c0.4-0.4,0.8-0.7,1.3-0.9c0.5-0.2,1-0.3,1.6-0.3c0.5,0,1.1,0.1,1.5,0.3c0.5,0.2,0.9,0.5,1.3,0.9
			c0.4,0.4,0.7,0.8,0.9,1.3c0.2,0.5,0.3,1,0.3,1.6c0,0.6-0.1,1.1-0.3,1.6c-0.2,0.5-0.5,0.9-0.9,1.3c-0.4,0.4-0.8,0.6-1.3,0.8
			s-1,0.3-1.5,0.3c-0.6,0-1.1-0.1-1.6-0.3c-0.5-0.2-0.9-0.5-1.3-0.8c-0.4-0.4-0.7-0.8-0.9-1.3C545.4,551.3,545.3,550.8,545.3,550.2z
			 M545.4,555.4h7.9v18.1h-7.9V555.4z"/>
		<path class="st5" d="M566.6,562c0-0.5-0.2-1-0.6-1.2c-0.4-0.3-0.9-0.4-1.5-0.4c-0.7,0-1.4,0.2-2.1,0.5c-0.7,0.3-1.2,0.7-1.7,1.1
			l-3.9-3.9c1.1-1.1,2.4-1.9,3.9-2.4c1.5-0.6,3.1-0.9,4.7-0.9c1.7,0,3.1,0.2,4.3,0.7c1.1,0.5,2,1.1,2.7,2s1.1,1.8,1.4,3
			c0.3,1.1,0.4,2.3,0.4,3.6v9.5h-7.2V572h-0.1c-0.5,0.7-1.1,1.2-2,1.5c-0.8,0.3-1.7,0.4-2.5,0.4c-0.7,0-1.4-0.1-2.2-0.3
			c-0.7-0.2-1.4-0.5-2-1c-0.6-0.5-1.1-1.1-1.5-1.8s-0.6-1.6-0.6-2.7c0-1.3,0.3-2.3,1-3.1c0.7-0.8,1.5-1.4,2.5-1.9
			c1-0.4,2.1-0.7,3.4-0.9C564.2,562.1,565.4,562.1,566.6,562L566.6,562L566.6,562z M566.6,566c-1.2,0-2.1,0.1-2.8,0.4
			c-0.7,0.3-1.1,0.7-1.1,1.4c0,0.3,0.1,0.5,0.2,0.6c0.1,0.2,0.3,0.3,0.4,0.4c0.2,0.1,0.4,0.2,0.6,0.3c0.2,0.1,0.4,0.1,0.6,0.1
			c0.8,0,1.4-0.2,1.8-0.7s0.7-1.1,0.7-1.9V566L566.6,566L566.6,566z"/>
		<path class="st5" d="M577.3,555.4h7.7v2h0.1c0.5-0.7,1.1-1.2,2-1.7c0.9-0.5,1.9-0.7,3.1-0.7c1.3,0,2.3,0.2,3.1,0.7
			c0.8,0.5,1.5,1,2,1.8c0.5,0.7,0.8,1.5,1,2.4c0.2,0.9,0.3,1.8,0.3,2.7v11h-7.9v-9.6c0-0.9-0.1-1.6-0.4-1.9
			c-0.3-0.4-0.7-0.5-1.3-0.5c-0.5,0-1,0.2-1.3,0.6c-0.3,0.4-0.5,1-0.5,1.8v9.6h-7.9L577.3,555.4L577.3,555.4z"/>
		<path class="st5" d="M610,574.1c-1.5,0-2.9-0.2-4.2-0.7c-1.3-0.5-2.4-1.1-3.3-2c-0.9-0.8-1.7-1.9-2.2-3.1c-0.5-1.2-0.8-2.5-0.8-4
			c0-1.5,0.3-2.8,0.8-4c0.5-1.2,1.3-2.2,2.2-3.1c1-0.8,2.1-1.5,3.4-2c1.3-0.5,2.7-0.7,4.2-0.7c0.6,0,1.2,0.1,1.9,0.2
			c0.6,0.1,1.2,0.2,1.8,0.4c0.6,0.2,1.1,0.4,1.6,0.6c0.5,0.2,0.9,0.5,1.3,0.8l-3.9,5.7c-0.3-0.3-0.6-0.5-1.1-0.7
			c-0.4-0.2-0.9-0.2-1.3-0.2c-0.4,0-0.8,0.1-1.1,0.2c-0.4,0.1-0.7,0.3-1,0.6c-0.3,0.3-0.5,0.6-0.7,1c-0.2,0.4-0.3,0.8-0.3,1.3
			c0,0.5,0.1,0.9,0.3,1.3c0.2,0.4,0.4,0.7,0.7,0.9s0.6,0.4,1,0.5c0.4,0.1,0.7,0.2,1.1,0.2c0.5,0,0.9-0.1,1.3-0.3s0.8-0.4,1.1-0.7
			l4,5.5c-0.8,0.6-1.7,1.1-2.9,1.5C612.5,573.9,611.3,574.1,610,574.1z"/>
		<path class="st5" d="M637,564.6c0,0.3,0,0.6,0,0.9c0,0.3,0,0.6-0.1,0.8h-12.2c0,0.3,0.1,0.6,0.3,0.9c0.2,0.3,0.4,0.5,0.7,0.7
			c0.3,0.2,0.6,0.3,1,0.4c0.4,0.1,0.7,0.1,1.1,0.1c0.7,0,1.3-0.1,1.8-0.4c0.5-0.3,0.9-0.6,1.1-0.9l5.6,2.9c-0.8,1.3-2,2.3-3.5,3.1
			c-1.5,0.8-3.3,1.1-5.3,1.1c-1.3,0-2.6-0.2-3.8-0.6c-1.2-0.4-2.3-1-3.3-1.8s-1.7-1.8-2.3-3c-0.6-1.2-0.9-2.6-0.9-4.2
			c0-1.5,0.3-2.8,0.8-4c0.5-1.2,1.2-2.2,2.1-3.1c0.9-0.8,2-1.5,3.2-1.9c1.2-0.5,2.5-0.7,3.9-0.7c1.4,0,2.7,0.2,3.9,0.7
			c1.2,0.5,2.2,1.2,3,2.1c0.8,0.9,1.5,1.9,1.9,3.1C636.8,561.9,637,563.2,637,564.6z M630.2,562c0-0.6-0.2-1.2-0.7-1.6
			c-0.5-0.4-1.1-0.6-1.9-0.6c-0.9,0-1.5,0.2-2,0.7s-0.8,1-0.8,1.5L630.2,562L630.2,562z"/>
		<path class="st5" d="M43,615.1c-0.9,0-1.8-0.2-2.6-0.5c-0.9-0.3-1.6-0.8-2.1-1.4h-0.1v9.6h-7.9v-26.3h7.4v1.8h0.1
			c0.7-0.8,1.5-1.3,2.4-1.7c0.9-0.4,1.9-0.6,2.7-0.6c1.4,0,2.5,0.3,3.6,0.8c1,0.5,1.9,1.3,2.6,2.2c0.7,0.9,1.2,1.9,1.6,3
			c0.4,1.1,0.5,2.3,0.5,3.4c0,1.2-0.2,2.4-0.5,3.5s-0.9,2.2-1.6,3.1c-0.7,0.9-1.5,1.6-2.6,2.2C45.5,614.8,44.3,615.1,43,615.1z
			 M43.8,605.5c0-0.8-0.3-1.5-0.8-2.1c-0.5-0.6-1.2-0.9-2.2-0.9c-0.9,0-1.7,0.3-2.2,0.9c-0.6,0.6-0.8,1.3-0.8,2.1
			c0,0.8,0.3,1.6,0.8,2.2c0.6,0.6,1.3,0.9,2.2,0.9c1,0,1.7-0.3,2.2-0.9C43.6,607.1,43.8,606.4,43.8,605.5z"/>
		<path class="st5" d="M74,605.5c0,1.6-0.3,2.9-0.8,4.2c-0.6,1.2-1.3,2.2-2.3,3.1c-0.9,0.8-2,1.5-3.3,1.9c-1.2,0.4-2.6,0.7-3.9,0.7
			c-1.4,0-2.6-0.2-3.9-0.7c-1.2-0.4-2.3-1.1-3.3-1.9c-0.9-0.8-1.7-1.9-2.2-3.1c-0.6-1.2-0.8-2.6-0.8-4.2c0-1.5,0.3-2.9,0.8-4.1
			c0.6-1.2,1.3-2.2,2.2-3c0.9-0.8,2-1.4,3.3-1.9c1.2-0.4,2.5-0.6,3.9-0.6c1.4,0,2.7,0.2,3.9,0.6c1.2,0.4,2.3,1,3.3,1.9
			c0.9,0.8,1.7,1.8,2.3,3C73.7,602.6,74,604,74,605.5z M63.6,602.6c-0.9,0-1.6,0.3-2.1,0.9c-0.5,0.6-0.8,1.3-0.8,2.1
			c0,0.8,0.3,1.6,0.8,2.2c0.5,0.6,1.3,0.9,2.1,0.9s1.6-0.3,2.1-0.9c0.6-0.6,0.8-1.3,0.8-2.2c0-0.8-0.3-1.5-0.8-2.1
			C65.2,602.9,64.5,602.6,63.6,602.6z"/>
		<path class="st5" d="M96,614.6h-7.7v-2h-0.1c-0.5,0.7-1.1,1.2-2,1.7c-0.9,0.5-1.9,0.7-3.1,0.7c-1.3,0-2.3-0.2-3.2-0.7
			c-0.8-0.4-1.5-1-2-1.8s-0.8-1.5-1-2.4c-0.2-0.9-0.3-1.8-0.3-2.7v-11h7.9v9.5c0,0.9,0.1,1.6,0.4,1.9c0.3,0.4,0.7,0.5,1.3,0.5
			c0.5,0,1-0.2,1.3-0.6c0.3-0.4,0.5-1,0.5-1.8v-9.5H96L96,614.6L96,614.6z"/>
		<path class="st5" d="M99.6,596.6h7.6v2.1h0.1c0.4-0.7,1-1.3,1.7-1.8c0.8-0.5,1.7-0.7,2.7-0.7c0.6,0,1.1,0.1,1.5,0.2l-0.6,6.7
			c-0.3-0.1-0.5-0.1-0.8-0.2c-0.3,0-0.6-0.1-0.8-0.1c-1,0-1.9,0.3-2.5,0.9c-0.6,0.6-0.9,1.3-0.9,2.2v8.8h-7.9L99.6,596.6L99.6,596.6
			z"/>
		<path class="st5" d="M138.3,608.9c0,1.2-0.3,2.2-0.8,3.1c-0.5,0.8-1.2,1.5-1.9,2c-0.8,0.5-1.6,0.8-2.6,1.1
			c-0.9,0.2-1.8,0.3-2.7,0.3c-1.6,0-3.1-0.2-4.6-0.7c-1.5-0.4-2.8-1.1-3.9-1.9l3.9-4.5c0.5,0.5,1.2,0.9,1.9,1.2
			c0.7,0.3,1.5,0.5,2.1,0.5c0.3,0,0.5-0.1,0.8-0.2c0.2-0.1,0.4-0.3,0.4-0.6c0-0.3-0.2-0.5-0.6-0.7s-1.2-0.4-2.2-0.6
			c-0.6-0.1-1.2-0.3-1.8-0.6c-0.6-0.3-1.1-0.6-1.6-1c-0.5-0.4-0.9-1-1.2-1.6c-0.3-0.6-0.5-1.4-0.5-2.2c0-1.2,0.3-2.2,0.8-3
			c0.5-0.8,1.2-1.5,2-2c0.8-0.5,1.6-0.9,2.6-1.1c0.9-0.2,1.8-0.4,2.6-0.4c1.4,0,2.8,0.2,4.2,0.6c1.4,0.4,2.6,1,3.7,1.7l-3.7,4.4
			c-0.6-0.4-1.2-0.7-1.8-0.9c-0.6-0.2-1.2-0.3-1.8-0.3c-0.4,0-0.7,0.1-1,0.2c-0.3,0.1-0.4,0.3-0.4,0.6c0,0.2,0.1,0.4,0.4,0.5
			c0.3,0.1,0.9,0.3,2,0.5c0.7,0.1,1.4,0.4,2.1,0.6c0.7,0.3,1.3,0.7,1.8,1.1c0.5,0.4,1,1,1.3,1.6S138.3,608,138.3,608.9z"/>
		<path class="st5" d="M161,605.5c0,1.6-0.3,2.9-0.8,4.2c-0.6,1.2-1.3,2.2-2.3,3.1c-0.9,0.8-2,1.5-3.3,1.9c-1.2,0.4-2.6,0.7-3.9,0.7
			c-1.3,0-2.6-0.2-3.9-0.7s-2.3-1.1-3.3-1.9c-0.9-0.8-1.7-1.9-2.2-3.1c-0.6-1.2-0.8-2.6-0.8-4.2c0-1.5,0.3-2.9,0.8-4.1
			c0.6-1.2,1.3-2.2,2.2-3c0.9-0.8,2-1.4,3.3-1.9c1.2-0.4,2.5-0.6,3.9-0.6c1.4,0,2.7,0.2,3.9,0.6c1.2,0.4,2.3,1,3.3,1.9
			c0.9,0.8,1.7,1.8,2.3,3C160.7,602.6,161,604,161,605.5z M150.7,602.6c-0.9,0-1.6,0.3-2.1,0.9c-0.5,0.6-0.8,1.3-0.8,2.1
			c0,0.8,0.3,1.6,0.8,2.2c0.6,0.6,1.3,0.9,2.1,0.9c0.9,0,1.6-0.3,2.1-0.9c0.6-0.6,0.8-1.3,0.8-2.2c0-0.8-0.3-1.5-0.8-2.1
			C152.2,602.9,151.5,602.6,150.7,602.6z"/>
		<path class="st5" d="M163.9,596.6h7.7v2h0.1c0.5-0.7,1.1-1.2,2-1.7c0.9-0.5,1.9-0.7,3.1-0.7c1.3,0,2.3,0.2,3.1,0.7s1.5,1,2,1.8
			c0.5,0.7,0.8,1.5,1,2.4c0.2,0.9,0.3,1.8,0.3,2.7v11h-7.9V605c0-0.9-0.1-1.6-0.4-1.9c-0.3-0.4-0.7-0.5-1.3-0.5
			c-0.5,0-1,0.2-1.3,0.6c-0.3,0.4-0.5,1-0.5,1.8v9.6h-7.9L163.9,596.6L163.9,596.6z"/>
		<path class="st5" d="M194.6,605.5c0-1.2,0.2-2.3,0.5-3.4c0.4-1.1,0.9-2.1,1.6-3c0.7-0.9,1.5-1.6,2.6-2.2c1-0.5,2.2-0.8,3.6-0.8
			c0.9,0,1.7,0.2,2.6,0.5c0.9,0.3,1.6,0.8,2.1,1.4h0.1v-9.3h7.9v26h-7.1v-1.9h-0.1c-0.5,0.7-1.3,1.3-2.3,1.7c-1,0.4-2.1,0.6-3.2,0.6
			c-1.3,0-2.5-0.3-3.6-0.8c-1-0.5-1.9-1.3-2.6-2.2c-0.7-0.9-1.2-1.9-1.6-3.1S194.6,606.7,194.6,605.5z M202,605.5
			c0,0.9,0.3,1.6,0.8,2.2c0.5,0.6,1.2,0.9,2.2,0.9c0.9,0,1.7-0.3,2.2-0.9c0.6-0.6,0.8-1.3,0.8-2.2c0-0.8-0.3-1.5-0.8-2.1
			c-0.6-0.6-1.3-0.9-2.2-0.9c-1,0-1.7,0.3-2.2,0.9C202.2,604,202,604.7,202,605.5z"/>
		<path class="st5" d="M238,605.8c0,0.3,0,0.6,0,0.9c0,0.3,0,0.6-0.1,0.8h-12.2c0,0.3,0.1,0.6,0.3,0.9c0.2,0.3,0.4,0.5,0.7,0.7
			c0.3,0.2,0.6,0.3,1,0.4c0.4,0.1,0.7,0.1,1.1,0.1c0.7,0,1.3-0.1,1.8-0.4c0.5-0.3,0.9-0.6,1.1-0.9l5.6,2.8c-0.8,1.3-2,2.3-3.5,3.1
			c-1.5,0.8-3.3,1.1-5.3,1.1c-1.3,0-2.6-0.2-3.8-0.6c-1.2-0.4-2.3-1-3.3-1.8s-1.7-1.8-2.3-3c-0.6-1.2-0.9-2.6-0.9-4.2
			c0-1.5,0.3-2.8,0.8-4c0.5-1.2,1.2-2.2,2.1-3.1c0.9-0.8,2-1.5,3.2-1.9c1.2-0.5,2.5-0.7,3.9-0.7c1.4,0,2.7,0.2,3.9,0.7
			c1.2,0.5,2.2,1.2,3,2.1c0.8,0.9,1.5,1.9,1.9,3.1C237.8,603.1,238,604.4,238,605.8z M224.9,594.6l3.8-4.9h7.3l-5.3,4.9H224.9z
			 M231.2,603.2c0-0.6-0.2-1.2-0.7-1.6c-0.5-0.4-1.1-0.6-1.9-0.6c-0.9,0-1.5,0.2-2,0.7s-0.8,1-0.8,1.5L231.2,603.2L231.2,603.2z"/>
		<path class="st5" d="M238.7,596.6h8.8l2.6,9.7h0.1l2.5-9.7h8.5l-7,18.1h-8.6L238.7,596.6z"/>
		<path class="st5" d="M281.5,605.8c0,0.3,0,0.6,0,0.9c0,0.3,0,0.6-0.1,0.8h-12.2c0,0.3,0.1,0.6,0.3,0.9c0.2,0.3,0.4,0.5,0.7,0.7
			c0.3,0.2,0.6,0.3,1,0.4c0.4,0.1,0.7,0.1,1.1,0.1c0.7,0,1.3-0.1,1.8-0.4c0.5-0.3,0.9-0.6,1.1-0.9l5.6,2.8c-0.8,1.3-2,2.3-3.5,3.1
			c-1.5,0.8-3.3,1.1-5.3,1.1c-1.3,0-2.6-0.2-3.8-0.6c-1.2-0.4-2.3-1-3.3-1.8s-1.7-1.8-2.3-3c-0.6-1.2-0.9-2.6-0.9-4.2
			c0-1.5,0.3-2.8,0.8-4c0.5-1.2,1.2-2.2,2.1-3.1c0.9-0.8,2-1.5,3.2-1.9c1.2-0.5,2.5-0.7,3.9-0.7c1.4,0,2.7,0.2,3.9,0.7
			s2.2,1.2,3,2.1c0.8,0.9,1.5,1.9,1.9,3.1C281.3,603.1,281.5,604.4,281.5,605.8z M274.7,603.2c0-0.6-0.2-1.2-0.7-1.6
			c-0.5-0.4-1.1-0.6-1.9-0.6c-0.9,0-1.5,0.2-2,0.7s-0.8,1-0.8,1.5L274.7,603.2L274.7,603.2z"/>
		<path class="st5" d="M284.3,588.7h8.1v26h-8.1V588.7z"/>
		<path class="st5" d="M315.9,605.5c0,1.6-0.3,2.9-0.8,4.2c-0.6,1.2-1.3,2.2-2.3,3.1c-0.9,0.8-2,1.5-3.3,1.9
			c-1.2,0.4-2.6,0.7-3.9,0.7c-1.4,0-2.6-0.2-3.9-0.7c-1.2-0.4-2.3-1.1-3.3-1.9c-0.9-0.8-1.7-1.9-2.2-3.1c-0.6-1.2-0.8-2.6-0.8-4.2
			c0-1.5,0.3-2.9,0.8-4.1c0.6-1.2,1.3-2.2,2.2-3c0.9-0.8,2-1.4,3.3-1.9c1.2-0.4,2.5-0.6,3.9-0.6c1.4,0,2.7,0.2,3.9,0.6
			c1.2,0.4,2.3,1,3.3,1.9c0.9,0.8,1.7,1.8,2.3,3S315.9,604,315.9,605.5z M305.6,602.6c-0.9,0-1.6,0.3-2.1,0.9
			c-0.5,0.6-0.8,1.3-0.8,2.1c0,0.8,0.3,1.6,0.8,2.2c0.6,0.6,1.3,0.9,2.1,0.9s1.6-0.3,2.1-0.9c0.5-0.6,0.8-1.3,0.8-2.2
			c0-0.8-0.3-1.5-0.8-2.1C307.2,602.9,306.5,602.6,305.6,602.6z"/>
		<path class="st5" d="M331.5,615.1c-0.9,0-1.8-0.2-2.6-0.5c-0.9-0.3-1.6-0.8-2.1-1.4h-0.1v9.6h-7.9v-26.3h7.4v1.8h0.1
			c0.7-0.8,1.5-1.3,2.4-1.7c0.9-0.4,1.9-0.6,2.7-0.6c1.4,0,2.5,0.3,3.6,0.8c1,0.5,1.9,1.3,2.6,2.2c0.7,0.9,1.2,1.9,1.6,3
			c0.4,1.1,0.5,2.3,0.5,3.4c0,1.2-0.2,2.4-0.5,3.5c-0.4,1.1-0.9,2.2-1.6,3.1c-0.7,0.9-1.5,1.6-2.6,2.2
			C334.1,614.8,332.9,615.1,331.5,615.1z M332.4,605.5c0-0.8-0.3-1.5-0.8-2.1c-0.5-0.6-1.2-0.9-2.2-0.9c-0.9,0-1.7,0.3-2.2,0.9
			c-0.6,0.6-0.8,1.3-0.8,2.1c0,0.8,0.3,1.6,0.8,2.2c0.6,0.6,1.3,0.9,2.2,0.9c1,0,1.7-0.3,2.2-0.9S332.4,606.4,332.4,605.5z"/>
		<path class="st5" d="M355.4,615.1c-0.9,0-1.8-0.2-2.6-0.5c-0.9-0.3-1.6-0.8-2.1-1.4h-0.1v9.6h-7.9v-26.3h7.4v1.8h0.1
			c0.7-0.8,1.5-1.3,2.4-1.7c0.9-0.4,1.9-0.6,2.7-0.6c1.3,0,2.5,0.3,3.6,0.8c1,0.5,1.9,1.3,2.6,2.2c0.7,0.9,1.2,1.9,1.6,3
			c0.4,1.1,0.5,2.3,0.5,3.4c0,1.2-0.2,2.4-0.5,3.5s-0.9,2.2-1.6,3.1c-0.7,0.9-1.5,1.6-2.6,2.2C357.9,614.8,356.7,615.1,355.4,615.1z
			 M356.2,605.5c0-0.8-0.3-1.5-0.8-2.1c-0.5-0.6-1.2-0.9-2.2-0.9c-0.9,0-1.7,0.3-2.2,0.9c-0.6,0.6-0.8,1.3-0.8,2.1
			c0,0.8,0.3,1.6,0.8,2.2c0.6,0.6,1.3,0.9,2.2,0.9c1,0,1.7-0.3,2.2-0.9C356,607.1,356.2,606.4,356.2,605.5z"/>
		<path class="st5" d="M385.3,605.8c0,0.3,0,0.6,0,0.9c0,0.3,0,0.6-0.1,0.8h-12.2c0,0.3,0.1,0.6,0.3,0.9c0.2,0.3,0.4,0.5,0.7,0.7
			c0.3,0.2,0.6,0.3,1,0.4c0.4,0.1,0.7,0.1,1.1,0.1c0.7,0,1.3-0.1,1.8-0.4c0.5-0.3,0.9-0.6,1.1-0.9l5.6,2.8c-0.8,1.3-2,2.3-3.5,3.1
			c-1.5,0.8-3.3,1.1-5.3,1.1c-1.3,0-2.6-0.2-3.8-0.6c-1.2-0.4-2.3-1-3.3-1.8c-0.9-0.8-1.7-1.8-2.3-3c-0.6-1.2-0.9-2.6-0.9-4.2
			c0-1.5,0.3-2.8,0.8-4c0.5-1.2,1.2-2.2,2.1-3.1c0.9-0.8,2-1.5,3.2-1.9c1.2-0.5,2.5-0.7,3.9-0.7c1.4,0,2.7,0.2,3.9,0.7
			c1.2,0.5,2.2,1.2,3,2.1c0.8,0.9,1.5,1.9,1.9,3.1C385.1,603.1,385.3,604.4,385.3,605.8z M378.5,603.2c0-0.6-0.2-1.2-0.7-1.6
			c-0.5-0.4-1.1-0.6-1.9-0.6c-0.9,0-1.5,0.2-2,0.7s-0.8,1-0.8,1.5L378.5,603.2L378.5,603.2z"/>
		<path class="st5" d="M399.2,614.6v-9.5c0-0.9-0.1-1.6-0.3-2s-0.6-0.6-1.1-0.6c-0.4,0-0.8,0.2-1.1,0.5c-0.4,0.4-0.5,1-0.5,2v9.6
			h-7.9v-18.1h7.7v2h0.1c0.2-0.3,0.5-0.6,0.8-0.9c0.3-0.3,0.7-0.5,1.1-0.8c0.4-0.2,0.9-0.4,1.4-0.6c0.5-0.1,1.1-0.2,1.7-0.2
			c1.2,0,2.2,0.2,3.1,0.6c0.9,0.4,1.6,1.1,2.1,2c0.6-0.7,1.3-1.4,2.2-1.9s2-0.8,3.3-0.8c1.3,0,2.3,0.3,3.2,0.8
			c0.8,0.5,1.5,1.1,2,1.9c0.5,0.8,0.8,1.6,1,2.5c0.2,0.9,0.3,1.7,0.3,2.5v11h-7.9V605c0-1-0.1-1.6-0.4-2c-0.2-0.3-0.6-0.5-1.1-0.5
			c-0.5,0-0.8,0.2-1.2,0.6c-0.3,0.4-0.5,1-0.5,1.9v9.6H399.2z"/>
		<path class="st5" d="M440.5,605.8c0,0.3,0,0.6,0,0.9c0,0.3,0,0.6-0.1,0.8h-12.2c0,0.3,0.1,0.6,0.3,0.9c0.2,0.3,0.4,0.5,0.7,0.7
			c0.3,0.2,0.6,0.3,1,0.4c0.4,0.1,0.7,0.1,1.1,0.1c0.7,0,1.3-0.1,1.8-0.4c0.5-0.3,0.9-0.6,1.1-0.9l5.6,2.8c-0.8,1.3-2,2.3-3.5,3.1
			c-1.5,0.8-3.3,1.1-5.3,1.1c-1.3,0-2.6-0.2-3.8-0.6c-1.2-0.4-2.3-1-3.3-1.8c-0.9-0.8-1.7-1.8-2.3-3c-0.6-1.2-0.9-2.6-0.9-4.2
			c0-1.5,0.3-2.8,0.8-4c0.5-1.2,1.2-2.2,2.1-3.1c0.9-0.8,2-1.5,3.2-1.9c1.2-0.5,2.5-0.7,3.9-0.7c1.4,0,2.7,0.2,3.9,0.7
			c1.2,0.5,2.2,1.2,3,2.1c0.8,0.9,1.5,1.9,1.9,3.1C440.2,603.1,440.5,604.4,440.5,605.8z M433.6,603.2c0-0.6-0.2-1.2-0.7-1.6
			c-0.5-0.4-1.1-0.6-1.9-0.6c-0.9,0-1.5,0.2-2,0.7s-0.8,1-0.8,1.5L433.6,603.2L433.6,603.2z"/>
		<path class="st5" d="M443.2,596.6h7.7v2h0.1c0.5-0.7,1.1-1.2,2-1.7c0.9-0.5,1.9-0.7,3.1-0.7c1.3,0,2.3,0.2,3.1,0.7
			c0.8,0.5,1.5,1,2,1.8c0.5,0.7,0.8,1.5,1,2.4c0.2,0.9,0.3,1.8,0.3,2.7v11h-7.9V605c0-0.9-0.1-1.6-0.4-1.9c-0.3-0.4-0.7-0.5-1.3-0.5
			c-0.5,0-1,0.2-1.3,0.6c-0.3,0.4-0.5,1-0.5,1.8v9.6h-7.9L443.2,596.6L443.2,596.6z"/>
		<path class="st5" d="M474,615.1c-2.4,0-4.2-0.5-5.4-1.6c-1.2-1-1.8-2.7-1.8-4.9v-6.5h-2.5v-5.7h2.5v-4h7.7v4h3.9v5.7h-3.9v4.8
			c0,0.9,0.2,1.5,0.6,1.8c0.4,0.3,0.9,0.5,1.6,0.5c0.3,0,0.5,0,0.8-0.1c0.3,0,0.5-0.1,0.7-0.1v5.4c-0.4,0.2-1,0.3-1.7,0.4
			C475.6,615.1,474.8,615.1,474,615.1z"/>
		<path class="st5" d="M480.4,610.8c0-0.6,0.1-1.2,0.4-1.7c0.2-0.5,0.6-1,1-1.4s0.9-0.7,1.5-1c0.6-0.2,1.1-0.4,1.8-0.4
			c0.6,0,1.2,0.1,1.7,0.4c0.5,0.2,1,0.6,1.4,1c0.4,0.4,0.7,0.9,1,1.4c0.2,0.5,0.4,1.1,0.4,1.7c0,0.6-0.1,1.2-0.4,1.8
			c-0.2,0.5-0.6,1-1,1.4c-0.4,0.4-0.9,0.7-1.4,0.9c-0.5,0.2-1.1,0.3-1.7,0.3c-0.6,0-1.2-0.1-1.8-0.3c-0.6-0.2-1.1-0.5-1.5-0.9
			c-0.4-0.4-0.8-0.9-1-1.4C480.5,612,480.4,611.4,480.4,610.8z"/>
	</g>
	<g class="st4">
		<path class="st6" d="M30.7,426.3V402h9.1c1.9,0,3.8,0.2,5.5,0.6s3.3,1,4.6,2c1.3,0.9,2.4,2.2,3.2,3.7s1.2,3.5,1.2,5.8
			c0,2.1-0.4,4-1.1,5.5c-0.8,1.6-1.8,2.8-3.1,3.8c-1.3,1-2.8,1.7-4.4,2.2s-3.4,0.7-5.2,0.7L30.7,426.3L30.7,426.3z M38.6,408.9v10.3
			h1.5c1.9,0,3.4-0.4,4.4-1.2c1-0.8,1.5-2.2,1.5-4.1c0-1.6-0.5-2.8-1.5-3.7c-1-0.9-2.4-1.3-4.1-1.3H38.6L38.6,408.9z"/>
		<path class="st6" d="M76.4,426.3h-7.7v-2h-0.1c-0.5,0.7-1.1,1.2-2,1.7c-0.9,0.5-1.9,0.7-3.1,0.7c-1.3,0-2.3-0.2-3.2-0.7
			c-0.8-0.4-1.5-1-2-1.8s-0.8-1.5-1-2.4c-0.2-0.9-0.3-1.8-0.3-2.7v-11H65v9.5c0,0.9,0.1,1.6,0.4,1.9c0.3,0.4,0.7,0.5,1.3,0.5
			c0.5,0,1-0.2,1.3-0.6c0.3-0.4,0.5-1,0.5-1.8v-9.5h7.9L76.4,426.3L76.4,426.3z"/>
		<path class="st6" d="M86.6,408.2h8.8l2.6,9.7h0.1l2.5-9.7h8.5l-7,18.1h-8.6L86.6,408.2z"/>
		<path class="st6" d="M110.5,403c0-0.6,0.1-1.1,0.3-1.6c0.2-0.5,0.5-0.9,0.9-1.3c0.4-0.4,0.8-0.7,1.3-0.9c0.5-0.2,1-0.3,1.6-0.3
			c0.6,0,1.1,0.1,1.5,0.3c0.5,0.2,0.9,0.5,1.3,0.9c0.4,0.4,0.7,0.8,0.9,1.3c0.2,0.5,0.3,1,0.3,1.6c0,0.6-0.1,1.1-0.3,1.6
			c-0.2,0.5-0.5,0.9-0.9,1.3c-0.4,0.4-0.8,0.6-1.3,0.8c-0.5,0.2-1,0.3-1.5,0.3c-0.6,0-1.1-0.1-1.6-0.3c-0.5-0.2-0.9-0.5-1.3-0.8
			c-0.4-0.4-0.7-0.8-0.9-1.3C110.6,404.1,110.5,403.6,110.5,403z M110.6,408.2h7.9v18.1h-7.9V408.2z"/>
		<path class="st6" d="M122.2,408.2h7.6v2.1h0.1c0.4-0.7,1-1.3,1.7-1.8c0.8-0.5,1.7-0.7,2.7-0.7c0.6,0,1.1,0.1,1.5,0.2l-0.6,6.7
			c-0.3-0.1-0.5-0.1-0.8-0.2c-0.3,0-0.6-0.1-0.8-0.1c-1,0-1.9,0.3-2.5,0.9c-0.6,0.6-0.9,1.3-0.9,2.2v8.8h-7.9L122.2,408.2
			L122.2,408.2z"/>
		<path class="st6" d="M144.9,426.7c-2.4,0-4.2-0.5-5.4-1.6c-1.2-1-1.8-2.7-1.8-4.9v-6.5h-2.5v-5.7h2.5v-4.1h7.7v4.1h3.9v5.7h-3.9
			v4.8c0,0.9,0.2,1.5,0.6,1.8c0.4,0.3,0.9,0.5,1.6,0.5c0.3,0,0.5,0,0.8-0.1c0.3,0,0.5-0.1,0.7-0.1v5.4c-0.4,0.2-1,0.3-1.7,0.4
			C146.5,426.7,145.7,426.7,144.9,426.7z"/>
		<path class="st6" d="M170.6,426.3h-7.7v-2h-0.1c-0.5,0.7-1.1,1.2-2,1.7c-0.9,0.5-1.9,0.7-3.1,0.7c-1.3,0-2.3-0.2-3.2-0.7
			s-1.5-1-2-1.8s-0.8-1.5-1-2.4c-0.2-0.9-0.3-1.8-0.3-2.7v-11h7.9v9.5c0,0.9,0.1,1.6,0.4,1.9c0.3,0.4,0.7,0.5,1.3,0.5
			c0.5,0,1-0.2,1.3-0.6c0.3-0.4,0.5-1,0.5-1.8v-9.5h7.9L170.6,426.3L170.6,426.3z"/>
		<path class="st6" d="M193.1,417.4c0,0.3,0,0.6,0,0.9c0,0.3,0,0.6-0.1,0.8h-12.2c0,0.3,0.1,0.6,0.3,0.9c0.2,0.3,0.4,0.5,0.7,0.7
			c0.3,0.2,0.6,0.3,1,0.4c0.4,0.1,0.7,0.1,1.1,0.1c0.7,0,1.3-0.1,1.8-0.4c0.5-0.3,0.9-0.6,1.1-0.9l5.6,2.9c-0.8,1.3-2,2.3-3.5,3.1
			c-1.5,0.8-3.3,1.1-5.3,1.1c-1.3,0-2.6-0.2-3.8-0.6c-1.2-0.4-2.3-1-3.3-1.8s-1.7-1.8-2.3-3s-0.9-2.6-0.9-4.2c0-1.5,0.3-2.8,0.8-4
			c0.5-1.2,1.2-2.2,2.1-3.1c0.9-0.8,2-1.5,3.2-1.9c1.2-0.5,2.5-0.7,3.9-0.7c1.4,0,2.7,0.2,3.9,0.7c1.2,0.5,2.2,1.2,3,2.1
			c0.8,0.9,1.5,1.9,1.9,3.1C192.9,414.7,193.1,416,193.1,417.4z M186.3,414.8c0-0.6-0.2-1.2-0.7-1.6c-0.5-0.4-1.1-0.6-1.9-0.6
			c-0.9,0-1.5,0.2-2,0.7s-0.8,1-0.8,1.5L186.3,414.8L186.3,414.8z"/>
		<path class="st6" d="M195.9,400.3h8.1v26h-8.1V400.3z"/>
		<path class="st6" d="M225.8,414.8c0-0.5-0.2-1-0.6-1.2c-0.4-0.3-0.9-0.4-1.5-0.4c-0.7,0-1.4,0.2-2.1,0.5c-0.7,0.3-1.2,0.7-1.7,1.1
			l-3.9-3.9c1.1-1.1,2.4-1.9,3.9-2.4c1.5-0.6,3.1-0.9,4.7-0.9c1.7,0,3.1,0.2,4.3,0.7c1.1,0.5,2,1.1,2.7,2c0.7,0.8,1.1,1.8,1.4,3
			c0.3,1.1,0.4,2.3,0.4,3.6v9.5h-7.2v-1.4H226c-0.5,0.7-1.1,1.2-2,1.5c-0.8,0.3-1.7,0.4-2.5,0.4c-0.7,0-1.4-0.1-2.2-0.3
			c-0.7-0.2-1.4-0.5-2-1c-0.6-0.5-1.1-1.1-1.5-1.8s-0.6-1.6-0.6-2.7c0-1.3,0.3-2.3,1-3.1c0.7-0.8,1.5-1.4,2.5-1.9
			c1-0.4,2.1-0.7,3.4-0.9C223.4,414.9,224.6,414.9,225.8,414.8L225.8,414.8L225.8,414.8z M225.9,418.8c-1.2,0-2.1,0.1-2.8,0.4
			c-0.7,0.3-1.1,0.7-1.1,1.4c0,0.3,0.1,0.5,0.2,0.6c0.1,0.2,0.3,0.3,0.4,0.4c0.2,0.1,0.4,0.2,0.6,0.3c0.2,0.1,0.4,0.1,0.6,0.1
			c0.8,0,1.4-0.2,1.8-0.7s0.7-1.1,0.7-1.9v-0.6H225.9z"/>
		<path class="st6" d="M255.6,426.3h-7.7v-2h-0.1c-0.5,0.7-1.1,1.2-2,1.7c-0.9,0.5-1.9,0.7-3.1,0.7c-1.3,0-2.3-0.2-3.2-0.7
			s-1.5-1-2-1.8s-0.8-1.5-1-2.4c-0.2-0.9-0.3-1.8-0.3-2.7v-11h7.9v9.5c0,0.9,0.1,1.6,0.4,1.9c0.3,0.4,0.7,0.5,1.3,0.5
			c0.5,0,1-0.2,1.3-0.6c0.3-0.4,0.5-1,0.5-1.8v-9.5h7.9L255.6,426.3L255.6,426.3z"/>
		<path class="st6" d="M267.8,408.2h7.6v2.1h0.1c0.4-0.7,1-1.3,1.7-1.8c0.8-0.5,1.7-0.7,2.7-0.7c0.6,0,1.1,0.1,1.5,0.2l-0.6,6.7
			c-0.3-0.1-0.5-0.1-0.8-0.2c-0.3,0-0.6-0.1-0.8-0.1c-1,0-1.9,0.3-2.5,0.9c-0.6,0.6-0.9,1.3-0.9,2.2v8.8h-7.9L267.8,408.2
			L267.8,408.2z"/>
		<path class="st6" d="M301.3,417.4c0,0.3,0,0.6,0,0.9c0,0.3,0,0.6-0.1,0.8h-12.2c0,0.3,0.1,0.6,0.3,0.9c0.2,0.3,0.4,0.5,0.7,0.7
			c0.3,0.2,0.6,0.3,1,0.4c0.4,0.1,0.7,0.1,1.1,0.1c0.7,0,1.3-0.1,1.8-0.4c0.5-0.3,0.9-0.6,1.1-0.9l5.6,2.9c-0.8,1.3-2,2.3-3.5,3.1
			s-3.3,1.1-5.3,1.1c-1.3,0-2.6-0.2-3.8-0.6c-1.2-0.4-2.3-1-3.3-1.8c-0.9-0.8-1.7-1.8-2.3-3s-0.9-2.6-0.9-4.2c0-1.5,0.3-2.8,0.8-4
			c0.5-1.2,1.2-2.2,2.1-3.1c0.9-0.8,2-1.5,3.2-1.9c1.2-0.5,2.5-0.7,3.9-0.7c1.4,0,2.7,0.2,3.9,0.7s2.2,1.2,3,2.1
			c0.8,0.9,1.5,1.9,1.9,3.1C301.1,414.7,301.3,416,301.3,417.4z M288.2,406.2l3.8-4.9h7.3l-5.3,4.9H288.2z M294.5,414.8
			c0-0.6-0.2-1.2-0.7-1.6c-0.5-0.4-1.1-0.6-1.9-0.6c-0.9,0-1.5,0.2-2,0.7s-0.8,1-0.8,1.5L294.5,414.8L294.5,414.8z"/>
		<path class="st6" d="M323,417.4c0,0.3,0,0.6,0,0.9c0,0.3,0,0.6-0.1,0.8h-12.2c0,0.3,0.1,0.6,0.3,0.9c0.2,0.3,0.4,0.5,0.7,0.7
			c0.3,0.2,0.6,0.3,1,0.4c0.4,0.1,0.7,0.1,1.1,0.1c0.7,0,1.3-0.1,1.8-0.4c0.5-0.3,0.9-0.6,1.1-0.9l5.6,2.9c-0.8,1.3-2,2.3-3.5,3.1
			s-3.3,1.1-5.3,1.1c-1.3,0-2.6-0.2-3.8-0.6c-1.2-0.4-2.3-1-3.3-1.8c-0.9-0.8-1.7-1.8-2.3-3s-0.9-2.6-0.9-4.2c0-1.5,0.3-2.8,0.8-4
			c0.5-1.2,1.2-2.2,2.1-3.1c0.9-0.8,2-1.5,3.2-1.9c1.2-0.5,2.5-0.7,3.9-0.7c1.4,0,2.7,0.2,3.9,0.7s2.2,1.2,3,2.1
			c0.8,0.9,1.5,1.9,1.9,3.1C322.7,414.7,323,416,323,417.4z M316.1,414.8c0-0.6-0.2-1.2-0.7-1.6c-0.5-0.4-1.1-0.6-1.9-0.6
			c-0.9,0-1.5,0.2-2,0.7s-0.8,1-0.8,1.5L316.1,414.8L316.1,414.8z"/>
		<path class="st6" d="M325.7,400.3h8.1v26h-8.1V400.3z"/>
		<path class="st6" d="M364.9,417.4c0,0.3,0,0.6,0,0.9c0,0.3,0,0.6-0.1,0.8h-12.2c0,0.3,0.1,0.6,0.3,0.9c0.2,0.3,0.4,0.5,0.7,0.7
			c0.3,0.2,0.6,0.3,1,0.4c0.4,0.1,0.7,0.1,1.1,0.1c0.7,0,1.3-0.1,1.8-0.4c0.5-0.3,0.9-0.6,1.1-0.9l5.6,2.9c-0.8,1.3-2,2.3-3.5,3.1
			s-3.3,1.1-5.3,1.1c-1.3,0-2.6-0.2-3.8-0.6c-1.2-0.4-2.3-1-3.3-1.8c-0.9-0.8-1.7-1.8-2.3-3s-0.9-2.6-0.9-4.2c0-1.5,0.3-2.8,0.8-4
			c0.5-1.2,1.2-2.2,2.1-3.1c0.9-0.8,2-1.5,3.2-1.9c1.2-0.5,2.5-0.7,3.9-0.7c1.4,0,2.7,0.2,3.9,0.7s2.2,1.2,3,2.1
			c0.8,0.9,1.5,1.9,1.9,3.1C364.7,414.7,364.9,416,364.9,417.4z M358.1,414.8c0-0.6-0.2-1.2-0.7-1.6c-0.5-0.4-1.1-0.6-1.9-0.6
			c-0.9,0-1.5,0.2-2,0.7s-0.8,1-0.8,1.5L358.1,414.8L358.1,414.8z"/>
		<path class="st6" d="M367.7,408.2h7.7v2h0.1c0.5-0.7,1.1-1.2,2-1.7s1.9-0.7,3.1-0.7c1.3,0,2.3,0.2,3.1,0.7c0.8,0.5,1.5,1,2,1.8
			c0.5,0.7,0.8,1.5,1,2.4c0.2,0.9,0.3,1.8,0.3,2.7v11h-7.9v-9.6c0-0.9-0.1-1.6-0.4-1.9s-0.7-0.6-1.3-0.6c-0.5,0-1,0.2-1.3,0.6
			c-0.3,0.4-0.5,1-0.5,1.8v9.6h-7.9L367.7,408.2L367.7,408.2z"/>
		<path class="st6" d="M411.8,426.7c-0.9,0-1.8-0.2-2.6-0.5c-0.9-0.3-1.6-0.8-2.1-1.4H407v9.6h-7.9v-26.3h7.4v1.8h0.1
			c0.7-0.8,1.5-1.3,2.4-1.7s1.9-0.6,2.7-0.6c1.3,0,2.5,0.3,3.6,0.8c1,0.5,1.9,1.3,2.6,2.2s1.2,1.9,1.6,3c0.4,1.1,0.5,2.3,0.5,3.4
			c0,1.2-0.2,2.4-0.5,3.5s-0.9,2.2-1.6,3.1c-0.7,0.9-1.5,1.6-2.6,2.2C414.4,426.5,413.2,426.7,411.8,426.7z M412.7,417.2
			c0-0.8-0.3-1.5-0.8-2.1c-0.5-0.6-1.2-0.9-2.2-0.9c-0.9,0-1.7,0.3-2.2,0.9c-0.6,0.6-0.8,1.3-0.8,2.1c0,0.8,0.3,1.6,0.8,2.2
			c0.6,0.6,1.3,0.9,2.2,0.9c1,0,1.7-0.3,2.2-0.9C412.4,418.8,412.7,418,412.7,417.2z"/>
		<path class="st6" d="M432.5,414.8c0-0.5-0.2-1-0.6-1.2c-0.4-0.3-0.9-0.4-1.5-0.4c-0.7,0-1.4,0.2-2.1,0.5c-0.7,0.3-1.2,0.7-1.7,1.1
			l-3.9-3.9c1.1-1.1,2.4-1.9,3.9-2.4c1.5-0.6,3.1-0.9,4.7-0.9c1.7,0,3.1,0.2,4.3,0.7c1.1,0.5,2,1.1,2.7,2c0.7,0.8,1.1,1.8,1.4,3
			c0.3,1.1,0.4,2.3,0.4,3.6v9.5h-7.2v-1.4h-0.1c-0.5,0.7-1.1,1.2-2,1.5c-0.8,0.3-1.7,0.4-2.5,0.4c-0.7,0-1.4-0.1-2.2-0.3
			c-0.7-0.2-1.4-0.5-2-1c-0.6-0.5-1.1-1.1-1.5-1.8c-0.4-0.7-0.6-1.6-0.6-2.7c0-1.3,0.3-2.3,1-3.1c0.7-0.8,1.5-1.4,2.5-1.9
			c1-0.4,2.1-0.7,3.4-0.9C430.1,414.9,431.3,414.9,432.5,414.8L432.5,414.8L432.5,414.8z M432.6,418.8c-1.2,0-2.1,0.1-2.8,0.4
			s-1.1,0.7-1.1,1.4c0,0.3,0.1,0.5,0.2,0.6c0.1,0.2,0.3,0.3,0.4,0.4c0.2,0.1,0.4,0.2,0.6,0.3c0.2,0.1,0.4,0.1,0.6,0.1
			c0.8,0,1.4-0.2,1.8-0.7c0.5-0.5,0.7-1.1,0.7-1.9v-0.6H432.6z"/>
		<path class="st6" d="M458,420.5c0,1.2-0.3,2.2-0.8,3.1c-0.5,0.8-1.2,1.5-1.9,2c-0.8,0.5-1.6,0.8-2.6,1.1c-0.9,0.2-1.8,0.3-2.7,0.3
			c-1.6,0-3.1-0.2-4.6-0.7c-1.5-0.4-2.8-1.1-3.9-1.9l3.9-4.5c0.5,0.5,1.2,0.9,1.9,1.2c0.7,0.3,1.5,0.5,2.1,0.5
			c0.3,0,0.5-0.1,0.8-0.2s0.4-0.3,0.4-0.6c0-0.3-0.2-0.5-0.6-0.7s-1.2-0.4-2.2-0.6c-0.6-0.1-1.2-0.3-1.8-0.6c-0.6-0.3-1.1-0.6-1.6-1
			c-0.5-0.4-0.9-1-1.2-1.6c-0.3-0.6-0.5-1.4-0.5-2.2c0-1.2,0.3-2.2,0.8-3c0.5-0.8,1.2-1.5,2-2c0.8-0.5,1.6-0.9,2.6-1.1
			s1.8-0.4,2.6-0.4c1.4,0,2.8,0.2,4.2,0.6c1.4,0.4,2.6,1,3.7,1.7l-3.7,4.4c-0.6-0.4-1.2-0.7-1.8-0.9c-0.6-0.2-1.2-0.3-1.8-0.3
			c-0.4,0-0.7,0.1-1,0.2c-0.3,0.1-0.4,0.3-0.4,0.6c0,0.2,0.1,0.4,0.4,0.5c0.3,0.1,0.9,0.3,2,0.5c0.7,0.1,1.4,0.4,2.1,0.6
			c0.7,0.3,1.3,0.7,1.8,1.1c0.5,0.4,1,1,1.3,1.6C457.8,418.9,458,419.7,458,420.5z"/>
		<path class="st6" d="M475.6,420.5c0,1.2-0.3,2.2-0.8,3.1c-0.5,0.8-1.2,1.5-1.9,2c-0.8,0.5-1.6,0.8-2.6,1.1
			c-0.9,0.2-1.8,0.3-2.7,0.3c-1.6,0-3.1-0.2-4.6-0.7c-1.5-0.4-2.8-1.1-3.9-1.9l3.9-4.5c0.6,0.5,1.2,0.9,1.9,1.2
			c0.7,0.3,1.5,0.5,2.1,0.5c0.3,0,0.5-0.1,0.8-0.2s0.4-0.3,0.4-0.6c0-0.3-0.2-0.5-0.6-0.7c-0.4-0.2-1.2-0.4-2.2-0.6
			c-0.6-0.1-1.2-0.3-1.8-0.6c-0.6-0.3-1.1-0.6-1.6-1c-0.5-0.4-0.9-1-1.2-1.6c-0.3-0.6-0.5-1.4-0.5-2.2c0-1.2,0.3-2.2,0.8-3
			c0.5-0.8,1.2-1.5,2-2c0.8-0.5,1.6-0.9,2.6-1.1s1.8-0.4,2.6-0.4c1.4,0,2.8,0.2,4.2,0.6c1.4,0.4,2.6,1,3.7,1.7l-3.7,4.4
			c-0.6-0.4-1.2-0.7-1.8-0.9c-0.6-0.2-1.2-0.3-1.8-0.3c-0.4,0-0.7,0.1-1,0.2c-0.3,0.1-0.4,0.3-0.4,0.6c0,0.2,0.1,0.4,0.4,0.5
			c0.3,0.1,0.9,0.3,2,0.5c0.7,0.1,1.4,0.4,2.1,0.6c0.7,0.3,1.3,0.7,1.8,1.1c0.5,0.4,1,1,1.3,1.6
			C475.5,418.9,475.6,419.7,475.6,420.5z"/>
		<path class="st6" d="M488,414.8c0-0.5-0.2-1-0.6-1.2c-0.4-0.3-0.9-0.4-1.5-0.4c-0.7,0-1.4,0.2-2.1,0.5c-0.7,0.3-1.2,0.7-1.7,1.1
			l-3.9-3.9c1.1-1.1,2.4-1.9,3.9-2.4c1.5-0.6,3.1-0.9,4.7-0.9c1.7,0,3.1,0.2,4.3,0.7c1.1,0.5,2,1.1,2.7,2c0.7,0.8,1.1,1.8,1.4,3
			s0.4,2.3,0.4,3.6v9.5h-7.2v-1.4h-0.1c-0.5,0.7-1.1,1.2-2,1.5s-1.7,0.4-2.5,0.4c-0.7,0-1.4-0.1-2.2-0.3s-1.4-0.5-2-1
			c-0.6-0.5-1.1-1.1-1.5-1.8c-0.4-0.7-0.6-1.6-0.6-2.7c0-1.3,0.3-2.3,1-3.1c0.7-0.8,1.5-1.4,2.5-1.9c1-0.4,2.1-0.7,3.4-0.9
			C485.6,414.9,486.8,414.9,488,414.8L488,414.8L488,414.8z M488.1,418.8c-1.2,0-2.1,0.1-2.8,0.4c-0.7,0.3-1.1,0.7-1.1,1.4
			c0,0.3,0.1,0.5,0.2,0.6c0.1,0.2,0.3,0.3,0.4,0.4c0.2,0.1,0.4,0.2,0.6,0.3c0.2,0.1,0.4,0.1,0.6,0.1c0.8,0,1.4-0.2,1.8-0.7
			c0.5-0.5,0.7-1.1,0.7-1.9v-0.6H488.1z"/>
		<path class="st6" d="M498.7,408.2h7.7v2h0.1c0.5-0.7,1.1-1.2,2-1.7c0.9-0.5,1.9-0.7,3.1-0.7c1.3,0,2.3,0.2,3.1,0.7
			c0.8,0.5,1.5,1,2,1.8c0.5,0.7,0.8,1.5,1,2.4c0.2,0.9,0.3,1.8,0.3,2.7v11h-7.9v-9.6c0-0.9-0.1-1.6-0.4-1.9
			c-0.3-0.4-0.7-0.6-1.3-0.6c-0.5,0-1,0.2-1.3,0.6c-0.3,0.4-0.5,1-0.5,1.8v9.6h-7.9L498.7,408.2L498.7,408.2z"/>
		<path class="st6" d="M529.5,426.7c-2.4,0-4.2-0.5-5.4-1.6c-1.2-1-1.8-2.7-1.8-4.9v-6.5h-2.5v-5.7h2.5v-4.1h7.7v4.1h3.9v5.7H530
			v4.8c0,0.9,0.2,1.5,0.6,1.8c0.4,0.3,0.9,0.5,1.6,0.5c0.3,0,0.5,0,0.8-0.1c0.3,0,0.5-0.1,0.7-0.1v5.4c-0.4,0.2-1,0.3-1.7,0.4
			C531.1,426.7,530.3,426.7,529.5,426.7z"/>
	</g>
	<g class="st4">
		<path class="st6" d="M43,472.5c-0.9,0-1.8-0.2-2.6-0.5c-0.9-0.3-1.6-0.8-2.1-1.4h-0.1v9.6h-7.9V454h7.4v1.8h0.1
			c0.7-0.8,1.5-1.3,2.4-1.7s1.9-0.6,2.7-0.6c1.4,0,2.5,0.3,3.6,0.8c1,0.5,1.9,1.3,2.6,2.2s1.2,1.9,1.6,3c0.4,1.1,0.5,2.3,0.5,3.4
			c0,1.2-0.2,2.4-0.5,3.5s-0.9,2.2-1.6,3.1c-0.7,0.9-1.5,1.6-2.6,2.2C45.5,472.2,44.3,472.5,43,472.5z M43.8,462.9
			c0-0.8-0.3-1.5-0.8-2.1c-0.5-0.6-1.2-0.9-2.2-0.9c-0.9,0-1.7,0.3-2.2,0.9c-0.6,0.6-0.8,1.3-0.8,2.1c0,0.8,0.3,1.6,0.8,2.2
			s1.3,0.9,2.2,0.9c1,0,1.7-0.3,2.2-0.9C43.6,464.5,43.8,463.8,43.8,462.9z"/>
		<path class="st6" d="M63.7,460.6c0-0.5-0.2-1-0.6-1.2c-0.4-0.3-0.9-0.4-1.5-0.4c-0.7,0-1.4,0.2-2.1,0.5c-0.7,0.3-1.2,0.7-1.7,1.1
			l-3.9-3.9c1.1-1.1,2.4-1.9,3.9-2.4c1.5-0.6,3.1-0.9,4.7-0.9c1.7,0,3.1,0.2,4.3,0.7c1.1,0.5,2,1.1,2.7,2s1.1,1.8,1.4,3
			c0.3,1.1,0.4,2.3,0.4,3.6v9.5h-7.2v-1.4h-0.1c-0.5,0.7-1.1,1.2-2,1.5c-0.8,0.3-1.7,0.4-2.5,0.4c-0.7,0-1.4-0.1-2.2-0.3
			c-0.7-0.2-1.4-0.5-2-1c-0.6-0.5-1.1-1.1-1.5-1.8c-0.4-0.7-0.6-1.6-0.6-2.7c0-1.3,0.3-2.3,1-3.1c0.7-0.8,1.5-1.4,2.5-1.9
			c1-0.4,2.1-0.7,3.4-0.9C61.3,460.7,62.5,460.6,63.7,460.6L63.7,460.6L63.7,460.6z M63.7,464.5c-1.2,0-2.1,0.1-2.8,0.4
			s-1.1,0.7-1.1,1.4c0,0.3,0.1,0.5,0.2,0.6c0.1,0.2,0.3,0.3,0.4,0.4s0.4,0.2,0.6,0.3c0.2,0.1,0.4,0.1,0.6,0.1c0.8,0,1.4-0.2,1.8-0.7
			c0.5-0.5,0.7-1.1,0.7-1.9v-0.6L63.7,464.5L63.7,464.5z"/>
		<path class="st6" d="M74.4,454H82v2.1h0.1c0.4-0.7,1-1.3,1.7-1.8c0.8-0.5,1.7-0.7,2.7-0.7c0.6,0,1.1,0.1,1.5,0.2l-0.6,6.7
			c-0.3-0.1-0.5-0.1-0.8-0.2s-0.6-0.1-0.8-0.1c-1,0-1.9,0.3-2.5,0.9c-0.6,0.6-0.9,1.3-0.9,2.2v8.8h-7.9L74.4,454L74.4,454z"/>
		<path class="st6" d="M111,472.6c-1.9,0-3.7-0.3-5.3-0.9s-3.1-1.4-4.3-2.6c-1.2-1.1-2.1-2.5-2.8-4c-0.7-1.6-1-3.3-1-5.3
			c0-1.9,0.3-3.7,1-5.3c0.7-1.6,1.6-2.9,2.8-4.1c1.2-1.1,2.6-2,4.2-2.6c1.6-0.6,3.3-0.9,5.1-0.9c1.9,0,3.7,0.3,5.4,0.9
			c1.7,0.6,3.1,1.5,4.2,2.5l-4.8,5.7c-0.5-0.6-1.1-1.1-1.8-1.4c-0.7-0.4-1.5-0.5-2.5-0.5c-0.7,0-1.3,0.1-1.9,0.4
			c-0.6,0.3-1.2,0.6-1.7,1.1s-0.9,1.1-1.2,1.8c-0.3,0.7-0.4,1.5-0.4,2.3c0,1.7,0.4,3.1,1.3,4.1c0.9,1.1,2.3,1.6,4.2,1.6
			c0.3,0,0.7,0,1.1-0.1c0.4-0.1,0.7-0.1,0.9-0.3v-1.9h-3.9V457h11.2v13.3c-0.6,0.3-1.2,0.7-2,0.9s-1.5,0.5-2.4,0.7
			c-0.8,0.2-1.7,0.4-2.6,0.5C112.9,472.6,112,472.6,111,472.6z"/>
		<path class="st6" d="M128.5,449.6l-2.3,2.3H121l4.7-4.9h5.8l4.6,4.9h-5.3L128.5,449.6z M124.4,454h7.9V472h-7.9V454z"/>
		<path class="st6" d="M143.9,472.5c-2.4,0-4.2-0.5-5.4-1.6c-1.2-1-1.8-2.7-1.8-4.9v-6.5h-2.5V454h2.5v-4h7.7v4h3.9v5.7h-3.9v4.8
			c0,0.9,0.2,1.5,0.6,1.8c0.4,0.3,0.9,0.5,1.6,0.5c0.3,0,0.5,0,0.8-0.1c0.3,0,0.5-0.1,0.7-0.1v5.4c-0.4,0.2-1,0.3-1.7,0.4
			C145.5,472.4,144.7,472.5,143.9,472.5z"/>
		<path class="st6" d="M169.3,463.2c0,0.3,0,0.6,0,0.9s0,0.6-0.1,0.8h-12.2c0,0.3,0.1,0.6,0.3,0.9c0.2,0.3,0.4,0.5,0.7,0.7
			c0.3,0.2,0.6,0.3,1,0.4c0.4,0.1,0.7,0.1,1.1,0.1c0.7,0,1.3-0.1,1.8-0.4c0.5-0.3,0.9-0.6,1.1-0.9l5.6,2.9c-0.8,1.3-2,2.3-3.5,3.1
			s-3.3,1.1-5.3,1.1c-1.3,0-2.6-0.2-3.8-0.6c-1.2-0.4-2.3-1-3.3-1.8c-0.9-0.8-1.7-1.8-2.3-3c-0.6-1.2-0.9-2.6-0.9-4.2
			c0-1.5,0.3-2.8,0.8-4c0.5-1.2,1.2-2.2,2.1-3.1c0.9-0.8,2-1.5,3.2-1.9c1.2-0.5,2.5-0.7,3.9-0.7c1.4,0,2.7,0.2,3.9,0.7
			c1.2,0.5,2.2,1.2,3,2.1s1.5,1.9,1.9,3.1C169.1,460.4,169.3,461.8,169.3,463.2z M162.5,460.6c0-0.6-0.2-1.2-0.7-1.6
			s-1.1-0.6-1.9-0.6c-0.9,0-1.5,0.2-2,0.7s-0.8,1-0.8,1.5L162.5,460.6L162.5,460.6z"/>
		<path class="st6" d="M186.9,466.3c0,1.2-0.3,2.2-0.8,3.1c-0.5,0.8-1.2,1.5-1.9,2c-0.8,0.5-1.6,0.8-2.6,1.1
			c-0.9,0.2-1.8,0.3-2.7,0.3c-1.6,0-3.1-0.2-4.6-0.7c-1.5-0.4-2.8-1.1-3.9-1.9l3.9-4.5c0.5,0.5,1.2,0.9,1.9,1.2
			c0.7,0.3,1.5,0.5,2.1,0.5c0.3,0,0.5-0.1,0.8-0.2s0.4-0.3,0.4-0.6c0-0.3-0.2-0.5-0.6-0.7s-1.2-0.4-2.2-0.6
			c-0.6-0.1-1.2-0.3-1.8-0.6c-0.6-0.3-1.1-0.6-1.6-1c-0.5-0.4-0.9-1-1.2-1.6c-0.3-0.6-0.5-1.4-0.5-2.2c0-1.2,0.3-2.2,0.8-3
			c0.5-0.8,1.2-1.5,2-2c0.8-0.5,1.6-0.9,2.6-1.1s1.8-0.4,2.6-0.4c1.4,0,2.8,0.2,4.2,0.6s2.6,1,3.7,1.7l-3.7,4.4
			c-0.6-0.4-1.2-0.7-1.8-0.9s-1.2-0.3-1.8-0.3c-0.4,0-0.7,0.1-1,0.2c-0.3,0.1-0.4,0.3-0.4,0.6c0,0.2,0.1,0.4,0.4,0.5s0.9,0.3,2,0.5
			c0.7,0.1,1.4,0.4,2.1,0.6c0.7,0.3,1.3,0.7,1.8,1.1c0.5,0.4,1,1,1.3,1.6C186.7,464.7,186.9,465.4,186.9,466.3z"/>
		<path class="st6" d="M197.6,462.9c0-1.2,0.2-2.3,0.5-3.4c0.4-1.1,0.9-2.1,1.6-3c0.7-0.9,1.5-1.6,2.6-2.2c1-0.5,2.2-0.8,3.6-0.8
			c0.9,0,1.7,0.2,2.6,0.5c0.9,0.3,1.6,0.8,2.1,1.4h0.1v-9.3h7.9v26h-7.1v-1.9h-0.1c-0.5,0.7-1.3,1.3-2.3,1.7c-1,0.4-2.1,0.6-3.2,0.6
			c-1.4,0-2.5-0.3-3.6-0.8c-1-0.5-1.9-1.3-2.6-2.2c-0.7-0.9-1.2-1.9-1.6-3.1C197.8,465.3,197.6,464.1,197.6,462.9z M204.9,462.9
			c0,0.9,0.3,1.6,0.8,2.2c0.5,0.6,1.2,0.9,2.2,0.9c0.9,0,1.7-0.3,2.2-0.9s0.8-1.3,0.8-2.2c0-0.8-0.3-1.5-0.8-2.1
			c-0.6-0.6-1.3-0.9-2.2-0.9c-1,0-1.7,0.3-2.2,0.9C205.2,461.4,204.9,462.1,204.9,462.9z"/>
		<path class="st6" d="M241,463.2c0,0.3,0,0.6,0,0.9s0,0.6-0.1,0.8h-12.2c0,0.3,0.1,0.6,0.3,0.9c0.2,0.3,0.4,0.5,0.7,0.7
			c0.3,0.2,0.6,0.3,1,0.4c0.4,0.1,0.7,0.1,1.1,0.1c0.7,0,1.3-0.1,1.8-0.4c0.5-0.3,0.9-0.6,1.1-0.9l5.6,2.9c-0.8,1.3-2,2.3-3.5,3.1
			c-1.5,0.8-3.3,1.1-5.3,1.1c-1.3,0-2.6-0.2-3.8-0.6c-1.2-0.4-2.3-1-3.3-1.8s-1.7-1.8-2.3-3c-0.6-1.2-0.9-2.6-0.9-4.2
			c0-1.5,0.3-2.8,0.8-4c0.5-1.2,1.2-2.2,2.1-3.1c0.9-0.8,2-1.5,3.2-1.9c1.2-0.5,2.5-0.7,3.9-0.7c1.4,0,2.7,0.2,3.9,0.7
			s2.2,1.2,3,2.1c0.8,0.9,1.5,1.9,1.9,3.1C240.7,460.4,241,461.8,241,463.2z M234.1,460.6c0-0.6-0.2-1.2-0.7-1.6s-1.1-0.6-1.9-0.6
			c-0.9,0-1.5,0.2-2,0.7s-0.8,1-0.8,1.5L234.1,460.6L234.1,460.6z"/>
		<path class="st6" d="M260.8,457.1h7.4v6.7h-7.4v8.2h-8v-24.3h16.4v6.8h-8.4V457.1z"/>
		<path class="st6" d="M270.8,454h7.6v2.1h0.1c0.4-0.7,1-1.3,1.7-1.8c0.8-0.5,1.7-0.7,2.7-0.7c0.6,0,1.1,0.1,1.5,0.2l-0.6,6.7
			c-0.3-0.1-0.5-0.1-0.8-0.2s-0.6-0.1-0.8-0.1c-1,0-1.9,0.3-2.5,0.9c-0.6,0.6-0.9,1.3-0.9,2.2v8.8h-7.9L270.8,454L270.8,454z"/>
		<path class="st6" d="M295.1,460.6c0-0.5-0.2-1-0.6-1.2c-0.4-0.3-0.9-0.4-1.5-0.4c-0.7,0-1.4,0.2-2.1,0.5c-0.7,0.3-1.2,0.7-1.7,1.1
			l-3.9-3.9c1.1-1.1,2.4-1.9,3.9-2.4c1.5-0.6,3.1-0.9,4.7-0.9c1.7,0,3.1,0.2,4.3,0.7c1.1,0.5,2,1.1,2.7,2s1.1,1.8,1.4,3
			c0.3,1.1,0.4,2.3,0.4,3.6v9.5h-7.2v-1.4h-0.1c-0.5,0.7-1.1,1.2-2,1.5c-0.8,0.3-1.7,0.4-2.5,0.4c-0.7,0-1.4-0.1-2.2-0.3
			c-0.7-0.2-1.4-0.5-2-1c-0.6-0.5-1.1-1.1-1.5-1.8c-0.4-0.7-0.6-1.6-0.6-2.7c0-1.3,0.3-2.3,1-3.1c0.7-0.8,1.5-1.4,2.5-1.9
			c1-0.4,2.1-0.7,3.4-0.9C292.7,460.7,293.9,460.6,295.1,460.6L295.1,460.6L295.1,460.6z M295.1,464.5c-1.2,0-2.1,0.1-2.8,0.4
			s-1.1,0.7-1.1,1.4c0,0.3,0.1,0.5,0.2,0.6c0.1,0.2,0.3,0.3,0.4,0.4s0.4,0.2,0.6,0.3c0.2,0.1,0.4,0.1,0.6,0.1c0.8,0,1.4-0.2,1.8-0.7
			c0.5-0.5,0.7-1.1,0.7-1.9v-0.6L295.1,464.5L295.1,464.5z"/>
		<path class="st6" d="M305.8,454h7.7v2h0.1c0.5-0.7,1.1-1.2,2-1.7s1.9-0.7,3.1-0.7c1.3,0,2.3,0.2,3.1,0.7c0.8,0.5,1.5,1,2,1.8
			c0.5,0.7,0.8,1.5,1,2.4c0.2,0.9,0.3,1.8,0.3,2.7v11h-7.9v-9.6c0-0.9-0.1-1.6-0.4-1.9s-0.7-0.5-1.3-0.5c-0.5,0-1,0.2-1.3,0.6
			c-0.3,0.4-0.5,1-0.5,1.8v9.6h-7.9L305.8,454L305.8,454z"/>
		<path class="st6" d="M338.4,472.7c-1.5,0-2.9-0.2-4.2-0.7c-1.3-0.5-2.4-1.1-3.3-2c-0.9-0.8-1.7-1.9-2.2-3.1
			c-0.5-1.2-0.8-2.5-0.8-4c0-1.5,0.3-2.8,0.8-4c0.5-1.2,1.3-2.2,2.2-3.1c1-0.8,2.1-1.5,3.4-2c1.3-0.5,2.7-0.7,4.2-0.7
			c0.6,0,1.2,0.1,1.9,0.2c0.6,0.1,1.2,0.2,1.8,0.4c0.6,0.2,1.1,0.4,1.6,0.6c0.5,0.2,0.9,0.5,1.3,0.8l-3.9,5.7
			c-0.3-0.3-0.6-0.5-1.1-0.7c-0.4-0.2-0.9-0.2-1.3-0.2c-0.4,0-0.8,0.1-1.1,0.2s-0.7,0.3-1,0.6c-0.3,0.3-0.5,0.6-0.7,1
			c-0.2,0.4-0.3,0.8-0.3,1.3c0,0.5,0.1,0.9,0.3,1.3s0.4,0.7,0.7,0.9s0.6,0.4,1,0.5c0.4,0.1,0.7,0.2,1.1,0.2c0.5,0,0.9-0.1,1.3-0.3
			c0.4-0.2,0.8-0.4,1.1-0.7l4,5.5c-0.8,0.6-1.7,1.1-2.9,1.5C341,472.5,339.8,472.7,338.4,472.7z"/>
		<path class="st6" d="M365.5,463.2c0,0.3,0,0.6,0,0.9s0,0.6-0.1,0.8h-12.2c0,0.3,0.1,0.6,0.3,0.9c0.2,0.3,0.4,0.5,0.7,0.7
			c0.3,0.2,0.6,0.3,1,0.4c0.4,0.1,0.7,0.1,1.1,0.1c0.7,0,1.3-0.1,1.8-0.4c0.5-0.3,0.9-0.6,1.1-0.9l5.6,2.9c-0.8,1.3-2,2.3-3.5,3.1
			s-3.3,1.1-5.3,1.1c-1.3,0-2.6-0.2-3.8-0.6c-1.2-0.4-2.3-1-3.3-1.8c-0.9-0.8-1.7-1.8-2.3-3c-0.6-1.2-0.9-2.6-0.9-4.2
			c0-1.5,0.3-2.8,0.8-4c0.5-1.2,1.2-2.2,2.1-3.1c0.9-0.8,2-1.5,3.2-1.9c1.2-0.5,2.5-0.7,3.9-0.7c1.4,0,2.7,0.2,3.9,0.7
			c1.2,0.5,2.2,1.2,3,2.1s1.5,1.9,1.9,3.1C365.3,460.4,365.5,461.8,365.5,463.2z M358.7,460.6c0-0.6-0.2-1.2-0.7-1.6
			s-1.1-0.6-1.9-0.6c-0.9,0-1.5,0.2-2,0.7s-0.8,1-0.8,1.5L358.7,460.6L358.7,460.6z"/>
	</g>
	<g>
		<path class="st7" d="M158.5,58c-2.2-4.9-3.2-10-3.1-15.4c0-1.8,0.2-3.6,0.5-5.4c1.4-7.5,4.9-13.9,10.4-19.1
			c6.2-5.9,13.7-9.1,22.2-9.6c4.3-0.3,8.6,0.3,12.7,1.7c8.2,2.7,14.6,7.8,19.2,15.2c0.7,1.1,1.7,1.5,2.9,1c1.3-0.5,2.5-1,3.8-1.5
			c1.2-0.5,1.6-1.6,0.9-2.8c-2.2-3.9-4.9-7.4-8.2-10.4c-8.3-7.6-18.1-11.3-29.4-11.5c-3,0-5.9,0.3-8.8,0.9
			c-8.2,1.7-15.3,5.5-21.3,11.3c-3.7,3.6-6.6,7.7-8.9,12.3c-2.6,5.3-4,10.9-4.3,16.7c-0.1,3.1,0,6.1,0.5,9.2c0.7,4,1.9,7.9,3.7,11.6
			c0.5,1.1,1.8,1.5,2.8,0.7c1.2-0.9,2.4-1.7,3.7-2.6C158.7,59.8,158.9,58.9,158.5,58z"/>
		<g class="st8">
			<g>
				<path class="st7" d="M209.5,34.1c-1.8-0.5-3.7-0.9-5.5-1.4c0,0.1-0.1,0.2-0.1,0.2c-1.7,3.8-3.9,7.3-6.6,10.5
					c-0.7,0.9-1.3,1.8-1.5,3c-0.4,1.6-0.5,3.2-0.5,4.8c0.1,2.5,0.1,4.9,0.1,7.4c0,0.9,0,1.8-0.1,2.7c0,1.5-0.1,3-0.2,4.4
					c0.6,0.1,1.1,0.2,1.7,0.2c2,0.3,3.9,0.5,5.9,0.8c0.6,0.1,1.1,0.2,1.7,0.2c1-0.1,1.9-0.2,2.9-0.3c1-0.1,1.4-0.7,1.2-1.6
					c-1.1-4.9-2.2-9.8-3.3-14.7c-0.1-0.3-0.2-0.4-0.4-0.3c-0.7,0.3-1.4,0.5-2.1,0.7c0-0.1,0.1-0.2,0.1-0.2c1.5-1.9,3.1-3.9,4.6-5.8
					c0.7-0.9,1.3-1.7,1.5-2.8c0.4-2.2,0.8-4.5,1.3-6.7C210.4,34.6,210.2,34.3,209.5,34.1z"/>
				<path class="st7" d="M181.8,56.8c1.2-2.7,2.4-5.4,3.1-8.3c0.7-2.6,0.6-5.2-0.7-7.7c-0.6-1.2-1.4-2.4-2.2-3.5
					c-1.3-1.8-2.3-3.8-3.3-5.8c-0.1,0-0.1,0-0.2-0.1c-0.9-0.6-1.8-0.6-2.8-0.2c-0.5,0.2-0.6,0.3-0.4,0.8c0.3,0.9,0.5,1.8,0.8,2.6
					c0.1,0.2,0.1,0.3-0.2,0.3c-1.3-0.1-2.6-0.1-3.8-0.2c-2.2-0.1-4.4-0.2-6.6-0.3c-0.2,0-0.5,0-0.6,0.2c-0.2,0.3-0.1,0.5,0.1,0.7
					c0.4,0.7,0.8,1.4,1.3,2c0.4,0.6,0.5,1.1,0,1.6c-0.4,0.5-0.3,0.9,0.2,1.3c0.1,0.1,0.3,0.1,0.4,0.2c1.8,0.7,3.7,1.4,5.5,2
					c0.6,0.2,1,0.7,1.2,1.3c0.3,1.1,0.6,2.2,0.8,3.4c0.5,2.2,1.2,4.4,2.4,6.3c0.2,0.3,0.3,0.7,0.5,1.1c-0.5-0.1-1-0.2-1.5-0.4
					c-0.3-0.1-0.4,0-0.5,0.3c-0.6,2.4-1.2,4.8-1.8,7.3c-0.2,0.7-0.3,1.3-0.5,2c-0.1,0.6,0.1,1,0.5,1.2c1.3,0.4,2.6,0.7,3.9,1.1
					c0,0,0.1-0.1,0.1-0.1C179,62.9,180.5,59.9,181.8,56.8z"/>
				<path class="st7" d="M191,38c1.3,0.1,2.6,0.2,3.8-0.5c2.6-1.4,4.7-3.4,6.3-5.9c-0.4-0.2-0.8-0.5-1.1-0.8
					c-2.5-2.4-5.1-4.8-7.6-7.3c-0.4-0.4-0.9-0.6-1.5-0.5c-1.1,0.2-2.2,0.5-3.4,0.7c-0.4,0.1-0.6,0.3-0.7,0.8
					c-0.1,0.8-0.1,1.5-0.2,2.3c0,0.5-0.2,0.9-0.6,1.3c-0.1,0.1-0.3,0.3-0.4,0.4c-1,1.1-2,2.2-3.1,3.3c0.6,0.8,1.2,1.6,1.8,2.3
					C186.2,36.2,188.3,37.8,191,38z M186.7,29.5c0.2-1.3,1.1-2,2.5-1.8c1.9,0.2,3.6,1,4.9,2.4c1,1.1,1.3,2.4,0.8,3.8
					c-0.4,1.4-1.4,2.2-2.9,2.4c-1.4,0.2-2.7-0.3-3.6-1.4c-1.2-1.4-1.7-3-1.8-4.7C186.7,30,186.7,29.7,186.7,29.5z"/>
			</g>
			<path class="st7" d="M189.8,57.2c-0.1-0.9-0.2-1.8-0.5-2.6c-0.3-0.8-0.8-0.9-1.4-0.2c-0.4,0.5-0.8,1-1.1,1.5
				c-2.4,3.6-4.5,7.4-7.2,10.8c0,0,0,0,0.1,0c3.3,1,6.6,1.9,9.9,2.9c0.7,0.2,1.3,0.2,1.7-0.5c0-0.2,0-0.4-0.1-0.6
				C190.7,64.8,190.3,61,189.8,57.2z"/>
		</g>
		<path class="st7" d="M232.8,49.2c0.7-0.3,1-0.6,1-1.4c0-0.5,0.1-0.5-0.5-0.6c-1.5-0.3-3-0.5-4.5-0.8c-1.3-0.2-2.6-0.4-3.9-0.7
			c-0.2,0-0.4,0-0.4,0.3c0,0.4-0.1,0.7-0.2,1.1c-0.1,0.3,0,0.3,0.3,0.4c1,0.2,2,0.3,3,0.5c0.7,0.1,1.5,0.3,2.3,0.4
			c-0.2,0.1-0.3,0.1-0.4,0.2c-1.9,0.8-3.7,1.7-5.6,2.5c-0.2,0.1-0.3,0.1-0.3,0.4c-0.1,0.4-0.1,0.7-0.2,1.1c0,0.2,0,0.3,0.2,0.3
			c0.8,0.1,1.6,0.3,2.4,0.4c2.1,0.4,4.2,0.7,6.3,1.1c0.2,0,0.4,0,0.4-0.3c0-0.4,0.1-0.8,0.2-1.2c0.1-0.2,0-0.3-0.2-0.3
			c-0.5-0.1-1-0.2-1.6-0.3c-1.3-0.2-2.6-0.4-3.9-0.7c0.1-0.1,0.2-0.1,0.2-0.1C229.3,50.7,231,49.9,232.8,49.2z"/>
		<path class="st7" d="M163.8,70.8c-0.6-0.7-1.3-1.5-1.9-2.3c-0.5-0.6-0.5-0.6-1-0.1c-0.3,0.2-0.7,0.4-0.7,0.7
			c0,0.3,0.4,0.5,0.6,0.8c0.2,0.3,0.7,0.6,0.6,0.8c0,0.3-0.5,0.5-0.8,0.8c-0.1,0.1-0.3,0.1-0.4,0.1c-1-0.4-1.7-1-2-2
			c-0.3-1.2,0.2-2.2,1.1-3c0.9-0.7,1.9-1,3-0.6c1.1,0.4,1.5,1.3,1.7,2.3c0.1,0.3-0.1,0.7,0.1,0.8c0.2,0.1,0.5,0,0.8,0c0,0,0,0,0,0
			c0.2,0,0.5,0,0.7,0c0.2,0,0.3,0,0.3-0.3c0-0.3,0-0.7-0.1-1c-0.7-3.6-4.7-5.1-7.6-2.9c-2,1.5-2.6,3.9-1.5,5.9
			c0.8,1.5,2.1,2.4,3.8,2.8c0.2,0,0.4,0,0.6-0.1c0.9-0.7,1.7-1.5,2.6-2.2C163.9,71.1,164,71,163.8,70.8z"/>
		<path class="st7" d="M196.9,76.8c-1,0.1-2,0.5-2.9,0.8c-0.4,0.1-0.4,0.3-0.4,0.7c0.5,2.6,1,5.2,1.5,7.9c0.1,0.3,0.2,0.4,0.5,0.4
			c0.7,0,1.4-0.1,2.1-0.1c2.5-0.3,4.1-2,4.1-4.5c0-1-0.2-1.9-0.6-2.7C200.3,77.4,198.8,76.6,196.9,76.8z M199.7,82.9
			c-0.4,1.4-1.4,1.7-2.6,1.7c-0.2,0-0.2-0.1-0.2-0.2c-0.4-1.8-0.7-3.6-1.1-5.4c0-0.2,0.1-0.2,0.2-0.3c0.4-0.2,0.8-0.3,1.5-0.3
			c0.5,0,1.1,0.3,1.5,0.9C199.8,80.4,200.1,81.6,199.7,82.9z"/>
		<path class="st7" d="M224,66.2c0.9,0.2,1.9,0.3,2.8,0.5c0.2,0.1,0.2-0.1,0.3-0.2c0.3-0.4,0.6-0.9,0.9-1.3c0.2-0.3,0.1-0.3-0.2-0.4
			c-0.9-0.1-1.9-0.3-2.8-0.3c-0.6,0-0.9-0.2-1.1-0.9c-0.5-2.3-3.4-3-5.1-1.4c-0.8,0.8-1.2,1.7-1.6,2.8c-0.1,0.2,0,0.3,0.2,0.4
			c2.3,1.6,4.7,3.2,7,4.8c0.2,0.1,0.3,0.1,0.4-0.1c0.2-0.4,0.5-0.8,0.8-1.1c0.2-0.3,0.1-0.4-0.1-0.5c-0.7-0.5-1.4-1-2.1-1.5
			c-0.1-0.1-0.2-0.1-0.2-0.3C223.2,66.3,223.5,66.1,224,66.2z M222,65.2c-0.4,0.6-0.4,0.6-1,0.2c-0.4-0.3-0.9-0.6-1.3-0.9
			c-0.1-0.1-0.2-0.1-0.2-0.2c0.1-0.6,0.8-1.2,1.4-1.1c0.5,0,0.9,0.3,1.1,0.7C222.3,64.4,222.3,64.8,222,65.2z"/>
		<path class="st7" d="M229.1,58.2c0.1-0.2,0.2-0.3,0.4-0.3c0.4,0,0.9,0,1.3,0.1c0.7,0,0.7,0,1-0.6c0.1-0.2,0.2-0.5,0.3-0.7
			c0.2-0.3,0.1-0.4-0.3-0.4c-0.6,0-1.3,0-1.9-0.1c-2.4-0.1-4.7-0.2-7.1-0.2c-0.8-0.1-0.8-0.1-1,0.6c-0.1,0.2-0.1,0.4-0.2,0.5
			c-0.1,0.2-0.1,0.3,0.1,0.4c0.4,0.3,0.7,0.7,1.1,1.1c1.9,1.8,3.9,3.7,5.8,5.5c0.2,0.2,0.3,0.2,0.4-0.1c0.1-0.4,0.3-0.8,0.5-1.2
			c0.1-0.2,0.1-0.3-0.1-0.4c-0.4-0.4-0.9-0.8-1.3-1.2c-0.1-0.1-0.2-0.2-0.1-0.4C228.4,59.9,228.8,59,229.1,58.2z M227.2,58
			c-0.2,0.5-0.4,1-0.7,1.6c-0.7-0.7-1.4-1.3-2-1.9c0.9,0,1.7,0,2.6,0C227.3,57.7,227.2,57.9,227.2,58z"/>
		<path class="st7" d="M204.6,76.4c0.4-0.2,0.9-0.4,1.3-0.6c0.4-0.2,1.1-0.3,1.2-0.6c0.1-0.4-0.3-0.8-0.5-1.3c0,0,0,0,0,0
			c-0.1-0.2-0.1-0.2-0.3-0.1c-1.4,0.6-2.8,1.2-4.3,1.8c-0.2,0.1-0.2,0.1-0.1,0.3c1.2,2.7,2.3,5.3,3.5,8c0.1,0.2,0.1,0.2,0.3,0.1
			c1.4-0.6,2.8-1.2,4.3-1.9c0.1,0,0.2,0,0.2-0.2c-0.2-0.4-0.4-0.8-0.5-1.2c-0.1-0.3-0.2-0.2-0.4-0.1c-0.8,0.3-1.5,0.7-2.3,1
			c-0.2,0.1-0.3,0.1-0.4-0.1c-0.2-0.5-0.4-1-0.6-1.4c-0.1-0.2,0-0.3,0.2-0.4c0.6-0.3,1.3-0.6,1.9-0.8c0.2-0.1,0.3-0.1,0.2-0.4
			c-0.2-0.3-0.3-0.7-0.4-1c-0.1-0.2-0.2-0.2-0.4-0.2c-0.6,0.3-1.3,0.6-1.9,0.8c-0.2,0.1-0.3,0.1-0.4-0.1c-0.2-0.4-0.4-0.9-0.6-1.3
			C204.3,76.5,204.4,76.4,204.6,76.4z"/>
		<path class="st7" d="M227.6,31c-0.3,0.1-0.6,0.2-0.9,0.3c-0.3,0.1-0.3,0.2-0.2,0.4c0.2,0.7,0.4,1.3,0.6,2c0,0.2,0.1,0.3-0.1,0.3
			c-0.5,0.1-1,0.3-1.4,0.4c-0.2,0-0.3,0-0.3-0.2c-0.1-0.5-0.2-0.9-0.4-1.4c-0.1-0.4-0.1-1.1-0.4-1.2c-0.3-0.1-0.9,0.2-1.3,0.3
			c-0.3,0.1-0.3,0.2-0.2,0.4c0.4,1.4,0.8,2.9,1.2,4.3c0.1,0.2,0.1,0.3,0.4,0.2c1.3-0.4,2.6-0.7,3.9-1.1c1.4-0.4,2.9-0.8,4.3-1.2
			c0.1,0,0.3,0,0.3-0.2c-0.4-1.5-0.8-3-1.2-4.6c0-0.1,0-0.2-0.2-0.2c-0.3,0.1-0.7,0.2-1.1,0.3c-0.4,0.1-0.4,0.2-0.3,0.5
			c0.2,0.8,0.4,1.6,0.7,2.3c0.1,0.2,0,0.3-0.2,0.3c-0.5,0.1-1.1,0.3-1.6,0.4c-0.2,0.1-0.3,0-0.3-0.2c-0.2-0.7-0.4-1.3-0.5-2
			C227.9,31,227.9,30.9,227.6,31z"/>
		<path class="st7" d="M178.1,77.4c0.1-0.2,0.2-0.3,0.4-0.2c0.8,0.3,1.5,0.6,2.3,0.8c0.1,0,0.2,0.2,0.3,0c0.2-0.5,0.3-0.9,0.5-1.4
			c0-0.2-0.1-0.2-0.2-0.2c-1.4-0.5-2.9-1-4.3-1.5c-0.2-0.1-0.3,0-0.3,0.2c-1,2.7-1.9,5.4-2.9,8.1c-0.1,0.2-0.1,0.3,0.2,0.4
			c1.4,0.5,2.9,1,4.3,1.5c0.2,0.1,0.3,0,0.3-0.2c0.1-0.4,0.2-0.7,0.4-1.1c0.1-0.2,0.1-0.3-0.2-0.4c-0.8-0.3-1.6-0.6-2.4-0.8
			c-0.2-0.1-0.3-0.1-0.2-0.4c0.2-0.5,0.4-1,0.5-1.5c0.1-0.2,0.1-0.3,0.4-0.2c0.6,0.2,1.3,0.4,1.9,0.7c0.3,0.1,0.4,0,0.4-0.2
			c0.1-0.3,0.2-0.6,0.3-0.9c0.1-0.3,0.1-0.4-0.2-0.5c-0.7-0.2-1.3-0.4-1.9-0.7c-0.2-0.1-0.3-0.1-0.2-0.3
			C177.8,78.3,178,77.8,178.1,77.4z"/>
		<path class="st7" d="M231.8,38.2c-0.2,0.1-0.3,0.2-0.1,0.5c0.6,1.1,0.6,2.3-0.2,3.3c-0.8,1.1-1.9,1.4-3.2,1.2
			c-1.9-0.4-2.9-2.4-2.1-4.3c0.1-0.2,0.1-0.3-0.1-0.4c-0.3-0.1-0.6-0.3-0.9-0.5c-0.2-0.1-0.3-0.1-0.4,0.1c-0.3,0.7-0.5,1.4-0.5,2.1
			c-0.1,3,2.6,5.5,5.6,4.9c3.5-0.6,5.1-4.7,3.3-7.5c-0.1-0.2-0.2-0.3-0.4-0.1C232.4,37.8,232.1,38,231.8,38.2z"/>
		<path class="st7" d="M185.8,81.4c-0.5-0.4-1-0.8-1.5-1.2c-0.4-0.4-0.6-0.8-0.4-1.1c0.2-0.5,0.6-0.5,1.1-0.5c0.5,0,1,0.2,1.4,0.5
			c0.2,0.1,0.3,0.1,0.4-0.1c0.2-0.3,0.5-0.6,0.7-0.9c0.2-0.2,0.2-0.3-0.1-0.4c-1-0.6-2.1-1-3.3-0.8c-0.9,0.1-1.6,0.6-2,1.5
			c-0.3,0.9-0.3,1.8,0.4,2.5c0.4,0.5,0.8,0.8,1.3,1.1c0.3,0.2,0.6,0.4,0.8,0.6c0.4,0.4,0.5,0.9,0.3,1.4c-0.2,0.5-0.7,0.6-1.2,0.6
			c-0.6,0-1.2-0.2-1.7-0.6c-0.2-0.1-0.3-0.1-0.4,0.1c-0.2,0.3-0.4,0.7-0.7,1c-0.1,0.2-0.1,0.3,0.1,0.4c0.9,0.6,1.9,0.9,3,0.9
			c2.3,0.1,3.2-1.9,2.8-3.3C186.8,82.4,186.3,81.9,185.8,81.4z"/>
		<path class="st7" d="M213.4,70.6c1.7,1.8,3.5,3.6,5.2,5.4c0.2,0.2,0.3,0.2,0.5,0c0.3-0.3,0.6-0.7,1-1c0.2-0.2,0.2-0.3,0-0.4
			c-0.7-0.7-1.4-1.5-2.1-2.2c-0.2-0.2-0.2-0.3,0-0.6c0.5-0.4,1-0.9,1.4-1.4c0.2-0.2,0.2-0.3,0-0.4c-0.3-0.2-0.5-0.5-0.8-0.8
			c-0.2-0.2-0.2-0.1-0.4,0c-0.5,0.5-1,1-1.5,1.5c-0.2,0.2-0.3,0.2-0.4,0c-0.4-0.4-0.9-0.8-1.2-1c0.7-0.8,1.3-1.5,2-2.1
			c0.2-0.2,0.2-0.3,0-0.4c-0.3-0.3-0.5-0.5-0.8-0.8c-0.1-0.1-0.2-0.2-0.4,0c-1.1,1.1-2.2,2.1-3.3,3.2c-0.1,0.1-0.1,0.2,0,0.3
			C212.9,70,213.1,70.3,213.4,70.6z"/>
		<path class="st7" d="M175.3,75.8c0.2-0.4,0.4-0.7,0.6-1c0.1-0.2,0.1-0.3-0.1-0.4c-1.7-1-3.4-2-5.1-3c-0.2-0.1-0.2-0.1-0.3,0.1
			c-0.2,0.4-0.4,0.7-0.6,1c-0.1,0.2-0.1,0.3,0.1,0.4c0.5,0.3,1,0.5,1.4,0.8c0.1,0,0.2,0.1,0.2,0.2c0,0.1-0.1,0.2-0.1,0.2
			c-1.1,1.9-2.3,3.9-3.4,5.8c-0.2,0.3-0.1,0.4,0.1,0.5c0.3,0.2,0.7,0.4,1,0.6c0.3,0.2,0.4,0.2,0.6-0.2c1.1-1.9,2.2-3.8,3.3-5.7
			c0.2-0.3,0.3-0.4,0.7-0.2c0.4,0.3,0.9,0.5,1.3,0.8C175.1,76,175.2,76,175.3,75.8z"/>
		<path class="st7" d="M169.6,70.4c-0.4-0.3-0.8-0.6-1.2-0.9c-0.2-0.1-0.2-0.1-0.4,0c-1.8,2.2-3.6,4.5-5.5,6.7
			c-0.2,0.2-0.1,0.3,0.1,0.4c0.4,0.3,0.8,0.6,1.1,0.9c0.1,0,0.1,0.1,0.2,0.1c0.1,0,0.2-0.1,0.2-0.2c1.8-2.2,3.6-4.5,5.5-6.7
			C169.7,70.6,169.7,70.5,169.6,70.4z"/>
		<path class="st7" d="M170.7,67.4c-0.5-0.1-1-0.1-1.4-0.2c-0.7-0.1-0.7-0.1-0.8,0.6c0,0.6,0,0.6,0.6,0.6c0.1,0,0.2,0.1,0.3,0
			c0.6-0.1,0.9,0.3,1.1,0.8c0.3,1,0.4,1,1.3,0.6c0.2-0.1,0.2-0.1,0.1-0.3c-0.3-0.6-0.5-1.2-0.7-1.9
			C171.1,67.5,170.9,67.4,170.7,67.4z"/>
		<path class="st7" d="M192.1,36.4c1.4-0.2,2.4-1,2.9-2.4c0.5-1.4,0.2-2.8-0.8-3.8c-1.3-1.4-3-2.2-4.9-2.4c-1.4-0.2-2.3,0.5-2.5,1.8
			c0,0.2,0,0.5-0.1,0.8c0.1,1.7,0.7,3.3,1.8,4.7C189.4,36.1,190.6,36.6,192.1,36.4z"/>
		<path class="st7" d="M218,30.2c0.2-0.4,0.3-0.8,0.5-1.2c0.4-1,0-1.9-1-2.4c-8.6-3.7-17.2-7.3-25.8-11c-1.2-0.5-2.4-0.5-3.5,0
			c-2.5,1.1-4.9,2.1-7.4,3.2c-0.4,0.2-0.4,0.2-0.5-0.3c0-1-0.5-1.4-1.4-1.4c-1,0-2,0-3,0c-1,0-1.4,0.4-1.4,1.4c0,0.9,0,1.7,0,2.6
			c0,0.3-0.1,0.5-0.4,0.6c-3.8,1.6-7.6,3.3-11.4,4.9c-1,0.4-1.4,1.4-0.9,2.4c0.2,0.4,0.3,0.7,0.5,1.1c0.5,1.1,1.3,1.4,2.4,0.9
			c8.3-3.6,16.7-7.2,25-10.8c0.3-0.1,0.5-0.1,0.8,0c2.8,1.2,5.6,2.4,8.4,3.6c1.5,0.7,3,1.3,4.6,2v0l0.2,0.1c0.1,0,0.1,0,0.2,0.1
			l2.4,1c0,0,0.1,0,0.1,0c3.1,1.4,6.2,2.7,9.3,4C216.7,31.6,217.6,31.2,218,30.2z"/>
		<path class="st7" d="M195.4,58.6c0-2.5,0-4.9-0.1-7.4c0-1.6,0.1-3.2,0.5-4.8c0.3-1.1,0.8-2.1,1.5-3c2.7-3.2,4.9-6.7,6.6-10.5
			c0-0.1,0.1-0.2,0.1-0.2c0-0.1,0.1-0.3,0.1-0.4c0.7-1.6,1.3-3.2,1.7-4.9c0.1-0.3,0.2-0.4,0.4-0.3l-2.3-1c0,0,0,0.1,0,0.2
			c-0.8,1.9-1.7,3.7-2.8,5.3c-1.6,2.5-3.6,4.5-6.3,5.9c-1.2,0.6-2.5,0.6-3.8,0.5c-2.8-0.2-4.8-1.8-6.5-3.8c-0.6-0.8-1.3-1.5-1.8-2.3
			c-0.1-0.1-0.1-0.1-0.2-0.2c-0.8-1.1-1.5-2.1-2.5-3.1c-0.3-0.3-0.7-0.6-1.1-0.8c-0.6-0.3-1.1,0-1.1,0.7c0,0.3,0,0.5,0.1,0.8
			c0.1,0.8,0.6,1.5,0.9,2.2c1,2,2,4,3.3,5.8c0.8,1.1,1.5,2.3,2.2,3.5c1.3,2.5,1.4,5,0.7,7.7c-0.7,2.9-1.9,5.6-3.1,8.3
			c-1.4,3.1-2.8,6.2-4.3,9.2c0,0-0.1,0.1-0.1,0.1c-0.1,0.2-0.1,0.3-0.2,0.5c-0.2,0.5-0.3,0.9-0.3,1.4c0,0.5,0.2,0.6,0.7,0.5
			c0.3-0.1,0.6-0.3,0.9-0.6c0.4-0.4,0.7-0.8,1.1-1.2c2.7-3.4,4.8-7.2,7.2-10.8c0.3-0.5,0.7-1,1.1-1.5c0.5-0.6,1-0.6,1.4,0.2
			c0.3,0.8,0.4,1.7,0.5,2.6c0.5,3.8,0.9,7.6,1.4,11.4c0,0.2,0,0.4,0.1,0.6c0.2,1.6,0.4,3.2,0.6,4.8c0.1,0.7,0.2,1.4,0.6,2
			c0.2,0.4,0.5,0.4,0.9,0.1c0.2-0.2,0.3-0.5,0.4-0.8c0.4-1,0.6-2.1,0.8-3.2c0.3-2.1,0.5-4.2,0.7-6.3c0.1-1.5,0.1-3,0.2-4.4
			C195.4,60.4,195.4,59.5,195.4,58.6z"/>
	</g>
</g>
</svg>
