<svg xmlns="http://www.w3.org/2000/svg" width="20.212" height="19.158" viewBox="0 0 20.212 19.158"><defs><style>.a{fill:#fff;}</style></defs><g transform="translate(809 -144)"><path class="a" d="M2.224,18.976a.844.844,0,0,1,.506-1.609,2.123,2.123,0,0,0,1.4.006.842.842,0,0,1,.574,1.583,3.281,3.281,0,0,1-1.124.2A4.491,4.491,0,0,1,2.224,18.976Zm4.246-2.4a.845.845,0,0,1-.236-1.168c.127-.191.226-.354.292-.469V12.271l3.2,1.215L8.209,15.153a.846.846,0,0,1-.091.389,9.007,9.007,0,0,1-.48.8.846.846,0,0,1-1.168.238Zm-5.6-.367a.846.846,0,0,1-.842-.788Q0,15,0,14.526a.843.843,0,0,1,1.686,0c0,.28.009.542.024.789a.846.846,0,0,1-.786.9Zm14.487-1.936L7.618,11.334,16.982,3.3,5.632,10.577.406,8.592a.633.633,0,0,1,0-1.181L19.351.043a.633.633,0,0,1,.833.776l-4,13.051a.63.63,0,0,1-.326.383.618.618,0,0,1-.277.064A.7.7,0,0,1,15.354,14.277Z" transform="translate(-809 144)"/></g></svg>