<?xml version="1.0" encoding="utf-8"?>
<!-- Generator: Adobe Illustrator 24.0.0, SVG Export Plug-In . SVG Version: 6.00 Build 0)  -->
<svg version="1.1" id="Calque_1" xmlns="http://www.w3.org/2000/svg" xmlns:xlink="http://www.w3.org/1999/xlink" x="0px" y="0px"
	 viewBox="0 0 147.9 406" style="enable-background:new 0 0 147.9 406;" xml:space="preserve">
<style type="text/css">
	.st0{fill:#FDC629;}
	.st1{fill:#E3A800;}
	.st2{fill:#5D93BC;}
</style>
<g>
	<path class="st0" d="M77.5,11.1C77.8,10.6,78,10,78,9.4V3.2C78,1.4,76.6,0,74.8,0h-1.2c-1.7,0-3.2,1.4-3.2,3.2v6.2
		c0,0.6,0.2,1.2,0.5,1.7H77.5z"/>
	<rect x="61.1" y="92.5" class="st1" width="26.2" height="4.6"/>
	<polygon class="st1" points="61.1,92.5 87.3,92.5 84.2,88.3 64.2,88.3 	"/>
	<rect x="56.5" y="105" class="st1" width="35.3" height="6.4"/>
	<g>
		<rect x="56.5" y="105" class="st0" width="1.6" height="5.7"/>
		<rect x="59.9" y="105" class="st0" width="1.6" height="5.7"/>
		<rect x="63.3" y="105" class="st0" width="1.6" height="5.7"/>
		<rect x="66.7" y="105" class="st0" width="1.6" height="5.7"/>
		<rect x="70" y="105" class="st0" width="1.6" height="5.7"/>
		<rect x="73.4" y="105" class="st0" width="1.6" height="5.7"/>
		<rect x="76.8" y="105" class="st0" width="1.6" height="5.7"/>
		<rect x="80.2" y="105" class="st0" width="1.6" height="5.7"/>
		<rect x="83.5" y="105" class="st0" width="1.6" height="5.7"/>
		<rect x="86.9" y="105" class="st0" width="1.6" height="5.7"/>
		<rect x="90.3" y="105" class="st0" width="1.6" height="5.7"/>
	</g>
	<g>
		<polyline class="st0" points="52.3,271.8 69.7,257.6 68.5,256.1 51.1,270.4 		"/>
		<path class="st0" d="M83.6,272.8v-0.1c-0.4-2.5-7.3-46.2-7.3-157.6h-3.7C72.7,230.3,80,273.3,80,273.5L83.6,272.8L83.6,272.8z"/>
		<path class="st0" d="M68.9,273.4c0-0.1,7.3-43.2,7.4-158.4h-3.7c0,57.5-1.9,97-3.7,122.1c-0.9,12.5-1.8,21.5-2.5,27.3
			c-0.3,2.9-0.6,5-0.8,6.4c-0.1,0.7-0.2,1.2-0.2,1.5c0,0.2,0,0.3-0.1,0.4v0.1L68.9,273.4L68.9,273.4z"/>
		<path class="st0" d="M53,273.5c0-0.2,11.1-43.3,11.1-158.5h-3.7c0,57.5-2.8,96.9-5.5,122c-1.4,12.5-2.7,21.4-3.8,27.2
			c-0.5,2.9-0.9,5-1.2,6.4c-0.1,0.7-0.3,1.2-0.3,1.5c0,0.2-0.1,0.3-0.1,0.4v0.1l0,0L53,273.5L53,273.5z"/>
		<path class="st0" d="M98.9,272.6L98.9,272.6c-0.3-1.2-10.9-44.4-11-157.6h-3.7c0.1,115.2,11.1,158.3,11.1,158.5L98.9,272.6
			L98.9,272.6z"/>
		<polyline class="st0" points="69.1,255.9 54.3,255.9 54.3,257.8 69.1,257.8 		"/>
		<polyline class="st0" points="54.9,257.6 71,243.3 69.7,241.9 53.7,256.2 		"/>
		<polyline class="st0" points="70.3,241.7 56.4,241.7 56.4,243.5 70.3,243.5 		"/>
		<polyline class="st0" points="57,243.3 71.9,229 70.6,227.7 55.8,241.9 		"/>
		<polyline class="st0" points="71.2,227.4 57.7,227.4 57.7,229.3 71.2,229.3 		"/>
		<polyline class="st0" points="58.3,229 72.8,214.8 71.5,213.4 57,227.7 		"/>
		<polyline class="st0" points="72.2,213.2 58.9,213.2 58.9,215 72.2,215 		"/>
		<polyline class="st0" points="59.6,214.7 73.1,200.5 71.7,199.2 58.2,213.5 		"/>
		<polyline class="st0" points="72.4,198.9 60,198.9 60,200.8 72.4,200.8 		"/>
		<polyline class="st0" points="60.7,200.5 74,186.2 72.7,184.9 59.4,199.2 		"/>
		<polyline class="st0" points="73.4,184.7 60,184.7 60,186.5 73.4,186.5 		"/>
		<polyline class="st0" points="61.2,186.2 74.5,172 73.1,170.7 59.9,185 		"/>
		<polyline class="st0" points="73.8,170.4 61.3,170.4 61.3,172.2 73.8,172.2 		"/>
		<polyline class="st0" points="62,171.9 74.8,157.7 73.4,156.5 60.6,170.7 		"/>
		<polyline class="st0" points="74.1,156.1 61.6,156.1 61.6,158 74.1,158 		"/>
		<polyline class="st0" points="62.3,157.7 75,143.4 73.6,142.2 60.9,156.5 		"/>
		<polyline class="st0" points="74.3,141.9 62.1,141.9 62.1,143.7 74.3,143.7 		"/>
		<polyline class="st0" points="62.8,143.4 75,129.2 73.6,128 61.4,142.2 		"/>
		<polyline class="st0" points="74.3,127.6 62.3,127.6 62.3,129.5 74.3,129.5 		"/>
		<polyline class="st0" points="97.7,270.4 80.4,256.1 79.2,257.6 96.6,271.8 		"/>
		<polyline class="st0" points="79.8,257.8 94.5,257.8 94.5,255.9 79.8,255.9 		"/>
		<polyline class="st0" points="95.1,256.2 79.1,241.9 77.9,243.3 93.9,257.6 		"/>
		<polyline class="st0" points="78.5,243.5 92.5,243.5 92.5,241.7 78.5,241.7 		"/>
		<polyline class="st0" points="92.6,242 78.3,227.7 77,229 91.3,243.3 		"/>
		<polyline class="st0" points="77.6,229.3 91.2,229.3 91.2,227.4 77.6,227.4 		"/>
		<polyline class="st0" points="91.8,227.7 77.3,213.4 76,214.8 90.5,229 		"/>
		<polyline class="st0" points="76.7,215 90,215 90,213.2 76.7,213.2 		"/>
		<polyline class="st0" points="90.6,213.5 77.1,199.2 75.8,200.5 89.3,214.7 		"/>
		<polyline class="st0" points="76.5,200.8 88.8,200.8 88.8,198.9 76.5,198.9 		"/>
		<polyline class="st0" points="89.5,199.2 76.2,184.9 74.8,186.2 88.1,200.5 		"/>
		<polyline class="st0" points="75.5,186.5 88.8,186.5 88.8,184.7 75.5,184.7 		"/>
		<polyline class="st0" points="89,185 75.8,170.7 74.4,172 87.6,186.2 		"/>
		<polyline class="st0" points="75.1,172.2 87.6,172.2 87.6,170.4 75.1,170.4 		"/>
		<polyline class="st0" points="88.2,170.7 75.5,156.5 74.1,157.7 86.9,171.9 		"/>
		<polyline class="st0" points="74.8,158 87.3,158 87.3,156.1 74.8,156.1 		"/>
		<polyline class="st0" points="88,156.5 75.3,142.2 73.9,143.4 86.6,157.7 		"/>
		<polyline class="st0" points="74.6,143.7 86.8,143.7 86.8,141.9 74.6,141.9 		"/>
		<polyline class="st0" points="87.5,142.2 75.3,128 73.9,129.2 86.1,143.4 		"/>
		<polyline class="st0" points="74.6,129.5 86.6,129.5 86.6,127.6 74.6,127.6 		"/>
		<polyline class="st0" points="61.6,129.1 73.6,143.4 75,142.2 63,128 		"/>
		<polyline class="st0" points="61.5,143.4 73.5,157.7 74.9,156.5 62.9,142.2 		"/>
		<polyline class="st0" points="61.4,157.7 73.3,171.9 74.8,170.7 62.8,156.5 		"/>
		<polyline class="st0" points="60.6,171.9 72.7,186.2 74.1,185 62,170.7 		"/>
		<polyline class="st0" points="59.9,186.2 71.7,200.4 73.1,199.2 61.3,185 		"/>
		<polyline class="st0" points="59.3,200.4 71.5,214.7 72.9,213.5 60.7,199.2 		"/>
		<polyline class="st0" points="58.2,214.7 70.5,229 71.9,227.7 59.6,213.5 		"/>
		<polyline class="st0" points="57,229 69.7,243.2 71,242 58.4,227.7 		"/>
		<polyline class="st0" points="55.7,243.2 68.4,257.5 69.8,256.2 57.1,242 		"/>
		<polyline class="st0" points="97.6,270.4 80.2,256.1 79,257.6 96.4,271.8 		"/>
		<polyline class="st0" points="85.7,128 73.7,142.2 75.1,143.4 87.1,129.1 		"/>
		<polyline class="st0" points="85.8,142.2 73.8,156.5 75.2,157.7 87.2,143.4 		"/>
		<polyline class="st0" points="85.9,156.5 73.9,170.7 75.4,171.9 87.3,157.7 		"/>
		<polyline class="st0" points="86.7,170.7 74.6,185 76,186.2 88.1,171.9 		"/>
		<polyline class="st0" points="87.4,185 75.6,199.2 77,200.4 88.8,186.2 		"/>
		<polyline class="st0" points="88,199.2 75.8,213.5 77.2,214.7 89.4,200.4 		"/>
		<polyline class="st0" points="89.1,213.5 76.8,227.7 78.2,229 90.5,214.7 		"/>
		<polyline class="st0" points="90.3,227.7 77.7,242 79,243.2 91.7,229 		"/>
		<polyline class="st0" points="91.6,242 78.9,256.2 80.3,257.5 93,243.2 		"/>
		<polyline class="st0" points="53.6,257.5 66.7,271.7 68.1,270.5 55,256.2 		"/>
	</g>
	<polyline class="st0" points="50.7,323 42.4,307.2 40.1,308.4 48.3,324.3 	"/>
	<polyline class="st0" points="51.6,306.9 35.6,322 37.5,323.9 53.4,308.8 	"/>
	<polyline class="st2" points="49.5,274.5 56.2,289.3 58.6,288.2 51.9,273.4 	"/>
	<polyline class="st2" points="59.3,273.1 45.2,289.7 47.2,291.4 61.3,274.8 	"/>
	<polyline class="st0" points="42.9,308.7 58.1,291.4 56.1,289.7 40.9,306.9 	"/>
	<polyline class="st0" points="44.8,292 52.6,308.4 55,307.2 47.2,290.9 	"/>
	<polyline class="st0" points="101.9,324.3 110.1,308.4 107.8,307.2 99.5,323 	"/>
	<polyline class="st0" points="96.8,308.8 112.7,323.9 114.6,322 98.6,306.9 	"/>
	<polyline class="st2" points="98.3,273.4 91.6,288.2 94,289.3 100.7,274.5 	"/>
	<polyline class="st2" points="88.9,274.8 103,291.4 105,289.7 90.9,273.1 	"/>
	<polyline class="st0" points="109.3,306.9 94.1,289.7 92.1,291.4 107.3,308.7 	"/>
	<polyline class="st0" points="103,290.9 95.2,307.2 97.6,308.4 105.4,292 	"/>
	<polyline class="st0" points="102.5,341.2 45.6,341.2 45.6,346.5 102.5,346.5 	"/>
	<g>
		<path class="st0" d="M59.1,287.6c0,0-0.3,1.8-0.8,4.9c-0.3,1.6-0.6,3.5-0.9,5.6c-0.4,2.2-0.7,4.6-1.2,7.3c-0.5,2.7-1,5.6-1.6,8.6
			c-0.5,3.1-1.2,6.3-1.9,9.6c-0.7,3.3-1.3,6.8-2.1,10.3c-0.8,3.5-1.6,7-2.4,10.5s-1.8,7-2.6,10.5c-0.9,3.5-1.7,6.9-2.7,10.1
			c-1,3.3-1.9,6.4-2.8,9.4c-1,3-1.9,5.8-2.8,8.4s-1.6,5-2.5,7c-0.8,2.1-1.5,3.9-2.1,5.4c-1.2,3-1.8,4.7-1.8,4.7l-4.8-2.1
			c0,0,0.7-1.6,1.9-4.5c0.6-1.4,1.4-3.2,2.2-5.2c0.9-2,1.7-4.3,2.6-6.8s2-5.2,3-8.2c1-2.9,2-6,3-9.2c1.1-3.2,2-6.5,3-10
			c1-3.4,2-6.8,2.9-10.3s1.8-7,2.7-10.4c0.9-3.4,1.6-6.9,2.4-10.1c0.8-3.3,1.5-6.5,2.1-9.5s1.2-5.9,1.8-8.5c0.6-2.6,1-5.1,1.4-7.2
			c0.4-2.2,0.8-4,1.1-5.6c0.6-3.1,0.9-4.9,0.9-4.9L59.1,287.6z"/>
		<path class="st0" d="M46.8,288c0,0-0.4,1.8-1.2,4.9c-0.4,1.6-0.8,3.5-1.3,5.6c-0.5,2.2-1.1,4.6-1.8,7.3c-0.7,2.7-1.4,5.6-2.2,8.6
			c-0.8,3.1-1.7,6.3-2.6,9.6c-0.9,3.3-1.8,6.8-2.9,10.2c-1,3.5-2.1,7-3.2,10.5c-1,3.5-2.3,7-3.4,10.5c-1.1,3.4-2.2,6.8-3.4,10.1
			c-1.2,3.3-2.3,6.4-3.4,9.4c-1.2,2.9-2.3,5.7-3.3,8.3c-1.1,2.6-1.9,4.9-2.9,7c-0.9,2.1-1.7,3.8-2.4,5.3c-1.3,3-2.1,4.6-2.1,4.6
			L6,397.5c0,0,0.8-1.6,2.2-4.5c0.7-1.4,1.5-3.2,2.5-5.2s2-4.3,3.1-6.8s2.3-5.2,3.5-8.1c1.1-2.9,2.4-6,3.6-9.2
			c1.3-3.2,2.5-6.5,3.7-9.9s2.5-6.8,3.6-10.3s2.3-7,3.4-10.4s2.1-6.8,3.1-10.1c1-3.3,2-6.5,2.8-9.5c0.9-3,1.7-5.9,2.4-8.5
			c0.8-2.6,1.4-5.1,2-7.2c0.6-2.2,1.1-4,1.5-5.6c0.8-3.1,1.3-4.9,1.3-4.9L46.8,288z"/>
		<path class="st0" d="M93.9,286.6c0,0,0.3,1.8,0.9,4.9c0.3,1.5,0.7,3.4,1.1,5.6c0.4,2.2,0.9,4.6,1.4,7.2s1.1,5.5,1.7,8.5
			c0.6,3,1.3,6.2,2,9.5s1.5,6.7,2.2,10.2c0.8,3.4,1.7,6.9,2.5,10.4s1.7,7,2.6,10.4c0.9,3.4,1.7,6.8,2.7,10c0.9,3.2,1.8,6.4,2.7,9.3
			c0.9,3,1.8,5.7,2.6,8.3c0.8,2.6,1.5,4.9,2.3,7c0.7,2,1.4,3.8,1.9,5.3c1.1,2.9,1.7,4.6,1.7,4.6l-5,1.8c0,0-0.6-1.7-1.6-4.7
			c-0.5-1.5-1.1-3.3-1.8-5.4s-1.3-4.5-2.1-7.1c-0.7-2.6-1.6-5.4-2.4-8.4c-0.8-3-1.6-6.2-2.4-9.5c-0.9-3.3-1.6-6.7-2.4-10.2
			c-0.8-3.5-1.6-7-2.4-10.5c-0.7-3.5-1.5-7.1-2.2-10.6s-1.3-6.9-2-10.3c-0.6-3.3-1.3-6.5-1.8-9.6s-1-5.9-1.5-8.6s-0.9-5.1-1.2-7.3
			c-0.4-2.2-0.7-4.1-0.9-5.6c-0.5-3.1-0.8-4.9-0.8-4.9L93.9,286.6z"/>
		<path class="st0" d="M104.1,285c0,0,0.5,1.8,1.3,5c0.4,1.6,0.9,3.5,1.5,5.7s1.2,4.7,2,7.4c0.8,2.7,1.6,5.6,2.4,8.7
			c0.8,3.1,1.8,6.3,2.8,9.7c1,3.3,2,6.8,3.1,10.3s2.2,7,3.4,10.6c1.1,3.6,2.4,7.1,3.5,10.5c1.2,3.5,2.3,6.9,3.6,10.1
			c1.2,3.3,2.4,6.4,3.5,9.4c1.2,3,2.3,5.7,3.4,8.3c1.1,2.6,2,5,3,7c0.9,2,1.8,3.8,2.4,5.3c1.4,2.9,2.1,4.6,2.1,4.6l-4.8,2.3
			c0,0-0.7-1.7-2-4.8c-0.6-1.5-1.4-3.4-2.3-5.5c-1-2.1-1.8-4.5-2.8-7.2c-1-2.6-2.1-5.5-3.2-8.5c-1.1-3-2.2-6.3-3.3-9.6
			c-1.2-3.3-2.2-6.8-3.3-10.3s-2.3-7.1-3.3-10.7s-2.1-7.2-3.1-10.7c-1-3.6-1.9-7.1-2.8-10.4c-0.9-3.4-1.8-6.7-2.6-9.8
			c-0.8-3.1-1.5-6.1-2.2-8.8c-0.7-2.7-1.3-5.2-1.8-7.4c-0.5-2.2-1-4.1-1.4-5.7c-0.8-3.2-1.2-5-1.2-5L104.1,285z"/>
		<polyline class="st0" points="108.6,358.2 40.9,358.1 40.9,363.4 108.6,363.5 		"/>
		<path class="st0" d="M37.8,378.5L37.8,378.5c0.1-0.1,4-3.5,10.4-6.9s15.5-6.7,26-6.7c5.4,0,11.1,0.8,17.2,3
			c6.1,2.1,12.5,5.5,19.1,10.7l3.3-4.2c-7-5.5-13.9-9.2-20.6-11.6c-6.6-2.3-13-3.3-18.9-3.3c-11.8,0-21.8,3.7-28.8,7.4
			c-7,3.7-11.1,7.4-11.2,7.5L37.8,378.5z"/>
		<polyline class="st0" points="75.8,360.7 75.8,343.8 72.4,343.8 72.4,360.7 		"/>
		<polyline class="st0" points="45.1,344.8 57.8,361.7 60.5,359.7 47.8,342.8 		"/>
		<polyline class="st0" points="72.8,342.7 57.9,359.6 60.5,361.8 75.4,344.9 		"/>
		<polyline class="st0" points="57.4,343.8 57.4,360.7 60.9,360.7 60.9,343.8 		"/>
		<polyline class="st0" points="72.7,344.9 86.3,361.8 89,359.6 75.4,342.7 		"/>
		<polyline class="st0" points="102.8,342.6 86.5,359.5 88.9,361.9 105.3,345 		"/>
		<polyline class="st0" points="86,343.8 86,360.7 89.4,360.7 89.4,343.8 		"/>
		<polyline class="st0" points="124.6,359 108,359 108,362.4 124.6,362.4 		"/>
		<polyline class="st0" points="130.4,374.9 112.5,374.9 112.5,378.3 130.4,378.3 		"/>
		<polyline class="st0" points="137.1,391.1 118,391.1 118,394.6 137.1,394.6 		"/>
		<polyline class="st0" points="24.5,362.4 45.4,362.4 45.4,359 24.5,359 		"/>
		<polyline class="st0" points="18.3,378.3 37,378.3 37,374.9 18.3,374.9 		"/>
		<path class="st0" d="M11.1,394.6h19.8c0.7,0,1.3-0.4,1.5-1c0.3-0.6,0.2-1.3-0.2-1.8L20.8,377l22-14.7l-1.9-2.9l-23.6,15.7
			c-0.4,0.3-0.7,0.7-0.7,1.2c-0.1,0.5,0,1,0.3,1.3l10.5,13.5H11.1V394.6z"/>
		<polyline class="st0" points="117.7,342.9 106.6,359.8 109.5,361.7 120.6,344.8 		"/>
		<polyline class="st0" points="103,345.1 123.6,362 125.7,359.4 105.1,342.5 		"/>
		<polyline class="st0" points="107.1,362.2 129.4,378 131.4,375.2 109,359.4 		"/>
		<polyline class="st0" points="123.3,359.6 110.8,375.5 113.5,377.7 126,361.8 		"/>
		<polyline class="st0" points="111.2,378 136.2,394.3 138,391.4 113,375.1 		"/>
		<polyline class="st0" points="129,375.5 116.6,391.8 119.4,393.9 131.8,377.6 		"/>
		<polyline class="st0" points="28.7,344.8 40.5,361.8 43.3,359.9 31.5,342.8 		"/>
		<polygon class="st0" points="45.4,342.5 22.1,360.4 34.5,376.1 10.2,391.4 12,394.3 39.5,377 27,361 47.5,345.2 		"/>
	</g>
	<polygon class="st1" points="0,406 33.3,406 33.3,396.5 2.4,396.5 	"/>
	<polygon class="st1" points="147.9,406 114.6,406 114.6,396.5 145.5,396.5 	"/>
	<polyline class="st0" points="43,309.5 97.7,309.5 97.7,306.1 43,306.1 	"/>
	<polyline class="st0" points="46.3,292.3 94.2,292.3 94.2,288.8 46.3,288.8 	"/>
	<polyline class="st0" points="109.4,306.1 97.5,306.1 97.5,309.5 109.4,309.5 	"/>
	<polyline class="st0" points="106.1,288.8 94.2,288.8 94.2,292.3 106.1,292.3 	"/>
	<rect x="34.2" y="271.4" class="st0" width="79.3" height="11.4"/>
	<g>
		<rect x="41.2" y="273.1" class="st1" width="2.8" height="7.8"/>
		<rect x="36.3" y="273.1" class="st1" width="2.8" height="7.8"/>
		<rect x="46.5" y="273.1" class="st1" width="2.8" height="7.8"/>
		<rect x="51.7" y="273.1" class="st1" width="2.8" height="7.8"/>
		<rect x="56.9" y="273.1" class="st1" width="2.8" height="7.8"/>
		<rect x="62.2" y="273.1" class="st1" width="2.8" height="7.8"/>
		<rect x="67.4" y="273.1" class="st1" width="2.8" height="7.8"/>
		<rect x="72.7" y="273.1" class="st1" width="2.8" height="7.8"/>
		<rect x="77.9" y="273.1" class="st1" width="2.8" height="7.8"/>
		<rect x="83.2" y="273.1" class="st1" width="2.8" height="7.8"/>
		<rect x="88.4" y="273.1" class="st1" width="2.8" height="7.8"/>
		<rect x="93.7" y="273.1" class="st1" width="2.8" height="7.8"/>
		<rect x="98.9" y="273.1" class="st1" width="2.8" height="7.8"/>
		<rect x="104.1" y="273.1" class="st1" width="2.8" height="7.8"/>
		<rect x="108.9" y="273.2" class="st1" width="2.8" height="7.8"/>
	</g>
	<rect x="33.4" y="269.9" class="st1" width="81.3" height="2.9"/>
	<polygon class="st1" points="106.1,289.9 43,289.9 34.2,282.7 113.5,282.7 	"/>
	<polyline class="st0" points="56.1,292.6 70.9,309 73.4,306.7 58.6,290.3 	"/>
	<polyline class="st0" points="73.3,290.2 54.9,306.5 57.2,309.1 75.5,292.7 	"/>
	<polyline class="st0" points="73.2,292.7 90.7,308.6 93,306.1 75.5,290.2 	"/>
	<polyline class="st0" points="91.5,290.2 74.5,306.1 76.9,308.6 93.8,292.7 	"/>
	<polyline class="st0" points="72.7,291.5 72.7,307.4 76.1,307.4 76.1,291.5 	"/>
	<rect x="24.6" y="323.7" class="st0" width="99.5" height="11.4"/>
	<g>
		<rect x="27.6" y="325.4" class="st1" width="3.9" height="7.8"/>
		<rect x="35.1" y="325.4" class="st1" width="3.9" height="7.8"/>
		<rect x="42.5" y="325.4" class="st1" width="3.9" height="7.8"/>
		<rect x="50" y="325.4" class="st1" width="3.9" height="7.8"/>
		<rect x="57.4" y="325.4" class="st1" width="3.9" height="7.8"/>
		<rect x="64.9" y="325.4" class="st1" width="3.9" height="7.8"/>
		<rect x="72.3" y="325.4" class="st1" width="3.9" height="7.8"/>
		<rect x="79.8" y="325.4" class="st1" width="3.9" height="7.8"/>
		<rect x="87.2" y="325.4" class="st1" width="3.9" height="7.8"/>
		<rect x="94.6" y="325.4" class="st1" width="3.9" height="7.8"/>
		<rect x="102.1" y="325.4" class="st1" width="3.9" height="7.8"/>
		<rect x="109.5" y="325.4" class="st1" width="3.9" height="7.8"/>
		<rect x="117" y="325.4" class="st1" width="3.9" height="7.8"/>
	</g>
	<rect x="23.5" y="322.2" class="st1" width="101.9" height="2.9"/>
	<polygon class="st1" points="121.2,343.8 27.6,343.8 24.8,335 124,335 	"/>
	<polygon class="st1" points="91.9,120.3 56.5,120.3 60.5,128 87.9,128 	"/>
	<rect x="56.5" y="112.8" class="st0" width="35.4" height="7.6"/>
	<g>
		<rect x="57.8" y="113.6" class="st1" width="2.4" height="5.5"/>
		<rect x="62.1" y="113.6" class="st1" width="2.4" height="5.5"/>
		<rect x="66.5" y="113.6" class="st1" width="2.4" height="5.5"/>
		<rect x="70.8" y="113.6" class="st1" width="2.4" height="5.5"/>
		<rect x="75.2" y="113.6" class="st1" width="2.4" height="5.5"/>
		<rect x="79.5" y="113.6" class="st1" width="2.4" height="5.5"/>
		<rect x="83.8" y="113.6" class="st1" width="2.4" height="5.5"/>
		<rect x="88.2" y="113.6" class="st1" width="2.4" height="5.5"/>
	</g>
	<rect x="54.2" y="110.1" class="st1" width="40" height="2.6"/>
	<rect x="54.9" y="103.7" class="st1" width="38.7" height="2.2"/>
	<rect x="59.9" y="98.8" class="st1" width="28.6" height="6.2"/>
	<rect x="58.1" y="96.4" class="st0" width="32.2" height="3.5"/>
	<rect x="70.4" y="66" class="st1" width="7.6" height="22.3"/>
	<g>
		<rect x="70.4" y="84" class="st0" width="7.5" height="2"/>
		<rect x="70.4" y="79.3" class="st0" width="7.5" height="2"/>
		<rect x="70.4" y="74.5" class="st0" width="7.5" height="2"/>
		<rect x="70.4" y="69.8" class="st0" width="7.5" height="2"/>
		<rect x="70.4" y="65" class="st0" width="7.5" height="2"/>
	</g>
	<rect x="72.4" y="12.6" class="st0" width="3.5" height="52.4"/>
	<rect x="70.4" y="9.7" class="st1" width="7.6" height="2.9"/>
</g>
</svg>
