<svg xmlns="http://www.w3.org/2000/svg" width="13.48" height="18.245" viewBox="0 0 13.48 18.245"><defs><style>.a{fill:#fff;}</style></defs><g transform="translate(-48.08)"><g transform="translate(48.08)"><path class="a" d="M54.82,0a6.747,6.747,0,0,0-6.74,6.74,7.776,7.776,0,0,0,.572,2.595,10.869,10.869,0,0,0,.779,1.457l4.621,7a.879.879,0,0,0,1.536,0l4.622-7a10.824,10.824,0,0,0,.779-1.457A7.774,7.774,0,0,0,61.56,6.74,6.747,6.747,0,0,0,54.82,0Zm5.438,9.027a9.959,9.959,0,0,1-.71,1.328l-4.622,7c-.091.138-.12.138-.211,0l-4.622-7a9.963,9.963,0,0,1-.71-1.329,7.059,7.059,0,0,1-.51-2.287,5.947,5.947,0,0,1,11.894,0A7.064,7.064,0,0,1,60.257,9.027Z" transform="translate(-48.08 0)"/><path class="a" d="M115.648,64.008a3.568,3.568,0,1,0,3.568,3.568A3.572,3.572,0,0,0,115.648,64.008Zm0,6.343a2.775,2.775,0,1,1,2.775-2.775A2.779,2.779,0,0,1,115.648,70.351Z" transform="translate(-108.908 -60.836)"/></g></g></svg>