<svg id="Calque_1" data-name="Calque 1" xmlns="http://www.w3.org/2000/svg" viewBox="0 0 165.59 96.08"><defs><style>.cls-1{fill:#1f2e55;}.cls-2{fill:#37474f;}.cls-3{fill:#465a64;}.cls-4{fill:#f39421;}</style></defs><title>initial-11</title><path class="cls-1" d="M40.85,41.66s2-4.81,2.63-6.75,1.94-5.65.91-5.5S33,40.72,33,40.72Z" transform="translate(0.66)"/><path class="cls-2" d="M41.84,35.17c-.49,1.8-2.12,6.23-2.12,6.23l-6.46-1c1.33-1.42,6.8-7.24,9.57-9.79A22.3,22.3,0,0,1,41.84,35.17Z" transform="translate(0.66)"/><path class="cls-2" d="M100.76,23.68S87.49,10.34,84.41,7.09,80.08.81,75.16.35,69.66-.55,70.53,2s8.69,29.41,8.69,29.41Z" transform="translate(0.66)"/><path class="cls-3" d="M97.1,25S85.13,11.16,82.35,7.8s-4-6.39-8.2-7.09S69.43-.47,70.3,2s8.92,29.33,8.92,29.33Z" transform="translate(0.66)"/><path class="cls-2" d="M38,57.77c25.22-2.11,109.46-26.52,109.46-26.52s20.11-6.32,17.15-13.52c-4.13-10-24.24-6.93-24.24-6.93L81.82,27.66,12.46,48.91s-7,.93-5.49,5.36C8,57.36,21.08,59.19,38,57.77Z" transform="translate(0.66)"/><path class="cls-3" d="M38,57.77C21.74,59.13,9.08,57.5,7.16,54.63c-.6-3.68,5.41-4.47,5.41-4.47l66.3-20.32,56-16.11s19.23-3,23.18,6.63c1.95,4.75-6.59,9.09-12.07,11.33C134.48,35,61.24,55.83,38,57.77Z" transform="translate(0.66)"/><path class="cls-2" d="M103.18,41.86s-17.13,19.78-29,29.94S61.65,84.16,51,89.58s-17.42,7.12-18.14,6.3S68.7,47.77,68.7,47.77Z" transform="translate(0.66)"/><path class="cls-3" d="M96.48,43.69S80.76,61.84,69.91,71.16,58.37,82.5,48.59,87.48c-6.46,3.29-11.36,5.08-14.13,5.7,6.35-9.25,29.59-39.39,33.64-44.62Z" transform="translate(0.66)"/><path class="cls-2" d="M45.94,40.11s-8.73-.86-12.88-2.23S21.3,32,18.15,28.56s-4.44-4.72-8.33-6S.67,19.28-.59,21.88,14.35,50,14.35,50Z" transform="translate(0.66)"/><path class="cls-3" d="M14.35,50S3.2,32.43.12,25a1.93,1.93,0,0,1-.07-1.09c1-2.46,5.74-.32,9.21,1s4.66,2.58,7.54,6,9.74,8,13.45,9.4a52.65,52.65,0,0,0,8.55,2.07Z" transform="translate(0.66)"/><path class="cls-2" d="M31.84,54.29A33.27,33.27,0,0,1,20.61,65.54C14.71,69,8.36,72.6,5.83,72.18S19.17,53.93,19.17,53.93Z" transform="translate(0.66)"/><path class="cls-2" d="M28.58,54.91a29.56,29.56,0,0,1-10,10c-4.93,2.87-10.22,5.9-12.72,6,1.65-3.56,10.33-13.56,12.72-16.28Z" transform="translate(0.66)"/><path class="cls-4" d="M130,24.43a1.14,1.14,0,0,0,1.45.71l1.7-.59a1.15,1.15,0,0,0,.71-1.45l-1-2.86a1.15,1.15,0,0,0-1.46-.7l-1.7.59a1.14,1.14,0,0,0-.7,1.45Z" transform="translate(0.66)"/><path class="cls-4" d="M121.69,26.67a1.14,1.14,0,0,0,1.45.7l1.7-.59a1.14,1.14,0,0,0,.7-1.45l-1-2.86a1.14,1.14,0,0,0-1.45-.7l-1.7.59a1.14,1.14,0,0,0-.7,1.45Z" transform="translate(0.66)"/><path class="cls-4" d="M113.38,28.9a1.16,1.16,0,0,0,1.46.71l1.69-.59a1.15,1.15,0,0,0,.71-1.46l-1-2.85a1.15,1.15,0,0,0-1.46-.71l-1.69.59a1.15,1.15,0,0,0-.71,1.46Z" transform="translate(0.66)"/><path class="cls-4" d="M105.46,31a1.15,1.15,0,0,0,1.46.7l1.69-.58a1.15,1.15,0,0,0,.71-1.46l-1-2.85a1.14,1.14,0,0,0-1.45-.71l-1.7.59a1.15,1.15,0,0,0-.71,1.45Z" transform="translate(0.66)"/><path class="cls-4" d="M96.77,33.36a1.15,1.15,0,0,0,1.46.71l1.7-.59a1.14,1.14,0,0,0,.7-1.45l-1-2.86a1.14,1.14,0,0,0-1.45-.7l-1.7.59a1.14,1.14,0,0,0-.71,1.45Z" transform="translate(0.66)"/><path class="cls-4" d="M161.2,13.61c-5.84,2.28-13.57,5.25-15,5.56-2.42.52-3.49-.25-2.55-2.2s4.81-2.48,8.29-3.68c1.55-.54,3.17-1.23,4.5-1.84A16.5,16.5,0,0,1,161.2,13.61Z" transform="translate(0.66)"/><path class="cls-2" d="M55.21,48.45l3.18-.51-8.18,8-3.2.57Z" transform="translate(0.66)"/><path class="cls-2" d="M47.91,51.1l3.34-.68-6.64,6.52c-1.08.17-2.1.31-3.07.44Z" transform="translate(0.66)"/><path class="cls-2" d="M41,53.51l3.14-.62-4.84,4.76L38,57.77l-1.62.13Z" transform="translate(0.66)"/></svg>