<svg id="Calque_1" data-name="Calque 1" xmlns="http://www.w3.org/2000/svg" xmlns:xlink="http://www.w3.org/1999/xlink" viewBox="0 0 170.01 159.34"><defs><style>.cls-1{fill:#f9f1c3;}.cls-2{fill:#f6eca7;}.cls-3{fill:#fdc934;}.cls-4{fill:#fdc629;}.cls-5{fill:#f1ce33;}.cls-6{fill:#4b7d74;}.cls-7{fill:url(#Dégradé_sans_nom);}.cls-8{fill:#37474f;}.cls-9{fill:#465a64;}.cls-10{fill:#416b64;}.cls-11{fill:#21af97;}.cls-12{fill:#634796;}.cls-13{opacity:0.15;}.cls-14{fill:#46746b;}.cls-15{opacity:0.05;}.cls-16{fill:#63559f;}.cls-17{fill:#00927b;}.cls-18{fill:#58bbad;}.cls-19{fill:#78afa5;}.cls-20{fill:#6fa097;}.cls-21{fill:#50bbbb;}.cls-22{fill:#df6886;}.cls-23{fill:#f8f4de;}.cls-24{fill:#f1eed9;}.cls-25{fill:url(#Dégradé_sans_nom_2);}.cls-26{fill:#e1ddcb;}.cls-27{fill:#efecda;}.cls-28{fill:#e7e3d3;}.cls-29{fill:url(#Dégradé_sans_nom_3);}.cls-30{fill:#d5d2c3;}.cls-31{fill:#538681;}.cls-32{fill:#67afa5;}.cls-33{fill:#66938f;}.cls-34{fill:#74b5ac;}.cls-35,.cls-36,.cls-37{fill:#188dae;}.cls-36{opacity:0.28;}.cls-36,.cls-37{isolation:isolate;}.cls-37{opacity:0.25;}</style><linearGradient id="Dégradé_sans_nom" x1="-708.37" y1="-179.4" x2="-589.1" y2="-179.4" gradientTransform="translate(737.86 279.11)" gradientUnits="userSpaceOnUse"><stop offset="0" stop-color="#2f4d48"/><stop offset="1" stop-color="#44716a"/></linearGradient><linearGradient id="Dégradé_sans_nom_2" x1="109.99" y1="-477.51" x2="109.99" y2="-490.06" gradientTransform="translate(-129.47 468.71) rotate(15.76)" gradientUnits="userSpaceOnUse"><stop offset="0" stop-color="#e1ddcb"/><stop offset="0.99" stop-color="#fffbe7"/></linearGradient><linearGradient id="Dégradé_sans_nom_3" x1="-569.97" y1="-255.46" x2="-569.97" y2="-265.6" gradientTransform="translate(659.6 308.36) rotate(1.47)" gradientUnits="userSpaceOnUse"><stop offset="0" stop-color="#d5d2c3"/><stop offset="0.99" stop-color="#f6f3e2"/></linearGradient></defs><title>initial-9</title><circle class="cls-1" cx="154.61" cy="75.99" r="15.4"/><circle class="cls-2" cx="154.61" cy="75.99" r="12.25"/><circle class="cls-3" cx="154.61" cy="75.99" r="10.65"/><circle class="cls-4" cx="154.61" cy="75.99" r="8.76"/><path class="cls-5" d="M159.67,68.84a8.76,8.76,0,0,1-12.21,12.21,8.76,8.76,0,1,0,12.21-12.21Z"/><circle class="cls-6" cx="81.47" cy="92.75" r="39.97"/><circle class="cls-7" cx="89.12" cy="99.71" r="59.64"/><circle class="cls-8" cx="81.47" cy="92.75" r="46.86"/><circle class="cls-9" cx="81.47" cy="92.75" r="36.99"/><circle class="cls-9" cx="81.47" cy="92.75" r="31.75"/><path class="cls-10" d="M134.53,110.47a22.31,22.31,0,0,0-8.7.42c-1.53.48-3.17,1.58-3.13,3.19,0,.93.64,1.76.7,2.69a3.25,3.25,0,0,1-2.38,3,11.42,11.42,0,0,1-4.09.27,38.75,38.75,0,0,0-13.8,2c-1.87.63-4,1.84-4,3.81a3.32,3.32,0,0,0,1.69,2.68,7.58,7.58,0,0,0,3.16.9,12.61,12.61,0,0,1,3.35.6,3.09,3.09,0,0,1,2,2.49c.07,1.58-1.57,2.74-3.12,3s-3.17-.06-4.74.17-3.22,1.35-3.2,2.93c0,1.8,2.11,2.84,3.91,2.94,2.6.15,5.15-.76,7.74-1s5.61.39,6.89,2.66c.57,1,.84,2.38,1.92,2.82,1.26.52,2.52-.61,3.72-1.24,1.88-1,4-.75,6.21-.49A59.57,59.57,0,0,0,148,109a11.79,11.79,0,0,1-4.77,1.74A36.08,36.08,0,0,1,134.53,110.47Z"/><path class="cls-4" d="M81.55,155.19c-1.1-1.94-4.54-1.71-5.25-3.81-.54-1.58.94-3.08,2.33-4s3-2.08,2.94-3.74-2.11-2.8-3.88-2.93a21.71,21.71,0,0,0-6.33.85,13.81,13.81,0,0,1-6.35.28c-2.07-.53-4-2.2-4.18-4.33-.13-1.53.62-3,.58-4.54-.06-2.47-2.19-4.48-4.53-5.25s-4.88-.61-7.35-.55-5.05,0-7.21-1.19-3.72-3.84-2.89-6.16a14.16,14.16,0,0,1,2.28-3.31c.78-1.1,1.3-2.61.6-3.76-1-1.67-4-1.52-4.64-3.39a2.76,2.76,0,0,1,.92-2.66c1.29-1.26,3.25-1.94,3.53-3.94a2,2,0,0,0-1.44-2.44,20.18,20.18,0,0,0-4-.47l-.91-.14H29.49a59.63,59.63,0,0,0,51.37,59.06C81.72,157.67,82.2,156.35,81.55,155.19Z"/><path class="cls-9" d="M98.22,71.78a9.49,9.49,0,0,0-2.9,2.63,4.56,4.56,0,0,0-.69,3.75c.5,1.6,2.14,3,1.69,4.62C96,84,94.72,84.55,93.58,85l-7.3,2.85a11.63,11.63,0,0,0-3.23,1.66,4,4,0,0,0-1.58,3.15c.12,1.88,2.06,3.19,3.93,3.46s3.76-.21,5.64-.32a6,6,0,0,1,3.29.59,2.81,2.81,0,0,1,1.48,2.8c-.21,1.08-1.18,1.8-2,2.58s-1.44,1.95-.92,2.91,2.15,1,3.33.7c3.28-.83,6.75-2.24,9.91-1.05,2.37.89,4,3.06,6.2,4.31a11.91,11.91,0,0,0,8.61.85A33.5,33.5,0,0,0,129.1,106a15.59,15.59,0,0,0,5.45-4.12c1.36-1.86,1.76-4.62.32-6.41-1.23-1.52-3.35-1.92-5.17-2.63s-3.71-2.36-3.3-4.27c.35-1.57,2-2.39,3.4-3.21a7.39,7.39,0,0,0,2.81-2.68,3.71,3.71,0,0,0,0-3.74c-.94-1.4-2.84-1.7-4.53-1.82s-3.55-.27-4.67-1.53c-.81-.91-1.09-2.13-2-3a13,13,0,0,0-3-1.88,15,15,0,0,0-4.79-1.62A21.61,21.61,0,0,0,98.22,71.78Z"/><path class="cls-11" d="M121.24,120.51c.08.11,0,0,0-.06a.7.7,0,0,0-.36-.19h0a.27.27,0,0,0-.12-.09,1.56,1.56,0,0,1-.28-.16c-.07,0-.17-.08-.24-.14a.46.46,0,0,0-.71.09.88.88,0,0,0,.29,1.12,2.09,2.09,0,0,0,.49.26.59.59,0,0,1,.27.17.53.53,0,0,0,.83-.11.73.73,0,0,0,0-.73Z"/><path class="cls-11" d="M124,122a.48.48,0,0,0-.74-.21l-.08,0a.53.53,0,0,0-.11.82.81.81,0,0,0,.19.29.85.85,0,0,0,1.08.08.59.59,0,0,0,.27-.48.64.64,0,0,0-.16-.39A.5.5,0,0,0,124,122Z"/><path class="cls-11" d="M126.1,125a.61.61,0,0,1-.16-.32.31.31,0,0,0-.34-.22.32.32,0,0,0-.26.31,1.64,1.64,0,0,0,0,.38l0,.16s0,.18,0,.08a.45.45,0,1,0,.67-.39Z"/><path class="cls-11" d="M115.86,118.51a.31.31,0,0,0-.22.22.34.34,0,0,0,.23.41.43.43,0,0,0,.43-.13.37.37,0,0,0,0-.45A.33.33,0,0,0,115.86,118.51Z"/><path class="cls-11" d="M104.9,72.86a7.17,7.17,0,0,1,1,.24l.33.18a1,1,0,0,1,.38.73c.06.53,0,1,.43,1.35s2,.41,2.2-.52a1.29,1.29,0,0,0-.18-.88.24.24,0,0,0,0-.17c-.14-1.25-1.5-1.3-2.3-2a1.93,1.93,0,0,1-.56-1,1.52,1.52,0,0,0-.29-.6,2.18,2.18,0,0,0-1.47-.53c-.83,0-2.24.43-2.34,1.41C102,72.25,104.08,72.69,104.9,72.86Z"/><path class="cls-11" d="M100.28,69.55a.67.67,0,0,0,.38-.15.69.69,0,0,0,.25,0,.53.53,0,0,0,.4-.26.59.59,0,0,0,0-.56.9.9,0,0,0-.8-.5.76.76,0,0,0-.74.59.73.73,0,0,0,0,.44A.59.59,0,0,0,100.28,69.55Z"/><path class="cls-11" d="M100.88,66.18a.32.32,0,0,0,.14,0h.07a.46.46,0,0,0,.43-.57.64.64,0,0,0-.63-.49c-.19,0-.42.18-.39.4s0,.21,0,.32A.37.37,0,0,0,100.88,66.18Z"/><path class="cls-11" d="M102.15,75.73a.78.78,0,0,0,.25-.23.39.39,0,0,0-.61-.47.56.56,0,0,0-.14.2.38.38,0,0,0,.06.44A.36.36,0,0,0,102.15,75.73Z"/><path class="cls-11" d="M104.92,76.83a.42.42,0,0,0,0-.84A.42.42,0,0,0,104.92,76.83Z"/><path class="cls-11" d="M101.87,97.45a.47.47,0,0,0,0,.94A.47.47,0,0,0,101.87,97.45Z"/><path class="cls-11" d="M101.28,100.28a.44.44,0,0,0,.12-.28.43.43,0,0,0-.12-.29.4.4,0,0,0-.39-.1l-.11,0a.37.37,0,0,0-.28.37.39.39,0,0,0,.28.37l.11,0A.4.4,0,0,0,101.28,100.28Z"/><path class="cls-11" d="M101.21,102a.32.32,0,0,0,0,.64A.32.32,0,0,0,101.21,102Z"/><path class="cls-11" d="M148.54,94.57a59.36,59.36,0,0,0-12.83-32.1l-3.1-1a5.84,5.84,0,0,0-2.17-.41,9.63,9.63,0,0,0-3.18-1.44c-1.19-.29-2.22-.29-3.17-1.16a8.57,8.57,0,0,0-2.54-1.84,11.28,11.28,0,0,0-2.92-.68,6.46,6.46,0,0,0-3.21.05,7.72,7.72,0,0,0-1.21.77,4.36,4.36,0,0,1-1.41.48,2.73,2.73,0,0,0-1.68,1.49c-.31.63-.46,1.33-.73,2A2.68,2.68,0,0,1,108,62.35a6,6,0,0,0-4.67,3c-.31.6-.84,1.7-.28,2.3a1.11,1.11,0,0,0,1,.27c.7-.06,1.38-.19,2.09-.2q.45,0,.9,0c.55,0,.47.21.66.63a1.63,1.63,0,0,0,.72.75c.64.35,1.84.22,2.21.93.23.45.18.9.56,1.3a2.42,2.42,0,0,0,1.19.63,7.12,7.12,0,0,0,1.66.09,3.27,3.27,0,0,1,1,.11c.47.15,1.1.75.69,1.31a2.63,2.63,0,0,0-.57.39l0,0a10.93,10.93,0,0,0-2.52,1.4,25.54,25.54,0,0,0-2.47,1.8c-.89.75-1.58,1.66-2.41,2.46a4.39,4.39,0,0,1-2.95,1.26c-1,.07-2.09,0-3.13.15-1.62.27-3.18,1.28-3.14,3.09a2.32,2.32,0,0,0,.7,1.65,2.11,2.11,0,0,0,.88.45c.13,0,.5,0,.59.14.27.28-.12,1-.21,1.28l-.58,1.84a10.58,10.58,0,0,0-.57,1.87c-.07.71.43,1.08,1.06,1.22s1,0,1.17.61a2.14,2.14,0,0,0,.47,1,2.08,2.08,0,0,0,1.63.42,1.82,1.82,0,0,0,.23,1.78,2.33,2.33,0,0,0,.19.88c.33.78,1.15,1.53.8,2.3-.21.45-.74.63-1.18.85s-.89.68-.73,1.15c.23.65,1.27.48,1.75,1s.13,1.36-.33,1.91-1,1.16-.86,1.85a1.5,1.5,0,0,0,1.43,1c.62,0,1.22-.14,1.84-.16a3.91,3.91,0,0,1,3.88,4c0,.67-.19,1.48.34,1.88a1.28,1.28,0,0,0,1.38-.07,8.8,8.8,0,0,1,1.25-.75,1.75,1.75,0,0,1,2,2.68l.45.32a.9.9,0,0,0,.2.9,3.3,3.3,0,0,0,.89.52,1.94,1.94,0,0,1,.73,1.16,2.5,2.5,0,0,0,1.51,1.47c1,.44,1.92.92,2.9,1.32a3.29,3.29,0,0,0,2.15.25l2.49,1c.57.24,1.37.4,1.67-.13l.33.73,3.84.08a5.59,5.59,0,0,0,3.09-.54,1.91,1.91,0,0,0,.67-2.71c-.25-.28-.62-.47-.79-.8-.29-.55.09-1.2.45-1.71l.18-.25a2.08,2.08,0,0,0,1.48-.36.28.28,0,0,0,.4.18,1,1,0,0,0,.48-.6,1.45,1.45,0,0,0,1.28-.37,1.31,1.31,0,0,0,.42-1.09c0-.51-.33-.7.1-1.07a1.71,1.71,0,0,0,.58-.84,3.2,3.2,0,0,1,.09-.62,1.52,1.52,0,0,1,.32-.41,4.11,4.11,0,0,0,1.27-1.22.61.61,0,0,0-.06-.67.72.72,0,0,0,.08-.92,1,1,0,0,0-1.36-.16.76.76,0,0,0-.2.2,1.93,1.93,0,0,1-1.56-.9c-.59-1.09.39-2.33,1.23-3.24a5.09,5.09,0,0,0,1.33-2.13,2.2,2.2,0,0,0-.35-1.82A3,3,0,0,0,143.06,98a2.16,2.16,0,0,0-.14-.66c-.06-.2-.33-.52-.32-.72a1,1,0,0,1,.21-.49l2.8,0a3.26,3.26,0,0,0,1.55-.23,1.16,1.16,0,0,0,.68-1.28A2.34,2.34,0,0,0,148.54,94.57Z"/><path class="cls-8" d="M34.34,103c1.64-1.65,3.11-3.82,5.41-4.2,1.25-.21,2.54.18,3.8.08s2.67-1.08,2.47-2.33c-.14-.87-1-1.43-1.45-2.17-1.08-1.63-.24-4,1.28-5.17a12,12,0,0,1,5.46-2l13.58-2.44A12.65,12.65,0,0,0,69.8,83.2a4.31,4.31,0,0,0,2-4.45c-.46-1.64-2.15-2.67-2.75-4.26-.67-1.82.31-3.91,1.81-5.13a14.1,14.1,0,0,1,5.32-2.26l15.59-4.19A12.42,12.42,0,0,0,96.33,61,4.25,4.25,0,0,0,98,56.65c-.64-2.07-3.09-2.85-5.14-3.53s-4.4-2.16-4.17-4.31c.21-1.92,2.41-3.1,2.79-5a3.94,3.94,0,0,0-1.77-3.74h-.61A59.64,59.64,0,0,0,29.49,99.71c0,1.77.08,3.51.23,5.24A6,6,0,0,0,34.34,103Z"/><path class="cls-12" d="M99.09,121.5c-.52-.17-1.12-.56-1-1.08-.5.36-1.22,0-1.66-.41s-.8-1-1.39-1.2-.82,0-1.27.39a.59.59,0,0,1-.8-.45,1.33,1.33,0,0,1,.31-1,5.34,5.34,0,0,0,.6-.89,1.75,1.75,0,0,0-1.46-2.23c0-.21,0-.42-.07-.64a2.15,2.15,0,0,1-2-.31c-.25-.2-.45-.45-.68-.67a8.1,8.1,0,0,0-1.42-1l-1.34-.82a19.38,19.38,0,0,0-3.63-1.91c.19.32-.26.69-.63.64a8.31,8.31,0,0,1-1-.41,2.34,2.34,0,0,0-1.66.38.86.86,0,0,0-.27-.33,1.28,1.28,0,0,0-1.32,0,1.49,1.49,0,0,0-.89,1.76c-.43.27-.94.57-1.22.51s-.64-.7-1-.84a1.75,1.75,0,0,0-1.4.07l-3.13-.53a1.92,1.92,0,0,1,0-1.87,3.35,3.35,0,0,0,.47-1.87A2.83,2.83,0,0,0,70,105.17l-1.56.15c0-.24,0-.49,0-.74a.44.44,0,0,1-.63-.21,1.35,1.35,0,0,1-.08-.75c.07-.64.13-1.29.19-1.94a1.79,1.79,0,0,0-.08-1,.6.6,0,0,0-.79-.32c0-.19,0-.36,0-.55a1.2,1.2,0,0,0-1.35.19,3.48,3.48,0,0,0-.79,1.2l-.69,1.47-1.51,0a.87.87,0,0,0-.81-1.13,15.08,15.08,0,0,1-1.66-2.12,2.74,2.74,0,0,1-.73-1.33,3,3,0,0,1,.65-1.9,3.27,3.27,0,0,1,1.41-1.44,5.27,5.27,0,0,1,2.27,0c.77,0,1.72-.3,1.79-1.06.1.56.93.63,1.42.34s.91-.77,1.47-.85a1.67,1.67,0,0,1,1.34.55c.36.35.62.78.95,1.16a3.5,3.5,0,0,0,.39.38.27.27,0,0,0,0,.14c.3.45.14,1,.29,1.51a1.22,1.22,0,0,0,.87.9,1,1,0,0,0,1-.4,1.92,1.92,0,0,0,.14-.67,7.31,7.31,0,0,0,.64-.6l1.56-.69c.44-.93,1.19-1.53,1.63-2.47.14-.29.28-.58.41-.87l.34-.72c.23-.49.46-1,.7-1.48.41-.89.83-1.78,1.17-2.7A3.78,3.78,0,0,0,81.35,85c.18-.93-.11-1.87,0-2.79s.77-1.81.73-2.85a16.72,16.72,0,0,0-.75-2.66c-.19-1,.21-2-.1-2.94a2.11,2.11,0,0,0-1.82-1.56c-.51-.08-.74,0-.93-.53a9.77,9.77,0,0,1-.29-1.06,2.77,2.77,0,0,0-1.11-1.73,2.69,2.69,0,0,0-1.48-.3c-.37,0-1.23.18-1.32-.33A.74.74,0,0,0,73,68.08c-.73,1.47-2.47,1-3.49.14a.73.73,0,0,0-1.23.51,2.89,2.89,0,0,1-.69,2c-.57.47-1,0-1.34-.45a24.49,24.49,0,0,1-1.17-3.17,2.5,2.5,0,0,0-2.41-1.45,6.81,6.81,0,0,1-3.72-1.24.62.62,0,0,0-.91.37c.05-.22-.38-.71-.53-.89a1.67,1.67,0,0,0-.79-.55,2,2,0,0,0-2,.73c-.54.62-.65,1.56-1.27,2.1a4.13,4.13,0,0,1-2.25.65,6.57,6.57,0,0,0-2.06.47,8.38,8.38,0,0,0-2,1.49A5.81,5.81,0,0,1,45,69.88a2,2,0,0,0-1.42,1.4c-.22.8.13,1.7-.44,2.4a33.26,33.26,0,0,1-2.38,2.37c-.73.73-1.52,1.44-2.2,2.21A1.62,1.62,0,0,0,38.17,80a2.32,2.32,0,0,0,.93,1c.45.31,1.25.58,1,1.23s-.76,1-.63,1.75a1.52,1.52,0,0,0,1.38,1.17c.42.06.82-.08,1.24,0,.59.06.72.45,1.11.82a1.86,1.86,0,0,0,1,.48c.53.08.94,0,1.2.53a11.89,11.89,0,0,0,.88,2.2,1.07,1.07,0,0,0,.14.16,7.74,7.74,0,0,0,.55,3.8,2.28,2.28,0,0,0,.91,1,1.27,1.27,0,0,0,1.33,0,1.13,1.13,0,0,0,.14,1.44,5.09,5.09,0,0,0,1.32.86,7,7,0,0,1,3.41,4.69,5.45,5.45,0,0,0,.45,1.74,1.28,1.28,0,0,0,1.5.69l.19.35a3.55,3.55,0,0,0,1.5,1.59,7.21,7.21,0,0,0,2.15.53l2.93.43a8.89,8.89,0,0,1,2.1.48,8.61,8.61,0,0,1,2.16,1.45,3.21,3.21,0,0,1,1.05,1.21,6.1,6.1,0,0,0,.44,1.37,2,2,0,0,0,1.18.63,17.82,17.82,0,0,0,4.88.53c.2.45.4.9.61,1.34.72,1.61-.45,3.43-1.8,4.56a5.3,5.3,0,0,0-1.33,1.25,3.18,3.18,0,0,0-.29,1.7,4.82,4.82,0,0,1-.13,1.74,1.41,1.41,0,0,1-1.28,1l.45,1.91c-.25.28.11.78.4,1a4.33,4.33,0,0,1,.91.66,2.3,2.3,0,0,1,.22,1.57c0,.54.11,1.19.61,1.38s1.22-.21,1.6.19c.2.21.19.55.34.8a.72.72,0,0,0,.78.32.73.73,0,0,0,.52-.66,1.87,1.87,0,0,0,1.49.43c.29,0,.44.1.59.35a2.16,2.16,0,0,1,.21.83c.06.58.11,1.15.17,1.73a1.53,1.53,0,0,1-.07.85c-.38.71-1.72.54-1.92,1.32-.15.59.52,1,.72,1.62.27.81-.44,1.58-1.1,2.13s-1.39,1.29-1.17,2.11a1.09,1.09,0,0,0,.92.72,2.84,2.84,0,0,0,1.25-.18L80,142c.65-.21,1.41-.53,1.51-1.2.55,0,1-.51,1.2-1a3.67,3.67,0,0,1,.84-1.4c.92-.74,2.33,0,3.44-.42.78-.28,1.27-1,1.86-1.6s1.56-1,2.21-.5l1.31-1.18c-.38-.53.28-1.34.76-1.78s1.11-.78,1.4-1.37a8.19,8.19,0,0,0,.35-1.5,4.8,4.8,0,0,1,1.44-2l3.4-3.27c-.32.11-.61-.31-.54-.64a1.7,1.7,0,0,1,.6-.81,1.19,1.19,0,0,0,.47-.86C100.23,121.91,99.6,121.66,99.09,121.5Z"/><path class="cls-12" d="M76.81,102.87a.78.78,0,0,0,.72-.73c0-.51-.59-.79-1.1-.85a2.47,2.47,0,0,1-1.43-.4c-.1-.34-.45-.54-.76-.71-.83-.44-2.31-1.63-3.28-1.6-.46,0-1.11.47-1.07,1s.73.84,1,.34c-.07.45-.13.9-.19,1.36a3.92,3.92,0,0,1,4.2.49c.28.24.54.53.84.75A1.45,1.45,0,0,0,76.81,102.87Z"/><path class="cls-12" d="M78.17,103.53A3,3,0,0,0,80,104l2.21.14c.27,0,.63,0,.68-.29a.51.51,0,0,0-.26-.47C81.56,102.58,78.94,102.07,78.17,103.53Z"/><polygon class="cls-12" points="79.34 100.41 79.34 100.41 79.34 100.42 79.34 100.41"/><path class="cls-12" d="M79.73,100.63a1.83,1.83,0,0,0-.39-.21l.38.21a.74.74,0,0,1-.38-.22,1.07,1.07,0,0,0-.3-.06.49.49,0,0,0-.53.44c0,.31.38.45.69.52l.94.21c.21,0,.48.08.62-.09a.44.44,0,0,0-.15-.59,1.61,1.61,0,0,0-.66-.17Z"/><path class="cls-12" d="M74.7,103.55a.56.56,0,0,0-.39.59,1.89,1.89,0,0,0,.69.6.67.67,0,0,0,.82-.2.64.64,0,0,0-.19-.77,1.53,1.53,0,0,0-.8-.29l.08.06A.5.5,0,0,0,74.7,103.55Z"/><path class="cls-12" d="M67.43,119.34a1.73,1.73,0,0,0-.81-.23l.21,0a.69.69,0,1,0-.53,1.28,1.42,1.42,0,0,0,.71,0,.88.88,0,0,0,.65-.31A.59.59,0,0,0,67.43,119.34Z"/><path class="cls-12" d="M64,119.13a.38.38,0,0,0-.42.1.46.46,0,0,0,.11.64.58.58,0,0,0,.67-.07.74.74,0,0,0,.21-.66Z"/><path class="cls-12" d="M65.14,117.56c-.3-.09-.72-.12-.84.17s.17.54.44.56a1.39,1.39,0,0,0,.77-.28l-.23.23a.23.23,0,0,0,.38-.06.36.36,0,0,0-.11-.42A1.2,1.2,0,0,0,65.14,117.56Z"/><path class="cls-12" d="M87.62,109.93h-.15l.07,0a.22.22,0,0,0-.1.09.47.47,0,0,0,.14.58,1.57,1.57,0,0,0,.59.26,1.15,1.15,0,0,1,.57.29,1.25,1.25,0,0,0-.87-1.19A.31.31,0,0,0,87.62,109.93Z"/><path class="cls-12" d="M87,108.52h0l.88-.23a.92.92,0,0,0-.74-.6c-.34,0-.66.4-.47.68A.38.38,0,0,0,87,108.52Z"/><path class="cls-12" d="M76.73,98.36a.3.3,0,0,0,.3-.3.31.31,0,1,0-.3.3Z"/><path class="cls-12" d="M77.59,99.58a.45.45,0,0,0-.4-.31.41.41,0,0,0-.38.29.54.54,0,0,0,0,.18.24.24,0,0,0,0,.13v0h0s0,0,0,0a.4.4,0,0,0,.42.13A.39.39,0,0,0,77.59,99.58Z"/><path class="cls-12" d="M75.59,99.78a.31.31,0,0,0,.19-.18.35.35,0,0,0,0-.51.35.35,0,0,0-.24-.1.38.38,0,0,0-.3.17.51.51,0,0,0,0,.48A.33.33,0,0,0,75.59,99.78Z"/><path class="cls-12" d="M85,104.58l.08,0a.25.25,0,0,0,0-.41.26.26,0,0,0-.41.06.3.3,0,0,1,0,.08A.24.24,0,0,0,85,104.58Z"/><path class="cls-12" d="M84.2,106a.21.21,0,0,0,0-.42A.21.21,0,0,0,84.2,106Z"/><path class="cls-12" d="M82.57,105.31a.19.19,0,0,0,0-.37A.19.19,0,0,0,82.57,105.31Z"/><path class="cls-12" d="M85.83,105.48a.29.29,0,0,0,0-.58A.29.29,0,0,0,85.83,105.48Z"/><path class="cls-12" d="M87.53,105.58a.32.32,0,0,0,0-.64A.32.32,0,0,0,87.53,105.58Z"/><g class="cls-13"><path class="cls-14" d="M127.27,53.87a59.63,59.63,0,0,1-84,84,59.63,59.63,0,1,0,84-84Z"/></g><g class="cls-15"><path class="cls-14" d="M92.06,43a59.45,59.45,0,0,1,40.68,16,59.64,59.64,0,1,0-84.29,84.29A59.64,59.64,0,0,1,92.06,43Z"/></g><polygon class="cls-16" points="149.12 29.16 148.52 28.79 129.92 57.71 131.34 58.6 149.12 29.16"/><path class="cls-16" d="M150,26.16l-1.73.87a.6.6,0,0,0,0,1l1.71,1.06a.59.59,0,0,0,.91-.49l0-1.95A.59.59,0,0,0,150,26.16Z"/><path class="cls-16" d="M143.73,27l4,.53-10.14.54a.13.13,0,0,1,0-.26Z"/><path class="cls-16" d="M143.81,28.45l3.88-.94-10.14.54a.13.13,0,0,0,0,.25Z"/><path class="cls-16" d="M152.83,32.65l-2.21-3.32,4,9.34c.06.15.29.06.24-.1Z"/><path class="cls-16" d="M151.48,33.23l-.86-3.9,4,9.34a.13.13,0,0,1-.23.1Z"/><path class="cls-16" d="M153.42,23l-2.7,2.94,5.36-8.62a.13.13,0,0,1,.23.13Z"/><path class="cls-16" d="M152.17,22.19l-1.45,3.72,5.36-8.62a.13.13,0,0,0-.21-.14Z"/><path class="cls-16" d="M148.94,27.46a1.86,1.86,0,0,0,1.21.05,1.4,1.4,0,0,0,.67-.45v-.37a.59.59,0,0,0-.86-.53l-1.73.87A2.1,2.1,0,0,0,148.94,27.46Z"/><path class="cls-16" d="M148.94,27.46a2.1,2.1,0,0,1-.7-.43h0a.6.6,0,0,0,0,1l1.71,1.06a.59.59,0,0,0,.91-.49l0-1.58a1.4,1.4,0,0,1-.67.45A1.86,1.86,0,0,1,148.94,27.46Z"/><polygon class="cls-16" points="143.5 18.89 142.78 18.44 120.53 53.03 122.24 54.09 143.5 18.89"/><path class="cls-16" d="M144.51,15.29l-2.07,1.05a.7.7,0,0,0-.06,1.23l2.05,1.28a.71.71,0,0,0,1.08-.6l0-2.32A.71.71,0,0,0,144.51,15.29Z"/><path class="cls-16" d="M137.06,16.27l4.73.63L129,17.58a.13.13,0,0,1,0-.25Z"/><path class="cls-16" d="M137.15,18l4.64-1.13L129,17.58a.13.13,0,0,0,0,.26Z"/><path class="cls-16" d="M147.94,23.05l-2.65-4,5,11.77c.07.15.3.06.24-.09Z"/><path class="cls-16" d="M146.32,23.74l-1-4.66,5,11.77a.13.13,0,0,1-.23.11Z"/><path class="cls-16" d="M148.64,11.47,145.41,15l6.77-10.86c.08-.14.29,0,.22.13Z"/><path class="cls-16" d="M147.14,10.54,145.41,15l6.77-10.86A.13.13,0,0,0,152,4Z"/><path class="cls-16" d="M143.29,16.85a2.22,2.22,0,0,0,1.44.06,1.79,1.79,0,0,0,.81-.54v-.44a.71.71,0,0,0-1-.64l-2.06,1A2.69,2.69,0,0,0,143.29,16.85Z"/><path class="cls-16" d="M143.29,16.85a2.69,2.69,0,0,1-.84-.52h0a.7.7,0,0,0-.06,1.23l2.05,1.28a.71.71,0,0,0,1.08-.6l0-1.88a1.76,1.76,0,0,1-.8.54A2.22,2.22,0,0,1,143.29,16.85Z"/><polygon class="cls-16" points="128.27 28.98 127.86 28.72 115.13 48.52 116.1 49.13 128.27 28.98"/><path class="cls-16" d="M128.85,26.92l-1.19.61a.4.4,0,0,0,0,.7l1.17.73a.4.4,0,0,0,.62-.34l0-1.33A.41.41,0,0,0,128.85,26.92Z"/><path class="cls-16" d="M124.58,27.49l2.71.36-5.89.31a.13.13,0,0,1,0-.26Z"/><path class="cls-16" d="M124.64,28.49l2.65-.64-5.89.31a.13.13,0,0,0,0,.25Z"/><path class="cls-16" d="M130.81,31.36l-1.52-2.27,2.32,5.43a.13.13,0,0,0,.24-.09Z"/><path class="cls-16" d="M129.88,31.76l-.59-2.67,2.32,5.43a.13.13,0,0,1-.23.11Z"/><path class="cls-16" d="M131.21,24.74l-1.85,2,3.12-5a.13.13,0,0,1,.22.13Z"/><path class="cls-16" d="M130.35,24.21l-1,2.54,3.12-5a.13.13,0,0,0-.21-.15Z"/><path class="cls-16" d="M128.15,27.81a1.22,1.22,0,0,0,.82,0,1,1,0,0,0,.46-.31v-.25a.41.41,0,0,0-.59-.37l-1.18.6A1.32,1.32,0,0,0,128.15,27.81Z"/><path class="cls-16" d="M128.15,27.81a1.32,1.32,0,0,1-.48-.29h0a.4.4,0,0,0,0,.7l1.17.73a.4.4,0,0,0,.62-.34V27.55a1,1,0,0,1-.46.3A1.22,1.22,0,0,1,128.15,27.81Z"/><path class="cls-17" d="M86.13,31.64c-.19-.59.28-1.18.74-1.59s1-.9,1-1.52a1.44,1.44,0,0,0-1.09-1.17,13.38,13.38,0,0,0-1.68-.28,1.78,1.78,0,0,1-1.35-.92,1.62,1.62,0,0,1,.54-1.73,8.59,8.59,0,0,1,1.65-1,2.54,2.54,0,0,0,1.29-1.37,2,2,0,0,0-1.26-2.27,5.07,5.07,0,0,0-2.79-.17c-.74.12-1.65.19-2-.43a1.41,1.41,0,0,1,0-1.31c.19-.41.48-.77.66-1.18a2.65,2.65,0,0,0-4.12-3.11A2.68,2.68,0,0,0,77.15,17c.39.62,1.07,1.15,1,1.88s-.8,1.23-1.48,1.56-1.47.79-1.53,1.55.66,1.34,1.33,1.71,1.44.8,1.61,1.54a2.32,2.32,0,0,1-1.07,2.1c-.65.55-1.36,1-2,1.6A4,4,0,0,0,73.8,31a2.15,2.15,0,0,0,.89,2.2,4.56,4.56,0,0,0,1.55.41,1.84,1.84,0,0,1,1.33.8,3.49,3.49,0,0,1,.23,1.12,2.55,2.55,0,0,0,1.31,1.78,3.55,3.55,0,0,0,2.16.09,5.3,5.3,0,0,0,2.23-.28,6.41,6.41,0,0,0,1.13-.73l2.1-1.55c.51-.38,1.09-.91.94-1.53S86.36,32.39,86.13,31.64Z"/><polygon class="cls-17" points="84.81 32.84 84.61 32.69 81.68 34.65 81.62 29.13 81.19 29.13 81.15 32.13 78.24 30.19 78.03 30.33 81.15 32.62 81.02 45.9 81.78 45.9 81.68 35.14 84.81 32.84"/><path class="cls-18" d="M84.87,33.24a3.75,3.75,0,0,0,.26-1.34A1.56,1.56,0,0,0,84,30.76c-.55-.17-1.13-.18-1.69-.32a3.54,3.54,0,0,1-1.21-6.27A19.13,19.13,0,0,1,83.28,23a2.54,2.54,0,0,0,1.48-1.87,2.55,2.55,0,0,0-1.26-2.11,14.9,14.9,0,0,1-2.09-1.49A3.46,3.46,0,0,1,82,12.51a16.46,16.46,0,0,1,2.56-1.07,2.45,2.45,0,0,0,1.65-2c0-1-1-1.68-1.57-2.46a4.46,4.46,0,0,1,.13-5.48,4.45,4.45,0,0,1,5.4-.93,4.45,4.45,0,0,1,2,5.12C91.81,6.46,91.31,7.17,91,8a2.77,2.77,0,0,0,0,2.46c1,1.74,4.16.73,5.44,2.32A2.9,2.9,0,0,1,96.22,16c-.62,1-1.55,1.75-2.22,2.71A3.15,3.15,0,0,0,93.54,22a5.88,5.88,0,0,0,2,1.58,2.23,2.23,0,0,1,1.23,2.06c-.3,1.49-2.8,1.56-3.19,3-.23.88.44,1.71.65,2.59C95.46,36.6,83.82,38,84.87,33.24Z"/><polygon class="cls-18" points="92.45 29.42 92.22 29.26 89.03 31.4 88.96 25.37 88.49 25.37 88.45 28.65 85.28 26.53 85.05 26.69 88.45 29.18 88.31 43.68 89.14 43.68 89.03 31.93 92.45 29.42"/><path class="cls-19" d="M19.8,70c-1.24-2.81-1.58-6.16-.2-8.88a10.11,10.11,0,0,1,5.49-4.62,22.33,22.33,0,0,1,7.22-1.21,54.74,54.74,0,0,1,8.58.4c1.15.14,3.27.45,3.87,1.44a3.94,3.94,0,0,1,.1,2.89c-1.1,4.78-3.5,9.4-5.52,13.86-1,2.21-2.23,4.5-4.37,5.65C28.5,83,22.09,75.14,19.8,70Z"/><path class="cls-20" d="M44,60.16A36.39,36.39,0,0,1,35.59,73.6,8,8,0,0,1,32,76a5.93,5.93,0,0,1-3.61-.44,18.09,18.09,0,0,1-3.16-1.89L19.75,69.9l.05.11c2.29,5.13,8.7,13,15.17,9.54,2.14-1.15,3.37-3.44,4.37-5.65,2-4.46,4.42-9.09,5.52-13.86a6.37,6.37,0,0,0,.22-1.83,2,2,0,0,0-.42.41A5.82,5.82,0,0,0,44,60.16Z"/><path class="cls-21" d="M120.55,137.59c.23-2.42,2.18-4.35,4.29-5.56s4.49-1.91,6.57-3.18a14.08,14.08,0,0,0,3-21.6c-1.83-2-4.36-3.66-4.79-6.31-.48-3,2-5.63,4.34-7.62s4.93-4.38,4.78-7.43-3.09-5.25-5.54-7.19-4.91-5-3.72-7.89c1.29-3.16,5.71-3.36,8.62-5.11a59.69,59.69,0,0,0-15.74-15.51c-2.61-.64-5.24-1.75-8-1.52-6.19.53-14,5.13-13.71,12.15.15,4,3.19,7.41,6.72,9.28s7.57,2.55,11.47,3.43,7.9,2.11,10.85,4.8,4.56,7.26,2.76,10.84c-1.91,3.8-7,5.67-7.8,9.86-1,5.55,6.46,9.15,7.4,14.72.84,5-4.06,9.3-9,10.5S113,124.69,108,125.6s-10.25,4.45-10.3,9.52c0,2,.83,4,.8,6.07-.08,5.23-5.81,8.72-11,9s-10.34-1.5-15.57-1.77c-3.57-.17-8,1.06-8.69,4.55,0,.13-.05.26-.07.39a59.69,59.69,0,0,0,62.72-6.67C123.48,143.8,120.2,141.17,120.55,137.59Z"/><path class="cls-22" d="M133.52,50.73a19.29,19.29,0,0,0,.81-5.22,6.89,6.89,0,0,0-1.25-4.23c-1.3-1.63-3.64-2.06-6.11-1.55a21.09,21.09,0,0,0-7.45,3.59,12.05,12.05,0,0,0-1.85,1.52,4.93,4.93,0,0,0-1.22,2.06,2.74,2.74,0,0,0,.76,2.78,93.08,93.08,0,0,0,10.57,8.55,3,3,0,0,0,2,.49c.87-.06,1.15-1.17,1.54-2A36.57,36.57,0,0,0,133.52,50.73Z"/><path class="cls-22" d="M133.71,47.48a10,10,0,0,1-2.37,3.46,7.69,7.69,0,0,1-2,1.31,9.3,9.3,0,0,1-6.71.07,24.3,24.3,0,0,1-6-3.26,3,3,0,0,0,.5.62,93.08,93.08,0,0,0,10.57,8.55,3.09,3.09,0,0,0,2,.49c.87-.06,1.15-1.18,1.54-2a37.51,37.51,0,0,0,2.22-6,19.61,19.61,0,0,0,.81-5.16,8,8,0,0,0-.24.9C134,46.82,133.85,47.15,133.71,47.48Z"/><rect class="cls-23" x="101.5" y="24.18" width="12.55" height="17.62" transform="translate(46.74 127.75) rotate(-74.23)"/><polygon class="cls-24" points="97.6 36.63 114.56 41.42 117.97 29.34 97.6 36.63"/><path class="cls-25" d="M117.47,29.2l-2.64-.74h0l-.35-.1h0l-3.1-.87h0l-.35-.1h0l-3.1-.88h0l-.35-.09h0l-3.1-.88h0l-.35-.1h0l-2.63-.74-.5-.14-.14.5-1,3.41h0l-.1.35h0l-1,3.55h0l-.1.35h0l-1,3.42-.14.5.5.14,2.63.74h0l.35.1h0l3.1.87h0l.35.1h0l3.1.88h0l.35.1h0l3.1.87h0l.35.1h0l2.64.74.5.14.14-.5,3.12-11.07.14-.5Zm-3.13-.34-1,3.42-3.1-.88,1-3.41Zm.92,8.16-2.63-.74,1-3.56,2.63.74Zm-3-.84-3.1-.88,1-3.55,3.1.87Zm-5.55-5.41,3.11.88-1,3.56-3.1-.88Zm-1.35,3.46-3.1-.87,1-3.56,3.11.88Zm5.52-6.34-1,3.41-3.1-.87,1-3.42Zm-3.45-1-1,3.41-3.1-.88,1-3.41Zm-6.09-1.72,2.64.74-1,3.42-2.63-.75ZM100.3,29l2.64.74-1,3.56-2.63-.74Zm-2.06,7.32,1-3.42,2.63.75-1,3.41Zm3,.84,1-3.42,3.1.88-1,3.41Zm3.45,1,1-3.41,3.1.87-1,3.42Zm3.45,1,1-3.41,3.1.88-1,3.41Zm3.45,1,1-3.42,2.63.75-1,3.41Zm4.79-6.92-2.63-.75,1-3.41,2.64.74Z"/><path class="cls-26" d="M105.91,43.28,104,42.74a1.21,1.21,0,0,0-1.49.83h0l4.23,1.2h0A1.2,1.2,0,0,0,105.91,43.28Z"/><rect class="cls-26" x="103.2" y="40.7" width="4.64" height="0.61" transform="translate(37.5 131.5) rotate(-74.31)"/><rect class="cls-27" x="91.42" y="26.14" width="10.14" height="14.24" transform="translate(60.76 128.86) rotate(-88.53)"/><polygon class="cls-28" points="89.24 38.14 103.48 38.5 103.74 28.37 89.24 38.14"/><path class="cls-29" d="M103.32,28.36l-2.21-.06h-.29l-2.61-.06h-.29l-2.6-.07H95l-2.61-.07h-.29L89.92,28H89.5v.41l-.07,2.87h0v.29h0l-.08,3h0v.29h0l-.08,2.86v.42h.42l2.21.06h.29l2.6.06h.3l2.6.07H98l2.61.07h.29l2.21.05.42,0v-.42l.24-9.3v-.42Zm-2.51.35-.08,2.87-2.6-.07.07-2.86Zm2.34,6.21-2.21-.06.07-3,2.22.06Zm-2.5-.06L98,34.79l.08-3,2.6.07Zm-5.42-3.13,2.6.07-.08,3-2.6-.07Zm-.37,3-2.61-.07.08-3,2.6.07Zm3-6.07-.07,2.87-2.61-.07.08-2.87ZM95,28.57l-.08,2.86-2.6-.07.07-2.86Zm-5.11-.13,2.21,0-.07,2.87-2.21-.06Zm-.08,3.15,2.21.06-.08,3-2.21-.06Zm-.16,6.14.07-2.86,2.22.05-.08,2.87Zm2.5.06.08-2.86,2.6.07-.07,2.86Zm2.9.08L95.14,35l2.61.07-.08,2.87Zm2.89.07L98,35.08l2.6.06L100.57,38Zm2.9.08.07-2.87,2.21.06-.07,2.86Zm2.37-6.38L101,31.59l.07-2.87,2.22.06Z"/><path class="cls-30" d="M97.07,41.68l-1.59,0a1,1,0,0,0-1,1h0l3.54.09h0A1,1,0,0,0,97.07,41.68Z"/><rect class="cls-30" x="94.45" y="39.75" width="3.75" height="0.49" transform="translate(53.66 135.17) rotate(-88.41)"/><path class="cls-31" d="M21.05,69.83a2,2,0,0,0-1.69-.51A2.41,2.41,0,0,1,17.63,69a1.46,1.46,0,0,1-.45-1.44,10,10,0,0,1,.57-1.25,1.49,1.49,0,0,0-.11-1.45,2,2,0,0,0-1.71-.72,6.67,6.67,0,0,0-1.62.43,2.43,2.43,0,0,1-1.76,0,2.3,2.3,0,0,1-1.29-2.23,3.11,3.11,0,0,1,1.2-1.9c.45-.4.95-.94.62-1.59A1.86,1.86,0,0,0,12,58c-.44-.14-.88-.18-1.31-.32a3.46,3.46,0,0,1-2.26-2.4,1.81,1.81,0,0,1,1.64-2.19,3.46,3.46,0,0,1,3.06,1.77c.32.64.44,1.41,1.06,1.85a2.15,2.15,0,0,0,2,0,2.15,2.15,0,0,1,2,0,2.19,2.19,0,0,1,.8,1.93,2.63,2.63,0,0,0,.51,2,2.73,2.73,0,0,0,2.27.62c.76-.08,1.5-.24,2.28-.27a4.49,4.49,0,0,1,2.39.51,2.55,2.55,0,0,1,1.41,1.95,3,3,0,0,1-.4,1.25,1.49,1.49,0,0,0,0,1.35,5.59,5.59,0,0,0,.83.86,2.66,2.66,0,0,1,.86,2c-.05.75-.54,1-1,1.45s-.63,1-1.31,1.25a5.45,5.45,0,0,1-1.16.27l-2.3.38a1.9,1.9,0,0,1-1.73-.35C21.18,71.29,21.56,70.45,21.05,69.83Z"/><polygon class="cls-32" points="22.68 69.74 22.66 69.51 25.7 68.85 21.12 65.36 21.33 65.08 23.85 66.94 23.63 63.85 23.85 63.81 24.27 67.24 35.42 75.47 35.05 75.95 26.11 69.16 22.68 69.74"/><path class="cls-17" d="M26.86,64.32a7,7,0,0,1-6.23-2.47c-1.45-1.74-1.91-4.07-3.73-5.42a5,5,0,0,0-4.56-.6c-1.33.39-2.73.91-4.38.23a7.08,7.08,0,0,1-3.82-4.82A7.17,7.17,0,0,1,5,46.5a13.4,13.4,0,0,0,1.71-4.3,6.75,6.75,0,0,0-1.87-5.38C3.77,35.7,2.35,35,1.35,33.8A5.24,5.24,0,0,1,0,29.87,4.92,4.92,0,0,1,1.58,27a6.89,6.89,0,0,1,5.23-2.16,9.46,9.46,0,0,1,6.63,3.54c1.33,1.7,2,3.89,3.82,5.08a4.91,4.91,0,0,0,4.47.39A5.93,5.93,0,0,1,26,33.49,7.43,7.43,0,0,1,30,38a9.94,9.94,0,0,1,.11,5,5.6,5.6,0,0,0-.05,2.52A3.69,3.69,0,0,0,32,47.88c1.3.52,2.17-.44,3.43-.24,1.58.25,3.08,2.3,3.18,3.81A4.9,4.9,0,0,1,37.08,55c-1.64,2-3.25,3.94-4.91,5.88A17.78,17.78,0,0,1,30,62.72a7.94,7.94,0,0,1-1.46,1C28.1,64,27.16,64,26.86,64.32Z"/><polygon class="cls-17" points="30.94 49.94 30.62 49.99 30.05 54.46 24.54 49.3 24.17 49.69 27.11 52.55 22.7 53.33 22.66 53.66 27.59 53.02 40.62 65.66 41.27 64.98 30.54 54.92 30.94 49.94"/><path class="cls-18" d="M38,53.87a3.18,3.18,0,0,0-.59-1,1.4,1.4,0,0,0-1.44-.09c-.46.2-.85.53-1.31.76A3.12,3.12,0,0,1,30.21,50,17,17,0,0,1,31,48a2.23,2.23,0,0,0-.09-2.1,2.28,2.28,0,0,0-2.06-.69,13.19,13.19,0,0,1-2.25.22,3.07,3.07,0,0,1-2.56-3.69,14.47,14.47,0,0,1,1.1-2.19,2.14,2.14,0,0,0-.08-2.31c-.59-.65-1.6-.57-2.46-.74a3.81,3.81,0,1,1,4.26-5.18c.28.7.35,1.46.58,2.18a2.43,2.43,0,0,0,1.39,1.67c1.71.57,3.21-1.9,5-1.58a2.54,2.54,0,0,1,1.79,2.27c.16,1,0,2.06.08,3.09a2.79,2.79,0,0,0,1.59,2.46,5.06,5.06,0,0,0,2.22-.08,2,2,0,0,1,2,.67c.66,1.16-1,2.65-.39,3.85.35.72,1.28.89,1.93,1.36C47,50,40,57.64,38,53.87Z"/><polygon class="cls-18" points="40.84 46.95 40.6 46.98 39.69 50.25 36.17 46.26 35.86 46.53 37.72 48.74 34.38 49.16 34.32 49.39 38.03 49.1 46.28 58.86 46.84 58.38 40 50.6 40.84 46.95"/><path class="cls-22" d="M50.63,38.94c1.35-2.31,4.12-3,7-2.29a20.32,20.32,0,0,1,8.52,5.25,7.13,7.13,0,0,1,1.14,1.3,2.61,2.61,0,0,1,.5,1.58,1.58,1.58,0,0,1-.51.95,37.1,37.1,0,0,1-9.76,6.93,4.65,4.65,0,0,1-4.29.23,6.42,6.42,0,0,1-2.73-2.67c-1.08-1.9-.91-4-.93-5.82A10.74,10.74,0,0,1,50.63,38.94Z"/><path class="cls-22" d="M66.94,45.43a3,3,0,0,0-.82.49,14.94,14.94,0,0,1-5.62,2.87,7.52,7.52,0,0,1-8.45-3.13A19.08,19.08,0,0,1,50.61,43a5.61,5.61,0,0,0-.86-1.42,15.78,15.78,0,0,0-.18,2.78c0,1.79-.14,3.92.93,5.83a6.51,6.51,0,0,0,2.73,2.66,4.7,4.7,0,0,0,4.3-.23,37.21,37.21,0,0,0,9.75-6.93,2,2,0,0,0,.26-.31A1,1,0,0,0,66.94,45.43Z"/><path class="cls-18" d="M36.39,56.16c-1.16-3-1.8-6.13-1.34-8.69a9.12,9.12,0,0,1,2.73-4.92,7.48,7.48,0,0,1,4.43-2.28c2.24-.25,4.92.64,7.43,2a45.83,45.83,0,0,1,7.21,5.3,5.55,5.55,0,0,1,1.69,2,2.16,2.16,0,0,1-1,2.56q-4.48,3.68-9,7.27Q46.3,61.25,44.05,63a18.73,18.73,0,0,1-2.29,1.78c-.63.37-1.09,0-1.62-.9A48.61,48.61,0,0,1,36.39,56.16Z"/><path class="cls-18" d="M56.56,52.66a1.74,1.74,0,0,0-.78.39,14.93,14.93,0,0,1-11.25,2.64,15.12,15.12,0,0,1-3.76-1.2,15.56,15.56,0,0,1-3-1.86c-.88-.71-1.55-1.6-2.39-2.34a1.75,1.75,0,0,0-.49-.33,21.2,21.2,0,0,0,1.47,6.2,48.89,48.89,0,0,0,3.74,7.72c.54.86,1,1.28,1.63.91A19.76,19.76,0,0,0,44.05,63q2.25-1.77,4.49-3.55,4.22-3.35,8.36-6.73A.58.58,0,0,0,56.56,52.66Z"/><path class="cls-18" d="M41.63,63.34c-.11.09,0,.25.14.16S41.73,63.25,41.63,63.34Z"/><path class="cls-18" d="M41.09,62.32c-.2.17.07.49.27.31S41.29,62.14,41.09,62.32Z"/><path class="cls-18" d="M41.87,62.48a.18.18,0,0,0,.24.28C42.29,62.6,42.05,62.32,41.87,62.48Z"/><path class="cls-18" d="M42.92,62.08a.23.23,0,0,0,.31.35C43.46,62.23,43.14,61.88,42.92,62.08Z"/><path class="cls-18" d="M42.05,63.31a.16.16,0,0,0,.21.23A.16.16,0,0,0,42.05,63.31Z"/><path class="cls-18" d="M41.54,62.06c.16-.15-.06-.4-.22-.26S41.38,62.2,41.54,62.06Z"/><path class="cls-18" d="M40.36,61.13c-.14.12.06.34.2.22S40.51,61,40.36,61.13Z"/><path class="cls-18" d="M39.93,60.84c.15-.14-.06-.38-.21-.24S39.77,61,39.93,60.84Z"/><path class="cls-18" d="M39.94,59.77c.17-.16-.07-.43-.24-.27S39.76,59.92,39.94,59.77Z"/><path class="cls-18" d="M40.81,59.93a.18.18,0,0,0,.23.27C41.21,60.05,41,59.78,40.81,59.93Z"/><path class="cls-18" d="M41.48,61.15a.22.22,0,0,0,.28.33C42,61.29,41.68,61,41.48,61.15Z"/><path class="cls-18" d="M43.24,60.58a.2.2,0,0,0,.26.3C43.69,60.71,43.43,60.41,43.24,60.58Z"/><path class="cls-18" d="M43.68,61.66c-.17.15.07.43.25.27S43.86,61.5,43.68,61.66Z"/><path class="cls-18" d="M42.17,60.86c-.22.18.07.52.28.33A.22.22,0,0,0,42.17,60.86Z"/><path class="cls-18" d="M42.27,59.84c-.15.14.06.38.21.24S42.43,59.71,42.27,59.84Z"/><path class="cls-18" d="M44.22,59.84a.17.17,0,0,0,.23.26A.17.17,0,0,0,44.22,59.84Z"/><path class="cls-18" d="M44.92,60.64a.17.17,0,0,0,.22.25C45.3,60.74,45.08,60.49,44.92,60.64Z"/><path class="cls-18" d="M44.27,61.19c-.14.12,0,.34.19.22A.15.15,0,0,0,44.27,61.19Z"/><path class="cls-18" d="M46,59.17c-.22.19.08.52.29.34S46.2,59,46,59.17Z"/><path class="cls-18" d="M47.55,58.57a.18.18,0,0,0,.24.28C48,58.7,47.73,58.41,47.55,58.57Z"/><path class="cls-18" d="M48.88,57.93c-.12.11,0,.3.18.19S49,57.82,48.88,57.93Z"/><path class="cls-18" d="M45.67,60.26c-.19.16.07.45.26.29A.19.19,0,0,0,45.67,60.26Z"/><path class="cls-18" d="M44.88,59.35a.17.17,0,0,0,.23.26C45.27,59.46,45,59.2,44.88,59.35Z"/><path class="cls-18" d="M47.25,58c.11-.1,0-.27-.16-.17S47.13,58.07,47.25,58Z"/><path class="cls-18" d="M47,59.44a.14.14,0,0,0,.19.21A.14.14,0,0,0,47,59.44Z"/><path class="cls-18" d="M43.35,59.21c-.17.14.06.39.22.25A.17.17,0,0,0,43.35,59.21Z"/><path class="cls-18" d="M40.89,58.58c-.17.15.07.42.24.27S41.06,58.43,40.89,58.58Z"/><path class="cls-18" d="M39.73,58.8c.19-.17-.08-.48-.27-.3A.2.2,0,0,0,39.73,58.8Z"/><path class="cls-18" d="M38.94,56.92c-.19.17.07.47.26.3A.2.2,0,0,0,38.94,56.92Z"/><path class="cls-18" d="M38.45,57.46c.15-.14-.05-.37-.2-.24S38.3,57.59,38.45,57.46Z"/><path class="cls-18" d="M39,58.66c.17-.14-.06-.4-.23-.26S38.85,58.81,39,58.66Z"/><path class="cls-18" d="M38.27,55.75a.11.11,0,0,0-.15-.17C38,55.68,38.16,55.85,38.27,55.75Z"/><path class="cls-18" d="M38.18,54.93c.14-.13-.06-.36-.2-.23S38,55.05,38.18,54.93Z"/><path class="cls-18" d="M40.56,57.38c.15-.14-.06-.38-.21-.24A.16.16,0,0,0,40.56,57.38Z"/><path class="cls-18" d="M41.82,58c.19-.16-.07-.46-.26-.29S41.63,58.16,41.82,58Z"/><path class="cls-18" d="M43.39,57.25c-.17.15.07.41.24.27S43.56,57.1,43.39,57.25Z"/><path class="cls-18" d="M44.28,58.06a.14.14,0,0,0,.19.21A.14.14,0,0,0,44.28,58.06Z"/><path class="cls-18" d="M42.58,58.91a.19.19,0,0,0-.25-.29C42.14,58.78,42.4,59.07,42.58,58.91Z"/><path class="cls-18" d="M41.59,59c-.14.13,0,.35.19.22S41.73,58.89,41.59,59Z"/><path class="cls-18" d="M41.36,59.68c-.16.15.06.4.22.26S41.52,59.54,41.36,59.68Z"/><path class="cls-18" d="M42,60.66a.17.17,0,0,0-.23-.25C41.56,60.55,41.78,60.8,42,60.66Z"/><path class="cls-18" d="M41.12,61c.2-.17-.07-.46-.26-.29S40.93,61.18,41.12,61Z"/><path class="cls-18" d="M40.46,62.22c-.14.13.06.35.2.22S40.6,62.1,40.46,62.22Z"/><path class="cls-18" d="M42.69,61.81c.18-.16-.07-.46-.26-.29A.19.19,0,0,0,42.69,61.81Z"/><path class="cls-18" d="M41.15,62.9c-.16.15.06.4.22.25S41.31,62.76,41.15,62.9Z"/><path class="cls-18" d="M42.71,62.87c-.2.17.07.48.27.31S42.9,62.7,42.71,62.87Z"/><path class="cls-18" d="M43.41,61.19c-.19.17.07.47.26.3S43.6,61,43.41,61.19Z"/><path class="cls-18" d="M43.05,60.11c.17-.15-.06-.42-.23-.27A.18.18,0,0,0,43.05,60.11Z"/><path class="cls-18" d="M44.25,60.6c-.16.14.06.38.21.24A.16.16,0,0,0,44.25,60.6Z"/><path class="cls-18" d="M40.59,58.28c.14-.12-.05-.34-.2-.21S40.45,58.41,40.59,58.28Z"/><path class="cls-18" d="M40.5,59.37a.19.19,0,0,0-.25-.28A.19.19,0,0,0,40.5,59.37Z"/><path class="cls-18" d="M39,59.35c.08-.07,0-.2-.11-.13A.09.09,0,0,0,39,59.35Z"/><path class="cls-18" d="M39.63,57.86c.17-.15-.07-.42-.24-.27A.18.18,0,1,0,39.63,57.86Z"/><path class="cls-18" d="M42.92,58.27c-.16.14.06.39.23.25A.17.17,0,0,0,42.92,58.27Z"/><path class="cls-18" d="M44,58.65a.2.2,0,0,0,.27.3A.2.2,0,0,0,44,58.65Z"/><path class="cls-18" d="M46.15,58.32a.2.2,0,0,0-.27-.3A.2.2,0,0,0,46.15,58.32Z"/><path class="cls-18" d="M45.4,60c.18-.15-.06-.43-.24-.27S45.23,60.1,45.4,60Z"/><path class="cls-18" d="M46.46,58.42a.23.23,0,0,0,.31.35A.23.23,0,0,0,46.46,58.42Z"/><path class="cls-18" d="M44.83,58.27a.16.16,0,0,0,.22.24C45.2,58.38,45,58.13,44.83,58.27Z"/><path class="cls-18" d="M46.52,59.67a.21.21,0,0,0,.28.32C47,59.81,46.72,59.49,46.52,59.67Z"/><path class="cls-18" d="M48.08,58.53c-.19.17.08.48.27.31A.21.21,0,0,0,48.08,58.53Z"/><path class="cls-18" d="M47.88,57.76a.21.21,0,0,0,.27.31C48.35,57.89,48.07,57.58,47.88,57.76Z"/><path class="cls-33" d="M65.87,38.31c-.25-.23-.18-.64-.07-1a1.16,1.16,0,0,0,.06-1,.81.81,0,0,0-.84-.27c-.3.06-.58.22-.88.31a1,1,0,0,1-.9-.08.9.9,0,0,1-.19-1,4.23,4.23,0,0,1,.53-.92,1.45,1.45,0,0,0,.26-1,1.14,1.14,0,0,0-1.22-.76,2.78,2.78,0,0,0-1.39.67c-.32.25-.74.53-1.1.33A.77.77,0,0,1,59.8,33c0-.24,0-.49,0-.74a1.46,1.46,0,0,0-2.81-.4,1.47,1.47,0,0,0,.65,1.75c.35.2.82.27,1,.63s-.06.81-.3,1.15-.5.77-.32,1.15.67.47,1.09.47a1.55,1.55,0,0,1,1.19.31,1.26,1.26,0,0,1,0,1.3c-.17.44-.38.85-.52,1.29a2.22,2.22,0,0,0,0,1.37,1.19,1.19,0,0,0,1,.83,2.88,2.88,0,0,0,.85-.22,1,1,0,0,1,.85,0,1.74,1.74,0,0,1,.41.48,1.4,1.4,0,0,0,1.11.5c.48,0,.7-.29,1.06-.52a3,3,0,0,0,1-.73,3.21,3.21,0,0,0,.35-.66l.6-1.3c.15-.32.28-.73,0-1S66.18,38.61,65.87,38.31Z"/><polygon class="cls-34" points="65.56 39.24 65.42 39.22 64.53 40.95 63.03 38.3 62.82 38.42 63.6 39.87 61.68 39.71 61.62 39.84 63.73 40.11 67.2 46.54 67.57 46.34 64.66 41.18 65.56 39.24"/><path class="cls-35" d="M10,108.26c-1.5,2.63-2.09,7.58,3.44,8.71V100.28S13.17,102.69,10,108.26Z"/><path class="cls-35" d="M16.85,108.26c1.51,2.63,2.1,7.58-3.43,8.71V100.28S13.67,102.69,16.85,108.26Z"/><path class="cls-35" d="M17.06,99.82c-1,1.76-1.4,5.06,2.29,5.81V94.51S19.19,96.11,17.06,99.82Z"/><path class="cls-35" d="M21.64,99.82c1,1.76,1.4,5.06-2.29,5.81V94.51S19.51,96.11,21.64,99.82Z"/><path class="cls-36" d="M16.8,108.17c1.27,2.72,1.43,7.09-3.72,8.14A5.49,5.49,0,0,1,9.33,114,5.16,5.16,0,0,0,13.42,117c5.53-1.13,4.94-6.08,3.43-8.71A.41.41,0,0,0,16.8,108.17Z"/><path class="cls-36" d="M21.64,99.82l-.11-.19c.8,1.82.86,4.65-2.52,5.34a3.7,3.7,0,0,1-2.43-1.41,3.42,3.42,0,0,0,2.77,2.07C23,104.88,22.64,101.58,21.64,99.82Z"/><path class="cls-37" d="M11.34,106.72a8.36,8.36,0,0,0-.68,1.14,1.84,1.84,0,0,0-.12,1.3,1,1,0,0,0,1,.73,1.14,1.14,0,0,0,.89-.71,3.16,3.16,0,0,0,.21-1.18l.27-5.12,0-.61A10.46,10.46,0,0,1,11.34,106.72Z"/><path class="cls-37" d="M18.22,98.32a5.85,5.85,0,0,0-.38.63,1,1,0,0,0-.06.71.59.59,0,0,0,.55.41.63.63,0,0,0,.48-.4,1.73,1.73,0,0,0,.12-.64l.15-2.82,0-.34A5.92,5.92,0,0,1,18.22,98.32Z"/></svg>