<?xml version="1.0" encoding="utf-8"?>
<!-- Generator: Adobe Illustrator 16.0.0, SVG Export Plug-In . SVG Version: 6.00 Build 0)  -->
<!DOCTYPE svg PUBLIC "-//W3C//DTD SVG 1.1//EN" "http://www.w3.org/Graphics/SVG/1.1/DTD/svg11.dtd">
<svg version="1.1" id="Calque_1" xmlns="http://www.w3.org/2000/svg" xmlns:xlink="http://www.w3.org/1999/xlink" x="0px" y="0px"
	 width="296px" height="114px" viewBox="40.5 45.5 296 114" enable-background="new 40.5 45.5 296 114" xml:space="preserve">
<g>
	<path fill="#FDC629" d="M52.706,158.002H47.91l0.251-54.516h1.39V92.635l31.987-12.113l0.946-6.813l3.407,0.378l1.136,1.516v4.73
		h23.661v-6.625h3.219l2.082,2.082v3.975h1.138l13.628,9.653c0,0-1.516-3.597,22.9-9.653c0-6.057,0-5.867,0-5.867
		s-0.944-4.354,17.037-7.571c11.926-6.058,19.496-9.085,19.496-9.085s-1.705-2.84,0.379-3.219c2.082-0.379,1.136,3.028,1.136,3.028
		l19.116,8.519c0,0,16.09,3.785,17.604,8.707c-0.188,2.271,0,4.731,0,4.731s19.875,5.679,21.767,10.41
		c7.383-4.731,13.629-8.707,13.629-8.707h2.65v-4.354l1.799-1.797h2.555v5.961h23.281v-4.354l2.178-2.18h2.939v6.154l31.987,12.682
		v9.843h3.218v55.083l-6.814,0.757L52.706,158.002z"/>
	<g>
		<g>
			<rect x="101.35" y="111.801" fill="#E3A800" width="1.451" height="1.516"/>
			<rect x="103.622" y="111.801" fill="#E3A800" width="1.452" height="1.516"/>
			<rect x="101.35" y="109.812" fill="#E3A800" width="1.451" height="1.517"/>
			<rect x="103.622" y="109.812" fill="#E3A800" width="1.452" height="1.517"/>
			<rect x="101.35" y="107.92" fill="#E3A800" width="1.451" height="1.516"/>
			<rect x="103.622" y="107.92" fill="#E3A800" width="1.452" height="1.516"/>
		</g>
		<g>
			<rect x="86.54" y="111.801" fill="#E3A800" width="1.451" height="1.516"/>
			<rect x="88.811" y="111.801" fill="#E3A800" width="1.451" height="1.516"/>
			<rect x="86.54" y="109.812" fill="#E3A800" width="1.451" height="1.517"/>
			<rect x="88.811" y="109.812" fill="#E3A800" width="1.451" height="1.517"/>
			<rect x="86.54" y="107.92" fill="#E3A800" width="1.451" height="1.516"/>
			<rect x="88.811" y="107.92" fill="#E3A800" width="1.451" height="1.516"/>
		</g>
		<g>
			<rect x="71.871" y="111.801" fill="#E3A800" width="1.45" height="1.516"/>
			<rect x="74.141" y="111.801" fill="#E3A800" width="1.451" height="1.516"/>
			<rect x="71.871" y="109.812" fill="#E3A800" width="1.45" height="1.517"/>
			<rect x="74.141" y="109.812" fill="#E3A800" width="1.451" height="1.517"/>
			<rect x="71.871" y="107.92" fill="#E3A800" width="1.45" height="1.516"/>
			<rect x="74.141" y="107.92" fill="#E3A800" width="1.451" height="1.516"/>
		</g>
		<g>
			<rect x="57.058" y="111.801" fill="#E3A800" width="1.451" height="1.516"/>
			<rect x="59.331" y="111.801" fill="#E3A800" width="1.45" height="1.516"/>
			<rect x="57.058" y="109.812" fill="#E3A800" width="1.451" height="1.517"/>
			<rect x="59.331" y="109.812" fill="#E3A800" width="1.45" height="1.517"/>
			<rect x="57.058" y="107.92" fill="#E3A800" width="1.451" height="1.516"/>
			<rect x="59.331" y="107.92" fill="#E3A800" width="1.45" height="1.516"/>
		</g>
		<g>
			<g>
				<g>
					<rect x="56.681" y="125.57" fill="#E3A800" width="1.45" height="1.517"/>
					<rect x="58.952" y="125.57" fill="#E3A800" width="1.451" height="1.517"/>
					<rect x="56.681" y="123.771" fill="#E3A800" width="1.45" height="1.518"/>
					<rect x="58.952" y="123.771" fill="#E3A800" width="1.451" height="1.518"/>
					<rect x="56.681" y="121.786" fill="#E3A800" width="1.45" height="1.515"/>
					<rect x="58.952" y="121.786" fill="#E3A800" width="1.451" height="1.515"/>
					<rect x="56.681" y="119.893" fill="#E3A800" width="1.45" height="1.516"/>
					<rect x="58.952" y="119.893" fill="#E3A800" width="1.451" height="1.516"/>
				</g>
				<g>
					<rect x="71.349" y="125.57" fill="#E3A800" width="1.452" height="1.517"/>
					<rect x="73.62" y="125.57" fill="#E3A800" width="1.452" height="1.517"/>
					<rect x="71.349" y="123.771" fill="#E3A800" width="1.452" height="1.518"/>
					<rect x="73.62" y="123.771" fill="#E3A800" width="1.452" height="1.518"/>
					<rect x="71.349" y="121.786" fill="#E3A800" width="1.452" height="1.515"/>
					<rect x="73.62" y="121.786" fill="#E3A800" width="1.452" height="1.515"/>
					<rect x="71.349" y="119.893" fill="#E3A800" width="1.452" height="1.516"/>
					<rect x="73.62" y="119.893" fill="#E3A800" width="1.452" height="1.516"/>
				</g>
				<g>
					<rect x="86.255" y="125.57" fill="#E3A800" width="1.451" height="1.517"/>
					<rect x="88.528" y="125.57" fill="#E3A800" width="1.451" height="1.517"/>
					<rect x="86.255" y="123.771" fill="#E3A800" width="1.451" height="1.518"/>
					<rect x="88.528" y="123.771" fill="#E3A800" width="1.451" height="1.518"/>
					<rect x="86.255" y="121.786" fill="#E3A800" width="1.451" height="1.515"/>
					<rect x="88.528" y="121.786" fill="#E3A800" width="1.451" height="1.515"/>
					<rect x="86.255" y="119.893" fill="#E3A800" width="1.451" height="1.516"/>
					<rect x="88.528" y="119.893" fill="#E3A800" width="1.451" height="1.516"/>
				</g>
				<g>
					<rect x="101.398" y="125.57" fill="#E3A800" width="1.451" height="1.517"/>
					<rect x="103.67" y="125.57" fill="#E3A800" width="1.45" height="1.517"/>
					<rect x="101.398" y="123.771" fill="#E3A800" width="1.451" height="1.518"/>
					<rect x="103.67" y="123.771" fill="#E3A800" width="1.45" height="1.518"/>
					<rect x="101.398" y="121.786" fill="#E3A800" width="1.451" height="1.515"/>
					<rect x="103.67" y="121.786" fill="#E3A800" width="1.45" height="1.515"/>
					<rect x="101.398" y="119.893" fill="#E3A800" width="1.451" height="1.516"/>
					<rect x="103.67" y="119.893" fill="#E3A800" width="1.45" height="1.516"/>
				</g>
				<g>
					<rect x="116.777" y="125.57" fill="#E3A800" width="1.451" height="1.517"/>
					<rect x="119.049" y="125.57" fill="#E3A800" width="1.451" height="1.517"/>
					<rect x="116.777" y="123.771" fill="#E3A800" width="1.451" height="1.518"/>
					<rect x="119.049" y="123.771" fill="#E3A800" width="1.451" height="1.518"/>
					<rect x="116.777" y="121.786" fill="#E3A800" width="1.451" height="1.515"/>
					<rect x="119.049" y="121.786" fill="#E3A800" width="1.451" height="1.515"/>
					<rect x="116.777" y="119.893" fill="#E3A800" width="1.451" height="1.516"/>
					<rect x="119.049" y="119.893" fill="#E3A800" width="1.451" height="1.516"/>
				</g>
			</g>
			<g>
				<rect x="116.92" y="111.801" fill="#E3A800" width="1.45" height="1.516"/>
				<rect x="119.191" y="111.801" fill="#E3A800" width="1.449" height="1.516"/>
				<rect x="116.92" y="109.812" fill="#E3A800" width="1.45" height="1.517"/>
				<rect x="119.191" y="109.812" fill="#E3A800" width="1.449" height="1.517"/>
				<rect x="116.92" y="107.92" fill="#E3A800" width="1.45" height="1.516"/>
				<rect x="119.191" y="107.92" fill="#E3A800" width="1.449" height="1.516"/>
			</g>
			<g>
				<rect x="116.684" y="100.064" fill="#E3A800" width="1.451" height="1.516"/>
				<rect x="118.953" y="100.064" fill="#E3A800" width="1.451" height="1.516"/>
				<rect x="116.684" y="98.078" fill="#E3A800" width="1.451" height="1.516"/>
				<rect x="118.953" y="98.078" fill="#E3A800" width="1.451" height="1.516"/>
				<rect x="116.684" y="96.186" fill="#E3A800" width="1.451" height="1.517"/>
				<rect x="118.953" y="96.186" fill="#E3A800" width="1.451" height="1.517"/>
			</g>
			<g>
				<rect x="101.115" y="100.064" fill="#E3A800" width="1.45" height="1.516"/>
				<rect x="103.386" y="100.064" fill="#E3A800" width="1.449" height="1.516"/>
				<rect x="101.115" y="98.078" fill="#E3A800" width="1.45" height="1.516"/>
				<rect x="103.386" y="98.078" fill="#E3A800" width="1.449" height="1.516"/>
				<rect x="101.115" y="96.186" fill="#E3A800" width="1.45" height="1.517"/>
				<rect x="103.386" y="96.186" fill="#E3A800" width="1.449" height="1.517"/>
			</g>
			<g>
				<rect x="86.303" y="100.064" fill="#E3A800" width="1.449" height="1.516"/>
				<rect x="88.575" y="100.064" fill="#E3A800" width="1.451" height="1.516"/>
				<rect x="86.303" y="98.078" fill="#E3A800" width="1.449" height="1.516"/>
				<rect x="88.575" y="98.078" fill="#E3A800" width="1.451" height="1.516"/>
				<rect x="86.303" y="96.186" fill="#E3A800" width="1.449" height="1.517"/>
				<rect x="88.575" y="96.186" fill="#E3A800" width="1.451" height="1.517"/>
			</g>
			<g>
				<rect x="71.635" y="100.064" fill="#E3A800" width="1.449" height="1.516"/>
				<rect x="73.906" y="100.064" fill="#E3A800" width="1.45" height="1.516"/>
				<rect x="71.635" y="98.078" fill="#E3A800" width="1.449" height="1.516"/>
				<rect x="73.906" y="98.078" fill="#E3A800" width="1.45" height="1.516"/>
				<rect x="71.635" y="96.186" fill="#E3A800" width="1.449" height="1.517"/>
				<rect x="73.906" y="96.186" fill="#E3A800" width="1.45" height="1.517"/>
			</g>
			<g>
				<rect x="56.823" y="100.064" fill="#E3A800" width="1.451" height="1.516"/>
				<rect x="59.094" y="100.064" fill="#E3A800" width="1.451" height="1.516"/>
				<rect x="56.823" y="98.078" fill="#E3A800" width="1.451" height="1.516"/>
				<rect x="59.094" y="98.078" fill="#E3A800" width="1.451" height="1.516"/>
				<rect x="56.823" y="96.186" fill="#E3A800" width="1.451" height="1.517"/>
				<rect x="59.094" y="96.186" fill="#E3A800" width="1.451" height="1.517"/>
			</g>
		</g>
	</g>
	<g>
		<g>
			<rect x="88.196" y="88.188" fill="#E3A800" width="1.452" height="1.517"/>
			<rect x="90.468" y="88.188" fill="#E3A800" width="1.449" height="1.517"/>
			<rect x="88.196" y="86.201" fill="#E3A800" width="1.452" height="1.514"/>
			<rect x="90.468" y="86.201" fill="#E3A800" width="1.449" height="1.514"/>
			<rect x="88.196" y="84.309" fill="#E3A800" width="1.452" height="1.517"/>
			<rect x="90.468" y="84.309" fill="#E3A800" width="1.449" height="1.517"/>
		</g>
		<polygon fill="#E3A800" points="86.271,83.788 93.701,83.788 89.962,80.665 		"/>
		<polyline fill="#E3A800" points="87.312,83.503 87.312,91.217 92.849,91.217 92.849,83.361 		"/>
	</g>
	<g>
		<g>
			<rect x="73.717" y="88.236" fill="#E3A800" width="1.448" height="1.515"/>
			<rect x="75.987" y="88.236" fill="#E3A800" width="1.451" height="1.515"/>
			<rect x="73.717" y="86.249" fill="#E3A800" width="1.448" height="1.515"/>
			<rect x="75.987" y="86.249" fill="#E3A800" width="1.451" height="1.515"/>
			<rect x="73.717" y="84.355" fill="#E3A800" width="1.448" height="1.515"/>
			<rect x="75.987" y="84.355" fill="#E3A800" width="1.451" height="1.515"/>
		</g>
		<polygon fill="#E3A800" points="71.791,83.835 79.221,83.835 75.483,80.712 		"/>
		<polyline fill="#E3A800" points="72.833,83.551 72.833,91.266 78.369,91.266 78.369,83.408 		"/>
	</g>
	<g>
		<g>
			<rect x="102.866" y="88.143" fill="#E3A800" width="1.451" height="1.514"/>
			<rect x="105.137" y="88.143" fill="#E3A800" width="1.45" height="1.514"/>
			<rect x="102.866" y="86.152" fill="#E3A800" width="1.451" height="1.517"/>
			<rect x="105.137" y="86.152" fill="#E3A800" width="1.45" height="1.517"/>
			<rect x="102.866" y="84.262" fill="#E3A800" width="1.451" height="1.514"/>
			<rect x="105.137" y="84.262" fill="#E3A800" width="1.45" height="1.514"/>
		</g>
		<polygon fill="#E3A800" points="100.941,83.74 108.37,83.74 104.631,80.615 		"/>
		<polyline fill="#E3A800" points="101.981,83.457 101.981,91.17 107.518,91.17 107.518,83.314 		"/>
	</g>
	<rect x="50.559" y="92.389" fill="#E3A800" width="79.562" height="1"/>
	<rect x="50.307" y="102.736" fill="#E3A800" width="76.66" height="1"/>
	<rect x="48.226" y="131.697" fill="#E3A800" width="78.361" height="1"/>
	<g>
		<g>
			<g>
				<rect x="305.793" y="111.85" fill="#E3A800" width="1.449" height="1.516"/>
				<rect x="308.062" y="111.85" fill="#E3A800" width="1.451" height="1.516"/>
				<rect x="305.793" y="109.861" fill="#E3A800" width="1.449" height="1.515"/>
				<rect x="308.062" y="109.861" fill="#E3A800" width="1.451" height="1.515"/>
				<rect x="305.793" y="107.969" fill="#E3A800" width="1.449" height="1.514"/>
				<rect x="308.062" y="107.969" fill="#E3A800" width="1.451" height="1.514"/>
			</g>
			<g>
				<rect x="290.98" y="111.85" fill="#E3A800" width="1.451" height="1.516"/>
				<rect x="293.251" y="111.85" fill="#E3A800" width="1.451" height="1.516"/>
				<rect x="290.98" y="109.861" fill="#E3A800" width="1.451" height="1.515"/>
				<rect x="293.251" y="109.861" fill="#E3A800" width="1.451" height="1.515"/>
				<rect x="290.98" y="107.969" fill="#E3A800" width="1.451" height="1.514"/>
				<rect x="293.251" y="107.969" fill="#E3A800" width="1.451" height="1.514"/>
			</g>
			<g>
				<rect x="276.311" y="111.85" fill="#E3A800" width="1.449" height="1.516"/>
				<rect x="278.582" y="111.85" fill="#E3A800" width="1.449" height="1.516"/>
				<rect x="276.311" y="109.861" fill="#E3A800" width="1.449" height="1.515"/>
				<rect x="278.582" y="109.861" fill="#E3A800" width="1.449" height="1.515"/>
				<rect x="276.311" y="107.969" fill="#E3A800" width="1.449" height="1.514"/>
				<rect x="278.582" y="107.969" fill="#E3A800" width="1.449" height="1.514"/>
			</g>
			<g>
				<rect x="261.5" y="111.85" fill="#E3A800" width="1.449" height="1.516"/>
				<rect x="263.77" y="111.85" fill="#E3A800" width="1.451" height="1.516"/>
				<rect x="261.5" y="109.861" fill="#E3A800" width="1.449" height="1.515"/>
				<rect x="263.77" y="109.861" fill="#E3A800" width="1.451" height="1.515"/>
				<rect x="261.5" y="107.969" fill="#E3A800" width="1.449" height="1.514"/>
				<rect x="263.77" y="107.969" fill="#E3A800" width="1.451" height="1.514"/>
			</g>
			<g>
				<g>
					<g>
						<rect x="261.121" y="125.619" fill="#E3A800" width="1.451" height="1.516"/>
						<rect x="263.391" y="125.619" fill="#E3A800" width="1.453" height="1.516"/>
						<rect x="261.121" y="123.82" fill="#E3A800" width="1.451" height="1.516"/>
						<rect x="263.391" y="123.82" fill="#E3A800" width="1.453" height="1.516"/>
						<rect x="261.121" y="121.834" fill="#E3A800" width="1.451" height="1.514"/>
						<rect x="263.391" y="121.834" fill="#E3A800" width="1.453" height="1.514"/>
						<rect x="261.121" y="119.939" fill="#E3A800" width="1.451" height="1.517"/>
						<rect x="263.391" y="119.939" fill="#E3A800" width="1.453" height="1.517"/>
					</g>
					<g>
						<rect x="275.789" y="125.619" fill="#E3A800" width="1.451" height="1.516"/>
						<rect x="278.061" y="125.619" fill="#E3A800" width="1.451" height="1.516"/>
						<rect x="275.789" y="123.82" fill="#E3A800" width="1.451" height="1.516"/>
						<rect x="278.061" y="123.82" fill="#E3A800" width="1.451" height="1.516"/>
						<rect x="275.789" y="121.834" fill="#E3A800" width="1.451" height="1.514"/>
						<rect x="278.061" y="121.834" fill="#E3A800" width="1.451" height="1.514"/>
						<rect x="275.789" y="119.939" fill="#E3A800" width="1.451" height="1.517"/>
						<rect x="278.061" y="119.939" fill="#E3A800" width="1.451" height="1.517"/>
					</g>
					<g>
						<rect x="290.695" y="125.619" fill="#E3A800" width="1.451" height="1.516"/>
						<rect x="292.969" y="125.619" fill="#E3A800" width="1.449" height="1.516"/>
						<rect x="290.695" y="123.82" fill="#E3A800" width="1.451" height="1.516"/>
						<rect x="292.969" y="123.82" fill="#E3A800" width="1.449" height="1.516"/>
						<rect x="290.695" y="121.834" fill="#E3A800" width="1.451" height="1.514"/>
						<rect x="292.969" y="121.834" fill="#E3A800" width="1.449" height="1.514"/>
						<rect x="290.695" y="119.939" fill="#E3A800" width="1.451" height="1.517"/>
						<rect x="292.969" y="119.939" fill="#E3A800" width="1.449" height="1.517"/>
					</g>
					<g>
						<rect x="305.839" y="125.619" fill="#E3A800" width="1.45" height="1.516"/>
						<rect x="308.109" y="125.619" fill="#E3A800" width="1.451" height="1.516"/>
						<rect x="305.839" y="123.82" fill="#E3A800" width="1.45" height="1.516"/>
						<rect x="308.109" y="123.82" fill="#E3A800" width="1.451" height="1.516"/>
						<rect x="305.839" y="121.834" fill="#E3A800" width="1.45" height="1.514"/>
						<rect x="308.109" y="121.834" fill="#E3A800" width="1.451" height="1.514"/>
						<rect x="305.839" y="119.939" fill="#E3A800" width="1.45" height="1.517"/>
						<rect x="308.109" y="119.939" fill="#E3A800" width="1.451" height="1.517"/>
					</g>
					<g>
						<rect x="321.219" y="125.619" fill="#E3A800" width="1.449" height="1.516"/>
						<rect x="323.49" y="125.619" fill="#E3A800" width="1.449" height="1.516"/>
						<rect x="321.219" y="123.82" fill="#E3A800" width="1.449" height="1.516"/>
						<rect x="323.49" y="123.82" fill="#E3A800" width="1.449" height="1.516"/>
						<rect x="321.219" y="121.834" fill="#E3A800" width="1.449" height="1.514"/>
						<rect x="323.49" y="121.834" fill="#E3A800" width="1.449" height="1.514"/>
						<rect x="321.219" y="119.939" fill="#E3A800" width="1.449" height="1.517"/>
						<rect x="323.49" y="119.939" fill="#E3A800" width="1.449" height="1.517"/>
					</g>
				</g>
				<g>
					<rect x="321.359" y="111.85" fill="#E3A800" width="1.451" height="1.516"/>
					<rect x="323.631" y="111.85" fill="#E3A800" width="1.447" height="1.516"/>
					<rect x="321.359" y="109.861" fill="#E3A800" width="1.451" height="1.515"/>
					<rect x="323.631" y="109.861" fill="#E3A800" width="1.447" height="1.515"/>
					<rect x="321.359" y="107.969" fill="#E3A800" width="1.451" height="1.514"/>
					<rect x="323.631" y="107.969" fill="#E3A800" width="1.447" height="1.514"/>
				</g>
				<g>
					<rect x="321.123" y="100.111" fill="#E3A800" width="1.451" height="1.518"/>
					<rect x="323.393" y="100.111" fill="#E3A800" width="1.451" height="1.518"/>
					<rect x="321.123" y="98.126" fill="#E3A800" width="1.451" height="1.515"/>
					<rect x="323.393" y="98.126" fill="#E3A800" width="1.451" height="1.515"/>
					<rect x="321.123" y="96.232" fill="#E3A800" width="1.451" height="1.516"/>
					<rect x="323.393" y="96.232" fill="#E3A800" width="1.451" height="1.516"/>
				</g>
				<g>
					<rect x="305.553" y="100.111" fill="#E3A800" width="1.451" height="1.518"/>
					<rect x="307.826" y="100.111" fill="#E3A800" width="1.451" height="1.518"/>
					<rect x="305.553" y="98.126" fill="#E3A800" width="1.451" height="1.515"/>
					<rect x="307.826" y="98.126" fill="#E3A800" width="1.451" height="1.515"/>
					<rect x="305.553" y="96.232" fill="#E3A800" width="1.451" height="1.516"/>
					<rect x="307.826" y="96.232" fill="#E3A800" width="1.451" height="1.516"/>
				</g>
				<g>
					<rect x="290.744" y="100.111" fill="#E3A800" width="1.451" height="1.518"/>
					<rect x="293.016" y="100.111" fill="#E3A800" width="1.449" height="1.518"/>
					<rect x="290.744" y="98.126" fill="#E3A800" width="1.451" height="1.515"/>
					<rect x="293.016" y="98.126" fill="#E3A800" width="1.449" height="1.515"/>
					<rect x="290.744" y="96.232" fill="#E3A800" width="1.451" height="1.516"/>
					<rect x="293.016" y="96.232" fill="#E3A800" width="1.449" height="1.516"/>
				</g>
				<g>
					<rect x="276.074" y="100.111" fill="#E3A800" width="1.451" height="1.518"/>
					<rect x="278.346" y="100.111" fill="#E3A800" width="1.448" height="1.518"/>
					<rect x="276.074" y="98.126" fill="#E3A800" width="1.451" height="1.515"/>
					<rect x="278.346" y="98.126" fill="#E3A800" width="1.448" height="1.515"/>
					<rect x="276.074" y="96.232" fill="#E3A800" width="1.451" height="1.516"/>
					<rect x="278.346" y="96.232" fill="#E3A800" width="1.448" height="1.516"/>
				</g>
				<g>
					<rect x="261.264" y="100.111" fill="#E3A800" width="1.448" height="1.518"/>
					<rect x="263.535" y="100.111" fill="#E3A800" width="1.449" height="1.518"/>
					<rect x="261.264" y="98.126" fill="#E3A800" width="1.448" height="1.515"/>
					<rect x="263.535" y="98.126" fill="#E3A800" width="1.449" height="1.515"/>
					<rect x="261.264" y="96.232" fill="#E3A800" width="1.448" height="1.516"/>
					<rect x="263.535" y="96.232" fill="#E3A800" width="1.449" height="1.516"/>
				</g>
			</g>
		</g>
		<g>
			<g>
				<rect x="289.594" y="88.188" fill="#E3A800" width="1.448" height="1.517"/>
				<rect x="291.863" y="88.188" fill="#E3A800" width="1.451" height="1.517"/>
				<rect x="289.594" y="86.201" fill="#E3A800" width="1.448" height="1.514"/>
				<rect x="291.863" y="86.201" fill="#E3A800" width="1.451" height="1.514"/>
				<rect x="289.594" y="84.309" fill="#E3A800" width="1.448" height="1.517"/>
				<rect x="291.863" y="84.309" fill="#E3A800" width="1.451" height="1.517"/>
			</g>
			<polygon fill="#E3A800" points="287.668,83.788 295.096,83.788 291.359,80.665 			"/>
			<polyline fill="#E3A800" points="288.709,83.503 288.709,91.217 294.244,91.217 294.244,83.361 			"/>
		</g>
		<g>
			<g>
				<rect x="275.111" y="88.236" fill="#E3A800" width="1.451" height="1.515"/>
				<rect x="277.385" y="88.236" fill="#E3A800" width="1.448" height="1.515"/>
				<rect x="275.111" y="86.249" fill="#E3A800" width="1.451" height="1.515"/>
				<rect x="277.385" y="86.249" fill="#E3A800" width="1.448" height="1.515"/>
				<rect x="275.111" y="84.355" fill="#E3A800" width="1.451" height="1.515"/>
				<rect x="277.385" y="84.355" fill="#E3A800" width="1.448" height="1.515"/>
			</g>
			<polygon fill="#E3A800" points="273.188,83.835 280.617,83.835 276.878,80.712 			"/>
			<polyline fill="#E3A800" points="274.229,83.551 274.229,91.266 279.766,91.266 279.766,83.408 			"/>
		</g>
		<g>
			<g>
				<rect x="304.26" y="88.143" fill="#E3A800" width="1.45" height="1.514"/>
				<rect x="306.533" y="88.143" fill="#E3A800" width="1.451" height="1.514"/>
				<rect x="304.26" y="86.152" fill="#E3A800" width="1.45" height="1.517"/>
				<rect x="306.533" y="86.152" fill="#E3A800" width="1.451" height="1.517"/>
				<rect x="304.26" y="84.262" fill="#E3A800" width="1.45" height="1.514"/>
				<rect x="306.533" y="84.262" fill="#E3A800" width="1.451" height="1.514"/>
			</g>
			<polygon fill="#E3A800" points="302.336,83.74 309.766,83.74 306.027,80.615 			"/>
			<polyline fill="#E3A800" points="303.377,83.457 303.377,91.17 308.914,91.17 308.914,83.314 			"/>
		</g>
		<g>
			<line fill="none" x1="251.766" y1="92.826" x2="331.33" y2="92.572"/>
			<line fill="none" x1="254.542" y1="103.109" x2="331.203" y2="102.982"/>
			<line fill="none" x1="254.732" y1="132.007" x2="333.096" y2="132.007"/>
		</g>
	</g>
	<polygon fill="#FFFFFF" points="129.549,156.244 128.549,156.227 128.926,135.148 126.465,130.23 128.555,129.395 128.924,106.811 
		127.018,104.33 127.227,102.24 128.221,102.34 128.053,104.035 129.93,106.477 129.544,130.077 127.846,130.755 129.93,134.922 	
		"/>
	<polygon fill="#FFFFFF" points="252.15,155.865 251.77,134.544 253.852,130.378 252.154,129.697 251.77,106.098 253.646,103.656 
		253.477,101.961 254.473,101.861 254.682,103.951 252.775,106.432 253.145,129.018 255.232,129.852 252.773,134.771 
		253.15,155.848 	"/>
	<g>
		<path fill="#FFFFFF" d="M173.249,66.628l-0.19-0.979c0.096-0.021,10.035-1.889,37.787-0.578l-0.049,1
			C183.16,64.762,173.344,66.607,173.249,66.628z"/>
		<path fill="#FFFFFF" d="M226.199,79.678c-37.836-11.183-71.104-0.306-71.438-0.193l-0.318-0.947
			c0.334-0.112,33.905-11.088,72.04,0.184L226.199,79.678z"/>
		<path fill="#FFFFFF" d="M139.967,84.98l-0.257-0.969c0.487-0.129,49.364-12.756,100.942-0.189l-0.235,0.973
			C189.08,72.286,140.453,84.852,139.967,84.98z"/>
		<path fill="#FFFFFF" d="M252.688,101.062c-37.146-11.699-68.983-11.08-89.156-8.502c-21.854,2.793-35.1,8.43-35.229,8.484
			l-0.396-0.918c0.529-0.229,53.619-22.527,125.083-0.02L252.688,101.062z"/>
		<path fill="#FFFFFF" d="M251.453,130.23c-76.611-9.526-120.159-0.104-120.592-0.008l-0.217-0.977
			c0.434-0.1,44.131-9.562,120.934-0.01L251.453,130.23z"/>
		<path fill="#FFFFFF" d="M130.27,136.475l-0.172-0.982c0.514-0.09,51.973-8.812,120.529-0.383l-0.122,0.99
			C182.094,127.688,130.779,136.385,130.27,136.475z"/>
	</g>
	<g>
		<g>
			<polygon fill="#FFFFFF" points="139.27,122.922 144.098,122.07 144.287,110.523 139.176,111.85 			"/>
			<path fill="#FFFFFF" d="M139.176,109.293l5.205-1.135C144.381,108.158,141.637,98.979,139.176,109.293z"/>
			<polygon fill="#FFFFFF" points="133.023,124.529 134.443,123.68 134.635,112.605 133.307,113.646 			"/>
			<path fill="#FFFFFF" d="M133.213,111.092l1.799-1.041C135.012,110.051,134.443,100.209,133.213,111.092z"/>
			<polyline fill="#FFFFFF" points="149.682,121.786 159.145,120.461 159.053,108.725 149.871,109.766 149.682,121.786 			"/>
			<path fill="#FFFFFF" d="M149.871,107.115c0,0,2.082-7.1,6.438-5.487c2.555,0.851,2.744,4.636,2.744,4.636L149.871,107.115z"/>
			<polygon fill="#FFFFFF" points="165.77,108.348 177.127,107.779 176.654,119.893 165.77,119.988 			"/>
			<path fill="#FFFFFF" d="M165.58,105.791c0,0,2.462-6.908,7.855-5.396c3.689,1.326,3.596,4.732,3.596,4.732L165.58,105.791z"/>
			<polygon fill="#FFFFFF" points="242.523,123.018 237.697,122.165 237.51,110.618 242.619,111.943 			"/>
			<path fill="#FFFFFF" d="M242.619,109.389l-5.205-1.137C237.414,108.253,240.156,99.072,242.619,109.389z"/>
			<polygon fill="#FFFFFF" points="248.77,124.625 247.35,123.771 247.16,112.699 248.486,113.74 			"/>
			<path fill="#FFFFFF" d="M248.58,111.188l-1.797-1.043C246.781,110.145,247.35,100.301,248.58,111.188z"/>
			<polyline fill="#FFFFFF" points="232.111,121.879 222.648,120.557 222.744,108.82 231.926,109.861 232.111,121.879 			"/>
			<path fill="#FFFFFF" d="M231.926,107.211c0,0-2.084-7.1-6.439-5.488c-2.555,0.854-2.742,4.637-2.742,4.637L231.926,107.211z"/>
			<polygon fill="#FFFFFF" points="216.023,108.441 204.667,107.875 205.141,119.988 216.023,120.082 			"/>
			<path fill="#FFFFFF" d="M216.213,105.887c0,0-2.46-6.908-7.854-5.396c-3.69,1.326-3.596,4.73-3.596,4.73L216.213,105.887z"/>
			<polygon fill="#FFFFFF" points="184.697,107.969 196.246,107.875 196.529,119.607 184.51,119.516 			"/>
			<path fill="#FFFFFF" d="M184.792,104.656c0,0,1.987-5.396,6.722-4.922c4.729,0.475,5.205,5.396,5.205,5.396l-11.926,0.188"/>
		</g>
		<g>
			<g>
				<path fill="#FFFFFF" d="M53.336,157.749V144.5c0,0-0.253-5.428,4.668-5.555c4.922-0.125,4.797,5.428,4.797,5.428v14.26h-9.465"
					/>
				<path fill="#FFFFFF" d="M83.495,157.749V144.5c0,0-0.252-5.428,4.669-5.555c4.921-0.125,4.795,5.428,4.795,5.428v14.26h-9.464"
					/>
				<path fill="#FFFFFF" d="M68.227,157.749V144.5c0,0-0.253-5.428,4.668-5.555c4.92-0.125,4.795,5.428,4.795,5.428v14.26h-9.464"/>
				<path fill="#FFFFFF" d="M98.134,157.749V144.5c0,0-0.253-5.428,4.669-5.555c4.921-0.125,4.794,5.428,4.794,5.428v14.26h-9.465"
					/>
				<path fill="#FFFFFF" d="M113.779,157.749V144.5c0,0-0.252-5.428,4.67-5.555c4.922-0.125,4.795,5.428,4.795,5.428v14.26h-9.465"
					/>
				<path fill="#FFFFFF" d="M258.518,157.749V144.5c0,0-0.252-5.428,4.67-5.555c4.92-0.125,4.795,5.428,4.795,5.428v14.26h-9.465"/>
				<path fill="#FFFFFF" d="M288.678,157.749V144.5c0,0-0.252-5.428,4.668-5.555c4.922-0.125,4.795,5.428,4.795,5.428v14.26h-9.463"
					/>
				<path fill="#FFFFFF" d="M273.41,157.749V144.5c0,0-0.256-5.428,4.668-5.555c4.922-0.125,4.793,5.428,4.793,5.428v14.26h-9.461"
					/>
				<path fill="#FFFFFF" d="M303.314,157.749V144.5c0,0-0.252-5.428,4.668-5.555c4.922-0.125,4.795,5.428,4.795,5.428v14.26h-9.463"
					/>
				<path fill="#FFFFFF" d="M318.961,157.749V144.5c0,0-0.25-5.428,4.67-5.555c4.924-0.125,4.795,5.428,4.795,5.428v14.26h-9.465"/>
			</g>
			<g>
				<polygon fill="#FFFFFF" points="165.676,142.891 177.031,142.322 176.559,154.438 165.676,154.531 				"/>
				<path fill="#FFFFFF" d="M165.486,140.335c0,0,2.459-6.909,7.855-5.396c3.688,1.324,3.596,4.729,3.596,4.729L165.486,140.335z"/>
				<polygon fill="#FFFFFF" points="215.93,142.984 204.572,142.418 205.046,154.531 215.93,154.626 				"/>
				<path fill="#FFFFFF" d="M216.119,140.43c0,0-2.461-6.908-7.854-5.395c-3.691,1.324-3.6,4.73-3.6,4.73L216.119,140.43z"/>
				<polygon fill="#FFFFFF" points="184.604,142.514 196.148,142.418 196.434,154.152 184.414,154.059 				"/>
				<path fill="#FFFFFF" d="M184.697,139.199c0,0,1.988-5.396,6.721-4.922c4.73,0.475,5.205,5.396,5.205,5.396l-11.924,0.188"/>
				<polygon fill="#FFFFFF" points="150.723,142.984 158.861,142.891 159.24,154.342 150.438,154.438 				"/>
				<path fill="#FFFFFF" d="M158.861,140.335c0,0-0.188-1.894-1.324-4.069c-4.068-4.259-6.908,3.785-6.908,3.785"/>
				<polygon fill="#FFFFFF" points="138.891,143.458 144.191,143.458 144.57,154.531 138.607,154.531 				"/>
				<path fill="#FFFFFF" d="M144.287,141.188c0,0,0.188-1.797,0.094-2.461c-3.217-6.812-5.773,2.178-5.773,2.178L144.287,141.188z"
					/>
				<path fill="#FFFFFF" d="M131.51,140.809c0,0,1.42-7.099,2.934-2.934c1.137,2.839,0.379,3.312,0.379,3.312l-2.934-0.094
					L131.51,140.809z"/>
				<polygon fill="#FFFFFF" points="131.604,143.363 134.917,143.553 135.012,153.303 131.51,153.303 				"/>
				<polygon fill="#FFFFFF" points="230.977,142.795 222.838,142.701 222.459,154.152 231.262,154.248 				"/>
				<path fill="#FFFFFF" d="M222.838,140.146c0,0,0.189-1.895,1.325-4.067c4.067-4.261,6.907,3.784,6.907,3.784"/>
				<polygon fill="#FFFFFF" points="242.807,143.27 237.51,143.27 237.129,154.342 243.092,154.342 				"/>
				<path fill="#FFFFFF" d="M237.414,140.998c0,0-0.189-1.799-0.098-2.46c3.219-6.815,5.774,2.176,5.774,2.176L237.414,140.998z"/>
				<path fill="#FFFFFF" d="M250.188,140.62c0,0-1.418-7.101-2.935-2.937c-1.134,2.84-0.378,3.312-0.378,3.312l2.936-0.097
					L250.188,140.62z"/>
				<polygon fill="#FFFFFF" points="250.094,143.174 246.781,143.363 246.688,153.111 250.188,153.111 				"/>
			</g>
		</g>
	</g>
</g>
</svg>
