<svg id="Calque_1" data-name="Calque 1" xmlns="http://www.w3.org/2000/svg" viewBox="0 0 1307.43 109.21"><defs><style>.cls-1{fill:#ee7284;}.cls-2{fill:#263239;}.cls-3{opacity:0.1;}.cls-4{fill:#000100;}.cls-5{fill:#37474f;}.cls-6{fill:#465a64;}.cls-7{fill:#1a2f36;}.cls-8{fill:#395b65;}.cls-9{fill:#e1e1e0;}.cls-10{fill:#ea5361;}.cls-11{opacity:0.3;}.cls-12{fill:none;}.cls-13{fill:#fff;}.cls-14{opacity:0.2;}.cls-15{fill:#c8c7c7;}</style></defs><polygon class="cls-1" points="1148.54 71.21 1148.29 76.08 1147.16 103.79 1127.45 103.79 1126.32 76.08 1126.07 71.21 1148.54 71.21"/><polygon class="cls-2" points="1148.54 71.21 1148.29 76.08 1126.32 76.08 1126.07 71.21 1148.54 71.21"/><g class="cls-3"><path class="cls-4" d="M1129.52,77.47a.48.48,0,0,0-.49.49v2.33l0,3.11.08,6.2.07,6.21,0,3.1v2.33a.28.28,0,0,0,.28.28.29.29,0,0,0,.28-.28V98.91l0-3.1.07-6.21.08-6.2,0-3.11V78A.49.49,0,0,0,1129.52,77.47Zm0,0a.51.51,0,0,1,.5.49V83.4l.08,6.2.08,6.21v5.43a.71.71,0,0,1-.71.71.7.7,0,0,1-.7-.71V95.81l.08-6.21.08-6.2V78A.51.51,0,0,1,1129.52,77.47Z"/><path class="cls-4" d="M1132.11,77.47a.48.48,0,0,0-.48.49V83.4l.08,6.2.08,6.21v5.43a.29.29,0,0,0,.28.28.28.28,0,0,0,.28-.28V95.81l.08-6.21.08-6.2V78A.48.48,0,0,0,1132.11,77.47Zm0,0a.49.49,0,0,1,.5.49v2.33l0,3.11.08,6.2.07,6.21,0,3.1v2.33a.71.71,0,1,1-1.41,0V98.91l0-3.1.07-6.21.08-6.2,0-3.11V78A.49.49,0,0,1,1132.11,77.47Z"/><path class="cls-4" d="M1134.71,77.47a.48.48,0,0,0-.49.49v2.33l0,3.11.08,6.2.07,6.21,0,3.1v2.33a.27.27,0,0,0,.28.28.29.29,0,0,0,.28-.28V98.91l0-3.1.07-6.21.08-6.2V78A.49.49,0,0,0,1134.71,77.47Zm0,0a.51.51,0,0,1,.5.49V83.4l.08,6.2.08,6.21v5.43a.7.7,0,0,1-.7.71.71.71,0,0,1-.71-.71V95.81l.08-6.21.07-6.2,0-3.11V78A.5.5,0,0,1,1134.71,77.47Z"/><path class="cls-4" d="M1137.3,77.47a.48.48,0,0,0-.48.49V83.4l.08,6.2.08,6.21v5.43a.29.29,0,0,0,.28.28.28.28,0,0,0,.28-.28V98.91l0-3.1.08-6.21.07-6.2,0-3.11V78A.48.48,0,0,0,1137.3,77.47Zm0,0a.49.49,0,0,1,.5.49v2.33l0,3.11.07,6.2.08,6.21,0,3.1v2.33a.71.71,0,0,1-.71.71.7.7,0,0,1-.7-.71V98.91l0-3.1.07-6.21.08-6.2,0-3.11V78A.49.49,0,0,1,1137.3,77.47Z"/><path class="cls-4" d="M1139.9,77.47a.48.48,0,0,0-.49.49v2.33l0,3.11.07,6.2.08,6.21,0,3.1v2.33a.27.27,0,0,0,.28.28.29.29,0,0,0,.28-.28V95.81l.08-6.21.08-6.2V78A.49.49,0,0,0,1139.9,77.47Zm0,0a.49.49,0,0,1,.49.49V83.4l.08,6.2.08,6.21v5.43a.7.7,0,0,1-.7.71.71.71,0,0,1-.71-.71V95.81l.08-6.21.07-6.2,0-3.11V78A.5.5,0,0,1,1139.9,77.47Z"/><path class="cls-4" d="M1142.49,77.47a.49.49,0,0,0-.49.49v2.33l0,3.11.08,6.2.07,6.21,0,3.1v2.33a.28.28,0,1,0,.56,0V98.91l0-3.1.08-6.21.07-6.2,0-3.11V78A.48.48,0,0,0,1142.49,77.47Zm0,0a.49.49,0,0,1,.5.49v2.33l0,3.11.07,6.2.08,6.21v5.43a.71.71,0,0,1-.71.71.7.7,0,0,1-.7-.71V98.91l0-3.1.07-6.21.08-6.2V78A.49.49,0,0,1,1142.49,77.47Z"/><path class="cls-4" d="M1145.09,77.47a.48.48,0,0,0-.49.49v2.33l0,3.11.07,6.2.08,6.21v5.43a.27.27,0,0,0,.28.28.29.29,0,0,0,.28-.28V95.81l.08-6.21.08-6.2V78A.5.5,0,0,0,1145.09,77.47Zm0,0a.49.49,0,0,1,.49.49v2.33l0,3.11.08,6.2.07,6.21,0,3.1v2.33a.7.7,0,0,1-.7.71.71.71,0,0,1-.71-.71V98.91l0-3.1.08-6.21.07-6.2,0-3.11V78A.49.49,0,0,1,1145.09,77.47Z"/></g><polygon class="cls-1" points="1141.6 66.08 1141.6 69.5 1140.29 69.5 1140.29 67.24 1134.32 67.24 1134.32 69.5 1133.01 69.5 1133.01 66.08 1141.6 66.08"/><rect class="cls-1" x="1133.01" y="68.01" width="1.31" height="1.48"/><rect class="cls-1" x="1140.29" y="68.01" width="1.31" height="1.48"/><rect class="cls-1" x="1124.59" y="68.81" width="25.42" height="3.95"/><path class="cls-5" d="M1203.8,103.46s-1.51-7-4.52-8.13-4.85,2.08-4.85,2.08-.71-6.73-5-8.75-7.49,2.11-7.49,2.11-3.27-8.53-9.13-8.53S1164,94.73,1164,94.73s-3.45-3.72-7-1.62-3.54,10.35-3.54,10.35Z"/><path class="cls-6" d="M1226.38,103.46h-27.89s.06-4.15,2.8-5.25a3.73,3.73,0,0,1,4.38,1s1.12-7.63,6.22-7.63,7.56,6.59,7.56,6.59a3.91,3.91,0,0,1,4-1.63C1226.27,97,1226.38,103.46,1226.38,103.46Z"/><path class="cls-5" d="M859.92,103.13h50s-.12-7.45-5-9.42a6.7,6.7,0,0,0-7.84,1.88s-2-13.69-11.16-13.69-13.55,11.81-13.55,11.81-2.05-3.57-7.13-2.91S859.92,103.13,859.92,103.13Z"/><path class="cls-6" d="M901,103.13h46.1s-1.52-6.51-4.58-7S938,98.72,938,98.72s.13-9.07-5.58-10.61-10.49,6.46-10.49,6.46-3.58-4.56-8.46-4.27-6.12,7.84-6.12,7.84S902.92,95.52,901,103.13Z"/><rect class="cls-7" x="453.45" y="4.16" width="84.92" height="99.94"/><rect class="cls-8" x="453.42" width="84.92" height="5.1"/><path class="cls-8" d="M478.64,26.31a.31.31,0,0,1,0-.09V26c0-.24,0-.58,0-1,0-.9,0-2.2,0-3.84l.05.05-16.9,0,.07-.07h0v5.21l-.07-.06,12.07,0,3.54,0h1.29s0,0-.08,0h-1.18l-3.53,0-12.11,0h-.06V21.1h0l.06-.06,16.9,0h0v0c0,1.65,0,3,0,3.87,0,.44,0,.78,0,1s0,.2,0,.26v.08"/><path class="cls-8" d="M495.57,26.31s0,0,0-.09V26c0-.24,0-.58,0-1,0-.9,0-2.2,0-3.84l.05.05-16.9,0,.07-.07h0v5.21l-.07-.06,12.07,0,3.54,0h1.29s0,0-.08,0h-1.18l-3.53,0-12.11,0h-.06V21.1h0l.06-.06,16.9,0h0v0c0,1.65,0,3,0,3.87,0,.44,0,.78,0,1s0,.2,0,.26v.08"/><path class="cls-8" d="M512.5,26.31s0,0,0-.09V26c0-.24,0-.58,0-1,0-.9,0-2.2,0-3.84l0,.05-16.9,0,.07-.07h0v5.21l-.07-.06,12.07,0,3.54,0h1.29s0,0-.08,0h-1.18l-3.53,0-12.11,0h-.06V21.1h0l.06-.06,16.9,0h0v0c0,1.65,0,3,0,3.87,0,.44,0,.78,0,1v.34"/><path class="cls-8" d="M529.43,26.31s0,0,0-.09V26c0-.24,0-.58,0-1,0-.9,0-2.2,0-3.84l0,.05-16.9,0s-.06.07.07-.07h0v5.21l-.07-.06,12.07,0,3.54,0h1.29s0,0-.08,0h-1.19l-3.52,0-12.11,0h-.06V21.1h0l.06-.06,16.9,0h0v0c0,1.65,0,3,0,3.87,0,.44,0,.78,0,1v.34"/><path class="cls-8" d="M478.64,15.88a.31.31,0,0,1,0-.09v-.27c0-.24,0-.59,0-1,0-.9,0-2.2,0-3.84l.05,0-16.9,0,.07-.07h0v5.21l-.07-.06,12.07,0h3.57l-3.53,0-12.11,0h-.06V10.67h0c.13-.13,0,0,.06-.07l16.9,0h0v0c0,1.65,0,3,0,3.86,0,.44,0,.79,0,1s0,.2,0,.26v.09"/><path class="cls-8" d="M495.57,15.88s0,0,0-.09v-.27c0-.24,0-.59,0-1,0-.9,0-2.2,0-3.84l.05,0-16.9,0,.07-.07h0v5.21l-.07-.06,12.07,0h3.57l-3.53,0-12.11,0h-.06V10.67h0c.13-.13,0,0,.06-.07l16.9,0h0v0c0,1.65,0,3,0,3.86,0,.44,0,.79,0,1s0,.2,0,.26v.09"/><path class="cls-8" d="M512.5,15.88s0,0,0-.09v-.27c0-.24,0-.59,0-1,0-.9,0-2.2,0-3.84l0,0-16.9,0,.07-.07h0v5.21l-.07-.06,12.07,0h3.57l-3.53,0L495.6,16h-.06V10.67h0c.13-.13,0,0,.06-.07l16.9,0h0v0c0,1.65,0,3,0,3.86,0,.44,0,.79,0,1v.35"/><path class="cls-8" d="M529.43,15.88s0,0,0-.09v-.27c0-.24,0-.59,0-1,0-.9,0-2.2,0-3.84l0,0-16.9,0,.07-.07h0v5.21l-.07-.06,12.07,0h3.56l-3.52,0-12.11,0h-.06V10.67h0c.13-.13,0,0,.06-.07l16.9,0h0v0c0,1.65,0,3,0,3.86,0,.44,0,.79,0,1v.35"/><path class="cls-8" d="M487.36,31.55s0,0,0-.1v-.27c0-.24,0-.58,0-1,0-.9,0-2.2,0-3.83l.05,0-16.9,0s-.06.07.07-.06h0v5.22l-.07-.07,12.07,0,3.54,0h0l-3.53,0-12.11,0h-.06V26.33h0c.13-.14,0,0,.06-.07l16.9,0h0v.05c0,1.64,0,2.95,0,3.86,0,.44,0,.78,0,1v.35"/><path class="cls-8" d="M504.22,31.55v-.1c0-.06,0-.15,0-.27s0-.58,0-1c0-.9,0-2.2,0-3.83l0,0-16.89,0s-.07.07.07-.06h0V29c0,.87,0,1.73,0,2.56l-.06-.07,12.06,0,3.54,0h1.2c.06,0,.09,0,.09,0H503l-3.52,0-12.11,0h-.07V26.33h0l.07-.07,16.89,0h0v.05c0,1.64,0,2.95,0,3.86,0,.44,0,.78,0,1v.26a.31.31,0,0,1,0,.09"/><path class="cls-8" d="M495.21,36.78a.36.36,0,0,1,0-.1v-.26c0-.25,0-.59,0-1,0-.9,0-2.2,0-3.83l0,0-16.9,0s-.06.07.07-.06h0v5.21l-.07-.07,12.07,0,3.54,0h0l-3.53,0-12.11,0h-.06V31.57h0c.13-.14,0,0,.06-.07l16.9,0h0v.05c0,1.64,0,2.95,0,3.86,0,.44,0,.78,0,1s0,.2,0,.26v.09"/><path class="cls-8" d="M512,36.78v-.1c0-.06,0-.15,0-.26s0-.59,0-1c0-.9,0-2.2,0-3.83l0,0-16.89,0s-.07.07.07-.06h0v5.21l-.07-.07,12.07,0,3.53,0h0l-3.52,0-12.11,0h-.06v-.06c0-.83,0-1.69,0-2.56V31.57h0l.07-.07,16.89,0h.05v.05c0,1.64,0,2.95,0,3.86,0,.44,0,.78,0,1v.26c0,.06,0,.09,0,.09"/><path class="cls-8" d="M528.88,36.78v-.1a1.86,1.86,0,0,1,0-.26c0-.25,0-.59,0-1,0-.9,0-2.2,0-3.83l0,0-16.89,0,.06-.06h0v5.21l-.06-.07,12.06,0,3.54,0h0l-3.52,0-12.11,0h-.07V31.57h0c.13-.14,0,0,.07-.07l16.89,0h0v.05c0,1.64,0,2.95,0,3.86,0,.44,0,.78,0,1v.26a.62.62,0,0,0,0,.09"/><path class="cls-8" d="M478.37,36.78v-.1a1.86,1.86,0,0,1,0-.26c0-.25,0-.59,0-1,0-.9,0-2.2,0-3.83l0,0-16.89,0,.06-.06h0v5.21l-.06-.07,12.06,0,3.54,0h0l-3.52,0-12.11,0h-.07V31.57h0l.07-.07,16.89,0h0v.05c0,1.64,0,2.95,0,3.86,0,.44,0,.78,0,1a1.86,1.86,0,0,1,0,.26v.09"/><path class="cls-8" d="M521.09,31.55a.58.58,0,0,1,0-.1v-.27c0-.24,0-.58,0-1,0-.9,0-2.2,0-3.83l.05,0-16.9,0s-.06.07.07-.06h0v5.22l-.07-.07,12.07,0,3.54,0H521c.06,0,.09,0,.09,0h-1.26l-3.53,0-12.11,0h-.06V26.33h0c.13-.14,0,0,.06-.07l16.9,0h0v.05c0,1.64,0,2.95,0,3.86,0,.44,0,.78,0,1s0,.2,0,.26v.09"/><path class="cls-8" d="M487.36,21.11s0,0,0-.09v-.27c0-.24,0-.58,0-1,0-.9,0-2.2,0-3.84l.05,0-16.9,0,.07-.07h0v5.21l-.07-.06,12.07,0,3.54,0h1.29s0,0-.08,0H486.1l-3.53,0-12.11,0h-.06V15.9h0l.06-.06,16.9,0h0v0c0,1.65,0,3,0,3.87,0,.44,0,.78,0,1v.34"/><path class="cls-8" d="M491.39,10.54v-.36c0-.24,0-.59,0-1,0-.9,0-2.21,0-3.84l0,0-16.89,0,.07-.07h0v5.21l-.07-.07,12.07,0,3.54,0h-3.5l-12.11,0h-.06V8c0-.44,0-.88,0-1.32V5.33h0l.07-.07,16.89,0h.05v0c0,1.65,0,3,0,3.86,0,.44,0,.78,0,1v.26c0,.06,0,.09,0,.09"/><path class="cls-8" d="M508.21,10.54v-.09a2.1,2.1,0,0,1,0-.27c0-.24,0-.59,0-1,0-.9,0-2.21,0-3.84l0,0-16.89,0,.07-.07h0V6.66c0,.44,0,.88,0,1.32v2.56l-.06-.07,12.06,0,3.54,0h-3.49l-12.11,0h-.07V5.33h0l.07-.07,16.89,0h0v0c0,1.65,0,3,0,3.86,0,.44,0,.78,0,1v.26a.62.62,0,0,0,0,.09"/><path class="cls-8" d="M525,10.54a.62.62,0,0,0,0-.09v-.27c0-.24,0-.59,0-1,0-.9,0-2.21,0-3.84l0,0-16.9,0,.07-.07h0v5.21l-.07-.07,12.07,0,3.54,0h-3.5l-12.11,0h-.06V5.33h0c.13-.14,0,0,.06-.07l16.9,0h0v0c0,1.65,0,3,0,3.86,0,.44,0,.78,0,1s0,.2,0,.26v.09"/><path class="cls-8" d="M504.22,21.11V21c0-.07,0-.16,0-.27s0-.58,0-1c0-.9,0-2.2,0-3.84l0,0-16.89,0,.07-.07h0v2.65c0,.88,0,1.73,0,2.56l-.06-.06,12.06,0,3.54,0h1.29s0,0-.08,0H503l-3.52,0-12.11,0h-.07V15.9h0l.07-.06,16.89,0h0v0c0,1.65,0,3,0,3.87,0,.44,0,.78,0,1V21c0,.06,0,.09,0,.08"/><path class="cls-8" d="M521.09,21.11a.31.31,0,0,1,0-.09v-.27c0-.24,0-.58,0-1,0-.9,0-2.2,0-3.84l.05,0-16.9,0s-.06.07.07-.07h0v5.21l-.07-.06,12.07,0,3.54,0h1.29s0,0-.08,0h-1.18l-3.53,0-12.11,0h-.06V15.9h0l.06-.06,16.9,0h0v0c0,1.65,0,3,0,3.87,0,.44,0,.78,0,1s0,.19,0,.26v.08"/><path class="cls-8" d="M487.28,41.87v-.1a1.86,1.86,0,0,1,0-.26c0-.23,0-.57,0-1,0-.87,0-2.14,0-3.73l0,0-16.89,0,.07-.06h0v2.57c0,.85,0,1.69,0,2.5l-.06-.07,12.06,0,3.54,0h0l-3.53,0-12.1,0h-.07V36.8h0l.07-.07,16.89,0h0v.05c0,1.6,0,2.88,0,3.76,0,.43,0,.76,0,1v.25a.62.62,0,0,0,0,.09"/><path class="cls-8" d="M504.18,41.87v-.36c0-.23,0-.57,0-1,0-.87,0-2.14,0-3.73l0,0-16.89,0s-.06.07.07-.06h0v5.07l-.07-.07,12.06,0,3.54,0h0l-3.52,0-12.11,0h-.06V36.8h0c.13-.14,0,0,.06-.07l16.89,0h.05v.05c0,1.6,0,2.88,0,3.76,0,.43,0,.76,0,1v.25c0,.06,0,.09,0,.09"/><path class="cls-8" d="M495.21,47.1a.45.45,0,0,1,0-.1v-.26c0-.25,0-.59,0-1,0-.9,0-2.2,0-3.83l0,0-16.9,0s-.06.07.07-.06h0V47.1l-.07-.07,12.07,0,3.54,0h0l-3.53,0-12.11,0h-.06V41.89h0l.06-.07,16.9,0h0v0c0,1.64,0,3,0,3.86,0,.44,0,.78,0,1s0,.2,0,.26v.09"/><path class="cls-8" d="M512,47.1V47c0-.06,0-.15,0-.26s0-.59,0-1c0-.9,0-2.2,0-3.83l0,0-16.89,0s-.07.07.07-.06h0V47.1l-.07-.07,12.07,0,3.53,0h0l-3.52,0-12.11,0h-.06V47.1c0-.83,0-1.69,0-2.56V41.89h0l.07-.07,16.89,0h.05v0c0,1.64,0,3,0,3.86,0,.44,0,.78,0,1V47c0,.06,0,.09,0,.09"/><path class="cls-8" d="M528.88,47.1V47a1.86,1.86,0,0,1,0-.26c0-.25,0-.59,0-1,0-.9,0-2.2,0-3.83l0,0-16.89,0,.06-.06h0V47.1L512,47l12.06,0,3.54,0h0l-3.52,0-12.11,0h-.07V41.89h0c.13-.14,0,0,.07-.07l16.89,0h0v0c0,1.64,0,3,0,3.86,0,.44,0,.78,0,1V47a.62.62,0,0,0,0,.09"/><path class="cls-8" d="M478.37,47.1V47a1.86,1.86,0,0,1,0-.26c0-.25,0-.59,0-1,0-.9,0-2.2,0-3.83l0,0-16.89,0,.06-.06h0V47.1l-.06-.07,12.06,0,3.54,0h0l-3.52,0-12.11,0h-.07V41.89h0l.07-.07,16.89,0h0v0c0,1.64,0,3,0,3.86,0,.44,0,.78,0,1a1.86,1.86,0,0,1,0,.26v.09"/><path class="cls-8" d="M470.38,41.87a.58.58,0,0,1,0-.1v-.26c0-.23,0-.57,0-1,0-.87,0-2.14,0-3.73l0,0-16.89,0,.06-.06h0v5.07l-.07-.07,12.07,0,3.54,0h0l-3.53,0-12.11,0h-.06V36.8h0l.07-.07,16.89,0h0v.05c0,1.6,0,2.88,0,3.76,0,.43,0,.76,0,1s0,.19,0,.25v.09"/><path class="cls-8" d="M521.09,41.87a.58.58,0,0,1,0-.1v-.26c0-.23,0-.57,0-1,0-.87,0-2.14,0-3.73l0,0-16.9,0s-.06.07.07-.06h0v5.07l-.07-.07,12.07,0,3.54,0h0l-3.53,0-12.11,0h-.06V36.8h0c.13-.14,0,0,.06-.07l16.9,0h0v.05c0,1.6,0,2.88,0,3.76,0,.43,0,.76,0,1s0,.19,0,.25v.09"/><path class="cls-8" d="M504.34,52.18v-.09c0-.06,0-.15,0-.26s0-.57,0-1c0-.87,0-2.14,0-3.73l0,0-16.89,0s-.07.07.07-.06h0v5.06l-.07-.06,12.06,0,3.54,0h0l-3.52,0-12.11,0h-.07V47.12h0l.07-.07,16.89,0h.05v.05c0,1.6,0,2.88,0,3.76,0,.43,0,.76,0,1v.25c0,.06,0,.09,0,.08"/><path class="cls-8" d="M521.32,52.18s0,0,0-.09v-.26c0-.23,0-.57,0-1,0-.87,0-2.14,0-3.73l.05,0-16.9,0s-.06.07.07-.06h0v5.06l-.07-.06,12.06,0,3.55,0h0l-3.53,0-12.11,0h-.06V47.12h0c.13-.14,0,0,.06-.07l16.9,0h0v.05c0,1.6,0,2.88,0,3.76,0,.43,0,.76,0,1s0,.19,0,.25v.08"/><path class="cls-8" d="M512.25,57.42v-.1c0-.06,0-.15,0-.27s0-.58,0-1c0-.9,0-2.2,0-3.83l0,0-16.89,0,.07-.06h0v5.23l-.07-.07,12.06,0,3.54,0h1.21c.05,0,.08,0,.08,0H511l-3.52,0-12.11,0h-.06v-.06c0-.83,0-1.69,0-2.56V52.19h0l.07-.07,16.89,0h0v0c0,1.64,0,3,0,3.86,0,.44,0,.78,0,1v.26a.31.31,0,0,1,0,.09"/><path class="cls-8" d="M529.13,57.42v-.1c0-.06,0-.15,0-.27s0-.58,0-1c0-.9,0-2.2,0-3.83l0,0-16.89,0,.07-.06h0v2.67c0,.87,0,1.73,0,2.56l-.06-.07,12.06,0,3.54,0H529c.06,0,.09,0,.09,0h-1.26l-3.52,0-12.11,0h-.07V52.19h0l.07-.07,16.89,0h0v0c0,1.64,0,3,0,3.86,0,.44,0,.78,0,1v.26a.31.31,0,0,1,0,.09"/><path class="cls-8" d="M538.29,52.18v-.09a1.86,1.86,0,0,1,0-.26c0-.23,0-.57,0-1,0-.87,0-2.14,0-3.73l0,0-16.89,0s-.07.07.07-.06h0v.63c0,.22,0,.44,0,.66v3.77l-.06-.06,12.06,0,3.54,0h0l-3.53,0-12.1,0h-.07V47.12h0l.07-.07,16.89,0h0v.05c0,1.6,0,2.88,0,3.76,0,.43,0,.76,0,1v.25c0,.06,0,.09,0,.08"/><path class="cls-8" d="M478.41,57.42v-.1c0-.06,0-.15,0-.27s0-.58,0-1c0-.9,0-2.2,0-3.83l0,0-16.89,0,.07-.06h0v5.23l-.07-.07,12.07,0,3.54,0h1.2c.05,0,.08,0,.08,0h-1.26l-3.52,0-12.11,0h-.06v-.06c0-.83,0-1.69,0-2.56V52.19h0l.07-.07,16.89,0h0v0c0,1.64,0,3,0,3.86,0,.44,0,.78,0,1v.26c0,.06,0,.09,0,.09"/><path class="cls-8" d="M495.36,57.42v-.37c0-.24,0-.58,0-1,0-.9,0-2.2,0-3.83l0,0-16.89,0,.06-.06h0v5.23l-.06-.07,12.06,0,3.54,0h1.2c.06,0,.09,0,.09,0H494.1l-3.52,0-12.11,0h-.07V52.19h0c.13-.14,0,0,.07-.07l16.89,0h0v0c0,1.64,0,3,0,3.86,0,.44,0,.78,0,1a1.86,1.86,0,0,1,0,.26v.09"/><path class="cls-8" d="M487.37,52.18a.62.62,0,0,0,0-.09v-.26c0-.23,0-.57,0-1,0-.87,0-2.14,0-3.73l0,0-16.89,0,.06-.06h0v5.06l-.07-.06,12.07,0,3.54,0h0l-3.53,0-12.11,0h-.06V47.12h0l.07-.07,16.89,0h0v.05c0,1.6,0,2.88,0,3.76,0,.43,0,.76,0,1s0,.19,0,.25v.08"/><path class="cls-8" d="M487.36,62.65v-.1c0-.06,0-.15,0-.26s0-.59,0-1c0-.9,0-2.2,0-3.83l0,0-16.89,0,.07-.06h0v5.21l-.07-.07,12.07,0,3.53,0h0l-3.52,0-12.11,0h-.06v-.06c0-.83,0-1.69,0-2.56V57.44h0l.07-.07,16.89,0h.05v.05c0,1.64,0,3,0,3.86,0,.44,0,.78,0,1v.26c0,.06,0,.09,0,.09"/><path class="cls-8" d="M504.36,62.65v-.1c0-.06,0-.15,0-.26s0-.59,0-1c0-.9,0-2.2,0-3.83l0,0-16.89,0,.07-.06h0v5.21l-.07-.07,12.07,0,3.53,0h0l-3.52,0-12.11,0h-.06v-.06c0-.83,0-1.69,0-2.56V57.44h0l.07-.07,16.89,0h.05v.05c0,1.64,0,3,0,3.86,0,.44,0,.78,0,1v.26a.31.31,0,0,1,0,.09"/><path class="cls-8" d="M495.27,67.88v-.09c0-.07,0-.16,0-.27s0-.59,0-1c0-.9,0-2.21,0-3.84l0,0-16.89,0,.07-.06h0v.65c0,.23,0,.45,0,.68v3.88l-.06-.07,12.06,0,3.54,0h-3.49l-12.11,0h-.07V62.67h0l.07-.07,16.89,0h0v0c0,1.64,0,3,0,3.86,0,.44,0,.78,0,1v.26a.62.62,0,0,0,0,.09"/><path class="cls-8" d="M512.15,67.88v-.09a2.1,2.1,0,0,1,0-.27c0-.24,0-.59,0-1,0-.9,0-2.21,0-3.84l0,0-16.89,0s-.07.07.06-.06h0v5.21l-.06-.07,12.06,0,3.54,0h-3.49l-12.11,0h-.07V62.67h0l.07-.07,16.89,0h0v0c0,1.64,0,3,0,3.86,0,.44,0,.78,0,1a1.86,1.86,0,0,1,0,.26v.09"/><path class="cls-8" d="M528.89,67.88a.31.31,0,0,1,0-.09v-.27c0-.24,0-.59,0-1,0-.9,0-2.21,0-3.84l0,0-16.89,0,.06-.06h0v5.21l-.07-.07,12.07,0,3.54,0h-3.5l-12.11,0h-.06V62.67h0c.13-.14,0,0,.07-.07l16.89,0h0v0c0,1.64,0,3,0,3.86,0,.44,0,.78,0,1s0,.2,0,.26v.09"/><path class="cls-8" d="M478.38,67.88a.31.31,0,0,1,0-.09v-.27c0-.24,0-.59,0-1,0-.9,0-2.21,0-3.84l0,0-16.89,0,.06-.06h0v5.21l-.07-.07,12.07,0,3.54,0H473.6l-12.12,0h-.06V62.67h0l.07-.07,16.89,0h0v0c0,1.64,0,3,0,3.86,0,.44,0,.78,0,1s0,.2,0,.26v.09"/><path class="cls-8" d="M521.1,62.65s0,0,0-.1v-.26c0-.25,0-.59,0-1,0-.9,0-2.2,0-3.83l.05,0-16.9,0s-.06.07.07-.06h0v5.21l-.07-.07,12.07,0,3.54,0h0l-3.53,0-12.11,0h-.06V57.44h0c.13-.14,0,0,.06-.07l16.9,0h0v.05c0,1.64,0,3,0,3.86,0,.44,0,.78,0,1v.35"/><path class="cls-8" d="M487.36,73v-.09c0-.07,0-.15,0-.26s0-.57,0-1c0-.87,0-2.14,0-3.73l0,0-16.89,0s-.07.06.07-.07h0V73l-.07-.07,12.06,0,3.54,0h-3.49l-12.11,0h-.06V73c0-.81,0-1.64,0-2.49V67.9h0l.07-.07,16.89,0h.05v0c0,1.6,0,2.88,0,3.76,0,.43,0,.76,0,1v.25c0,.06,0,.09,0,.09"/><path class="cls-8" d="M504.36,73v-.09c0-.07,0-.15,0-.26s0-.57,0-1c0-.87,0-2.14,0-3.73l0,0-16.89,0s-.07.06.07-.07h0V73l-.07-.07,12.06,0,3.54,0h-3.49l-12.11,0h-.06V73c0-.81,0-1.64,0-2.49V67.9h0l.07-.07,16.89,0h.05v0c0,1.6,0,2.88,0,3.76,0,.43,0,.76,0,1v.25a.31.31,0,0,1,0,.09"/><path class="cls-8" d="M495.27,78.2v-.1c0-.06,0-.15,0-.26s0-.59,0-1c0-.9,0-2.21,0-3.84l0,0-16.89,0,.07-.06h0v.65c0,.23,0,.45,0,.67V78.2l-.06-.07,12.06,0,3.54,0h-3.49l-12.11,0h-.07V73h0c.13-.14,0,0,.07-.07l16.89,0h0v0c0,1.65,0,3,0,3.86,0,.44,0,.78,0,1v.26a.62.62,0,0,0,0,.09"/><path class="cls-8" d="M512.15,78.2v-.1a1.86,1.86,0,0,1,0-.26c0-.24,0-.59,0-1,0-.9,0-2.21,0-3.84l0,0-16.89,0s-.07.07.06-.06h0V78.2l-.06-.07,12.06,0,3.54,0h-3.49l-12.11,0h-.07V73h0c.13-.14,0,0,.07-.07l16.89,0h0v0c0,1.65,0,3,0,3.86,0,.44,0,.78,0,1a1.86,1.86,0,0,1,0,.26v.09"/><path class="cls-8" d="M528.89,78.2a.36.36,0,0,1,0-.1v-.26c0-.24,0-.59,0-1,0-.9,0-2.21,0-3.84l0,0L512,73s-.07.07.06-.06h0V78.2l-.07-.07,12.07,0,3.54,0h-3.5l-12.11,0h-.06V73h0c.13-.14,0,0,.07-.07l16.89,0h0v0c0,1.65,0,3,0,3.86,0,.44,0,.78,0,1s0,.2,0,.26v.09"/><path class="cls-8" d="M478.38,78.2a.36.36,0,0,1,0-.1v-.26c0-.24,0-.59,0-1,0-.9,0-2.21,0-3.84l0,0-16.89,0,.06-.06h0V78.2l-.07-.07,12.07,0,3.54,0H473.6l-12.12,0h-.06V73h0c.13-.14,0,0,.07-.07l16.89,0h0v0c0,1.65,0,3,0,3.86,0,.44,0,.78,0,1s0,.2,0,.26v.09"/><path class="cls-8" d="M470.39,73a.31.31,0,0,1,0-.09v-.26c0-.24,0-.57,0-1,0-.87,0-2.14,0-3.73l.05,0-16.9,0,.07-.07h0V73l-.07-.07,12.06,0,3.55,0h-3.5l-12.11,0h-.06V67.9h0c.13-.13,0,0,.06-.07l16.9,0h0v0c0,1.6,0,2.88,0,3.76,0,.43,0,.76,0,1V73"/><path class="cls-8" d="M521.1,73s0,0,0-.09v-.26c0-.24,0-.57,0-1,0-.87,0-2.14,0-3.73l.05,0-16.9,0,.07-.07h0V73l-.07-.07,12.06,0,3.55,0h-3.5L504.2,73h-.06V67.9h0c.13-.13,0,0,.06-.07l16.9,0h0v0c0,1.6,0,2.88,0,3.76,0,.43,0,.76,0,1V73"/><path class="cls-8" d="M504.35,83.29V83.2c0-.07,0-.16,0-.27s0-.56,0-1c0-.87,0-2.14,0-3.73l0,0-16.89,0,.07-.07h0v5.07l-.07-.07,12.06,0,3.54,0h0l-3.52,0-12.11,0h-.06v-.06c0-.81,0-1.64,0-2.49V78.22h0l.07-.07,16.89,0h0v0c0,1.6,0,2.88,0,3.76,0,.43,0,.76,0,1v.25a.31.31,0,0,1,0,.09"/><path class="cls-8" d="M521.35,83.29V83.2c0-.07,0-.16,0-.27s0-.56,0-1c0-.87,0-2.14,0-3.73l0,0-16.89,0,.07-.07h0v5.07l-.07-.07,12.06,0,3.54,0h0l-3.52,0-12.11,0h-.07V78.22h0l.07-.07,16.89,0h0v0c0,1.6,0,2.88,0,3.76,0,.43,0,.76,0,1v.25a.31.31,0,0,1,0,.09"/><path class="cls-8" d="M512.26,88.52v-.1a1.86,1.86,0,0,1,0-.26c0-.25,0-.59,0-1,0-.9,0-2.21,0-3.84l0,0-16.89,0,.06-.06h0v5.21l-.06-.07,12.06,0,3.54,0h-3.49l-12.11,0h-.07V83.31h0l.07-.07,16.89,0h0v0c0,1.64,0,3,0,3.86,0,.44,0,.78,0,1v.26a.62.62,0,0,0,0,.09"/><path class="cls-8" d="M529.14,88.52a.82.82,0,0,0,0-.1v-.26c0-.25,0-.59,0-1,0-.9,0-2.21,0-3.84l0,0-16.89,0s-.07.07.06-.06h0v5.21l-.06-.07,12.06,0,3.54,0h-3.49l-12.11,0h-.07V83.31h0c.13-.14,0,0,.07-.07l16.89,0h0v0c0,1.64,0,3,0,3.86,0,.44,0,.78,0,1a1.86,1.86,0,0,1,0,.26v.09"/><path class="cls-8" d="M538.3,83.29a.45.45,0,0,1,0-.1v-.26c0-.25,0-.59,0-1,0-.9,0-2.2,0-3.83l0,0-16.89,0,.06-.06h0v5.21l-.07-.07,12.07,0,3.54,0h0l-3.52,0-12.12,0h-.06V78.08h0l.07-.07,16.89,0h0v0c0,1.64,0,3,0,3.86,0,.44,0,.78,0,1s0,.2,0,.26v.09"/><path class="cls-8" d="M478.42,88.52v-.1c0-.06,0-.15,0-.26s0-.59,0-1c0-.9,0-2.21,0-3.84l0,0-16.89,0s-.07.07.07-.06h0V86c0,.87,0,1.73,0,2.56l-.06-.07,12.06,0,3.54,0h-3.49l-12.11,0h-.07V83.31h0l.07-.07,16.89,0h.05v0c0,1.64,0,3,0,3.86,0,.44,0,.78,0,1v.26a.31.31,0,0,1,0,.09"/><path class="cls-8" d="M495.37,88.52a.82.82,0,0,0,0-.1v-.26c0-.25,0-.59,0-1,0-.9,0-2.21,0-3.84l.05,0-16.89,0,.06-.06h0v5.21l-.07-.07,12.07,0,3.54,0h-3.5l-12.11,0h-.06V83.31h0c.13-.14,0,0,.07-.07l16.89,0h0v0c0,1.64,0,3,0,3.86,0,.44,0,.78,0,1s0,.2,0,.26v.09"/><path class="cls-8" d="M487.38,83.29s0,0,0-.09v-.27c0-.23,0-.56,0-1,0-.87,0-2.14,0-3.73l.05,0-16.9,0,.07-.07h0v5.07l-.07-.07,12.06,0,3.55,0h0l-3.52,0-12.11,0h-.06V78.22h0c.13-.14,0,0,.06-.07l16.9,0h0v0c0,1.6,0,2.88,0,3.76v1c0,.11,0,.19,0,.25v.09"/><path class="cls-8" d="M487.36,93.7v-.09c0-.06,0-.15,0-.26s0-.57,0-1c0-.88,0-2.14,0-3.73l0,0-16.89,0,.07-.06h0V93.7l-.07-.06,12.06,0,3.54,0h1.29s0,0-.08,0H486.1l-3.52,0-12.11,0h-.06V93.7c0-.81,0-1.64,0-2.49V88.62h0l.07-.07,16.89,0h.05v.05c0,1.6,0,2.87,0,3.76,0,.42,0,.76,0,1v.25c0,.06,0,.09,0,.08"/><path class="cls-8" d="M504.36,93.7v-.09c0-.06,0-.15,0-.26s0-.57,0-1c0-.88,0-2.14,0-3.73l0,0-16.89,0,.07-.06h0V93.7l-.07-.06,12.06,0,3.54,0h0l-3.52,0-12.11,0h-.06V93.7c0-.81,0-1.64,0-2.49V88.62h0l.07-.07,16.89,0h.05v.05c0,1.6,0,2.87,0,3.76,0,.42,0,.76,0,1v.25c0,.06,0,.09,0,.08"/><path class="cls-8" d="M495.27,98.93v-.09c0-.07,0-.15,0-.27s0-.58,0-1c0-.9,0-2.2,0-3.84l0,0-16.89,0s-.07.07.07-.06h0v.66c0,.22,0,.45,0,.67v3.88l-.06-.06,12.06,0,3.54,0h0l-3.52,0-12.11,0h-.07V93.72h0c.13-.14,0,0,.07-.07l16.89,0h0v0c0,1.65,0,3,0,3.87,0,.44,0,.78,0,1v.26c0,.06,0,.09,0,.08"/><path class="cls-8" d="M512.15,98.93v-.09a2,2,0,0,1,0-.27c0-.24,0-.58,0-1,0-.9,0-2.2,0-3.84l0,0-16.89,0,.06-.06h0v5.21l-.06-.06,12.06,0,3.54,0h0l-3.52,0-12.11,0h-.07V93.72h0c.13-.14,0,0,.07-.07l16.89,0h0v0c0,1.65,0,3,0,3.87,0,.44,0,.78,0,1a1.86,1.86,0,0,1,0,.26v.08"/><path class="cls-8" d="M528.89,98.93a.31.31,0,0,1,0-.09v-.27c0-.24,0-.58,0-1,0-.9,0-2.2,0-3.84l0,0-16.89,0,.06-.06h0v5.21l-.07-.06,12.07,0,3.54,0h0l-3.53,0L512,99h-.06V93.72h0c.13-.14,0,0,.07-.07l16.89,0h0v0c0,1.65,0,3,0,3.87,0,.44,0,.78,0,1s0,.2,0,.26v.08"/><path class="cls-8" d="M478.38,98.93a.31.31,0,0,1,0-.09v-.27c0-.24,0-.58,0-1,0-.9,0-2.2,0-3.84l0,0-16.89,0,.06-.06h0v5.21l-.07-.06,12.07,0,3.54,0h0l-3.52,0-12.12,0h-.06V93.72h0c.13-.14,0,0,.07-.07l16.89,0h0v0c0,1.65,0,3,0,3.87,0,.44,0,.78,0,1s0,.2,0,.26v.08"/><path class="cls-8" d="M470.39,93.7a.31.31,0,0,1,0-.09v-.26c0-.23,0-.57,0-1,0-.88,0-2.14,0-3.73l.05,0-16.9,0s-.06.07.07-.06h0V93.7l-.07-.06,12.06,0,3.55,0h0l-3.52,0-12.11,0h-.06V88.62h0c.13-.14,0,0,.06-.07l16.9,0h0v.05c0,1.6,0,2.87,0,3.76,0,.42,0,.76,0,1v.33"/><path class="cls-8" d="M521.1,93.7s0,0,0-.09v-.26c0-.23,0-.57,0-1,0-.88,0-2.14,0-3.73l.05,0-16.9,0s-.06.07.07-.06h0V93.7l-.07-.06,12.06,0,3.55,0h0l-3.52,0-12.11,0h-.06V88.62h0c.13-.14,0,0,.06-.07l16.9,0h0v.05c0,1.6,0,2.87,0,3.76,0,.42,0,.76,0,1v.33"/><path class="cls-9" d="M526,38.48a10.07,10.07,0,0,0-12-4.1,13.69,13.69,0,0,0,6.35-7.09,10.11,10.11,0,0,0-2-10.45c-2.88-2.87-7.61-3.32-11.35-1.77s-6.59,4.83-8.43,8.44a52.11,52.11,0,0,0-3.76,11.56,10.09,10.09,0,0,0-.29-4.67,4.59,4.59,0,0,0-3.29-3.09,3,3,0,0,0-3.52,2.32c.62-2.47-2.37-4.61-4.88-4.2s-4.44,2.37-6.18,4.23v0a1,1,0,0,0-1.83-.67l0,0c-7.84-.24-9.63,7.49-11.85,14.72-1.49,4.82.8,9.55,2.06,11.65A4.85,4.85,0,0,0,466.62,57c2.65,1.57,5.38-.1,7.48-1.87,1.76-1.49,3.58-3.21,5.88-3.42l-.69,9.31a2.07,2.07,0,0,0,1.13,2c1.62.75,2.72-1.27,3.11-2.84l2-8.16a2.86,2.86,0,0,0,2.42,2.4c1.22,0,2.18-1.76,1.21-2.51l3.11-.41a42.93,42.93,0,0,0,1.46,13.81,3.26,3.26,0,0,0,1.84,2.2c2.36,1,4-1.51,4.59-3.65a27.09,27.09,0,0,0,.68-12.24,4.77,4.77,0,1,0,9.06-2.83,10.08,10.08,0,0,0,12.16,2.88A10,10,0,0,0,526,38.48"/><path class="cls-7" d="M501.13,54.72a20.22,20.22,0,0,1-.36-3.29c-.16-2-.33-4.85-.51-8a15.11,15.11,0,0,0-.75-4.23,5.93,5.93,0,0,0-2-2.75,7.38,7.38,0,0,0-3-1.16,2.18,2.18,0,0,1,.9,0,5.59,5.59,0,0,1,2.3.87A6,6,0,0,1,500,39.07a14.38,14.38,0,0,1,.83,4.38c.18,3.11.29,5.92.36,8a21.19,21.19,0,0,1,0,3.31"/><path class="cls-7" d="M494.27,43.71c-.07,0-.23-.28-.57-.67a3.44,3.44,0,0,0-1.65-1,3.51,3.51,0,0,0-2,.08c-.49.16-.77.35-.82.29s.16-.35.68-.63A3.12,3.12,0,0,1,494,42.82c.3.5.33.87.27.89"/><path class="cls-7" d="M492.61,38.33c.12.09-.27.86-.73,1.81s-.81,1.73-.95,1.69,0-.93.49-1.92,1.08-1.66,1.19-1.58"/><path class="cls-7" d="M507.7,40.1A6.36,6.36,0,0,1,510,36.29a6.36,6.36,0,0,1,4-1.9,18.16,18.16,0,0,0-3.64,2.29,17.64,17.64,0,0,0-2.61,3.42"/><path class="cls-7" d="M508.17,37.54c-.08,0-.16-.61-.51-1.51A7.73,7.73,0,0,0,505.54,33a7.87,7.87,0,0,0-3.33-1.65,12.45,12.45,0,0,1-1.57-.29,3.07,3.07,0,0,1,1.63-.07,6.92,6.92,0,0,1,3.61,1.62A7.06,7.06,0,0,1,508,35.91a3.09,3.09,0,0,1,.16,1.63"/><path class="cls-9" d="M510.92,58.3a1.76,1.76,0,0,0-1.9-1c-.54.19-.67.46-.83,1a1.66,1.66,0,0,0,.39,1.59,1.51,1.51,0,0,0,1.59.33,1.54,1.54,0,0,0,.75-2"/><path class="cls-7" d="M470.16,45.12a20.3,20.3,0,0,0,2.81-1,9.65,9.65,0,0,0,4.87-12,20.8,20.8,0,0,0-1.31-2.68s.24.18.56.6a7.83,7.83,0,0,1,1.09,2,9.6,9.6,0,0,1-5.05,12.5,8.48,8.48,0,0,1-2.15.64,2.08,2.08,0,0,1-.82,0"/><path class="cls-7" d="M479.56,53c-.08-.06.52-.76,1.14-2.07a6.85,6.85,0,0,0,.37-5.39,4.68,4.68,0,0,0-1.85-2.3,4.33,4.33,0,0,0-2.35-.61,5,5,0,0,0-2.18.7,2.76,2.76,0,0,1,2.16-1.06,4.34,4.34,0,0,1,2.61.56,4.92,4.92,0,0,1,2.09,2.52,6.15,6.15,0,0,1,.34,3.24,8,8,0,0,1-.86,2.5A5.88,5.88,0,0,1,479.56,53"/><path class="cls-7" d="M483.21,41.9a2.71,2.71,0,0,1,2.1-.41,4.73,4.73,0,0,1,2.2.92,5.62,5.62,0,0,1,1.72,2.34,9.44,9.44,0,0,1,.4,5.14,6.43,6.43,0,0,1-.54,2.06,12.94,12.94,0,0,1,.18-2.1,10.42,10.42,0,0,0-.52-4.9,5.5,5.5,0,0,0-1.54-2.16,4.72,4.72,0,0,0-1.95-.94,6.67,6.67,0,0,0-2.05,0"/><path class="cls-7" d="M488.25,28.75a5.68,5.68,0,0,1,.42,2.19,12.27,12.27,0,0,1-.91,5.3,12.44,12.44,0,0,1-3.06,4.43,5.73,5.73,0,0,1-1.84,1.26c-.05-.08.65-.56,1.58-1.53a14,14,0,0,0,2.84-4.35,14.21,14.21,0,0,0,1-5.1c0-1.35-.15-2.18-.06-2.2"/><rect class="cls-10" x="344.45" y="72.98" width="13.66" height="25.59"/><rect class="cls-7" x="347.34" y="76.19" width="7.68" height="0.62"/><path class="cls-7" d="M355.77,77.4v-.5c0-.33,0-.79,0-1.38v0h-9.14c.05,0,0,0,0,0h0v.92c0,.32,0,.63,0,.93l0,0h0V75.55h0l0,0h9.16c0,.59,0,1.06,0,1.39v.36a.73.73,0,0,1,0,.13"/><path class="cls-7" d="M355.77,92.28v-.92c0-.59,0-1.46,0-2.55,0-2.19,0-5.29,0-9l0,0h-9.14l0,0c0,4.64,0,8.94,0,12.44l0,0,9.14,0h-9.16v0c0-3.5,0-7.8,0-12.44v0h9.2v0c0,3.68,0,6.79,0,9,0,1.09,0,2,0,2.54V92a2.17,2.17,0,0,1,0,.24"/><rect class="cls-7" x="346.39" y="81.97" width="0.48" height="1.94"/><rect class="cls-7" x="346.39" y="88.57" width="0.48" height="1.94"/><g class="cls-11"><path class="cls-4" d="M355.11,86.52a.26.26,0,0,1-.52,0,.26.26,0,0,1,.52,0"/><rect class="cls-12" x="354.59" y="86.26" width="0.52" height="0.52"/></g><path class="cls-10" d="M357.67,73H344.89a.44.44,0,0,1-.44-.44,5.68,5.68,0,0,1,5.68-5.68h2.29a5.68,5.68,0,0,1,5.68,5.68.44.44,0,0,1-.43.44"/><rect class="cls-8" x="344.3" y="96.09" width="13.98" height="6.32"/><rect class="cls-10" x="343.54" y="71.92" width="15.23" height="1.06"/><path class="cls-7" d="M358.1,73s-3.05,0-6.82,0-6.83,0-6.83,0,3.06,0,6.83,0,6.82,0,6.82,0"/><path class="cls-7" d="M358.59,71.89s-3.15,0-7,0-7.05,0-7.05,0,3.15,0,7.05,0,7,0,7,0"/><path class="cls-13" d="M350.32,74.17c0,.2-.14.31-.37.31h-.24v.29h-.1v-.91H350c.23,0,.37.12.37.31m-.1,0c0-.14-.09-.22-.27-.22h-.24v.45H350c.18,0,.27-.08.27-.23"/><path class="cls-13" d="M350.46,74.32a.48.48,0,0,1,1,0,.48.48,0,0,1-1,0m.85,0a.37.37,0,0,0-.38-.38.38.38,0,1,0,0,.75.37.37,0,0,0,.38-.37"/><path class="cls-13" d="M351.54,74.66l0-.07a.47.47,0,0,0,.3.11c.17,0,.25-.07.25-.16,0-.25-.56-.1-.56-.44,0-.13.1-.24.33-.24a.51.51,0,0,1,.28.08l0,.07a.47.47,0,0,0-.25-.07c-.16,0-.24.07-.24.16,0,.25.56.1.56.43,0,.13-.11.25-.34.25a.47.47,0,0,1-.33-.12"/><polygon class="cls-13" points="352.58 73.95 352.26 73.95 352.26 73.86 352.99 73.86 352.99 73.95 352.68 73.95 352.68 74.77 352.58 74.77 352.58 73.95"/><g class="cls-14"><polygon class="cls-4" points="344.45 72.98 358.11 74.95 358.11 72.98 344.45 72.98"/><rect class="cls-12" x="344.45" y="72.98" width="13.66" height="1.97"/></g><path class="cls-7" d="M355.11,86.32a.26.26,0,0,1-.52,0,.26.26,0,0,1,.52,0"/><path class="cls-13" d="M349.78,67.2h-.06l-.19,0a4,4,0,0,0-.69.12,5.2,5.2,0,0,0-3.47,2.84c-.13.27-.21.5-.27.65s0,.14-.05.19l0,.06a4.6,4.6,0,0,1,.31-.91,5.31,5.31,0,0,1,1.42-1.84,5.17,5.17,0,0,1,2.08-1,4,4,0,0,1,.95-.13"/><path class="cls-13" d="M344.82,89.85s0-3.66,0-8.17,0-8.18,0-8.18,0,3.66,0,8.18,0,8.17,0,8.17"/><rect class="cls-8" x="229.41" y="33.7" width="1.44" height="38.47"/><path class="cls-13" d="M234.58,35a4.46,4.46,0,1,1-4.45-4.45A4.46,4.46,0,0,1,234.58,35"/><path class="cls-7" d="M234.58,35c-.05,0-.05-.4-.24-1.06a4.48,4.48,0,0,0-1.64-2.33,4.21,4.21,0,1,0,0,6.78,4.48,4.48,0,0,0,1.64-2.33c.19-.66.19-1.06.24-1.06a2.28,2.28,0,0,1,0,1.11,4.48,4.48,0,0,1-1.61,2.59,4.63,4.63,0,0,1-4.42.72,4.69,4.69,0,0,1,0-8.84,4.63,4.63,0,0,1,4.42.72,4.45,4.45,0,0,1,1.61,2.59,2.28,2.28,0,0,1,0,1.11"/><path class="cls-8" d="M231.08,39.84h-2a.28.28,0,0,1-.27-.28.27.27,0,0,1,.27-.27h2a.27.27,0,0,1,.27.27.28.28,0,0,1-.27.28"/><polygon class="cls-7" points="231.57 103.07 228.69 103.15 228.69 68.34 231.57 68.34 231.57 103.07"/><path class="cls-7" d="M232.3,68.34h-4.38a.3.3,0,0,1-.3-.3.31.31,0,0,1,.3-.3h4.38a.3.3,0,0,1,.3.3.29.29,0,0,1-.3.3"/><rect class="cls-7" x="10" y="69.18" width="1.65" height="33.59"/><path class="cls-10" d="M8.2,68.69,5.38,65.87a3.7,3.7,0,0,1,0-5.24L8.2,57.81a3.72,3.72,0,0,1,5.24,0l2.82,2.82a3.72,3.72,0,0,1,0,5.24l-2.82,2.82a3.72,3.72,0,0,1-5.24,0"/><path class="cls-13" d="M8.43,62.06l-.32.56s0,0-.06.06L7.21,63a.21.21,0,0,0-.12.27.22.22,0,0,0,.28.12l.89-.35.05,0,.32-.37v1a.43.43,0,0,0,0,0l-.52,1.2a.13.13,0,0,0,.12.18h.16l-.25,1.31a.23.23,0,0,0,.23.28.24.24,0,0,0,.22-.16L9,65.25a.12.12,0,0,1,.11-.09l.21,0,.42,1.34a.25.25,0,0,0,.28.18.26.26,0,0,0,.22-.33l-.31-1.16.3,0a.14.14,0,0,0,.11-.18l-.12-.34.76-.16a.13.13,0,0,0,.1-.16l-.17-.67a.13.13,0,0,0-.14-.1l-.34,0V63.2a.16.16,0,0,1,.11-.13,2,2,0,0,0,.8-.3,3.52,3.52,0,0,0,.36-.5v1.57a.13.13,0,0,1,0,.06A10.47,10.47,0,0,0,11.21,65c0,.12,0,.83,0,1.24a.3.3,0,0,0,.3.3.31.31,0,0,0,.31-.31V65a.17.17,0,0,1,0-.07l.32-.55a.14.14,0,0,1,.25.07v.72a.11.11,0,0,0,0,.05l.45,1.08a.29.29,0,0,0,.44.13.29.29,0,0,0,.1-.35l-.39-1a.14.14,0,0,1,0-.09l.05-.15,1.37-.31a.14.14,0,0,0,.1-.16l-.18-.91a.15.15,0,0,0-.13-.11h-.61l0-.67a.79.79,0,0,0-.15-.51l-.35-.46a.63.63,0,0,0-.51-.25h-.76a.56.56,0,0,0-.48.26l-.36.59a.18.18,0,0,1-.07,0l-.53.21a.13.13,0,0,1-.15,0L9.91,62a.39.39,0,0,0-.33-.17h-.8a.39.39,0,0,0-.35.21"/><path class="cls-13" d="M9.83,61a.65.65,0,1,1-.65-.65.66.66,0,0,1,.65.65"/><path class="cls-13" d="M13.09,60.5a.69.69,0,1,1-.69-.69.69.69,0,0,1,.69.69"/><path class="cls-13" d="M10.82,69.81a1.22,1.22,0,0,1-.89-.37l-5.3-5.3a1.26,1.26,0,0,1,0-1.78l5.3-5.3a1.22,1.22,0,0,1,.89-.37,1.24,1.24,0,0,1,.89.37l5.3,5.3a1.26,1.26,0,0,1,0,1.78l-5.3,5.3a1.24,1.24,0,0,1-.89.37m0-13a1.11,1.11,0,0,0-.8.33L4.73,62.45a1.13,1.13,0,0,0,0,1.6L10,69.34a1.11,1.11,0,0,0,.8.33,1.09,1.09,0,0,0,.8-.33l5.29-5.29a1.13,1.13,0,0,0,0-1.6l-5.29-5.29a1.09,1.09,0,0,0-.8-.33"/><polygon class="cls-7" points="62.03 102.7 72.19 102.7 74.29 86.66 60 86.66 62.03 102.7"/><path class="cls-10" d="M64.91,81.88A5.8,5.8,0,0,0,61.38,81a3,3,0,0,0-1.88.56,1.29,1.29,0,0,0-.25,1.76,1.69,1.69,0,0,0,1.08.44c1,.11,2,.08,2.71.75.39.39.6,1,1.1,1.2a1.24,1.24,0,0,0,1.42-.42,2.1,2.1,0,0,0,.36-1.53,2.37,2.37,0,0,0-1-1.85"/><path class="cls-10" d="M68.05,77.39a1.74,1.74,0,0,1-2.57-.29,4.88,4.88,0,0,1-.79-2.37A11.93,11.93,0,0,1,64.77,69a3.11,3.11,0,0,1,.92-1.43,1.64,1.64,0,0,1,1.62-.31,2.44,2.44,0,0,1,1.17,1.6A13.73,13.73,0,0,1,69,74.8a4.69,4.69,0,0,1-1,2.59"/><path class="cls-10" d="M69.71,79a3.5,3.5,0,0,1-.12-3.27,6.27,6.27,0,0,1,2.25-2.49,10.54,10.54,0,0,1,3.65-1.55,3.74,3.74,0,0,1,1.56,0,1.6,1.6,0,0,1,1.18.94,2.43,2.43,0,0,1-.65,2.13,26.19,26.19,0,0,1-2.67,3.09,6.07,6.07,0,0,1-2.72,1.77,2.25,2.25,0,0,1-2.57-.71"/><path class="cls-7" d="M66.19,91.77a2.44,2.44,0,0,1,0-.44c0-.32,0-.72,0-1.2a15.51,15.51,0,0,0,0-1.76,13.47,13.47,0,0,0-.35-2.13,7.66,7.66,0,0,0-.8-2A3.88,3.88,0,0,0,63.86,83a3.44,3.44,0,0,0-1.07-.49,3,3,0,0,1-.42-.12,1.33,1.33,0,0,1,.44,0,3.38,3.38,0,0,1,1.12.46,3.87,3.87,0,0,1,1.25,1.29,7.58,7.58,0,0,1,.83,2,12,12,0,0,1,.35,2.16,13.3,13.3,0,0,1,0,1.79c0,.51-.07.92-.1,1.2a1.4,1.4,0,0,1-.07.43"/><path class="cls-7" d="M66.23,90.85a1.47,1.47,0,0,1,0-.2c0-.15,0-.34.07-.57.07-.5.17-1.22.26-2.12.19-1.79.29-3.73.35-6.47.06-2.58.08-5.59-.07-7.57,0-.45-.06-.85-.09-1.21s-.06-.66-.09-.91-.05-.43-.06-.58a.76.76,0,0,1,0-.2.69.69,0,0,1,0,.2c0,.15.06.34.1.57s.08.55.12.91.09.76.12,1.21a66.34,66.34,0,0,1,.2,7c-.07,2.75-.26,5.24-.48,7-.11.89-.23,1.61-.32,2.11,0,.23-.08.42-.11.57s0,.19,0,.19"/><path class="cls-7" d="M66.85,86.09a5.2,5.2,0,0,1,.08-.6c.08-.38.21-.93.4-1.6a21.91,21.91,0,0,1,.85-2.3,19.16,19.16,0,0,1,1.36-2.67,15,15,0,0,1,3.51-4.15,7.54,7.54,0,0,1,.77-.55c.12-.07.22-.15.33-.2l.29-.15a3.14,3.14,0,0,1,.55-.26,13.59,13.59,0,0,0-5.3,5.4,23.24,23.24,0,0,0-1.36,2.64c-.37.84-.65,1.62-.87,2.28s-.36,1.2-.46,1.58a3.75,3.75,0,0,1-.15.58"/><rect class="cls-7" x="59.69" y="86.66" width="15.29" height="1.77"/><path class="cls-9" d="M60.08,88.38c0-.06,3.09-.11,6.91-.11s6.92,0,6.92.11-3.09.11-6.92.11-6.91,0-6.91-.11"/><path class="cls-9" d="M61,94.55a12.78,12.78,0,0,0,1.78.77,2.66,2.66,0,0,0,2-.25c.7-.36,1.34-1,2.17-1.44a3.16,3.16,0,0,1,1.32-.43,2.4,2.4,0,0,1,1.26.29c.73.38,1.25.9,1.77,1.19a2.52,2.52,0,0,0,1.31.43,4.29,4.29,0,0,0,.52-.06,1.13,1.13,0,0,1-.51.14,2.48,2.48,0,0,1-1.4-.37c-.55-.29-1.08-.8-1.78-1.15a2.4,2.4,0,0,0-2.39.16c-.79.43-1.44,1.06-2.18,1.42a2.79,2.79,0,0,1-2.12.22,5.19,5.19,0,0,1-1.31-.62c-.29-.17-.44-.28-.43-.3"/><path class="cls-9" d="M72.33,93s-.14,0-.25.16a.27.27,0,0,0,.11.47.27.27,0,0,0,.36-.32c0-.18-.14-.24-.12-.27s.19,0,.27.23a.49.49,0,0,1-.06.43.48.48,0,0,1-.52.14.46.46,0,0,1-.34-.41.48.48,0,0,1,.19-.38c.2-.16.37-.07.36,0"/><path class="cls-9" d="M68.45,94.61s.16-.06.3.12a.42.42,0,0,1,.06.39.41.41,0,0,1-.41.26.42.42,0,0,1-.39-.29.4.4,0,0,1,.08-.38c.16-.17.32-.12.31-.1s-.11.06-.18.19a.23.23,0,0,0,.19.36.23.23,0,0,0,.21-.35c-.06-.13-.17-.16-.17-.2"/><path class="cls-9" d="M63.62,93.49s.18,0,.3.21a.47.47,0,0,1,0,.43.48.48,0,1,1-.76-.56c.18-.18.36-.13.35-.1s-.13,0-.23.2a.29.29,0,1,0,.51.08c0-.17-.16-.23-.15-.26"/><rect class="cls-15" x="638.05" y="98.64" width="669.38" height="10.58"/><path class="cls-2" d="M672.49,98.64a13.1,13.1,0,0,1,.28,1.65,30.84,30.84,0,0,1,0,7.27,14.11,14.11,0,0,1-.29,1.65,14.11,14.11,0,0,1-.29-1.65,29.51,29.51,0,0,1-.21-3.63,31.81,31.81,0,0,1,.21-3.64A14.11,14.11,0,0,1,672.49,98.64Z"/><path class="cls-2" d="M712.52,98.64a14.11,14.11,0,0,1,.29,1.65,31.81,31.81,0,0,1,.21,3.64,29.51,29.51,0,0,1-.21,3.63,14.11,14.11,0,0,1-.29,1.65,14.11,14.11,0,0,1-.29-1.65,30.84,30.84,0,0,1,0-7.27A13.1,13.1,0,0,1,712.52,98.64Z"/><path class="cls-2" d="M752.55,98.64a14.11,14.11,0,0,1,.29,1.65,31.57,31.57,0,0,1,0,7.27,14.11,14.11,0,0,1-.29,1.65,15.81,15.81,0,0,1-.28-1.65,30.14,30.14,0,0,1,0-7.27A15.81,15.81,0,0,1,752.55,98.64Z"/><path class="cls-2" d="M792.59,98.64a15.81,15.81,0,0,1,.28,1.65,31.62,31.62,0,0,1,.22,3.64,34.07,34.07,0,0,1-.21,3.63,14.11,14.11,0,0,1-.29,1.65,14.11,14.11,0,0,1-.29-1.65,29.51,29.51,0,0,1-.21-3.63,31.81,31.81,0,0,1,.21-3.64A14.11,14.11,0,0,1,792.59,98.64Z"/><path class="cls-2" d="M832.62,98.64a14.11,14.11,0,0,1,.29,1.65,31.81,31.81,0,0,1,.21,3.64,29.51,29.51,0,0,1-.21,3.63,14.11,14.11,0,0,1-.29,1.65,14.11,14.11,0,0,1-.29-1.65,31.62,31.62,0,0,1-.21-3.63,34.27,34.27,0,0,1,.21-3.64A14.11,14.11,0,0,1,832.62,98.64Z"/><path class="cls-2" d="M872.66,98.64a15.81,15.81,0,0,1,.28,1.65,30.14,30.14,0,0,1,0,7.27,15.81,15.81,0,0,1-.28,1.65,14.11,14.11,0,0,1-.29-1.65,31.57,31.57,0,0,1,0-7.27A14.11,14.11,0,0,1,872.66,98.64Z"/><path class="cls-2" d="M912.69,98.64a13.1,13.1,0,0,1,.28,1.65,31.62,31.62,0,0,1,.22,3.64,34.07,34.07,0,0,1-.21,3.63,14.11,14.11,0,0,1-.29,1.65,14.11,14.11,0,0,1-.29-1.65,29.51,29.51,0,0,1-.21-3.63,31.81,31.81,0,0,1,.21-3.64A14.11,14.11,0,0,1,912.69,98.64Z"/><path class="cls-2" d="M952.72,98.64a14.11,14.11,0,0,1,.29,1.65,31.81,31.81,0,0,1,.21,3.64,29.51,29.51,0,0,1-.21,3.63,14.11,14.11,0,0,1-.29,1.65,14.11,14.11,0,0,1-.29-1.65,34.07,34.07,0,0,1-.21-3.63,31.62,31.62,0,0,1,.22-3.64A13.1,13.1,0,0,1,952.72,98.64Z"/><path class="cls-2" d="M992.75,98.64a14.11,14.11,0,0,1,.29,1.65,31.57,31.57,0,0,1,0,7.27,14.11,14.11,0,0,1-.29,1.65,15.81,15.81,0,0,1-.28-1.65,30.14,30.14,0,0,1,0-7.27A15.81,15.81,0,0,1,992.75,98.64Z"/><path class="cls-2" d="M1032.79,98.64a13.1,13.1,0,0,1,.28,1.65,31.62,31.62,0,0,1,.22,3.64,34.07,34.07,0,0,1-.21,3.63,14.11,14.11,0,0,1-.29,1.65,14.11,14.11,0,0,1-.29-1.65,29.51,29.51,0,0,1-.21-3.63,31.81,31.81,0,0,1,.21-3.64A14.11,14.11,0,0,1,1032.79,98.64Z"/><path class="cls-2" d="M1072.82,98.64a14.11,14.11,0,0,1,.29,1.65,31.81,31.81,0,0,1,.21,3.64,29.51,29.51,0,0,1-.21,3.63,14.11,14.11,0,0,1-.29,1.65,14.11,14.11,0,0,1-.29-1.65,34.07,34.07,0,0,1-.21-3.63,31.62,31.62,0,0,1,.22-3.64A13.1,13.1,0,0,1,1072.82,98.64Z"/><path class="cls-2" d="M1112.85,98.64a14.11,14.11,0,0,1,.29,1.65,31.57,31.57,0,0,1,0,7.27,14.11,14.11,0,0,1-.29,1.65,15.81,15.81,0,0,1-.28-1.65,30.14,30.14,0,0,1,0-7.27A15.81,15.81,0,0,1,1112.85,98.64Z"/><path class="cls-2" d="M1152.89,98.64a13.1,13.1,0,0,1,.28,1.65,30.84,30.84,0,0,1,0,7.27,14.11,14.11,0,0,1-.29,1.65,14.11,14.11,0,0,1-.29-1.65,29.51,29.51,0,0,1-.21-3.63,31.81,31.81,0,0,1,.21-3.64A14.11,14.11,0,0,1,1152.89,98.64Z"/><path class="cls-2" d="M1192.92,98.64a14.11,14.11,0,0,1,.29,1.65,31.81,31.81,0,0,1,.21,3.64,29.51,29.51,0,0,1-.21,3.63,14.11,14.11,0,0,1-.29,1.65,14.11,14.11,0,0,1-.29-1.65,30.84,30.84,0,0,1,0-7.27A13.1,13.1,0,0,1,1192.92,98.64Z"/><path class="cls-2" d="M1233,98.64a15.81,15.81,0,0,1,.28,1.65,30.14,30.14,0,0,1,0,7.27,15.81,15.81,0,0,1-.28,1.65,14.11,14.11,0,0,1-.29-1.65,31.57,31.57,0,0,1,0-7.27A14.11,14.11,0,0,1,1233,98.64Z"/><path class="cls-2" d="M1273,98.64a13.1,13.1,0,0,1,.28,1.65,30.84,30.84,0,0,1,0,7.27,14.11,14.11,0,0,1-.29,1.65,14.11,14.11,0,0,1-.29-1.65,29.51,29.51,0,0,1-.21-3.63,31.81,31.81,0,0,1,.21-3.64A14.11,14.11,0,0,1,1273,98.64Z"/><rect class="cls-15" y="98.47" width="669.38" height="10.58"/><path class="cls-2" d="M34.44,98.47a14.06,14.06,0,0,1,.29,1.66,31.62,31.62,0,0,1,.21,3.63,32,32,0,0,1-.21,3.64,14.11,14.11,0,0,1-.29,1.65,14.11,14.11,0,0,1-.29-1.65,32,32,0,0,1-.21-3.64,29.34,29.34,0,0,1,.22-3.63A13.07,13.07,0,0,1,34.44,98.47Z"/><path class="cls-2" d="M74.47,98.47a14.06,14.06,0,0,1,.29,1.66,31.57,31.57,0,0,1,0,7.27,14.11,14.11,0,0,1-.29,1.65,15.81,15.81,0,0,1-.28-1.65,31.76,31.76,0,0,1-.22-3.64,31.43,31.43,0,0,1,.22-3.63A15.74,15.74,0,0,1,74.47,98.47Z"/><path class="cls-2" d="M114.51,98.47a15.74,15.74,0,0,1,.28,1.66,31.43,31.43,0,0,1,.22,3.63,31.76,31.76,0,0,1-.22,3.64,13.1,13.1,0,0,1-.28,1.65,14.11,14.11,0,0,1-.29-1.65,29.8,29.8,0,0,1-.21-3.64,31.62,31.62,0,0,1,.21-3.63A14.06,14.06,0,0,1,114.51,98.47Z"/><path class="cls-2" d="M154.54,98.47a14.06,14.06,0,0,1,.29,1.66,31.62,31.62,0,0,1,.21,3.63,29.8,29.8,0,0,1-.21,3.64,14.11,14.11,0,0,1-.29,1.65,14.11,14.11,0,0,1-.29-1.65,32,32,0,0,1-.21-3.64,29.34,29.34,0,0,1,.22-3.63A13.07,13.07,0,0,1,154.54,98.47Z"/><path class="cls-2" d="M194.57,98.47a14.06,14.06,0,0,1,.29,1.66,31.57,31.57,0,0,1,0,7.27,14.11,14.11,0,0,1-.29,1.65,15.81,15.81,0,0,1-.28-1.65,31.76,31.76,0,0,1-.22-3.64,31.43,31.43,0,0,1,.22-3.63A15.74,15.74,0,0,1,194.57,98.47Z"/><path class="cls-2" d="M234.61,98.47a15.74,15.74,0,0,1,.28,1.66,31.43,31.43,0,0,1,.22,3.63,31.76,31.76,0,0,1-.22,3.64,13.1,13.1,0,0,1-.28,1.65,14.11,14.11,0,0,1-.29-1.65,29.8,29.8,0,0,1-.21-3.64,31.62,31.62,0,0,1,.21-3.63A14.06,14.06,0,0,1,234.61,98.47Z"/><path class="cls-2" d="M274.64,98.47a14.06,14.06,0,0,1,.29,1.66,31.62,31.62,0,0,1,.21,3.63,29.8,29.8,0,0,1-.21,3.64,14.11,14.11,0,0,1-.29,1.65,14.11,14.11,0,0,1-.29-1.65,32,32,0,0,1-.21-3.64,29.34,29.34,0,0,1,.22-3.63A13.07,13.07,0,0,1,274.64,98.47Z"/><path class="cls-2" d="M314.67,98.47a14.06,14.06,0,0,1,.29,1.66,31.57,31.57,0,0,1,0,7.27,14.11,14.11,0,0,1-.29,1.65,15.81,15.81,0,0,1-.28-1.65,31.76,31.76,0,0,1-.22-3.64,31.43,31.43,0,0,1,.22-3.63A15.74,15.74,0,0,1,314.67,98.47Z"/><path class="cls-2" d="M354.71,98.47a15.74,15.74,0,0,1,.28,1.66,31.43,31.43,0,0,1,.22,3.63,34.43,34.43,0,0,1-.21,3.64,14.11,14.11,0,0,1-.29,1.65,14.11,14.11,0,0,1-.29-1.65,29.8,29.8,0,0,1-.21-3.64,31.62,31.62,0,0,1,.21-3.63A14.06,14.06,0,0,1,354.71,98.47Z"/><path class="cls-2" d="M394.74,98.47a14.06,14.06,0,0,1,.29,1.66,31.62,31.62,0,0,1,.21,3.63,29.8,29.8,0,0,1-.21,3.64,14.11,14.11,0,0,1-.29,1.65,14.11,14.11,0,0,1-.29-1.65,32,32,0,0,1-.21-3.64,31.43,31.43,0,0,1,.22-3.63A13.07,13.07,0,0,1,394.74,98.47Z"/><path class="cls-2" d="M434.77,98.47a14.06,14.06,0,0,1,.29,1.66,31.57,31.57,0,0,1,0,7.27,14.11,14.11,0,0,1-.29,1.65,15.81,15.81,0,0,1-.28-1.65,31.76,31.76,0,0,1-.22-3.64,31.43,31.43,0,0,1,.22-3.63A15.74,15.74,0,0,1,434.77,98.47Z"/><path class="cls-2" d="M474.81,98.47a15.74,15.74,0,0,1,.28,1.66,31.43,31.43,0,0,1,.22,3.63,31.76,31.76,0,0,1-.22,3.64,13.1,13.1,0,0,1-.28,1.65,14.11,14.11,0,0,1-.29-1.65,29.8,29.8,0,0,1-.21-3.64,31.62,31.62,0,0,1,.21-3.63A14.06,14.06,0,0,1,474.81,98.47Z"/><path class="cls-2" d="M514.84,98.47a14.06,14.06,0,0,1,.29,1.66,31.62,31.62,0,0,1,.21,3.63,29.8,29.8,0,0,1-.21,3.64,14.11,14.11,0,0,1-.29,1.65,14.11,14.11,0,0,1-.29-1.65,32,32,0,0,1-.21-3.64,31.43,31.43,0,0,1,.22-3.63A13.07,13.07,0,0,1,514.84,98.47Z"/><path class="cls-2" d="M554.87,98.47a14.06,14.06,0,0,1,.29,1.66,31.57,31.57,0,0,1,0,7.27,14.11,14.11,0,0,1-.29,1.65,15.81,15.81,0,0,1-.28-1.65,31.57,31.57,0,0,1,0-7.27A15.74,15.74,0,0,1,554.87,98.47Z"/><path class="cls-2" d="M594.91,98.47a13.07,13.07,0,0,1,.28,1.66,31.43,31.43,0,0,1,.22,3.63,34.43,34.43,0,0,1-.21,3.64,14.11,14.11,0,0,1-.29,1.65,14.11,14.11,0,0,1-.29-1.65,29.8,29.8,0,0,1-.21-3.64,31.62,31.62,0,0,1,.21-3.63A14.06,14.06,0,0,1,594.91,98.47Z"/><path class="cls-2" d="M634.94,98.47a14.06,14.06,0,0,1,.29,1.66,31.62,31.62,0,0,1,.21,3.63,29.8,29.8,0,0,1-.21,3.64,14.11,14.11,0,0,1-.29,1.65,14.11,14.11,0,0,1-.29-1.65,32,32,0,0,1-.21-3.64,31.43,31.43,0,0,1,.22-3.63A13.07,13.07,0,0,1,634.94,98.47Z"/></svg>