<?xml version="1.0" encoding="utf-8"?>
<!-- Generator: Adobe Illustrator 16.0.0, SVG Export Plug-In . SVG Version: 6.00 Build 0)  -->
<!DOCTYPE svg PUBLIC "-//W3C//DTD SVG 1.1//EN" "http://www.w3.org/Graphics/SVG/1.1/DTD/svg11.dtd">
<svg version="1.1" id="Calque_1" xmlns="http://www.w3.org/2000/svg" xmlns:xlink="http://www.w3.org/1999/xlink" x="0px" y="0px"
	 width="711.5px" height="368.5px" viewBox="-93.5 -9 711.5 368.5" enable-background="new -93.5 -9 711.5 368.5"
	 xml:space="preserve">
<g>
	<g>
		<g>
			<polygon fill="#EBEBEB" points="475.744,84.947 475.754,84.947 475.75,82.573 			"/>
			<path fill="#EBEBEB" d="M495.033,153.948l0.979-1.231l-0.211-1.605l-1.326-0.249l-0.981-1.107l-0.347-19.026l0.839-1.238
				l-0.35-1.48l-1.189-0.861l-0.769-18.039l0.837-0.494l-0.209-1.48l-0.98-0.743l-0.837-0.739l-0.212-18.039l0.424-0.861L490,85.382
				l-1.325-1.854l-0.209-14.825l0.979-1.854l-0.696-1.977l-0.143-12.23c0,0-1.328-1.975-2.168,0v0.99l-3.215-5.314v-4.691
				c0,0-0.488-1.361-1.537-1.606l-5.71-32.414V5.17c0.472-0.18,0.821-0.92,0.821-1.812c0-0.941-0.396-1.714-0.911-1.832v-2.893
				h0.755c0.048,0,0.08-0.093,0.08-0.21c0-0.112-0.032-0.204-0.08-0.204h-0.755v-1.718h-0.268v1.718h-0.76
				c-0.045,0-0.08,0.091-0.08,0.204c0,0.117,0.035,0.21,0.08,0.21h0.76v2.893c-0.515,0.117-0.919,0.89-0.919,1.832
				c0,0.892,0.354,1.632,0.825,1.812V9.6l-5.708,32.417c-1.051,0.245-1.537,1.606-1.537,1.606v4.691l-3.216,5.314v-0.99
				c-0.842-1.975-2.17,0-2.17,0l-0.14,12.23l-0.697,1.977l0.979,1.854l-0.212,14.826l-1.331,1.854l-0.693,1.356l0.416,0.864
				l-0.209,18.04l-0.836,0.741l-0.979,0.742l-0.21,1.479l0.84,0.494l-0.77,18.039l-1.188,0.861l-0.351,1.48l0.839,1.238L458,149.75
				l-0.979,1.107l-1.328,0.249l-0.209,1.605l0.979,1.235l-1.951,28.909l18.826-2.102h4.824l18.825,2.102L495.033,153.948z
				 M475.744,84.947l0.006-2.374l0.004,2.374H475.744z"/>
		</g>
		<g>
			<polygon fill="#EBEBEB" points="582.366,202.771 557.334,194.396 557.334,185.137 555.248,184.036 553.35,179.846 
				505.748,179.846 447.904,179.846 400.302,179.846 398.403,184.036 396.318,185.137 396.318,194.396 371.286,202.771 
				369.01,206.081 369.01,209.161 370.719,211.591 370.719,218.203 370.719,276.842 466.488,276.842 487.164,276.842 
				582.935,276.842 582.935,218.203 582.935,211.591 584.645,209.161 584.645,206.081 			"/>
			<path fill="#EBEBEB" d="M480.746,256.976c0-2.052-1.756-3.723-3.923-3.723c-2.163,0-3.92,1.67-3.92,3.723v16.488h7.843V256.976z"
				/>
			<path fill="#EBEBEB" d="M480.013,209.746c0-1.186-1.426-2.146-3.189-2.146c-1.756,0-3.182,0.961-3.182,2.146v9.485h6.371V209.746
				z"/>
		</g>
	</g>
	<g>
		<g>
			<g>
				<g>
					<path fill="#FFFFFF" d="M474.775,69.084c0-1.205-0.465-2.185-1.033-2.185c-0.572,0-1.037,0.979-1.037,2.185v9.676h2.07V69.084z
						"/>
					<path fill="#FFFFFF" d="M478.793,69.084c0-1.205-0.461-2.185-1.029-2.185c-0.576,0-1.034,0.979-1.034,2.185v9.676h2.063V69.084
						z"/>
				</g>
				<g>
					<path fill="#FFFFFF" d="M474.651,91.549c0-1.374-0.521-2.489-1.165-2.489c-0.642,0-1.164,1.115-1.164,2.489v11.032h2.329
						V91.549z"/>
					<path fill="#FFFFFF" d="M479.179,91.549c0-1.374-0.521-2.489-1.166-2.489c-0.646,0-1.164,1.115-1.164,2.489v11.032h2.33V91.549
						z"/>
				</g>
				<g>
					<path fill="#FFFFFF" d="M474.5,112.119c0-1.766-0.592-3.19-1.318-3.19c-0.735,0-1.328,1.428-1.328,3.19v14.139h2.646V112.119z"
						/>
					<path fill="#FFFFFF" d="M479.647,112.119c0-1.766-0.591-3.19-1.323-3.19c-0.729,0-1.326,1.428-1.326,3.19v14.139h2.649V112.119
						z"/>
				</g>
				<g>
					<path fill="#FFFFFF" d="M474.436,136.415c0-1.854-0.623-3.354-1.392-3.354c-0.77,0-1.394,1.5-1.394,3.354v14.852h2.782
						L474.436,136.415L474.436,136.415z"/>
					<path fill="#FFFFFF" d="M479.845,136.415c0-1.854-0.621-3.354-1.391-3.354c-0.771,0-1.395,1.5-1.395,3.354v14.852h2.782
						L479.845,136.415L479.845,136.415z"/>
				</g>
				<g>
					<path fill="#FFFFFF" d="M474.332,159.986c0-2-0.674-3.621-1.502-3.621c-0.83,0-1.505,1.622-1.505,3.621v16.038h3.007V159.986z"
						/>
					<path fill="#FFFFFF" d="M480.177,159.986c0-2-0.675-3.621-1.505-3.621c-0.827,0-1.504,1.622-1.504,3.621v16.038h3.009V159.986z
						"/>
				</g>
			</g>
			<g>
				<g>
					<path fill="#FFFFFF" d="M469.957,71.615c0-1.167-0.397-2.266-0.897-2.449c-0.495-0.187-0.898,0.61-0.898,1.779v8.49l1.8-0.795
						v-7.025H469.957z"/>
					<path fill="#FFFFFF" d="M466.805,73.669c0-1.169-0.401-2.271-0.899-2.454c-0.494-0.188-0.896,0.611-0.896,1.779v7.836
						l1.799-0.802L466.805,73.669L466.805,73.669z"/>
				</g>
				<g>
					<path fill="#FFFFFF" d="M469.358,94.521c0-1.272-0.438-2.476-0.979-2.678c-0.543-0.205-0.98,0.671-0.98,1.944v9.377
						l1.963-0.791L469.358,94.521L469.358,94.521z"/>
					<path fill="#FFFFFF" d="M465.918,96.76c0-1.278-0.438-2.479-0.979-2.68c-0.539-0.201-0.979,0.669-0.979,1.944v8.523
						l1.961-0.793v-6.997L465.918,96.76L465.918,96.76z"/>
				</g>
				<g>
					<path fill="#FFFFFF" d="M468.631,114.602c0-1.709-0.588-3.311-1.313-3.582c-0.721-0.271-1.312,0.896-1.312,2.604v13.098
						l2.627-1.048v-11.072H468.631z"/>
					<path fill="#FFFFFF" d="M464.433,117.75c0-1.707-0.594-3.314-1.316-3.584c-0.726-0.273-1.312,0.896-1.312,2.602v11.626
						l2.629-1.044L464.433,117.75L464.433,117.75z"/>
				</g>
				<g>
					<path fill="#FFFFFF" d="M468.143,137.39c0-2.066-0.642-3.984-1.431-4.276c-0.795-0.295-1.435,1.143-1.435,3.204v14.922
						l2.862-0.866L468.143,137.39L468.143,137.39z"/>
					<path fill="#FFFFFF" d="M463.545,139.961c0-1.83-0.633-3.553-1.407-3.842c-0.777-0.289-1.407,0.959-1.407,2.789v13.705
						l2.814-0.854V139.961z"/>
				</g>
				<g>
					<path fill="#FFFFFF" d="M467.344,160.428c0-2.222-0.693-4.284-1.541-4.602c-0.858-0.32-1.548,1.223-1.548,3.447v17.537
						l3.089-0.337V160.428z"/>
					<path fill="#FFFFFF" d="M462.387,163.198c0-1.974-0.681-3.823-1.517-4.139c-0.84-0.312-1.519,1.033-1.519,3.005v15.276
						l3.032-0.33L462.387,163.198L462.387,163.198z"/>
				</g>
			</g>
			<g>
				<g>
					<path fill="#FFFFFF" d="M481.543,71.615c0-1.167,0.403-2.266,0.902-2.449c0.493-0.187,0.897,0.61,0.897,1.779v8.49
						l-1.802-0.795v-7.025H481.543z"/>
					<path fill="#FFFFFF" d="M484.696,73.669c0-1.169,0.396-2.271,0.896-2.454c0.495-0.188,0.896,0.611,0.896,1.779v7.836
						l-1.793-0.802L484.696,73.669L484.696,73.669z"/>
				</g>
				<g>
					<path fill="#FFFFFF" d="M482.143,94.521c0-1.272,0.438-2.476,0.981-2.678c0.537-0.205,0.979,0.671,0.979,1.944v9.377
						l-1.962-0.791L482.143,94.521L482.143,94.521z"/>
					<path fill="#FFFFFF" d="M485.58,96.76c0-1.278,0.439-2.479,0.982-2.68c0.54-0.201,0.979,0.669,0.979,1.944v8.523l-1.961-0.793
						V96.76z"/>
				</g>
				<g>
					<path fill="#FFFFFF" d="M482.868,114.602c0-1.709,0.587-3.311,1.313-3.582c0.728-0.271,1.314,0.896,1.314,2.604v13.098
						l-2.631-1.048L482.868,114.602L482.868,114.602z"/>
					<path fill="#FFFFFF" d="M487.068,117.75c0-1.707,0.59-3.314,1.311-3.584c0.729-0.273,1.315,0.896,1.315,2.602v11.626
						l-2.626-1.044V117.75z"/>
				</g>
				<g>
					<path fill="#FFFFFF" d="M483.355,137.39c0-2.066,0.641-3.984,1.432-4.276c0.793-0.295,1.437,1.143,1.437,3.204v14.922
						l-2.865-0.866L483.355,137.39L483.355,137.39z"/>
					<path fill="#FFFFFF" d="M487.959,139.961c0-1.83,0.629-3.553,1.404-3.842c0.777-0.289,1.405,0.959,1.405,2.789v13.705
						l-2.81-0.854V139.961L487.959,139.961z"/>
				</g>
				<g>
					<path fill="#FFFFFF" d="M484.158,160.428c0-2.222,0.689-4.284,1.542-4.602c0.854-0.32,1.546,1.223,1.546,3.447v17.537
						l-3.088-0.337V160.428z"/>
					<path fill="#FFFFFF" d="M489.114,163.198c0-1.974,0.681-3.823,1.515-4.139c0.841-0.312,1.519,1.033,1.519,3.005v15.276
						l-3.03-0.33L489.114,163.198L489.114,163.198z"/>
				</g>
			</g>
		</g>
		<rect x="475.389" y="39.272" fill="#FFFFFF" width="0.724" height="2.938"/>
		<g>
			<g>
				<path fill="#FFFFFF" d="M387.135,222.887c0-1.248-1.11-2.257-2.479-2.257c-1.362,0-2.477,1.009-2.477,2.257v10.012h4.956
					V222.887z"/>
				<path fill="#FFFFFF" d="M404.58,222.887c0-1.248-1.107-2.257-2.477-2.257s-2.475,1.009-2.475,2.257v10.012h4.951V222.887
					L404.58,222.887z"/>
				<path fill="#FFFFFF" d="M420.129,222.887c0-1.248-1.104-2.257-2.475-2.257c-1.367,0-2.475,1.009-2.475,2.257v10.012h4.95
					L420.129,222.887L420.129,222.887z"/>
				<path fill="#FFFFFF" d="M436.062,222.887c0-1.248-1.107-2.257-2.477-2.257c-1.367,0-2.479,1.009-2.479,2.257v10.012h4.954
					L436.062,222.887L436.062,222.887z"/>
			</g>
			<g>
				<path fill="#FFFFFF" d="M522.543,222.887c0-1.248-1.104-2.257-2.479-2.257c-1.366,0-2.475,1.009-2.475,2.257v10.012h4.951
					v-10.012H522.543z"/>
				<path fill="#FFFFFF" d="M539.991,222.887c0-1.248-1.107-2.257-2.477-2.257s-2.478,1.009-2.478,2.257v10.012h4.951
					L539.991,222.887L539.991,222.887z"/>
				<path fill="#FFFFFF" d="M555.543,222.887c0-1.248-1.105-2.257-2.476-2.257s-2.476,1.009-2.476,2.257v10.012h4.951V222.887
					L555.543,222.887z"/>
				<path fill="#FFFFFF" d="M571.475,222.887c0-1.248-1.109-2.257-2.476-2.257c-1.367,0-2.479,1.009-2.479,2.257v10.012h4.952
					L571.475,222.887L571.475,222.887z"/>
			</g>
		</g>
		<g>
			<g>
				<path fill="#FFFFFF" d="M385.545,254.418c0-1.459-1.245-2.646-2.78-2.646c-1.542,0-2.789,1.185-2.789,2.646v11.707h5.569
					V254.418z"/>
				<path fill="#FFFFFF" d="M419.681,254.418c0-1.459-1.247-2.646-2.785-2.646s-2.786,1.185-2.786,2.646v11.707h5.571V254.418z"/>
				<path fill="#FFFFFF" d="M402.611,254.418c0-1.459-1.245-2.646-2.784-2.646c-1.538,0-2.786,1.185-2.786,2.646v11.707h5.57
					V254.418z"/>
			</g>
			<g>
				<path fill="#FFFFFF" d="M573.678,254.418c0-1.459-1.247-2.646-2.784-2.646c-1.54,0-2.785,1.185-2.785,2.646v11.707h5.569
					V254.418z"/>
				<path fill="#FFFFFF" d="M556.23,254.418c0-1.459-1.245-2.646-2.786-2.646c-1.538,0-2.785,1.185-2.785,2.646v11.707h5.571
					V254.418z"/>
				<path fill="#FFFFFF" d="M538.78,254.418c0-1.459-1.243-2.646-2.78-2.646c-1.541,0-2.789,1.185-2.789,2.646v11.707h5.569V254.418
					z"/>
			</g>
		</g>
		<g>
			<g>
				<path fill="#FFFFFF" d="M511.094,257.064c0-1.46-1.247-2.643-2.784-2.643c-1.538,0-2.785,1.183-2.785,2.643v11.707h5.569
					V257.064z"/>
				<path fill="#FFFFFF" d="M448.135,257.064c0-1.46-1.254-2.643-2.789-2.643c-1.538,0-2.785,1.183-2.785,2.643v11.707h5.574
					V257.064z"/>
			</g>
			<path fill="#FFFFFF" d="M498.955,257.064c0-1.46-1.248-2.643-2.785-2.643c-1.534,0-2.78,1.183-2.78,2.643v11.707h5.565V257.064z"
				/>
			<path fill="#FFFFFF" d="M459.889,257.064c0-1.46-1.249-2.643-2.789-2.643c-1.535,0-2.782,1.183-2.782,2.643v11.707h5.571V257.064
				z"/>
		</g>
		<g>
			<g>
				<path fill="#FFFFFF" d="M469.228,209.746c0-1.186-1.172-2.146-2.615-2.146c-1.445,0-2.619,0.961-2.619,2.146v9.485h5.234
					V209.746z"/>
				<path fill="#FFFFFF" d="M461.314,209.746c0-1.186-1.025-2.146-2.291-2.146c-1.262,0-2.291,0.961-2.291,2.146v9.485h4.582
					V209.746z"/>
			</g>
			<g>
				<path fill="#FFFFFF" d="M484.427,209.746c0-1.186,1.172-2.146,2.611-2.146c1.448,0,2.618,0.961,2.618,2.146v9.485h-5.229
					V209.746z"/>
				<path fill="#FFFFFF" d="M492.342,209.746c0-1.186,1.023-2.146,2.285-2.146c1.27,0,2.293,0.961,2.293,2.146v9.485h-4.578V209.746
					z"/>
			</g>
		</g>
		<g>
			<path fill="#FFFFFF" d="M405.328,243.113c0,1.947-1.356,3.528-3.033,3.528c-1.679,0-3.033-1.581-3.033-3.528
				c0-1.944,1.354-3.525,3.033-3.525C403.969,239.585,405.328,241.166,405.328,243.113z"/>
			<ellipse fill="#FFFFFF" cx="551.359" cy="243.113" rx="3.036" ry="3.528"/>
			<ellipse fill="#FFFFFF" cx="493.705" cy="243.113" rx="3.035" ry="3.528"/>
			<path fill="#FFFFFF" d="M458.428,243.113c0,1.947-1.358,3.528-3.03,3.528c-1.679,0-3.036-1.581-3.036-3.528
				c0-1.944,1.357-3.525,3.036-3.525C457.069,239.585,458.428,241.166,458.428,243.113z"/>
		</g>
	</g>
</g>
<path fill="#EBEBEB" d="M609.58,333.584v-10.848l1.459-1.461v-4.799h-6.259v-4.586h-3.754v-3.129l-2.921-2.504h-9.499
	c-0.037-0.695-0.211-2.239-1.033-1.251l-0.938,0.208l0.099-0.594l0.477-0.345l0.521-0.262l0.784-0.26l0.571-0.265l0.68-0.36
	l0.363-0.626l0.205-0.73l-0.103-0.573c-0.746-0.915-2.589-0.024-3.791,0.709l-0.327-0.654l-0.729-0.418c0,0,0.219-2.406-0.413-4.249
	c2.017-1.146,0.604-4.308-0.096-5.608l0.402-0.259l0.729-2.502h-6.358v-6.258c0,0-1.251,0.104-1.459-1.461v-5.525l1.146-2.4v-0.625
	h-7.928v-6.468l-0.521-1.042c0,0-1.669-0.729-1.771-1.771v-0.832l-0.627-0.629v-6.675c0,0,0.938-1.771,1.25-4.381l1.983-10.429
	v-0.835h-2.295l0.623-0.312l1.045-0.417l0.312-0.729v-0.938l-0.626-0.312l-0.312-1.146l-0.104-0.938l0.208-1.148v-1.146l0.312-1.146
	v-0.625l-0.416-0.836l-0.521-0.729l-0.312-0.627l-0.627-0.104h-0.834l-1.041,0.521l-0.939,0.521l-0.521,0.624l-0.312,0.522
	l-0.729,0.834c0,0,0-2.085-2.502-3.857v-25.865l0.832-0.312v-0.938c0,0-0.207-0.729-0.207-1.044c0-0.312-0.104-1.252-0.104-1.252
	l0.312-0.625l0.834-0.312l1.146-0.523l0.627-0.52l0.417-0.626l-0.104-0.938v-1.043l-0.209-0.627l-0.627-0.729v-1.147l-0.207-0.625
	v-0.938V188l-0.209-0.835l-0.209-0.835l-0.104-1.042l0.417-0.729l-0.104-1.146l-0.418-0.729l-0.418,0.104l-0.623-0.312l0.104-0.938
	l0.729-0.418l0.521-0.834l-0.207-1.044l-0.312-0.521l-0.521-0.939l-0.416-0.729l-0.729-0.104l-0.418-0.104l-2.189-63.932
	c0,0,0.73-0.104,1.252-1.564c0,0,1.773,0.835,2.921-1.771l0.729-0.729l0.209-0.626l-0.104-1.042l-0.417-0.731l1.876-0.729
	l-1.876-2.503l-0.105-3.233l0.419-1.043l-0.209-1.146l-0.104-1.043v-0.625c0,0,2.085-1.879,0.521-4.484
	c-1.563-2.609-0.104-0.208-0.104-0.208l2.293-2.086l-1.668-1.25c0,0-3.231,1.459-9.28,2.084c0,0,4.734-6.667-2.85-8.656
	c0.836-0.719,1.369-1.78,1.369-2.972c0-0.184-0.014-0.362-0.037-0.537l0.593-0.05l0.245-0.124l-0.188-0.554l-0.185-0.804
	c0,0,0.062-0.678,0.124-0.859c0.061-0.188,0.557,0.061,0.557,0.061l0.613,0.124l0.743,0.062c0,0,0.491-0.31,0.679-0.31
	c0.184,0,0.614-0.31,0.614-0.31c2.099-0.369,3.575-1.171,3.575-1.171l0.247-0.863v-0.863l-0.617-1.17l0.617-0.062l0.74-0.926
	c0.737-3.021-3.207-5.979-3.207-5.979l-0.556-1.729c2.221-1.665-2.158-4.747-2.158-4.747c0.862-1.479,0.246-3.696,0.246-3.696h0.617
	c3.514,0,5.918-2.035,5.918-2.035l0.188-0.68l0.432-0.68l0.186-0.553l0.434-0.68l0.247-0.434l0.433-0.434v-0.43l0.737-0.437
	l-0.37-0.431c1.297-0.434,2.469-1.852,2.469-1.852c-1.231,0.493-1.912,0.311-1.912,0.311c2.035-0.558,2.592-1.912,2.592-1.912
	l-1.356,0.247c1.853-1.11,2.099-2.959,2.099-2.959l-0.926,0.555c1.355-2.036,1.11-4.191,1.11-4.191H569.9
	c0.925-1.91,0.125-3.146,0.125-3.146c-0.312,1.481-1.419,3.329-1.419,3.329c0.925-2.034,0.248-3.514,0.248-3.514
	c-0.124,2.466-1.914,4.007-1.914,4.007c0.68-1.047,0.861-2.465,0.861-2.465l0.125-0.558v-0.554L567.73,34.3l-0.123,0.493
	c-1.357,4.189-4.686,5.979-4.686,5.979c-1.729,1.109-3.395,2.65-3.395,2.65c-0.926,0.617-2.402,2.221-2.402,2.221l-0.312-0.186
	l-0.493-0.434c0.188-3.33-0.244-5.114-0.244-5.114l-0.062-0.864l-0.245-0.801l-0.187-0.805l-0.188-0.555l-0.188-0.678l0.125-0.247
	l0.369,0.247l0.369,0.124l0.494-0.124l-0.248-0.558l0.559,0.125L557,35.343h-0.557l-0.557-0.062l-0.555-0.245h-0.369l-0.311-0.188
	l-0.31,0.063l-0.433-0.124h-0.434l-0.246-0.493l-0.432,0.247l-0.247,0.493l-0.369,0.245l-0.31,0.245l-0.738,0.249l-0.435,0.062
	l-0.556,0.248l-0.246,0.37v0.492l0.309,0.312l0.681-0.063l0.616-0.244l0.308-0.433l0.433-0.185l0.433-0.124l0.247,0.309l0.369,0.494
	l0.312,0.369l0.187,0.617c0.12,1.171,0.309,4.009,0.309,4.009c0.186,2.156-0.739,2.28-0.739,2.28l-0.187-0.435v-0.491l-0.434-0.311
	l-0.615-0.37l-0.433-0.307l-0.433,0.061l-0.615,0.188l-0.805-0.246l0.062,0.431l-0.615-0.185l-0.371,0.493l0.493,0.185l-0.493,0.247
	l-0.371,0.493l-0.119,0.494l-0.247,0.49v0.74l-0.247,0.371l0.187,0.246l0.188,0.246v0.371l0.123,0.491l0.122,0.369l0.371,0.062
	l0.432,0.248l-0.557,0.246l-0.369,0.062l-0.431,0.184l-0.491,0.124h-0.493l-0.312,0.186l-0.367,0.37l-0.434,0.431l-0.74-0.307
	h-0.432l-0.434-0.062l-0.557-0.431c-0.431-0.617-1.725-1.913-1.725-1.913l0.432-0.122l-0.309-0.618l-0.188-0.49l-0.186-0.494
	l0.062-0.74l0.062-0.432l-0.188-0.74c-0.433-0.494,0.683-1.17,0.683-1.17l-0.56,0.184c0-0.554,0.863-1.541,0.863-1.541l-0.615,0.246
	c0.122-0.926,0.862-1.602,0.862-1.602l-0.185-0.371l0.185-0.556l0.431-0.738l-0.248-0.372l-0.246-0.245v-0.803l-0.612,0.247
	l-0.558-0.864v0.68l0.062,0.432l-0.186,0.369c0.433,1.052-0.74,2.281-0.74,2.281v0.495l-0.062,0.433l-0.247,0.123h-0.491
	l-0.557-0.371l-0.186,0.681l-0.678,0.062l0.31,0.434l-0.124,0.433l-0.309,0.125l0.309,0.369l0.309,0.431l0.311,0.37l0.309,0.494
	v0.309v0.369v0.495l0.062,0.678l0.062,0.493l0.312,0.802c0.369,1.174,1.106,2.774,1.106,2.774l0.558,0.924
	c0.615,1.11,2.096,1.542,2.096,1.542l0.062,0.494l0.247,0.555l0.188,0.558c-0.616,0.369-0.681,1.664-0.681,1.664
	c-0.556,3.331,0.615,3.638,0.615,3.638l0.555,0.494l0.188,0.678c0.062,2.282,1.418,3.515,1.418,3.515
	c0.68,1.604,2.528,2.897,2.528,2.897c0,0.863,0.309,2.282,0.309,2.282c0.37,1.172,0.492,2.59,0.492,2.59v0.74l-0.369,0.859
	l-0.185,0.493v0.494l-0.312,0.493l-0.492,0.309l-0.494,0.433l-0.309,0.31l-0.246,0.554l0.036,0.185
	c-0.448,0.637-0.715,1.415-0.715,2.254c0,1.161,0.508,2.202,1.312,2.918c-7.879,1.922-3.059,8.709-3.059,8.709
	c-6.047-0.625-9.28-2.084-9.28-2.084l-1.669,1.25l2.294,2.086c0,0,1.46-2.401-0.104,0.208c-1.564,2.604,0.521,4.483,0.521,4.483
	v0.625l-0.104,1.044l-0.208,1.146l0.417,1.043l-0.105,3.233l-1.877,2.503l1.877,0.729l-0.416,0.731l-0.104,1.042l0.209,0.626
	l0.729,0.729c1.147,2.607,2.922,1.772,2.922,1.772c0.521,1.461,1.252,1.563,1.252,1.563l-2.188,63.933l-0.419,0.104l-0.729,0.104
	l-0.416,0.729l-0.521,0.939l-0.312,0.521l-0.207,1.042l0.521,0.834l0.729,0.418l0.104,0.938l-0.625,0.312l-0.417-0.104l-0.417,0.729
	l-0.104,1.148l0.416,0.729l-0.104,1.044l-0.208,0.835l-0.209,0.835v0.833v0.938l-0.209,0.625v1.147l-0.626,0.729l-0.207,0.627v1.043
	l-0.105,0.938l0.418,0.626l0.625,0.52l1.147,0.523l0.835,0.312l0.312,0.625c0,0-0.104,0.94-0.104,1.252
	c0,0.314-0.208,1.043-0.208,1.043v0.938l0.835,0.312v25.866c-2.504,1.771-2.504,3.857-2.504,3.857l-0.729-0.834l-0.312-0.522
	l-0.521-0.624l-0.938-0.521l-1.043-0.521h-0.834l-0.628,0.104l-0.312,0.627l-0.521,0.729l-0.416,0.836v0.625l0.312,1.146v1.146
	l0.209,1.148l-0.104,0.938l-0.312,1.147l-0.625,0.312v0.938l0.312,0.729l1.045,0.417l0.623,0.312h-2.293v0.835l1.979,10.429
	c0.312,2.607,1.252,4.381,1.252,4.381v6.674l-0.627,0.629v0.832c-0.104,1.046-1.771,1.772-1.771,1.772l-0.521,1.042v6.468h-7.929
	v0.625l1.146,2.4v5.526c-0.209,1.562-1.459,1.459-1.459,1.459v6.259h-6.361l0.729,2.502l1.461,0.938v3.233
	c-1.979,1.354-1.562,5.943-1.562,5.943l-0.729,0.418l-0.416,0.834l-0.521,1.252l-0.207,0.729l0.521,0.522l0.104,0.624l-0.938-0.209
	c-0.821-0.987-0.996,0.557-1.035,1.252h-8.664l-2.922,2.504v3.129h-3.754v4.586H490.9v4.799l1.461,1.461v10.848l-2.504,1.25v6.886
	h45.475h31.289h45.469v-6.886L609.58,333.584z"/>
<path fill="#EBEBEB" d="M360.059,206.122l-0.058-0.644l-0.116-0.788l-0.028-0.757l-0.029-0.438l-0.292-0.553l-0.027-0.67
	l-0.061-0.405l-0.06-0.525l0.06-0.407l0.145-0.757l-0.406-1.254l-0.146-0.697l-0.465-0.64l-0.229-0.377l-0.324-0.524v-0.38
	l-0.234-0.699l-0.112-0.726l-0.174-0.7l-0.291-0.785l-0.028-0.498l-0.175-0.604l-0.179-0.471l-0.262-0.436l-0.262-0.67l-0.146-0.438
	l-0.145-0.522l-0.266-0.524c0,0-0.291-0.464-0.261-0.55c0.027-0.089-0.379-0.613-0.379-0.613l-0.319-0.61l-0.202-0.583l-0.38-0.553
	l-0.493-0.405l-0.354-0.962l-0.379-0.643l-0.259-0.668l-0.41-0.757l-0.437-0.641l-0.64-0.785l-0.205-0.584l-0.264-0.465
	l-0.467-0.789l-0.319-0.899l-0.23-0.522l-0.38-0.76l-0.116-0.755l-0.029-0.524l-0.085-0.583l-0.236-0.468l-0.083-0.641l0.083-0.553
	l-0.026-0.495l-0.027-0.609l-0.292-0.611l-0.03-0.554l-0.029-0.38l-0.201-0.581l-0.091-0.583l0.062-0.438L348.092,169l0.146-0.496
	l-0.174-0.438l-0.062-0.498l-0.203-0.465l-0.061-0.582l-0.143-0.552l0.056-0.524l-0.173-0.643l-0.086-0.524l-0.088-0.725
	l-0.146-0.613v-0.522l-0.145-0.814v-0.755l-0.029-0.467l-0.088-0.551l-0.117-0.613l-0.145-0.525c0,0-0.092-0.61-0.092-0.694
	c0-0.092,0.119-0.671,0.119-0.671l-0.119-0.554l0.032-0.403l-0.116-0.095h-16.014l-7.338,6.756h-3.085l-5.562,2.357h-6.112
	l-5.013,0.904c-7.132-0.582-13.975,1.396-13.975,1.396l-15.112-1.133l-0.812-2.216l-7.628-0.553l-0.815-1.078v-2.188v-11.005h0.496
	l-0.062-0.896l-0.38-0.232v-2.972l0.353-0.231v-0.645l-0.521-0.292v-11.763l0.582-0.494v-0.579l-0.555-0.266v-7.479l0.521-0.354
	v-0.697l-0.551-0.406v-11.681l0.406-0.404v-0.815l-0.438-0.292v-7.189l-0.027-0.381h0.292l0.085-0.696l0.148-0.146v-0.494h0.351
	c0.549-0.468-0.149-0.845-0.149-0.845l-0.58-0.146v-1.568h-0.438l-0.114-15.057l0.321-0.027v-1.078v-0.407h0.35v-0.496h0.383v-0.464
	h-0.789v-2.243h0.466v-0.556l0.846-0.057v-0.846h0.875V75.68h0.61l0.025-0.349v-0.555c-1.775-0.787-1.484-2.419-1.484-2.419
	l-0.469-0.085v-1.37h0.409v-0.96h0.407l-0.142-0.435l-0.293-0.204l-0.382-0.174l0.091-0.439l0.114-0.229l0.293-0.176l0.177-0.352
	l-0.117-0.291v-0.435l0.259-0.266l0.179-0.438l0.146-0.32v-0.437l0.031-0.471l-0.324-0.348l-0.438-0.173l-0.409-0.204l-0.521-0.204
	l-0.059-0.292l0.059-0.292l0.35-0.291h0.438l0.317-0.144l0.114-0.496l0.062-0.408l0.115-0.406l0.062-0.208l0.232-0.113l0.289-0.058
	l0.146-0.263l0.055-0.379l-0.287,0.058l-0.291,0.058l-0.319,0.089l-0.377,0.025l-0.406-0.084l-0.208,0.233v0.377l0.177,0.178
	l-0.232,0.438l-0.233-0.234l-0.202-0.291l0.229-0.322l-0.027-0.407l-0.085-0.263l-0.205-0.263l-0.263-0.145l-0.351,0.177
	l-0.317,0.113c0,0-0.116,0.319-0.116,0.407c0,0.084,0.116,0.261,0.116,0.261v0.207l-0.029,0.408l-0.321,0.029l-0.145-0.322
	l-0.32-0.027l-0.233-0.086l-0.26,0.028l-0.264,0.231l-0.061,0.404l-0.232,0.351l-0.115,0.32l-0.029,0.383v0.35l0.173,0.642
	c0.379,1.162,0.495,2.734,0.495,2.734l-0.027,0.497l-0.146,0.318v0.438v0.351v0.468l-0.146,0.203l-0.146,0.113l-0.231,0.267
	l-5.242-0.44l-0.146-1.279h-0.523v-4.161l0.553-1.021v-0.583h-0.638v-0.757l-0.292-0.028v-1.192h-0.292v-0.644l-0.438-0.435v-1.456
	l-0.35-0.671V51.45l0.23-0.871v-1.657l0.498-0.323v-2.124l-0.554-0.291l-0.324-0.292l-0.145-0.229l-0.554-0.385
	c-1.191-0.784-1.688-3.694-1.688-3.694c0.379-0.293,0.03-1.37,0.03-1.37c0.58-0.23,0.146-1.367,0.146-1.367
	c0.292-0.38-0.438-1.194-0.438-1.194c0.292-0.494-0.058-0.695-0.058-0.695c-0.406-0.354-0.027-3.062-0.027-3.062l0.085-0.376
	l0.292,0.173l0.175,0.352l0.405,0.317c0.875,0.204,0.525-3.492,0.525-3.492c0.729,0.931-0.088-2.479-0.088-2.479
	c1.312,0.789-0.202-3.26-0.202-3.26c0.521,0.205,0.175-0.933,0.175-0.933l-0.321-1.312l0.204-0.234l0.291-0.465l0.089-0.378
	l-0.089-0.496l-0.265-0.376l-0.172-0.438l0.319-0.492l-0.059-0.497l-0.173-0.438l-0.062-0.608l-0.028-0.498l0.056-0.402l0.471,0.026
	l0.406-0.061l0.438-0.229l0.26-0.232l0.204-0.319c0,0-0.112-0.353-0.145-0.469c-0.028-0.113-0.062-0.259-0.062-0.259l-0.025-0.351
	l-0.146-0.205l-0.232-0.232h-0.231l-0.233,0.204l-0.087,0.176v0.292l0.146,0.29l-0.028,0.319l-0.322,0.149l-0.438-0.206
	l-0.438-0.116l-0.06-0.376l0.231-0.089l0.232-0.318l0.172-0.468l0.032-0.438l-0.352-0.438l-0.698-0.265
	c-1.279-0.375-1.833,0.875-1.833,0.875l-0.438-0.089l0.031-0.494l0.117-0.468l0.055-0.264v-0.521l0.088-0.496l-0.088-0.378
	l-0.162-0.562l0.086-0.252c0.504-0.816-0.365-0.775-0.365-0.775c0.055-0.562-0.459-0.215-0.459-0.215
	c-0.358,0.228-0.758-0.26-0.758-0.26c-0.476-0.613-0.854,0.315-0.854,0.315c-0.602-0.436-0.632,0.438-0.632,0.438
	c-0.438-0.29-0.202,0.262-0.202,0.262l0.495,0.757c-0.554,0.411-0.261,1.777-0.261,1.777c-0.269,1.604-0.814,1.746-0.814,1.746
	c-1.72,1.22-1.604,4.277-1.604,4.277l0.322,0.524l0.092,0.32v0.352c-0.148,1.19,0.344,2.444,0.344,2.444
	c0.438,1.046,0.469,2.418,0.469,2.418c0.143,1.598,0,10.219,0,10.219c-0.611,0.087-0.524,0.578-0.524,0.578v1.312
	c-0.643,0-0.583,0.757-0.583,0.757l-0.06,0.759c-0.495,0.231-0.062,0.961-0.062,0.961v0.552l0.094,0.525l0.113,0.378
	c-0.146,3.438-3.089,4.89-3.089,4.89v1.082V48.8l0.292,0.292v1.602l0.29,1.104v5.678l-0.259,0.61v1.104l-0.409,0.381l-0.087,0.873
	h-0.262v1.251h-0.494v1.02l-0.495,0.032v0.23l0.612,1.25v2.153l-3.175,0.756l0.639,1.254l-0.26,0.175l-0.204,0.114h-0.292
	l-0.203,0.147l-0.378-0.264l-0.292,0.114l-0.178,0.35l-0.113,0.471l0.026,0.262l0.087,0.317l-0.289,0.146l-0.495,0.114l-0.41,0.087
	l-0.229,0.232l-0.233-0.088l-0.376-0.318l-0.354-0.234v-0.35l0.149-0.114l0.202-0.145l0.025-0.353l0.205-0.206l-0.293-0.317
	c-0.696-0.587-0.205-1.077-0.205-1.077c0.699-1.166,0.526-3.376,0.526-3.376l-0.262-0.466l-0.202-0.206l-0.209-0.232l-0.376-0.323
	l-0.438-0.582l0.086,0.438l0.025,0.379l-0.082,0.32l-0.324-0.088L232.493,63l-0.057-0.352l0.085-0.291l-0.231-0.318l-0.377-0.147
	l-0.262,0.032l-0.146,0.201l-0.088,0.202l-0.026,0.321l-0.03,0.267l0.264,0.112l-0.116,0.292l-0.229,0.146l-0.353-0.058
	l-0.146-0.263l0.146-0.264l-0.059-0.293l-0.29-0.059l-0.292,0.086l-0.262-0.145l-0.351-0.058l-0.438-0.264l-0.293-0.087
	l-0.115,0.232l-0.057,0.288l0.292,0.117l0.379,0.208l0.435,0.144l0.205,0.378l0.147,0.319v0.292l-0.031,0.351l0.088,0.231
	l0.352,0.117l0.289,0.113h0.293l0.174,0.352l-0.029,0.351l-0.262,0.146l-0.437,0.115L230.4,66.05l-0.319,0.114l-0.114,0.146
	l-0.146,0.263v0.384l0.03,0.4l0.088,0.292l0.171,0.265l0.292,0.207l0.06,0.29l-0.06,0.346l-0.146,0.207l0.146,0.352l0.204,0.291
	l0.262,0.292l0.027,0.379l-0.261,0.232l-0.232,0.146l-0.231,0.265l-0.229,0.202l0.202,0.29l0.116,0.467l0.232,0.291l0.175,0.264
	l0.143,0.29v0.383l-0.026,0.351l-0.146,0.291l-0.204,0.26l-0.175,0.265v0.352l-0.025,0.407l-0.147,0.349l-0.087,0.436l-1.252,0.612
	l0.906,1.225h0.607l0.379,0.932h0.554l0.29,0.701l0.292,1.743v0.438h-0.786l0.437,0.61l0.352,0.405v1.139h0.352v15.021h-0.467v1.57
	l-0.962,0.206v0.376l0.758,0.848v0.698l0.407,0.266v7.803l-0.438,0.173v0.699l0.406,0.174v4.719l-15.954,3.291l-0.38-0.583h-0.435
	v-7.104h0.405l0.352-1.224c0.407-0.497,0.087-1.164,0.087-1.164c-0.553-0.438,0.059-1.486,0.059-1.486v-0.781l0.697-0.523
	l-0.375-1.021h-0.469l-0.032-0.641h-0.347l-1.193-3.726h-1.311h-0.175c-0.062-7.253-4.854-13.245-11.095-14.306v-0.229
	c0,0-0.934-0.386-1.336-0.989c0.179-0.062,0.304-0.232,0.304-0.434c0-0.156-0.077-0.293-0.193-0.377h0.136
	c0.138,0,0.248-0.11,0.248-0.249c0-0.137-0.11-0.247-0.248-0.247h-0.216c0.062-0.097,0.099-0.212,0.099-0.334v-0.467
	c0-0.047-0.007-0.097-0.017-0.145c0.229-0.187,0.377-0.472,0.377-0.792c0-0.521-0.389-0.954-0.886-1.012v-4.998h1.469v-0.298h-1.469
	V74.71H199.7v1.624h-1.471v0.298h1.471v4.998c-0.499,0.058-0.887,0.489-0.887,1.012c0,0.335,0.16,0.636,0.405,0.817
	c-0.006,0.038-0.009,0.079-0.009,0.117v0.467c0,0.123,0.033,0.238,0.1,0.334h-0.216c-0.136,0-0.248,0.108-0.248,0.247
	s0.112,0.249,0.248,0.249h0.139c-0.117,0.084-0.192,0.221-0.192,0.377c0,0.198,0.121,0.37,0.299,0.434
	c-0.403,0.604-1.334,0.989-1.334,0.989v0.186c-6.423,0.927-11.385,7.062-11.385,14.496c0,0.163,0.001,0.332,0.009,0.5l-0.129,0.285
	h-0.726l-1.194,2.68l-0.261-0.089c-0.352-0.522-0.495,0.059-0.495,0.059c-0.117,0.498-0.668,1.079-0.668,1.079
	c0.843,0.466,0.99,2.969,0.99,2.969c-0.875,0.088-0.354,0.962-0.354,0.962c0.47,0.465,0.38,1.63,0.38,1.63h0.318v7.279l-0.292,0.377
	v1.545h-0.61l0.265,0.522h-5.302l-7.132,8.705c-1.427,0.089-1.485,0.319-1.485,0.319c0.232,0.12,0.408,0.698,0.408,0.698
	l0.554-0.028v0.556l0.669,0.292v9.551l-1.136,0.199v1.431l1.191,1.049v9.374l-7.714,1.631v0.583l-1.69,0.204v0.293l0.47,0.258v0.407
	h0.844v1.37l-3.289,0.669v0.729l-0.496,0.026v0.323L160.15,160l0.028,2.734l-4.396,0.61c-2.185,0.408-2.389,1.896-2.389,1.896
	l-0.175,6.435c-1.427,0-1.66,0.904-1.66,0.904l-0.146,1.456l-0.32,0.058l-0.759,0.958l-0.466,0.089l-0.057,0.408l-0.993,0.116
	c0.12-1.106-0.578-0.988-0.578-0.988l-2.271,0.375l-0.062-0.757l-0.698-0.353h-1.051l-0.812,0.876v0.641l-5.938,1.168l-0.117-1.984
	l-0.466-0.812l-2.504,0.351l-0.643,0.582v2.505c-3.492,0.524-2.676,2.271-2.676,2.271l-22.244,4.071
	c-2.798,0.7-1.225,3.029-1.225,3.029l-1.513,0.408l0.057,0.816l1.282,0.521l-1.208,18.469h251.938l2.083-0.036L360.059,206.122z
	 M199.834,85.908l-0.017-0.186h0.032L199.834,85.908z"/>
<g>
	<path fill="#EBEBEB" d="M155.698,242.766c0,0-0.079-4.681,0.968-6.295l-0.562-0.768l-1.287,0.17l-0.484-1.192l-1.205,0.173
		l-0.562-1.197h-1.529l-0.643-1.695l-0.963,1.104l-1.572-0.082c0,0,0.928,0.889,0.521,2.383l-1.483,0.081
		c0,0-0.161-1.95,0.521-2.382c0,0-1.85-0.297-1.85-1.234c0,0-0.24,1.234-1.569,1.194c0,0,0.727,1.529,0.241,2.255l-1.486-0.044
		c0,0-0.521-2.041,0.321-2.468c0,0-0.904-0.231-1.45-0.72l-0.745-11.537c1.15-0.226,1.902-0.593,1.902-1.005
		c0-0.437-0.808-0.816-2.033-1.036l-1.473-22.801c0.259-0.143,0.44-0.416,0.44-0.734c0-0.357-0.228-0.667-0.541-0.795l-0.035-0.512
		h-0.016l-0.621-4.91c0.538-0.126,0.965-0.546,1.086-1.086l5.003,0.634v-1.911l-5.003,0.64c-0.121-0.543-0.548-0.969-1.086-1.09
		l0.637-5.005h-1.915l0.637,5.005c-0.54,0.121-0.964,0.545-1.085,1.09l-5.005-0.64v1.911l5.005-0.634
		c0.122,0.541,0.546,0.96,1.085,1.086l-0.624,4.91h-0.015l-0.034,0.512c-0.314,0.128-0.54,0.438-0.54,0.795
		c0,0.318,0.18,0.594,0.438,0.734l-1.471,22.801c-1.229,0.219-2.033,0.602-2.033,1.036c0,0.412,0.75,0.779,1.898,1.005
		l-0.746,11.546c-0.543,0.479-1.438,0.711-1.438,0.711c0.848,0.427,0.32,2.468,0.32,2.468l-1.483,0.044
		c-0.484-0.726,0.235-2.255,0.235-2.255c-1.322,0.04-1.562-1.194-1.562-1.194c0,0.938-1.854,1.234-1.854,1.234
		c0.688,0.432,0.523,2.382,0.523,2.382l-1.487-0.081c-0.4-1.494,0.521-2.383,0.521-2.383l-1.566,0.082l-0.967-1.104l-0.642,1.695
		h-1.528l-0.562,1.197l-1.21-0.173l-0.479,1.192l-1.29-0.17l-0.562,0.768c1.045,1.614,0.964,6.295,0.964,6.295l0.646,1.53v1.108
		l-0.245,0.599v1.616l1.05,2.809v3.149l0.481,0.767v7.233v2.382l0.801,1.619v23.662l-0.562,3.321l-1.446,2.209l0.804,3.154
		l0.887,0.931v3.065l15.103-0.039l15.099,0.039v-3.065l0.885-0.931l0.808-3.154l-1.448-2.209l-0.562-3.321v-23.662l0.808-1.619
		v-2.382v-7.233l0.48-0.767v-3.149l1.046-2.809v-1.616l-0.24-0.599v-1.108L155.698,242.766z"/>
	<g>
		<polygon fill="#EBEBEB" points="18.318,185.164 18.401,185.102 18.318,184.905 		"/>
		<path fill="#EBEBEB" d="M128.292,271.155l-4.424,1.703h-2.896l0.85-2.385v-4.257l-5.446-4.769h-1.704v2.727h-1.873v-2.211h-0.848
			v2.553h-1.702v-2.553h-1.191v2.384h-1.7v-2.553h-1.195v4.935l-2.212-1.362V260.6l1.874-2.552v-4.769l-6.639-4.938l-1.024-0.169
			v3.229l-1.87,0.342v-6.725h0.635v-3.061l1.004-0.938l0.905-3.149l-1.638-2.209l-0.636-3.323v-23.662l0.908-1.62v-2.381v-7.236
			l0.546-0.764v-3.151l1.184-2.809v-1.619l-0.271-0.593v-1.106l0.729-1.534c0,0-0.092-4.684,1.094-6.297l-0.64-0.767l-1.454,0.169
			l-0.548-1.192l-1.364,0.171l-0.636-1.191h-1.733l-0.726-1.699l-1.094,1.105l-1.778-0.088c0,0,1.049,0.895,0.596,2.389
			l-1.685,0.083c0,0-0.186-1.958,0.59-2.383c0,0-2.092-0.303-2.092-1.236c0,0-0.274,1.236-1.778,1.198c0,0,0.821,1.526,0.275,2.254
			l-1.686-0.044c0,0-0.591-2.041,0.363-2.475c0,0-1.206-0.271-1.786-0.844l-0.377-7.535l0.729-0.344v-0.849l-2.187-1.618v-5.194
			l0.913-0.763l-2.418-28.043l-0.028-1.354c0.021-0.006,0.028-0.012,0.034-0.012c0.243-0.102,0.476-0.22,0.698-0.352
			c0.245-0.15,0.473-0.324,0.67-0.521c0.176-0.179,0.36-0.396,0.368-0.646c0.006-0.297-0.246-0.524-0.454-0.714
			c-0.13-0.117-0.261-0.103-0.407-0.019c-0.068,0.037-0.114,0.097-0.12,0.171c-0.006,0.052,0.006,0.102,0.021,0.148
			c0.015,0.051,0.082,0.13,0.082,0.178c0,0.003-0.016,1.083-1.064,0.789l-0.023-0.277l-0.092,0.103v-3.6
			c0.608-0.039,1.1-0.461,1.192-1.012h1.874v-0.283h-1.858c-0.047-0.605-0.559-1.087-1.208-1.126v-1.656h-0.18v1.656
			c-0.646,0.039-1.161,0.521-1.208,1.126h-1.856v0.283h1.869c0.102,0.55,0.59,0.974,1.195,1.012v3.6l-0.094-0.103l-0.022,0.277
			c-1.053,0.294-1.062-0.786-1.062-0.789c0-0.048,0.062-0.126,0.082-0.178c0.011-0.051,0.023-0.099,0.019-0.148
			c-0.008-0.074-0.05-0.134-0.122-0.171c-0.146-0.084-0.271-0.102-0.403,0.019c-0.208,0.188-0.465,0.418-0.457,0.714
			c0.008,0.249,0.191,0.467,0.367,0.646c0.201,0.197,0.427,0.37,0.67,0.521c0.226,0.132,0.458,0.25,0.701,0.352
			c0.004,0,0.02,0.006,0.031,0.012l-0.027,1.354l-2.416,28.043l0.91,0.763v5.194l-2.187,1.618v0.849l0.728,0.344l-0.375,7.535
			c-0.58,0.569-1.786,0.844-1.786,0.844c0.955,0.435,0.366,2.475,0.366,2.475l-1.686,0.044c-0.549-0.728,0.271-2.254,0.271-2.254
			c-1.503,0.038-1.777-1.198-1.777-1.198c0,0.936-2.093,1.236-2.093,1.236c0.774,0.425,0.589,2.383,0.589,2.383l-1.683-0.083
			c-0.454-1.494,0.593-2.389,0.593-2.389l-1.772,0.088l-1.097-1.105l-0.729,1.699h-1.729l-0.638,1.191l-1.364-0.171l-0.546,1.192
			l-1.458-0.169l-0.636,0.767c1.184,1.614,1.092,6.297,1.092,6.297l0.729,1.534v1.106l-0.274,0.593v1.619l1.187,2.809v3.151
			l0.549,0.764v7.236v2.381l0.905,1.62v22.844l-3.068,0.142l-1.534,1.358L57.132,232l-1.358,1.021v-4.427l-0.793-0.907v-0.684h-1.14
			l-0.108-1.134l-1.703-0.113l-0.344-1.021h-0.903c-0.131-0.067-0.292-0.138-0.465-0.196l-0.448-0.371l-0.621-0.039l-1.463-22.653
			c0.261-0.146,0.438-0.423,0.438-0.745c0-0.356-0.225-0.664-0.537-0.788l-0.033-0.515h-0.019l-0.621-4.911
			c0.537-0.125,0.965-0.547,1.086-1.086l5.007,0.639v-1.917l-5.007,0.642c-0.121-0.543-0.549-0.97-1.086-1.087l0.638-5.006h-1.915
			l0.634,5.006c-0.54,0.119-0.962,0.544-1.083,1.087l-5.007-0.642v1.917l5.007-0.639c0.122,0.539,0.544,0.961,1.083,1.086
			l-0.619,4.911h-0.018l-0.034,0.515c-0.313,0.124-0.54,0.432-0.54,0.788c0,0.322,0.18,0.602,0.439,0.745l-1.403,21.695l-0.34-0.136
			l-1.137-0.116l-0.563-0.342l-1.024,0.112l-14.41-9.417c0,0-0.226-1.479,0.681-3.178l-0.792-0.229l-0.792-0.796l-0.799,0.344
			l-1.248-0.793l-0.795,0.449l-0.797-0.564l-1.305,0.469v-1.062H20.45v-5.191l0.169-0.174l0.171-0.853l0.338-0.341l0.174-0.513
			l0.339-0.423l0.342-0.424l0.512-0.429l0.424-0.255l0.513-0.854l-0.937,0.172l-0.854,0.338l-0.513,0.512l-0.679,0.062v-3.725
			h-0.254v-1.785l0.081-0.938l0.086-0.593l0.428-0.343l0.171-0.515v-0.849l-0.512-0.855l-0.513-0.339v-0.935l0.513,0.083
			l0.679-0.767l0.174-1.02l0.084-0.854l0.51-0.682l0.853-1.021c0.852-1.361,0.769-4.601,0.769-4.601l-0.599,1.448l-0.679,0.684
			l-0.769,1.616l-1.021,1.703l-0.597,0.508l-0.516-0.425v-0.593l0.26-0.603l0.084-0.593l-0.599-0.342l-0.596,0.085l-0.169,0.138
			v-3.92l1.104-0.471l-0.509-0.257h-0.769l0.028,0.257h-0.028v4.528l-0.085,0.064v0.682l0.085,0.192v0.765l-0.085,0.062
			l-0.597-0.513l-0.171-1.104l-0.255-0.425l-0.51-0.765l-0.771-1.705v0.853l0.174,0.769l0.083,0.937l0.259,0.683v0.684l0.255,0.767
			l0.169,0.423l0.423,0.6l0.256,0.427v1.02l-0.084,0.853l0.344,0.85l-0.089,0.94v0.851v0.683l0.256,0.769l0.256,0.592l0.174,0.424
			l0.252,0.429l0.429,0.424l0.167,0.512l0.255,0.512v3.165l-0.339-0.1l-0.512,0.426l-0.595,0.085l-0.515,0.083l0.342,0.854
			l0.173,0.85l0.168,0.763l0.512,0.43l0.426,0.512l0.339,0.057v4.969H18.91v1.014l-1.166-0.419l-0.792,0.564l-0.798-0.451
			l-1.245,0.794l-0.797-0.343l-0.794,0.795l-0.795,0.229c0.907,1.7,0.685,3.178,0.685,3.178l-14.419,9.417l-1.019-0.114
			l-0.568,0.344l-1.133,0.113l-0.82,0.324v-5.433l0.851-1.618v-2.381v-7.24l0.514-0.762v-3.148l1.104-2.81v-1.616l-0.256-0.596
			v-1.107l0.686-1.533c0,0-0.086-4.682,1.021-6.298l-0.598-0.77l-1.362,0.173l-0.512-1.191l-1.274,0.17l-0.597-1.188H-6.79
			l-0.682-1.703l-1.023,1.106l-1.659-0.09c0,0,0.979,0.896,0.557,2.39l-1.576,0.083c0,0-0.169-1.959,0.552-2.384
			c0,0-1.955-0.3-1.955-1.234c0,0-0.255,1.234-1.661,1.188c0,0,0.769,1.535,0.257,2.258l-1.572-0.044c0,0-0.557-2.039,0.338-2.467
			c0,0-1.125-0.273-1.668-0.848l-0.354-7.538l0.686-0.339v-0.854l-2.043-1.617v-5.192l0.85-0.763l-2.257-28.046l-0.027-1.35
			c0.016-0.003,0.027-0.013,0.028-0.013c0.226-0.104,0.448-0.22,0.656-0.354c0.227-0.146,0.438-0.319,0.625-0.519
			c0.162-0.176,0.34-0.398,0.345-0.646c0.003-0.295-0.229-0.524-0.426-0.717c-0.12-0.118-0.24-0.101-0.383-0.016
			c-0.062,0.04-0.104,0.095-0.11,0.169c-0.006,0.05,0.004,0.103,0.021,0.146c0.019,0.054,0.075,0.134,0.075,0.183
			c0,0.003-0.012,1.083-0.994,0.786l-0.021-0.274l-0.085,0.098v-3.599c0.563-0.042,1.021-0.461,1.114-1.011h1.75v-0.283h-1.737
			c-0.042-0.604-0.522-1.084-1.126-1.125v-1.654h-0.171v1.654c-0.604,0.042-1.082,0.522-1.127,1.125h-1.739v0.283h1.75
			c0.09,0.549,0.552,0.969,1.116,1.011v3.599l-0.086-0.098l-0.021,0.274c-0.984,0.297-0.994-0.782-0.994-0.786
			c0-0.049,0.062-0.129,0.074-0.183c0.018-0.047,0.025-0.1,0.021-0.146c-0.007-0.075-0.047-0.13-0.111-0.169
			c-0.142-0.085-0.259-0.104-0.381,0.016c-0.195,0.19-0.435,0.421-0.427,0.717c0.004,0.246,0.181,0.471,0.345,0.646
			c0.188,0.197,0.399,0.371,0.624,0.519c0.212,0.137,0.431,0.251,0.657,0.354c0.005,0,0.016,0.01,0.026,0.013l-0.021,1.35
			l-2.261,28.046l0.852,0.763v5.192l-2.043,1.617v0.854l0.684,0.339l-0.354,7.538c-0.544,0.572-1.67,0.848-1.67,0.848
			c0.896,0.428,0.342,2.467,0.342,2.467l-1.577,0.044c-0.509-0.723,0.257-2.258,0.257-2.258c-1.402,0.046-1.659-1.188-1.659-1.188
			c0,0.938-1.957,1.234-1.957,1.234c0.726,0.425,0.552,2.384,0.552,2.384l-1.572-0.083c-0.429-1.492,0.555-2.39,0.555-2.39
			l-1.66,0.09l-1.021-1.106l-0.685,1.703h-1.613l-0.598,1.188l-1.279-0.17l-0.505,1.191l-1.363-0.173l-0.598,0.77
			c1.104,1.616,1.022,6.298,1.022,6.298l0.68,1.533v1.107l-0.258,0.596v1.616l1.107,2.81v3.148l0.51,0.762v7.24v2.381l0.854,1.618
			v23.665l-0.599,3.314l-1.53,2.216l0.85,3.147l0.354,0.351v4.076c-3.182-10.835-7.72-13.503-7.72-13.503l1.19-1.079v-3.857
			c-0.451-0.622-2.271-0.684-2.271-0.684v-5.729l-0.341-0.567l-0.282-0.851v-0.737l0.061-0.684l0.451-0.622l0.341-0.683l0.284-0.625
			l0.059-0.793l0.111-0.853l-0.111-0.965V221.9l0.284-0.681l0.057-0.567l0.057-0.512l-0.171-0.625l0.114-0.512l0.396-0.512
			l-0.167-0.905l-0.455-0.908l-0.396-0.51l-0.399-0.685l-0.229-0.903l-0.68-0.457l-0.513-0.565l-0.281-0.627l-0.174-0.68
			l-0.17-0.737l-0.454-0.566l-0.625-0.171l-0.51,0.112l-0.228,0.17l-0.111,0.625l0.111,0.452l0.115,0.571l0.171,0.563l0.054,0.624
			l-0.396,0.455l-0.51,0.566l-0.282,0.512l-0.396,0.568l-0.457,0.562l-0.509,0.513l-0.227,0.512l-0.396,0.683
			c0,0-0.397,0.283-0.564,0.283c-0.173,0-0.625,0.337-0.625,0.337l-0.287,0.457l0.114,0.452l0.798-0.168l0.62-0.455l0.344-0.4
			l0.281-0.393l0.172,0.507l-0.059,0.909l-0.113,0.563l0.172,1.025l-0.115,1.188l-0.111,0.688l0.229,0.965l0.395,0.734l0.517,0.344
			l0.228,0.622l0.169,0.684l0.282,0.795l0.229,0.621l-0.112,1.139l-0.455,0.456v3.629v2.5c-1.931,0-2.497,0.682-2.497,0.682v3.404
			l1.25,1.358c-6.019,2.155-9.083,18.498-9.083,18.498c-1.135,4.77-2.381,6.811-2.381,6.811l1.361,1.479v11.119l-2.838,0.566v6.474
			l-1.249,0.454l1.021,2.724v17.134l-1.363,7.494v2.723l-11.573,2.271v-1.477l-4.087-7.606l-3.632,8.059v5.107l-2.95,2.728v26.103
			h51.752h193.394v-55.16L128.292,271.155z M18.318,185.164v-0.262l0.083,0.197L18.318,185.164z"/>
	</g>
	<g>
		<path fill="#FFFFFF" d="M17.781,264.302c0-2.069-1.679-3.746-3.748-3.746s-3.744,1.677-3.744,3.746v40.06h7.492V264.302z"/>
		<path fill="#FFFFFF" d="M-51.912,268.655c0-0.428-0.503-0.779-1.129-0.779c-0.621,0-1.126,0.354-1.126,0.779v8.303h2.255V268.655z
			"/>
		<path fill="#FFFFFF" d="M-48.792,268.655c0-0.428-0.503-0.779-1.126-0.779c-0.622,0-1.129,0.354-1.129,0.779v8.303h2.255V268.655z
			"/>
		<path fill="#FFFFFF" d="M-53.83,291.281c0-0.448-0.534-0.819-1.194-0.819c-0.659,0-1.199,0.371-1.199,0.819v8.828h2.396
			L-53.83,291.281L-53.83,291.281z"/>
		<path fill="#FFFFFF" d="M-61.351,325.061c0-0.619-2.021-1.119-4.512-1.119c-2.493,0-4.518,0.5-4.518,1.119v11.931h9.026
			L-61.351,325.061L-61.351,325.061z"/>
		<path fill="#FFFFFF" d="M-50.481,291.281c0-0.448-0.536-0.819-1.197-0.819c-0.66,0-1.197,0.371-1.197,0.819v8.828h2.396
			L-50.481,291.281L-50.481,291.281z"/>
		<path fill="#FFFFFF" d="M-47.132,291.281c0-0.448-0.536-0.819-1.197-0.819c-0.659,0-1.197,0.371-1.197,0.819v8.828h2.396
			L-47.132,291.281L-47.132,291.281z"/>
		<path fill="#FFFFFF" d="M-42.607,268.655c0-0.428-0.505-0.779-1.126-0.779c-0.624,0-1.129,0.354-1.129,0.779v8.303h2.255V268.655z
			"/>
		<path fill="#FFFFFF" d="M-39.487,268.655c0-0.428-0.502-0.779-1.126-0.779c-0.622,0-1.127,0.354-1.127,0.779v8.303h2.253V268.655z
			"/>
		<path fill="#FFFFFF" d="M32.987,264.302c0-2.069-1.675-3.746-3.744-3.746c-2.071,0-3.748,1.677-3.748,3.746v40.06h7.492V264.302z"
			/>
		<path fill="#FFFFFF" d="M45.245,268.974c0-2.021-0.868-3.651-1.932-3.651c-1.064,0-1.927,1.631-1.927,3.651v37.243l3.856,1.289
			L45.245,268.974L45.245,268.974z"/>
		<path fill="#FFFFFF" d="M-1.744,268.974c0-2.021,0.867-3.651,1.934-3.651c1.065,0,1.93,1.631,1.93,3.651v37.243l-3.86,1.289
			L-1.744,268.974L-1.744,268.974z"/>
		<path fill="#FFFFFF" d="M-58.421,269.418c0-0.409,0.228-0.749,0.504-0.749c0.273,0,0.499,0.339,0.499,0.749v7.635l-1.002,0.262
			L-58.421,269.418L-58.421,269.418z"/>
		<path fill="#FFFFFF" d="M-59.838,269.591c0-0.414,0.22-0.746,0.499-0.746c0.276,0,0.501,0.333,0.501,0.746v7.636l-1,0.258V269.591
			z"/>
		<g>
			<path fill="#FFFFFF" d="M77.5,195.757c0-1.508-0.927-2.729-2.063-2.729c-1.145,0-2.069,1.221-2.069,2.729v29.166h4.135
				L77.5,195.757L77.5,195.757z"/>
			<path fill="#FFFFFF" d="M86.579,195.757c0-1.508-0.928-2.729-2.062-2.729c-1.146,0-2.069,1.221-2.069,2.729v29.166h4.134
				L86.579,195.757L86.579,195.757z"/>
			<path fill="#FFFFFF" d="M64.905,197.356c0-1.512,0.647-2.734,1.448-2.734c0.799,0,1.448,1.225,1.448,2.734v27.924l-2.896,0.967
				V197.356z"/>
			<path fill="#FFFFFF" d="M95.041,197.356c0-1.512-0.646-2.734-1.45-2.734c-0.799,0-1.442,1.225-1.442,2.734v27.924l2.895,0.967
				L95.041,197.356L95.041,197.356z"/>
		</g>
		<g>
			<path fill="#FFFFFF" d="M136.072,244.104c0-1.505-0.826-2.726-1.844-2.726c-1.021,0-1.843,1.221-1.843,2.726v29.162h3.687
				V244.104z"/>
			<path fill="#FFFFFF" d="M144.177,244.104c0-1.505-0.827-2.726-1.85-2.726c-1.014,0-1.842,1.221-1.842,2.726v29.162h3.688
				L144.177,244.104L144.177,244.104z"/>
			<path fill="#FFFFFF" d="M124.831,245.698c0-1.508,0.575-2.731,1.291-2.731c0.713,0,1.291,1.226,1.291,2.731v27.932l-2.582,0.965
				V245.698L124.831,245.698z"/>
			<path fill="#FFFFFF" d="M151.727,245.698c0-1.508-0.576-2.731-1.291-2.731c-0.713,0-1.292,1.226-1.292,2.731v27.932l2.583,0.965
				V245.698z"/>
		</g>
		<path fill="#FFFFFF" d="M-21.695,204.948c0-1.503-0.845-2.728-1.879-2.728c-1.039,0-1.884,1.224-1.884,2.728v29.166h3.763V204.948
			z"/>
		<path fill="#FFFFFF" d="M-13.432,226.168l0.448-0.486v-20.733c0-1.503-0.84-2.728-1.879-2.728c-1.04,0-1.885,1.224-1.885,2.728
			v22.271l1.386-1.276L-13.432,226.168z"/>
		<path fill="#FFFFFF" d="M-33.149,206.545c0-1.511,0.589-2.733,1.312-2.733c0.729,0,1.315,1.226,1.315,2.733v27.929l-2.63,0.962
			L-33.149,206.545L-33.149,206.545z"/>
		<path fill="#FFFFFF" d="M-6.505,221.972l0.766,0.381v-15.808c0-1.511-0.592-2.733-1.315-2.733c-0.729,0-1.317,1.226-1.317,2.733
			v16.705l0.847,0.19L-6.505,221.972z"/>
		<path fill="#FFFFFF" d="M-21.49,254.884c0,1.438-1.165,2.609-2.61,2.609c-1.439,0-2.608-1.171-2.608-2.609
			c0-1.444,1.168-2.61,2.608-2.61C-22.656,252.273-21.49,253.439-21.49,254.884z"/>
		<circle fill="#FFFFFF" cx="-51.563" cy="260.726" r="1.304"/>
		<path fill="#FFFFFF" d="M-40.046,260.726c0,0.72-0.584,1.307-1.306,1.307c-0.718,0-1.302-0.586-1.302-1.307
			c0-0.72,0.584-1.302,1.302-1.302C-40.63,259.424-40.046,260.006-40.046,260.726z"/>
		<ellipse fill="#FFFFFF" cx="-59.423" cy="261.521" rx="0.679" ry="1.305"/>
		<path fill="#FFFFFF" d="M-21.49,283.711c0,1.438-1.165,2.606-2.61,2.606c-1.439,0-2.608-1.168-2.608-2.606
			c0-1.44,1.168-2.61,2.608-2.61C-22.656,281.101-21.49,282.271-21.49,283.711z"/>
		<path fill="#FFFFFF" d="M-21.49,312.761c0,1.44-1.165,2.61-2.61,2.61c-1.439,0-2.608-1.17-2.608-2.61
			c0-1.439,1.168-2.609,2.608-2.609C-22.656,310.152-21.49,311.321-21.49,312.761z"/>
		<circle fill="#FFFFFF" cx="77.178" cy="246.03" r="2.61"/>
		<circle fill="#FFFFFF" cx="77.178" cy="274.858" r="2.61"/>
		<path fill="#FFFFFF" d="M79.788,303.908c0,1.44-1.169,2.612-2.605,2.612c-1.443,0-2.611-1.172-2.611-2.612
			c0-1.442,1.168-2.606,2.611-2.606C78.619,301.302,79.788,302.466,79.788,303.908z"/>
		<path fill="#FFFFFF" d="M137.852,295.173c0,1.129-0.911,2.041-2.041,2.041c-1.129,0-2.046-0.912-2.046-2.041
			c0-1.13,0.917-2.043,2.046-2.043C136.941,293.13,137.852,294.043,137.852,295.173z"/>
		<path fill="#FFFFFF" d="M94.839,248.757c0,1.438-0.452,2.605-1.021,2.605c-0.565,0-1.022-1.168-1.022-2.605
			c0-1.446,0.457-2.613,1.022-2.613C94.385,246.144,94.839,247.311,94.839,248.757z"/>
		<ellipse fill="#FFFFFF" cx="94.159" cy="277.58" rx="1.022" ry="2.608"/>
		<ellipse fill="#FFFFFF" cx="152.72" cy="296.419" rx="1.021" ry="2.609"/>
		<ellipse fill="#FFFFFF" cx="94.159" cy="306.635" rx="1.022" ry="2.61"/>
		<rect x="-85.781" y="329.957" fill="#FFFFFF" width="3.574" height="3.742"/>
		<rect x="-82.548" y="317.698" fill="#FFFFFF" width="0.854" height="2.043"/>
		<g>
			<rect x="74.453" y="325.192" fill="#FFFFFF" width="2.386" height="7.998"/>
			<rect x="77.518" y="325.192" fill="#FFFFFF" width="2.381" height="7.998"/>
		</g>
	</g>
</g>
<path fill="#EBEBEB" d="M59.234,104.565l81.72,0.125c0,0,0.009-5.223-11.25-6.262c0,0-10.242-22.835-25.938-19.795
	c-9.775,1.894-14.792,15.304-14.792,15.304s-7.367-10.567-13.279-8.535c-5.91,2.036-9.434,13.271-9.434,13.271
	S60.162,101.615,59.234,104.565z"/>
<path fill="#EBEBEB" d="M398.664,54.396l55.566,0.084c0,0-5.236-4.889-7.566-4.893c-2.332-0.004-9.104-16.398-17.801-15.715
	c-8.693,0.684-13.324,12.878-13.324,12.878S404.979,43.423,398.664,54.396z"/>
<path fill="#F5F5F5" d="M396.727,22.889c0.683-4.961-6.318-9.043-11.581-9.467c-2.509-0.203-5.115,0.181-7.491-0.647
	c-5.147-1.794-7.207-8.445-12.229-10.565c-3.76-1.584-8.083-0.176-11.725,1.657c-3.645,1.833-7.244,4.143-11.311,4.4
	c-3.54,0.229-7.384-1.085-10.479,0.642c-2.308,1.29-3.518,3.948-5.643,5.519c-2.083,1.536-4.796,1.86-7.376,2
	c-2.583,0.141-5.255,0.167-7.605,1.243c-2.352,1.076-4.296,3.562-3.807,6.102L396.727,22.889z"/>
</svg>
