<?xml version="1.0" encoding="utf-8"?>
<!-- Generator: Adobe Illustrator 16.0.0, SVG Export Plug-In . SVG Version: 6.00 Build 0)  -->
<!DOCTYPE svg PUBLIC "-//W3C//DTD SVG 1.1//EN" "http://www.w3.org/Graphics/SVG/1.1/DTD/svg11.dtd">
<svg version="1.1" id="Calque_1" xmlns="http://www.w3.org/2000/svg" xmlns:xlink="http://www.w3.org/1999/xlink" x="0px" y="0px"
	 width="227px" height="290px" viewBox="70.5 25.5 227 290" enable-background="new 70.5 25.5 227 290" xml:space="preserve">
<g>
	<g>
		<polygon fill="#6456A1" points="183.379,117.022 183.393,117.022 183.387,114.646 		"/>
		<path fill="#6456A1" d="M202.688,186.071l0.979-1.232l-0.209-1.606l-1.328-0.25l-0.98-1.107l-0.346-19.038l0.84-1.239
			l-0.354-1.484l-1.188-0.858L199.33,141.2l0.838-0.492l-0.207-1.486l-0.979-0.741l-0.838-0.736l-0.213-18.056l0.424-0.859
			l-0.701-1.36l-1.33-1.854l-0.206-14.838l0.979-1.853l-0.701-1.979l-0.14-12.237c0,0-1.329-1.978-2.171,0v0.989l-3.219-5.314V75.68
			c0,0-0.49-1.362-1.535-1.605l-5.717-32.438v-4.438c0.467-0.18,0.822-0.923,0.822-1.812c0-0.944-0.4-1.715-0.916-1.833v-2.896
			h0.758c0.049,0,0.08-0.094,0.08-0.213c0-0.107-0.031-0.201-0.08-0.201h-0.758v-1.72h-0.264v1.72h-0.764
			c-0.045,0-0.079,0.094-0.079,0.201c0,0.119,0.034,0.213,0.079,0.213h0.764v2.896c-0.518,0.118-0.923,0.889-0.923,1.833
			c0,0.889,0.358,1.632,0.828,1.812v4.435l-5.709,32.438c-1.054,0.245-1.544,1.606-1.544,1.606v4.696l-3.219,5.315v-0.99
			c-0.842-1.977-2.166,0-2.166,0l-0.144,12.238l-0.696,1.979l0.978,1.853l-0.207,14.838l-1.334,1.854l-0.694,1.358l0.418,0.861
			l-0.209,18.054l-0.836,0.74l-0.98,0.744l-0.213,1.479l0.842,0.494l-0.768,18.055l-1.189,0.858l-0.354,1.484l0.842,1.239
			l-0.349,19.035l-0.979,1.11l-1.327,0.25l-0.21,1.606l0.979,1.234l-1.955,28.934l18.841-2.104h4.83l18.84,2.104L202.688,186.071z
			 M183.379,117.022l0.008-2.377l0.006,2.377H183.379z"/>
	</g>
	<g>
		<g>
			<g>
				<path fill="#FFFFFF" d="M182.413,101.148c0-1.206-0.466-2.184-1.037-2.184c-0.569,0-1.032,0.979-1.032,2.184v9.685h2.069
					V101.148L182.413,101.148z"/>
				<path fill="#FFFFFF" d="M186.436,101.148c0-1.206-0.465-2.184-1.037-2.184c-0.574,0-1.035,0.979-1.035,2.184v9.685h2.072
					V101.148z"/>
			</g>
			<g>
				<path fill="#FFFFFF" d="M182.288,123.626c0-1.373-0.521-2.488-1.166-2.488c-0.642,0-1.164,1.115-1.164,2.488v11.042h2.33
					V123.626z"/>
				<path fill="#FFFFFF" d="M186.818,123.626c0-1.373-0.521-2.488-1.166-2.488c-0.646,0-1.166,1.115-1.166,2.488v11.042h2.332
					V123.626L186.818,123.626z"/>
			</g>
			<g>
				<path fill="#FFFFFF" d="M182.139,144.213c0-1.766-0.597-3.194-1.326-3.194c-0.732,0-1.328,1.435-1.328,3.194v14.146h2.654
					V144.213z"/>
				<path fill="#FFFFFF" d="M187.288,144.213c0-1.766-0.589-3.194-1.324-3.194c-0.729,0-1.325,1.435-1.325,3.194v14.146h2.649
					V144.213z"/>
			</g>
			<g>
				<path fill="#FFFFFF" d="M182.07,168.526c0-1.854-0.621-3.354-1.393-3.354c-0.773,0-1.393,1.502-1.393,3.354v14.861h2.781
					L182.07,168.526L182.07,168.526z"/>
				<path fill="#FFFFFF" d="M187.484,168.526c0-1.854-0.619-3.354-1.391-3.354c-0.773,0-1.396,1.502-1.396,3.354v14.861h2.785
					L187.484,168.526L187.484,168.526z"/>
			</g>
			<g>
				<path fill="#FFFFFF" d="M181.969,192.111c0-2.001-0.678-3.624-1.504-3.624c-0.83,0-1.506,1.622-1.506,3.624v16.054h3.01V192.111
					z"/>
				<path fill="#FFFFFF" d="M187.814,192.111c0-2.001-0.674-3.624-1.502-3.624c-0.834,0-1.508,1.622-1.508,3.624v16.054h3.01
					V192.111z"/>
			</g>
		</g>
		<g>
			<g>
				<path fill="#FFFFFF" d="M177.59,103.68c0-1.164-0.4-2.265-0.898-2.453c-0.498-0.183-0.899,0.615-0.899,1.784v8.497l1.804-0.796
					v-7.032H177.59z"/>
				<path fill="#FFFFFF" d="M174.436,105.737c0-1.17-0.401-2.271-0.898-2.458c-0.494-0.185-0.896,0.613-0.896,1.783v7.84
					l1.795-0.798V105.737z"/>
			</g>
			<g>
				<path fill="#FFFFFF" d="M176.99,126.603c0-1.273-0.438-2.478-0.979-2.682c-0.549-0.203-0.982,0.671-0.982,1.943v9.386
					l1.961-0.789V126.603L176.99,126.603z"/>
				<path fill="#FFFFFF" d="M173.547,128.841c0-1.274-0.436-2.479-0.979-2.678c-0.543-0.204-0.979,0.667-0.979,1.942v8.527
					l1.962-0.791v-7.004L173.547,128.841L173.547,128.841z"/>
			</g>
			<g>
				<path fill="#FFFFFF" d="M176.266,146.698c0-1.711-0.595-3.312-1.318-3.586c-0.723-0.272-1.311,0.896-1.311,2.604v13.104
					l2.631-1.048v-11.075H176.266z"/>
				<path fill="#FFFFFF" d="M172.062,149.845c0-1.705-0.592-3.314-1.313-3.585c-0.728-0.273-1.315,0.896-1.315,2.604V160.5
					l2.633-1.044L172.062,149.845L172.062,149.845z"/>
			</g>
			<g>
				<path fill="#FFFFFF" d="M175.775,169.501c0-2.066-0.646-3.988-1.432-4.278c-0.793-0.296-1.439,1.139-1.439,3.205v14.933
					l2.865-0.864L175.775,169.501L175.775,169.501z"/>
				<path fill="#FFFFFF" d="M171.17,172.072c0-1.828-0.629-3.553-1.406-3.843c-0.775-0.291-1.406,0.959-1.406,2.79v13.718
					l2.812-0.854V172.072L171.17,172.072z"/>
			</g>
			<g>
				<path fill="#FFFFFF" d="M174.977,192.554c0-2.222-0.692-4.287-1.545-4.603c-0.857-0.323-1.547,1.22-1.547,3.448v17.553
					l3.092-0.343V192.554L174.977,192.554z"/>
				<path fill="#FFFFFF" d="M170.014,195.329c0-1.979-0.685-3.831-1.517-4.146c-0.841-0.312-1.521,1.035-1.521,3.006v15.286
					l3.035-0.327L170.014,195.329L170.014,195.329z"/>
			</g>
		</g>
		<g>
			<g>
				<path fill="#FFFFFF" d="M189.184,103.68c0-1.164,0.408-2.265,0.899-2.453c0.498-0.183,0.899,0.615,0.899,1.784v8.497
					l-1.801-0.796L189.184,103.68L189.184,103.68z"/>
				<path fill="#FFFFFF" d="M192.34,105.737c0-1.17,0.396-2.271,0.896-2.458c0.496-0.185,0.898,0.613,0.898,1.783v7.84l-1.799-0.798
					v-6.367H192.34z"/>
			</g>
			<g>
				<path fill="#FFFFFF" d="M189.781,126.603c0-1.273,0.441-2.478,0.982-2.682c0.541-0.203,0.982,0.671,0.982,1.943v9.386
					l-1.971-0.789L189.781,126.603L189.781,126.603z"/>
				<path fill="#FFFFFF" d="M193.221,128.841c0-1.274,0.444-2.479,0.981-2.678c0.545-0.204,0.983,0.667,0.983,1.942v8.527
					l-1.969-0.791L193.221,128.841L193.221,128.841z"/>
			</g>
			<g>
				<path fill="#FFFFFF" d="M190.512,146.698c0-1.711,0.588-3.312,1.311-3.586c0.73-0.272,1.316,0.896,1.316,2.604v13.104
					l-2.629-1.048L190.512,146.698L190.512,146.698z"/>
				<path fill="#FFFFFF" d="M194.715,149.845c0-1.705,0.588-3.314,1.312-3.585c0.729-0.273,1.316,0.896,1.316,2.604V160.5
					l-2.63-1.044L194.715,149.845L194.715,149.845z"/>
			</g>
			<g>
				<path fill="#FFFFFF" d="M190.997,169.501c0-2.066,0.644-3.988,1.433-4.278c0.793-0.296,1.438,1.139,1.438,3.205v14.933
					L191,182.496L190.997,169.501L190.997,169.501z"/>
				<path fill="#FFFFFF" d="M195.604,172.072c0-1.828,0.629-3.553,1.406-3.843c0.778-0.291,1.405,0.959,1.405,2.79v13.718
					l-2.812-0.854V172.072L195.604,172.072z"/>
			</g>
			<g>
				<path fill="#FFFFFF" d="M191.801,192.554c0-2.222,0.689-4.287,1.547-4.603c0.854-0.323,1.545,1.22,1.545,3.448v17.553
					l-3.092-0.343V192.554z"/>
				<path fill="#FFFFFF" d="M196.762,195.329c0-1.979,0.68-3.831,1.516-4.146c0.841-0.312,1.516,1.035,1.516,3.006v15.286
					l-3.027-0.327L196.762,195.329L196.762,195.329z"/>
			</g>
		</g>
	</g>
	<rect x="183.023" y="71.312" fill="#263239" width="0.728" height="2.942"/>
	<g>
		<polygon fill="#6456A1" points="290.076,234.926 265.029,226.546 265.029,217.281 262.943,216.179 261.043,211.985 
			213.404,211.985 155.523,211.985 107.887,211.985 105.986,216.179 103.902,217.281 103.902,226.546 78.852,234.926 
			76.571,238.238 76.571,241.323 78.28,243.753 78.28,250.368 78.28,309.05 174.117,309.05 194.811,309.05 290.645,309.05 
			290.645,250.368 290.645,243.753 292.355,241.323 292.355,238.238 		"/>
		<path fill="#FFFFFF" d="M188.389,289.166c0-2.055-1.758-3.726-3.929-3.726c-2.164,0-3.927,1.67-3.927,3.726v16.502h7.854v-16.502
			H188.389z"/>
		<path fill="#6456A1" d="M187.652,241.906c0-1.182-1.426-2.144-3.19-2.144c-1.756,0-3.185,0.962-3.185,2.144v9.493h6.375V241.906
			L187.652,241.906z"/>
	</g>
	<g>
		<g>
			<path fill="#FFFFFF" d="M94.708,255.057c0-1.249-1.11-2.259-2.48-2.259c-1.362,0-2.477,1.01-2.477,2.259v10.021h4.956
				L94.708,255.057L94.708,255.057z"/>
			<path fill="#FFFFFF" d="M112.167,255.057c0-1.249-1.106-2.259-2.478-2.259s-2.476,1.01-2.476,2.259v10.021h4.951L112.167,255.057
				L112.167,255.057z"/>
			<path fill="#FFFFFF" d="M127.729,255.057c0-1.249-1.106-2.259-2.479-2.259c-1.365,0-2.479,1.01-2.479,2.259v10.021h4.957
				L127.729,255.057L127.729,255.057z"/>
			<path fill="#FFFFFF" d="M143.672,255.057c0-1.249-1.105-2.259-2.479-2.259c-1.371,0-2.48,1.01-2.48,2.259v10.021h4.959V255.057z"
				/>
		</g>
		<g>
			<path fill="#FFFFFF" d="M230.211,255.057c0-1.249-1.104-2.259-2.479-2.259c-1.365,0-2.479,1.01-2.479,2.259v10.021h4.957
				L230.211,255.057L230.211,255.057z"/>
			<path fill="#FFFFFF" d="M247.672,255.057c0-1.249-1.107-2.259-2.479-2.259c-1.369,0-2.478,1.01-2.478,2.259v10.021h4.953
				L247.672,255.057L247.672,255.057z"/>
			<path fill="#FFFFFF" d="M263.236,255.057c0-1.249-1.106-2.259-2.475-2.259c-1.373,0-2.484,1.01-2.484,2.259v10.021h4.959V255.057
				z"/>
			<path fill="#FFFFFF" d="M279.178,255.057c0-1.249-1.107-2.259-2.476-2.259c-1.369,0-2.479,1.01-2.479,2.259v10.021h4.953v-10.021
				H279.178z"/>
		</g>
	</g>
	<g>
		<g>
			<path fill="#FFFFFF" d="M93.116,286.609c0-1.459-1.242-2.643-2.783-2.643s-2.791,1.184-2.791,2.643v11.719h5.574V286.609z"/>
			<path fill="#FFFFFF" d="M127.277,286.609c0-1.459-1.248-2.643-2.787-2.643c-1.536,0-2.784,1.184-2.784,2.643v11.719h5.571
				V286.609z"/>
			<path fill="#FFFFFF" d="M110.199,286.609c0-1.459-1.245-2.643-2.788-2.643c-1.539,0-2.789,1.184-2.789,2.643v11.719h5.577
				V286.609z"/>
		</g>
		<g>
			<path fill="#FFFFFF" d="M281.385,286.609c0-1.459-1.248-2.643-2.785-2.643c-1.541,0-2.791,1.184-2.791,2.643v11.719h5.576
				V286.609z"/>
			<path fill="#FFFFFF" d="M263.93,286.609c0-1.459-1.254-2.643-2.795-2.643c-1.537,0-2.785,1.184-2.785,2.643v11.719h5.58V286.609
				L263.93,286.609z"/>
			<path fill="#FFFFFF" d="M246.467,286.609c0-1.459-1.248-2.643-2.787-2.643c-1.541,0-2.791,1.184-2.791,2.643v11.719h5.578
				V286.609L246.467,286.609z"/>
		</g>
	</g>
	<g>
		<g>
			<path fill="#FFFFFF" d="M218.754,289.258c0-1.462-1.244-2.646-2.785-2.646s-2.787,1.186-2.787,2.646v11.714h5.572V289.258
				L218.754,289.258z"/>
			<path fill="#FFFFFF" d="M155.749,289.258c0-1.462-1.25-2.646-2.789-2.646s-2.787,1.186-2.787,2.646v11.714h5.576V289.258z"/>
		</g>
		<path fill="#FFFFFF" d="M206.611,289.258c0-1.462-1.252-2.646-2.793-2.646c-1.532,0-2.778,1.186-2.778,2.646v11.714h5.571V289.258
			L206.611,289.258z"/>
		<path fill="#FFFFFF" d="M167.514,289.258c0-1.462-1.25-2.646-2.787-2.646c-1.539,0-2.785,1.186-2.785,2.646v11.714h5.572V289.258z
			"/>
	</g>
	<g>
		<g>
			<path fill="#FFFFFF" d="M176.859,241.906c0-1.182-1.17-2.144-2.617-2.144c-1.448,0-2.622,0.962-2.622,2.144v9.493h5.239V241.906z
				"/>
			<path fill="#FFFFFF" d="M168.941,241.906c0-1.182-1.028-2.144-2.293-2.144c-1.264,0-2.292,0.962-2.292,2.144v9.493h4.584V241.906
				L168.941,241.906z"/>
		</g>
		<g>
			<path fill="#FFFFFF" d="M192.066,241.906c0-1.182,1.174-2.144,2.617-2.144c1.445,0,2.621,0.962,2.621,2.144v9.493h-5.238V241.906
				L192.066,241.906z"/>
			<path fill="#FFFFFF" d="M199.988,241.906c0-1.182,1.029-2.144,2.293-2.144c1.263,0,2.289,0.962,2.289,2.144v9.493h-4.582V241.906
				z"/>
		</g>
	</g>
	<g>
		<path fill="#263239" d="M112.917,275.297c0,1.951-1.36,3.53-3.035,3.53c-1.68,0-3.034-1.579-3.034-3.53
			c0-1.947,1.354-3.528,3.034-3.528C111.555,271.769,112.917,273.35,112.917,275.297z"/>
		<path fill="#263239" d="M262.084,275.297c0,1.951-1.354,3.53-3.031,3.53c-1.679,0-3.037-1.579-3.037-3.53
			c0-1.947,1.357-3.528,3.037-3.528C260.73,271.769,262.084,273.35,262.084,275.297z"/>
		<path fill="#263239" d="M204.395,275.297c0,1.951-1.359,3.53-3.037,3.53c-1.68,0-3.037-1.579-3.037-3.53
			c0-1.947,1.357-3.528,3.037-3.528C203.033,271.769,204.395,273.35,204.395,275.297z"/>
		<path fill="#263239" d="M166.053,275.297c0,1.951-1.357,3.53-3.033,3.53c-1.683,0-3.037-1.579-3.037-3.53
			c0-1.947,1.354-3.528,3.037-3.528C164.693,271.769,166.053,273.35,166.053,275.297z"/>
	</g>
	<polygon fill="#8587C1" points="116.646,305.56 115.646,305.56 115.646,270.661 131.086,270.661 132.064,304.358 131.064,304.388 
		130.115,271.661 116.646,271.661 	"/>
	<polygon fill="#8587C1" points="144.52,305.56 143.52,305.56 143.52,270.661 158.959,270.661 159.938,304.358 158.938,304.388 
		157.988,271.661 144.52,271.661 	"/>
	<polygon fill="#8587C1" points="170.613,303.187 169.613,303.187 169.613,256.429 196.518,256.429 198.264,301.572 
		197.264,301.611 195.555,257.429 170.613,257.429 	"/>
	<polygon fill="#8587C1" points="207.975,304.372 206.975,304.372 206.975,269.476 222.417,269.476 223.395,303.173 222.395,303.2 
		221.445,270.476 207.975,270.476 	"/>
	<polygon fill="#8587C1" points="235.256,305.56 234.256,305.56 234.256,270.661 249.695,270.661 250.676,304.358 249.676,304.388 
		248.727,271.661 235.256,271.661 	"/>
	<polygon fill="#8587C1" points="269.652,306.151 268.652,306.151 268.652,271.256 284.096,271.256 285.072,304.95 284.072,304.98 
		283.125,272.256 269.652,272.256 	"/>
	<polygon fill="#8587C1" points="219.745,247.352 204.316,233.705 159.689,233.118 150.206,246.156 89.463,246.754 89.454,245.754 
		149.691,245.164 159.188,232.11 204.702,232.71 220.113,246.344 278.633,245.161 278.65,246.161 	"/>
	<path fill="#8587C1" d="M189.312,86.467c-5.01-5.567-12.94-1.132-13.021-1.086l-0.496-0.868c0.086-0.05,8.717-4.875,14.262,1.286
		L189.312,86.467z"/>
	<path fill="#8587C1" d="M174.596,98.368l-0.662-0.75c0.104-0.096,10.547-9.111,19.08,0.03l-0.73,0.687
		C184.4,89.891,174.992,98.018,174.596,98.368z"/>
	<path fill="#8587C1" d="M172.484,120.34l-0.59-0.812c0.125-0.092,12.641-9.024,22.862,0.029l-0.661,0.749
		C184.479,111.791,172.604,120.253,172.484,120.34z"/>
	<path fill="#8587C1" d="M170.67,142.897l-0.521-0.854c0.148-0.091,15.062-8.965,27.244,0.021l-0.595,0.809
		C185.165,134.285,170.812,142.812,170.67,142.897z"/>
	<path fill="#8587C1" d="M171.264,164.842l-0.521-0.854c0.149-0.091,15.062-8.965,27.241,0.025l-0.594,0.805
		C185.757,156.229,171.406,164.754,171.264,164.842z"/>
	<path fill="#8587C1" d="M171.264,188.858l-0.521-0.854c0.149-0.091,15.062-8.965,27.241,0.021l-0.594,0.809
		C185.757,180.246,171.406,188.771,171.264,188.858z"/>
	<path fill="#8587C1" d="M148.066,239.829l-0.979-0.196c0.576-2.872-0.297-22.22-0.306-22.415l0.998-0.046
		C147.816,217.974,148.667,236.838,148.066,239.829z"/>
	
		<rect x="207.919" y="227.962" transform="matrix(0.0125 0.9999 -0.9999 0.0125 445.4727 5.8386)" fill="#8587C1" width="23.723" height="0.998"/>
	<path fill="#8587C1" d="M205.43,223.55c-21.734-13.624-46.101-0.418-46.345-0.283l-0.481-0.875
		c0.248-0.137,25.126-13.622,47.356,0.312L205.43,223.55z"/>
	<polyline fill="#594C8D" points="109.624,226.388 109.029,221.051 141.35,222.83 141.055,227.276 109.326,227.573 	"/>
	<polyline fill="#594C8D" points="258.182,226.091 258.775,220.753 226.454,222.531 226.749,226.98 258.479,227.276 	"/>
</g>
</svg>
